<svg width="86" height="72" viewBox="0 0 86 72" fill="none" xmlns="http://www.w3.org/2000/svg">
<g clip-path="url(#clip0_374_27795)">
<path fill-rule="evenodd" clip-rule="evenodd" d="M24.7007 66.3531L21.7256 2.84961H81.6905L73.9989 66.3659L24.7007 66.3531Z" fill="#63AEF4"/>
<path d="M21.7254 2.84961L3.13574 4.42503L7.8458 66.3723L24.7005 66.3531L21.7254 2.84961Z" fill="#105282"/>
<path d="M21.7256 2.84961H81.6905L81.4785 4.62996H21.8091L21.7256 2.84961Z" fill="#105282"/>
<path d="M84.9159 3.7208L85.4492 0.864559L20.1445 0V3.02275L84.9159 3.7208Z" fill="#68DEF8"/>
<path d="M20.1447 0L0 2.31189L0.539761 4.63019L20.1447 3.02275V0Z" fill="#105282"/>
<path d="M24.7005 27.8706L75.7272 29.7342L78.5095 6.39111H23.6724L24.7005 27.8706Z" fill="#105282"/>
<path d="M49.8958 6.39111V28.7864L24.7005 27.8706L23.6724 6.39111H49.8958Z" fill="#1D91B6"/>
<g style="mix-blend-mode:soft-light" opacity="0.5">
<path fill-rule="evenodd" clip-rule="evenodd" d="M31.5117 37.554V31.9824L42.172 32.0273V66.3598L34.0627 66.5968L31.5117 37.554Z" fill="#FFAE8D"/>
<path fill-rule="evenodd" clip-rule="evenodd" d="M44.7229 66.5964L44.0225 31.9692L45.8795 32.0269V66.5964H44.7229Z" fill="#FFAE8D"/>
</g>
<path d="M78.1692 31.8223H23.0942V32.1425H78.1692V31.8223Z" fill="#105282"/>
<path fill-rule="evenodd" clip-rule="evenodd" d="M29.8539 61.4734L28.4595 36.9775L73.8573 36.5356L70.6315 61.4734H29.8539Z" fill="#2D7CC4"/>
<path d="M73.8571 36.5356H72.9832L70.2651 61.4734H70.6314L73.8571 36.5356Z" fill="#105282"/>
<path fill-rule="evenodd" clip-rule="evenodd" d="M48.251 35.095C48.251 36.1837 49.1377 37.0675 50.2301 37.0675C51.3225 37.0675 52.2092 36.1837 52.2092 35.095C52.2092 34.0063 51.3225 33.1226 50.2301 33.1226C49.1377 33.1226 48.251 34.0063 48.251 35.095Z" fill="#105282"/>
<path fill-rule="evenodd" clip-rule="evenodd" d="M51.3419 32.9111L49.125 34.3841V34.9028L51.3419 35.0949V32.9111Z" fill="#1F6176"/>
<path fill-rule="evenodd" clip-rule="evenodd" d="M49.7803 34.0062C49.7803 35.0949 50.667 35.9786 51.7594 35.9786C52.8518 35.9786 53.7385 35.0949 53.7385 34.0062C53.7385 32.9175 52.8518 32.0337 51.7594 32.0337C50.667 32.0337 49.7803 32.9175 49.7803 34.0062Z" fill="#FFA697"/>
<g style="mix-blend-mode:soft-light" opacity="0.5">
<path fill-rule="evenodd" clip-rule="evenodd" d="M51.6504 32.4629C51.6504 32.4629 51.8496 32.9496 50.9757 33.2186C50.9757 33.2186 50.5773 32.6486 51.6504 32.4629Z" fill="#FFFF98"/>
</g>
<g style="mix-blend-mode:soft-light" opacity="0.5">
<path fill-rule="evenodd" clip-rule="evenodd" d="M34.063 0.185547V3.16988L44.7233 3.28515V0.326438L34.063 0.185547Z" fill="#FFFF98"/>
</g>
<path d="M74.3395 63.4009H24.7007V63.7211H74.3395V63.4009Z" fill="#105282"/>
<path d="M73.9988 66.3662L73.8574 71.2718H72.6236L71.2485 66.3662H73.9988Z" fill="#227CAE"/>
<path d="M24.7007 66.3535V71.2719H25.6067L27.1103 66.3727L24.7007 66.3535Z" fill="#227CAE"/>
<path d="M7.82656 66.3727L7.79443 71.2719H8.46271L9.84424 66.3535L7.82656 66.3727Z" fill="#1F6176"/>
<path d="M47.2549 66.3727L49.0605 71.2719H49.7224L49.2726 66.3535L47.2549 66.3727Z" fill="#1F6176"/>
<path d="M50.2299 13.5125L24.2057 17.5855L23.6724 6.39111H49.8958L50.2299 13.5125Z" fill="#105282"/>
<path fill-rule="evenodd" clip-rule="evenodd" d="M44.2412 13.8907L69.3016 14.6144V11.3419L44.2412 10.6118V13.8907Z" fill="#F1157D"/>
<path fill-rule="evenodd" clip-rule="evenodd" d="M42.7568 23.1896L69.3015 23.9581V20.6791L42.7568 19.9106V23.1896Z" fill="#5E45AC"/>
<path fill-rule="evenodd" clip-rule="evenodd" d="M43.2642 28.4279L69.3012 29.1836V23.9578L43.2642 23.2021V28.4279Z" fill="#F1157D"/>
<path fill-rule="evenodd" clip-rule="evenodd" d="M44.2412 19.9553L69.3016 20.679V14.6143L44.2412 13.8906V19.9553Z" fill="#3B84E6"/>
<path fill-rule="evenodd" clip-rule="evenodd" d="M64.9767 18.9692V15.5942L48.0835 14.7681V18.4761L64.9767 18.9692Z" fill="#3BA6FF"/>
<path fill-rule="evenodd" clip-rule="evenodd" d="M66.4099 23.8747V20.5958L65.973 20.583L65.8252 23.8555L66.4099 23.8747Z" fill="#FA45A9"/>
<path fill-rule="evenodd" clip-rule="evenodd" d="M66.9109 29.1134V23.8876L65.3237 23.8428V29.0686L66.9109 29.1134Z" fill="#FA45A9"/>
<path fill-rule="evenodd" clip-rule="evenodd" d="M45.3592 23.26V19.9875L44.7295 19.9683L44.9929 23.2536L45.3592 23.26Z" fill="#FA45A9"/>
<path fill-rule="evenodd" clip-rule="evenodd" d="M51.2 14.0891L51.3478 10.8166L48.6426 10.7397L48.7904 14.0187L51.2 14.0891Z" fill="#FA45A9"/>
<path fill-rule="evenodd" clip-rule="evenodd" d="M65.3623 14.4992V11.2267L62.8563 11.1562L62.7085 14.4224L65.3623 14.4992Z" fill="#FA45A9"/>
<path fill-rule="evenodd" clip-rule="evenodd" d="M62.0081 22.6646V21.5567L48.6426 21.166V22.2739L62.0081 22.6646Z" fill="#B17EFF"/>
<path d="M62.7858 28.2871V24.4766H62.7087L49.2725 24.0859V27.8964H49.3496L62.7858 28.2871ZM62.6316 24.6239V28.1334L49.4267 27.7491V24.2396L62.6316 24.6239Z" fill="#FA45A9"/>
<path fill-rule="evenodd" clip-rule="evenodd" d="M44.241 10.6118L30.0337 12.8276L30.2779 19.9106L44.241 19.9555V10.6118Z" fill="#015E7C"/>
<path fill-rule="evenodd" clip-rule="evenodd" d="M42.7566 19.9106L28.4658 19.9683V23.26L42.7566 23.1896V19.9106Z" fill="#4F0E88"/>
<path fill-rule="evenodd" clip-rule="evenodd" d="M30.0336 28.0117L29.603 23.2021H43.2641V28.4279L30.0336 28.0117Z" fill="#015E7C"/>
<path fill-rule="evenodd" clip-rule="evenodd" d="M30.0979 14.8258L43.8105 13.5834V11.2139L30.0337 13.1992L30.0979 14.8258Z" fill="#C77AB8"/>
<path fill-rule="evenodd" clip-rule="evenodd" d="M30.1235 15.5239L43.8103 14.3135L43.6561 19.4688H30.2649L30.1235 15.5239Z" fill="#C77AB8"/>
<path fill-rule="evenodd" clip-rule="evenodd" d="M28.4658 20.6789L41.8249 20.5444V22.8371L28.4658 22.6642V20.6789Z" fill="#C77AB8"/>
<path fill-rule="evenodd" clip-rule="evenodd" d="M29.6675 23.958L42.7567 23.8428V27.6212L30.0016 27.6724L29.6675 23.958Z" fill="#C77AB8"/>
</g>
<defs>
<clipPath id="clip0_374_27795">
<rect width="85.4494" height="71.2717" fill="white"/>
</clipPath>
</defs>
</svg>
