<svg width="596" height="107" viewBox="0 0 596 107" fill="none" xmlns="http://www.w3.org/2000/svg">
<path d="M595.762 90.6035H0.171387V106.245H595.762V90.6035Z" fill="url(#paint0_linear_374_27084)"/>
<path d="M595.762 90.6034H0.171387L122.062 0H469.17L595.762 90.6034Z" fill="url(#paint1_linear_374_27084)"/>
<path d="M595.762 90.6035H0.171387V106.245H595.762V90.6035Z" fill="url(#paint2_linear_374_27084)"/>
<path d="M595.762 90.6034H0.171387L122.062 0H469.17L595.762 90.6034Z" fill="url(#paint3_linear_374_27084)"/>
<path d="M595.762 90.6035H0.171387V106.245H595.762V90.6035Z" fill="url(#paint4_linear_374_27084)"/>
<path d="M595.762 90.6034H0.171387L122.062 0H469.17L595.762 90.6034Z" fill="url(#paint5_linear_374_27084)"/>
<g opacity="0.6">
<mask id="mask0_374_27084" style="mask-type:luminance" maskUnits="userSpaceOnUse" x="0" y="90" width="596" height="17">
<path d="M595.762 90.6035H0.171387V106.245H595.762V90.6035Z" fill="white"/>
</mask>
<g mask="url(#mask0_374_27084)">
<g opacity="0.8">
<path d="M42.6203 99.5725C27.0065 99.5725 11.3927 99.5725 -4.22119 99.4313C-1.88769 99.3253 2.09298 99.2547 7.65219 99.1841C18.1872 99.3253 28.7223 99.3253 39.223 99.3253C32.0167 99.3253 33.1834 99.4312 42.6203 99.5372" fill="#C99B5F"/>
<path d="M75.3581 101.973C64.171 101.797 52.9839 101.62 41.7969 101.514C83.0106 101.232 124.224 101.585 165.404 103.421C149.55 103.068 133.661 102.785 117.807 102.503C116.091 102.503 114.341 102.468 112.625 102.468C138.637 103.138 164.649 103.597 190.66 104.162C152.226 103.809 113.826 102.362 75.3924 101.973" fill="#C99B5F"/>
<path d="M95.8445 91.9455C113.792 92.0867 131.773 92.5457 149.721 92.4045C147.662 92.2279 145.569 92.122 143.475 92.0867C120.346 91.8396 97.1828 91.5571 74.0537 91.1687C91.3834 91.1687 108.713 91.5218 126.043 91.6983C113.105 91.3805 100.168 91.0981 87.2311 90.7803C118.974 91.3452 150.682 92.1573 182.39 93.0754C183.522 93.146 184.552 93.146 185.615 93.2872C155.657 93.8875 125.734 92.7929 95.8101 91.8749" fill="#C99B5F"/>
<path d="M74.6371 104.869C66.0924 104.798 63.5874 104.692 67.3621 104.622C77.6227 104.763 87.8489 104.975 98.1094 105.257C110.326 105.292 122.508 105.434 134.725 105.787C130.607 105.751 126.489 105.716 122.371 105.716C124.121 105.822 125.905 105.963 127.656 106.034C128.925 106.034 130.195 106.034 131.465 106.034C120.655 105.857 109.846 105.646 99.0702 105.963C100.649 106.034 102.227 106.069 103.84 106.069C94.1287 105.54 84.4172 105.151 74.6715 104.869" fill="#C99B5F"/>
<path d="M118.63 105.293C107.134 105.363 95.6386 105.398 84.1427 105.398C82.118 105.398 80.0934 105.293 78.103 105.151C90.2853 104.904 102.467 104.939 114.684 105.01C113.723 105.081 115.062 105.151 118.63 105.293Z" fill="#C99B5F"/>
<path d="M77.7258 104.904C69.1125 104.763 69.7988 104.727 80.0593 104.763C91.6925 104.833 92.4474 105.222 96.4281 105.328C107.032 105.54 117.67 106.034 128.308 105.963C120.621 105.822 112.934 105.751 105.247 105.893C107.272 105.893 109.262 105.928 111.287 105.963C95.1584 105.681 79.0641 105.504 62.9355 105.54C63.6562 105.575 64.3768 105.575 65.0975 105.61C70.1419 105.504 75.6668 105.61 80.5397 105.081C79.6132 105.045 78.6523 104.975 77.7258 104.939" fill="#C99B5F"/>
<path d="M101.644 101.655C99.688 101.62 97.7663 101.514 95.8789 101.373C107.238 101.091 118.596 101.302 129.955 101.479C120.518 101.726 111.115 101.761 101.678 101.655" fill="#C99B5F"/>
<path d="M243.129 96.783C234.413 96.6417 225.697 96.5358 216.946 96.3946C223.5 96.783 230.123 96.783 236.712 97.1361C231.29 97.1361 225.834 96.9948 220.412 96.9242C192.033 96.218 163.687 95.9709 135.342 94.0995C141.725 93.9229 148.177 94.0642 154.525 94.2054C160.187 94.5938 165.849 94.9469 171.512 95.3353C189.596 95.6178 207.681 95.9002 225.765 96.3593C225.285 96.3593 224.736 96.3593 224.255 96.3593C230.535 96.5358 236.815 96.6417 243.095 96.783" fill="#C99B5F"/>
<path d="M193.337 105.292C189.734 105.186 186.096 105.116 182.527 104.939C193.68 105.08 204.833 105.363 215.986 105.539C213.755 105.433 211.49 105.363 209.225 105.292C193.2 104.869 177.174 104.445 161.148 104.339C171.889 104.798 182.63 105.045 193.371 105.257L193.337 105.292Z" fill="#C99B5F"/>
<path d="M73.9511 105.01C65.1318 104.869 65.7152 104.833 75.9757 104.869C87.7119 104.939 88.5011 105.398 92.2416 105.434C102.948 105.504 113.861 104.727 124.602 106.069C116.743 105.928 108.885 105.857 101.061 105.999C103.086 105.999 105.076 106.034 107.1 106.069C91.0748 105.787 75.0492 105.61 58.9893 105.681C59.7099 105.716 60.4305 105.716 61.1855 105.751C66.23 105.645 71.6862 105.751 76.5934 105.222C75.7012 105.186 74.809 105.116 73.9168 105.081" fill="#C99B5F"/>
<path d="M94.2662 102.22C90.4915 102.115 86.6824 102.044 82.9419 101.797C91.6239 101.656 100.306 101.691 108.988 101.797C108.748 102.432 98.3499 102.326 94.2662 102.256" fill="#C99B5F"/>
<path d="M353.662 99.5014C347.313 99.3955 340.965 99.2896 334.651 99.2189C344.499 99.6073 354.382 99.9251 364.231 100.314C360.422 100.314 356.544 100.208 352.701 100.137C312.036 98.9365 271.337 98.7246 230.707 96.0411C234.791 95.9705 238.943 96.0411 243.027 96.1471C257.542 96.712 272.058 97.3123 286.574 97.9125C303.114 98.195 319.689 98.5128 336.229 99.0071C336.092 99.0071 335.955 99.0071 335.817 99.0071C341.754 99.2189 347.691 99.3249 353.662 99.4661" fill="#C99B5F"/>
<path d="M124.395 94.1699C129.028 94.2405 133.832 94.2759 138.362 94.7349C116.915 96.6416 95.6385 95.4764 74.1909 94.9467C90.9372 94.8055 107.649 94.3818 124.395 94.1699Z" fill="#C99B5F"/>
</g>
<g opacity="0.6">
<path d="M175.733 98.2305C130.71 97.8421 85.7217 96.9241 40.699 96.571C40.0813 96.5357 39.2234 96.5357 38.6743 96.4298C55.8324 96.3945 72.9905 96.6769 90.1828 96.9947C81.6038 96.8888 72.9905 96.8888 64.4114 96.1826C100.032 96.4651 135.617 96.571 171.203 97.8421C142.378 97.3831 113.586 96.9594 84.7609 96.6063C102.022 96.8182 119.249 97.03 136.51 97.4537C132.495 97.4891 128.411 97.4537 124.362 97.3831C141.485 97.4537 158.609 97.4891 175.733 98.1952" fill="#F4D9BE"/>
<path d="M422.088 93.4635C406.509 93.0045 390.929 92.6161 375.35 92.2277C390.998 91.4862 406.474 92.6161 422.088 93.4635Z" fill="#F4D9BE"/>
<path d="M59.9846 98.6543C58.7836 98.6543 57.6168 98.6543 56.4157 98.6543C80.6086 99.3252 104.836 99.7489 129.029 100.137C133.044 100.208 137.059 100.279 141.074 100.49C139.667 100.596 133.696 100.844 134.073 100.808C117.533 100.526 101.027 100.314 84.4863 100.173C82.0842 100.137 79.6135 100.067 77.28 99.9255C84.9325 99.9255 92.5849 99.9255 100.237 99.9255C95.8793 99.6783 91.4182 99.643 87.0257 99.5371C69.25 98.7956 51.5772 97.242 33.7671 98.3366C42.5177 98.3719 51.234 98.4778 59.9846 98.725" fill="#F4D9BE"/>
<path d="M334.205 92.7577C322.64 92.6165 311.11 92.5105 299.546 92.4046C297.59 92.4046 295.496 92.2987 293.609 92.0515C307.164 91.9103 320.65 92.2634 334.205 92.7224" fill="#F4D9BE"/>
<path d="M169.076 97.4887C160.874 97.2416 152.638 97.0297 144.437 96.8179C177.586 97.171 210.735 97.8065 243.85 99.4308C243.953 99.572 243.198 99.4308 242.478 99.4661C230.982 99.0777 219.486 98.7246 207.99 98.3715C205.759 98.3009 203.529 98.2656 201.298 98.2656C217.358 99.007 233.453 99.4661 249.513 99.9957C222.677 99.2895 195.876 98.089 169.041 97.4534" fill="#F4D9BE"/>
<path d="M27.7272 91.3099C43.9587 91.2746 60.1559 91.5217 76.3875 91.4511C73.2304 91.2393 70.039 91.1687 66.8476 91.098C44.3705 90.9921 21.9278 90.8509 -0.549316 90.6037C15.7852 90.4978 32.0853 90.7096 48.4198 90.8156C33.8698 90.5684 19.354 90.3212 4.804 90.1094C40.081 90.4978 75.358 91.1687 110.601 91.9808C112.488 92.0161 114.375 92.122 116.263 92.2279C86.7166 93.2519 57.2391 92.0514 27.6929 91.3099" fill="#F4D9BE"/>
<path d="M336.333 102.115C291.653 101.302 246.973 99.9607 202.294 99.1839C201.539 99.1132 200.749 99.1133 200.029 99.0426C217.05 99.1486 234.07 99.6076 251.057 100.067C242.375 99.8547 233.762 99.5723 225.08 99.0073C260.631 99.6076 296.148 100.067 331.666 101.691C302.977 100.949 274.323 100.278 245.635 99.6429C262.827 99.996 280.054 100.384 297.246 100.985C293.266 100.985 289.216 100.879 285.236 100.808C302.291 101.055 319.277 101.232 336.298 102.115" fill="#F4D9BE"/>
<path d="M80.5055 99.9957C71.343 100.631 62.3865 100.773 53.2241 100.667C62.3865 100.066 71.343 99.8898 80.5055 99.9957Z" fill="#F4D9BE"/>
<path d="M63.0044 101.444C61.8376 101.444 60.6709 101.444 59.5041 101.444C83.2852 102.114 107.066 102.503 130.847 102.927C134.828 102.962 138.809 103.068 142.789 103.28C140.765 103.421 135.068 103.562 134.622 103.597C118.013 103.315 101.438 103.103 84.8294 102.962C82.5646 102.962 80.2654 102.856 78.0005 102.75C85.8932 102.679 93.7516 102.75 101.644 102.75C97.4235 102.538 93.1683 102.468 88.9474 102.362C78.3437 102.15 67.74 101.938 57.1706 101.691C50.4447 101.55 43.6501 101.161 36.8555 101.161C45.6061 101.196 54.3224 101.338 63.073 101.55" fill="#F4D9BE"/>
<path d="M236.163 96.3238C226.006 96.0414 215.814 95.7942 205.656 95.5117C228.923 95.7942 252.258 96.5357 275.421 97.1006C290.657 97.489 305.962 97.5243 321.233 98.7249C306.82 98.2305 292.407 97.7715 277.995 97.3831C276.039 97.3125 274.048 97.2772 272.058 97.2772C294.158 98.1599 316.291 98.7955 338.391 99.537C304.315 98.6542 270.239 97.1006 236.163 96.3591" fill="#F4D9BE"/>
<path d="M373.874 93.7462C386.949 94.064 400.263 94.2406 413.132 94.9114C420.922 95.3351 429.26 96.2885 437.153 95.3351C414.161 94.629 391.17 93.9581 368.178 93.04C386.537 93.5344 404.862 94.1699 423.221 94.7349C414.504 94.2759 405.788 93.8522 397.038 93.4284C419.24 94.3465 441.443 95.4411 463.611 96.6769C451.669 96.7828 439.795 96.2885 427.888 95.8295C409.906 95.1233 391.856 94.5583 373.84 93.6756" fill="#F4D9BE"/>
<path d="M152.02 92.5103C115.851 92.7575 79.6818 91.9454 43.5469 91.8395C40.9732 91.8041 38.3995 91.7335 35.8258 91.6276C50.5474 91.4864 65.269 91.6629 80.025 91.8748C65.1318 91.6276 50.2042 91.3804 35.311 91.0273C68.4261 91.098 101.541 91.1686 134.622 91.9454C110.429 91.7335 86.2705 91.557 62.0776 91.4157C79.3386 91.4864 96.5653 91.5923 113.826 91.9807C111.905 92.0513 109.949 92.0513 108.027 92.0513C122.714 92.0866 137.367 92.1572 152.055 92.475" fill="#F4D9BE"/>
<path d="M220.515 90.0034C248.963 90.5684 277.411 90.9568 305.859 92.4044C303.56 92.4044 301.261 92.4044 298.996 92.3338C281.632 91.8748 264.268 91.4158 246.87 91.0274C255.071 91.2039 260.013 91.2745 262.621 91.2392C248.586 90.8508 234.55 90.639 220.549 90.0034" fill="#F4D9BE"/>
<path d="M82.6675 103.068C81.8782 103.068 81.1233 103.068 80.334 103.068C109.4 103.668 138.5 104.057 167.566 104.516C178.547 104.763 189.528 105.151 200.509 105.646C187.503 105.398 174.463 105.222 161.457 105.222C156.413 105.116 151.231 105.045 146.255 104.798C148.657 104.763 151.06 104.727 153.462 104.657C145.638 104.339 137.779 104.163 129.921 104.092C104.904 103.704 79.9222 103.527 54.9058 102.821C64.1711 102.856 73.4022 102.962 82.6332 103.103" fill="#F4D9BE"/>
<path d="M329.778 91.4158C330.807 91.9454 341.583 92.1926 345.701 92.5104C334.548 92.2279 323.429 91.8395 312.311 91.1686C318.076 90.9921 324.013 91.2393 329.778 91.4158Z" fill="#F4D9BE"/>
</g>
<g opacity="0.8">
<path d="M437.222 98.054C455.169 98.3718 473.116 98.3718 491.098 99.0427C489.039 99.1486 486.911 99.1839 484.852 99.1839C461.723 98.7602 438.629 98.4777 415.5 98.3365C432.795 98.6896 450.125 98.7602 467.42 99.0427C454.483 99.0427 441.58 99.0074 428.643 98.9721C460.385 99.1486 492.127 99.2192 523.904 99.3605C525.037 99.3605 526.066 99.3605 527.164 99.2545C497.206 97.6303 467.248 97.8775 437.256 98.054" fill="#C99B5F"/>
<path d="M402.46 105.575C437.943 105.857 473.425 106.387 508.908 106.811C425.623 105.433 342.303 104.657 258.984 104.445C306.821 104.763 354.623 104.445 402.46 105.575Z" fill="#C99B5F"/>
<path d="M452.424 105.045C471.401 105.398 490.412 105.857 509.389 105.928C510.83 105.928 512.477 105.928 513.815 105.822C493.329 104.692 472.945 104.057 452.424 105.045Z" fill="#C99B5F"/>
<path d="M348.789 102.221C345.632 102.256 342.509 102.327 339.387 102.468C354.108 102.75 368.864 102.821 383.586 103.033C385.027 103.068 386.434 103.033 387.772 102.856C374.767 102.009 361.829 102.079 348.789 102.221Z" fill="#C99B5F"/>
<path d="M463.577 104.445C497.309 104.939 531.042 105.645 564.775 106.281C490.583 104.586 416.358 103.315 342.166 102.538C382.625 103.174 423.118 102.856 463.577 104.445Z" fill="#C99B5F"/>
<path d="M584.884 97.9834C576.099 97.7715 567.349 97.5597 558.564 97.3478C565.152 97.2066 571.81 97.4538 578.433 97.3478C572.976 97.136 567.52 97.03 562.064 96.9241C533.616 96.5357 505.202 95.8295 476.754 96.9241C483.102 97.3125 489.588 97.3478 495.937 97.3831C501.633 97.1713 507.295 96.9947 512.992 96.7829C531.145 97.1007 549.298 97.4537 567.451 97.7009C566.971 97.7009 566.422 97.6656 565.942 97.6303C572.256 97.7009 578.57 97.8422 584.918 97.9834" fill="#C99B5F"/>
<path d="M450.331 106.564C466.185 106.917 482.004 107.305 497.858 106.74C487.461 106.069 477.2 105.857 466.802 105.751C461.312 105.857 455.752 106.14 450.365 106.564" fill="#C99B5F"/>
<path d="M345.014 102.256C337.842 102.256 330.67 102.291 323.498 102.432C332.866 102.574 342.2 102.68 351.569 102.962C358.809 102.962 365.673 102.891 372.879 102.538C363.579 102.256 354.314 102.221 345.014 102.256Z" fill="#C99B5F"/>
<path d="M590.615 98.1953C590.615 98.1953 590.615 98.4424 590.615 98.619C588.659 98.619 586.737 98.619 584.781 98.619C580.663 98.513 576.58 98.4071 572.462 98.2306C578.467 98.054 584.575 98.1247 590.615 98.2306V98.1953Z" fill="#C99B5F"/>
<path d="M465.773 96.571C470.405 96.6063 475.21 96.7475 479.774 96.3944C458.429 93.8875 437.153 94.5583 415.706 94.5937C432.418 95.088 449.095 95.9354 465.773 96.6063" fill="#C99B5F"/>
</g>
<g opacity="0.6">
<path d="M517.212 94.0288C472.293 92.9695 427.339 92.7577 382.419 92.334C381.801 92.3693 380.977 92.334 380.394 92.4399C397.483 92.793 414.573 92.8636 431.662 92.8989C423.118 92.8283 414.504 92.6518 405.96 93.1461C441.511 93.6051 477.097 94.4172 512.648 94.276C483.857 93.817 455.066 93.4639 426.24 93.1461C443.467 93.3226 460.694 93.5345 477.921 93.6051C473.906 93.4639 469.822 93.3933 465.773 93.3226C482.931 93.711 500.02 94.2054 517.178 94.0288" fill="#F4D9BE"/>
<path d="M401.636 90.5681C400.469 90.5681 399.268 90.5681 398.101 90.5328C422.26 90.3209 446.419 90.4622 470.543 90.7446C474.558 90.7799 478.573 90.8153 482.553 90.7446C481.146 90.5681 475.21 90.1797 475.553 90.215C459.047 90.0385 442.541 89.8619 426.069 89.6147C423.701 89.6147 421.196 89.6147 418.863 89.7207C426.481 89.8972 434.133 90.0385 441.752 90.2503C437.393 90.3915 432.967 90.3209 428.574 90.3209C410.867 90.674 393.263 91.7333 375.556 90.4975C384.238 90.6034 392.92 90.6387 401.636 90.6034" fill="#F4D9BE"/>
<path d="M549.572 94.9818C561.137 95.0524 572.667 95.1583 584.232 95.2289C584.918 95.2996 585.707 95.229 585.604 95.3349C552.352 95.6174 519.1 95.0877 485.813 94.4521C494.049 94.4521 502.285 94.4875 510.486 94.5581C537.15 94.7346 563.848 94.5581 590.546 94.9818C574.623 94.8405 558.7 94.7346 542.812 94.8405C545.043 94.9112 547.342 94.9465 549.572 94.9818Z" fill="#F4D9BE"/>
<path d="M369.344 97.3475C385.507 97.6299 401.636 97.6652 417.764 98.0889C414.642 98.2302 411.416 98.2302 408.259 98.2655C385.919 97.9477 363.579 97.7005 341.205 97.6652C357.437 97.9477 373.668 97.983 389.865 98.1949C375.418 98.1949 360.937 98.1949 346.49 98.2302C381.629 98.3361 416.769 98.3008 451.909 98.4067C453.796 98.4067 455.684 98.4067 457.571 98.3008C428.128 96.5353 398.719 97.1003 369.276 97.3828" fill="#F4D9BE"/>
<path d="M590.581 95.2646C589.105 95.2646 587.458 95.1939 587.458 95.1939C587.458 95.1939 589.551 95.2293 590.581 95.2646C590.581 95.3705 590.581 95.4058 590.581 95.4764C582.654 95.2999 574.692 95.1586 566.765 95.0174C574.692 94.7702 582.654 94.8409 590.581 95.0174C590.581 95.1233 590.581 95.1939 590.581 95.2999V95.2646Z" fill="#F4D9BE"/>
<path d="M543.842 93.958C559.421 94.2758 575.001 94.5583 590.58 94.8407C590.58 94.876 590.58 94.9114 590.58 94.9467C574.28 94.7348 557.946 94.523 541.646 94.0286C542.229 93.958 543.224 93.9933 543.876 93.958H543.842Z" fill="#F4D9BE"/>
<path d="M561.48 103.28C551.838 102.927 542.195 102.574 532.552 102.185C530.013 102.115 527.13 102.115 524.762 102.291C537.013 102.891 549.23 103.139 561.48 103.245" fill="#F4D9BE"/>
<path d="M577.849 98.1597C581.864 98.2304 586.188 98.3363 590.58 98.4069C590.58 98.5128 590.58 98.5481 590.58 98.6541C576.099 98.4069 561.618 98.1597 547.17 97.8066C557.397 97.9126 567.623 98.0185 577.849 98.1597Z" fill="#F4D9BE"/>
<path d="M493.397 99.0073C457.296 97.6655 421.196 97.6302 385.095 97.1006C382.522 97.1006 379.982 97.1006 377.408 97.1712C392.061 97.5596 406.749 97.6655 421.402 97.7361C406.543 97.6655 391.718 97.6302 376.859 97.7361C409.906 98.2305 442.918 98.9014 475.964 99.0426C451.806 98.5836 427.682 98.1952 403.523 97.8421C420.715 98.0892 437.942 98.407 455.134 98.4423C453.213 98.3364 451.257 98.2658 449.335 98.2305C464.022 98.5836 478.675 98.9014 493.363 99.0073" fill="#F4D9BE"/>
<path d="M590.649 104.162C590.649 104.162 590.649 104.233 590.649 104.268C581.109 104.127 571.603 103.986 562.063 103.809C571.603 103.809 581.109 103.915 590.649 104.127V104.162Z" fill="#F4D9BE"/>
</g>
</g>
</g>
<g opacity="0.6">
<mask id="mask1_374_27084" style="mask-type:luminance" maskUnits="userSpaceOnUse" x="0" y="0" width="596" height="91">
<path d="M595.762 90.6034H0.171387L122.062 0H469.17L595.762 90.6034Z" fill="white"/>
</mask>
<g mask="url(#mask1_374_27084)">
<g opacity="0.8">
<path d="M168.595 70.4421C165.129 70.1243 161.766 69.8418 158.987 69.524C169.213 69.4181 178.856 69.5594 188.018 70.7952C181.533 70.8658 173.914 71.5014 168.595 70.4421Z" fill="#C99B5F"/>
<path d="M91.6927 29.4127C79.5447 29.6599 67.4655 29.9071 55.5234 30.0483C57.5138 29.9424 60.7052 29.8011 65.0976 29.6599C73.059 29.5893 81.1576 29.448 89.3592 29.2715C83.7656 29.4127 84.5549 29.448 91.6583 29.4127" fill="#C99B5F"/>
<path d="M183.832 57.6249C168.664 58.1545 154.285 57.9427 139.941 57.7308C130.882 57.8367 121.822 57.9074 112.9 57.9427C112.317 57.9427 111.768 57.9427 111.253 57.9073C136.029 57.2365 159.776 57.4836 183.866 57.6249" fill="#C99B5F"/>
<path d="M151.506 51.2695C148.864 51.2695 146.29 51.2695 143.888 51.093C156.447 50.4927 168.561 50.2455 180.709 50.0337C186.749 50.2809 192.823 50.2455 199.205 50.1749C195.087 50.3515 193.886 50.528 195.877 50.7399C181.155 50.8105 166.262 51.1283 151.54 51.2695" fill="#C99B5F"/>
<path d="M163.345 79.5166C149.104 79.5873 135.068 79.552 121.822 78.8458C125.082 78.5633 128.171 78.4927 131.191 78.4927C139.221 81.388 152.604 79.1635 163.345 79.5519" fill="#C99B5F"/>
<path d="M67.2598 91.0275C97.0805 90.5685 125.837 91.2393 155.109 91.5924C171.993 91.8043 189.116 91.8749 206.206 92.0161C212.245 92.0868 219.143 93.0754 226.075 91.0275C211.079 91.0628 196.22 91.0275 181.807 90.4272C196.46 89.4033 210.53 89.1914 224.599 88.9796C186.714 88.3087 148.28 88.7677 113.312 86.2607C140.079 85.6252 166.262 85.6252 192.376 85.9783C196.735 85.6252 200.955 85.2721 205.005 84.919C213.687 84.8837 222.437 84.919 230.502 86.0842C214.716 87.9909 200.063 87.9203 185.17 88.1321C205.52 87.885 226.212 86.7904 244.846 90.1094C241.654 91.0275 238.154 91.31 234.894 91.4865C175.493 94.9468 121.651 91.9455 67.2941 90.9922" fill="#C99B5F"/>
<path d="M79.9566 89.8622C104.801 89.4031 129.269 89.2972 152.123 91.098C150.099 91.3098 148.28 91.2745 146.427 91.2745C134.073 90.3918 121.308 90.074 108.37 89.9328C106.346 89.9328 104.252 89.9328 102.056 90.0387C113.483 90.639 125.391 90.8861 137.23 91.2392C128.102 91.1333 119.043 90.992 109.915 90.9567C99.654 90.8861 107.204 91.6629 107.204 91.6629C93.4771 91.7335 80.1968 91.4864 67.9116 90.4977C72.2011 90.074 76.1132 89.9681 79.9566 89.8975V89.8622Z" fill="#C99B5F"/>
<path d="M53.6705 93.1814C25.2225 92.228 7.96146 82.4121 -37.1986 92.0162C-37.1986 92.0162 -33.767 92.6164 -43.65 92.9695C-54.0821 93.0048 -64.377 92.9695 -74.5688 92.9342C-74.2943 92.793 -74.1571 92.7224 -73.9168 92.6164C-63.1416 92.334 -52.2977 91.9809 -41.9685 91.9103C-9.05934 91.5925 20.3839 93.7817 55.5579 92.334C51.1655 91.6984 45.9494 91.5925 40.9736 91.3806C59.3327 91.0982 76.731 91.5572 94.1293 92.1927C86.3738 92.0515 82.5304 92.0162 74.775 91.9103C83.354 92.1221 91.933 92.3693 100.615 92.5458C115.989 92.8283 131.603 92.9342 147.697 92.6518C137.882 92.3693 128.068 92.1221 118.254 91.9456C118.254 91.9456 133.078 92.0868 140.559 92.0868C171.032 92.1574 201.71 92.228 232.08 93.252C230.742 93.0402 229.335 92.8283 228.305 92.6164C238.394 92.8989 248.415 93.4286 258.366 94.3113C252.395 94.7703 246.562 94.4525 240.762 94.3819C208.882 93.8523 177.14 93.6051 145.775 93.2873C120.965 93.0402 96.6344 92.4046 71.4806 92.8283C61.2887 93.0048 50.5478 93.5345 39.4637 94.3113C26.3206 94.2407 13.1089 94.2407 0.44622 93.9229C18.0847 93.7463 35.9634 93.4286 53.6362 93.252L53.6705 93.1814Z" fill="#C99B5F"/>
<path d="M113.895 30.9665C105.35 30.9665 96.7714 31.0372 88.1924 31.0725C120.896 30.1897 152.81 29.8013 183.42 30.79C171.169 30.7547 158.918 30.7547 146.701 30.79C145.363 30.79 144.025 30.79 142.652 30.8253C162.452 31.0019 182.63 30.9665 202.808 31.0725C172.507 31.3903 143.682 30.7194 113.895 31.0019" fill="#C99B5F"/>
<path d="M20.2122 45.4788C22.4084 45.4788 25.5655 45.4435 27.4186 45.5494C24.7419 45.6553 22.0996 45.7613 19.5259 45.7966C19.8004 45.6553 19.9377 45.5847 20.1779 45.4788H20.2122Z" fill="#C99B5F"/>
<path d="M141.794 22.3864C154.971 22.2098 167.84 22.3157 181.326 21.9273C179.954 21.8214 178.478 21.7861 176.968 21.7861C160.05 21.9273 143.201 22.0686 126.558 22.1392C139.323 21.892 151.78 21.892 164.408 21.7861C155.143 21.7508 145.912 21.7155 136.681 21.6802C159.501 21.6449 182.218 21.7861 205.073 22.0333C205.862 22.0333 206.617 22.0333 207.303 22.1745C184.38 23.0925 163.07 22.6688 141.76 22.4217" fill="#C99B5F"/>
<path d="M91.4526 50.7396C102.228 50.5631 113.072 50.3512 123.847 50.21C122.063 50.21 120.175 50.2806 118.254 50.3865C133.25 50.5277 148.658 50.3865 164.066 50.2806C148.006 50.3159 131.98 50.4218 115.817 50.6337C116.641 50.6337 117.464 50.6337 118.288 50.6337C109.194 50.7749 100.203 50.8102 91.4526 50.7396Z" fill="#C99B5F"/>
<path d="M93.2367 36.7218C87.4716 37.2868 82.4271 37.2515 77.417 37.3221C83.5939 36.5453 88.3638 36.7218 93.2367 36.7218Z" fill="#C99B5F"/>
<path d="M1.81855 54.6589C10.8094 54.553 19.8688 54.4117 28.9283 54.2705C19.8002 54.4471 10.7064 54.6236 1.64697 54.7648C1.7156 54.7648 1.74992 54.7295 1.81855 54.6942V54.6589Z" fill="#C99B5F"/>
<path d="M231.497 4.94351C251.091 5.01413 270.96 4.9082 290.52 5.75562C289.766 5.75562 288.976 5.75562 288.221 5.75562C269.039 5.54377 249.993 5.47315 231.462 4.9082" fill="#C99B5F"/>
<path d="M109.365 33.5794C102.639 33.6501 100.752 33.5794 103.909 33.4735C111.905 33.4382 119.832 33.4735 127.69 33.5441C137.436 33.4029 147.045 33.3323 156.481 33.4382C153.221 33.4382 149.927 33.5088 146.598 33.5794C147.868 33.6501 149.172 33.7207 150.51 33.756C151.54 33.756 152.535 33.756 153.565 33.6854C145.089 33.6854 136.612 33.6854 127.519 34.1444C128.72 34.1444 129.955 34.1444 131.191 34.1444C124.018 33.8266 116.743 33.6501 109.331 33.5441" fill="#C99B5F"/>
<path d="M144.128 33.2264C134.828 33.4735 125.528 33.6854 116.263 33.8972C114.685 33.8972 113.14 33.8972 111.733 33.7913C121.822 33.3676 131.568 33.191 141.245 33.0498C140.387 33.1204 141.383 33.191 144.094 33.2264" fill="#C99B5F"/>
<path d="M76.2849 17.5137C92.7909 17.3018 158.815 16.1366 170.963 15.8541C188.773 15.7835 175.561 16.3132 200.235 16.3132C198.999 16.3132 158.712 16.3838 76.1133 17.5843C76.1819 17.5843 76.2162 17.549 76.2849 17.5137Z" fill="#C99B5F"/>
<path d="M254.283 -0.211426C267.22 -0.211426 280.191 -0.140808 293.094 0.247593C292.579 0.247593 292.03 0.247593 291.516 0.247593C278.544 0.106356 265.676 0.000429302 252.944 -0.211426C253.39 -0.211426 253.837 -0.211426 254.283 -0.211426Z" fill="#C99B5F"/>
<path d="M107.135 60.9794C100.478 61.05 94.1634 61.05 88.1924 60.6969C90.217 60.4851 92.3446 60.2026 94.232 60.0967C100.478 60.0967 106.723 60.0967 112.9 60.1673C111.562 60.2026 104.63 59.9554 106.998 60.4851C134.073 60.8029 161.766 60.7323 189.425 60.9088C161.629 61.1207 135.926 59.673 107.101 61.0147" fill="#C99B5F"/>
<path d="M159.845 17.2313C173.262 17.0547 186.749 16.8429 199.892 16.9488C200.921 16.9488 201.985 16.9488 202.911 17.0547C187.744 17.7609 173.091 18.0434 159.845 17.2313Z" fill="#C99B5F"/>
<path d="M183.42 5.89725C191.313 5.82663 199.205 5.79132 207.132 5.7207C198.862 6.1091 191.038 6.0738 183.42 5.89725Z" fill="#C99B5F"/>
<path d="M76.3877 48.5858C64.9261 47.9856 51.9546 48.3387 39.189 48.5858C58.3031 48.0915 76.3533 48.2327 94.7811 48.1974C90.2514 47.0675 83.1823 47.4559 76.5936 47.6678C89.0846 47.35 101.301 47.2441 113.689 47.0322C117.293 47.809 123.092 47.6325 128.239 47.4206C120.278 47.6678 112.351 47.8443 104.39 48.0562C110.772 48.1974 117.395 48.2327 124.087 48.1974C107.684 48.6918 92.0358 48.6564 76.3877 48.6211" fill="#C99B5F"/>
<path d="M229.85 85.4837C218.868 85.2012 207.956 84.8481 197.078 84.5657C206.377 84.7422 191.107 85.5543 194.573 85.7309C172.439 85.5896 150.614 85.2012 129.338 84.4951C142.652 84.8481 155.555 85.5896 170.414 84.3538C157.751 84.142 145.192 83.8948 133.318 83.0474C142.515 83.1886 151.712 83.3652 161.046 83.4711C162.247 83.4711 163.517 83.4711 164.889 83.2945C146.153 81.8469 126.043 82.0234 105.968 82.2C101.953 81.8469 109.537 81.7409 96.7373 81.3525C144.231 81.635 190.764 83.9654 239.39 85.519C229.987 85.2719 223.741 84.9541 229.85 85.519" fill="#C99B5F"/>
<path d="M5.59326 87.8848C31.7078 87.3199 56.8273 87.4611 81.8437 87.7789C106.071 88.0967 129.852 89.0147 156.378 87.3199C156.996 86.7902 155.795 87.0727 155.315 86.7549C140.627 86.9668 126.077 87.0727 112.351 86.4724C124.43 85.4132 135.617 85.0601 146.839 84.7776C108.507 84.3186 69.284 84.8835 33.8011 83.0828C59.1264 82.2 83.4223 82.0235 107.444 82.1294C110.429 81.741 113.174 81.3879 115.851 80.9995C125.288 81.0348 134.485 81.3173 143.304 82.0235C131.019 83.3652 119.729 83.7889 108.233 84.248C125.322 84.1773 142.48 84.1067 158.986 84.7423C162.761 84.8835 167.325 84.8482 169.83 86.0487C168.149 86.6843 166.639 86.8608 164.992 87.0727C149.241 88.2379 134.313 88.4851 119.66 88.4498C81.1574 88.3438 43.3067 87.9907 5.59326 87.8142" fill="#C99B5F"/>
<path d="M243.473 38.3461C233.556 38.452 223.673 38.5226 213.79 38.5932C223.776 38.3814 233.624 38.3108 243.473 38.3461Z" fill="#C99B5F"/>
<path d="M146.907 41.7713C154.114 41.7713 161.389 41.736 168.664 41.7007C182.905 41.8066 197.112 42.0538 211.422 42.3009C199.342 42.0891 187.4 41.8066 174.944 42.0891C193.474 42.3009 212.485 42.0538 230.776 42.9365C205.553 43.1484 181.155 42.654 156.859 42.3716C160.84 42.3716 164.855 42.4069 168.904 42.3362C157.305 41.9832 145.775 41.6654 133.524 41.9478C138.122 41.8772 142.515 41.8066 146.942 41.7713" fill="#C99B5F"/>
<path d="M44.6451 33.2617C45.503 33.2617 46.3953 33.2617 47.2532 33.2617C51.1652 33.2617 48.8317 33.3686 44.3706 33.4042C44.5079 33.333 44.5422 33.2973 44.6795 33.2617H44.6451Z" fill="#C99B5F"/>
<path d="M217.53 10.911C216.329 10.9816 216.123 11.0522 217.015 11.1581C219.04 11.0522 220.927 10.9463 223.089 10.8403C222.334 10.9463 220.172 11.7584 225.731 11.7584C222.094 11.7584 218.594 11.5818 215.437 11.0875C216.226 10.8403 216.912 10.805 217.495 10.911" fill="#C99B5F"/>
<path d="M88.3983 11.5113C100.203 11.4054 161.457 10.3108 169.762 10.452C168.835 10.5226 167.977 10.5226 167.12 10.5226C159.398 10.5579 98.6245 11.6172 88.0552 11.6878C88.1924 11.6172 88.2611 11.5819 88.3983 11.5113Z" fill="#C99B5F"/>
<path d="M79.4419 50.1042C107.238 49.8218 135.24 49.3981 162.144 50.1042C161.114 50.1749 160.119 50.1749 159.158 50.2102C144.162 50.2102 129.166 50.2808 114.204 50.3514C120.45 50.2808 123.332 50.2102 123.195 50.1395C108.576 50.1395 93.7517 50.3161 79.4762 50.1395" fill="#C99B5F"/>
<path d="M111.836 33.5443C105.11 33.5443 105.728 33.5443 113.929 33.3677C123.16 33.2618 123.229 33.5796 126.318 33.6149C134.553 33.6149 142.515 33.9327 151.197 33.6855C145.191 33.6855 139.049 33.7561 132.7 34.0033C134.279 34.0033 135.892 34.0033 137.505 33.968C124.876 33.968 112.145 34.0739 99.1392 34.3917C99.6539 34.427 100.237 34.3917 100.752 34.427C104.973 34.2504 109.262 34.2504 113.929 33.6855C113.243 33.6855 112.557 33.6149 111.87 33.5796" fill="#C99B5F"/>
<path d="M84.3834 19.3146C82.2215 19.3146 80.0939 19.2793 78.1035 19.1733C88.8788 18.8909 99.2766 18.7849 109.846 18.6084C110.875 18.6084 111.802 18.6084 112.557 18.7496C102.365 19.3852 93.3056 19.4205 84.3834 19.3146Z" fill="#C99B5F"/>
<path d="M166.982 17.7258C190.798 17.5493 214.716 17.3374 238.566 17.3374C185.753 17.6552 133.078 18.2554 80.1626 19.1735C109.4 18.5026 137.265 18.7145 166.982 17.7611" fill="#C99B5F"/>
<path d="M152.124 1.44814C164.203 1.34221 176.213 1.27159 188.224 1.27159C193.543 1.27159 198.862 1.27159 204.147 1.27159C204.696 1.27159 210.873 1.20098 208.642 1.3069C197.867 1.3069 187.126 1.34221 176.385 1.37752C170.105 1.37752 163.825 1.41283 157.545 1.44814C156.928 1.44814 149.618 1.51876 152.124 1.44814Z" fill="#C99B5F"/>
<path d="M251.297 2.86035C241.757 3.10752 232.252 3.28406 222.849 3.35468C232.355 3.14283 241.86 2.96628 251.297 2.86035Z" fill="#C99B5F"/>
<path d="M-26.0803 68.6062C-11.0499 68.3237 3.94629 68.006 18.8738 67.7588C22.0309 68.1825 8.2358 68.1825 6.48568 68.2178C-4.56412 68.4297 -15.5453 68.6415 -26.6294 68.8887C-26.3892 68.7828 -26.2862 68.7121 -26.046 68.6062H-26.0803Z" fill="#C99B5F"/>
<path d="M134.965 30.2606C133.49 30.2606 132.083 30.2253 130.813 30.084C140.044 29.6603 148.726 29.6603 157.374 29.625C149.687 30.0134 142.24 30.1899 134.965 30.2253" fill="#C99B5F"/>
<path d="M248.552 23.9754C241.997 23.9754 235.409 24.046 228.854 24.0813C233.624 24.2931 238.635 24.1872 243.473 24.3991C239.321 24.4697 235.272 24.4697 231.188 24.4697C210.083 24.3638 188.739 24.5756 169.076 23.5163C174.017 23.2692 178.753 23.3045 183.386 23.3045C187.332 23.5163 191.278 23.7282 195.225 23.94C208.677 23.9047 222.163 23.8341 235.615 23.94C235.272 23.94 234.825 23.94 234.448 23.94C239.115 23.9754 243.851 23.9754 248.552 23.9754Z" fill="#C99B5F"/>
<path d="M195.396 15.4303C203.46 15.2891 182.15 15.7834 192.548 16.2777C184.826 16.7015 177.586 16.8074 170.379 16.7721C166.742 16.6661 197.729 15.7481 195.396 15.395" fill="#C99B5F"/>
<path d="M93.7861 8.82791C98.9335 8.7573 104.115 8.68668 109.263 8.65137C103.944 8.7926 98.6933 8.89853 93.5459 8.96915C93.6488 8.93384 93.7175 8.89853 93.8204 8.82791H93.7861Z" fill="#C99B5F"/>
<path d="M127.999 49.8572C120.862 46.5028 104.802 49.3982 92.791 49.61C111.768 49.2923 130.127 49.5041 148.795 49.5394C149.653 49.5394 150.614 49.4335 151.643 49.2216C145.947 49.0098 140.113 48.9392 134.245 48.8686C147.697 48.6214 160.909 48.6214 174.326 48.4802C174.223 48.5861 176.214 48.3742 173.606 48.8686C177.483 49.257 182.288 49.0451 186.646 48.9745C177.483 49.151 168.355 49.2923 159.193 49.4688C165.232 49.6454 171.409 49.6807 177.655 49.716C160.737 50.0338 144.334 49.9631 127.999 49.8572Z" fill="#C99B5F"/>
<path d="M95.7765 60.8734C92.791 60.6263 90.8349 60.3791 89.1191 60.1319C98.0757 59.8142 106.174 59.7435 113.003 61.05C107.581 61.1559 101.85 61.3678 97.0119 61.05C95.5706 60.9441 93.0998 61.4737 95.7422 60.8381" fill="#C99B5F"/>
<path d="M209.843 63.9453C203.46 63.8041 197.078 63.6981 190.592 63.6981C190.969 63.7687 191.45 63.7334 191.793 63.8394C190.18 63.91 188.636 63.91 187.057 63.91C181.189 64.0159 174.292 64.6515 170.071 63.2744C185.033 63.345 200.029 63.451 214.888 63.8394C213.172 63.91 211.49 63.9453 209.809 63.9453" fill="#C99B5F"/>
<path d="M229.987 87.2143C219.726 86.8965 209.534 86.5434 199.342 86.2609C208.505 86.4728 188.121 87.179 190.935 87.3555C169.659 87.179 148.692 86.8259 128.308 86.0491C142.686 86.2609 156.996 86.5434 172.13 85.9785C160.942 85.9785 149.103 86.5787 139.907 84.6367C149.069 84.8133 158.231 85.0251 167.531 85.0957C169.075 85.0957 170.688 85.0604 172.404 84.8839C154.422 83.4715 135.308 83.5774 116.16 83.6834C113.826 83.295 122.165 83.2596 111.184 82.8359C154.285 83.2596 196.528 85.696 240.693 87.2143C231.222 86.9318 226.143 86.6493 229.918 87.179" fill="#C99B5F"/>
<path d="M310.012 52.6464C305.551 52.6111 300.678 52.6817 296.457 52.1168C299.957 51.6224 303.526 51.5165 307.061 51.1987C313.615 51.4459 320.238 51.5871 326.861 51.4812C327.65 51.6931 331.219 51.9402 338.048 52.258C330.567 52.0815 323.121 52.0108 315.674 52.1521C317.115 52.258 318.591 52.5052 320.032 52.6111C316.704 52.717 313.341 52.6817 310.012 52.6111" fill="#C99B5F"/>
<path d="M106.62 48.3034C92.1044 48.1268 77.4857 48.0562 62.2837 48.374C76.7651 48.5152 91.4524 48.5505 106.62 48.3034Z" fill="#C99B5F"/>
<path d="M166.296 61.8975C174.36 62.0387 182.253 62.3212 190.214 62.639C175.081 62.7449 160.05 62.8155 145.809 62.1799C152.775 61.9681 159.536 61.8975 166.296 61.8975Z" fill="#C99B5F"/>
<path d="M35.4139 37.8869C44.7822 37.6751 54.0819 37.4985 63.0384 37.5338C53.7387 37.7104 44.439 37.8516 35.208 37.9928C35.2766 37.9575 35.3453 37.9222 35.4139 37.8869Z" fill="#C99B5F"/>
<path d="M204.044 32.0256C201.23 32.0256 198.416 31.9903 195.671 31.8844C204.49 31.8138 213.206 31.8844 222.026 31.8844C220.31 31.8138 218.525 31.7785 216.775 31.7785C204.284 31.6372 191.827 31.5666 179.13 31.7078C187.263 31.955 195.636 31.9903 204.078 32.0256H204.044Z" fill="#C99B5F"/>
<path d="M198.45 10.0281C195.499 10.0634 192.548 10.1341 189.528 10.24C195.259 10.1341 200.989 10.0634 206.72 9.95752C200.337 10.0988 193.92 10.24 187.469 10.4165C184.483 10.4872 181.532 10.5578 178.478 10.6637C178.1 10.6637 174.806 10.5578 175.836 10.8049C175.389 10.8756 175.115 10.8756 174.943 10.7696C183.042 10.3106 190.797 10.0988 198.416 9.99283" fill="#C99B5F"/>
<path d="M249.821 9.28662C271.955 9.42786 294.329 9.42786 316.738 10.3812C316.154 10.3812 315.571 10.3812 314.953 10.3812C292.957 10.0634 271.132 9.81626 249.821 9.28662Z" fill="#C99B5F"/>
<path d="M108.61 33.7208C101.713 33.7208 102.262 33.7208 110.463 33.5443C119.763 33.4031 119.763 33.8268 122.783 33.7915C131.328 33.6502 141.005 32.8028 148.04 33.8268C141.897 33.8268 135.617 33.8974 129.131 34.1445C130.744 34.1445 132.323 34.1445 133.936 34.1092C121.342 34.1092 108.679 34.2152 95.7075 34.5329C96.2223 34.5683 96.8056 34.5329 97.3547 34.5683C101.576 34.3917 105.831 34.3917 110.532 33.8268C109.88 33.8268 109.228 33.7561 108.576 33.7208" fill="#C99B5F"/>
<path d="M72.9904 19.1378C77.6231 19.0672 82.3244 19.0319 87.4032 18.7494C92.482 18.7141 97.2176 18.7494 101.713 18.9966C94.8498 19.2084 88.2611 19.3143 81.7753 19.3143C77.8976 19.3143 74.8435 19.3143 72.5786 19.3143C72.7502 19.2437 72.8188 19.2084 72.9904 19.1025V19.1378Z" fill="#C99B5F"/>
<path d="M226.864 4.4494C221.888 4.4494 216.844 4.55533 211.868 4.59064C213.172 4.27285 217.564 4.41409 219.486 4.41409C226.143 4.41409 232.801 4.41409 239.458 4.41409C254.008 4.48471 268.592 4.66125 283.245 4.87311C279.127 4.87311 275.009 4.87311 270.857 4.94373C272.642 5.12027 274.769 5.12027 276.691 5.15558C260.425 5.01435 244.193 4.97904 228.168 4.80249C235.855 4.80249 243.541 4.76718 251.297 4.69656C243.198 4.52002 235.031 4.4494 226.864 4.4494Z" fill="#C99B5F"/>
<path d="M194.161 1.27149C191.69 1.27149 189.219 1.3068 186.851 1.27149C188.944 1.13025 191.003 1.05963 193.028 0.989016C201.23 0.989016 209.637 0.883089 218.079 0.706543C200.818 1.05963 183.454 1.48334 166.433 1.65989C175.733 1.48334 184.861 1.41273 194.126 1.23618" fill="#C99B5F"/>
<path d="M106.723 2.40131C108.576 2.366 110.155 2.29539 111.356 2.26008C110.532 2.26008 108.885 2.29539 106.792 2.366C106.861 2.366 106.895 2.3307 106.964 2.29539C116.538 2.11884 135.823 1.62451 135.823 1.62451C135.823 1.62451 116.195 2.26008 106.552 2.47193C106.62 2.47193 106.655 2.43662 106.689 2.40131H106.723Z" fill="#C99B5F"/>
<path d="M261.008 -0.0701596C271.2 -0.0701596 281.358 0.0357683 291.481 0.424169C290.795 0.424169 290.109 0.424169 289.422 0.424169C279.368 0.282933 269.347 0.177005 259.499 -0.105469C260.013 -0.105469 260.494 -0.105469 260.974 -0.105469" fill="#C99B5F"/>
<path d="M204.456 2.8252C194.778 3.07236 185.101 3.31952 175.596 3.42545C185.273 3.17829 194.881 2.96643 204.456 2.8252Z" fill="#C99B5F"/>
<path d="M348.377 32.732C327.959 32.732 307.644 32.8026 287.432 32.732C307.678 32.5554 327.959 32.4142 348.377 32.732Z" fill="#C99B5F"/>
<path d="M-28.7228 69.9477C-12.1481 69.6299 4.39229 69.3474 20.864 69.0649C22.6142 69.3474 8.57886 69.524 5.97084 69.5593C-5.76528 69.7711 -17.5014 69.983 -29.3062 70.2301C-29.0659 70.1242 -28.963 70.0536 -28.7228 69.9477Z" fill="#C99B5F"/>
<path d="M128.479 30.8958C125.631 30.8958 122.749 30.8605 120.141 30.684C127.141 30.4368 133.901 30.3309 140.627 30.2603C139.667 30.8252 131.602 30.8958 128.479 30.8958Z" fill="#C99B5F"/>
<path d="M332.626 24.4696C327.719 24.4696 322.846 24.5049 317.939 24.5402C325.523 24.6815 333.141 24.8227 340.828 24.9993C337.877 25.0699 334.857 25.0346 331.871 24.9993C300.541 24.6462 269.279 25.1052 239.492 23.5869C242.649 23.4457 245.703 23.481 248.792 23.481C259.533 23.7281 270.377 23.9753 281.255 24.2225C293.883 24.2225 306.512 24.2225 319.209 24.3637C319.106 24.3637 319.003 24.3637 318.9 24.3637C323.464 24.4343 328.062 24.4343 332.626 24.4696Z" fill="#C99B5F"/>
<path d="M160.771 23.6927C164.168 23.6927 167.771 23.6221 170.723 23.9399C152.535 25.8113 137.711 25.1757 122.097 25.1051C134.897 24.752 147.971 24.1164 160.771 23.6927Z" fill="#C99B5F"/>
<path d="M209.363 14.7241C209.98 14.6535 210.495 14.7241 211.147 14.6182C211.147 14.5476 210.907 14.5123 210.804 14.477C216.809 14.2651 222.54 14.3357 228.271 14.477C231.154 14.477 234.105 14.477 236.747 14.7594C227.31 15.0772 218.285 14.936 209.363 14.7594" fill="#C99B5F"/>
<path d="M265.366 16.4897C271.132 16.4897 276.931 16.4897 282.559 16.7722C264.371 17.4431 246.767 17.1959 229.197 17.0547C241.277 16.8075 253.322 16.631 265.332 16.4897" fill="#C99B5F"/>
<path d="M181.464 10.6637C189.631 10.5931 197.833 10.5578 206 10.5225C197.421 10.9109 189.322 10.8756 181.464 10.6637Z" fill="#C99B5F"/>
<path d="M172.301 49.5745C159.844 48.9742 146.633 49.1861 133.558 49.2567C152.638 48.833 170.963 49.1508 189.631 49.2567C183.625 47.8796 175.664 48.3387 168.149 48.5505C179.885 48.3387 191.484 48.3033 203.151 48.1621C208.779 48.6211 214.27 48.7624 220.378 48.6917C213.137 48.9036 205.999 49.0095 198.827 49.1508C205.622 49.3626 212.52 49.4332 219.486 49.4332C203.391 49.857 187.812 49.6804 172.301 49.5039" fill="#C99B5F"/>
</g>
<g opacity="0.6">
<path d="M223.535 54.2706C237.708 54.4471 251.949 54.6237 266.225 54.8355C234.619 54.7296 203.563 54.2353 172.645 54.0587C190.18 53.3879 206.755 53.8822 223.535 54.3059" fill="#F4D9BE"/>
<path d="M375.899 44.455C365.295 44.2078 354.726 43.89 344.225 43.7135C352.29 43.8547 351.397 44.4903 355.447 44.6315C335.578 44.4197 315.88 44.0666 296.389 43.5369C306.34 43.5369 316.292 43.7488 326.312 43.7135C325.523 43.5723 324.734 43.5016 323.876 43.5369C310.149 43.2545 296.492 42.972 283.04 42.4777C291.173 42.6189 299.34 42.7601 307.576 42.8308C289.148 42.5483 270.96 42.054 252.841 41.8068C247.351 41.5949 241.963 41.3125 236.473 41.2065C284.001 41.4184 332.146 43.1839 381.87 44.4903C378.301 44.3844 374.732 44.2784 371.198 44.2784C372.776 44.3491 374.321 44.4197 375.899 44.4903" fill="#F4D9BE"/>
<path d="M320.273 46.6794C307.61 46.5735 295.085 46.291 282.731 45.6201C295.222 45.726 307.713 46.0085 320.273 46.6794Z" fill="#F4D9BE"/>
<path d="M31.7081 39.7236C42.3117 39.7236 52.7782 39.7942 62.6269 40.2533C54.8714 40.5357 47.4248 40.6417 40.0812 40.677C38.3311 40.677 34.6936 40.677 29.855 40.677C30.6099 40.2886 30.9874 40.112 31.7081 39.7589V39.7236Z" fill="#F4D9BE"/>
<path d="M196.014 26.2001C161.835 26.5532 128.411 26.5179 94.541 26.9063C94.1292 26.9063 93.4772 26.9063 93.2026 26.8357C106.346 26.5179 119.043 26.5179 131.74 26.4826C125.323 26.4826 118.734 26.6591 113.106 26.2354C139.873 25.9176 166.845 25.4586 192.857 25.9529C171.203 26.0235 149.618 26.1295 128.068 26.2707C140.971 26.1648 153.908 26.0942 166.639 26.1648C163.516 26.2707 160.462 26.2707 157.408 26.306C170.448 26.0942 183.523 25.847 196.014 26.2001Z" fill="#F4D9BE"/>
<path d="M328.646 11.4407C331.837 12.2528 335.886 11.7585 339.249 11.7585C342.098 11.8644 335.886 12.0763 336.813 12.1822C333.244 11.935 329.744 11.7938 326.209 11.7232C320.753 11.7232 332.283 12.3941 323.464 12.2881C318.557 12.3941 313.512 12.7471 308.948 11.4407C311.11 11.5466 315.674 12.1116 317.321 11.2642C321.096 11.3348 324.871 11.4054 328.68 11.476" fill="#F4D9BE"/>
<path d="M383.723 18.6439C372.021 18.5379 360.354 18.4673 348.755 18.3967C360.216 17.6199 371.884 18.2202 383.723 18.6439Z" fill="#F4D9BE"/>
<path d="M293.266 7.06217C293.643 7.06217 294.021 7.06217 294.398 7.06217C276.691 6.70908 259.121 6.46192 241.688 6.28537C257.131 6.17944 272.333 6.56784 287.775 6.88562C295.565 6.88562 303.32 6.95624 311.076 7.34464C305.105 7.34464 299.168 7.23872 293.3 7.06217" fill="#F4D9BE"/>
<path d="M275.318 4.13184C276.108 4.13184 276.966 4.13184 277.686 4.23776C271.2 4.379 264.749 4.41431 258.366 4.379C259.67 4.379 260.837 4.16715 260.459 4.13184C265.367 4.20245 270.308 4.20245 275.318 4.13184Z" fill="#F4D9BE"/>
<path d="M226.143 2.01336C220.618 2.08398 215.093 2.1546 209.568 2.26052C208.985 2.26052 208.367 2.26052 207.818 2.1899C221.236 1.76619 234.173 1.87212 247.248 1.87212C265.847 1.87212 284.652 1.87212 303.526 1.94274C299.511 1.94274 295.462 1.94274 291.378 2.11929C295.222 2.22521 299.134 2.26052 303.046 2.29583C280.706 2.29583 258.503 2.33114 236.507 2.29583C245.223 2.22521 253.974 2.15459 262.793 2.01336C250.576 1.90743 238.36 1.94274 226.143 2.01336Z" fill="#F4D9BE"/>
<path d="M106.38 28.3891C105.488 28.3891 104.596 28.3891 103.669 28.4245C121.479 28.601 139.77 28.5657 158.129 28.5304C161.183 28.5304 164.237 28.5304 167.154 28.6363C165.953 28.7422 161.046 29.06 161.355 29.0247C148.761 29.0247 136.132 29.1306 123.435 29.2719C121.617 29.2719 119.798 29.2719 118.151 29.1659C124.122 29.0247 130.024 28.9541 136.029 28.7775C132.907 28.6363 129.544 28.6716 126.249 28.6363C113.449 28.2832 101.954 27.2592 86.7515 28.4598C93.4088 28.3538 99.9975 28.3185 106.415 28.3538" fill="#F4D9BE"/>
<path d="M318.248 19.456C309.669 19.5266 301.124 19.6326 292.579 19.7032C291.138 19.7032 289.594 19.7032 288.255 19.5266C298.31 19.2088 308.262 19.2795 318.248 19.4207" fill="#F4D9BE"/>
<path d="M10.5008 50.3163C19.1141 50.2104 27.6932 50.1045 36.2722 49.9985C27.453 50.2104 18.7024 50.3869 10.0547 50.5282C10.2263 50.4222 10.3292 50.3869 10.5008 50.3163Z" fill="#F4D9BE"/>
<path d="M336.607 32.3792C334.788 32.1673 333.69 31.9908 333.278 31.7789C339.592 31.7083 345.975 31.7083 352.358 32.3439C351.946 32.4145 351.466 32.697 351.432 32.697C346.147 32.6617 340.862 32.6264 335.577 32.4498C334.925 32.3439 335.269 32.3086 336.573 32.3439" fill="#F4D9BE"/>
<path d="M313.101 53.494C296.938 53.494 280.946 53.2469 265.058 52.9291C254.9 52.9291 244.743 52.9291 234.757 52.7172C245.669 52.0817 255.93 52.6113 266.396 52.8585C281.736 53.1762 297.452 53.2469 313.101 53.494Z" fill="#F4D9BE"/>
<path d="M253.802 41.4184C239.149 41.1712 224.805 40.6416 210.667 40.0767C215.78 40.1826 221.271 40.6416 226.83 40.0767C235.512 40.2885 244.262 40.5004 253.047 40.6769C248.621 40.6769 244.194 40.6769 239.698 40.7828C245.875 41.03 252.121 41.2066 258.401 41.3831C256.857 41.4537 255.312 41.4537 253.802 41.4537" fill="#F4D9BE"/>
<path d="M191.518 25.7057C185.444 25.6351 179.37 25.5998 173.296 25.5292C198.313 25.282 223.192 25.282 247.728 26.1294C247.728 26.2354 247.213 26.1294 246.664 26.2001C238.017 26.0588 229.335 25.9176 220.721 25.847C219.074 25.847 217.358 25.847 215.677 25.847C227.55 26.2001 239.698 26.3413 251.88 26.5178C231.497 26.3413 211.662 25.7763 191.553 25.6704" fill="#F4D9BE"/>
<path d="M107.272 44.6312C92.242 44.8078 77.5204 44.7371 63.3135 44.49C78.3096 44.2781 92.9626 44.3134 107.272 44.6312Z" fill="#F4D9BE"/>
<path d="M188.052 35.9805C166.811 36.7926 146.599 36.722 125.769 37.1457C139.873 37.1457 154.32 36.8985 168.664 36.7573C171.238 36.8985 160.84 36.9691 159.433 37.0044C147.937 37.2163 136.475 37.3928 125.014 37.6047C103.978 37.9931 82.496 38.6287 62.8672 38.2049C106.003 36.5454 147.01 36.157 188.087 35.9805" fill="#F4D9BE"/>
<path d="M122.234 57.0601C136.029 57.0601 149.584 57.2719 163.208 57.4838C146.564 57.8369 130.093 58.084 114.891 57.3425C117.43 57.2013 119.901 57.0954 122.234 57.0954" fill="#F4D9BE"/>
<path d="M92.1732 22.916C104.218 22.6336 115.886 22.5983 127.965 22.2805C125.872 22.1745 123.607 22.1745 121.342 22.1392C104.905 22.3864 88.5014 22.6336 72.3042 22.7748C84.4864 22.457 96.1882 22.3864 108.096 22.2099C97.7325 22.2099 87.369 22.2805 77.0055 22.3158C102.399 22.1039 127.553 22.0686 152.776 22.1745C154.148 22.1745 155.452 22.2099 156.722 22.2805C133.593 23.5163 113.072 23.022 92.2076 22.8807" fill="#F4D9BE"/>
<path d="M319.003 26.9417C284.138 26.9417 249.89 26.5533 215.746 26.5886C215.197 26.5533 214.613 26.5886 214.099 26.4827C227.173 26.3061 240.042 26.4121 253.013 26.5533C246.39 26.518 239.87 26.4121 233.487 26.0943C260.631 26.0237 288.016 25.8471 315.4 26.6592C293.129 26.518 270.995 26.3768 249.032 26.3061C262.21 26.3061 275.422 26.3768 288.633 26.6239C285.545 26.6945 282.388 26.6592 279.299 26.6592C292.511 26.5886 305.757 26.4827 319.003 26.9417Z" fill="#F4D9BE"/>
<path d="M86.1681 12.6059C87.9868 12.5706 90.9724 12.5 95.4334 12.4294C98.7964 12.5706 154.457 11.5466 157.031 11.5819C152.124 11.5819 92.5509 12.7118 85.8936 12.7472C85.9965 12.6765 86.0651 12.6765 86.1681 12.6059Z" fill="#F4D9BE"/>
<path d="M232.423 9.3575C232.766 9.3575 233.11 9.3575 233.418 9.3575C217.736 9.11033 202.053 8.9691 186.405 8.89848C200.544 8.75724 214.304 9.0044 228.237 9.21626C235.34 9.18095 242.409 9.21626 249.307 9.46342C243.542 9.56935 237.948 9.46342 232.423 9.32219" fill="#F4D9BE"/>
<path d="M303.252 7.62726C304.041 7.62726 304.899 7.62726 305.654 7.73319C298.997 7.83911 292.408 7.83911 285.819 7.80381C287.226 7.80381 288.153 7.59195 287.878 7.55664C292.957 7.66257 298.105 7.69788 303.252 7.62726Z" fill="#F4D9BE"/>
<path d="M180.091 4.30817C178.032 4.30817 175.939 4.34348 173.811 4.4141C173.983 4.4141 174.463 4.4141 174.566 4.44941C171.787 4.52003 169.076 4.55533 166.365 4.59064C165.267 4.59064 164.169 4.59064 163.173 4.52003C176.282 4.06101 188.739 4.09631 201.333 4.06101C219.658 3.99039 253.082 3.60199 266.396 3.6726C264.166 3.6726 261.901 3.6726 259.636 3.77853C263.068 3.95508 266.602 4.0257 270.171 4.0257C254.283 3.95508 217.908 4.4141 196.151 4.48472C203.529 4.37879 210.941 4.30817 218.422 4.09631C205.691 4.06101 192.925 4.13162 180.125 4.23755" fill="#F4D9BE"/>
<path d="M122.44 0.000552446C118.665 0.0711708 114.925 0.141789 111.322 0.10648C111.459 0.0358615 111.528 0.000552505 111.665 -0.0700659C116.606 -0.175993 114.616 -0.31723 114.788 -0.352539C122.475 -0.281921 130.333 -0.246612 137.951 -0.105375C129.441 0.283026 121.617 0.353645 113.724 0.388954C112.866 0.0711713 116.195 0.283026 117.258 0.247716C119.764 0.177098 122.166 0.177098 124.739 0.0711707C124.156 0.000552356 123.195 0.000552475 122.44 -0.0347567V0.000552446Z" fill="#F4D9BE"/>
<path d="M120.553 29.2012C112.591 29.872 105.419 30.1545 98.3843 30.2251C106.346 29.5543 113.552 29.2718 120.553 29.2012Z" fill="#F4D9BE"/>
<path d="M104.939 30.7194C104.046 30.7194 103.154 30.7194 102.228 30.7547C120.038 30.9312 138.26 30.8959 156.584 30.8959C159.673 30.8959 162.727 30.8959 165.644 31.0018C163.894 31.1431 159.227 31.3902 158.849 31.3902C145.981 31.3902 133.112 31.4609 120.141 31.6374C118.356 31.6374 116.675 31.6374 115.028 31.5315C121.342 31.3549 127.519 31.249 133.764 31.1431C130.71 31.0018 127.45 31.0371 124.224 31.0018C116.16 31.0018 108.096 30.9665 100.134 30.9312C95.0556 30.9312 90.32 30.684 85.001 30.79C91.7613 30.684 98.4529 30.6487 104.973 30.7194" fill="#F4D9BE"/>
<path d="M234.551 19.491C227.516 19.6322 220.447 19.7735 213.378 19.95C211.559 19.95 209.466 19.95 207.956 19.7735C217.016 19.4557 225.8 19.4204 234.551 19.491Z" fill="#F4D9BE"/>
<path d="M70.8974 48.4803C80.6089 48.3038 90.2861 48.1272 99.9632 47.9507C100.512 47.9507 100.958 47.9507 101.267 48.0919C83.4228 48.904 66.8824 48.8687 49.793 49.1865C45.7094 49.1865 41.5915 49.1865 37.748 49.1159C49.141 48.7275 60.0878 48.5862 70.9318 48.4803" fill="#F4D9BE"/>
<path d="M267.014 52.9995C253.116 53.6703 239.767 53.2819 226.487 52.9288C218.319 52.9995 210.152 53.0348 202.054 52.9995C201.264 52.9995 200.475 52.9995 199.754 52.9288C222.334 52.5404 244.571 52.8229 267.048 52.9995" fill="#F4D9BE"/>
<path d="M243.473 23.7281C235.923 23.6575 228.374 23.6222 220.824 23.5516C238.257 23.4457 255.586 23.6575 272.985 23.7281C284.481 23.7987 296.182 23.6222 307.644 24.3284C296.663 24.1518 285.716 24.0106 274.838 23.9047C273.362 23.9047 271.852 23.9047 270.342 23.9047C286.986 24.2578 303.835 24.4343 320.787 24.7168C294.638 24.5402 269.038 23.7987 243.439 23.7281" fill="#F4D9BE"/>
<path d="M113.689 41.8774C94.6438 42.3364 76.4906 42.2658 58.4746 42.1598C77.4171 41.7008 95.6047 41.7008 113.689 41.8774Z" fill="#F4D9BE"/>
<path d="M379.811 36.7925C349.819 36.8279 320.067 36.4041 290.589 36.4395C307.027 36.7572 323.636 36.7572 340.313 36.8632C342.51 37.1456 338.769 36.8632 338.083 36.8985C333.965 36.8985 329.813 36.8985 325.695 36.8985C310.081 36.8632 294.536 36.7925 279.059 36.7572C263.685 36.7219 248.346 36.4748 233.11 36.6513C226.864 36.7219 220.241 37.0397 214.613 36.3335C269.21 35.5214 323.91 35.9451 379.845 36.7925" fill="#F4D9BE"/>
<path d="M347.794 19.5972C357.609 19.6325 367.595 19.5972 377.409 19.915C383.38 20.1268 389.969 20.7271 395.631 19.915C378.13 19.7384 360.766 19.5266 343.539 19.1735C357.266 19.2794 371.095 19.4912 384.993 19.6325C378.336 19.4206 371.713 19.2441 365.09 19.0322C381.905 19.3853 398.925 19.915 416.255 20.5505C407.23 20.833 398.033 20.6211 388.871 20.4446C375.11 20.1621 361.418 20.0209 347.829 19.5972" fill="#F4D9BE"/>
<path d="M182.974 21.998C155.83 22.7395 129.818 22.6689 103.155 23.1279C101.301 23.1279 99.4827 23.1279 97.6982 23.0926C108.782 22.7748 119.455 22.7042 130.127 22.6336C119.386 22.6689 108.645 22.7042 98.11 22.6336C122.474 22.1745 146.839 21.7508 170.551 21.8568C152.844 22.0686 135.103 22.2805 117.43 22.5276C130.093 22.3158 142.721 22.1392 155.075 22.2098C153.599 22.2805 152.124 22.3158 150.682 22.3511C161.526 22.1745 172.37 21.998 182.974 22.0333" fill="#F4D9BE"/>
<path d="M187.057 11.1232C193.509 11.1938 200.029 11.2644 206.549 11.2997C198.862 11.3704 191.244 11.4057 183.9 11.2291C184.999 11.1585 186.062 11.0879 187.057 11.0879" fill="#F4D9BE"/>
<path d="M235.271 19.0677C255.861 19.0677 276.622 18.9264 297.246 19.6326C295.565 19.6679 293.849 19.7032 292.168 19.6679C279.436 19.562 266.739 19.4914 254.111 19.4561C260.082 19.4561 263.685 19.4561 265.607 19.3855C255.449 19.3148 245.223 19.3502 235.271 19.0677Z" fill="#F4D9BE"/>
<path d="M191.862 8.15703C192.17 8.15703 192.479 8.15703 192.788 8.15703C178.581 7.98048 115.68 8.89852 95.8794 9.03976C114.067 8.75729 175.87 7.94518 188.67 8.08641C195.259 8.01579 201.779 7.98049 208.059 8.19234C202.465 8.36889 197.146 8.29827 191.896 8.19234" fill="#F4D9BE"/>
<path d="M256.959 7.23877C258.16 7.23877 259.601 7.23877 260.665 7.38001C256.341 7.52124 252.052 7.59186 247.762 7.62717C248.963 7.62717 245.429 7.38001 244.64 7.3447C248.62 7.48593 252.532 7.76841 256.959 7.23877Z" fill="#F4D9BE"/>
<path d="M118.253 31.8139C117.636 31.8139 117.052 31.8139 116.4 31.8492C138.706 31.9199 161.423 31.7786 184.175 31.708C192.719 31.7433 201.195 31.9199 209.637 32.167C199.377 32.167 189.082 32.2023 178.65 32.4142C174.703 32.4142 170.62 32.4142 166.914 32.273C168.87 32.2023 170.826 32.1317 172.816 32.0258C166.879 31.8846 160.805 31.8492 154.663 31.8846C135.206 31.9552 115.611 32.167 96.7715 31.9552C104.047 31.8492 111.219 31.7786 118.322 31.7786" fill="#F4D9BE"/>
<path d="M315.125 18.5027C315.846 18.8911 323.773 18.8911 326.827 19.103C318.591 19.0677 310.39 18.9265 302.291 18.5734C306.581 18.3615 310.904 18.4321 315.125 18.5027Z" fill="#F4D9BE"/>
</g>
<g opacity="0.8">
<path d="M355.138 16.1719C343.813 16.1719 332.558 16.2778 321.268 16.4543C322.949 16.525 325.797 16.5603 329.812 16.5603C337.43 16.419 345.049 16.3484 352.667 16.3484C347.451 16.3484 348.274 16.2778 355.103 16.1719" fill="#C99B5F"/>
<path d="M388.184 1.58887C386.777 1.58887 385.404 1.58887 384.032 1.69479C390.552 2.01258 397.038 2.11851 403.558 2.22443C406.852 2.0832 410.146 2.11851 413.612 2.18912C411.416 2.0832 410.764 1.97727 411.862 1.87134C403.935 1.80072 396.042 1.62418 388.184 1.58887Z" fill="#C99B5F"/>
<path d="M378.473 14.4063C370.443 14.5122 362.413 14.6534 354.383 14.7594C384.272 14.8653 414.299 14.6888 443.845 13.7354C432.28 13.8766 420.716 13.9826 409.186 14.0885C407.95 14.0885 406.681 14.0885 405.411 14.0885C424.182 13.7001 443.193 13.5589 462.204 13.4176C433.825 13.2764 406.337 14.1238 378.473 14.371" fill="#C99B5F"/>
<path d="M302.428 5.72033C306.718 5.68502 311.007 5.68502 315.262 5.72033C312.586 5.82626 309.875 5.89688 307.198 5.93218C302.977 5.96749 298.756 6.0028 294.604 5.93218C297.212 5.79095 299.82 5.75564 302.428 5.72033Z" fill="#C99B5F"/>
<path d="M396.66 21.9978C410.558 21.9625 424.319 21.6801 438.492 21.9625C436.982 22.0685 435.369 22.1391 433.756 22.1744C415.74 22.1744 397.861 22.3156 380.085 22.5981C393.469 22.5981 406.818 22.4216 420.27 22.3509C410.318 22.5275 400.332 22.704 390.38 22.9159C414.916 22.5628 439.418 22.1391 463.988 21.7154C464.846 21.6801 465.67 21.6801 466.391 21.5741C442.266 20.762 419.515 21.3976 396.66 22.0332" fill="#C99B5F"/>
<path d="M355.687 2.11959C361.383 2.11959 367.08 2.19084 372.81 2.22646C371.85 2.22646 370.854 2.22646 369.894 2.15521C378.061 2.01272 386.297 2.04834 394.567 2.08397C385.919 2.08397 377.34 2.08396 368.727 2.04834C369.173 2.04834 369.585 2.04834 370.031 2.04834C365.227 2.04834 360.422 2.04834 355.652 2.15521" fill="#C99B5F"/>
<path d="M345.049 10.6987C341.961 10.3809 338.769 10.4515 335.681 10.4515C338.666 11.193 341.995 10.8046 345.049 10.6987Z" fill="#C99B5F"/>
<path d="M338.323 0.635742C314.027 0.776979 289.731 1.34193 265.538 1.65971C289.491 1.94218 314.027 0.953525 338.323 0.635742Z" fill="#C99B5F"/>
<path d="M547.102 44.0308C547.102 44.0308 547.342 44.2073 547.479 44.3132C520.61 44.3839 493.912 44.5251 467.42 44.7369C493.432 44.0661 520.198 44.0661 547.102 44.0308Z" fill="#C99B5F"/>
<path d="M377.306 12.3939C371.266 12.4645 369.482 12.4998 372.193 12.5704C379.468 12.4645 386.708 12.3232 393.949 12.182C402.7 12.182 411.416 12.1114 420.064 11.9348C417.112 11.9348 414.127 11.9348 411.141 11.9348C412.377 11.8642 413.612 11.7936 414.848 11.7583C415.774 11.7583 416.666 11.7583 417.593 11.7583C409.872 11.8289 370.477 12.4645 364.883 12.3232C365.673 12.2879 366.496 12.2526 367.32 12.2526C362.413 12.5351 384.169 12.2526 377.306 12.4292" fill="#C99B5F"/>
<path d="M408.671 12.1819C400.401 12.1113 363.236 12.6409 357.3 12.5703C356.27 12.5703 381.081 12.0759 379.708 12.1819C388.459 12.3584 397.175 12.3584 405.926 12.3584C405.205 12.3231 406.132 12.2525 408.671 12.1819Z" fill="#C99B5F"/>
<path d="M415.191 72.137C407.264 72.031 399.371 72.031 391.582 72.3135C405.445 72.7372 419.172 72.7725 432.83 72.4901C426.996 72.3488 421.196 72.2429 415.191 72.137Z" fill="#C99B5F"/>
<path d="M374.389 71.8193C380.188 71.8899 378.267 71.9958 367.972 72.1724C373.874 72.0664 379.776 71.9605 385.747 72.0664C385.439 72.2077 384.89 72.1724 384.581 72.3136C393.297 72.4902 401.979 72.3136 410.592 72.1371C406.131 72.1371 401.704 72.2077 397.209 72.1371C408.293 71.7487 419.412 71.4662 430.461 71.1131C428.334 71.0425 426.206 71.0425 424.113 71.0425C407.538 71.2896 390.929 71.5368 374.389 71.784" fill="#C99B5F"/>
<path d="M222.746 82.5178C244.022 81.741 264.886 81.8469 285.922 81.8822C286.883 81.8822 287.809 81.8116 288.77 81.7057C263.891 80.9289 238.566 81.8116 213.24 82.4119C210.873 82.4825 208.505 82.5884 206.068 82.7297C211.456 82.8356 217.187 82.6237 222.712 82.5178" fill="#C99B5F"/>
<path d="M371.678 28.848C400.229 28.5302 429.021 28.3889 457.915 28.2124C390.209 28.3536 323.498 29.0245 257.097 30.1897C295.153 29.6954 333.313 28.6361 371.644 28.848" fill="#C99B5F"/>
<path d="M562.853 55.7183C562.853 55.7183 563.094 55.8948 563.231 56.0007C556.059 56.0714 548.887 56.142 541.646 56.142C540.925 56.142 540.17 56.142 539.45 56.142C547.171 55.9301 554.995 55.8242 562.888 55.7536L562.853 55.7183Z" fill="#C99B5F"/>
<path d="M411.484 27.5766C426.858 27.5766 442.369 27.6825 457.605 27.4353C458.772 27.4353 460.076 27.4 461.071 27.2588C443.845 26.5879 427.27 26.376 411.45 27.5766" fill="#C99B5F"/>
<path d="M462.753 64.6515C470.44 64.6515 472.602 63.7335 472.876 63.6982C471.675 63.6982 470.474 63.6982 469.307 63.7688C497.241 64.1925 525.243 64.369 552.696 63.9453C551.803 63.91 550.946 63.91 550.053 63.8747C536.155 61.7208 526.272 63.1332 515.325 63.5569C498.819 63.2744 481.661 62.2505 467.008 63.8041C465.052 64.0159 463.885 63.9453 462.719 64.6515" fill="#C99B5F"/>
<path d="M299.751 61.2263C295.222 61.4382 290.589 61.5441 286.025 62.0031C290.246 62.0384 294.501 62.0031 298.756 61.8972C306.271 61.8972 313.855 61.8266 321.439 60.9438C314.198 61.0145 306.958 61.1204 299.751 61.2263Z" fill="#C99B5F"/>
<path d="M374.629 43.7834C389.763 43.6775 404.931 43.6069 420.133 43.501C404.656 43.0419 389.591 43.2185 374.629 43.7834Z" fill="#C99B5F"/>
<path d="M370.408 62.7444C382.282 62.5325 394.155 62.2854 406.063 62.0735C392.782 61.9676 379.639 62.0735 366.565 62.6032C367.869 62.7091 369.139 62.7797 370.443 62.7444" fill="#C99B5F"/>
<path d="M345.838 3.38967C338.975 3.81338 332.112 3.77807 325.249 3.81338C335.372 3.84869 345.529 3.60152 355.687 3.4956C352.324 4.16647 348.686 3.98993 345.186 3.95462C351.912 4.02524 358.638 3.95462 365.433 4.02524C367.938 3.56622 371.061 3.63683 373.772 3.74276C369.482 3.67214 365.193 3.60152 360.937 3.53091C364.575 3.42498 368.212 3.38967 371.884 3.35436C363.134 3.17781 354.52 3.31905 345.873 3.46029" fill="#C99B5F"/>
<path d="M497.79 8.08582C489.142 7.97989 427.442 9.00386 421.299 8.93324C427.511 9.10979 489.28 8.08582 497.79 8.08582Z" fill="#C99B5F"/>
<path d="M381.561 6.92056C385.851 6.92056 390.14 6.92056 394.464 6.92056C402.974 6.84994 411.45 6.70871 419.961 6.60278C412.789 6.70871 405.651 6.88525 398.307 6.6734C409.323 6.56747 420.647 6.81463 431.388 6.285C416.529 6.03783 402.116 6.285 387.669 6.53216C390.037 6.53216 392.405 6.49685 394.773 6.53216C387.704 6.60278 380.223 5.50819 373.668 6.88525C376.345 6.88525 378.919 6.92056 381.527 6.95587" fill="#C99B5F"/>
<path d="M301.09 14.0535C299.992 14.0888 298.859 14.1241 297.761 14.1947C305.722 14.1241 313.752 13.8769 321.748 13.771C321.096 13.8416 320.444 13.8416 319.792 13.8769C309.326 14.23 298.825 14.5478 288.461 14.5125C292.682 14.2653 296.903 14.1241 301.09 14.0182V14.0535Z" fill="#C99B5F"/>
<path d="M443.879 34.9209C441.82 34.815 441.477 34.709 443.124 34.6031C446.625 34.7443 449.885 34.8856 453.659 35.0268C452.355 34.8503 448.958 33.7204 458.67 33.6851C452.355 33.7204 446.178 34.0382 440.345 34.709C441.58 35.0621 442.747 35.1327 443.879 34.9562" fill="#C99B5F"/>
<path d="M256.376 39.0169C290.692 38.2401 324.905 38.0282 359.118 36.5806C357.574 36.5806 356.064 36.5806 354.554 36.5806C321.954 37.0396 289.422 37.4986 256.376 39.0522" fill="#C99B5F"/>
<path d="M348.755 2.54221C363.648 2.47159 378.644 2.61283 393.503 2.18912C392.954 2.15381 392.439 2.15381 391.89 2.15381C383.792 2.15381 375.727 2.15381 367.697 2.22443C371.026 2.22443 372.536 2.22443 372.433 2.29505C364.54 2.36566 356.613 2.36566 348.755 2.57752" fill="#C99B5F"/>
<path d="M379.537 12.3586C373.428 12.4292 373.909 12.4646 381.252 12.4646C389.523 12.4292 389.969 12.1468 392.783 12.1115C400.298 11.9702 407.71 11.6524 415.431 11.7937C409.975 11.8643 404.45 11.8643 398.925 11.7584C400.366 11.7584 401.773 11.7584 403.215 11.7584C391.787 11.8996 354.76 12.5352 346.524 12.4292C346.902 12.4292 347.245 12.4292 347.623 12.3939C350.196 12.4646 377.924 11.9349 381.527 12.288C380.875 12.288 380.223 12.3586 379.537 12.3939" fill="#C99B5F"/>
<path d="M328.783 26.8354C326.312 26.9413 323.841 27.0119 321.371 27.1885C332.969 27.1885 344.568 27.0119 356.236 26.9766C357.368 26.9766 358.466 26.906 359.53 26.7648C349.201 26.2705 339.043 26.5176 328.817 26.8707" fill="#C99B5F"/>
<path d="M420.064 26.8702C447.242 26.7643 474.764 26.8349 502.423 26.7996C441.649 26.5172 382.179 26.6584 323.567 27.188C355.515 27.0821 387.395 26.1641 420.098 26.8702" fill="#C99B5F"/>
<path d="M379.708 54.1999C398.376 54.0234 417.147 53.8469 435.781 53.5291C446.35 53.3525 456.645 52.6816 467.66 53.0347C450.88 53.176 434.133 53.3525 417.456 53.5644C407.744 53.7056 397.998 53.8469 388.321 53.9881C387.566 53.9881 376.002 54.1293 379.742 54.1999" fill="#C99B5F"/>
<path d="M592.983 80.964C594.527 81.0347 595.831 80.964 596.929 80.9994C597.272 81.2465 597.41 81.3524 597.753 81.5996C588.59 82.0233 579.05 82.1999 569.305 82.1646C573.903 79.3398 584.575 80.611 593.017 80.9287L592.983 80.964Z" fill="#C99B5F"/>
<path d="M532.312 49.3979C517.522 48.9035 503.075 48.5858 488.937 48.5151C503.315 48.8329 517.796 49.1507 532.312 49.3979Z" fill="#C99B5F"/>
<path d="M397.69 14.6888C396.283 14.6888 394.91 14.7595 393.572 14.9007C401.979 15.1479 410.284 15.0419 418.588 14.936C411.519 14.6888 404.587 14.6535 397.724 14.6888" fill="#C99B5F"/>
<path d="M509.56 19.6319C502.629 19.5966 495.731 19.5613 488.868 19.5259C493.775 19.3141 499.06 19.42 504.001 19.2435C499.643 19.1728 495.388 19.1729 491.167 19.1729C469.273 19.3141 447.242 19.1729 426.344 20.4793C431.388 20.6911 436.33 20.5852 441.237 20.5499C445.424 20.3027 449.644 20.0556 453.797 19.8084C467.832 19.8084 481.936 19.7731 496.006 19.6672C495.628 19.6672 495.182 19.6672 494.77 19.6672C499.643 19.6319 504.619 19.6672 509.595 19.6672" fill="#C99B5F"/>
<path d="M365.295 68.147C373.806 68.0764 362.481 67.2642 362.104 67.2289C361.212 67.2289 360.319 67.2642 359.427 67.2995C386.914 67.4761 414.436 67.2289 441.786 66.5581C440.585 66.5227 439.418 66.5227 438.217 66.4874C425.623 65.9931 413.441 66.2403 401.293 66.5934C386.297 66.6287 371.335 66.664 356.51 67.4761C359.393 67.7939 362.378 67.9704 365.295 68.147Z" fill="#C99B5F"/>
<path d="M410.49 28.9186C423.461 28.9892 436.467 29.0245 448.89 28.283C440.07 27.8593 431.663 27.824 423.29 27.9299C418.966 28.1418 414.608 28.4243 410.49 28.9186Z" fill="#C99B5F"/>
<path d="M287.638 42.3008C303.046 42.0183 318.454 41.7712 333.896 41.5593C318.522 41.3475 303.183 41.4887 287.638 42.3008Z" fill="#C99B5F"/>
<path d="M374.904 2.36584C369.104 4.27253 362.035 2.71893 355.618 2.68362C365.776 2.71893 375.865 2.54238 386.022 2.47176C386.503 2.47176 386.983 2.50707 387.464 2.613C384.272 2.75424 381.046 2.78954 377.786 2.86016C385.061 2.93078 392.336 2.93078 399.646 3.0014C399.714 3.07202 400.641 3.0014 399.337 2.82485C401.465 2.54238 404.107 2.71893 406.509 2.75424C401.533 2.64831 396.557 2.57769 391.581 2.50707C394.944 2.40114 398.342 2.40114 401.739 2.36584C392.645 2.18929 383.723 2.25991 374.835 2.36584" fill="#C99B5F"/>
<path d="M362.31 3.31937C354.177 3.53123 346.01 3.67246 337.842 3.63715C345.975 3.4253 354.108 3.28406 362.31 3.31937Z" fill="#C99B5F"/>
<path d="M326.827 10.5225C318.488 10.5578 310.184 10.6284 301.845 10.7343C310.149 10.7343 318.454 10.699 326.827 10.5225Z" fill="#C99B5F"/>
<path d="M242.58 9.42753C246.046 9.3216 249.478 9.21567 252.91 9.14505C252.12 9.14505 251.331 9.25098 250.542 9.28629C250.988 9.28629 251.503 9.28629 251.983 9.28629C263.273 9.00382 274.563 8.68603 285.784 8.43887C278.647 8.5801 271.44 8.79196 264.371 8.82727C264.714 8.82727 265.058 8.79196 265.401 8.79196C280.088 8.40356 294.638 8.26232 309.291 7.83861C303.286 7.59145 297.177 7.83861 291.104 8.01516C281.975 8.26232 272.779 8.40356 263.582 8.61541C265.366 8.61541 267.151 8.5448 268.901 8.5448C263.307 8.75665 257.748 8.86258 252.155 9.00382C249.032 9.07443 245.875 9.18036 242.718 9.25098C242.409 9.25098 238.531 9.35691 240.041 9.3216C240.865 9.3216 241.448 9.39222 242.512 9.39222" fill="#C99B5F"/>
<path d="M463.439 12.6763C460.831 12.7116 458.189 12.7469 455.615 12.8175C463.851 12.8175 471.984 12.7469 480.254 12.7469C478.642 12.7822 476.994 12.8175 475.313 12.8528C463.611 12.9941 451.944 13.1 440.104 13.0647C447.757 12.8175 455.581 12.7469 463.439 12.6763Z" fill="#C99B5F"/>
<path d="M409.254 36.5101C404.073 36.5101 398.891 36.4748 393.709 36.3689C403.764 36.3689 413.818 36.4395 423.942 36.4748C412.686 36.3336 401.499 36.2276 390.346 36.1217C385.233 36.0864 380.086 36.0511 374.972 35.9452C374.286 35.9452 368.315 36.1923 370.614 35.7686C369.997 35.6627 369.448 35.698 369.001 35.8392C382.419 36.3336 395.837 36.4748 409.254 36.5101Z" fill="#C99B5F"/>
<path d="M537.768 37.1455C537.768 37.1455 537.94 37.2514 538.043 37.3574C525.929 37.3574 513.884 37.3574 501.908 37.428C513.781 37.2867 525.757 37.2161 537.802 37.1808L537.768 37.1455Z" fill="#C99B5F"/>
<path d="M376.791 12.2878C370.546 12.3584 370.957 12.429 378.267 12.3937C386.606 12.3584 387.052 12.0406 389.728 12.0406C397.381 12.0406 405.479 12.5702 412.686 11.6875C407.092 11.7581 369.997 12.3937 365.947 12.2524C366.977 12.2524 368.006 12.2524 369.036 12.2524C360.834 12.3231 352.667 12.3937 344.465 12.2878C344.843 12.2878 345.186 12.2878 345.563 12.2524C348.137 12.3231 375.041 11.8287 378.644 12.1818C378.027 12.1818 377.409 12.2524 376.791 12.2878Z" fill="#C99B5F"/>
<path d="M325.797 26.941C320.169 27.0469 314.507 27.2234 308.879 27.4353C316.223 27.4 323.601 27.3647 330.945 27.4353C336.675 27.3294 342.097 27.1528 347.725 26.7291C340.382 26.6585 333.107 26.7291 325.797 26.941Z" fill="#C99B5F"/>
<path d="M428.197 45.5488C438.08 45.5488 448.066 45.6547 457.983 45.6547C474.386 45.6547 507.055 45.231 507.055 45.231C507.055 45.231 476.068 45.0192 460.728 44.9839C489.382 44.6308 518.585 44.7014 548.029 44.772C548.132 44.8426 548.166 44.8779 548.269 44.9486C545.558 45.0192 545.661 45.0898 548.578 45.1604C548.749 45.3017 548.852 45.3723 549.024 45.5135C521.743 45.5135 494.393 45.4429 467.832 45.7607C454.757 45.9372 442.61 47.5967 428.197 45.5841V45.5488Z" fill="#C99B5F"/>
<path d="M445.046 53.3525C441.203 53.3525 437.393 53.3525 433.653 53.5291C436.81 53.8115 440.001 53.8822 443.159 54.0234C456.027 53.7409 469.239 53.9175 482.622 54.1999C455.478 53.635 428.643 53.0701 402.425 53.176C416.598 53.2819 430.736 53.2466 445.046 53.3878" fill="#C99B5F"/>
<path d="M298.859 54.5527C317.39 54.4468 335.955 54.5527 354.589 54.5174C333.759 54.2703 313.066 54.0584 292.442 54.1996C301.055 54.1643 309.634 54.129 318.282 54.1996C305.551 54.2349 292.854 54.3409 280.123 54.5527C286.368 54.5527 292.614 54.5527 298.893 54.5527" fill="#C99B5F"/>
<path d="M275.558 88.0965C286.265 87.0372 296.491 87.355 306.82 87.4256C322.434 87.5315 338.426 87.1431 354.245 87.0019C321.439 86.0132 288.633 87.355 255.724 88.273C253.253 89.0851 255.758 88.4142 257.337 88.4849C263.102 88.732 269.656 88.273 275.524 88.0965" fill="#C99B5F"/>
<path d="M562.476 55.4355C562.476 55.4355 562.716 55.6121 562.888 55.7533C559.113 55.7886 555.51 55.824 552.387 55.824C546.004 55.824 552.558 55.6474 562.476 55.4355Z" fill="#C99B5F"/>
<path d="M596.037 80.3286C596.346 80.5758 596.517 80.6817 596.861 80.9289C582.379 80.9995 553.348 81.0701 553.348 81.0701C553.348 81.0701 581.659 80.4699 596.071 80.3286H596.037Z" fill="#C99B5F"/>
<path d="M461.381 49.8568C446.899 49.5037 432.589 49.2212 418.485 49.2212C432.727 49.4684 447.036 49.7155 461.381 49.8568Z" fill="#C99B5F"/>
<path d="M392.13 14.265C389.419 14.3356 386.674 14.3709 384.032 14.5475C390.38 14.6534 396.694 14.6534 403.043 14.6181C403.901 14.0531 393.366 14.265 392.13 14.265Z" fill="#C99B5F"/>
<path d="M514.124 19.7026C514.296 19.8439 514.399 19.9145 514.571 20.0204C513.095 20.0204 511.585 20.091 510.109 20.091C506.849 20.091 503.589 20.091 500.261 19.9851C504.653 19.7379 509.423 19.7379 514.124 19.7026Z" fill="#C99B5F"/>
<path d="M417.799 20.3734C421.333 20.3381 425.039 20.3734 428.3 20.0203C411.004 18.4314 395.356 19.2435 379.262 19.5966C391.959 19.7378 404.862 20.1262 417.799 20.3734Z" fill="#C99B5F"/>
<path d="M432.624 29.7308C433.584 29.8014 434.511 29.7308 435.472 29.8367C435.369 29.9426 434.991 29.9779 434.82 30.0132C444.634 30.2251 454.208 30.1192 463.783 29.9426C468.587 29.9426 473.494 29.9073 478.024 29.6601C462.204 28.9893 447.414 29.3424 432.624 29.7308Z" fill="#C99B5F"/>
<path d="M524.248 27.1881C524.557 27.4 524.694 27.5059 525.003 27.7531C513.85 27.5765 502.732 27.3647 491.647 27.1528C502.423 27.1528 513.301 27.1528 524.248 27.1881Z" fill="#C99B5F"/>
<path d="M380.12 35.8745C394.429 35.7686 408.774 35.6979 423.186 35.6273C408.499 35.133 394.292 35.3449 380.12 35.8745Z" fill="#C99B5F"/>
<path d="M385.027 59.4964C399.44 59.3905 413.887 59.2845 428.368 59.1786C413.578 58.649 399.268 58.8608 385.027 59.4964Z" fill="#C99B5F"/>
<path d="M398.856 2.43655C391.89 2.75433 384.718 2.68371 377.615 2.68371C387.875 2.86026 398.033 2.68371 408.259 2.61309C404.69 3.31927 400.401 3.10742 396.317 2.96618C402.734 3.07211 409.117 3.10742 415.603 3.21335C418.725 2.96618 421.78 2.93087 425.177 3.00149C421.196 2.86026 417.284 2.78964 413.338 2.68371C417.078 2.61309 420.853 2.57778 424.662 2.61309C415.877 2.33062 407.367 2.40124 398.891 2.47185" fill="#C99B5F"/>
</g>
<g opacity="0.6">
<path d="M485.951 -0.953125C485.951 -0.953125 486.054 -0.882507 486.122 -0.847198C483.514 -0.847198 428.574 0.212078 426.721 0.247387C417.902 0.318005 454.105 -0.352869 441.546 -0.600033C408.431 -0.352869 423.049 -0.529415 485.951 -0.953125Z" fill="#F4D9BE"/>
<path d="M495.696 6.1792C495.696 6.1792 495.765 6.21453 495.799 6.24985C494.186 6.24985 492.574 6.24985 490.892 6.24985C492.951 6.24985 494.495 6.1792 495.696 6.1792Z" fill="#F4D9BE"/>
<path d="M254.522 11.1228C268.97 10.6285 283.451 9.9929 297.761 9.53388C298.516 9.53388 299.305 9.53388 300.06 9.53388C296.903 9.78104 293.78 9.88697 290.623 10.0635C303.629 9.92228 316.669 9.74574 329.743 8.61584C325.317 8.54522 320.924 8.58053 316.497 8.68646C296.114 9.11017 275.558 9.85166 254.557 11.1581" fill="#F4D9BE"/>
<path d="M454.998 17.6548C420.888 17.5135 387.429 18.0432 354.005 18.3962C353.559 18.4316 352.942 18.4316 352.53 18.5022C365.261 18.5022 377.958 18.2903 390.689 18.0785C384.307 18.1491 377.889 18.1491 371.644 18.6434C398.273 18.4316 425.211 18.5375 451.738 17.8666C429.947 17.9372 408.294 18.1138 386.743 18.3256C399.646 18.2197 412.549 18.1138 425.417 17.9019C422.329 17.8313 419.275 17.9019 416.221 17.9019C429.192 17.9019 442.266 18.0432 454.963 17.6548" fill="#F4D9BE"/>
<path d="M544.357 42.0181C544.357 42.0181 544.46 42.0887 544.494 42.124C525.483 42.2652 506.575 42.4065 487.426 42.3005C506.3 42.1946 525.277 42.0887 544.357 42.0181Z" fill="#F4D9BE"/>
<path d="M521.674 45.9375C531.111 46.0434 540.582 46.1494 550.122 46.2906C550.225 46.3612 550.294 46.3965 550.396 46.5024C542.126 46.3259 534.096 46.3612 526.169 46.4318C526.959 46.4318 521.674 45.9375 521.674 45.9375Z" fill="#F4D9BE"/>
<path d="M469.136 50.9865C477.612 51.0924 486.157 51.2337 494.633 51.3043C513.644 51.4455 551.426 51.163 551.426 51.163C551.426 51.163 523.973 50.7393 510.418 50.5981C525.483 50.5275 540.719 50.5981 556.059 50.6687C556.539 51.0218 556.779 51.1984 557.294 51.5868C527.199 51.7986 498.064 52.8579 466.562 51.163C467.386 51.0924 468.278 51.0218 469.17 51.0218L469.136 50.9865Z" fill="#F4D9BE"/>
<path d="M331.734 81.6704C327.307 81.6704 322.915 81.741 318.488 82.0941C322.503 82.4472 326.552 82.5531 330.67 82.5531C334.96 82.5531 339.215 82.4825 343.436 82.1647C339.558 81.7763 335.646 81.7057 331.734 81.6704Z" fill="#F4D9BE"/>
<path d="M383.071 90.0032C409.391 89.7913 435.952 89.8619 462.822 90.215C466.734 90.215 470.646 90.215 474.214 89.7913C462.341 89.2617 450.88 89.1911 439.521 89.4029C400.195 90.3563 360.559 89.6854 321.508 89.0851C322.812 88.9792 324.081 89.0851 325.248 89.4029C313.032 89.8972 300.849 90.1091 288.633 90.321C319.963 90.1797 351.397 89.7207 383.071 89.9679" fill="#F4D9BE"/>
<path d="M367.937 16.8072C367.079 16.8072 366.222 16.8072 365.329 16.8072C382.968 16.3129 400.709 16.0304 418.519 15.8892C421.47 15.8892 424.456 15.8186 427.339 15.7126C426.206 15.6067 421.676 15.4302 421.951 15.4302C409.803 15.5361 397.689 15.642 385.576 15.7126C383.826 15.7126 382.041 15.7833 380.36 15.8892C385.988 15.8892 391.581 15.8892 397.243 15.9245C394.086 16.1011 390.826 16.1011 387.635 16.1717C374.732 16.7013 362.001 17.7606 348.823 17.0897C355.206 17.0544 361.589 16.9485 367.972 16.7719" fill="#F4D9BE"/>
<path d="M461.758 69.4533C476.788 69.5593 492.059 69.877 507.398 70.1595C513.987 70.3008 520.747 70.4067 526.752 70.0183C499.471 68.0057 474.729 68.3588 450.159 69.0649C448.786 68.7825 447.86 68.8884 447.414 69.3827C452.286 69.5593 456.988 69.4886 461.758 69.4886" fill="#F4D9BE"/>
<path d="M302.977 3.31937C310.355 3.21344 317.767 3.10752 325.18 3.00159C309.909 2.93097 294.57 3.31937 279.265 3.60185C278.853 3.60185 278.475 3.63715 278.029 3.70777C286.265 3.74308 294.604 3.53123 302.977 3.28406" fill="#F4D9BE"/>
<path d="M419.446 7.97981C425.795 7.73265 486.877 6.3909 495.731 6.21436C495.868 6.32028 495.937 6.3909 496.109 6.49683C493.432 6.56745 492.471 6.60276 496.28 6.63807C496.349 6.70868 496.383 6.70868 496.486 6.7793C491.991 6.84992 432.555 8.01512 429.329 8.08574C425.898 7.69734 422.569 7.97981 419.446 8.01512V7.97981Z" fill="#F4D9BE"/>
<path d="M479.98 17.8665C488.73 17.7606 497.515 17.6547 506.266 17.5487C506.849 17.584 507.364 17.5134 507.398 17.6194C482.622 18.3609 457.159 18.4668 431.8 18.4668C437.977 18.3609 444.154 18.2549 450.365 18.149C470.474 17.8665 490.377 17.3369 510.761 17.231C498.682 17.3722 486.637 17.5134 474.798 17.8312C476.548 17.8312 478.298 17.8312 479.98 17.8312V17.8665Z" fill="#F4D9BE"/>
<path d="M360.148 5.40234C351.637 5.40234 343.127 5.54358 334.651 5.89667C343.161 5.86136 351.672 5.68482 360.148 5.40234Z" fill="#F4D9BE"/>
<path d="M404.793 10.699C391.581 10.134 378.816 10.2752 365.947 10.0987C374.801 9.99277 383.757 10.0987 392.714 10.1693C392.782 10.1693 393.675 10.2399 393.332 10.1693C371.026 9.46313 349.167 8.89819 327.513 10.0634C353.01 10.6636 378.747 10.593 404.793 10.7343" fill="#F4D9BE"/>
<path d="M344.637 22.4919C356.991 22.4919 369.345 22.2448 381.801 22.3507C379.434 22.5272 376.997 22.5625 374.561 22.6332C357.368 22.7038 340.279 22.8803 323.189 23.1981C335.612 23.1981 348.034 22.9509 360.491 22.8803C349.407 23.1275 338.323 23.3393 327.239 23.5865C354.211 23.1275 381.149 22.5625 408.156 22.0682C409.597 22.0682 411.039 21.9976 412.446 21.8917C389.317 20.9383 367.114 21.8564 344.671 22.5272" fill="#F4D9BE"/>
<path d="M511.07 17.4785C509.938 17.4785 508.668 17.4785 508.668 17.4785C508.668 17.4785 510.281 17.4785 511.07 17.4785C511.173 17.5491 511.207 17.5844 511.31 17.655C505.168 17.655 499.059 17.655 492.951 17.655C498.682 17.3372 504.687 17.2666 510.83 17.2666C510.933 17.3372 511.001 17.3725 511.104 17.4785H511.07Z" fill="#F4D9BE"/>
<path d="M474.867 17.1958C486.774 17.1958 498.682 17.1958 510.658 17.1958C510.693 17.1958 510.727 17.2311 510.761 17.2664C498.305 17.3723 485.882 17.443 473.288 17.337C473.666 17.2664 474.42 17.2664 474.867 17.2311V17.1958Z" fill="#F4D9BE"/>
<path d="M325.488 35.8745C330.121 35.5214 334.822 35.3802 339.455 35.2036C330.121 35.2742 320.821 35.4508 311.453 35.9098C316.086 36.0157 320.821 35.9451 325.488 35.8745Z" fill="#F4D9BE"/>
<path d="M470.028 37.1806C470.646 37.1806 471.229 37.1806 471.847 37.1806C443.158 37.569 414.539 37.9927 386.022 38.487C411.553 38.3811 436.913 37.7809 462.41 37.3925C475.381 37.4631 488.353 37.4631 500.947 37.0394C490.343 36.8275 480.151 36.9688 470.028 37.1806Z" fill="#F4D9BE"/>
<path d="M426.001 47.279C423.015 47.279 419.961 47.279 416.941 47.2084C417.216 47.1731 417.868 47.2084 418.108 47.1025C414.161 47.0319 410.249 47.0319 406.337 47.0672C404.724 47.1025 403.146 47.1731 401.567 47.279C447.997 48.9386 492.814 47.4556 539.004 47.3496C534.337 47.279 529.67 47.2437 524.831 47.0319C531.763 46.7494 539.004 46.6788 546.347 46.7141C513.644 46.5022 481.284 46.3257 449.576 46.5375C460.317 46.6081 471.092 46.6788 482.107 46.9612C463.439 47.1731 444.703 47.2437 426.035 47.279" fill="#F4D9BE"/>
<path d="M328.577 58.9665C318.042 59.0725 307.438 59.4256 296.8 59.9905C302.462 59.7434 309.737 58.79 314.816 60.273C327.822 59.6021 340.794 59.1784 353.662 58.4016C340.999 58.0838 328.371 58.2251 315.777 58.4369C313.272 59.2843 319.346 58.5781 321.028 58.6135C324.905 58.6488 328.783 58.5075 332.661 58.6135C331.46 58.8606 329.881 58.8959 328.577 58.9665Z" fill="#F4D9BE"/>
<path d="M269.999 78.3866C263.204 78.7397 256.479 78.8456 249.787 78.9162C253.459 78.8809 257.096 78.8456 260.734 78.8456C253.836 79.1987 247.042 79.3046 240.144 79.6224C246.321 79.693 252.635 79.5871 258.915 79.4812C257.165 79.4812 255.38 79.4812 253.665 79.4458C266.739 78.9515 279.711 78.8103 292.682 78.5631C302.943 78.3866 313.272 78.0688 323.567 77.8569C305.688 78.0335 287.843 78.21 270.033 78.4219" fill="#F4D9BE"/>
<path d="M482.656 63.4157C475.587 63.2391 468.621 63.1332 461.689 63.0979C456.954 63.0979 452.149 63.0626 447.62 63.2745C461.175 63.9453 474.421 63.91 487.77 64.1572C501.324 64.4397 515.497 65.2165 527.576 63.8394C526.066 63.5569 524.762 63.4863 523.355 63.3451C509.663 63.2745 496.143 63.3451 482.656 63.3804" fill="#F4D9BE"/>
<path d="M269.21 90.1444C285.03 90.0384 300.85 89.8972 316.807 88.8732C343.333 90.1091 370.134 90.3562 396.969 89.8972C399.886 89.4029 406.852 89.2263 411.107 88.7673C407.95 88.5555 404.896 88.5908 401.808 88.6261C391.273 88.6614 390.312 89.191 386.537 89.2969C367.732 89.4029 348.927 88.9439 330.293 88.3789C305.997 88.5908 281.839 88.6614 257.234 90.0737C261.18 90.215 265.195 90.215 269.21 90.1797" fill="#F4D9BE"/>
<path d="M382.693 15.8185C375.864 15.3595 369.344 15.2535 362.687 15.3241C369.413 15.7479 376.002 15.8538 382.693 15.8185Z" fill="#F4D9BE"/>
<path d="M369.653 14.7947C368.795 14.7947 367.972 14.7947 367.114 14.7947C384.169 14.3004 401.327 14.0885 418.554 13.912C421.471 13.912 424.353 13.8414 427.167 13.7354C425.623 13.6295 421.368 13.4883 421.025 13.4883C409.014 13.5942 397.038 13.7354 385.061 13.7708C383.414 13.7708 381.801 13.8414 380.188 13.912C385.885 13.9473 391.581 13.912 397.312 13.9826C394.327 14.1238 391.238 14.1592 388.218 14.2298C380.6 14.371 372.982 14.5476 365.398 14.6888C361.658 14.7594 357.917 14.83 354.211 14.9713C352.358 15.0419 350.265 14.83 350.848 15.1125C357.128 15.0419 363.408 14.9713 369.688 14.7947" fill="#F4D9BE"/>
<path d="M496.726 24.2929C488.799 24.1516 480.872 24.0104 472.979 23.8691C470.954 23.8691 468.655 23.8691 466.974 24.081C477.097 24.3635 486.946 24.3988 496.726 24.2929Z" fill="#F4D9BE"/>
<path d="M512.923 82.0585C521.125 82.1644 529.429 82.5881 538.18 83.1884C548.543 83.3649 558.564 83.2943 568.138 82.7294C547.548 80.3283 530.733 81.0345 513.438 81.5288C509.663 81.5642 505.511 81.6348 502.011 81.9173C505.683 82.0232 509.354 82.0585 512.958 82.0585" fill="#F4D9BE"/>
<path d="M342.715 3.49601C347.931 3.49601 353.147 3.49601 358.363 3.53132C358.638 3.53132 358.912 3.53132 359.187 3.4607C349.956 3.10761 340.828 3.28416 331.7 3.31947C329.469 3.35478 327.204 3.39008 324.974 3.53132C330.876 3.60194 336.778 3.53132 342.715 3.53132" fill="#F4D9BE"/>
<path d="M415.362 0.741434C419.824 1.12983 424.044 0.91798 428.3 0.882671C429.672 0.882671 484.75 -0.211914 486.98 -0.211914C487.015 -0.211914 487.049 -0.176605 487.083 -0.141296C478.435 -0.141296 420.476 0.882671 414.23 0.776743C414.333 0.600197 414.882 0.706125 415.328 0.741434H415.362Z" fill="#F4D9BE"/>
<path d="M504.344 19.8794C507.467 19.8794 510.899 19.8794 514.33 19.8794C514.433 19.95 514.467 19.9853 514.57 20.0559C503.246 20.0913 491.922 20.1266 480.529 20.0559C488.422 19.9853 496.349 19.9147 504.31 19.8794H504.344Z" fill="#F4D9BE"/>
<path d="M361.932 7.02652C351.02 6.88529 340.21 7.09714 329.366 7.41492C340.21 7.48554 351.088 7.27369 361.932 7.02652Z" fill="#F4D9BE"/>
<path d="M499.814 9.21582C500.02 9.35706 500.123 9.42768 500.295 9.56891C491.132 9.56891 421.745 10.487 421.745 10.487C421.745 10.487 490.755 9.21582 499.814 9.21582Z" fill="#F4D9BE"/>
<path d="M440.242 21.8921C411.862 21.3977 384.238 21.8921 356.613 22.0333C354.657 22.0686 352.701 22.1392 350.78 22.2098C362.035 22.3158 373.257 22.1392 384.478 21.998C373.119 22.1745 361.761 22.3511 350.437 22.6689C375.796 22.5629 401.396 22.5629 426.893 22.1745C408.088 22.1745 389.42 22.2451 370.855 22.3511C384.101 22.2805 397.381 22.2451 410.593 22.0333C409.083 21.9627 407.539 21.9627 406.063 21.9627C417.49 21.998 428.918 22.0686 440.276 21.8921" fill="#F4D9BE"/>
<path d="M390.723 35.027C402.116 34.7798 413.509 34.6033 424.936 34.4268C411.656 34.4268 398.479 34.4974 385.404 34.9211C387.154 35.027 388.973 35.0623 390.723 35.027Z" fill="#F4D9BE"/>
<path d="M520.747 24.5754C520.747 24.5754 520.816 24.6467 520.884 24.6823C513.163 24.6823 505.442 24.7535 497.755 24.7535C505.271 24.5754 512.957 24.5398 520.747 24.5754Z" fill="#F4D9BE"/>
<path d="M394.704 39.582C395.253 39.582 395.837 39.582 396.386 39.582C369.894 40.1822 343.367 40.7472 316.807 41.4181C340.759 41.1356 364.712 40.3941 388.63 39.8645C400.71 39.8645 412.755 39.7938 424.594 39.2642C414.47 39.123 404.587 39.3348 394.704 39.6173" fill="#F4D9BE"/>
<path d="M516.561 40.8177C519.066 40.8177 521.468 40.8177 523.802 40.6764C515.188 40.288 506.918 40.1115 498.751 40.0762C501.016 40.0762 494.393 40.4999 492.883 40.5352C500.501 40.3233 508.119 40.288 516.561 40.8177Z" fill="#F4D9BE"/>
<path d="M564.226 65.3222C568.378 65.3575 572.325 65.3928 575.996 65.4634C576.305 65.6753 576.442 65.7812 576.751 66.0283C568.996 65.8871 561.206 65.7106 553.348 65.4634C556.745 65.2868 560.554 65.2869 564.226 65.3222Z" fill="#F4D9BE"/>
<path d="M421.78 88.8735C438.766 88.9088 455.787 88.9794 472.396 88.238C497.55 90.0387 522.017 90.4977 546.107 90.3565C552.455 89.7916 559.49 89.8269 566.01 89.4032C562.956 89.1913 559.971 89.1207 557.191 89.156C546.519 89.0501 542.984 89.5444 538.901 89.615C522.12 89.4032 505.099 88.7676 488.044 87.8849C462.204 87.8142 436.433 87.6377 411.279 88.5557C414.779 88.7676 418.314 88.8029 421.78 88.8382" fill="#F4D9BE"/>
<path d="M383.483 13.6649C382.934 13.6649 382.35 13.6649 381.801 13.6649C402.631 13.2765 423.667 13.1352 444.806 13.0293C452.801 12.9587 460.728 12.7468 468.587 12.535C459.047 12.535 449.507 12.5703 439.899 12.4644C436.261 12.4997 432.486 12.4997 428.986 12.6762C430.77 12.7115 432.555 12.7468 434.339 12.8174C428.746 12.994 423.084 13.0646 417.387 13.0999C399.371 13.2412 381.424 13.3471 363.614 13.8767C370.237 13.8767 376.86 13.7708 383.483 13.6649Z" fill="#F4D9BE"/>
</g>
</g>
</g>
<path d="M595.179 91.6626H0.754953C0.343159 91.6626 0 91.2742 0 90.8152C0 90.3562 0.343159 89.9678 0.754953 89.9678H595.179C595.591 89.9678 595.934 90.3562 595.934 90.8152C595.934 91.2742 595.591 91.6626 595.179 91.6626Z" fill="#EBCEB0"/>
<path d="M595.179 91.6626H0.754953C0.343159 91.6626 0 91.2742 0 90.8152C0 90.3562 0.343159 89.9678 0.754953 89.9678H595.179C595.591 89.9678 595.934 90.3562 595.934 90.8152C595.934 91.2742 595.591 91.6626 595.179 91.6626Z" fill="#EBCEB0"/>
<mask id="mask2_374_27084" style="mask-type:luminance" maskUnits="userSpaceOnUse" x="0" y="0" width="596" height="91">
<path d="M595.762 90.6034H0.171387L122.062 0H469.17L595.762 90.6034Z" fill="white"/>
</mask>
<g mask="url(#mask2_374_27084)">
<path d="M567.349 65.8516H27.4186L26.2861 67.0874H568.481L567.349 65.8516Z" fill="url(#paint6_linear_374_27084)"/>
<path d="M567.349 48.7271H27.4186L26.2861 49.9276H568.481L567.349 48.7271Z" fill="url(#paint7_linear_374_27084)"/>
<path d="M567.349 32.7671H27.4186L26.2861 34.0029H568.481L567.349 32.7671Z" fill="url(#paint8_linear_374_27084)"/>
<path opacity="0.9" d="M567.349 16.8428H27.4186L26.2861 18.0786H568.481L567.349 16.8428Z" fill="url(#paint9_linear_374_27084)"/>
<path opacity="0.8" d="M567.349 7.06201H27.4186L26.2861 8.29783H568.481L567.349 7.06201Z" fill="url(#paint10_linear_374_27084)"/>
</g>
<defs>
<linearGradient id="paint0_linear_374_27084" x1="220.206" y1="236.995" x2="382.441" y2="-36.1025" gradientUnits="userSpaceOnUse">
<stop offset="0.16" stop-color="#D3AC79"/>
<stop offset="1" stop-color="#CEA676"/>
</linearGradient>
<linearGradient id="paint1_linear_374_27084" x1="223.501" y1="223.295" x2="385.628" y2="-49.6288" gradientUnits="userSpaceOnUse">
<stop offset="0.02" stop-color="#E9C289"/>
<stop offset="0.1" stop-color="#EAC591"/>
<stop offset="0.19" stop-color="#EBCEAC"/>
<stop offset="0.25" stop-color="#EDD3BC"/>
<stop offset="0.33" stop-color="#E7CBAE"/>
<stop offset="0.54" stop-color="#DCBA91"/>
<stop offset="0.71" stop-color="#D5AF7F"/>
<stop offset="0.84" stop-color="#D3AC79"/>
</linearGradient>
<linearGradient id="paint2_linear_374_27084" x1="220.206" y1="236.995" x2="382.441" y2="-36.1025" gradientUnits="userSpaceOnUse">
<stop offset="0.16" stop-color="#D3AC79"/>
<stop offset="1" stop-color="#CEA676"/>
</linearGradient>
<linearGradient id="paint3_linear_374_27084" x1="223.501" y1="223.295" x2="385.628" y2="-49.6288" gradientUnits="userSpaceOnUse">
<stop offset="0.02" stop-color="#E9C289"/>
<stop offset="0.1" stop-color="#EAC591"/>
<stop offset="0.19" stop-color="#EBCEAC"/>
<stop offset="0.25" stop-color="#EDD3BC"/>
<stop offset="0.33" stop-color="#E7CBAE"/>
<stop offset="0.54" stop-color="#DCBA91"/>
<stop offset="0.71" stop-color="#D5AF7F"/>
<stop offset="0.84" stop-color="#D3AC79"/>
</linearGradient>
<linearGradient id="paint4_linear_374_27084" x1="220.206" y1="236.995" x2="382.441" y2="-36.1025" gradientUnits="userSpaceOnUse">
<stop offset="0.16" stop-color="#D3AC79"/>
<stop offset="1" stop-color="#CEA676"/>
</linearGradient>
<linearGradient id="paint5_linear_374_27084" x1="223.501" y1="223.295" x2="385.628" y2="-49.6288" gradientUnits="userSpaceOnUse">
<stop offset="0.02" stop-color="#E9C289"/>
<stop offset="0.1" stop-color="#EAC591"/>
<stop offset="0.19" stop-color="#EBCEAC"/>
<stop offset="0.25" stop-color="#EDD3BC"/>
<stop offset="0.33" stop-color="#E7CBAE"/>
<stop offset="0.54" stop-color="#DCBA91"/>
<stop offset="0.71" stop-color="#D5AF7F"/>
<stop offset="0.84" stop-color="#D3AC79"/>
</linearGradient>
<linearGradient id="paint6_linear_374_27084" x1="297.384" y1="67.0874" x2="297.384" y2="65.8516" gradientUnits="userSpaceOnUse">
<stop offset="0.42" stop-color="#A05626"/>
<stop offset="0.63" stop-color="#F4DAC0"/>
</linearGradient>
<linearGradient id="paint7_linear_374_27084" x1="-76.9711" y1="49.9276" x2="-73.5197" y2="48.7871" gradientUnits="userSpaceOnUse">
<stop offset="0.42" stop-color="#A05626"/>
<stop offset="0.63" stop-color="#F4DAC0"/>
</linearGradient>
<linearGradient id="paint8_linear_374_27084" x1="-76.9711" y1="34.0029" x2="-73.5186" y2="32.8285" gradientUnits="userSpaceOnUse">
<stop offset="0.42" stop-color="#A05626"/>
<stop offset="0.63" stop-color="#F4DAC0"/>
</linearGradient>
<linearGradient id="paint9_linear_374_27084" x1="-76.9711" y1="18.0786" x2="-73.5186" y2="16.9042" gradientUnits="userSpaceOnUse">
<stop offset="0.42" stop-color="#A05626"/>
<stop offset="0.63" stop-color="#F4DAC0"/>
</linearGradient>
<linearGradient id="paint10_linear_374_27084" x1="-76.9711" y1="8.29783" x2="-73.5186" y2="7.12344" gradientUnits="userSpaceOnUse">
<stop offset="0.42" stop-color="#A05626"/>
<stop offset="0.63" stop-color="#F4DAC0"/>
</linearGradient>
</defs>
</svg>
