<svg width="106" height="99" viewBox="0 0 106 99" fill="none" xmlns="http://www.w3.org/2000/svg">
<g clip-path="url(#clip0_374_27748)">
<path d="M53.9087 67.0348C53.9087 67.0348 52.9561 40.0881 61.5687 24.3464C70.1814 8.59689 80.098 2.52979 80.098 2.52979C80.098 2.52979 65.1137 44.6716 61.5609 53.1046C58.0081 61.5377 53.9009 67.0426 53.9009 67.0426L53.9087 67.0348Z" fill="#187D22"/>
<path d="M35.262 95.9417L32.0996 68.8232H67.7995L63.4971 95.9417H35.262Z" fill="url(#paint0_linear_374_27748)"/>
<path d="M69.8065 68.823V66.582L30.6475 67.6986V68.823H69.8065Z" fill="#DDBBFF"/>
<path opacity="0.31" d="M32.0996 68.8232L32.4119 71.9934C32.4119 71.9934 48.6065 67.5973 67.37 71.9934L67.7995 68.8232H32.0996Z" fill="#007730"/>
<path d="M36.3945 95.9414L36.9958 98.2839H61.8889L62.373 95.9414H36.3945Z" fill="#007730"/>
<path d="M32.5293 97.5187L33.5912 98.565H66.4567L67.5186 96.8784L32.5293 97.5187Z" fill="#B895FF"/>
<g style="mix-blend-mode:soft-light" opacity="0.5">
<path d="M58.992 70.4004L55.8452 95.9416H58.992L63.7395 71.2359L58.992 70.4004Z" fill="#FFFFEA"/>
</g>
<path d="M49.0206 67.0349C49.0206 67.0349 30.6475 26.8686 42.0634 0C42.0634 0 48.107 15.8588 50.2309 33.8571C52.3548 51.8554 50.2309 67.1364 50.2309 67.1364L49.0206 67.0349Z" fill="#187D22"/>
<path d="M53.9087 67.0351C53.9087 67.0351 59.601 43.079 71.5478 32.4518C85.1188 20.38 105.296 21.5825 105.296 21.5825C105.296 21.5825 71.5634 42.9853 65.754 48.9431C59.9446 54.9008 55.8374 66.9804 55.8374 66.9804L53.9009 67.0351H53.9087Z" fill="url(#paint1_linear_374_27748)"/>
<path d="M53.909 67.0347C53.909 67.0347 61.0614 42.6101 54.8382 30.1401C48.6227 17.678 22.043 12.5713 22.043 12.5713C22.043 12.5713 46.0303 32.3421 49.9579 40.9235C53.8855 49.5127 52.3629 67.0269 52.3629 67.0269H53.909V67.0347Z" fill="url(#paint2_linear_374_27748)"/>
<path d="M46.4052 67.2537C46.4052 67.2537 40.5489 58.2819 34.5833 56.1502C28.6099 54.0263 0.0078125 60.5697 0.0078125 60.5697C0.0078125 60.5697 21.2544 61.4521 29.7421 61.7176C38.2376 61.9831 45.1324 67.3162 45.1324 67.3162L46.4052 67.2537Z" fill="url(#paint3_linear_374_27748)"/>
<path d="M57.376 67.0347C57.376 67.0347 60.9366 59.1795 67.5191 54.3774C74.1015 49.5752 94.2081 45.9053 94.2081 45.9053C94.2081 45.9053 80.6762 56.2748 73.3441 59.0546C66.012 61.8344 58.0397 66.9176 58.0397 66.9176L57.376 67.0347Z" fill="url(#paint4_linear_374_27748)"/>
<g style="mix-blend-mode:soft-light" opacity="0.5">
<path d="M105.296 21.5825C105.296 21.5825 78.9502 27.7043 69.8066 37.9333C60.663 48.1622 54.9082 63.1075 54.9082 63.1075C54.9082 63.1075 60.7411 43.0165 71.134 33.5684C84.3458 21.5513 105.296 21.5825 105.296 21.5825Z" fill="white"/>
</g>
<g style="mix-blend-mode:soft-light" opacity="0.5">
<path d="M94.2081 45.9053C94.2081 45.9053 73.7892 52.761 66.9803 57.5007C60.1714 62.2404 57.376 67.0425 57.376 67.0425C57.376 67.0425 60.6711 64.5751 70.3066 59.9447C79.9422 55.3144 94.2081 45.9053 94.2081 45.9053Z" fill="white"/>
</g>
<g style="mix-blend-mode:soft-light" opacity="0.5">
<path d="M45.7804 67.1443C45.7804 67.1443 38.1907 59.3125 31.616 57.9226C25.0414 56.5327 2.64697 59.9918 2.64697 59.9918C2.64697 59.9918 6.23102 60.8039 18.904 61.2099C31.5848 61.6238 35.489 61.6862 38.3234 62.5686C41.1579 63.4509 45.3978 67.2458 45.3978 67.2458L45.7804 67.1443Z" fill="white"/>
</g>
<g style="mix-blend-mode:soft-light" opacity="0.5">
<path d="M22.5581 12.6807C22.5581 12.6807 45.8193 23.5187 52.2221 32.8809C58.6328 42.2354 53.9009 67.0348 53.9009 67.0348C53.9009 67.0348 56.181 48.5602 49.6922 38.4405C43.2034 28.3208 27.8756 19.2085 22.5581 12.6807Z" fill="white"/>
</g>
<g style="mix-blend-mode:soft-light" opacity="0.5">
<path d="M74.687 53.425L77.5136 56.1267L84.8457 51.8165L82.7609 50.0752L74.687 53.425Z" fill="white"/>
</g>
<g style="mix-blend-mode:soft-light" opacity="0.5">
<path d="M73.5625 34.5831L86.8914 33.568L90.7644 30.999L76.9591 32.3421L73.5625 34.5831Z" fill="white"/>
</g>
<g style="mix-blend-mode:soft-light" opacity="0.5">
<path d="M43.6487 24.854L38.5576 26.6109L46.7876 34.5832L52.6673 33.5682C52.6673 33.5682 51.0042 29.6718 43.6487 24.854Z" fill="white"/>
</g>
<g style="mix-blend-mode:soft-light" opacity="0.5">
<path d="M23.5732 57.6885L24.2135 61.374L32.1 61.9206L31.6159 57.9149L23.5732 57.6885Z" fill="white"/>
</g>
<g style="mix-blend-mode:soft-light" opacity="0.5">
<path d="M21.4261 57.8208L20.1689 61.2409L18.2637 61.1862L20.5437 57.8833L21.4261 57.8208Z" fill="white"/>
</g>
</g>
<defs>
<linearGradient id="paint0_linear_374_27748" x1="49.9496" y1="95.9417" x2="49.9496" y2="68.8232" gradientUnits="userSpaceOnUse">
<stop stop-color="#A794FF"/>
<stop offset="1" stop-color="#D5C4FF"/>
</linearGradient>
<linearGradient id="paint1_linear_374_27748" x1="79.5982" y1="67.0351" x2="79.5982" y2="21.5513" gradientUnits="userSpaceOnUse">
<stop stop-color="#43A35E"/>
<stop offset="1" stop-color="#3E9B2F"/>
</linearGradient>
<linearGradient id="paint2_linear_374_27748" x1="39.7055" y1="-0.000195485" x2="39.7055" y2="12.5713" gradientUnits="userSpaceOnUse">
<stop stop-color="#43A358"/>
<stop offset="1" stop-color="#419C4A"/>
</linearGradient>
<linearGradient id="paint3_linear_374_27748" x1="23.1987" y1="67.3162" x2="23.1987" y2="55.7286" gradientUnits="userSpaceOnUse">
<stop stop-color="#43A358"/>
<stop offset="1" stop-color="#4CB363"/>
</linearGradient>
<linearGradient id="paint4_linear_374_27748" x1="75.7959" y1="-0.000164694" x2="75.7959" y2="45.9053" gradientUnits="userSpaceOnUse">
<stop stop-color="#45A343"/>
<stop offset="1" stop-color="#4CB35C"/>
</linearGradient>
<clipPath id="clip0_374_27748">
<rect width="105.296" height="98.5651" fill="white"/>
</clipPath>
</defs>
</svg>
