<svg width="285" height="143" viewBox="0 0 285 143" fill="none" xmlns="http://www.w3.org/2000/svg">
<path d="M20.8926 52.168L53.6892 60.1727H223.387L263.911 52.8654L250.555 126.698L36.0257 121.625L20.8926 52.168Z" fill="#44259A"/>
<path d="M263.911 52.8656C248.605 70.1217 246.013 121.631 246.013 121.631L142.704 120.051L36.0257 121.631C36.0257 121.631 36.2046 69.4305 20.8926 52.1743C20.8926 52.1743 -17.9276 62.7095 10.2649 77.0649C10.2649 77.0649 26.4903 94.3828 28.4715 130.919L141.019 131.45L253.567 131.993C255.548 95.4567 274.538 77.75 274.538 77.75C302.731 63.3945 263.911 52.8594 263.911 52.8594V52.8656Z" fill="url(#paint0_linear_374_27659)"/>
<path d="M36.0259 121.625L41.4261 120.946L242.285 120.273L246.013 121.625H36.0259Z" fill="#6D72FF"/>
<path d="M51.48 106.776C51.48 106.776 42.784 42.1823 41.957 5.18897C41.957 5.18897 96.0214 -5.50046 143.871 8.75006L143.297 106.948C143.297 106.948 98.2864 102.678 51.4862 106.776H51.48Z" fill="url(#paint1_linear_374_27659)"/>
<path d="M230.405 108.547C230.405 108.547 238.341 55.4948 239.6 14.2491C239.6 14.2491 192.306 -8.8085 145.747 8.75007L143.858 106.948C143.858 106.948 186.196 104.449 230.398 108.547H230.405Z" fill="url(#paint2_linear_374_27659)"/>
<path d="M145.753 8.75L143.864 12.9036L143.321 106.948H143.864L145.753 8.75Z" fill="#312590"/>
<path opacity="0.31" d="M236.076 57.7595C236.076 57.7595 229.923 89.5377 196.657 97.6659C163.392 105.794 78.37 102.986 65.6624 91.5435C49.3505 76.8486 44.876 57.3892 44.876 57.3892C44.876 57.3892 49.1838 96.2649 51.239 104.72L231.596 105.263C231.596 105.263 233.521 81.3293 236.076 57.7656V57.7595Z" fill="#2C2577"/>
<path d="M41.4258 120.946L38.6855 105.609C38.6855 105.609 96.5147 101.61 142.704 104.714L141.019 120.718L41.4196 120.946H41.4258Z" fill="url(#paint3_linear_374_27659)"/>
<path d="M143.321 120.718V104.72C143.321 104.72 199.552 97.7711 246.074 102.455L242.285 120.489L143.321 120.718Z" fill="url(#paint4_linear_374_27659)"/>
<path d="M33.5264 130.913L34.3163 134.943H249.827L250.852 131.993L33.5264 130.913Z" fill="#AE356B"/>
<path d="M34.3164 134.943L36.026 142.294H37.7541L41.1855 134.943H34.3164Z" fill="#AE356B"/>
<path d="M249.827 134.943L247.488 142.294H245.759L242.322 134.943H249.827Z" fill="#AE356B"/>
<path d="M225.658 134.943L223.949 140.677H222.221L218.789 134.943H225.658Z" fill="#72246B"/>
<path d="M57.4727 134.943L59.1822 140.677H60.9103L64.348 134.943H57.4727Z" fill="#72246B"/>
<path d="M33.5264 130.913L33.7979 132.302L250.666 132.45L250.852 131.993L33.5264 130.913Z" fill="#72246B"/>
<path fill-rule="evenodd" clip-rule="evenodd" d="M34.3163 128.79H30.5701C30.5701 128.79 28.5025 91.5435 15.7456 74.6083C15.7456 74.6083 4.08718 73.8924 3.40829 66.4431C2.82197 59.9813 15.5419 54.6613 19.6214 55.3216C19.6214 55.3216 32.2735 75.423 34.3163 128.79Z" fill="#E76D42"/>
<path fill-rule="evenodd" clip-rule="evenodd" d="M34.3161 128.79H33.5262C33.5262 128.79 34.0014 85.2176 18.856 56.6487L19.6274 55.3218C19.6274 55.3218 32.2795 72.7693 34.3223 128.79H34.3161Z" fill="#AE356B"/>
<path fill-rule="evenodd" clip-rule="evenodd" d="M18.856 56.6425C18.856 56.6425 0.00139117 58.3089 4.30926 69.2452C4.30926 69.2452 0.711141 64.5917 6.38913 59.9074C12.4066 54.9391 19.6213 55.3156 19.6213 55.3156L18.8499 56.6425H18.856Z" fill="#FF906B"/>
<path d="M16.875 56.9139L19.4301 57.7594L19.6214 55.3154L16.875 56.9139Z" fill="#FFC293"/>
<path fill-rule="evenodd" clip-rule="evenodd" d="M248.346 128.79H252.092C252.092 128.79 254.159 91.5435 266.916 74.6083C266.916 74.6083 278.575 73.8924 279.254 66.4431C279.84 59.9813 267.12 54.6613 263.041 55.3216C263.041 55.3216 250.389 75.423 248.346 128.79Z" fill="#E76D42"/>
<path fill-rule="evenodd" clip-rule="evenodd" d="M248.346 128.79H249.136C249.136 128.79 248.66 85.2176 263.806 56.6487L263.034 55.3218C263.034 55.3218 250.382 72.7693 248.339 128.79H248.346Z" fill="#AE356B"/>
<path fill-rule="evenodd" clip-rule="evenodd" d="M263.812 56.6425C263.812 56.6425 282.667 58.3027 278.353 69.2452C278.353 69.2452 281.951 64.5917 276.273 59.9074C270.255 54.9391 263.041 55.3156 263.041 55.3156L263.812 56.6425Z" fill="#FF906B"/>
<path d="M265.787 56.9139L263.232 57.7594L263.041 55.3154L265.787 56.9139Z" fill="#FFC293"/>
<path d="M36.4085 130.926L35.8716 121.637L36.1802 121.619L36.7171 130.907L36.4085 130.926Z" fill="#44259A"/>
<path d="M245.914 131.993L245.605 131.987L245.858 121.619L246.167 121.631L245.914 131.993Z" fill="#44259A"/>
<path d="M246.074 102.455C246.074 102.455 242.896 101.147 232.015 100.166C232.015 100.166 196.651 97.6662 143.321 104.714C143.321 104.714 206.983 108.541 246.074 102.449V102.455Z" fill="#6D92FF"/>
<path d="M38.6855 105.615L56.5033 104.128C56.5033 104.128 109.623 100.005 143.87 104.727H142.704C142.704 104.727 106.692 108.553 38.6855 105.622V105.615Z" fill="#6D92FF"/>
<path opacity="0.31" d="M41.957 5.18896C41.957 5.18896 42.2409 9.99674 46.8697 12.305C46.8697 12.305 45.7526 7.8675 41.957 5.18896Z" fill="#2C2577"/>
<path opacity="0.31" d="M143.864 8.75C143.864 8.75 138.872 12.3605 137.106 16.8535C137.106 16.8535 141.507 16.1623 143.864 8.75Z" fill="#2C2577"/>
<path opacity="0.31" d="M145.753 8.75C145.753 8.75 149.351 15.6747 156.152 17.7607C156.152 17.7607 152.9 11.6692 145.753 8.75Z" fill="#2C2577"/>
<path opacity="0.31" d="M239.606 14.249C239.606 14.249 234.484 14.7242 232.577 18.9642C232.577 18.9642 237.792 17.6805 239.606 14.249Z" fill="#2C2577"/>
<path opacity="0.31" d="M51.2393 104.72C51.2393 104.72 53.3994 99.0173 61.4596 98.4434C61.4596 98.4434 54.214 104.325 51.2393 104.72Z" fill="#2C2577"/>
<path d="M41.957 5.18891C41.957 5.18891 87.3131 -2.87754 143.871 8.75C143.871 8.75 100.021 -8.29015 41.957 5.18891Z" fill="#87C5FF"/>
<path d="M145.753 8.74982C145.753 8.74982 190.658 -4.28488 239.606 14.2488C239.606 14.2488 192.226 -9.88264 145.753 8.74982Z" fill="#87C5FF"/>
<path opacity="0.31" d="M243.056 116.891C243.056 116.891 186.406 120.909 143.321 120.718L242.285 120.489L243.056 116.891Z" fill="#2C2577"/>
<path opacity="0.31" d="M41.1855 117.563C41.1855 117.563 72.2108 120.1 141.019 120.717L41.4201 120.946L41.1855 117.563Z" fill="#2C2577"/>
<path d="M236.088 57.8832L263.293 53.5876C263.293 53.5876 276.235 55.4206 283.068 62.9008C283.068 62.9008 279.223 55.8835 263.911 52.8594L236.088 57.877V57.8832Z" fill="#87C5FF"/>
<path d="M0.575195 64.0486C0.575195 64.0486 4.40784 56.8832 20.8925 52.1742L45.2215 58.1114L20.8925 50.73C20.8925 50.73 5.47555 55.26 0.575195 64.0486Z" fill="#87C5FF"/>
<path fill-rule="evenodd" clip-rule="evenodd" d="M15.7456 74.6021C15.7456 74.6021 19.6462 75.3798 19.6215 67.9243C19.6215 67.9243 19.677 73.5776 14.6162 74.4787L15.7456 74.6021Z" fill="#AE356B"/>
<path fill-rule="evenodd" clip-rule="evenodd" d="M266.917 74.6021C266.917 74.6021 262.541 73.0407 261.726 67.7021C261.726 67.7021 261.726 74.417 266.565 75.0774L266.917 74.6021Z" fill="#AE356B"/>
<path opacity="0.31" d="M87.4054 47.675C87.4054 47.675 92.639 53.3222 96.3729 53.3222C99.5946 53.3222 108.618 45.8667 108.618 45.8667C108.618 45.8667 99.681 53.748 99.4588 55.9205C99.1687 58.8459 111.136 67.9245 111.136 67.9245C111.136 67.9245 98.6873 59.6297 95.6694 59.6173C93.4907 59.605 84.0356 67.9245 84.0356 67.9245C84.0356 67.9245 92.8242 57.8645 92.8489 56.6055C92.8921 54.1985 87.3992 47.675 87.3992 47.675H87.4054Z" fill="#2C2577"/>
<path d="M97.4838 56.3459C97.4838 56.926 97.0147 57.4013 96.4284 57.4013C95.8421 57.4013 95.373 56.9322 95.373 56.3459C95.373 55.7596 95.8421 55.2905 96.4284 55.2905C97.0147 55.2905 97.4838 55.7596 97.4838 56.3459Z" fill="url(#paint5_linear_374_27659)"/>
<path opacity="0.31" d="M62.8234 28.2893C62.8234 28.2893 68.0571 33.9364 71.791 33.9364C75.0126 33.9364 84.0357 26.481 84.0357 26.481C84.0357 26.481 75.099 34.3623 74.8768 36.5347C74.5868 39.4601 81.7521 43.8235 81.7521 43.8235C81.7521 43.8235 74.1054 40.2501 71.0936 40.2316C68.9149 40.2192 61.7681 44.5703 61.7681 44.5703C61.7681 44.5703 68.2484 38.485 68.2669 37.2259C68.3101 34.819 62.8173 28.2954 62.8173 28.2954L62.8234 28.2893Z" fill="#2C2577"/>
<path d="M71.8527 38.0097C72.4356 38.0097 72.9081 37.5372 72.9081 36.9543C72.9081 36.3714 72.4356 35.8989 71.8527 35.8989C71.2699 35.8989 70.7974 36.3714 70.7974 36.9543C70.7974 37.5372 71.2699 38.0097 71.8527 38.0097Z" fill="url(#paint6_linear_374_27659)"/>
<path opacity="0.31" d="M113.376 26.9563C113.376 26.9563 118.61 32.6034 122.344 32.6034C125.565 32.6034 134.588 25.1479 134.588 25.1479C134.588 25.1479 125.652 33.0293 125.43 35.2017C125.139 38.1271 132.305 42.4905 132.305 42.4905C132.305 42.4905 124.658 38.9171 121.646 38.8986C119.468 38.8862 112.321 43.2373 112.321 43.2373C112.321 43.2373 118.801 37.152 118.82 35.8929C118.863 33.486 113.37 26.9624 113.37 26.9624L113.376 26.9563Z" fill="#2C2577"/>
<path d="M122.405 36.6767C122.988 36.6767 123.461 36.2041 123.461 35.6213C123.461 35.0384 122.988 34.5659 122.405 34.5659C121.823 34.5659 121.35 35.0384 121.35 35.6213C121.35 36.2041 121.823 36.6767 122.405 36.6767Z" fill="url(#paint7_linear_374_27659)"/>
<path opacity="0.31" d="M62.8234 71.0719C62.8234 71.0719 68.0571 76.719 71.791 76.719C75.0126 76.719 84.0357 67.9243 84.0357 67.9243C84.0357 67.9243 75.099 77.1449 74.8768 79.3112C74.5868 82.2366 81.7521 86.6 81.7521 86.6C81.7521 86.6 74.1054 83.0265 71.0936 83.008C68.9149 82.9957 61.7681 87.3468 61.7681 87.3468C61.7681 87.3468 68.2484 81.2614 68.2669 80.0024C68.3101 77.5954 62.8173 71.0719 62.8173 71.0719H62.8234Z" fill="#2C2577"/>
<path d="M71.8527 80.7982C72.4356 80.7982 72.9081 80.3257 72.9081 79.7429C72.9081 79.16 72.4356 78.6875 71.8527 78.6875C71.2699 78.6875 70.7974 79.16 70.7974 79.7429C70.7974 80.3257 71.2699 80.7982 71.8527 80.7982Z" fill="url(#paint8_linear_374_27659)"/>
<path opacity="0.31" d="M113.376 69.7385C113.376 69.7385 118.61 75.3856 122.344 75.3856C125.566 75.3856 138.143 62.2769 138.143 62.2769C138.143 62.2769 125.652 75.8115 125.436 77.9777C125.146 80.9031 136.218 89.4325 136.218 89.4325C136.218 89.4325 124.664 81.6931 121.653 81.6808C119.474 81.6684 112.327 86.0195 112.327 86.0195C112.327 86.0195 118.807 79.9342 118.826 78.6751C118.869 76.2682 113.376 69.7446 113.376 69.7446V69.7385Z" fill="#2C2577"/>
<path d="M122.405 79.4594C122.988 79.4594 123.461 78.9869 123.461 78.404C123.461 77.8211 122.988 77.3486 122.405 77.3486C121.823 77.3486 121.35 77.8211 121.35 78.404C121.35 78.9869 121.823 79.4594 122.405 79.4594Z" fill="url(#paint9_linear_374_27659)"/>
<path opacity="0.31" d="M178.729 47.675C178.729 47.675 183.962 53.3222 187.696 53.3222C190.918 53.3222 199.941 45.8667 199.941 45.8667C199.941 45.8667 191.004 53.748 190.782 55.9205C190.492 58.8459 202.459 67.9245 202.459 67.9245C202.459 67.9245 190.011 59.6297 186.993 59.6173C184.814 59.605 175.359 67.9245 175.359 67.9245C175.359 67.9245 184.147 57.8645 184.172 56.6055C184.215 54.1985 178.722 47.675 178.722 47.675H178.729Z" fill="#2C2577"/>
<path d="M187.758 57.4013C188.341 57.4013 188.813 56.9288 188.813 56.3459C188.813 55.763 188.341 55.2905 187.758 55.2905C187.175 55.2905 186.703 55.763 186.703 56.3459C186.703 56.9288 187.175 57.4013 187.758 57.4013Z" fill="url(#paint10_linear_374_27659)"/>
<path opacity="0.31" d="M154.147 28.2893C154.147 28.2893 159.38 33.9364 163.114 33.9364C166.336 33.9364 175.359 26.481 175.359 26.481C175.359 26.481 166.422 34.3623 166.2 36.5347C165.91 39.4601 173.075 43.8235 173.075 43.8235C173.075 43.8235 165.429 40.2501 162.417 40.2316C160.238 40.2192 153.091 44.5703 153.091 44.5703C153.091 44.5703 159.572 38.485 159.59 37.2259C159.633 34.819 154.141 28.2954 154.141 28.2954L154.147 28.2893Z" fill="#2C2577"/>
<path d="M163.176 38.0097C163.759 38.0097 164.231 37.5372 164.231 36.9543C164.231 36.3714 163.759 35.8989 163.176 35.8989C162.593 35.8989 162.121 36.3714 162.121 36.9543C162.121 37.5372 162.593 38.0097 163.176 38.0097Z" fill="url(#paint11_linear_374_27659)"/>
<path opacity="0.31" d="M204.699 26.9563C204.699 26.9563 209.933 32.6034 213.667 32.6034C216.889 32.6034 225.912 25.1479 225.912 25.1479C225.912 25.1479 216.975 33.0293 216.753 35.2017C216.463 38.1271 223.628 42.4905 223.628 42.4905C223.628 42.4905 215.981 38.9171 212.97 38.8986C210.791 38.8862 203.644 43.2373 203.644 43.2373C203.644 43.2373 210.124 37.152 210.143 35.8929C210.186 33.486 204.693 26.9624 204.693 26.9624L204.699 26.9563Z" fill="#2C2577"/>
<path d="M213.729 36.6767C214.312 36.6767 214.784 36.2041 214.784 35.6213C214.784 35.0384 214.312 34.5659 213.729 34.5659C213.146 34.5659 212.673 35.0384 212.673 35.6213C212.673 36.2041 213.146 36.6767 213.729 36.6767Z" fill="url(#paint12_linear_374_27659)"/>
<path opacity="0.31" d="M154.147 71.0719C154.147 71.0719 159.38 76.719 163.114 76.719C166.336 76.719 175.359 67.9243 175.359 67.9243C175.359 67.9243 166.422 77.1449 166.2 79.3112C165.91 82.2366 173.075 86.6 173.075 86.6C173.075 86.6 165.429 83.0265 162.417 83.008C160.238 82.9957 153.091 87.3468 153.091 87.3468C153.091 87.3468 159.572 81.2614 159.59 80.0024C159.633 77.5954 154.141 71.0719 154.141 71.0719H154.147Z" fill="#2C2577"/>
<path d="M163.176 80.7982C163.759 80.7982 164.231 80.3257 164.231 79.7429C164.231 79.16 163.759 78.6875 163.176 78.6875C162.593 78.6875 162.121 79.16 162.121 79.7429C162.121 80.3257 162.593 80.7982 163.176 80.7982Z" fill="url(#paint13_linear_374_27659)"/>
<path opacity="0.31" d="M204.699 69.7385C204.699 69.7385 209.933 75.3856 213.667 75.3856C216.888 75.3856 229.466 62.2769 229.466 62.2769C229.466 62.2769 216.975 75.8115 216.759 77.9777C216.469 80.9031 227.541 89.4325 227.541 89.4325C227.541 89.4325 215.987 81.6931 212.975 81.6808C210.797 81.6684 203.65 86.0195 203.65 86.0195C203.65 86.0195 210.13 79.9342 210.149 78.6751C210.192 76.2682 204.699 69.7446 204.699 69.7446V69.7385Z" fill="#2C2577"/>
<path d="M213.729 79.4594C214.312 79.4594 214.784 78.9869 214.784 78.404C214.784 77.8211 214.312 77.3486 213.729 77.3486C213.146 77.3486 212.673 77.8211 212.673 78.404C212.673 78.9869 213.146 79.4594 213.729 79.4594Z" fill="url(#paint14_linear_374_27659)"/>
<path opacity="0.65" d="M243.383 102.103L191.738 100.32C191.738 100.32 200.94 69.2758 211.722 66.9244C222.504 64.573 243.383 102.103 243.383 102.103Z" fill="#2C0E77"/>
<path d="M243.384 102.103C243.384 102.103 254.851 78.5028 251.969 59.6543C251.969 59.6543 237.842 63.9436 233.114 64.0054C228.405 64.0671 218.259 61.8885 218.259 61.8885C218.259 61.8885 203.65 80.8295 213.661 99.8693C213.661 99.8693 223.597 100.283 230.429 100.931C237.218 101.573 243.39 102.103 243.39 102.103H243.384Z" fill="url(#paint15_linear_374_27659)"/>
<path opacity="0.31" d="M213.019 70.9176C213.019 70.9176 230.51 70.3745 240.113 71.0287C249.698 71.6829 252.104 72.2322 252.104 72.2322L251.506 76.1512C251.506 76.1512 244.544 73.7443 231.997 73.5715C219.549 73.3986 212.346 73.4727 212.346 73.4727L213.013 70.9176H213.019Z" fill="#2C0077"/>
<path opacity="0.31" d="M210.507 81.1564C210.507 81.1564 232.738 80.8972 240.347 81.6872C247.914 82.471 249.858 83.9214 249.858 83.9214L248.513 88.6798C248.513 88.6798 240.514 86.0753 230.633 84.952C220.647 83.8164 210.272 83.5696 210.272 83.5696L210.513 81.1564H210.507Z" fill="#2C0077"/>
<path opacity="0.31" d="M210.55 90.4756C210.55 90.4756 226.189 90.2534 234.379 90.7472C242.563 91.2409 247.124 92.8826 247.124 92.8826L246.624 94.2712C246.624 94.2712 237.663 92.5 229.8 91.8026C221.9 91.099 210.933 92.5 210.933 92.5L210.55 90.4756Z" fill="#2C0077"/>
<path opacity="0.31" d="M212.445 97.2771C212.445 97.2771 226.171 97.2462 234.484 97.5857C242.816 97.9251 244.834 98.8385 244.834 98.8385L243.834 101.134C243.834 101.134 234.027 99.3508 226.276 99.1471C218.561 98.9496 213.056 98.9558 213.056 98.9558L212.445 97.2771Z" fill="#2C0077"/>
<path style="mix-blend-mode:multiply" opacity="0.61" d="M243.384 102.103C243.384 102.103 231.374 95.4625 223.992 93.6357C216.414 91.7595 213.655 99.8692 213.655 99.8692L243.384 102.109V102.103Z" fill="url(#paint16_linear_374_27659)"/>
<path opacity="0.31" d="M251.969 59.6543C251.969 59.6543 235.317 66.0173 229.584 66.5851C223.924 67.1468 221.974 66.5666 221.974 66.5666C221.974 66.5666 227.004 65.8507 233.213 64.604C239.57 63.3326 251.963 59.6543 251.963 59.6543H251.969Z" fill="#2C2577"/>
<path opacity="0.31" d="M243.384 102.103C243.384 102.103 241.248 97.3759 244.587 93.895C244.587 93.895 245.112 98.6041 243.384 102.103Z" fill="#2C2577"/>
<path opacity="0.31" d="M251.969 59.6541C251.969 59.6541 249.191 65.974 249.623 67.5046C250.049 69.0043 251.296 69.8498 251.296 69.8498C251.296 69.8498 252.197 61.3267 251.962 59.6479L251.969 59.6541Z" fill="#2C2577"/>
<path opacity="0.65" d="M42.6602 105.263L94.5397 102.745C94.5397 102.745 85.1031 72.436 74.3211 70.0846C63.5391 67.7331 42.6602 105.263 42.6602 105.263Z" fill="#2C0E77"/>
<path d="M42.7653 105.264C42.7653 105.264 31.292 80.6693 34.0384 62.8145C34.0384 62.8145 47.1472 66.752 51.5415 66.8076C55.9172 66.8631 65.181 64.8573 65.181 64.8573C65.181 64.8573 80.598 82.9775 72.6303 102.82C72.6303 102.82 62.6568 103.27 55.8123 103.98C48.9864 104.683 42.7653 105.27 42.7653 105.27V105.264Z" fill="url(#paint17_linear_374_27659)"/>
<path d="M33.6807 71.2756L41.957 67.9243L51.2454 72.2877L53.0661 69.4364L60.5215 72.2877L61.4658 67.9243L67.3043 71.7631L67.6992 68.344L68.7855 70.1029L68.6065 73.7072L62.9717 70.8127L62.0336 75.0959L54.2696 71.5101L52.3995 75.7686L42.3705 69.9733C42.3705 69.9733 36.2234 71.8557 34.0448 75.3983L33.6868 71.2694L33.6807 71.2756Z" fill="#C4B6F4"/>
<path d="M36.9884 89.4327C36.9884 89.4327 40.9198 81.897 44.8759 80.7923L54.2631 85.1125L58.392 78.6877L65.1871 82.9462L67.1126 77.1201L72.192 80.7861L72.4512 77.8484L73.3337 80.5084V83.2733L68.5939 80.1258L66.588 85.6494L59.2067 81.3169L55.4974 88.6736L45.2092 83.2733C45.2092 83.2733 39.7287 87.7602 38.0993 93.0802L36.9761 89.4265L36.9884 89.4327Z" fill="#C4B6F4"/>
<path d="M41.9566 103.702L50.4613 97.1166L60.478 100.264L64.0391 95.1911L69.8961 99.3014L72.6301 94.3702L74.3027 97.1537L74.4508 96.4007L72.6301 92.8149L69.5998 96.9315L63.7428 93.0927L59.83 98.1165L50.6835 94.7405L40.7778 100.548L41.9566 103.702Z" fill="#C4B6F4"/>
<path style="mix-blend-mode:multiply" d="M42.7651 105.547C42.7651 105.547 54.584 98.3513 61.8173 96.4133C69.1801 94.4384 72.6301 103.103 72.6301 103.103L42.7651 105.554V105.547Z" fill="url(#paint18_linear_374_27659)"/>
<g style="mix-blend-mode:multiply" opacity="0.46">
<path d="M34.0386 62.8145C34.0386 62.8145 49.5605 68.6776 54.9299 69.2084C60.2437 69.733 62.0274 69.1899 62.0274 69.1899C62.0274 69.1899 57.2998 68.5233 51.4614 67.363C45.518 66.1842 34.0386 62.8145 34.0386 62.8145Z" fill="#2C2577"/>
</g>
<g style="mix-blend-mode:multiply" opacity="0.46">
<path d="M42.7654 105.263C42.5555 105.794 45.0057 100.351 41.4014 96.4009C41.4014 96.4009 40.9632 101.443 42.7654 105.263Z" fill="#2C2577"/>
</g>
<g style="mix-blend-mode:multiply" opacity="0.46">
<path d="M34.0385 62.8143C34.0385 62.8143 36.6306 68.6342 36.2356 70.0722C35.8468 71.4856 34.6742 72.2879 34.6742 72.2879C34.6742 72.2879 33.8225 64.3387 34.0385 62.8081V62.8143Z" fill="#2C2577"/>
</g>
<defs>
<linearGradient id="paint0_linear_374_27659" x1="142.402" y1="131.993" x2="142.402" y2="52.1681" gradientUnits="userSpaceOnUse">
<stop stop-color="#6045C4"/>
<stop offset="1" stop-color="#5974FF"/>
</linearGradient>
<linearGradient id="paint1_linear_374_27659" x1="92.9108" y1="106.948" x2="92.9108" y2="1.33781" gradientUnits="userSpaceOnUse">
<stop stop-color="#6052DD"/>
<stop offset="1" stop-color="#5974FF"/>
</linearGradient>
<linearGradient id="paint2_linear_374_27659" x1="191.739" y1="108.547" x2="191.739" y2="2.15249" gradientUnits="userSpaceOnUse">
<stop stop-color="#6052DD"/>
<stop offset="1" stop-color="#5974FF"/>
</linearGradient>
<linearGradient id="paint3_linear_374_27659" x1="90.6947" y1="120.946" x2="90.6947" y2="103.536" gradientUnits="userSpaceOnUse">
<stop stop-color="#6052FC"/>
<stop offset="1" stop-color="#5974FF"/>
</linearGradient>
<linearGradient id="paint4_linear_374_27659" x1="194.701" y1="120.718" x2="194.701" y2="100.832" gradientUnits="userSpaceOnUse">
<stop stop-color="#6052FC"/>
<stop offset="1" stop-color="#5974FF"/>
</linearGradient>
<linearGradient id="paint5_linear_374_27659" x1="96.4346" y1="57.3951" x2="96.4346" y2="55.2905" gradientUnits="userSpaceOnUse">
<stop stop-color="#6052FC"/>
<stop offset="1" stop-color="#5974FF"/>
</linearGradient>
<linearGradient id="paint6_linear_374_27659" x1="71.8527" y1="38.0097" x2="71.8527" y2="35.9051" gradientUnits="userSpaceOnUse">
<stop stop-color="#6052FC"/>
<stop offset="1" stop-color="#5974FF"/>
</linearGradient>
<linearGradient id="paint7_linear_374_27659" x1="122.405" y1="36.6767" x2="122.405" y2="34.5721" gradientUnits="userSpaceOnUse">
<stop stop-color="#6052FC"/>
<stop offset="1" stop-color="#5974FF"/>
</linearGradient>
<linearGradient id="paint8_linear_374_27659" x1="71.8527" y1="80.7921" x2="71.8527" y2="78.6875" gradientUnits="userSpaceOnUse">
<stop stop-color="#6052FC"/>
<stop offset="1" stop-color="#5974FF"/>
</linearGradient>
<linearGradient id="paint9_linear_374_27659" x1="122.405" y1="79.4594" x2="122.405" y2="77.3548" gradientUnits="userSpaceOnUse">
<stop stop-color="#6052FC"/>
<stop offset="1" stop-color="#5974FF"/>
</linearGradient>
<linearGradient id="paint10_linear_374_27659" x1="187.758" y1="57.3951" x2="187.758" y2="55.2905" gradientUnits="userSpaceOnUse">
<stop stop-color="#6052FC"/>
<stop offset="1" stop-color="#5974FF"/>
</linearGradient>
<linearGradient id="paint11_linear_374_27659" x1="163.176" y1="38.0097" x2="163.176" y2="35.9051" gradientUnits="userSpaceOnUse">
<stop stop-color="#6052FC"/>
<stop offset="1" stop-color="#5974FF"/>
</linearGradient>
<linearGradient id="paint12_linear_374_27659" x1="213.729" y1="36.6767" x2="213.729" y2="34.5721" gradientUnits="userSpaceOnUse">
<stop stop-color="#6052FC"/>
<stop offset="1" stop-color="#5974FF"/>
</linearGradient>
<linearGradient id="paint13_linear_374_27659" x1="163.176" y1="80.7921" x2="163.176" y2="78.6875" gradientUnits="userSpaceOnUse">
<stop stop-color="#6052FC"/>
<stop offset="1" stop-color="#5974FF"/>
</linearGradient>
<linearGradient id="paint14_linear_374_27659" x1="213.729" y1="79.4594" x2="213.729" y2="77.3548" gradientUnits="userSpaceOnUse">
<stop stop-color="#6052FC"/>
<stop offset="1" stop-color="#5974FF"/>
</linearGradient>
<linearGradient id="paint15_linear_374_27659" x1="243.112" y1="102.599" x2="243.112" y2="59.9503" gradientUnits="userSpaceOnUse">
<stop stop-color="#A794FF"/>
<stop offset="1" stop-color="#D5C4FF"/>
</linearGradient>
<linearGradient id="paint16_linear_374_27659" x1="243.989" y1="102.598" x2="243.989" y2="93.8069" gradientUnits="userSpaceOnUse">
<stop stop-color="#634CB3"/>
<stop offset="1" stop-color="white"/>
</linearGradient>
<linearGradient id="paint17_linear_374_27659" x1="41.858" y1="105.777" x2="41.858" y2="63.1226" gradientUnits="userSpaceOnUse">
<stop stop-color="#22006D"/>
<stop offset="1" stop-color="#3D187D"/>
</linearGradient>
<linearGradient id="paint18_linear_374_27659" x1="41.7221" y1="106.057" x2="41.7221" y2="96.5852" gradientUnits="userSpaceOnUse">
<stop stop-color="#634CB3"/>
<stop offset="1" stop-color="white"/>
</linearGradient>
</defs>
</svg>
