<svg width="170" height="138" viewBox="0 0 170 138" fill="none" xmlns="http://www.w3.org/2000/svg">
<g filter="url(#filter0_d_374_27775)">
<path d="M87.9058 7.92383V42.403V88.7415V120.062H154.741V88.7415V42.403V7.92383H87.9058Z" fill="#99B2F3"/>
<path opacity="0.38" d="M127.58 7.83984L87.2305 84.4793V96.9414L134.14 7.83984H127.58Z" fill="white"/>
<path opacity="0.38" d="M139.825 7.83984L87.2305 107.736V120.071H107.374C123.438 89.8063 139.503 59.5416 155.568 29.2791V7.83984H139.825Z" fill="white"/>
<g style="mix-blend-mode:multiply">
<path d="M91.3751 118.202V12.8226H156.101V6.57568H84.6909V118.202H91.3751Z" fill="#E2D8EA"/>
</g>
<path d="M81.5728 3V124.637H161.074V3H81.5728ZM154.39 88.7413V118.304H88.257V9.6842H154.39V88.7413Z" fill="#E9F4F4"/>
<path d="M165.832 124.637H76.8169V132.49H165.832V124.637Z" fill="#F2F9F9"/>
<g style="mix-blend-mode:multiply">
<path d="M161.074 122.507H81.5728V124.634H161.074V122.507Z" fill="#D4C6E5"/>
</g>
<path d="M15.0889 7.92383V42.403V88.7415V120.062H81.9264V88.7415V42.403V7.92383H15.0889Z" fill="#99B2F3"/>
<path opacity="0.38" d="M54.7635 7.83984L14.4136 84.4793V96.9414L61.3253 7.83984H54.7635Z" fill="white"/>
<path opacity="0.38" d="M67.008 7.83984L14.4136 107.736V120.071H34.5568C50.6216 89.8063 66.6863 59.5416 82.751 29.2791V7.83984H67.008Z" fill="white"/>
<g style="mix-blend-mode:multiply">
<path d="M18.5577 118.202V12.8226H83.2835V6.57568H11.8735V118.202H18.5577Z" fill="#E2D8EA"/>
</g>
<path d="M8.7583 3V124.637H88.2573V3H8.7583ZM81.5731 88.7413V118.304H15.4402V9.6842H81.5731V88.7413Z" fill="#E9F4F4"/>
<path d="M93.0154 124.637H4V132.49H93.0154V124.637Z" fill="#F2F9F9"/>
<g style="mix-blend-mode:multiply">
<path d="M88.2595 122.507H8.7583V124.634H88.2595V122.507Z" fill="#D4C6E5"/>
</g>
</g>
<defs>
<filter id="filter0_d_374_27775" x="0" y="0" width="169.833" height="137.49" filterUnits="userSpaceOnUse" color-interpolation-filters="sRGB">
<feFlood flood-opacity="0" result="BackgroundImageFix"/>
<feColorMatrix in="SourceAlpha" type="matrix" values="0 0 0 0 0 0 0 0 0 0 0 0 0 0 0 0 0 0 127 0" result="hardAlpha"/>
<feOffset dy="1"/>
<feGaussianBlur stdDeviation="2"/>
<feComposite in2="hardAlpha" operator="out"/>
<feColorMatrix type="matrix" values="0 0 0 0 0 0 0 0 0 0 0 0 0 0 0 0 0 0 0.25 0"/>
<feBlend mode="normal" in2="BackgroundImageFix" result="effect1_dropShadow_374_27775"/>
<feBlend mode="normal" in="SourceGraphic" in2="effect1_dropShadow_374_27775" result="shape"/>
</filter>
</defs>
</svg>
