<svg width="15" height="19" viewBox="0 0 15 19" fill="none" xmlns="http://www.w3.org/2000/svg">
<path d="M7.36253 9.53131C7.8628 9.53131 8.29121 9.357 8.64776 9.00837C9.00432 8.65974 9.18229 8.24114 9.18168 7.75259C9.18168 7.26344 9.00341 6.84455 8.64685 6.49592C8.2903 6.14729 7.86219 5.97327 7.36253 5.97387C6.86227 5.97387 6.43386 6.14818 6.0773 6.49681C5.72075 6.84544 5.54278 7.26403 5.54338 7.75259C5.54338 8.24174 5.72166 8.66063 6.07821 9.00926C6.43477 9.35789 6.86287 9.53191 7.36253 9.53131ZM7.36253 16.0681C9.212 14.408 10.5839 12.8996 11.4784 11.543C12.3728 10.1865 12.82 8.98228 12.82 7.93046C12.82 6.31479 12.293 4.99201 11.2391 3.96213C10.1852 2.93225 8.89304 2.41701 7.36253 2.41642C5.83142 2.41642 4.53891 2.93166 3.48502 3.96213C2.43112 4.9926 1.90448 6.31538 1.90509 7.93046C1.90509 8.98287 2.35229 10.1874 3.24671 11.5439C4.14112 12.9005 5.51306 14.4086 7.36253 16.0681ZM7.36253 18.4249C4.92184 16.3942 3.09905 14.5082 1.89417 12.7668C0.689288 11.0254 0.0865439 9.41332 0.0859375 7.93046C0.0859375 5.70706 0.817539 3.93574 2.28074 2.61652C3.74394 1.29731 5.43787 0.637695 7.36253 0.637695C9.2878 0.637695 10.982 1.29731 12.4452 2.61652C13.9084 3.93574 14.6397 5.70706 14.6391 7.93046C14.6391 9.41273 14.0364 11.0248 12.8309 12.7668C11.6254 14.5088 9.80262 16.3948 7.36253 18.4249Z" fill="#ED401A"/>
</svg>
