<svg width="48" height="48" viewBox="0 0 48 48" fill="none" xmlns="http://www.w3.org/2000/svg">
<mask id="mask0_854_1305" style="mask-type:alpha" maskUnits="userSpaceOnUse" x="5" y="5" width="38" height="37">
<path d="M30.8688 40.2833C40.1845 36.4823 44.6021 25.9765 40.7358 16.818C36.8695 7.65957 26.1833 3.31653 16.8676 7.11758C7.55189 10.9186 3.13427 21.4244 7.0006 30.5829C10.8669 39.7413 21.5531 44.0844 30.8688 40.2833Z" fill="black"/>
</mask>
<g mask="url(#mask0_854_1305)">
<path d="M33.837 5H14.9185H-4V42.1945H14.9185H33.837H52.7517V5H33.837Z" fill="black"/>
<path d="M23.9865 42.9962C14.3977 42.9962 4.80902 42.9962 -4.77584 43C-4.95362 43 -5 42.9734 -5 42.7872C-4.99227 30.2599 -4.99227 17.7287 -5 5.20138C-5 5.0266 -4.94976 5 -4.78743 5C14.4055 5.0038 33.5945 5.0038 52.7874 5C52.9498 5 53 5.0266 53 5.20138C52.9961 17.7287 52.9961 30.2599 53 42.7872C53 42.9734 52.9536 43 52.7758 43C43.1794 42.9962 33.5829 42.9962 23.9903 42.9962H23.9865ZM35.8671 23.7511C35.9212 23.7929 35.8671 23.8119 35.8477 23.8309C35.7704 23.9145 35.6815 24.0095 35.7434 24.1235C35.813 24.2527 35.956 24.2527 36.0835 24.2299C36.3231 24.1919 36.5627 24.1691 36.7946 24.1083C37.4826 23.9335 37.9464 23.5307 38.1396 22.8392C38.2555 22.4251 38.2671 22.0071 38.271 21.5815C38.2826 20.0959 38.2594 18.614 38.043 17.1398C37.985 16.737 37.9154 16.3343 37.8497 15.9315C37.8381 15.8479 37.8304 15.7719 37.9464 15.7453C38.2246 15.6731 38.2401 15.6541 38.0855 15.4072C37.8575 15.05 37.6024 14.708 37.3782 14.3471C37.27 14.1761 37.2352 14.2369 37.1657 14.3623C36.9647 14.7118 36.9608 15.088 37.0188 15.4642C37.3357 17.5767 37.5908 19.6969 37.6604 21.8361C37.672 22.1439 37.5753 22.4175 37.4014 22.6872C37.0536 23.223 36.497 23.4434 35.9598 23.7055C35.898 23.6105 35.9791 23.4206 35.7357 23.4434C35.4806 23.4662 35.4767 23.4358 35.5927 23.204C35.697 22.9912 35.6545 22.9076 35.4149 22.8734C35.3414 22.862 35.2641 22.8658 35.1907 22.8734C35.0941 22.8848 34.9897 22.8848 34.9627 23.0102C34.9356 23.1356 35.0052 23.1964 35.1018 23.2534C35.268 23.3522 35.2757 23.451 35.1327 23.5877C35.0593 23.6599 34.9704 23.7207 34.897 23.7929C34.8506 23.8423 34.8274 23.9069 34.8622 23.9753C34.8931 24.0323 34.9511 24.0475 35.0129 24.0551C35.1057 24.0627 35.1946 24.0399 35.2757 24.0057C35.4728 23.9221 35.67 23.8271 35.8632 23.7397L35.8671 23.7511ZM27.5383 19.0244C28.1412 19.9515 28.6514 20.9242 29.1847 21.9121C29.3586 21.5891 29.3548 20.8292 29.1847 20.4987C28.6939 19.5221 28.1335 18.5836 27.5228 17.6717C27.4262 17.5311 27.376 17.3868 27.3605 17.2196C27.3218 16.8738 27.2755 16.528 27.2407 16.1823C27.2291 16.0873 27.1634 15.9125 27.3914 16.0303C27.4455 16.0569 27.4571 16.0113 27.4533 15.9771C27.4455 15.9125 27.4301 15.8441 27.4146 15.7795C27.2793 15.24 26.9238 14.8182 26.6107 14.3737C26.4561 14.1571 26.3866 14.1647 26.2551 14.4003C26.1508 14.5826 26.1585 14.7916 26.1315 15.0462C25.9498 14.7764 25.7218 14.632 25.5208 14.4573C25.3856 14.3395 25.2541 14.2141 25.0802 14.1495C24.8483 14.0621 24.7517 14.1229 24.7053 14.3623C24.6628 14.5712 24.7594 14.7688 24.7169 14.974C24.5817 14.7612 24.4696 14.537 24.2879 14.3585C24.0483 14.1229 23.658 14.1837 23.5459 14.4952C23.4338 14.8068 23.399 15.1222 23.6039 15.4338C23.828 15.7757 24.0213 16.1405 24.0058 16.5698C23.9981 16.7788 23.8744 16.9346 23.6696 16.9802C23.457 17.0258 23.3179 16.9308 23.2367 16.7446C23.198 16.6572 23.1671 16.566 23.1439 16.4711C23.0164 15.9847 23.0396 15.4832 23.0125 14.9892C22.9971 14.6776 22.9082 14.3927 22.769 14.1191C22.7227 14.0279 22.6531 13.9253 22.5565 14.0583C22.3246 14.3699 22.1275 14.7004 22.3053 15.107C22.4599 15.4642 22.4753 15.8365 22.483 16.2165C22.4869 16.4939 22.371 16.699 22.1932 16.889C22.0309 17.0638 21.8376 17.0942 21.6212 16.9916C21.3738 16.87 21.2501 16.6724 21.254 16.4027C21.254 16.1671 21.2695 15.9277 21.2656 15.6921C21.2656 15.4832 21.254 15.278 21.2347 15.069C21.2192 14.9398 21.1535 14.8258 21.0183 14.7802C20.8869 14.7384 20.7825 14.803 20.6936 14.8866C20.6124 14.9664 20.539 15.05 20.4733 15.1374C20.2105 15.4984 20.0559 15.9049 19.9322 16.3267C19.8974 16.4483 19.8665 16.5698 19.824 16.6876C19.7931 16.7674 19.766 16.8738 19.6617 16.8814C19.5573 16.889 19.5187 16.7864 19.4684 16.7142C19.3602 16.547 19.3409 16.3533 19.3023 16.1633C19.2366 15.8289 19.2056 15.487 19.1052 15.1602C19.0858 15.1032 19.0704 15.0158 18.9815 15.0234C18.908 15.031 18.908 15.107 18.8926 15.1602C18.68 15.9353 18.7534 16.6724 19.1902 17.3602C19.337 17.5919 19.5457 17.7325 19.8317 17.6869C20.0675 17.6489 20.1332 17.4438 20.2182 17.2614C20.3496 16.9764 20.396 16.6648 20.4849 16.3685C20.5081 16.2963 20.5429 16.1899 20.6356 16.1975C20.7554 16.2089 20.7052 16.3267 20.7091 16.3989C20.7091 16.7256 20.7091 17.0524 20.8057 17.3716C21.0144 18.0403 21.7487 18.2151 22.255 17.7249C22.3478 17.6375 22.4367 17.5463 22.5256 17.4552C22.7961 17.1892 22.9507 17.2044 23.1323 17.5349C23.2715 17.7857 23.4802 17.8959 23.7662 17.8731C24.0676 17.8541 24.3227 17.7667 24.458 17.459C24.5121 17.3336 24.5739 17.2006 24.6899 17.1056C24.7594 17.0486 24.8406 17.0372 24.9218 17.079C24.9797 17.1094 24.9411 17.1588 24.9218 17.193C24.8793 17.2918 24.8329 17.3944 24.9566 17.4666C25.0648 17.5311 25.1614 17.4666 25.2464 17.402C25.4087 17.2728 25.5092 17.098 25.5904 16.9118C25.6445 16.7902 25.7759 16.6458 25.6522 16.5242C25.517 16.3951 25.4126 16.566 25.3044 16.6268C25.0454 16.7712 24.7363 16.7332 24.659 16.5128C24.5353 16.1557 24.4425 15.7909 24.342 15.4262C24.3188 15.3426 24.3304 15.2514 24.4619 15.2742C24.7285 15.3198 24.7401 15.1488 24.7324 14.9664C24.8561 15.05 24.9063 15.1944 24.9913 15.3084C25.5479 16.0189 26.0735 16.7522 26.5837 17.497C26.6339 17.5691 26.6841 17.6375 26.6957 17.7325C26.9199 19.4196 26.9663 21.1142 26.8928 22.8164C26.8928 22.8962 26.8387 23.0102 26.9083 23.0444C27.0011 23.0938 27.0938 23.0026 27.1595 22.938C27.4301 22.6796 27.5847 22.3681 27.6001 21.9919C27.6349 21.0724 27.5692 20.1529 27.5383 19.2334C27.5383 19.1574 27.4803 19.0738 27.5692 19.0092V19.0168L27.5383 19.0244ZM14.8693 15.8555C14.9968 16.623 15.1243 17.3906 15.2519 18.1581C15.2905 18.3861 15.3253 18.6102 15.3562 18.8382C15.3756 18.9826 15.333 19.1042 15.19 19.1726C15.047 19.2372 14.9929 19.1118 14.9118 19.0434C14.8731 19.0092 14.8422 18.9674 14.8074 18.9256C14.4287 18.5001 13.9881 18.4925 13.5861 18.899C13.2808 19.2106 13.2615 19.6057 13.2692 20.0009C13.2731 20.3771 13.4895 20.5556 13.876 20.5632C14.1272 20.567 14.3243 20.4569 14.5137 20.3163C14.5562 20.2859 14.5987 20.2403 14.6528 20.2707C14.7108 20.3011 14.6837 20.3619 14.6799 20.4113C14.6644 20.5708 14.6026 20.7152 14.5137 20.8444C14.1349 21.3954 13.5977 21.7221 12.9407 21.8361C12.4499 21.9197 12.1407 21.6727 12.0788 21.1902C12.044 20.9052 12.0247 20.6164 11.9861 20.3277C11.9745 20.2441 11.9436 20.1377 11.8392 20.1263C11.7271 20.1149 11.7039 20.2137 11.673 20.3011C11.5416 20.662 11.4759 21.0306 11.4914 21.4144C11.5262 22.1325 11.9822 22.6454 12.7011 22.7556C13.1649 22.8278 13.5823 22.6948 13.9649 22.4479C14.5639 22.0603 14.8886 21.4866 15.0702 20.8216C15.1205 20.643 15.1437 20.4569 15.19 20.2783C15.2094 20.2023 15.2635 20.1111 15.3601 20.1301C15.4451 20.1491 15.4374 20.2441 15.4335 20.3201C15.3987 20.8976 15.2867 21.4562 14.9736 21.9539C14.4364 22.805 13.6557 23.2344 12.6276 23.185C11.8856 23.147 11.5146 22.7898 11.4527 22.0679C11.4373 21.8817 11.4295 21.6955 11.3986 21.5131C11.3793 21.403 11.3754 21.2434 11.2324 21.2282C11.0856 21.213 11.0585 21.3688 11.0121 21.4714C10.9851 21.5321 10.9696 21.6005 10.9619 21.6651C10.9078 21.9881 10.8923 22.3149 10.9116 22.6416C10.9542 23.3864 11.4373 23.9449 12.1948 24.0285C13.5513 24.1767 14.6451 23.6561 15.4876 22.634C16.0403 21.9653 16.0519 21.156 15.9669 20.3429C15.9553 20.2213 15.9321 20.0997 15.9592 19.9401C16.3456 20.2517 16.7089 20.1795 17.0336 19.8983C17.1766 19.7767 17.2771 19.7539 17.4471 19.8527C17.8104 20.0579 18.2935 19.8869 18.3747 19.5297C18.452 19.184 18.4829 18.8268 18.5061 18.4697C18.5138 18.3671 18.4713 18.3633 18.3863 18.3785C18.1312 18.4279 17.9959 18.5722 17.9921 18.8344C17.9921 18.9066 17.9805 18.9864 17.8761 18.9978C17.7795 19.0092 17.737 18.9522 17.7177 18.8724C17.679 18.728 17.621 18.5912 17.4549 18.5722C17.2693 18.5532 17.1766 18.6938 17.0916 18.8306C17.0645 18.8762 17.0413 18.9218 17.022 18.9712C16.9563 19.1536 16.8094 19.1878 16.6394 19.1764C16.4461 19.1612 16.4848 19.013 16.477 18.8914C16.4616 18.6444 16.3534 18.576 16.1176 18.6558C16.0635 18.6748 16.0094 18.6976 15.9437 18.7242C15.8316 17.8959 15.7273 17.079 15.6113 16.2659C15.5881 16.1063 15.5881 16.0341 15.7891 16.0759C15.8973 16.0987 16.0596 16.0911 15.9939 15.8935C15.8548 15.4642 15.7157 15.031 15.4954 14.632C15.3485 14.3661 15.2055 14.3357 14.9427 14.4991C14.7765 14.6016 14.7185 14.7574 14.7417 14.9398C14.7804 15.2476 14.8306 15.5553 14.8731 15.8631C14.7958 15.8479 14.7997 15.7757 14.7804 15.7225C14.6837 15.4642 14.5485 15.2438 14.3011 15.0994C14.077 14.9702 13.8721 15.0348 13.7678 15.2704C13.7137 15.392 13.7175 15.5173 13.7369 15.6427C13.7832 15.9809 13.9185 16.2849 14.1156 16.5622C14.2393 16.737 14.3011 16.9308 14.3243 17.1398C14.332 17.2234 14.3668 17.3298 14.2625 17.3792C14.1697 17.421 14.0692 17.4172 13.9803 17.3602C13.8567 17.2728 13.7446 17.174 13.6209 17.0904C13.4431 16.9688 13.3852 16.8282 13.4238 16.6002C13.5127 16.1139 13.3852 15.6617 13.0837 15.259C13.0219 15.1754 12.9523 15.1146 12.8402 15.126C12.732 15.1374 12.6933 15.221 12.6663 15.3084C12.6508 15.3578 12.6354 15.4072 12.6238 15.4566C12.5272 15.9885 12.6508 16.4863 12.8982 16.9574C12.9484 17.0524 12.9716 17.155 12.8595 17.2044C12.7474 17.25 12.6972 17.1436 12.6663 17.0676C12.5929 16.8966 12.5658 16.7104 12.5426 16.528C12.4808 16.0493 12.504 15.5629 12.4073 15.088C12.3687 14.8942 12.3378 14.6928 12.2064 14.5294C12.1368 14.4459 12.0634 14.3737 11.9397 14.4117C11.816 14.4497 11.758 14.537 11.758 14.6624C11.758 14.8562 11.7465 15.05 11.758 15.24C11.7928 15.7947 11.9822 16.3267 12.0286 16.8814C12.044 17.06 12.0711 17.2348 12.0402 17.4134C12.0286 17.4818 11.9977 17.5463 11.9242 17.5615C11.8585 17.5729 11.8122 17.5273 11.7735 17.478C11.6614 17.3374 11.6266 17.1816 11.6576 16.9992C11.7271 16.5964 11.7349 16.1861 11.6576 15.7833C11.6305 15.6389 11.5841 15.4832 11.4025 15.4528C11.2324 15.4262 11.1165 15.5249 11.0199 15.6465C10.8227 15.8897 10.7184 16.1747 10.6604 16.4749C10.6063 16.7522 10.5561 17.0296 10.4904 17.3032C10.471 17.383 10.4401 17.4894 10.328 17.497C10.2121 17.5045 10.1812 17.402 10.1503 17.3222C10.1039 17.2044 10.073 17.0828 10.0459 16.9612C9.96475 16.6078 9.89132 16.2507 9.80629 15.8973C9.79083 15.8403 9.76764 15.7491 9.68262 15.7567C9.59372 15.7681 9.61305 15.8593 9.60918 15.9201C9.58213 16.3647 9.56667 16.8092 9.60918 17.2538C9.63624 17.5577 9.69034 17.8579 9.86426 18.1201C9.98794 18.3063 10.1541 18.4203 10.3937 18.3861C10.6372 18.3519 10.73 18.1847 10.7802 17.9795C10.8575 17.6755 10.8498 17.3602 10.8614 17.0524C10.8653 16.9042 10.873 16.7522 10.9503 16.623C10.9889 16.5584 11.016 16.4445 11.1165 16.4749C11.2015 16.4977 11.1783 16.6002 11.1783 16.6724C11.1783 17.117 11.1745 17.5615 11.1783 18.0099C11.186 18.3899 11.4489 18.6406 11.8353 18.652C12.0943 18.6596 12.2025 18.7622 12.2141 19.0206C12.245 19.7159 12.2759 20.4151 12.3107 21.1104C12.3107 21.1636 12.2798 21.2396 12.3532 21.27C12.4228 21.3004 12.4885 21.2586 12.5426 21.2206C12.6972 21.1066 12.7629 20.9432 12.8093 20.7684C12.9523 20.2061 12.9175 19.6361 12.875 19.0662C12.8557 18.8154 12.8247 18.5646 12.817 18.3139C12.817 18.1999 12.8247 18.0631 12.9562 18.0099C13.0798 17.9567 13.1919 18.0175 13.2885 18.0897C13.3426 18.1315 13.3967 18.1733 13.447 18.2151C13.6093 18.3519 13.7948 18.3785 13.9958 18.3177C14.1543 18.2721 14.3089 18.2151 14.4519 18.1277C14.7726 17.9339 14.9118 17.6679 14.8693 17.288C14.819 16.8358 14.6837 16.4103 14.5407 15.9429C14.7031 16.0417 14.7881 15.9695 14.8654 15.8707L14.8693 15.8555ZM33.6718 15.1678C33.3897 14.8486 33.0998 14.537 32.752 14.2825C32.6708 14.2217 32.5819 14.1685 32.5626 14.3205C32.493 14.86 32.4351 15.3882 32.8641 15.8517C33.266 16.2925 33.6138 16.7826 33.9887 17.2462C34.0699 17.345 34.1008 17.4438 34.1085 17.5691C34.1588 18.4811 34.2129 19.393 34.2747 20.3011C34.3095 20.7988 34.3057 21.2928 34.1472 21.7753C34.097 21.9235 34.0544 22.0755 33.8573 22.1059C33.668 22.1363 33.5597 22.0299 33.4631 21.9007C33.3317 21.7259 33.2158 21.5473 33.0844 21.3726C32.9182 21.1484 32.7172 21.1294 32.5085 21.3194C32.3616 21.4524 32.2457 21.6081 32.1645 21.7829C31.9751 22.1781 31.8012 22.5808 31.608 22.9722C31.4573 23.28 31.1828 23.2952 30.978 23.014C30.8389 22.824 30.7616 22.6112 30.7036 22.3833C30.6224 22.0679 30.6495 21.7449 30.6572 21.3992C29.9925 22.1857 30.3983 23.7017 31.3374 24.0513C31.5345 24.1273 31.7046 24.0741 31.8553 23.9335C32.0293 23.7663 32.0988 23.5459 32.1607 23.3256C32.238 23.0634 32.2495 22.7822 32.381 22.5352C32.5201 22.2731 32.7211 22.2351 32.9104 22.4593C33.0844 22.6644 33.3085 22.7974 33.5288 22.938C33.7221 23.0596 33.9385 23.0786 34.1588 22.995C34.4487 22.8848 34.6767 22.7024 34.8313 22.4289C35.0052 22.1211 34.9936 21.7829 35.0052 21.4524C35.0322 20.5708 35.0013 19.6855 34.9743 18.804C34.9743 18.7394 34.9434 18.6634 35.0052 18.5912C35.2062 18.8762 35.3955 19.1498 35.5927 19.4234C35.6352 19.4804 35.6506 19.5411 35.6545 19.6095C35.7395 20.5252 35.782 21.4448 35.7627 22.3643C35.7627 22.4213 35.7357 22.482 35.7936 22.5428C36.4236 22.1135 36.5086 21.479 36.4391 20.7798C36.4622 20.7836 36.4816 20.7912 36.5048 20.795C36.814 21.308 37.127 21.8171 37.4362 22.3301C37.5869 21.8551 37.6449 21.384 37.3975 20.9508C37.1347 20.4949 36.8178 20.0693 36.5125 19.6361C36.4043 19.4842 36.3463 19.3322 36.327 19.146C36.2845 18.747 36.2304 18.3519 36.1647 17.9567C36.0758 17.3868 35.9714 16.8168 35.8787 16.2469C35.8632 16.1481 35.8361 16.0379 36.0101 16.0265C36.1376 16.0189 36.1608 15.9163 36.1337 15.8099C36.0023 15.2818 35.8014 14.7802 35.527 14.3091C35.4458 14.1685 35.3414 14.1723 35.2294 14.2597C35.0284 14.4193 34.9279 14.6168 34.955 14.879C34.9975 15.316 35.1057 15.7415 35.1752 16.1709C35.2757 16.7978 35.3801 17.4286 35.4883 18.0859C34.8235 17.4248 34.5569 16.737 34.5839 15.8061C34.6767 15.7719 34.7578 15.9467 34.8467 15.8289C34.9356 15.7111 34.8583 15.6047 34.8004 15.5021C34.6071 15.1526 34.4139 14.7992 34.2168 14.4497C34.1627 14.3509 34.1356 14.1837 33.9926 14.2027C33.8419 14.2217 33.7762 14.3737 33.7221 14.5028C33.6989 14.5636 33.695 14.632 33.6989 14.7004C33.7066 14.8486 33.7221 14.9968 33.7337 15.145C33.7143 15.145 33.6989 15.1488 33.6796 15.1526L33.6718 15.1678ZM23.7391 20.3543C23.7971 20.2669 23.8821 20.2821 23.9517 20.2707C24.3459 20.2023 24.7401 20.1301 25.088 19.9211C25.5401 19.6475 25.7643 19.2562 25.7179 18.728C25.6754 18.2265 25.2541 17.8427 24.7517 17.8427C24.3304 17.8427 23.9285 18.2873 23.9092 18.7698C23.9053 18.9104 23.9014 19.051 23.9092 19.1916C23.9169 19.3474 23.8473 19.4158 23.685 19.4348C23.1671 19.4918 22.6879 19.6665 22.2473 19.9325C21.9806 20.0921 21.7333 20.2745 21.6289 20.586C21.4743 20.5252 21.4704 20.3999 21.4589 20.2707C21.4086 19.5069 21.1999 18.785 20.8366 18.1049C20.7825 18.0023 20.7052 17.9263 20.624 17.8465C20.5506 17.7743 20.4965 17.7819 20.4153 17.8503C20.1834 18.0517 20.1177 18.3025 20.2221 18.614C20.4115 19.184 20.7052 19.7159 20.8057 20.3163C20.8984 20.8558 20.9332 21.3688 20.5545 21.8399C20.1873 22.2997 19.7815 22.71 19.2713 23.014C19.0588 23.1394 18.8346 23.1622 18.595 23.1356C18.4056 23.1128 18.3129 22.9836 18.2626 22.8164C18.2085 22.6454 18.3631 22.615 18.452 22.558C19.0626 22.1781 19.5805 21.7145 19.8974 21.0648C20.0482 20.757 20.1177 20.4417 20.0675 20.0959C20.0173 19.7691 19.94 19.4538 19.7351 19.146C19.824 19.1612 19.8704 19.165 19.909 19.1802C20.0907 19.2486 20.1061 19.1802 20.0559 19.0282C19.9554 18.7432 19.824 18.4773 19.5883 18.2797C19.31 18.0441 18.9274 18.1505 18.8462 18.5038C18.7728 18.8306 18.7805 19.1536 19.0781 19.4006C19.2018 19.4994 19.2945 19.6247 19.3718 19.7653C19.5805 20.1339 19.5496 20.4531 19.252 20.7608C19.0704 20.947 18.8694 21.1218 18.6684 21.289C18.5061 21.4258 18.3554 21.5739 18.1583 21.6765C18.1003 21.4296 18.2046 21.2016 18.1737 20.9546C17.9689 21.1142 17.8413 21.308 17.8182 21.5131C17.7524 22.0375 17.4007 22.2959 16.9756 22.5162C16.736 22.6416 16.508 22.786 16.2761 22.9266C15.9244 23.1432 15.5688 23.356 15.2635 23.6333C15.1784 23.7131 14.9891 23.7891 15.0625 23.9107C15.1166 24.0095 15.2983 23.9373 15.4219 23.9069C16.0944 23.7321 16.7321 23.47 17.3698 23.204C17.4742 23.1584 17.5476 23.1394 17.5824 23.2838C17.7293 23.8955 18.6336 24.2603 19.2791 23.9639C19.8356 23.7093 20.2801 23.337 20.6704 22.8886C20.8018 22.7366 20.9216 22.5732 21.0569 22.4213C21.2038 22.2541 21.2888 22.2617 21.3931 22.4517C21.5903 22.8088 21.8879 23.0672 22.2396 23.2686C22.7459 23.5573 23.2985 23.6789 23.8705 23.7511C24.1101 23.7815 24.1874 23.6599 24.2454 23.4928C24.3073 23.3142 24.2454 23.1774 24.0599 23.0938C23.8744 23.0102 23.6889 22.9266 23.5266 22.8012C23.2908 22.6188 23.2869 22.4137 23.4995 22.2009C23.6966 22.0033 23.9517 22.0185 24.1913 21.9843C24.8251 21.8969 25.459 21.7981 26.0774 21.6271C26.2088 21.5891 26.2822 21.5473 26.3093 21.3878C26.3634 21.0762 26.4793 20.776 26.6996 20.5366C26.6146 20.4417 26.5102 20.4417 26.402 20.4379C25.5943 20.4379 24.7865 20.4341 23.9787 20.4265C23.8937 20.4265 23.7932 20.4607 23.7237 20.3619L23.7391 20.3543ZM30.978 31.9127C25.1034 31.8519 19.2636 31.8899 13.3967 31.7303C13.7059 32.1597 14.0808 32.4295 14.5485 32.5852C15.0741 32.76 15.6152 32.7828 16.1563 32.7828C20.9951 32.7752 25.8339 32.7676 30.6688 32.7562C30.7538 32.7562 30.8389 32.7562 30.9355 32.7562C30.8311 33.0868 30.8659 33.3756 31.0205 33.6453C31.1249 33.8277 31.2872 33.8543 31.4186 33.7023C31.4959 33.6149 31.5693 33.6035 31.6737 33.6073C32.3075 33.6377 32.9414 33.6605 33.5752 33.6073C33.6525 33.5997 33.695 33.6301 33.7453 33.6833C34.0235 33.9911 34.5607 33.8733 34.6767 33.4668C34.8042 33.0146 34.7231 32.5852 34.468 32.1901C34.3404 31.9925 34.1395 31.8861 33.9076 31.9279C33.0844 32.0761 32.2689 31.8823 31.4341 31.9051C31.4457 31.8595 31.4572 31.8329 31.4611 31.8063C31.5152 31.6049 31.6196 31.3884 31.2833 31.3238C31.2524 31.3162 31.2215 31.2592 31.2138 31.2174C31.1906 31.0882 31.1171 31.1148 31.0321 31.1528C30.7616 31.282 30.7307 31.5517 30.978 31.9089V31.9127ZM27.9441 24.1615C27.9673 24.1577 28.0484 24.1463 28.1296 24.1273C29.0108 23.9107 30.0118 22.6682 30.0427 21.6955C30.093 20.2023 30.0118 18.7166 29.7722 17.2386C29.7142 16.889 29.606 16.5432 29.606 16.1861C29.606 16.1063 29.5712 15.9885 29.7026 15.9657C29.9616 15.9239 29.919 15.7567 29.8688 15.5971C29.749 15.1906 29.5557 14.8144 29.347 14.4459C29.2504 14.2749 29.2002 14.3319 29.1306 14.4573C28.918 14.8486 28.8485 15.2628 28.9064 15.7035C28.9644 16.1367 29.0263 16.5698 29.0688 17.0068C29.177 18.0897 29.2775 19.1764 29.3741 20.2631C29.4166 20.7418 29.4553 21.2244 29.4862 21.7031C29.4978 21.8817 29.4746 22.0603 29.3393 22.2009C28.8098 22.7442 28.234 23.2306 27.5421 23.5649C27.233 23.7169 27.2214 23.8271 27.5112 24.0361C27.6233 24.1159 27.7431 24.1729 27.948 24.1615H27.9441ZM31.0051 22.6834C31.1558 22.6568 31.2215 22.5618 31.2795 22.4707C31.4688 22.1629 31.5964 21.8323 31.608 21.4676C31.6234 20.9166 31.5577 20.3733 31.492 19.8261C31.349 18.6254 31.1983 17.4286 30.9819 16.2393C30.951 16.0645 30.9664 15.9201 31.2138 15.9581C31.3722 15.9809 31.3761 15.8859 31.3258 15.7833C31.2563 15.6427 31.179 15.5097 31.0978 15.373C30.92 15.0728 30.7191 14.784 30.5683 14.4687C30.5374 14.4003 30.5336 14.2749 30.4447 14.2825C30.3596 14.2901 30.3171 14.3927 30.2901 14.4801C30.1277 15.0044 30.0698 15.5287 30.1818 16.0797C30.6186 18.2531 31.0746 20.4265 31.0128 22.6796L31.0051 22.6834ZM16.1949 16.908C16.4152 16.908 16.5891 16.8966 16.7592 16.908C17.0297 16.9308 17.2346 16.8282 17.4201 16.6458C17.7911 16.2849 18.1389 15.9049 18.4906 15.5325C18.5757 15.4414 18.5641 15.3882 18.4674 15.3274C18.3438 15.2476 18.336 15.1716 18.4559 15.0652C18.6491 14.8866 18.6452 14.575 18.4674 14.4079C18.3051 14.2597 17.8877 14.2863 17.7409 14.4573C17.5437 14.6852 17.5669 14.9854 17.795 15.1564C17.9882 15.3046 17.9959 15.354 17.822 15.5173C17.4201 15.8973 16.964 16.2165 16.535 16.566C16.4268 16.6534 16.307 16.7294 16.1949 16.9042V16.908ZM33.3897 17.3754C33.3665 17.2728 33.351 17.1702 33.324 17.0714C33.2505 16.832 33.0921 16.7218 32.8988 16.7674C32.7056 16.813 32.6206 16.9726 32.6592 17.2234C32.6708 17.2956 32.7056 17.383 32.6167 17.4172C32.5162 17.459 32.4467 17.4058 32.4041 17.307C32.3307 17.136 32.2032 17.1322 32.0486 17.2006C31.8592 17.2842 31.7896 17.5843 31.9288 17.7971C32.1452 18.1163 32.4273 18.3709 32.7674 18.5608C32.9104 18.6406 32.9916 18.6444 32.9955 18.4431C32.9955 18.1847 33.0187 17.9263 33.0418 17.6679C33.0534 17.5425 33.1037 17.4476 33.2621 17.5008C33.4013 17.5463 33.3974 17.4666 33.3897 17.3754ZM9.74059 20.548C10.502 20.1871 11.2479 19.8337 11.9938 19.488C12.1136 19.431 12.1213 19.3778 12.075 19.2752C11.9861 19.07 11.7735 18.975 11.4605 19.0548C10.7416 19.2372 10.1966 19.6589 9.81015 20.2783C9.76378 20.3505 9.72126 20.4303 9.73672 20.548H9.74059ZM9.91837 21.5549C9.67875 21.8551 9.57053 22.1363 9.4971 22.4327C9.40048 22.8316 9.35024 23.2344 9.48164 23.6371C9.55121 23.8537 9.72513 23.9525 9.94156 23.9715C10.1387 23.9905 10.2353 23.8461 10.3126 23.6979C10.3937 23.5459 10.4285 23.3788 10.4363 23.2078C10.4363 23.1014 10.4169 22.9912 10.2971 22.9532C10.1812 22.919 10.1503 23.0292 10.1039 23.0976C10.0691 23.147 10.042 23.2154 9.97634 23.204C9.89518 23.1926 9.87972 23.109 9.87586 23.0482C9.8604 22.862 9.84494 22.6796 9.85267 22.4935C9.86426 22.2009 9.89518 21.9083 9.92224 21.5511L9.91837 21.5549ZM33.8844 18.8534C33.8689 18.8002 33.9153 18.6824 33.8148 18.6444C33.7298 18.6102 33.6718 18.7052 33.6061 18.7508C33.2003 19.032 32.8022 19.3284 32.3925 19.6019C32.2341 19.7083 32.18 19.8375 32.1954 20.0161C32.2109 20.2251 32.2534 20.2517 32.4467 20.1453C32.8873 19.9021 33.3008 19.6209 33.6989 19.3056C33.8419 19.1916 33.9076 19.0548 33.8883 18.8496L33.8844 18.8534ZM25.2155 23.4092C25.2078 23.6219 25.3121 23.6903 25.5788 23.5877C25.8455 23.4852 26.1044 23.3674 26.3866 23.3104C26.4909 23.2876 26.5527 23.2382 26.5296 23.128C26.5102 23.0254 26.4445 22.976 26.3402 22.9836C26.1508 22.995 25.9653 23.014 25.7991 23.1204C25.7295 23.166 25.6561 23.223 25.5749 23.1584C25.4976 23.0976 25.486 23.0064 25.5015 22.9152C25.5131 22.8506 25.5363 22.786 25.5479 22.7214C25.5749 22.5732 25.4706 22.4707 25.3314 22.5238C25.1266 22.6036 24.9681 22.7594 24.829 22.9266C24.7904 22.9722 24.802 23.0406 24.8406 23.0938C24.8715 23.1356 24.9179 23.1432 24.9604 23.128C25.2039 23.0254 25.2348 23.1622 25.2155 23.413V23.4092ZM33.552 21.0534C33.552 21.1104 33.552 21.1864 33.552 21.2586C33.552 21.308 33.5404 21.3688 33.5984 21.3954C33.668 21.4258 33.7105 21.3764 33.7491 21.3308C33.7839 21.2928 33.8148 21.2472 33.838 21.2016C34.0544 20.7076 33.9578 20.2327 33.7182 19.7729C33.6718 19.6817 33.5829 19.6361 33.467 19.6817C33.3549 19.7273 33.3008 19.8071 33.3008 19.9211C33.3008 20.1111 33.3665 20.2821 33.4361 20.4531C33.5134 20.6392 33.5945 20.8254 33.5443 21.0496L33.552 21.0534ZM22.769 19.0016C23.2367 19.0016 23.3797 18.8306 23.3024 18.3633C23.2869 18.2797 23.2676 18.1923 23.1633 18.1923C23.0628 18.1923 23.0241 18.2645 23.0048 18.3519C22.9932 18.3975 23.0241 18.4735 22.9507 18.4773C22.8773 18.4773 22.8657 18.4089 22.8579 18.3481C22.8502 18.2873 22.827 18.2303 22.7536 18.2227C22.6724 18.2189 22.6686 18.2911 22.6492 18.3443C22.6338 18.3823 22.6415 18.4393 22.5835 18.4469C22.5178 18.4545 22.4908 18.4051 22.4792 18.3519C22.4637 18.2759 22.4483 18.1999 22.3439 18.2189C22.2434 18.2341 22.2202 18.3139 22.2048 18.3975C22.1352 18.7812 22.3439 19.0016 22.7729 18.9978L22.769 19.0016ZM28.1567 17.3982C28.5779 17.4096 28.7905 17.1854 28.7364 16.7788C28.7248 16.6876 28.7132 16.5888 28.5934 16.5888C28.4968 16.5888 28.4581 16.6648 28.4388 16.7522C28.4272 16.7978 28.462 16.87 28.3808 16.8738C28.319 16.8738 28.2997 16.8206 28.2958 16.7636C28.2881 16.6952 28.2687 16.6268 28.1837 16.623C28.1026 16.6192 28.0987 16.6914 28.0794 16.7484C28.0639 16.7902 28.0678 16.8434 28.0098 16.8472C27.9441 16.8548 27.917 16.8016 27.9054 16.7522C27.8861 16.6762 27.8784 16.6002 27.7702 16.6192C27.6697 16.6382 27.6465 16.718 27.631 16.7978C27.5653 17.1626 27.7624 17.3906 28.1528 17.402L28.1567 17.3982ZM13.4354 15.1222C13.8335 15.1222 14.0113 14.917 13.9765 14.5066C13.9687 14.4193 13.9572 14.3319 13.8567 14.3167C13.7446 14.2977 13.7021 14.3813 13.6789 14.4763C13.6673 14.5218 13.6982 14.594 13.6132 14.594C13.5513 14.594 13.5359 14.5294 13.5282 14.4801C13.5204 14.4193 13.5011 14.3585 13.4277 14.3509C13.3272 14.3395 13.3388 14.4269 13.3156 14.4839C13.3001 14.5256 13.2885 14.575 13.2344 14.5712C13.1842 14.5712 13.161 14.5294 13.1494 14.4839C13.1339 14.4117 13.1185 14.3243 13.018 14.3357C12.9098 14.3509 12.8827 14.4345 12.8711 14.5294C12.8247 14.9208 13.0141 15.1222 13.4315 15.1222H13.4354ZM28.4272 15.2324C28.3963 14.9588 28.319 14.708 28.1296 14.5028C28.0098 14.3775 27.8668 14.3547 27.7238 14.4535C27.5808 14.5522 27.6388 14.689 27.6851 14.8106C27.7006 14.8524 27.7277 14.8904 27.7586 14.9208C27.9982 15.202 28.1798 15.4984 28.0639 15.8897C28.0523 15.9353 28.0368 16.0037 28.1103 16.0151C28.1721 16.0265 28.1992 15.9695 28.2262 15.9239C28.346 15.7073 28.4001 15.4718 28.4272 15.2286V15.2324ZM36.497 16.6914C36.497 16.7522 36.497 16.775 36.497 16.7978C36.5009 16.8624 36.4777 16.9498 36.5627 16.965C36.6284 16.9764 36.6555 16.9004 36.6748 16.8434C36.7212 16.718 36.7676 16.5926 36.7985 16.4635C36.8913 16.0683 36.7869 15.7035 36.5937 15.3578C36.528 15.24 36.4275 15.164 36.2767 15.2248C36.1299 15.2856 36.1144 15.4072 36.1376 15.5401C36.1531 15.6465 36.211 15.7339 36.269 15.8175C36.4622 16.0949 36.6168 16.3761 36.5009 16.6876L36.497 16.6914ZM18.4288 17.2044C18.2935 17.1816 18.2394 17.2614 18.166 17.307C18.0153 17.402 17.9302 17.364 17.9109 17.1892C17.8954 17.0714 17.9148 16.9574 17.9534 16.8434C17.9843 16.7522 17.9612 16.68 17.8336 16.7028C17.5785 16.7484 17.3853 17.1322 17.4664 17.4476C17.5283 17.6983 17.7872 17.8275 18.0578 17.7287C18.2897 17.6413 18.3554 17.4248 18.4327 17.212L18.4288 17.2044ZM10.5406 15.2628C10.5406 15.3388 10.5367 15.4072 10.5406 15.4718C10.5445 15.5059 10.5638 15.5477 10.5909 15.5629C10.6256 15.5819 10.6566 15.5477 10.6836 15.5211C10.9116 15.278 10.9194 14.6282 10.6991 14.3737C10.5715 14.2255 10.3706 14.1799 10.2623 14.2863C10.1309 14.4117 10.2005 14.5408 10.2855 14.6624C10.3242 14.7156 10.3551 14.7764 10.3976 14.8258C10.5097 14.9588 10.5638 15.1032 10.5329 15.2666L10.5406 15.2628ZM21.4357 15.0082C21.4511 15.1222 21.3506 15.2894 21.5323 15.3312C21.7178 15.373 21.7603 15.202 21.8067 15.069C21.8917 14.8296 21.9536 14.5864 21.9536 14.3319C21.9536 14.2179 21.942 14.0887 21.8067 14.0621C21.6869 14.0393 21.6289 14.1571 21.5825 14.2483C21.4666 14.4877 21.4666 14.7498 21.4318 15.0044L21.4357 15.0082ZM17.5128 21.118C17.4896 20.9014 17.4239 20.7 17.2848 20.5252C17.1727 20.3885 17.022 20.3467 16.8906 20.4569C16.7476 20.5746 16.8519 20.7 16.9563 20.795C17.1573 20.9736 17.25 21.1826 17.1959 21.4486C17.1882 21.4904 17.192 21.5359 17.1882 21.5815C17.1882 21.6271 17.1882 21.6803 17.2384 21.6917C17.2887 21.7031 17.3196 21.6575 17.3428 21.6195C17.4355 21.4638 17.4896 21.2966 17.509 21.118H17.5128ZM19.4105 14.8182C19.395 14.9816 19.48 15.0956 19.6462 15.1298C19.7892 15.1602 20.0018 14.9854 20.0289 14.841C20.0443 14.765 20.0134 14.7574 19.9477 14.7536C19.7699 14.7422 19.7119 14.6244 19.8047 14.4611C19.8588 14.3737 19.9322 14.2977 20.0018 14.2179C20.0598 14.1533 20.0752 14.0735 20.025 14.0165C19.9593 13.9443 19.882 14.0051 19.8279 14.0507C19.5767 14.2407 19.4259 14.4877 19.4105 14.8182Z" fill="#006C35"/>
<path d="M23.7389 20.3543C23.8085 20.4493 23.909 20.4151 23.994 20.4189C24.8018 20.4265 25.6095 20.4265 26.4173 20.4303C26.5255 20.4303 26.6299 20.4303 26.7149 20.5291C26.4946 20.7722 26.3748 21.0686 26.3245 21.3802C26.2975 21.5398 26.2241 21.5854 26.0927 21.6196C25.4743 21.7905 24.8443 21.8931 24.2066 21.9767C23.9631 22.0109 23.708 21.9957 23.5148 22.1933C23.3022 22.4061 23.3061 22.6113 23.5418 22.7936C23.7042 22.919 23.8897 23.0026 24.0752 23.0862C24.2568 23.1698 24.3225 23.3066 24.2607 23.4852C24.2027 23.6486 24.1254 23.7739 23.8858 23.7435C23.3099 23.6713 22.7573 23.5498 22.2548 23.261C21.9031 23.0596 21.6094 22.8012 21.4084 22.4441C21.3041 22.2541 21.2191 22.2465 21.0722 22.4137C20.9408 22.5657 20.8171 22.7252 20.6857 22.881C20.2954 23.3294 19.847 23.7055 19.2944 23.9563C18.6489 24.2527 17.7484 23.8879 17.5977 23.2762C17.5629 23.1356 17.4895 23.1546 17.3851 23.1964C16.7474 23.4624 16.1097 23.7245 15.4372 23.8993C15.3135 23.9297 15.1358 24.0019 15.0778 23.9031C15.0082 23.7777 15.1937 23.7055 15.2788 23.6258C15.5841 23.3446 15.9397 23.1318 16.2914 22.919C16.5233 22.7784 16.7513 22.6341 16.9909 22.5087C17.416 22.2883 17.7677 22.0299 17.8334 21.5056C17.8605 21.2966 17.988 21.1066 18.189 20.947C18.2199 21.194 18.1117 21.422 18.1735 21.6689C18.3707 21.5702 18.5214 21.4182 18.6837 21.2814C18.8847 21.1142 19.0818 20.9394 19.2673 20.7532C19.5649 20.4493 19.5958 20.1263 19.3871 19.7577C19.3098 19.621 19.2132 19.4956 19.0934 19.393C18.7919 19.1498 18.7842 18.823 18.8615 18.4963C18.9427 18.1429 19.3253 18.0365 19.6035 18.2721C19.8393 18.4735 19.9707 18.7356 20.0712 19.0206C20.1253 19.1688 20.106 19.241 19.9243 19.1726C19.8818 19.1574 19.8393 19.1536 19.7504 19.1384C19.9591 19.45 20.0325 19.7653 20.0828 20.0883C20.1369 20.4341 20.0635 20.7494 19.9127 21.0572C19.5958 21.7107 19.0741 22.1705 18.4673 22.5505C18.3745 22.6075 18.2238 22.6379 18.2779 22.8088C18.332 22.976 18.4209 23.1052 18.6103 23.128C18.846 23.1584 19.0741 23.1356 19.2866 23.0064C19.7968 22.7024 20.2026 22.2921 20.5698 21.8323C20.9485 21.3612 20.9099 20.8444 20.821 20.3087C20.7205 19.7083 20.4268 19.1764 20.2374 18.6065C20.133 18.2911 20.1987 18.0403 20.4306 17.8427C20.5118 17.7743 20.5659 17.7667 20.6393 17.8389C20.7205 17.9149 20.7939 17.9947 20.8519 18.0973C21.2191 18.7736 21.4239 19.4956 21.4741 20.2631C21.4819 20.3923 21.4857 20.5139 21.6442 20.5785C21.7485 20.2669 21.9959 20.0845 22.2626 19.9249C22.707 19.6589 23.1863 19.488 23.7003 19.4272C23.8588 19.4082 23.9283 19.3436 23.9245 19.184C23.9167 19.0434 23.9206 18.9028 23.9245 18.7622C23.9438 18.2797 24.3457 17.8351 24.767 17.8351C25.2694 17.8351 25.6907 18.2189 25.7332 18.7204C25.7796 19.2486 25.5554 19.64 25.1032 19.9135C24.7554 20.1225 24.3612 20.1947 23.967 20.2631C23.8974 20.2745 23.8124 20.2593 23.7544 20.3467L23.7389 20.3543ZM22.0268 21.0724C21.7717 21.061 21.6481 21.213 21.6983 21.4638C21.7872 21.9235 22.0848 22.2389 22.4713 22.4783C22.5447 22.5239 22.6297 22.5923 22.7186 22.5467C22.8152 22.4935 22.7766 22.3871 22.7727 22.3035C22.7495 21.8589 22.8191 21.7563 23.2481 21.5968C23.2906 21.5816 23.3331 21.5702 23.3718 21.5474C23.5264 21.4638 23.5341 21.3574 23.3872 21.2662C23.3254 21.2282 23.2481 21.2092 23.1747 21.1978C22.7882 21.1522 22.394 21.1484 22.0268 21.0686V21.0724ZM24.7515 19.1308C24.8211 19.1232 24.8984 19.146 24.9139 19.051C24.9293 18.9522 24.7554 18.7926 24.6047 18.7774C24.5235 18.7698 24.4346 18.7774 24.4501 18.88C24.4771 19.0396 24.6124 19.0928 24.7477 19.1308H24.7515Z" fill="#FBFCFB"/>
<path d="M30.9777 31.9127C30.7304 31.5556 30.7613 31.2858 31.0319 31.1566C31.113 31.1186 31.1864 31.092 31.2135 31.2212C31.2212 31.2592 31.2522 31.32 31.2831 31.3276C31.6193 31.3922 31.515 31.6088 31.4609 31.8101C31.4531 31.8367 31.4454 31.8633 31.4338 31.9089C32.2686 31.8861 33.0841 32.0799 33.9073 31.9317C34.1392 31.8899 34.3402 31.9963 34.4677 32.1939C34.7267 32.5891 34.804 33.0184 34.6764 33.4706C34.5605 33.8771 34.0233 33.9949 33.745 33.6871C33.6947 33.634 33.6561 33.6036 33.5749 33.6112C32.9411 33.6606 32.3073 33.6378 31.6734 33.6112C31.5729 33.6074 31.4956 33.6188 31.4183 33.7061C31.2831 33.8619 31.1207 33.8315 31.0203 33.6492C30.8657 33.3794 30.8309 33.0906 30.9352 32.76C30.8386 32.76 30.7536 32.76 30.6686 32.76C25.8297 32.7676 20.9909 32.779 16.156 32.7866C15.6149 32.7866 15.07 32.7638 14.5482 32.5891C14.0806 32.4333 13.7057 32.1673 13.3965 31.7341C19.2633 31.8975 25.1032 31.8557 30.9777 31.9165V31.9127ZM32.516 32.8626V32.836C32.2145 32.836 31.913 32.8436 31.6116 32.836C31.484 32.836 31.4029 32.8664 31.399 32.9994C31.399 33.1248 31.4377 33.2122 31.5961 33.2046C31.7005 33.197 31.8048 33.216 31.913 33.2198C32.1024 33.2274 32.2918 33.2654 32.458 33.1058C32.543 33.0222 32.7169 33.0184 32.7981 33.0906C32.9797 33.2502 33.1884 33.197 33.3894 33.2198C33.5247 33.235 33.6097 33.2008 33.6213 33.0564C33.6329 32.9044 33.5479 32.8664 33.4165 32.8702C33.115 32.8702 32.8136 32.8702 32.5121 32.8702L32.516 32.8626Z" fill="#FBFCFB"/>
<path d="M33.7256 15.1602C33.714 15.012 33.6986 14.8638 33.6908 14.7156C33.6908 14.651 33.6908 14.5788 33.714 14.518C33.7681 14.3888 33.8377 14.2369 33.9846 14.2179C34.1276 14.1989 34.1546 14.366 34.2087 14.4648C34.4058 14.8144 34.5952 15.1678 34.7923 15.5173C34.8503 15.6237 34.9276 15.7301 34.8387 15.8441C34.7498 15.9581 34.6686 15.7833 34.5759 15.8213C34.5488 16.7522 34.8155 17.4399 35.4803 18.1011C35.372 17.4399 35.2677 16.813 35.1672 16.1861C35.0976 15.7529 34.9894 15.3311 34.9469 14.8942C34.9199 14.632 35.0203 14.4306 35.2213 14.2749C35.3334 14.1875 35.4377 14.1837 35.5189 14.3242C35.7933 14.7954 35.9943 15.2969 36.1257 15.8251C36.1528 15.9315 36.1296 16.0341 36.002 16.0417C35.8281 16.0531 35.8552 16.1633 35.8706 16.2621C35.9634 16.832 36.0677 17.4019 36.1566 17.9719C36.2185 18.367 36.2764 18.766 36.3189 19.1612C36.3383 19.3435 36.3962 19.4993 36.5045 19.6513C36.8098 20.0845 37.1267 20.51 37.3895 20.966C37.6407 21.3991 37.5789 21.8703 37.4282 22.3452C37.119 21.8323 36.8059 21.3231 36.4967 20.8102C36.4735 20.8064 36.4542 20.7988 36.431 20.795C36.5006 21.4941 36.4156 22.1287 35.7856 22.558C35.7276 22.4934 35.7547 22.4326 35.7547 22.3794C35.774 21.4599 35.7315 20.5404 35.6465 19.6247C35.6387 19.5563 35.6233 19.4955 35.5846 19.4385C35.3914 19.165 35.1981 18.8914 34.9972 18.6064C34.9353 18.6786 34.9662 18.7508 34.9662 18.8192C34.9933 19.7007 35.0281 20.586 34.9972 21.4675C34.9856 21.7981 34.9972 22.1363 34.8232 22.444C34.6686 22.7176 34.4406 22.8962 34.1508 23.0102C33.9343 23.0938 33.714 23.0748 33.5208 22.9532C33.3005 22.8126 33.0763 22.6796 32.9024 22.4744C32.713 22.2503 32.512 22.2882 32.3729 22.5504C32.2415 22.7974 32.2299 23.0786 32.1526 23.3407C32.0869 23.5611 32.0212 23.7815 31.8473 23.9487C31.7004 24.0893 31.5304 24.1425 31.3294 24.0665C30.3902 23.7131 29.9844 22.2009 30.6492 21.4143C30.6415 21.7601 30.6183 22.0831 30.6956 22.3984C30.7535 22.6226 30.8308 22.8392 30.97 23.0292C31.1748 23.3103 31.4531 23.2913 31.5999 22.9874C31.7893 22.5922 31.9671 22.1933 32.1565 21.7981C32.2415 21.6233 32.3575 21.4675 32.5005 21.3345C32.7053 21.1446 32.9063 21.1636 33.0763 21.3877C33.2039 21.5625 33.3237 21.7411 33.4551 21.9159C33.5517 22.0451 33.6599 22.1515 33.8493 22.1211C34.0464 22.0907 34.0889 21.9387 34.1392 21.7905C34.3015 21.3079 34.3015 20.814 34.2667 20.3162C34.2049 19.4043 34.1507 18.4962 34.1005 17.5843C34.0928 17.4589 34.0619 17.3601 33.9807 17.2614C33.6058 16.7978 33.258 16.3076 32.856 15.8669C32.4309 15.3995 32.4889 14.8752 32.5546 14.3356C32.5739 14.1799 32.6628 14.2369 32.7439 14.2976C33.0918 14.5484 33.3816 14.8638 33.6638 15.183C33.6754 15.2476 33.7488 15.3349 33.6213 15.3501C33.4164 15.3767 33.5053 15.4717 33.5672 15.5553C33.6213 15.6275 33.687 15.6883 33.7875 15.7985C33.7759 15.6427 33.7681 15.5515 33.7604 15.4565C33.7488 15.3615 33.7333 15.2704 33.7218 15.1754L33.7256 15.1602Z" fill="#FAFCFB"/>
<path d="M14.8771 15.8555C14.8345 15.5477 14.7843 15.24 14.7457 14.9322C14.7225 14.7498 14.7804 14.594 14.9466 14.4914C15.2056 14.328 15.3524 14.3584 15.4993 14.6244C15.7196 15.0234 15.8549 15.4565 15.9979 15.8859C16.0636 16.0835 15.8974 16.0911 15.793 16.0683C15.5921 16.0227 15.5921 16.0949 15.6152 16.2583C15.7312 17.0714 15.8355 17.8883 15.9476 18.7166C16.0133 18.69 16.0636 18.6672 16.1215 18.6482C16.3573 18.5684 16.4617 18.6368 16.481 18.8838C16.4887 19.0054 16.4501 19.1536 16.6433 19.1688C16.8095 19.1802 16.9602 19.146 17.0259 18.9636C17.0414 18.9142 17.0684 18.8686 17.0955 18.823C17.1805 18.69 17.2733 18.5456 17.4588 18.5646C17.625 18.5798 17.683 18.7204 17.7216 18.8648C17.7409 18.9446 17.7834 18.9978 17.8801 18.9902C17.9844 18.9788 17.996 18.9028 17.996 18.8268C17.996 18.5646 18.1313 18.4202 18.3902 18.3708C18.4752 18.3556 18.5178 18.3594 18.51 18.462C18.4868 18.8192 18.4559 19.1726 18.3786 19.5221C18.2975 19.8793 17.8144 20.0503 17.4511 19.8451C17.281 19.7501 17.1805 19.7691 17.0375 19.8907C16.709 20.1719 16.3496 20.2441 15.9631 19.9325C15.936 20.0883 15.9592 20.2099 15.9708 20.3352C16.0558 21.1484 16.0442 21.9577 15.4916 22.6264C14.649 23.6485 13.5591 24.1729 12.1987 24.0209C11.4412 23.9373 10.9581 23.3825 10.9156 22.634C10.8963 22.3073 10.9156 21.9805 10.9658 21.6575C10.9774 21.5929 10.989 21.5245 11.0161 21.4637C11.0624 21.3611 11.0895 21.2016 11.2364 21.2206C11.3794 21.2358 11.3871 21.3953 11.4025 21.5055C11.4335 21.6879 11.4412 21.8741 11.4567 22.0603C11.5185 22.7822 11.8857 23.1432 12.6316 23.1774C13.6596 23.2268 14.4403 22.7974 14.9775 21.9463C15.2906 21.4485 15.4027 20.89 15.4375 20.3125C15.4413 20.2365 15.4491 20.1415 15.364 20.1225C15.2674 20.0997 15.2172 20.1909 15.194 20.2707C15.1476 20.4492 15.1244 20.6354 15.0742 20.814C14.8887 21.4751 14.564 22.0489 13.9688 22.4402C13.5862 22.6872 13.1688 22.8202 12.705 22.748C11.9861 22.634 11.5301 22.1249 11.4953 21.4067C11.476 21.023 11.5455 20.6544 11.677 20.2935C11.7079 20.2061 11.7311 20.1073 11.8431 20.1187C11.9514 20.1301 11.9784 20.2365 11.99 20.32C12.0287 20.605 12.0441 20.8938 12.0828 21.1826C12.1446 21.6651 12.4538 21.9121 12.9446 21.8285C13.6017 21.7145 14.1389 21.3915 14.5176 20.8368C14.6065 20.7076 14.6722 20.5632 14.6838 20.4036C14.6877 20.3542 14.7147 20.2935 14.6568 20.2631C14.6027 20.2327 14.5563 20.2783 14.5176 20.3087C14.3282 20.4454 14.1311 20.5594 13.8799 20.5556C13.4934 20.548 13.2809 20.3694 13.2731 19.9933C13.2693 19.5981 13.2847 19.203 13.5901 18.8914C13.992 18.4848 14.4326 18.4886 14.8114 18.918C14.8461 18.956 14.8771 19.0016 14.9157 19.0358C14.9969 19.1042 15.051 19.2334 15.194 19.165C15.337 19.1004 15.3795 18.975 15.3602 18.8306C15.3292 18.6026 15.2945 18.3746 15.2558 18.1505C15.1283 17.3829 15.0007 16.6154 14.8732 15.8479L14.8771 15.8555ZM14.0732 19.7881C14.2278 19.8147 14.3089 19.7501 14.3128 19.6019C14.3128 19.4727 14.251 19.3853 14.1157 19.3815C13.9534 19.3777 13.8606 19.4879 13.8451 19.6247C13.8258 19.7843 13.9727 19.7729 14.077 19.7881H14.0732Z" fill="#FAFCFB"/>
<path d="M14.8725 15.8517C14.7952 15.9505 14.7141 16.0227 14.5479 15.9239C14.6909 16.3913 14.8261 16.8168 14.8764 17.269C14.9189 17.6489 14.7798 17.9149 14.459 18.1087C14.316 18.1923 14.1614 18.2531 14.0029 18.2987C13.802 18.3557 13.6164 18.3329 13.4541 18.1961C13.4039 18.1543 13.3498 18.1125 13.2957 18.0707C13.1952 17.9947 13.087 17.9377 12.9633 17.9909C12.8319 18.0479 12.8203 18.1809 12.8242 18.2949C12.8319 18.5457 12.8628 18.7964 12.8821 19.0472C12.9246 19.6171 12.9594 20.1871 12.8164 20.7494C12.77 20.9242 12.7043 21.0876 12.5497 21.2016C12.4956 21.2396 12.4299 21.2814 12.3604 21.251C12.2869 21.2206 12.3217 21.1484 12.3179 21.0914C12.2831 20.3961 12.2522 19.6969 12.2212 19.0016C12.2096 18.7432 12.1053 18.6406 11.8425 18.633C11.456 18.6216 11.1893 18.3671 11.1854 17.9909C11.1777 17.5464 11.1854 17.1018 11.1854 16.6534C11.1854 16.5812 11.2086 16.4825 11.1236 16.4559C11.0193 16.4255 10.9922 16.5395 10.9574 16.604C10.8801 16.737 10.8724 16.8852 10.8685 17.0334C10.8569 17.345 10.8685 17.6565 10.7874 17.9605C10.7333 18.1657 10.6405 18.3329 10.4009 18.3671C10.1613 18.4013 9.99507 18.2873 9.8714 18.1011C9.69361 17.8389 9.64337 17.5388 9.61631 17.2348C9.57767 16.7902 9.59313 16.3457 9.61631 15.9011C9.61631 15.8403 9.60085 15.7491 9.68975 15.7377C9.77477 15.7301 9.79796 15.8175 9.81342 15.8783C9.89845 16.2317 9.97188 16.5888 10.053 16.9422C10.0801 17.0638 10.1149 17.1854 10.1574 17.3032C10.1883 17.383 10.2192 17.4856 10.3352 17.478C10.4434 17.4704 10.4782 17.364 10.4975 17.2842C10.5632 17.0106 10.6096 16.7332 10.6676 16.4559C10.7294 16.1557 10.8299 15.8707 11.027 15.6275C11.1236 15.506 11.2396 15.4072 11.4096 15.4338C11.5913 15.4642 11.6376 15.6199 11.6647 15.7643C11.7459 16.1671 11.7343 16.5774 11.6647 16.9802C11.6338 17.1626 11.6647 17.3184 11.7806 17.459C11.8193 17.5046 11.8657 17.5539 11.9314 17.5426C12.0048 17.5274 12.0357 17.4628 12.0473 17.3944C12.0782 17.2158 12.0512 17.041 12.0357 16.8624C11.9855 16.3077 11.8 15.7757 11.7652 15.221C11.7536 15.0272 11.7652 14.8372 11.7652 14.6434C11.7652 14.5181 11.8193 14.4307 11.9468 14.3927C12.0705 14.3547 12.1478 14.4269 12.2135 14.5105C12.3449 14.6738 12.3758 14.8752 12.4145 15.069C12.5111 15.544 12.4879 16.0303 12.5497 16.5091C12.5729 16.6914 12.6 16.8776 12.6734 17.0486C12.7082 17.1284 12.7584 17.2348 12.8667 17.1854C12.9826 17.136 12.9556 17.0372 12.9053 16.9384C12.658 16.4673 12.5343 15.9695 12.6309 15.4376C12.6386 15.3882 12.6541 15.335 12.6734 15.2894C12.7043 15.202 12.743 15.1184 12.8473 15.107C12.9594 15.0956 13.029 15.1564 13.0908 15.24C13.3923 15.6427 13.5198 16.0911 13.4309 16.5812C13.3884 16.8092 13.4503 16.9498 13.628 17.0714C13.7517 17.155 13.8638 17.2576 13.9875 17.3412C14.0725 17.402 14.1769 17.4058 14.2696 17.3602C14.374 17.3108 14.3392 17.2082 14.3314 17.1208C14.3121 16.9118 14.2503 16.718 14.1227 16.5433C13.9256 16.2659 13.7942 15.9619 13.744 15.6237C13.7247 15.4984 13.7247 15.373 13.7749 15.2514C13.8793 15.0158 14.0841 14.9512 14.3083 15.0804C14.5556 15.2248 14.6947 15.449 14.7875 15.7035C14.8068 15.7567 14.803 15.8251 14.8841 15.8441L14.8725 15.8517Z" fill="#FAFCFB"/>
<path d="M24.7097 14.9702C24.7175 15.1564 24.7097 15.3236 24.4392 15.2818C24.3078 15.259 24.2962 15.3502 24.3194 15.4337C24.416 15.7985 24.5088 16.1633 24.6363 16.5204C24.7136 16.7408 25.0228 16.775 25.2817 16.6344C25.3899 16.5736 25.4943 16.4027 25.6296 16.5318C25.7532 16.6534 25.6218 16.7978 25.5677 16.9194C25.4866 17.1018 25.3861 17.2804 25.2238 17.4095C25.1426 17.4741 25.046 17.5387 24.9339 17.4741C24.8102 17.402 24.8566 17.2994 24.8991 17.2006C24.9146 17.1664 24.9532 17.117 24.8991 17.0866C24.8179 17.0448 24.7368 17.0562 24.6672 17.1132C24.5551 17.2082 24.4933 17.3374 24.4353 17.4665C24.3039 17.7743 24.045 17.8579 23.7435 17.8807C23.4614 17.8997 23.2527 17.7933 23.1097 17.5425C22.928 17.2158 22.7734 17.1968 22.5029 17.4627C22.4101 17.5501 22.3212 17.6413 22.2324 17.7325C21.7261 18.2227 20.9917 18.0479 20.783 17.3792C20.6825 17.0638 20.6903 16.7332 20.6864 16.4064C20.6864 16.3343 20.7366 16.2165 20.613 16.2051C20.5202 16.1975 20.4854 16.3039 20.4622 16.3761C20.3734 16.6762 20.327 16.984 20.1956 17.269C20.1144 17.4513 20.0448 17.6603 19.8091 17.6945C19.5231 17.7401 19.3144 17.5995 19.1675 17.3678C18.7308 16.68 18.6612 15.9391 18.8699 15.1678C18.8854 15.1108 18.8854 15.0348 18.9588 15.031C19.0477 15.0234 19.067 15.107 19.0825 15.1678C19.1868 15.4945 19.2139 15.8365 19.2796 16.1709C19.3182 16.3609 19.3337 16.5546 19.4458 16.7218C19.4922 16.794 19.5347 16.8966 19.639 16.889C19.7434 16.8814 19.7743 16.7788 19.8014 16.6952C19.8439 16.5774 19.8748 16.4558 19.9096 16.3343C20.0332 15.9125 20.184 15.5021 20.4506 15.145C20.5164 15.0538 20.5936 14.9702 20.6709 14.8942C20.7598 14.8068 20.8642 14.7422 20.9956 14.7878C21.1309 14.8334 21.2004 14.9474 21.212 15.0766C21.2352 15.2818 21.2429 15.4907 21.2429 15.6997C21.2429 15.9353 21.2314 16.1747 21.2314 16.4102C21.2314 16.68 21.3512 16.8776 21.5985 16.9992C21.8149 17.1056 22.0082 17.0714 22.1705 16.8966C22.3483 16.7066 22.4642 16.5014 22.4604 16.2241C22.4526 15.8441 22.4372 15.4717 22.2826 15.1146C22.1087 14.708 22.3019 14.3775 22.5338 14.0659C22.6304 13.9367 22.7 14.0355 22.7464 14.1267C22.8855 14.4003 22.9744 14.689 22.9899 14.9968C23.0169 15.4907 22.9937 15.9923 23.1213 16.4786C23.1445 16.5698 23.1754 16.6648 23.214 16.7522C23.2952 16.9346 23.4343 17.0334 23.6469 16.9878C23.8517 16.9422 23.9754 16.7902 23.9831 16.5774C23.9986 16.1481 23.8053 15.7833 23.5812 15.4413C23.3763 15.1298 23.4111 14.8144 23.5232 14.5028C23.6353 14.1913 24.0256 14.1305 24.2653 14.3661C24.4469 14.5446 24.559 14.7688 24.6943 14.9816L24.6865 14.9778L24.7097 14.9702Z" fill="#FAFCFB"/>
<path d="M27.5421 19.013C27.4532 19.0776 27.5073 19.165 27.5112 19.2372C27.546 20.1567 27.6117 21.0724 27.573 21.9957C27.5576 22.3681 27.4068 22.6834 27.1324 22.9418C27.0629 23.0064 26.974 23.0976 26.8812 23.0482C26.8155 23.014 26.8657 22.8962 26.8657 22.8202C26.9392 21.1218 26.8889 19.4272 26.6686 17.7363C26.657 17.6413 26.6068 17.5729 26.5566 17.5007C26.0464 16.756 25.5208 16.0265 24.9642 15.3122C24.8753 15.1982 24.829 15.0576 24.7014 14.9702C24.7014 14.9702 24.7092 14.974 24.7053 14.974C24.7478 14.7688 24.6512 14.5674 24.6937 14.3623C24.7401 14.1229 24.8367 14.0621 25.0686 14.1495C25.2425 14.2141 25.3739 14.3395 25.5092 14.4572C25.7102 14.632 25.9382 14.7764 26.1198 15.0462C26.1507 14.7916 26.143 14.5826 26.2435 14.4003C26.3749 14.1647 26.4445 14.1609 26.5991 14.3737C26.916 14.8144 27.2677 15.2362 27.403 15.7795C27.4184 15.8441 27.4339 15.9087 27.4416 15.9771C27.4455 16.0151 27.4339 16.0607 27.3798 16.0303C27.1517 15.9125 27.2213 16.0873 27.229 16.1823C27.2638 16.528 27.3102 16.8738 27.3489 17.2196C27.3682 17.383 27.4184 17.5273 27.5112 17.6717C28.1218 18.5798 28.6861 19.5183 29.1731 20.4986C29.3393 20.833 29.3431 21.5891 29.1731 21.9121C28.6436 20.9242 28.1296 19.9477 27.5266 19.0244C27.515 19.0244 27.5034 19.0168 27.4919 19.013C27.4957 19.0206 27.5034 19.032 27.5073 19.0396C27.515 19.032 27.5228 19.0244 27.5305 19.0168L27.5421 19.013ZM26.3556 15.9961C26.3169 15.8099 26.286 15.6769 26.2628 15.5401C26.2512 15.4717 26.2126 15.4565 26.1546 15.4603C26.1044 15.4641 26.0425 15.4414 26.0116 15.4907C25.9846 15.5325 26.0271 15.5743 26.0503 15.6085C26.1391 15.7263 26.2319 15.8365 26.3556 15.9923V15.9961Z" fill="#FBFCFB"/>
<path d="M35.9637 23.7093C36.5009 23.451 37.0536 23.2268 37.4053 22.691C37.5831 22.4213 37.6759 22.1439 37.6643 21.8399C37.5947 19.7045 37.3396 17.5843 37.0227 15.468C36.9647 15.088 36.9686 14.7156 37.1696 14.3661C37.2391 14.2445 37.2778 14.1799 37.3821 14.3509C37.6063 14.7118 37.8614 15.0538 38.0894 15.411C38.244 15.6541 38.2285 15.6769 37.9503 15.7491C37.8343 15.7795 37.8382 15.8555 37.8536 15.9353C37.9155 16.3381 37.985 16.7408 38.0469 17.1436C38.2633 18.6178 38.2865 20.0997 38.2749 21.5853C38.2749 22.0071 38.2595 22.4251 38.1435 22.843C37.9503 23.5345 37.4865 23.9373 36.7985 24.1121C36.5666 24.1691 36.3232 24.1957 36.0874 24.2337C35.956 24.2527 35.8169 24.2565 35.7473 24.1273C35.6855 24.0095 35.7743 23.9183 35.8516 23.8347C35.871 23.8157 35.9251 23.7929 35.871 23.7549V23.7625C35.9289 23.8043 35.9444 23.7625 35.9637 23.7169V23.7093Z" fill="#FAFCFB"/>
<path d="M27.944 24.1615C27.7431 24.1691 27.6194 24.1159 27.5073 24.0361C27.2175 23.8271 27.2291 23.717 27.5382 23.565C28.23 23.2306 28.8059 22.7443 29.3354 22.2009C29.4707 22.0603 29.4939 21.8817 29.4823 21.7032C29.4513 21.2206 29.4166 20.7418 29.3702 20.2631C29.2736 19.1764 29.1731 18.0935 29.0649 17.0068C29.0223 16.5737 28.9605 16.1405 28.9025 15.7036C28.8407 15.2628 28.9103 14.8486 29.1267 14.4573C29.1963 14.3319 29.2465 14.2749 29.3431 14.4459C29.5518 14.8144 29.7412 15.1906 29.8649 15.5972C29.9113 15.7567 29.9538 15.9277 29.6987 15.9657C29.5712 15.9847 29.6021 16.1025 29.6021 16.1861C29.6021 16.5433 29.7103 16.889 29.7683 17.2386C30.0079 18.7167 30.089 20.2023 30.0388 21.6956C30.0079 22.6683 29.0069 23.9145 28.1257 24.1273C28.0445 24.1463 27.9634 24.1577 27.9402 24.1615H27.944Z" fill="#FAFCFB"/>
<path d="M31.0091 22.6834C31.071 20.4265 30.6149 18.2569 30.1782 16.0835C30.0661 15.5326 30.1279 15.0082 30.2864 14.4839C30.3134 14.3927 30.356 14.2901 30.441 14.2863C30.5299 14.2787 30.5299 14.4041 30.5647 14.4725C30.7154 14.7878 30.9164 15.0766 31.0942 15.3768C31.1753 15.5098 31.2526 15.6465 31.3222 15.7871C31.3724 15.8897 31.3686 15.9885 31.2101 15.9619C30.9627 15.9239 30.9434 16.0683 30.9782 16.2431C31.1985 17.4324 31.3492 18.6292 31.4884 19.8299C31.5541 20.3733 31.6198 20.9204 31.6043 21.4714C31.5927 21.8361 31.4652 22.1667 31.2758 22.4745C31.2178 22.5657 31.156 22.6606 31.0014 22.6872L31.0091 22.6834Z" fill="#FAFCFB"/>
<path d="M16.1982 16.9042C16.3065 16.7295 16.4301 16.6535 16.5384 16.5661C16.9712 16.2203 17.4234 15.9011 17.8254 15.5174C17.9954 15.354 17.9915 15.3008 17.7983 15.1564C17.5741 14.9854 17.5509 14.6853 17.7442 14.4573C17.8911 14.2863 18.3085 14.2559 18.4708 14.4079C18.6486 14.5751 18.6524 14.8866 18.4592 15.0652C18.3432 15.1716 18.351 15.2476 18.4708 15.3274C18.5674 15.3882 18.5829 15.4414 18.494 15.5326C18.1423 15.9087 17.7944 16.2887 17.4234 16.6459C17.234 16.8282 17.0331 16.9308 16.7625 16.908C16.5925 16.8928 16.4185 16.908 16.1982 16.908V16.9042ZM18.0572 14.7423C17.9645 14.7499 17.9336 14.8068 17.949 14.8828C17.9722 15.0006 18.0341 15.0956 18.1655 15.1032C18.2428 15.107 18.2582 15.0386 18.2543 14.974C18.2428 14.8524 18.1809 14.7688 18.0572 14.7423Z" fill="#F5F9F7"/>
<path d="M33.3933 17.3716C33.401 17.4666 33.4049 17.5464 33.2658 17.497C33.1112 17.4438 33.0571 17.5388 33.0455 17.6641C33.0223 17.9225 33.003 18.1809 32.9991 18.4393C32.9991 18.6406 32.9141 18.6406 32.7711 18.5571C32.431 18.3633 32.1488 18.1125 31.9324 17.7933C31.7894 17.5844 31.8628 17.2842 32.0522 17.1968C32.2029 17.1284 32.3343 17.1322 32.4078 17.3032C32.4503 17.3982 32.5199 17.4514 32.6203 17.4134C32.7092 17.3754 32.6745 17.2918 32.6629 17.2196C32.6242 16.9688 32.7092 16.8092 32.9025 16.7636C33.0996 16.718 33.2542 16.8282 33.3276 17.0676C33.3585 17.1664 33.374 17.269 33.3933 17.3716Z" fill="#FAFCFB"/>
<path d="M9.74444 20.5442C9.72899 20.4264 9.7715 20.3466 9.81788 20.2744C10.2044 19.6551 10.7493 19.2334 11.4682 19.051C11.7812 18.9712 11.9938 19.0662 12.0827 19.2713C12.1291 19.3777 12.1213 19.4309 12.0015 19.4841C11.2517 19.8299 10.5097 20.1833 9.74831 20.5442H9.74444Z" fill="#FAFCFB"/>
<path d="M9.92245 21.5511C9.89539 21.9083 9.86447 22.2009 9.85288 22.4935C9.84515 22.6758 9.86061 22.862 9.87607 23.0482C9.87993 23.109 9.89926 23.1926 9.97655 23.204C10.0423 23.2116 10.0732 23.1432 10.1041 23.0976C10.1543 23.0292 10.1814 22.9152 10.2973 22.9532C10.4171 22.9912 10.4403 23.1014 10.4365 23.2078C10.4326 23.3788 10.394 23.5459 10.3128 23.6979C10.2355 23.8461 10.1389 23.9905 9.94177 23.9715C9.72534 23.9525 9.55142 23.8537 9.48185 23.6371C9.35045 23.2344 9.40069 22.8316 9.49731 22.4327C9.57074 22.1363 9.67896 21.8551 9.91858 21.5549L9.92245 21.5511Z" fill="#F5F9F7"/>
<path d="M33.8887 18.8496C33.908 19.0548 33.8423 19.1916 33.6993 19.3056C33.3051 19.6171 32.8916 19.8983 32.4471 20.1453C32.2539 20.2517 32.2113 20.2251 32.1959 20.0161C32.1804 19.8413 32.2345 19.7083 32.393 19.6019C32.8027 19.3246 33.2008 19.032 33.6066 18.7508C33.6723 18.7052 33.7302 18.6102 33.8153 18.6444C33.9158 18.6862 33.8694 18.8002 33.8848 18.8534L33.8887 18.8496Z" fill="#FAFCFB"/>
<path d="M25.2189 23.4054C25.2344 23.1584 25.2073 23.0216 24.9638 23.1204C24.9213 23.1394 24.8749 23.128 24.844 23.0862C24.8054 23.033 24.7938 22.9684 24.8324 22.919C24.9677 22.7518 25.1262 22.596 25.3349 22.5162C25.474 22.463 25.5783 22.5656 25.5513 22.7138C25.5397 22.7784 25.5204 22.843 25.5049 22.9076C25.4895 22.9988 25.5049 23.09 25.5783 23.1508C25.6595 23.2154 25.7329 23.1546 25.8025 23.1128C25.9687 23.0064 26.1542 22.9874 26.3436 22.976C26.4518 22.9684 26.5175 23.0178 26.533 23.1204C26.5523 23.2306 26.4943 23.2838 26.39 23.3028C26.1078 23.3598 25.8489 23.4775 25.5822 23.5801C25.3155 23.6827 25.2112 23.6105 25.2189 23.4016V23.4054Z" fill="#F5F9F7"/>
<path d="M35.8712 23.7473C35.6741 23.8385 35.4808 23.9297 35.2837 24.0133C35.2026 24.0475 35.1137 24.0703 35.0209 24.0627C34.9591 24.0589 34.9011 24.0437 34.8702 23.9829C34.8354 23.9145 34.8547 23.8461 34.905 23.8005C34.9784 23.7245 35.0634 23.6676 35.1407 23.5954C35.2798 23.4586 35.276 23.3598 35.1098 23.261C35.0093 23.2002 34.9436 23.1394 34.9707 23.0178C34.9977 22.8924 35.1021 22.8886 35.1987 22.881C35.2721 22.8734 35.3494 22.8696 35.4228 22.881C35.6625 22.9152 35.705 22.9988 35.6006 23.2116C35.4847 23.4434 35.4885 23.4738 35.7436 23.451C35.991 23.432 35.906 23.622 35.9678 23.7132C35.8944 23.6448 35.8905 23.7132 35.8712 23.7587V23.7511V23.7473Z" fill="#F5F9F7"/>
<path d="M33.5601 21.0496C33.6103 20.8254 33.5291 20.6392 33.4518 20.453C33.3784 20.282 33.3127 20.1073 33.3166 19.9211C33.3166 19.8071 33.3707 19.7235 33.4828 19.6817C33.5948 19.6361 33.6837 19.6817 33.734 19.7729C33.9736 20.2327 34.0664 20.7038 33.8538 21.2016C33.8345 21.2471 33.7997 21.2927 33.7649 21.3307C33.7262 21.3763 33.6799 21.4257 33.6142 21.3953C33.5562 21.3687 33.5678 21.3079 33.5678 21.2585C33.5678 21.1864 33.5678 21.1104 33.5678 21.0534L33.5601 21.0496Z" fill="#F5F9F7"/>
<path d="M22.7766 18.9978C22.3476 18.9978 22.1389 18.7812 22.2085 18.3974C22.2239 18.3138 22.2471 18.2341 22.3476 18.2189C22.4558 18.1999 22.4674 18.2797 22.4829 18.3518C22.4945 18.405 22.5215 18.4544 22.5872 18.4468C22.6452 18.4392 22.6413 18.386 22.6529 18.3442C22.6723 18.291 22.6761 18.2189 22.7573 18.2227C22.8307 18.2265 22.8539 18.2873 22.8616 18.348C22.8694 18.4088 22.8771 18.4772 22.9544 18.4772C23.0278 18.4772 22.9969 18.3974 23.0085 18.3518C23.0278 18.2645 23.0665 18.1923 23.167 18.1923C23.2713 18.1923 23.2906 18.2797 23.3061 18.3632C23.3834 18.8306 23.2443 18.9978 22.7727 19.0016L22.7766 18.9978Z" fill="#F5F9F7"/>
<path d="M28.1641 17.3944C27.7737 17.383 27.5766 17.1512 27.6423 16.7902C27.6578 16.7066 27.681 16.6268 27.7815 16.6116C27.8897 16.5926 27.8974 16.6724 27.9167 16.7446C27.9283 16.794 27.9515 16.8472 28.0211 16.8396C28.0791 16.832 28.0752 16.7788 28.0907 16.7408C28.11 16.6876 28.1139 16.6116 28.195 16.6154C28.28 16.6192 28.2994 16.6876 28.3071 16.756C28.311 16.813 28.3303 16.8662 28.3921 16.8662C28.4733 16.8662 28.4385 16.7902 28.4501 16.7446C28.4694 16.6572 28.5081 16.5812 28.6047 16.5812C28.7245 16.5812 28.7361 16.68 28.7477 16.7712C28.8018 17.1778 28.5892 17.402 28.168 17.3906L28.1641 17.3944Z" fill="#F5F9F7"/>
<path d="M13.4471 15.1184C13.0297 15.1184 12.8404 14.917 12.8867 14.5257C12.8983 14.4307 12.9254 14.3433 13.0336 14.3319C13.1341 14.3205 13.1495 14.4041 13.165 14.4801C13.1766 14.5257 13.1998 14.5675 13.25 14.5675C13.308 14.5713 13.3157 14.5181 13.3312 14.4801C13.3544 14.4231 13.3428 14.3319 13.4433 14.3471C13.5167 14.3547 13.5322 14.4155 13.5438 14.4763C13.5515 14.5295 13.5631 14.5903 13.6288 14.5903C13.7099 14.5903 13.6829 14.5181 13.6945 14.4725C13.7177 14.3775 13.7563 14.2939 13.8723 14.3129C13.9728 14.3281 13.9844 14.4155 13.9921 14.5029C14.0307 14.9132 13.8529 15.1146 13.451 15.1184H13.4471Z" fill="#F5F9F7"/>
<path d="M28.4389 15.2286C28.4118 15.468 28.3577 15.7073 28.2379 15.9239C28.2147 15.9695 28.1838 16.0265 28.1219 16.0151C28.0485 16.0037 28.0601 15.9315 28.0756 15.8897C28.1915 15.4984 28.0137 15.202 27.7702 14.9208C27.7432 14.8866 27.7123 14.8486 27.6968 14.8106C27.6466 14.6852 27.5925 14.5485 27.7355 14.4535C27.8785 14.3547 28.0215 14.3737 28.1413 14.5029C28.3306 14.708 28.4079 14.9588 28.4389 15.2324V15.2286Z" fill="#F5F9F7"/>
<path d="M36.5082 16.6914C36.6241 16.3799 36.4734 16.0949 36.2763 15.8213C36.2183 15.7377 36.1603 15.6465 36.1449 15.5439C36.1255 15.411 36.1371 15.2894 36.284 15.2286C36.4347 15.1678 36.5313 15.24 36.6009 15.3616C36.7942 15.7073 36.8985 16.0721 36.8057 16.4672C36.7748 16.5964 36.7284 16.7218 36.6821 16.8472C36.6627 16.9004 36.6357 16.9802 36.57 16.9688C36.4888 16.9536 36.512 16.8662 36.5043 16.8016C36.5043 16.7788 36.5043 16.756 36.5043 16.6952L36.5082 16.6914Z" fill="#F5F9F7"/>
<path d="M18.4407 17.2006C18.3634 17.4171 18.2977 17.6337 18.0658 17.7173C17.7953 17.8199 17.5363 17.6869 17.4745 17.4361C17.3972 17.1208 17.5866 16.737 17.8417 16.6914C17.9692 16.6686 17.9924 16.7446 17.9615 16.832C17.9228 16.946 17.9035 17.06 17.919 17.1778C17.9422 17.3525 18.0233 17.3905 18.174 17.2955C18.2475 17.25 18.3016 17.174 18.4369 17.193L18.4407 17.2006Z" fill="#F5F9F7"/>
<path d="M10.5565 15.259C10.5874 15.0956 10.5295 14.9512 10.4213 14.8182C10.3787 14.7688 10.344 14.708 10.3092 14.6549C10.2241 14.5333 10.1546 14.4041 10.286 14.2787C10.3942 14.1723 10.5913 14.2217 10.7227 14.3661C10.943 14.6207 10.9353 15.2704 10.7073 15.5136C10.6802 15.544 10.6493 15.5744 10.6145 15.5554C10.5874 15.5402 10.5681 15.4984 10.5643 15.4642C10.5565 15.3996 10.5643 15.3312 10.5643 15.2552L10.5565 15.259Z" fill="#F5F9F7"/>
<path d="M21.4516 15.0044C21.4863 14.7498 21.4863 14.4876 21.6023 14.2483C21.6487 14.1571 21.7028 14.0393 21.8265 14.0621C21.9579 14.0887 21.9733 14.2141 21.9733 14.3318C21.9733 14.5864 21.9076 14.8296 21.8265 15.069C21.7801 15.202 21.7337 15.3729 21.552 15.3311C21.3704 15.2894 21.4709 15.126 21.4554 15.0082L21.4516 15.0044Z" fill="#F5F9F7"/>
<path d="M17.5242 21.118C17.5048 21.2966 17.4546 21.4676 17.358 21.6196C17.3348 21.6576 17.3039 21.7031 17.2536 21.6917C17.1995 21.6804 17.2034 21.6272 17.2034 21.5816C17.2034 21.536 17.2034 21.4904 17.2111 21.4486C17.2652 21.1826 17.1725 20.9698 16.9715 20.795C16.8671 20.7038 16.7628 20.5747 16.9058 20.4569C17.0372 20.3467 17.1879 20.3885 17.3 20.5253C17.4391 20.7 17.5048 20.9014 17.528 21.118H17.5242Z" fill="#F5F9F7"/>
<path d="M19.4217 14.8144C19.4372 14.4838 19.5879 14.2369 19.8391 14.0469C19.8971 14.0051 19.9744 13.9405 20.0362 14.0127C20.0865 14.0697 20.0671 14.1495 20.013 14.2141C19.9435 14.2939 19.87 14.3699 19.8159 14.4572C19.7193 14.6168 19.7811 14.7384 19.9589 14.7498C20.0246 14.7536 20.0556 14.7612 20.0401 14.8372C20.013 14.9816 19.8005 15.1564 19.6575 15.126C19.4913 15.0918 19.4063 14.9778 19.4217 14.8144Z" fill="#F5F9F7"/>
<path d="M33.726 15.1602C33.7415 15.2551 33.7569 15.3463 33.7647 15.4413C33.7762 15.5325 33.7801 15.6275 33.7917 15.7833C33.6951 15.6769 33.6255 15.6123 33.5714 15.5401C33.5096 15.4565 33.4207 15.3615 33.6255 15.3349C33.7569 15.3197 33.6835 15.2285 33.668 15.1678C33.6874 15.1678 33.7028 15.164 33.7221 15.1602H33.726Z" fill="#056E38"/>
<path d="M22.0268 21.0686C22.3978 21.1446 22.7882 21.1522 23.1747 21.1978C23.2481 21.2054 23.3254 21.2282 23.3873 21.2662C23.538 21.3536 23.5303 21.4638 23.3718 21.5474C23.3331 21.5664 23.2868 21.5816 23.2481 21.5968C22.8191 21.7563 22.7495 21.8589 22.7727 22.3035C22.7766 22.3871 22.8153 22.4973 22.7186 22.5467C22.6297 22.5961 22.5447 22.5239 22.4713 22.4783C22.0809 22.2389 21.7872 21.9235 21.6983 21.4638C21.6481 21.213 21.7756 21.061 22.0268 21.0724V21.0686Z" fill="#056E38"/>
<path d="M24.7515 19.127C24.6162 19.089 24.4771 19.0358 24.4539 18.8762C24.4385 18.7737 24.5273 18.7661 24.6085 18.7737C24.7554 18.7888 24.9332 18.9484 24.9177 19.0472C24.9022 19.1422 24.8249 19.1232 24.7554 19.127H24.7515Z" fill="#056E38"/>
<path d="M32.5164 32.8626C32.8179 32.8626 33.1193 32.8626 33.4208 32.8626C33.556 32.8626 33.6411 32.9006 33.6256 33.0488C33.614 33.197 33.5251 33.2312 33.3937 33.2122C33.1927 33.1856 32.984 33.2426 32.8024 33.083C32.7212 33.0108 32.5473 33.0146 32.4623 33.0982C32.2961 33.2578 32.1067 33.2198 31.9173 33.2122C31.813 33.2122 31.7048 33.1932 31.6004 33.197C31.442 33.2046 31.4033 33.1172 31.4033 32.9918C31.4033 32.8588 31.4845 32.8246 31.6159 32.8284C31.9173 32.836 32.2188 32.8284 32.5203 32.8284V32.855L32.5164 32.8626Z" fill="#056E38"/>
<path d="M14.0725 19.7843C13.9681 19.7691 13.8213 19.7805 13.8406 19.6209C13.8599 19.4841 13.9488 19.3701 14.1111 19.3777C14.2464 19.3777 14.3121 19.4689 14.3082 19.5981C14.3082 19.7501 14.2232 19.8109 14.0686 19.7843H14.0725Z" fill="#056E38"/>
<path d="M26.3551 15.9999C26.2314 15.8441 26.1387 15.7301 26.0498 15.6162C26.0227 15.582 25.9841 15.5402 26.0111 15.4984C26.0421 15.449 26.1039 15.4718 26.1541 15.468C26.2121 15.4604 26.2508 15.4794 26.2624 15.5478C26.2856 15.6845 26.3165 15.8175 26.3551 16.0037V15.9999Z" fill="#056E38"/>
<path d="M27.5415 19.0131C27.5415 19.0131 27.5261 19.0286 27.5184 19.0364C27.5145 19.0286 27.5068 19.017 27.5029 19.0092C27.5145 19.0131 27.5261 19.017 27.5377 19.0208V19.0131H27.5415Z" fill="#006C35"/>
<path d="M35.8672 23.7549C35.8865 23.7094 35.8904 23.641 35.9638 23.7094C35.9445 23.7549 35.929 23.7967 35.8672 23.7549Z" fill="#006C35"/>
<path d="M18.0573 14.746C18.181 14.7688 18.2428 14.8524 18.2544 14.9778C18.2622 15.0424 18.2428 15.1108 18.1655 15.107C18.0341 15.0994 17.9723 15.0044 17.9491 14.8866C17.9336 14.8106 17.9646 14.7574 18.0573 14.746Z" fill="#056E38"/>
</g>
</svg>
