<svg width="173" height="94" viewBox="0 0 173 94" fill="none" xmlns="http://www.w3.org/2000/svg">
<path d="M154.138 64.9519C155.048 64.0797 155.759 63.0723 156.256 61.9911C157.402 59.5093 157.438 56.6412 156.229 54.168C155.003 51.6583 152.647 49.868 149.887 49.2211C149.106 49.0357 148.291 48.9422 147.46 48.9522C145.423 59.4766 154.138 64.9519 154.138 64.9519Z" fill="#ED401A"/>
<path d="M154.14 64.9523C155.05 64.08 155.761 63.0726 156.258 61.9913C155.18 60.1122 154.099 58.1129 153.034 55.992C151.86 53.6566 150.818 51.3918 149.887 49.2204C149.106 49.0349 148.291 48.9414 147.46 48.9515C149.686 54.2857 151.912 59.6183 154.14 64.9523Z" fill="#C92009"/>
<path d="M100.594 75.4042C101.388 88.5609 132.303 92.9899 146.901 85.0796C150.956 82.8823 153.751 79.7306 154.294 75.5506C156.785 56.3245 143.948 38.6792 128.923 38.6389C123.476 38.6237 117.053 40.6359 111.695 45.1189C104.828 50.8569 99.702 60.6437 100.595 75.4058L100.594 75.4042Z" fill="#ED401A"/>
<path d="M155.135 55.7603C155.247 55.7035 157.88 54.3203 159.976 51.074C161.894 48.1038 163.703 42.9407 161.43 35.2183L160.024 35.6238C161.719 41.387 161.302 46.3116 158.781 50.2639C156.902 53.2118 154.483 54.4944 154.46 54.5078L155.135 55.7619L155.135 55.7603Z" fill="#ED401A"/>
<path d="M157.15 35.3164C156.304 33.6929 156.976 31.6945 158.652 30.853C160.328 30.0115 162.373 30.6455 163.22 32.269C164.066 33.8926 163.393 35.8909 161.717 36.7324C160.041 37.574 157.997 36.94 157.15 35.3164Z" fill="#9E1908"/>
<path d="M108.793 63.8086C108.757 66.4469 111.71 68.0801 115.532 69.055C119.557 70.0843 124.547 70.3831 128.022 70.361C132.999 70.3277 142.608 69.5132 146.111 66.4532C146.932 65.7371 147.417 64.8947 147.43 63.9145C147.469 61.0573 146.283 58.4663 144.33 56.586C142.377 54.7074 139.66 53.5424 136.641 53.535L119.865 53.4902C116.356 53.4801 113.211 55.0378 111.178 57.4654C109.713 59.2169 108.826 61.417 108.792 63.8104L108.793 63.8086Z" fill="#9E1908"/>
<path d="M108.794 63.8093C108.758 66.4474 111.711 68.0805 115.533 69.0553C119.557 70.0846 124.547 70.3833 128.023 70.3613C132.999 70.3279 142.608 69.5135 146.111 66.4537C136.259 66.1392 119.527 64.5196 111.181 57.4647C109.715 59.2161 108.828 61.416 108.794 63.8093Z" fill="#590A04"/>
<path d="M100.595 75.4034C101.389 88.5608 132.305 92.99 146.904 85.0793C138.032 86.4854 111.636 89.5556 107.064 77.1803C103.133 66.5388 108.369 52.367 111.696 45.1149C104.829 50.8533 99.7028 60.6405 100.595 75.4034Z" fill="#C92009"/>
<path d="M146.044 51.6281C145.228 52.6533 140.337 50.4896 137.065 48.1118C133.927 45.8335 130.743 42.2448 131.47 41.2335C132.116 40.3361 135.733 41.6274 138.003 42.816C143.083 45.4768 146.932 50.5099 146.044 51.6281Z" fill="#FFC3BD"/>
<path d="M152.945 72.1327C152.779 75.6476 150.528 78.9771 149.638 78.7486C148.704 78.5073 149.142 74.31 149.606 72.004C149.74 71.3419 150.554 67.2927 151.527 67.3124C152.293 67.3272 153.052 69.8567 152.945 72.1343L152.945 72.1327Z" fill="#FFC3BD"/>
<path d="M133.912 61.6602C133.874 64.2852 136.031 66.4187 138.73 66.423C140.815 66.4279 142.613 65.1613 143.342 63.3742C143.555 62.8482 143.678 62.2763 143.687 61.6802C143.725 59.0551 141.568 56.9233 138.868 56.9176C136.881 56.9134 135.156 58.0626 134.37 59.717C134.086 60.3111 133.922 60.9676 133.912 61.6602Z" fill="#590A04"/>
<path d="M138.072 56.9766C136.43 57.2358 135.047 58.2901 134.369 59.7173C134.085 60.3114 133.921 60.9679 133.911 61.6605C133.873 64.2855 136.03 66.4174 138.729 66.4233C139.002 66.4241 139.269 66.4031 139.532 66.3618C141.267 66.0878 142.709 64.928 143.341 63.3745C143.555 62.8485 143.677 62.2766 143.686 61.6805C143.724 59.0554 141.567 56.922 138.866 56.9163C138.594 56.9153 138.332 56.9339 138.071 56.975L138.072 56.9766ZM137.941 56.1774C138.249 56.1288 138.564 56.1051 138.878 56.1045C142.034 56.1116 144.565 58.613 144.522 61.6821C144.512 62.3649 144.377 63.0316 144.118 63.6658C143.369 65.5066 141.66 66.8472 139.658 67.1633C139.349 67.2119 139.033 67.2359 138.719 67.2365C137.191 67.2333 135.763 66.652 134.696 65.598C133.631 64.5438 133.055 63.1451 133.077 61.6586C133.088 60.8648 133.268 60.0981 133.613 59.3803C134.423 57.6748 136.042 56.4772 137.941 56.1774Z" fill="#ED401A"/>
<path d="M134.373 59.7049C136.135 63.9989 140.661 63.8818 143.328 63.3896C143.544 62.865 143.668 62.2929 143.678 61.6964C143.724 59.0716 141.574 56.9314 138.875 56.9153C136.89 56.9039 135.164 58.053 134.373 59.7049Z" fill="#9E1908"/>
<path d="M139.032 60.0927C139.019 60.9651 139.735 61.6723 140.631 61.6744C141.528 61.6765 142.263 60.9721 142.275 60.0997C142.287 59.2273 141.572 58.5201 140.675 58.518C139.779 58.5159 139.044 59.2203 139.032 60.0927Z" fill="#FFC3BD"/>
<path d="M134.958 62.5836C134.69 62.7564 135.029 64.4128 136.229 65.05C137.295 65.6155 138.725 65.2058 138.762 64.9017C138.789 64.6774 138.053 64.6142 136.828 63.8846C135.541 63.116 135.144 62.463 134.958 62.5836Z" fill="#FFC3BD"/>
<path d="M112.246 61.5523C112.208 64.1773 114.365 66.3108 117.064 66.3151C119.149 66.32 120.947 65.0534 121.676 63.2663C121.889 62.7403 122.012 62.1684 122.021 61.5722C122.059 58.9472 119.902 56.8154 117.202 56.8097C115.215 56.8055 113.49 57.9547 112.704 59.6091C112.42 60.2032 112.256 60.8597 112.246 61.5523Z" fill="#590A04"/>
<path d="M116.406 56.8687C114.764 57.1279 113.381 58.1822 112.703 59.6094C112.419 60.2035 112.255 60.86 112.245 61.5526C112.207 64.1776 114.364 66.3095 117.063 66.3154C117.336 66.3162 117.603 66.2952 117.866 66.2539C119.601 65.9799 121.043 64.8201 121.675 63.2666C121.889 62.7406 122.011 62.1687 122.02 61.5725C122.058 58.9475 119.901 56.8141 117.2 56.8084C116.928 56.8074 116.666 56.826 116.405 56.8671L116.406 56.8687ZM116.275 56.0695C116.583 56.0209 116.898 55.9972 117.212 55.9966C120.368 56.0037 122.899 58.5051 122.856 61.5742C122.846 62.257 122.711 62.9237 122.452 63.5579C121.703 65.3987 119.994 66.7393 117.992 67.0554C117.683 67.104 117.367 67.128 117.053 67.1286C115.525 67.1254 114.097 66.544 113.03 65.4901C111.965 64.4359 111.389 63.0372 111.411 61.5507C111.422 60.7569 111.602 59.9902 111.947 59.2724C112.757 57.5669 114.376 56.3693 116.275 56.0695Z" fill="#ED401A"/>
<path d="M112.709 59.5967C114.471 63.8908 118.997 63.7737 121.664 63.2814C121.88 62.7568 122.004 62.1847 122.014 61.5883C122.06 58.9634 119.91 56.8232 117.211 56.8071C115.226 56.7958 113.499 57.9448 112.709 59.5967Z" fill="#9E1908"/>
<path d="M117.366 59.9846C117.353 60.857 118.069 61.5641 118.965 61.5662C119.862 61.5683 120.597 60.864 120.609 59.9915C120.621 59.1191 119.906 58.412 119.009 58.4099C118.113 58.4078 117.378 59.1121 117.366 59.9846Z" fill="#FFC3BD"/>
<path d="M113.292 62.4757C113.024 62.6485 113.363 64.3049 114.563 64.9421C115.629 65.5075 117.059 65.0979 117.096 64.7938C117.123 64.5694 116.387 64.5063 115.162 63.7767C113.875 63.0081 113.478 62.3551 113.292 62.4757Z" fill="#FFC3BD"/>
<path d="M126.782 54.5864C126.731 54.9024 128.915 55.6519 131.184 55.8621C134.866 56.2033 138.26 55.0764 138.216 54.6776C138.196 54.4951 135.866 54.4674 131.204 54.4187C127.459 54.3789 126.81 54.4207 126.782 54.5864Z" fill="#590A04"/>
<path d="M162.47 33.2271C162.276 34.192 161.318 34.8304 160.329 34.6518C159.34 34.4731 158.694 33.5474 158.888 32.5825C159.082 31.6176 160.04 30.9793 161.029 31.1579C162.018 31.3365 162.663 32.2622 162.47 33.2271Z" fill="#ED401A"/>
<path d="M126.094 82.3367C128.178 82.4595 129.88 81.4579 131.158 80.1124C133.453 77.7004 134.386 74.1783 133.715 74.0592C132.672 73.8782 130.027 75.594 127.194 75.4279C123.939 75.2369 121.811 73.8907 120.146 73.6904C120.07 73.6795 119.999 73.6728 119.926 73.6696C118.227 73.5691 119.699 81.9612 126.094 82.3367Z" fill="#9E1908"/>
<path d="M126.093 82.3365C128.178 82.4593 129.881 81.4574 131.159 80.1116C128.369 79.3926 122.918 77.5558 120.145 73.6882C120.069 73.6773 119.997 73.6706 119.925 73.6674C118.226 73.5668 119.698 81.9609 126.093 82.3365Z" fill="#590A04"/>
<rect x="0.5" y="0.5" width="150" height="33" rx="7.5" fill="#FFF3F3"/>
<rect x="0.5" y="0.5" width="150" height="33" rx="7.5" stroke="#9E1908"/>
<path d="M12.3146 21L15.6426 11.9H17.5146L20.8426 21H19.0746L18.3466 18.894H14.7976L14.0566 21H12.3146ZM15.2526 17.594H17.8916L16.5656 13.811L15.2526 17.594ZM24.6409 21.156C24.0689 21.156 23.5662 21.065 23.1329 20.883C22.6995 20.6923 22.3529 20.4323 22.0929 20.103C21.8329 19.7737 21.6769 19.3923 21.6249 18.959H23.3019C23.3539 19.2103 23.4925 19.427 23.7179 19.609C23.9519 19.7823 24.2509 19.869 24.6149 19.869C24.9789 19.869 25.2432 19.7953 25.4079 19.648C25.5812 19.5007 25.6679 19.3317 25.6679 19.141C25.6679 18.8637 25.5465 18.6773 25.3039 18.582C25.0612 18.478 24.7232 18.3783 24.2899 18.283C24.0125 18.2223 23.7309 18.1487 23.4449 18.062C23.1589 17.9753 22.8945 17.867 22.6519 17.737C22.4179 17.5983 22.2272 17.425 22.0799 17.217C21.9325 17.0003 21.8589 16.736 21.8589 16.424C21.8589 15.852 22.0842 15.371 22.5349 14.981C22.9942 14.591 23.6355 14.396 24.4589 14.396C25.2215 14.396 25.8282 14.5737 26.2789 14.929C26.7382 15.2843 27.0112 15.774 27.0979 16.398H25.5249C25.4295 15.9213 25.0699 15.683 24.4459 15.683C24.1339 15.683 23.8912 15.7437 23.7179 15.865C23.5532 15.9863 23.4709 16.138 23.4709 16.32C23.4709 16.5107 23.5965 16.6623 23.8479 16.775C24.0992 16.8877 24.4329 16.9917 24.8489 17.087C25.2995 17.191 25.7112 17.308 26.0839 17.438C26.4652 17.5593 26.7685 17.7457 26.9939 17.997C27.2192 18.2397 27.3319 18.5907 27.3319 19.05C27.3405 19.4487 27.2365 19.8083 27.0199 20.129C26.8032 20.4497 26.4912 20.701 26.0839 20.883C25.6765 21.065 25.1955 21.156 24.6409 21.156ZM28.8059 21V11.64H30.4699V17.165L32.7579 14.552H34.7339L32.0949 17.49L35.1629 21H33.0829L30.4699 17.763V21H28.8059ZM41.6843 21V17.763L38.6293 11.9H40.5143L42.5293 16.099L44.5313 11.9H46.3903L43.3483 17.763V21H41.6843ZM49.356 21.156C48.732 21.156 48.1687 21.013 47.666 20.727C47.172 20.441 46.7777 20.0467 46.483 19.544C46.197 19.0327 46.054 18.4433 46.054 17.776C46.054 17.1087 46.2013 16.5237 46.496 16.021C46.7907 15.5097 47.185 15.111 47.679 14.825C48.1817 14.539 48.745 14.396 49.369 14.396C49.9843 14.396 50.539 14.539 51.033 14.825C51.5357 15.111 51.93 15.5097 52.216 16.021C52.5107 16.5237 52.658 17.1087 52.658 17.776C52.658 18.4433 52.5107 19.0327 52.216 19.544C51.93 20.0467 51.5357 20.441 51.033 20.727C50.5303 21.013 49.9713 21.156 49.356 21.156ZM49.356 19.713C49.7893 19.713 50.1663 19.5527 50.487 19.232C50.8077 18.9027 50.968 18.4173 50.968 17.776C50.968 17.1347 50.8077 16.6537 50.487 16.333C50.1663 16.0037 49.7937 15.839 49.369 15.839C48.927 15.839 48.5457 16.0037 48.225 16.333C47.913 16.6537 47.757 17.1347 47.757 17.776C47.757 18.4173 47.913 18.9027 48.225 19.232C48.5457 19.5527 48.9227 19.713 49.356 19.713ZM56.5638 21.156C55.7578 21.156 55.1338 20.9047 54.6918 20.402C54.2584 19.8993 54.0418 19.1627 54.0418 18.192V14.552H55.6928V18.036C55.6928 18.5907 55.8054 19.0153 56.0308 19.31C56.2561 19.6047 56.6114 19.752 57.0968 19.752C57.5561 19.752 57.9331 19.5873 58.2278 19.258C58.5311 18.9287 58.6828 18.4693 58.6828 17.88V14.552H60.3468V21H58.8778L58.7478 19.908C58.5484 20.2893 58.2581 20.5927 57.8768 20.818C57.5041 21.0433 57.0664 21.156 56.5638 21.156ZM62.055 21V14.552H63.537L63.693 15.761C63.927 15.345 64.2433 15.0157 64.642 14.773C65.0493 14.5217 65.526 14.396 66.072 14.396V16.151H65.604C65.24 16.151 64.915 16.2073 64.629 16.32C64.343 16.4327 64.1176 16.6277 63.953 16.905C63.797 17.1823 63.719 17.568 63.719 18.062V21H62.055ZM74.6099 21.156C73.6999 21.156 72.9026 20.9567 72.2179 20.558C71.5419 20.1593 71.0089 19.609 70.6189 18.907C70.2376 18.1963 70.0469 17.3773 70.0469 16.45C70.0469 15.5227 70.2376 14.708 70.6189 14.006C71.0089 13.2953 71.5419 12.7407 72.2179 12.342C72.9026 11.9433 73.6999 11.744 74.6099 11.744C75.5112 11.744 76.3042 11.9433 76.9889 12.342C77.6736 12.7407 78.2066 13.2953 78.5879 14.006C78.9692 14.708 79.1599 15.5227 79.1599 16.45C79.1599 17.3167 78.9909 18.0923 78.6529 18.777C78.3149 19.453 77.8469 19.9903 77.2489 20.389L79.3549 22.651H77.2879L75.8579 21.013C75.4592 21.1083 75.0432 21.156 74.6099 21.156ZM74.6099 19.661C75.4766 19.661 76.1656 19.375 76.6769 18.803C77.1969 18.231 77.4569 17.4467 77.4569 16.45C77.4569 15.4533 77.1969 14.669 76.6769 14.097C76.1656 13.525 75.4766 13.239 74.6099 13.239C73.7432 13.239 73.0499 13.525 72.5299 14.097C72.0099 14.669 71.7499 15.4533 71.7499 16.45C71.7499 17.4467 72.0099 18.231 72.5299 18.803C73.0499 19.375 73.7432 19.661 74.6099 19.661ZM83.1097 21.156C82.3037 21.156 81.6797 20.9047 81.2377 20.402C80.8043 19.8993 80.5877 19.1627 80.5877 18.192V14.552H82.2387V18.036C82.2387 18.5907 82.3513 19.0153 82.5767 19.31C82.802 19.6047 83.1573 19.752 83.6427 19.752C84.102 19.752 84.479 19.5873 84.7737 19.258C85.077 18.9287 85.2287 18.4693 85.2287 17.88V14.552H86.8927V21H85.4237L85.2937 19.908C85.0943 20.2893 84.804 20.5927 84.4227 20.818C84.05 21.0433 83.6123 21.156 83.1097 21.156ZM90.8239 21.156C90.2692 21.156 89.8142 21.0693 89.4589 20.896C89.1035 20.714 88.8392 20.4757 88.6659 20.181C88.4925 19.8863 88.4059 19.5613 88.4059 19.206C88.4059 18.608 88.6399 18.1227 89.1079 17.75C89.5759 17.3773 90.2779 17.191 91.2139 17.191H92.8519V17.035C92.8519 16.593 92.7262 16.268 92.4749 16.06C92.2235 15.852 91.9115 15.748 91.5389 15.748C91.2009 15.748 90.9062 15.8303 90.6549 15.995C90.4035 16.151 90.2475 16.385 90.1869 16.697H88.5619C88.6052 16.229 88.7612 15.8217 89.0299 15.475C89.3072 15.1283 89.6625 14.864 90.0959 14.682C90.5292 14.4913 91.0145 14.396 91.5519 14.396C92.4705 14.396 93.1942 14.6257 93.7229 15.085C94.2515 15.5443 94.5159 16.1943 94.5159 17.035V21H93.0989L92.9429 19.96C92.7522 20.3067 92.4835 20.5927 92.1369 20.818C91.7989 21.0433 91.3612 21.156 90.8239 21.156ZM91.2009 19.856C91.6775 19.856 92.0459 19.7 92.3059 19.388C92.5745 19.076 92.7435 18.6903 92.8129 18.231H91.3959C90.9539 18.231 90.6375 18.3133 90.4469 18.478C90.2562 18.634 90.1609 18.829 90.1609 19.063C90.1609 19.3143 90.2562 19.5093 90.4469 19.648C90.6375 19.7867 90.8889 19.856 91.2009 19.856ZM98.7688 21.156C98.1968 21.156 97.6941 21.065 97.2608 20.883C96.8275 20.6923 96.4808 20.4323 96.2208 20.103C95.9608 19.7737 95.8048 19.3923 95.7528 18.959H97.4298C97.4818 19.2103 97.6205 19.427 97.8458 19.609C98.0798 19.7823 98.3788 19.869 98.7428 19.869C99.1068 19.869 99.3711 19.7953 99.5358 19.648C99.7091 19.5007 99.7958 19.3317 99.7958 19.141C99.7958 18.8637 99.6745 18.6773 99.4318 18.582C99.1891 18.478 98.8511 18.3783 98.4178 18.283C98.1405 18.2223 97.8588 18.1487 97.5728 18.062C97.2868 17.9753 97.0225 17.867 96.7798 17.737C96.5458 17.5983 96.3551 17.425 96.2078 17.217C96.0605 17.0003 95.9868 16.736 95.9868 16.424C95.9868 15.852 96.2121 15.371 96.6628 14.981C97.1221 14.591 97.7635 14.396 98.5868 14.396C99.3495 14.396 99.9561 14.5737 100.407 14.929C100.866 15.2843 101.139 15.774 101.226 16.398H99.6528C99.5575 15.9213 99.1978 15.683 98.5738 15.683C98.2618 15.683 98.0191 15.7437 97.8458 15.865C97.6811 15.9863 97.5988 16.138 97.5988 16.32C97.5988 16.5107 97.7245 16.6623 97.9758 16.775C98.2271 16.8877 98.5608 16.9917 98.9768 17.087C99.4275 17.191 99.8391 17.308 100.212 17.438C100.593 17.5593 100.896 17.7457 101.122 17.997C101.347 18.2397 101.46 18.5907 101.46 19.05C101.468 19.4487 101.364 19.8083 101.148 20.129C100.931 20.4497 100.619 20.701 100.212 20.883C99.8045 21.065 99.3235 21.156 98.7688 21.156ZM105.604 21C104.928 21 104.386 20.8353 103.979 20.506C103.571 20.1767 103.368 19.5917 103.368 18.751V15.943H102.263V14.552H103.368L103.563 12.823H105.032V14.552H106.774V15.943H105.032V18.764C105.032 19.076 105.097 19.2927 105.227 19.414C105.365 19.5267 105.599 19.583 105.929 19.583H106.735V21H105.604ZM109.099 13.551C108.796 13.551 108.545 13.46 108.345 13.278C108.155 13.096 108.059 12.8663 108.059 12.589C108.059 12.3117 108.155 12.0863 108.345 11.913C108.545 11.731 108.796 11.64 109.099 11.64C109.403 11.64 109.65 11.731 109.84 11.913C110.04 12.0863 110.139 12.3117 110.139 12.589C110.139 12.8663 110.04 13.096 109.84 13.278C109.65 13.46 109.403 13.551 109.099 13.551ZM108.267 21V14.552H109.931V21H108.267ZM114.762 21.156C114.138 21.156 113.575 21.013 113.072 20.727C112.578 20.441 112.184 20.0467 111.889 19.544C111.603 19.0327 111.46 18.4433 111.46 17.776C111.46 17.1087 111.608 16.5237 111.902 16.021C112.197 15.5097 112.591 15.111 113.085 14.825C113.588 14.539 114.151 14.396 114.775 14.396C115.391 14.396 115.945 14.539 116.439 14.825C116.942 15.111 117.336 15.5097 117.622 16.021C117.917 16.5237 118.064 17.1087 118.064 17.776C118.064 18.4433 117.917 19.0327 117.622 19.544C117.336 20.0467 116.942 20.441 116.439 20.727C115.937 21.013 115.378 21.156 114.762 21.156ZM114.762 19.713C115.196 19.713 115.573 19.5527 115.893 19.232C116.214 18.9027 116.374 18.4173 116.374 17.776C116.374 17.1347 116.214 16.6537 115.893 16.333C115.573 16.0037 115.2 15.839 114.775 15.839C114.333 15.839 113.952 16.0037 113.631 16.333C113.319 16.6537 113.163 17.1347 113.163 17.776C113.163 18.4173 113.319 18.9027 113.631 19.232C113.952 19.5527 114.329 19.713 114.762 19.713ZM119.552 21V14.552H121.021L121.151 15.644C121.35 15.2627 121.636 14.9593 122.009 14.734C122.39 14.5087 122.837 14.396 123.348 14.396C124.145 14.396 124.765 14.6473 125.207 15.15C125.649 15.6527 125.87 16.3893 125.87 17.36V21H124.206V17.516C124.206 16.9613 124.093 16.5367 123.868 16.242C123.643 15.9473 123.292 15.8 122.815 15.8C122.347 15.8 121.961 15.9647 121.658 16.294C121.363 16.6233 121.216 17.0827 121.216 17.672V21H119.552ZM130.126 21.156C129.554 21.156 129.052 21.065 128.618 20.883C128.185 20.6923 127.838 20.4323 127.578 20.103C127.318 19.7737 127.162 19.3923 127.11 18.959H128.787C128.839 19.2103 128.978 19.427 129.203 19.609C129.437 19.7823 129.736 19.869 130.1 19.869C130.464 19.869 130.729 19.7953 130.893 19.648C131.067 19.5007 131.153 19.3317 131.153 19.141C131.153 18.8637 131.032 18.6773 130.789 18.582C130.547 18.478 130.209 18.3783 129.775 18.283C129.498 18.2223 129.216 18.1487 128.93 18.062C128.644 17.9753 128.38 17.867 128.137 17.737C127.903 17.5983 127.713 17.425 127.565 17.217C127.418 17.0003 127.344 16.736 127.344 16.424C127.344 15.852 127.57 15.371 128.02 14.981C128.48 14.591 129.121 14.396 129.944 14.396C130.707 14.396 131.314 14.5737 131.764 14.929C132.224 15.2843 132.497 15.774 132.583 16.398H131.01C130.915 15.9213 130.555 15.683 129.931 15.683C129.619 15.683 129.377 15.7437 129.203 15.865C129.039 15.9863 128.956 16.138 128.956 16.32C128.956 16.5107 129.082 16.6623 129.333 16.775C129.585 16.8877 129.918 16.9917 130.334 17.087C130.785 17.191 131.197 17.308 131.569 17.438C131.951 17.5593 132.254 17.7457 132.479 17.997C132.705 18.2397 132.817 18.5907 132.817 19.05C132.826 19.4487 132.722 19.8083 132.505 20.129C132.289 20.4497 131.977 20.701 131.569 20.883C131.162 21.065 130.681 21.156 130.126 21.156ZM134.91 18.166L134.858 16.021H135.456C135.898 16.021 136.301 15.982 136.665 15.904C137.029 15.826 137.319 15.6743 137.536 15.449C137.753 15.2237 137.861 14.8943 137.861 14.461C137.861 14.045 137.735 13.72 137.484 13.486C137.233 13.2433 136.899 13.122 136.483 13.122C136.05 13.122 135.712 13.2433 135.469 13.486C135.226 13.72 135.105 14.0407 135.105 14.448H133.532C133.523 13.928 133.636 13.4643 133.87 13.057C134.104 12.6497 134.442 12.329 134.884 12.095C135.335 11.861 135.872 11.744 136.496 11.744C137.077 11.744 137.588 11.8523 138.03 12.069C138.481 12.2857 138.832 12.5977 139.083 13.005C139.343 13.4037 139.473 13.8933 139.473 14.474C139.473 15.072 139.339 15.566 139.07 15.956C138.81 16.346 138.45 16.6363 137.991 16.827C137.54 17.0177 137.016 17.1173 136.418 17.126L136.379 18.166H134.91ZM135.651 21.091C135.348 21.091 135.096 20.9957 134.897 20.805C134.706 20.6143 134.611 20.3847 134.611 20.116C134.611 19.8387 134.706 19.6047 134.897 19.414C135.096 19.2233 135.348 19.128 135.651 19.128C135.954 19.128 136.201 19.2233 136.392 19.414C136.583 19.6047 136.678 19.8387 136.678 20.116C136.678 20.3847 136.583 20.6143 136.392 20.805C136.201 20.9957 135.954 21.091 135.651 21.091Z" fill="#9E1908"/>
</svg>
