<svg width="78" height="65" viewBox="0 0 78 65" fill="none" xmlns="http://www.w3.org/2000/svg">
<path d="M59.1404 35.9519C60.0503 35.0797 60.7614 34.0723 61.2578 32.9911C62.4042 30.5093 62.4399 27.6412 61.2313 25.168C60.0053 22.6583 57.6492 20.868 54.8885 20.2211C54.1078 20.0357 53.2928 19.9422 52.4619 19.9522C50.4246 30.4766 59.1404 35.9519 59.1404 35.9519Z" fill="#ED401A"/>
<path d="M59.141 35.9523C60.0511 35.08 60.7623 34.0726 61.2589 32.9913C60.1811 31.1122 59.0997 29.1129 58.0346 26.992C56.8606 24.6566 55.8185 22.3918 54.8883 20.2204C54.1074 20.0349 53.2922 19.9414 52.4611 19.9515C54.6873 25.2857 56.9132 30.6183 59.141 35.9523Z" fill="#C92009"/>
<path d="M5.59435 46.4042C6.38831 59.5609 37.3029 63.9899 51.9007 56.0796C55.9564 53.8823 58.7514 50.7306 59.2944 46.5506C61.7847 27.3245 48.9481 9.67921 33.9228 9.63888C28.4762 9.62374 22.0529 11.6359 16.695 16.1189C9.82761 21.8569 4.70204 31.6437 5.5946 46.4058L5.59435 46.4042Z" fill="#ED401A"/>
<path d="M60.1358 26.7603C60.2478 26.7035 62.8808 25.3203 64.9775 22.074C66.8955 19.1038 68.7041 13.9407 66.4309 6.21826L65.0254 6.62375C66.7204 12.387 66.3029 17.3116 63.7824 21.2639C61.9029 24.2118 59.4841 25.4944 59.461 25.5078L60.136 26.7619L60.1358 26.7603Z" fill="#ED401A"/>
<path d="M62.1522 6.31619C61.3058 4.69263 61.9784 2.69429 63.6544 1.85277C65.3303 1.01125 67.3751 1.64522 68.2215 3.26878C69.0678 4.89234 68.3952 6.89068 66.7193 7.7322C65.0433 8.57372 62.9985 7.93975 62.1522 6.31619Z" fill="#9E1908"/>
<path d="M13.7942 34.8088C13.7582 37.4471 16.7111 39.0804 20.5329 40.0552C24.5577 41.0846 29.5475 41.3833 33.023 41.3613C37.9997 41.3279 47.6088 40.5134 51.1118 37.4534C51.933 36.7374 52.4177 35.8949 52.4313 34.9147C52.4701 32.0576 51.2839 29.4665 49.3308 27.5863C47.3781 25.7076 44.6607 24.5426 41.6419 24.5352L24.8659 24.4905C21.3568 24.4803 18.2123 26.038 16.1794 28.4657C14.714 30.2172 13.8265 32.4173 13.7928 34.8107L13.7942 34.8088Z" fill="#9E1908"/>
<path d="M13.7961 34.8093C13.7602 37.4474 16.713 39.0805 20.5347 40.0553C24.5594 41.0846 29.5491 41.3833 33.0245 41.3613C38.0011 41.3279 47.61 40.5135 51.1129 37.4537C41.2614 37.1392 24.5294 35.5196 16.1827 28.4647C14.7173 30.2161 13.8299 32.416 13.7961 34.8093Z" fill="#590A04"/>
<path d="M5.59635 46.4036C6.39035 59.561 37.3065 63.9903 51.905 56.0795C43.0333 57.4857 16.6371 60.5558 12.0654 48.1805C8.13414 37.539 13.3702 23.3673 16.6973 16.1152C9.82957 21.8535 4.70375 31.6408 5.59635 46.4036Z" fill="#C92009"/>
<path d="M51.0448 22.6279C50.2294 23.6531 45.3379 21.4894 42.0657 19.1115C38.928 16.8332 35.7444 13.2445 36.4713 12.2332C37.117 11.3358 40.7337 12.6272 43.004 13.8158C48.0835 16.4766 51.933 21.5097 51.0448 22.6279Z" fill="#FFC3BD"/>
<path d="M57.9456 43.1325C57.7805 46.6474 55.5286 49.9769 54.6387 49.7483C53.7049 49.5071 54.1432 45.3097 54.6071 43.0037C54.7408 42.3417 55.5547 38.2924 56.5279 38.3122C57.294 38.327 58.0532 40.8564 57.9458 43.1341L57.9456 43.1325Z" fill="#FFC3BD"/>
<path d="M38.9141 32.6602C38.8762 35.2852 41.0333 37.4187 43.7315 37.423C45.8172 37.4279 47.6151 36.1613 48.3435 34.3742C48.5575 33.8482 48.6803 33.2763 48.6886 32.6802C48.7265 30.0551 46.5697 27.9233 43.8695 27.9176C41.883 27.9134 40.1576 29.0626 39.3716 30.717C39.0877 31.3111 38.9242 31.9676 38.9141 32.6602Z" fill="#590A04"/>
<path d="M43.0727 27.9764C41.4309 28.2355 40.0483 29.2899 39.3697 30.7171C39.0858 31.3111 38.9224 31.9677 38.9122 32.6603C38.8743 35.2853 41.0311 37.4172 43.7297 37.4231C44.0034 37.4239 44.2704 37.4029 44.5326 37.3615C46.2678 37.0876 47.7096 35.9278 48.3417 34.3742C48.5556 33.8483 48.6784 33.2764 48.6867 32.6802C48.7247 30.0552 46.5676 27.9217 43.8674 27.9161C43.5953 27.915 43.333 27.9336 43.0725 27.9748L43.0727 27.9764ZM42.9421 27.1772C43.2502 27.1286 43.5654 27.1049 43.8792 27.1042C47.0345 27.1114 49.5659 29.6127 49.523 32.6818C49.513 33.3647 49.378 34.0314 49.1187 34.6655C48.37 36.5064 46.6608 37.847 44.6585 38.163C44.3505 38.2117 44.0335 38.2356 43.7197 38.2363C42.1917 38.233 40.7637 37.6517 39.6972 36.5977C38.6323 35.5435 38.0563 34.1449 38.0776 32.6584C38.0889 31.8646 38.2688 31.0979 38.6141 30.38C39.4241 28.6746 41.043 27.477 42.9421 27.1772Z" fill="#ED401A"/>
<path d="M39.3748 30.7046C41.137 34.9987 45.6631 34.8816 48.3304 34.3894C48.546 33.8648 48.6703 33.2926 48.6801 32.6962C48.7258 30.0713 46.5762 27.9311 43.877 27.915C41.8918 27.9037 40.1655 29.0527 39.3748 30.7046Z" fill="#9E1908"/>
<path d="M44.0325 31.0922C44.0202 31.9647 44.7359 32.6718 45.6324 32.6739C46.5289 32.676 47.2638 31.9716 47.2761 31.0992C47.2883 30.2268 46.5727 29.5196 45.6762 29.5175C44.7797 29.5154 44.0448 30.2198 44.0325 31.0922Z" fill="#FFC3BD"/>
<path d="M39.9594 33.5831C39.6909 33.7559 40.0302 35.4123 41.23 36.0495C42.2961 36.615 43.7261 36.2053 43.7629 35.9012C43.7901 35.6769 43.0537 35.6137 41.8295 34.8841C40.5422 34.1156 40.1455 33.4625 39.9594 33.5831Z" fill="#FFC3BD"/>
<path d="M17.249 32.5518C17.2111 35.1768 19.3682 37.3103 22.0665 37.3146C24.1521 37.3195 25.95 36.0529 26.6785 34.2658C26.8924 33.7398 27.0153 33.1679 27.0236 32.5718C27.0615 29.9467 24.9046 27.8149 22.2045 27.8092C20.218 27.805 18.4926 28.9542 17.7066 30.6086C17.4226 31.2027 17.2592 31.8592 17.249 32.5518Z" fill="#590A04"/>
<path d="M21.4077 27.8684C19.7658 28.1276 18.3832 29.182 17.7047 30.6092C17.4208 31.2032 17.2573 31.8598 17.2472 32.5524C17.2093 35.1774 19.3661 37.3093 22.0646 37.3152C22.3384 37.316 22.6054 37.295 22.8675 37.2536C24.6028 36.9797 26.0446 35.8199 26.6766 34.2663C26.8905 33.7404 27.0134 33.1685 27.0217 32.5723C27.0596 29.9473 24.9025 27.8138 22.2024 27.8082C21.9303 27.8071 21.6679 27.8257 21.4074 27.8669L21.4077 27.8684ZM21.2771 27.0693C21.5851 27.0207 21.9004 26.997 22.2142 26.9963C25.3695 27.0035 27.9009 29.5048 27.8579 32.5739C27.848 33.2568 27.7129 33.9235 27.4537 34.5576C26.705 36.3985 24.9958 37.739 22.9935 38.0551C22.6854 38.1038 22.3685 38.1277 22.0547 38.1284C20.5266 38.1251 19.0986 37.5438 18.0321 36.4898C16.9673 35.4356 16.3912 34.0369 16.4126 32.5505C16.4238 31.7566 16.6038 30.9899 16.9491 30.2721C17.7591 28.5666 19.378 27.3691 21.2771 27.0693Z" fill="#ED401A"/>
<path d="M17.7097 30.5967C19.472 34.8908 23.9981 34.7737 26.6653 34.2814C26.8809 33.7568 27.0052 33.1847 27.015 32.5883C27.0607 29.9634 24.9112 27.8232 22.212 27.8071C20.2267 27.7958 18.5005 28.9448 17.7097 30.5967Z" fill="#9E1908"/>
<path d="M22.3675 30.9843C22.3552 31.8567 23.0708 32.5639 23.9673 32.566C24.8639 32.5681 25.5987 31.8637 25.611 30.9913C25.6233 30.1189 24.9077 29.4117 24.0112 29.4096C23.1146 29.4075 22.3798 30.1119 22.3675 30.9843Z" fill="#FFC3BD"/>
<path d="M18.2944 33.4752C18.0259 33.648 18.3652 35.3044 19.565 35.9416C20.6311 36.5071 22.0611 36.0974 22.0978 35.7933C22.1251 35.569 21.3886 35.5058 20.1644 34.7762C18.8771 34.0076 18.4804 33.3546 18.2944 33.4752Z" fill="#FFC3BD"/>
<path d="M31.7832 25.5864C31.7318 25.9024 33.9163 26.6519 36.1847 26.8621C39.8673 27.2033 43.261 26.0764 43.2174 25.6776C43.1974 25.4951 40.8669 25.4674 36.2051 25.4187C32.4604 25.3789 31.8111 25.4207 31.7832 25.5864Z" fill="#590A04"/>
<path d="M67.4705 4.22738C67.2766 5.19229 66.3189 5.83061 65.3297 5.652C64.3406 5.47339 63.695 4.54767 63.8889 3.58276C64.0829 2.61785 65.0406 1.97953 66.0297 2.15814C67.0189 2.33675 67.6644 3.26248 67.4705 4.22738Z" fill="#ED401A"/>
<path d="M31.0945 53.3365C33.1791 53.4593 34.881 52.4576 36.1588 51.1121C38.454 48.7002 39.3872 45.1781 38.716 45.059C37.6728 44.878 35.0279 46.5938 32.195 46.4276C28.9404 46.2367 26.8119 44.8904 25.1466 44.6902C25.071 44.6793 24.9995 44.6726 24.9269 44.6694C23.2283 44.5689 24.7004 52.9609 31.0945 53.3365Z" fill="#9E1908"/>
<path d="M31.0954 53.3363C33.1802 53.4591 34.8825 52.4572 36.1605 51.1114C33.3705 50.3923 27.92 48.5556 25.1465 44.6879C25.0709 44.677 24.9994 44.6704 24.9268 44.6671C23.228 44.5666 24.7003 52.9606 31.0954 53.3363Z" fill="#590A04"/>
</svg>
