<svg width="232" height="32" viewBox="0 0 232 32" fill="none" xmlns="http://www.w3.org/2000/svg">
<g clip-path="url(#clip0_726_1910)">
<path d="M29.7316 14.2662C30.4606 14.7979 31.1811 15.2298 31.7955 15.7892C34.0847 17.8766 34.4811 20.5349 33.7486 23.4646C32.8016 27.2557 29.275 30.068 25.5363 30.068C18.6337 30.068 11.7299 30.068 4.82736 30.068C4.27072 30.068 3.992 29.7843 3.9912 29.2168C3.9912 25.7542 3.97312 22.2915 4.00565 18.8288C4.01168 18.1671 3.80324 18.0042 3.21648 18.0269C2.1779 18.0686 1.1369 18.0383 0.00916446 18.0383C0.00916446 17.4965 0.00916446 17.0432 0.00916446 16.5898C0.00916446 15.1843 0.0260324 13.7775 -0.000474346 12.372C-0.0101131 11.8871 0.116396 11.7052 0.604361 11.7216C1.66704 11.757 2.73213 11.7002 3.7936 11.7456C4.37072 11.7696 4.55266 11.5865 4.54784 10.974C4.52253 7.721 4.53579 4.46796 4.53579 1.21619C4.53579 0.861333 4.53579 0.507742 4.53579 0.0745924C4.79965 0.0518616 5.00568 0.0190281 5.21171 0.0190281C11.9336 0.0165024 18.6566 -0.00875407 25.3785 0.0367077C26.8496 0.0468103 28.0858 0.892904 29.2364 1.77436C31.804 3.74184 32.557 6.47333 32.1618 9.65691C31.9305 11.5196 31.1919 13.0943 29.7304 14.2662H29.7316ZM10.8492 16.6062C10.8323 16.8651 10.8131 17.028 10.8131 17.1922C10.8106 19.2695 10.8275 21.3482 10.7998 23.4255C10.7926 23.9407 10.9613 24.0658 11.4215 24.0645C15.1337 24.0493 18.847 24.0683 22.5591 24.0481C23.6266 24.043 24.6652 23.8473 25.6171 23.2702C26.9689 22.4493 27.4183 21.2105 27.2291 19.6471C27.0689 18.3287 26.2845 17.5104 25.1604 17.1202C24.3194 16.8285 23.4074 16.6403 22.523 16.6277C18.8518 16.5747 15.1782 16.605 11.5058 16.605C11.3083 16.605 11.1107 16.605 10.8492 16.605V16.6062ZM10.842 11.9464C11.0335 11.9654 11.1697 11.9919 11.3058 11.9919C14.977 11.9919 18.6494 11.9944 22.3206 11.983C22.6363 11.983 22.9628 11.9325 23.2652 11.8378C24.5712 11.4287 25.593 10.6697 25.8797 9.18462C26.1942 7.55305 25.652 6.24223 24.3628 5.37972C23.6399 4.89606 22.8507 4.63213 21.982 4.63339C18.4711 4.63844 14.9602 4.63339 11.448 4.63592C11.254 4.63592 11.0613 4.65865 10.8408 4.67254V11.9477L10.842 11.9464Z" fill="white"/>
<path d="M40.3544 18.3427H37.1687C36.082 18.3427 35.5386 17.7706 35.5386 16.6265C35.5386 15.2197 35.5578 13.8129 35.5289 12.4074C35.5181 11.8972 35.6494 11.7103 36.1627 11.7229C37.5242 11.757 38.888 11.7343 40.3387 11.7343V0.0152803C40.6399 0.0152803 40.8556 0.0152803 41.07 0.0152803C49.2594 0.0152803 57.4488 0.0228573 65.6381 0.0039149C66.2309 0.00265208 66.4514 0.139037 66.4333 0.798232C66.39 2.39192 66.4008 3.98939 66.4285 5.58308C66.4382 6.13493 66.2683 6.29026 65.7406 6.289C59.538 6.27006 53.3354 6.27763 47.134 6.27763C46.8979 6.27763 46.6617 6.27763 46.3846 6.27763V11.733C46.6485 11.733 46.8834 11.733 47.1172 11.733C51.433 11.733 55.7487 11.7444 60.0633 11.7204C60.644 11.7166 60.8151 11.8909 60.8019 12.4958C60.7645 14.1741 60.7621 15.8549 60.8019 17.5332C60.8175 18.1684 60.644 18.3591 60.0296 18.3553C55.7343 18.33 51.439 18.3414 47.1437 18.3427C46.6087 18.3427 46.3413 18.6293 46.3413 19.2027C46.3413 20.4617 46.375 21.7233 46.3268 22.981C46.3027 23.6137 46.516 23.7375 47.0774 23.7349C53.1993 23.7147 59.3211 23.7223 65.4442 23.7223C66.094 23.7223 66.4193 24.0708 66.4201 24.7679C66.4201 26.4058 66.4092 28.0424 66.4261 29.6803C66.4309 30.1539 66.3032 30.3408 65.8104 30.3408C57.5211 30.3256 49.2305 30.3256 40.9411 30.3408C40.4435 30.3408 40.3447 30.1539 40.3471 29.6841C40.3628 26.2 40.3556 22.7146 40.3568 19.2304C40.3568 18.9791 40.3568 18.7291 40.3568 18.3439L40.3544 18.3427Z" fill="white"/>
<path d="M203.094 0.0165608H203.737C208.131 0.0165608 212.525 0.0254006 216.919 0.00393253C217.418 0.00140688 217.657 0.180728 217.875 0.634082C222.481 10.2139 227.103 19.7861 231.721 29.3608C231.808 29.5414 231.881 29.7308 232.003 30.0125C231.731 30.0365 231.545 30.0668 231.358 30.0668C229.332 30.0705 227.305 30.0554 225.279 30.0794C224.829 30.0844 224.594 29.9089 224.392 29.5124C223.628 28.0147 222.827 26.5384 222.063 25.042C221.862 24.648 221.629 24.4586 221.18 24.4611C217.227 24.4775 213.275 24.4762 209.322 24.4611C208.87 24.4598 208.65 24.6366 208.476 25.0622C207.86 26.5624 207.219 28.0526 206.549 29.5275C206.444 29.7586 206.143 30.0415 205.93 30.0453C203.562 30.0806 201.195 30.0655 198.827 30.0617C198.75 30.0617 198.673 30.0289 198.466 29.9809C202.362 22.1981 206.236 14.4595 210.17 6.60093C209.831 6.60093 209.618 6.60093 209.406 6.60093C207.479 6.60093 205.554 6.59714 203.627 6.60346C203.265 6.60346 203.007 6.55547 203.011 6.07055C203.025 4.20283 203.017 2.33637 203.021 0.468652C203.021 0.346158 203.06 0.223664 203.095 0.0178236L203.094 0.0165608ZM220.042 19.5083C218.418 16.2098 216.835 12.9946 215.173 9.62161C213.549 13.0199 212.017 16.2262 210.448 19.5083H220.042Z" fill="white"/>
<path d="M173.514 11.3202V11.9895C173.514 17.7404 173.514 23.4913 173.514 29.2422C173.514 29.7911 173.25 30.0664 172.72 30.0681C171.174 30.0681 169.629 30.0529 168.084 30.0769C167.637 30.0845 167.453 29.9267 167.485 29.467C167.497 29.3003 167.485 29.1311 167.485 28.9631C167.485 19.7066 167.485 10.4501 167.485 1.19485C167.485 0.845049 167.485 0.495246 167.485 0.0229492C174.565 6.18428 181.524 12.2408 188.583 18.3832V0.0747251H194.551V30.8283C187.554 24.2566 180.611 17.7341 173.666 11.2116C173.615 11.2482 173.565 11.2848 173.515 11.3202H173.514Z" fill="white"/>
<path d="M161.728 16.0544C161.838 24.8828 154.901 32.2261 146.044 31.995C138.251 31.7917 131.04 25.0356 131.16 15.7614C131.271 7.14639 138.362 -0.185572 146.806 0.00764017C155.295 0.202115 161.869 7.63005 161.727 16.0544H161.728ZM146.4 27.3579C152.058 27.4741 156.96 22.5806 157.068 16.2034C157.166 10.2883 152.675 4.96297 146.547 4.90993C140.68 4.85942 135.871 9.69604 135.85 15.9546C135.827 22.8799 141.064 27.4211 146.401 27.3579H146.4Z" fill="white"/>
<path d="M96.5098 30.0779H95.7965C87.9903 30.0779 80.1829 30.0779 72.3766 30.0779C71.8288 30.0779 71.5545 29.7921 71.5537 29.2204C71.5573 19.7757 71.5621 10.3323 71.5658 0.887665C71.5658 0.308449 71.836 0.01842 72.3766 0.0175781C73.7008 0.0175781 75.0261 0.0175781 76.3502 0.0175781C77.2081 0.0175781 77.637 0.4562 77.637 1.33344C77.637 7.73471 77.637 14.136 77.637 20.5372C77.637 21.377 77.6635 22.2181 77.6274 23.0553C77.6045 23.5769 77.7671 23.736 78.2695 23.7334C82.1624 23.7145 86.0565 23.7145 89.9494 23.7334C90.4542 23.736 90.594 23.5743 90.5867 23.0553C90.559 21.2507 90.5879 19.4449 90.5675 17.6403C90.5626 17.1819 90.6819 17.0127 91.141 17.019C92.7663 17.043 94.3917 17.0342 96.017 17.024C96.3724 17.0215 96.57 17.0859 96.5688 17.5355C96.5556 21.5854 96.5616 25.6365 96.5592 29.6877C96.5592 29.7887 96.5339 29.8885 96.5098 30.0791V30.0779Z" fill="white"/>
<path d="M103.356 15.0035C103.356 10.2805 103.356 5.5588 103.356 0.835829C103.356 0.017518 103.358 0.017518 104.151 0.0162551C105.656 0.0162551 107.162 0.0490886 108.667 -0.000161591C109.291 -0.0203668 109.439 0.191788 109.438 0.816887C109.419 8.0794 109.426 15.3406 109.426 22.6032C109.426 22.7926 109.44 22.982 109.423 23.1702C109.388 23.568 109.528 23.7574 109.932 23.7245C110.231 23.7005 110.533 23.7208 110.834 23.7208C114.446 23.7208 118.06 23.7106 121.672 23.7321C122.208 23.7346 122.397 23.6008 122.383 23.0022C122.343 21.2191 122.38 19.4347 122.361 17.6504C122.356 17.2084 122.444 17.0101 122.92 17.0177C124.545 17.0442 126.172 17.0429 127.796 17.0177C128.265 17.0101 128.364 17.2008 128.362 17.6478C128.349 21.5942 128.349 25.5392 128.366 29.4856C128.368 29.9642 128.218 30.0854 127.779 30.0841C119.832 30.0728 111.884 30.0702 103.937 30.0879C103.373 30.0879 103.338 29.8151 103.339 29.358C103.349 24.5732 103.345 19.7871 103.345 15.0022C103.349 15.0022 103.352 15.0022 103.356 15.0022V15.0035Z" fill="white"/>
<path d="M224.073 7.66416C222.143 7.65532 220.394 5.84696 220.403 3.86937C220.413 1.82233 222.197 -0.0529634 224.166 0.0341716C226.099 0.120044 227.706 1.83244 227.711 3.96661C227.714 5.86464 225.922 7.673 224.073 7.66416ZM224.067 6.95572C225.393 6.97971 227.016 5.32289 227.034 3.9262C227.053 2.503 225.484 0.769136 224.144 0.731251C222.741 0.692104 221.101 2.37671 221.083 3.87695C221.066 5.28121 222.665 6.93046 224.067 6.95572Z" fill="white"/>
<path d="M225.857 5.91903C225.222 6.14633 224.901 5.98469 224.652 5.4442C224.181 4.41753 224 4.32029 223.215 4.4592C223.215 4.81153 223.252 5.18785 223.2 5.55028C223.176 5.7195 222.981 5.86094 222.864 6.015C222.743 5.86472 222.521 5.71697 222.518 5.56417C222.488 4.51603 222.503 3.46662 222.501 2.41721C222.501 2.07372 222.66 1.9285 222.985 1.93481C223.467 1.94491 223.949 1.92597 224.43 1.9386C225.085 1.95502 225.441 2.25557 225.547 2.85794C225.624 3.2974 225.223 3.89093 224.647 4.09929C225.044 4.69914 225.431 5.28004 225.857 5.92155V5.91903ZM223.788 3.66615C224.149 3.63457 224.588 3.72171 224.626 3.12944C224.662 2.57128 224.26 2.68619 223.965 2.68493C223.626 2.68367 223.215 2.56496 223.214 3.1888C223.213 3.65225 223.438 3.71034 223.788 3.66615Z" fill="white"/>
</g>
<defs>
<clipPath id="clip0_726_1910">
<rect width="232" height="32" fill="white"/>
</clipPath>
</defs>
</svg>
