<?xml version="1.0" encoding="UTF-8"?>
<svg xmlns="http://www.w3.org/2000/svg" version="1.1" viewBox="0 0 398.42 243.16">
  <defs>
    <style>
      .cls-1 {
        fill: #787576;
      }

      .cls-2 {
        fill: #f18d1c;
      }

      .cls-3 {
        fill: #f8f9f3;
      }

      .cls-4 {
        fill: #787677;
      }

      .cls-5 {
        fill: #777576;
      }

      .cls-6 {
        fill: #f8ca96;
      }

      .cls-7 {
        fill: #99cfe0;
      }

      .cls-8 {
        fill: #f6f7f2;
      }

      .cls-9 {
        fill: #f08c1c;
      }

      .cls-10 {
        fill: #f5f7f1;
      }
    </style>
  </defs>
  <!-- Generator: Adobe Illustrator 28.7.1, SVG Export Plug-In . SVG Version: 1.2.0 Build 142)  -->
  <g>
    <g id="Layer_1">
      <g>
        <path class="cls-6" d="M341.86,146.33l-.08.03h-.08c-.29-.23-.35-.56-.33-.88.08-1.17-.34-2.39.32-3.5.06,0,.11,0,.17.02v4.34Z"/>
        <path class="cls-9" d="M341.69,141.98c-.01.26-.05.52-.04.78.04,1.04.07,2.08,0,3.12,0,.16.03.32.04.48-.1,2.12-.85,4.04-1.92,5.82-2.42,4.02-5.98,6.43-10.58,7.31-.58.11-1.17.16-1.76.21-1.34.1-2.68.16-4.02.26-1.37.1-2.74.21-4.12.31-1.08.08-2.16.16-3.24.23-1.37.09-2.75.16-4.12.26-1.37.1-2.74.21-4.12.32-.95.07-1.9.14-2.84.2-1.34.09-2.69.14-4.02.26-1.7.15-3.41.16-5.09.41-.47.37-1.05.4-1.59.43-3.28.16-6.55.42-9.82.66-4.19.31-8.38.59-12.57.9-3.24.24-6.48.44-9.72.66-3.27.23-6.55.45-9.82.7-3.21.24-6.42.44-9.62.67-3.34.24-6.68.46-10.02.71-2.29.16-4.58.31-6.87.48-3.37.25-6.74.45-10.11.71-2.29.17-4.58.3-6.87.47-3.37.25-6.74.46-10.11.71-2.22.16-4.45.33-6.68.47-3.41.22-6.81.48-10.21.71-2.23.15-4.45.33-6.68.47-3.34.21-6.68.48-10.02.7-2.29.16-4.58.33-6.87.47-3.37.22-6.74.48-10.11.71-2.26.16-4.52.31-6.78.47-3.44.25-6.87.49-10.31.72-3.21.22-6.42.45-9.62.67-3.34.23-6.68.46-10.02.7-2.68.19-5.37.42-8.06.51-.23,0-.46,0-.65-.17-.92-.07-1.84.02-2.75.08-1.28.08-2.55.21-3.83.3-1.41.1-2.82.17-4.23.26-1.31.09-2.62.21-3.93.31-.98.07-1.96.14-2.95.21-1.38.09-2.75.18-4.13.25-.95.05-1.89.19-2.85.18-6.96-.12-12.82-4.82-14.57-11.31-.31-1.15-.44-2.32-.54-3.5-.11-1.41-.18-2.82-.28-4.23-.16-2.29-.34-4.58-.5-6.87-.07-1.01-.15-2.03-.21-3.04-.16-2.42-.31-4.85-.48-7.27-.22-3.18-.47-6.35-.7-9.52-.08-1.15-.15-2.29-.23-3.44-.18-2.59-.37-5.17-.55-7.76-.07-1.01-.14-2.03-.21-3.05-.16-2.42-.31-4.85-.48-7.27-.22-3.18-.47-6.35-.7-9.52-.07-.98-.14-1.96-.21-2.95-.16-2.42-.31-4.85-.48-7.27-.22-3.18-.47-6.35-.7-9.52-.1-1.34-.17-2.69-.26-4.03-.07-1.15-.15-2.29-.23-3.44-.01-.2-.07-.39-.09-.58-.03-.36-.1-.72-.07-1.08.24-2.67.81-5.25,2.24-7.57.5-.81,1.06-1.58,1.68-2.3.15-.17.29-.36.43-.53.15-.12.31-.24.45-.37,2.4-2.3,5.27-3.64,8.55-4.12.71-.1,1.44-.14,2.16-.19,1.38-.09,2.75-.16,4.13-.26,1.38-.1,2.75-.21,4.12-.32,1.08-.08,2.16-.16,3.24-.23,1.38-.09,2.75-.16,4.13-.26,1.31-.09,2.62-.21,3.93-.31,1.05-.08,2.1-.15,3.14-.22,1.38-.09,2.75-.16,4.13-.26,1.38-.1,2.75-.21,4.12-.32.95-.07,1.9-.14,2.85-.2,1.34-.09,2.69-.16,4.03-.26,1.41-.1,2.82-.21,4.22-.32,1.05-.08,2.1-.16,3.14-.22,1.38-.09,2.75-.16,4.13-.26,1.38-.1,2.75-.22,4.12-.32.98-.07,1.96-.14,2.95-.21,1.38-.09,2.75-.16,4.13-.26,1.38-.1,2.75-.21,4.12-.32,1.08-.08,2.16-.16,3.24-.23,1.38-.09,2.75-.16,4.13-.26,2.29-.16,4.58-.35,6.87-.51,1.34-.1,2.69-.16,4.03-.26,1.44-.1,2.88-.22,4.32-.33.98-.07,1.96-.14,2.95-.21,1.34-.09,2.69-.16,4.03-.25,1.41-.1,2.82-.21,4.22-.32,1.05-.08,2.1-.16,3.14-.22,1.38-.09,2.75-.16,4.13-.26,1.34-.09,2.68-.21,4.03-.31,1.01-.08,2.03-.15,3.05-.22,1.38-.09,2.75-.16,4.13-.26,1.38-.1,2.75-.21,4.12-.32,1.08-.08,2.16-.16,3.24-.23,1.38-.09,2.75-.16,4.13-.26,2.29-.16,4.58-.35,6.87-.51,1.34-.1,2.69-.16,4.03-.26,1.44-.1,2.88-.22,4.32-.32.98-.07,1.96-.14,2.95-.21,1.34-.09,2.69-.16,4.03-.25,1.41-.1,2.82-.21,4.22-.32,1.05-.08,2.1-.16,3.14-.22,1.38-.09,2.75-.16,4.13-.26,1.34-.09,2.68-.21,4.03-.31,1.01-.08,2.03-.15,3.05-.22,1.38-.09,2.75-.16,4.13-.26,1.38-.1,2.75-.21,4.12-.32,1.01-.08,2.03-.15,3.05-.21,1.34-.09,2.69-.16,4.03-.25,1.38-.1,2.75-.21,4.12-.31,1.08-.08,2.16-.16,3.24-.23,1.38-.09,2.75-.16,4.13-.26,1.38-.1,2.75-.22,4.12-.32.95-.07,1.9-.14,2.85-.2,1.34-.09,2.69-.16,4.03-.25,1.41-.1,2.81-.21,4.22-.32.98-.07,1.96-.15,2.95-.21,1.34-.09,2.69-.16,4.03-.26,1.44-.1,2.88-.22,4.32-.33,1.08-.08,2.16-.16,3.24-.23,1.38-.09,2.75-.16,4.13-.26,1.31-.09,2.62-.21,3.93-.31,1.01-.08,2.03-.15,3.05-.21,1.34-.09,2.69-.16,4.03-.25,1.34-.09,2.68-.2,4.03-.3,1.74-.13,3.49-.23,5.22-.05,2.11.21,4.1.91,5.91,2.03,4.23,2.61,6.67,6.4,7.36,11.32.11.81.14,1.63.2,2.45.16,2.42.31,4.85.48,7.27.22,3.18.46,6.35.7,9.52.07.98.14,1.96.21,2.95.16,2.42.31,4.85.48,7.27.22,3.18.47,6.35.7,9.52.07.98.14,1.96.21,2.95.16,2.42.31,4.85.48,7.27.22,3.18.47,6.35.7,9.52.09,1.18.15,2.36.23,3.54.18,2.55.37,5.11.55,7.66.07,1.01.15,2.03.21,3.04.16,2.42.31,4.85.48,7.27.16,2.23.34,4.45.5,6.68.06.85.06,1.71.08,2.56Z"/>
        <path class="cls-5" d="M102.72,175.48c.39-.05.78-.13,1.17-.15,1.77-.11,3.54-.18,5.3-.38.07,0,.13,0,.2-.01,1.44-.08,2.89-.1,4.32-.26,1.24-.14,2.49-.06,3.72-.3.06-.01.13-.01.2-.01,1.47-.08,2.96-.1,4.42-.27,1.27-.15,2.56-.06,3.82-.3.06-.01.13-.01.2-.02,1.44-.08,2.88-.15,4.32-.25,1.31-.09,2.61-.21,3.92-.32.1,0,.2-.02.29-.02,1.47-.08,2.95-.1,4.42-.27,1.27-.15,2.56-.06,3.82-.31.06-.01.13-.01.2-.02,1.47-.08,2.95-.15,4.42-.25,1.27-.09,2.55-.21,3.82-.32.07,0,.13-.01.2-.02,1.31-.08,2.62-.15,3.93-.24,1.47-.1,2.94-.23,4.41-.34.07,0,.13-.01.2-.01,1.47-.08,2.96-.09,4.42-.27,1.27-.15,2.56-.06,3.82-.3.06-.01.13-.01.2-.02,1.41-.08,2.82-.09,4.22-.26,1.37-.17,2.76-.06,4.12-.32.06-.01.13-.01.2-.01,1.41-.08,2.82-.09,4.22-.26,1.34-.16,2.69-.06,4.02-.31.06-.01.13-.01.2-.02,1.41-.08,2.82-.09,4.22-.26,1.34-.17,2.69-.06,4.02-.31.06-.01.13-.01.2-.02,1.38-.08,2.75-.15,4.12-.24,1.34-.09,2.68-.22,4.02-.33.07,0,.13-.01.2-.02,1.44-.08,2.88-.15,4.32-.25,1.31-.09,2.61-.21,3.92-.32.07,0,.13-.01.2-.02,1.28-.08,2.55-.14,3.83-.23,1.5-.11,3.01-.23,4.51-.35.07,0,.13-.01.2-.01,1.47-.08,2.96-.09,4.42-.27,1.27-.15,2.56-.06,3.82-.3.06-.01.13-.01.2-.02,1.44-.08,2.88-.15,4.32-.25,1.31-.09,2.61-.21,3.92-.32.07,0,.13-.01.2-.02,1.34-.08,2.69-.15,4.03-.24,1.44-.1,2.87-.22,4.31-.34.07,0,.13-.01.2-.02,1.47-.08,2.95-.15,4.42-.25,1.27-.09,2.55-.21,3.82-.32.07,0,.13-.01.2-.02,1.28-.08,2.55-.14,3.83-.23,1.5-.11,3.01-.23,4.51-.35.07,0,.13-.01.2-.01,1.41-.08,2.82-.09,4.22-.26,1.34-.16,2.69-.06,4.02-.31.06-.01.13-.01.2-.02,1.41-.08,2.82-.09,4.22-.26,1.37-.17,2.76-.06,4.12-.32.06-.01.13-.01.2-.01,1.41-.08,2.82-.09,4.22-.26,1.27-.16,2.56-.06,3.82-.3.06-.01.13-.01.2-.02,1.44-.08,2.88-.15,4.32-.25,1.31-.09,2.61-.22,3.92-.32.29-.02.59-.02.88-.02,0,.33.02.66.02.98,0,11.57,0,23.15,0,34.72,0,.56,0,1.11-.11,1.66-.45,2.3-1.8,3.8-4.01,4.55-.31.11-.64.15-.95.23-.59,0-1.18,0-1.77,0-59.85,0-119.7,0-179.55,0-.56,0-1.12.02-1.67.02-.35-.09-.71-.15-1.05-.26-2.35-.72-4.03-2.94-4.05-5.36,0-.29,0-.59,0-.88,0-7.05,0-14.09,0-21.14,0-.33,0-.66.01-.98Z"/>
        <path class="cls-3" d="M171.15,104.31c.32,0,.46-.2.63-.34.9-.72,1.82-1.41,2.81-1.99,1.34-.79,2.76-1.39,4.29-1.66,1.47-.25,2.94-.28,4.4.07,1.81.44,3.11,1.49,3.86,3.2.07.15.13.3.21.45.08.14.22.15.33.06.21-.15.41-.33.62-.49,1.5-1.19,3.09-2.21,4.91-2.85,1.78-.62,3.6-.79,5.44-.51,2.7.41,4.38,1.94,4.98,4.62.14.64.23,1.29.23,1.95,0,6.17,0,12.35,0,18.52,0,.13,0,.26-.01.39-.01.19-.12.29-.31.3-.1,0-.2.01-.3.01-1.61,0-3.22,0-4.83,0-.1,0-.2,0-.3,0-.23,0-.37-.11-.38-.35,0-.3,0-.59,0-.89,0-5.12,0-10.24,0-15.37,0-.69-.01-1.37-.18-2.05-.26-1.07-.9-1.7-2.01-1.88-1.31-.22-2.55,0-3.74.53-.96.43-1.86.98-2.73,1.57-1.55,1.05-1.26.49-1.26,2.32-.02,4.93,0,9.85,0,14.78,0,.26,0,.53,0,.79-.02.49-.07.56-.58.56-1.64,0-3.28,0-4.93,0-.07,0-.13,0-.2,0-.24-.02-.34-.16-.34-.39,0-.3,0-.59,0-.89,0-5.22,0-10.44,0-15.66,0-.59-.01-1.18-.16-1.76-.27-1.03-.89-1.63-1.95-1.83-1.31-.25-2.55-.03-3.75.48-.97.42-1.86.97-2.74,1.55-.41.27-.91.49-1.18.86-.28.39-.1.96-.1,1.45,0,5.02,0,10.05,0,15.07,0,1.22.12,1.12-1.1,1.12-1.38,0-2.76,0-4.14,0-.23,0-.46,0-.69-.01-.18-.01-.3-.11-.31-.31-.01-.23-.01-.46-.01-.69,0-7.75,0-15.5,0-23.25,0-1.02-.04-.97.96-.97,1.18,0,2.37,0,3.55,0,.44,0,.62-.04.65.61.03.52.11,1.04.15,1.57.03.45.09.89.21,1.31Z"/>
        <path class="cls-3" d="M82.03,104.2c.35-.32.56-.52.78-.72,1.81-1.59,3.85-2.74,6.25-3.15,1.83-.32,3.66-.29,5.46.27,1.81.56,3.16,1.69,4.08,3.34.71,1.28,1.12,2.66,1.37,4.09.53,3.1.55,6.21.16,9.32-.15,1.2-.46,2.38-.91,3.51-1.16,2.87-3.31,4.59-6.26,5.34-1.11.28-2.25.44-3.41.46-3.79.08-7.54-.28-11.22-1.21-.69-.17-1.41-.29-2.01-.73-.16-.65-.07-1.31-.07-1.96,0-10.48,0-20.95,0-31.43,0-1.5-.14-1.32,1.31-1.33,1.28,0,2.56,0,3.84,0,.23,0,.46,0,.69,0,.23,0,.37.12.39.35.01.16.01.33.01.49,0,2.86,0,5.71,0,8.57,0,1.45-.08,2.89-.42,4.3-.02.09,0,.19,0,.46Z"/>
        <path class="cls-3" d="M115.19,116.11c-1.61,0-3.22,0-4.83,0-.26,0-.53,0-.79.01-.25.01-.37.14-.34.37.04.32.09.65.17.97.11.44.24.89.4,1.31.54,1.4,1.58,2.21,3.03,2.54.55.12,1.09.21,1.65.22,2.1.05,4.2.04,6.3-.17,1.27-.13,2.55-.22,3.82-.34.24-.02.37.07.41.31.13.91.27,1.82.39,2.73.14,1,.13,1.01-.77,1.33-1.12.4-2.27.65-3.43.84-2.7.46-5.42.52-8.15.39-1.34-.06-2.67-.31-3.95-.72-2.79-.9-4.65-2.73-5.62-5.49-.38-1.09-.61-2.21-.76-3.35-.23-1.8-.26-3.6-.17-5.41.08-1.61.26-3.2.74-4.75.13-.41.26-.81.42-1.21,1.14-2.77,3.24-4.38,6.11-5.06,1.09-.26,2.19-.42,3.31-.45,1.87-.05,3.74-.07,5.6.24,1.27.21,2.49.56,3.64,1.17,1.96,1.03,3.14,2.65,3.6,4.79.35,1.66.35,3.33,0,4.98-.53,2.5-2.18,4.35-5.27,4.64-.82.08-1.64.09-2.46.11-1.02.02-2.04,0-3.05,0Z"/>
        <path class="cls-3" d="M128.52,113.4c0-3.74,0-7.49,0-11.23,0-.26,0-.53,0-.79.02-.52.04-.55.58-.55,1.38,0,2.76,0,4.14,0,.5,0,.54.06.6.57.1.88.18,1.76.27,2.64.03.31.2.38.47.19.82-.54,1.62-1.12,2.46-1.63,1.84-1.11,3.8-1.95,5.93-2.31,1.53-.25,3.08-.29,4.59.11,2.06.55,3.45,1.82,4.08,3.88.21.69.36,1.4.37,2.12,0,.36.01.72.01,1.08,0,5.81,0,11.62,0,17.43,0,1.22.11,1.1-1.11,1.11-1.38,0-2.76,0-4.14,0-1.13,0-1.04.06-1.04-1.09,0-.2,0-.39,0-.59,0-4.89,0-9.78,0-14.68,0-.56,0-1.12-.03-1.67-.02-.33-.07-.65-.14-.97-.21-.94-.79-1.45-1.76-1.58-.9-.13-1.77,0-2.64.17-.64.12-1.26.34-1.87.59-1.4.57-2.73,1.28-4.05,2.02-.33.19-.47.42-.44.79.02.23,0,.46,0,.69,0,4.99,0,9.98,0,14.97,0,.26,0,.53,0,.79-.02.51-.06.56-.58.56-1.71,0-3.42,0-5.12,0-.57,0-.58-.02-.59-.64,0-.23,0-.46,0-.69,0-3.78,0-7.55,0-11.33Z"/>
        <path class="cls-3" d="M286.61,113.01c0-3.87,0-7.75,0-11.62,0-.88,0-.88.85-.89.46,0,.92,0,1.38,0,.31,0,.39.1.42.42.05.62.09,1.24.13,1.87.03.49.04.98.06,1.48,0,.14.17.2.29.11.26-.2.52-.41.77-.61,1.31-1.05,2.7-1.98,4.23-2.69,1.78-.83,3.64-1.29,5.62-1.24.76.02,1.5.15,2.22.38,1.53.47,2.63,1.44,3.28,2.91.08.18.17.36.22.55.24.83.22.87.99.24,1.46-1.19,3.01-2.22,4.74-2.98,1.71-.75,3.48-1.15,5.35-1.1.63.02,1.24.12,1.84.28,2.31.6,3.6,2.15,4.11,4.43.18.81.21,1.62.21,2.45,0,5.81,0,11.62,0,17.44,0,.2,0,.39,0,.59-.02.33-.08.41-.4.42-.79.01-1.58.01-2.37,0-.37,0-.43-.08-.44-.49-.01-.3,0-.59,0-.89,0-5.06,0-10.11,0-15.17,0-.79-.06-1.57-.09-2.36-.02-.47-.13-.91-.27-1.35-.45-1.38-1.42-2.17-2.85-2.4-1.53-.25-3.01-.06-4.44.53-.63.26-1.26.57-1.85.91-1.29.73-2.48,1.61-3.67,2.48-.26.19-.42.39-.39.73.02.26,0,.53,0,.79,0,5.39,0,10.77,0,16.16,0,1.16.11,1.07-1.05,1.07-.59,0-1.18,0-1.77-.01-.19,0-.3-.11-.31-.3-.01-.3-.01-.59-.01-.89,0-5.45,0-10.9,0-16.35,0-.69-.04-1.38-.17-2.06-.32-1.7-1.4-2.89-3.33-3.09-1.54-.16-3.01.06-4.42.67-.42.18-.83.39-1.24.61-1.41.78-2.72,1.71-4.03,2.65-.26.19-.41.4-.38.74.02.26,0,.53,0,.79,0,5.39,0,10.77,0,16.16,0,1.22.12,1.08-1.12,1.09-.59,0-1.18,0-1.77-.01-.19,0-.3-.12-.31-.31-.01-.3-.01-.59-.01-.89,0-3.74,0-7.49,0-11.23Z"/>
        <path class="cls-3" d="M253.89,102.09c0-.15.02-.32,0-.47-.16-.94-.14-1.9-.14-2.85,0-2.82,0-5.65,0-8.47,0-.2,0-.39.01-.59,0-.19.11-.31.3-.31.85,0,1.71,0,2.56,0,.25,0,.34.16.34.38,0,.26,0,.53,0,.79,0,11.23,0,22.46,0,33.69,0,1.35.14,1.18-1.23,1.19-.39,0-.79.06-1.24-.08-.24-1.15-.16-2.38-.43-3.57-.32,0-.48.24-.67.39-1.2.97-2.47,1.84-3.86,2.54-2.05,1.02-4.2,1.49-6.48,1.3-1.95-.16-3.72-.76-5.1-2.25-.68-.74-1.17-1.58-1.54-2.5-.53-1.32-.82-2.7-.99-4.1-.27-2.19-.28-4.39-.17-6.59.08-1.61.27-3.21.75-4.75.15-.5.33-1,.54-1.48,1.09-2.49,3.01-3.9,5.68-4.33,3.16-.5,6.21.02,9.18,1.11.62.23,1.21.51,1.81.77.21.09.39.24.69.19Z"/>
        <path class="cls-3" d="M335.77,143.94c.03,4.03-1.71,6.99-5.33,8.8-1.13.57-2.36.78-3.61.86-2.68.19-5.37.38-8.05.56-1.34.09-2.69.16-4.03.25-1.41.1-2.81.22-4.22.32-.92.07-1.83.13-2.75.19-1.54.1-3.08.2-4.62.29-.43.02-.5-.06-.52-.51-.14-2.66,1.79-5.35,4.69-5.83.32-.05.65-.12.97-.14,1.38-.09,2.75-.16,4.13-.26,1.37-.1,2.75-.22,4.12-.32,1.31-.09,2.62-.16,3.93-.26,1.47-.1,2.94-.22,4.42-.32.59-.04,1.18-.05,1.77-.1,1.32-.11,2.28-.74,2.8-1.99.14-.34.2-.69.19-1.06-.02-.59-.04-1.18-.08-1.77-.09-1.21-.21-2.42-.28-3.63-.16-2.69,1.6-5.55,5.01-6.08.1-.02.2-.02.29-.02.21,0,.39.04.41.3.03.33.09.65.11.98.2,2.75.39,5.5.58,8.25.03.49.05.98.07,1.48Z"/>
        <path class="cls-3" d="M62.75,71.68c.11-4.67,3.28-8.26,7.64-9.05.71-.13,1.44-.15,2.16-.21.92-.07,1.83-.14,2.75-.19,1.41-.09,2.82-.16,4.23-.26,1.34-.09,2.68-.21,4.02-.32,1.01-.08,2.03-.15,3.05-.21,1.41-.09,2.82-.16,4.23-.26,1.34-.09,2.68-.23,4.02-.31,1.05-.07,1.2-.24,1.08,1.09-.31,3.53-3.16,5.33-5.66,5.38-1.47.03-2.95.21-4.42.32-.95.07-1.9.09-2.85.19-1.34.14-2.69.17-4.03.27-1.44.1-2.88.22-4.32.33-.98.07-1.97.11-2.95.22-1.87.21-2.95,1.6-2.8,3.48.14,1.8.25,3.6.32,5.4.08,2.2-1.44,4.41-3.65,5.24-.56.21-1.13.36-1.73.33-.18,0-.31-.1-.33-.29-.01-.1-.02-.2-.03-.29-.15-2.26-.3-4.52-.45-6.78-.08-1.21-.18-2.42-.28-3.63-.01-.16-.02-.33-.02-.43Z"/>
        <path class="cls-3" d="M282.28,115.86c0,2.82,0,5.65,0,8.47,0,.26,0,.53-.02.79,0,.19-.12.29-.31.31-.1,0-.2.01-.3,0-.62-.03-1.25.07-1.86-.06-.34-.57-.19-1.21-.27-1.82-.09-.68-.13-1.37-.2-2.06,0-.09,0-.22-.13-.22-.09,0-.19.05-.25.11-1.35,1.22-2.85,2.22-4.49,2.99-2.11.99-4.31,1.56-6.66,1.46-1.03-.04-2.02-.25-2.96-.66-1.82-.79-2.9-2.2-3.37-4.1-.15-.6-.23-1.22-.22-1.85.02-1.08,0-2.17,0-3.25,0-.7.13-1.37.34-2.03.51-1.61,1.58-2.69,3.15-3.29,1.06-.41,2.16-.53,3.28-.53,3.22,0,6.44,0,9.66,0,1.48,0,1.28.17,1.29-1.32,0-.62,0-1.25-.01-1.87,0-.63-.14-1.24-.36-1.83-.3-.85-.88-1.45-1.68-1.84-.47-.23-.98-.4-1.5-.45-.91-.09-1.83-.21-2.75-.11-.46.05-.92.04-1.38.05-1.97.04-3.93.19-5.89.39-.75.08-1.5.15-2.25.21-.47.04-.52.02-.59-.43-.09-.52-.13-1.04-.21-1.56-.04-.25.06-.38.29-.42.71-.12,1.42-.24,2.14-.33,1.4-.18,2.8-.37,4.2-.5,2.13-.2,4.26-.38,6.39-.26.98.06,1.96.22,2.89.55,1.75.63,2.93,1.81,3.52,3.59.37,1.1.51,2.24.51,3.39.01,2.82,0,5.65,0,8.47h0Z"/>
        <path class="cls-3" d="M208.93,112.95c0-1.78.09-3.54.44-5.29.16-.81.38-1.59.68-2.36.98-2.54,2.82-4.13,5.42-4.88,1.05-.3,2.12-.45,3.2-.53,2.2-.16,4.39-.07,6.55.5,2.83.74,4.7,2.5,5.67,5.24.39,1.09.61,2.21.76,3.35.27,2.06.28,4.13.16,6.19-.1,1.74-.34,3.46-.92,5.12-1.01,2.93-3.08,4.66-6.06,5.32-2.33.52-4.68.55-7.05.29-.92-.1-1.82-.27-2.69-.55-2.52-.8-4.21-2.46-5.11-4.93-.4-1.08-.65-2.2-.79-3.34-.06-.49-.14-.98-.16-1.47-.04-.88-.06-1.77-.08-2.66Z"/>
        <path class="cls-3" d="M161.98,113.62c0,3.87,0,7.75,0,11.62,0,1.05.05.99-.94.99-1.48,0-2.96,0-4.44,0-.16,0-.33,0-.49,0-.23,0-.38-.09-.38-.34,0-.16,0-.33,0-.49,0-7.85,0-15.7,0-23.55,0-.16,0-.33,0-.49,0-.25.15-.34.38-.34,1.08,0,2.17,0,3.25,0,.69,0,1.38,0,2.07,0,.48,0,.52.05.54.49,0,.26,0,.53,0,.79,0,3.78,0,7.55,0,11.33Z"/>
        <path class="cls-3" d="M162.06,93.34c0,.49.02.98,0,1.47-.05,1.03-.55,1.6-1.57,1.64-1.11.05-2.23.05-3.34,0-.95-.04-1.52-.63-1.56-1.57-.04-1.08-.04-2.16,0-3.24.03-.91.54-1.43,1.44-1.6.19-.03.39-.04.59-.04.82,0,1.64,0,2.46,0,.23,0,.46.02.68.07.83.18,1.25.65,1.3,1.49.04.59,0,1.18,0,1.77,0,0,0,0,0,0Z"/>
        <path class="cls-3" d="M124.56,182.88c-.56.41-1.16.36-1.66.59-.07.29.1.52.17.76.29,1.05.25,2.09-.18,3.09-.61,1.42-1.72,2.21-3.25,2.37-.79.09-1.57.03-2.32-.28-.38-.16-.54-.1-.67.14-.16.28-.12.57.13.8.29.28.65.45,1.04.53.7.15,1.42.26,2.13.4.58.11,1.16.23,1.73.36.25.06.5.15.74.25,2.21.94,2.03,3.46,1.02,4.62-.49.56-1.08.96-1.77,1.21-1.66.59-3.34.62-5.02.06-.7-.23-1.32-.6-1.8-1.16-.93-1.09-.85-2.46-.06-3.65.1-.15.28-.16.44-.08.38.18.77.36,1.14.53.09.32-.13.53-.18.77-.18.74.02,1.28.64,1.71.19.13.4.24.61.31,1.13.35,2.27.32,3.39-.04.21-.07.41-.2.6-.33.56-.37.72-.91.64-1.54-.07-.59-.44-.95-.96-1.15-.36-.14-.76-.22-1.14-.29-.97-.18-1.94-.31-2.89-.59-.44-.13-.87-.3-1.26-.54-.26-.15-.49-.34-.65-.59-.5-.81-.5-1.53.17-2.24.16-.17.34-.31.51-.47-.16-.27-.33-.52-.46-.78-.68-1.42-.69-2.86.02-4.27.59-1.17,1.59-1.82,2.88-1.97,1.13-.13,2.24-.06,3.21.63.27.19.54.21.84.1.34-.13.68-.25,1.01-.38.39-.15.46-.14.65.17.19.3.36.62.55.98Z"/>
        <path class="cls-3" d="M237.7,176.37c.17.34.1.67.1.99,0,1.44,0,2.89,0,4.33,0,.13,0,.26,0,.39.01.21.15.3.32.19.2-.12.38-.26.58-.38,1.64-.97,3.94-.73,5.2,1.38.46.77.74,1.61.87,2.49.26,1.73.14,3.41-.72,4.97-.9,1.62-2.26,2.49-4.15,2.52-1.27.02-2.47-.29-3.62-.79-.34-.15-.51-.37-.49-.75.02-.39,0-.79,0-1.18,0-4.2,0-8.4,0-12.6,0-.26,0-.53,0-.79,0-.27.12-.42.39-.47.51-.09.99-.31,1.51-.31Z"/>
        <path class="cls-3" d="M258.68,182.46c.42-.27.65-.44.9-.58,1.28-.69,2.57-.74,3.84.01.55.32.98.77,1.29,1.33,1.29,2.37,1.45,4.82.31,7.27-.85,1.83-2.33,2.77-4.39,2.76-1.17,0-2.27-.28-3.34-.71-.45-.18-.66-.45-.64-.96.04-1.11.01-2.23.01-3.35,0-3.44,0-6.89,0-10.33,0-.23,0-.46,0-.69.02-.4.05-.45.42-.55.47-.13.95-.23,1.4-.34.27.19.19.43.19.65,0,1.44,0,2.89,0,4.33,0,.32,0,.65,0,1.15Z"/>
        <path class="cls-3" d="M279.36,185.64c.42-.2.58-.45.78-.66.88-.97,1.78-1.94,2.64-2.92.31-.35.65-.5,1.12-.47.49.03.97,0,1.43,0,.13.26-.02.36-.13.48-.9.95-1.81,1.9-2.72,2.86-.16.17-.32.33-.47.51-.09.11-.1.24-.04.37.08.14.17.28.26.42,1.22,2.02,2.44,4.05,3.66,6.07.12.19.29.36.29.64-.17.19-.41.1-.62.11-.2.01-.39,0-.59,0-.23,0-.46,0-.69-.02-.22-.02-.31-.21-.41-.38-.44-.77-.89-1.53-1.33-2.3-.57-1-1.14-2-1.71-2.99-.06-.11-.1-.24-.32-.29-.39.28-.71.69-1.05,1.08-.14.16-.1.37-.1.57,0,1.15,0,2.3,0,3.45,0,.94,0,.9-.94.89-1.14,0-1.08.1-1.08-1.05,0-4.83,0-9.66,0-14.48,0-1.07-.02-.99,1.05-.99,1,0,.97-.06.97.97,0,2.36,0,4.73,0,7.09v1.08Z"/>
        <path class="cls-3" d="M219.26,192.94c-.16.06-.19.07-.22.08-.62.04-1.24.06-1.87,0-.46-.44-.7-1.02-1.01-1.55-.78-1.36-1.56-2.73-2.34-4.1-.06-.11-.14-.21-.24-.35-.47.31-.79.73-1.13,1.11-.17.19-.11.44-.11.66,0,1.08,0,2.17,0,3.25,0,.23,0,.46-.02.69,0,.19-.12.29-.31.31-.07,0-.13.01-.2.01-1.72-.03-1.49.25-1.49-1.41-.01-4.59,0-9.19,0-13.78,0-.1,0-.2,0-.3,0-1.14-.04-1.04,1.1-1.04.2,0,.39,0,.59.02.19.01.3.13.31.31.02.26.02.52.02.79,0,2.36,0,4.72,0,7.09,0,.28.01.57.03.96.4-.24.61-.53.85-.78.84-.92,1.68-1.84,2.5-2.78.33-.38.68-.59,1.19-.52.48.06.97-.08,1.45.08-.08.57-.58.82-.92,1.19-.75.83-1.54,1.61-2.31,2.42-.28.29-.28.33-.07.68,1.15,1.91,2.31,3.82,3.46,5.72.23.39.46.78.74,1.25Z"/>
        <path class="cls-3" d="M179.58,187.47c-.03-1.2.14-2.25.56-3.27.71-1.73,2.25-2.85,4.21-2.83,1.43.01,2.64.45,3.57,1.55.43.51.73,1.09.93,1.72.56,1.77.59,3.55.03,5.32-.24.76-.6,1.45-1.17,2.03-.77.79-1.7,1.21-2.8,1.27-.56.03-1.12.05-1.67-.08-1.48-.35-2.51-1.24-3.09-2.64-.43-1.01-.62-2.07-.57-3.07Z"/>
        <path class="cls-3" d="M129.32,181.37c2.32-.08,3.66,1.39,4.19,2.97.29.88.42,1.78.39,2.71-.01.39-.07.46-.46.47-1.57.07-3.14.14-4.72.21-.52.02-1.05.04-1.57.09-.35.03-.43.16-.41.53.03.63.19,1.23.47,1.79.49.95,1.29,1.45,2.37,1.5.73.04,1.43-.13,2.12-.34.22-.07.43-.15.65-.21.18-.05.34.02.4.19.54,1.44.8,1.25-.71,1.72-1.1.34-2.23.48-3.4.28-1.42-.25-2.47-.98-3.19-2.22-.47-.81-.71-1.7-.81-2.61-.14-1.28-.06-2.55.35-3.79.26-.78.64-1.5,1.23-2.1.87-.87,1.91-1.22,3.08-1.18Z"/>
        <path class="cls-3" d="M271.74,193.28c-.39-.03-.79-.02-1.17-.1-1.36-.29-2.38-1.04-3.04-2.28-.34-.65-.57-1.33-.68-2.04-.26-1.65-.16-3.28.51-4.83.53-1.23,1.39-2.18,2.74-2.49,1.68-.39,3.27-.21,4.53,1.14.34.37.58.79.78,1.25.42.98.6,2,.59,3.07,0,.43-.08.5-.52.52-1.77.08-3.54.15-5.31.22-.33.01-.66.01-.98.04-.28.02-.39.18-.35.47.07.45.13.91.28,1.35.58,1.73,2,2.14,3.22,1.99.65-.08,1.29-.24,1.91-.47.41-.15.51-.09.68.3.48,1.14.54,1.1-.65,1.48-.82.26-1.65.42-2.52.4Z"/>
        <path class="cls-3" d="M246.01,187.29c-.04-.96.1-1.9.42-2.81.19-.53.43-1.02.77-1.48.75-1.01,1.76-1.55,3.01-1.62.56-.03,1.12-.04,1.66.09,1.22.3,2.1,1.04,2.66,2.16.54,1.08.69,2.25.72,3.43,0,.31-.1.4-.41.43-.1,0-.2,0-.29.01-1.84.07-3.67.15-5.51.22-.2,0-.39,0-.59.03-.29.03-.44.18-.4.45.09.58.19,1.16.43,1.71.55,1.24,1.64,1.78,2.95,1.65.75-.07,1.49-.24,2.19-.54.23-.1.39-.02.47.2.47,1.38.81,1.19-.77,1.71-1.02.33-2.07.39-3.12.28-1.71-.19-2.9-1.13-3.61-2.68-.47-1.03-.64-2.13-.59-3.26Z"/>
        <path class="cls-3" d="M206.89,192.98c-.18-.35-.05-.76-.34-1.04-.31.08-.46.36-.7.53-1.22.88-2.53,1.04-3.91.51-.87-.33-1.48-.97-1.83-1.83-.22-.55-.38-1.12-.38-1.72,0-2.43,0-4.86,0-7.28,0-.1,0-.2.03-.29.02-.15.12-.24.26-.24.46-.01.92-.01,1.38,0,.18,0,.31.11.32.3.02.26.02.52.02.79,0,1.94,0,3.87,0,5.81,0,.53.05,1.05.16,1.56.25,1.18,1.16,1.74,2.35,1.48.8-.18,1.43-.63,1.98-1.22.17-.18.24-.38.23-.62,0-.23,0-.46,0-.69,0-2.1,0-4.2,0-6.3,0-.26,0-.52.02-.79,0-.19.13-.31.31-.31.49,0,.98,0,1.47.01.14,0,.24.11.26.25.02.2.03.39.03.59,0,3.25,0,6.5,0,9.74,0,.1,0,.2,0,.3-.02.46-.08.53-.5.54-.39,0-.78.05-1.15-.06Z"/>
        <path class="cls-3" d="M137.11,182.73c.29-.22.57-.44.85-.65.99-.75,2.11-.88,3.28-.62,1.42.31,2.48,1.54,2.68,3.06.05.36.06.72.06,1.08,0,2.2,0,4.4,0,6.6,0,.16,0,.33,0,.49,0,.23-.12.38-.36.38-.46,0-.92,0-1.38-.02-.14,0-.24-.1-.26-.25-.02-.26-.03-.52-.03-.79,0-2.07,0-4.13,0-6.2,0-.49-.03-.98-.17-1.46-.31-1.05-1.31-1.42-2.15-1.29-.93.15-1.63.66-2.22,1.35-.14.16-.18.34-.18.54,0,.36,0,.72,0,1.08,0,2.03,0,4.07,0,6.1,0,.23,0,.46-.04.69-.01.07-.11.15-.19.2-.05.03-.13.04-.19.04-1.87,0-1.6.27-1.61-1.5-.01-2.92,0-5.84,0-8.76,0-.3,0-.59.02-.89,0-.18.11-.3.3-.32.13-.01.26-.02.39-.02.87.02.96-.17,1.11.93,0,.06.05.11.1.22Z"/>
        <path class="cls-3" d="M145.31,187.16c-.02-.76.14-1.62.45-2.46.82-2.2,2.67-3.3,4.64-3.34,1.14-.02,2.22.15,3.25.64.35.16.37.24.22.61-.01.03-.03.06-.04.09-.5,1.17-.37.99-1.38.65-.4-.13-.82-.25-1.24-.29-1.43-.16-2.58.48-3.15,1.69-.47,1-.63,2.07-.52,3.16.06.58.14,1.17.35,1.73.53,1.39,1.55,2.07,3.04,1.99.69-.04,1.35-.24,2-.47.56-.2.63-.18.84.3.46,1.09.59,1-.6,1.41-1.19.42-2.4.62-3.67.37-1.47-.29-2.6-1.04-3.33-2.36-.62-1.12-.86-2.33-.86-3.73Z"/>
        <path class="cls-3" d="M190.19,187.35c-.03-1.16.16-2.25.68-3.26.88-1.69,2.28-2.56,4.17-2.69,1.17-.08,2.29.12,3.35.61.35.16.41.27.29.6-.01.03-.03.06-.04.09-.51,1.17-.4,1.01-1.39.68-.75-.25-1.51-.41-2.32-.24-.83.17-1.43.63-1.87,1.32-.31.47-.52,1-.59,1.55-.15,1.11-.18,2.22.15,3.31.07.22.14.44.24.64.56,1.17,1.54,1.77,2.96,1.64.72-.07,1.41-.27,2.09-.53.36-.14.42-.11.59.26.08.18.15.36.23.54.24.58.24.57-.38.83-1.17.5-2.4.67-3.66.55-1.57-.15-2.8-.88-3.61-2.25-.67-1.13-.93-2.37-.89-3.65Z"/>
        <path class="cls-3" d="M179.53,192.38c-.9.51-1.79.75-2.7.85-.75.08-1.51.1-2.25-.08-1.43-.35-2.51-1.17-3.12-2.5-1.03-2.24-1.07-4.52.09-6.73.83-1.57,2.21-2.37,3.97-2.52,1.2-.1,2.35.1,3.45.6.36.16.39.24.27.59-.4,1.1-.4,1.09-1.51.74-.72-.22-1.45-.38-2.22-.22-.83.17-1.42.62-1.88,1.31-.39.59-.57,1.26-.66,1.94-.14,1.05-.07,2.09.27,3.11.56,1.62,1.75,2.34,3.43,2.07.62-.1,1.22-.26,1.8-.49.34-.14.41-.11.55.18.17.35.32.72.51,1.14Z"/>
        <path class="cls-7" d="M226.75,187.17c0-3.61,0-7.21,0-10.82,0-1.13-.07-1.08,1.19-1.04.24,0,.34.17.35.39,0,.26,0,.52,0,.79,0,7.15,0,14.3,0,21.44,0,.16,0,.33,0,.49-.02.68-.04.7-.74.71-.77,0-.8-.01-.8-.85,0-3.71,0-7.41,0-11.12Z"/>
        <path class="cls-7" d="M161.69,187.16c0-3.54,0-7.08,0-10.62,0-.26,0-.53,0-.79.02-.32.11-.43.41-.43,1.16-.03,1.13-.09,1.13,1,0,7.28,0,14.56,0,21.84,0,1.04.02,1-1.05.98-.38,0-.46-.1-.48-.47-.01-.26,0-.52,0-.79,0-3.57,0-7.15,0-10.72Z"/>
        <path class="cls-10" d="M173.5,196.91c.05-.13.06-.2.1-.25.71-.73,1.13-1.59,1.25-2.61.04-.35.09-.38.44-.39.2,0,.39,0,.59,0,.77,0,.91,0,.75.92-.21,1.25-.88,2.24-1.85,3.03-.17.14-.34.18-.52.01-.26-.24-.51-.49-.75-.71Z"/>
        <path class="cls-8" d="M147.88,196.93c.04-.08.05-.15.1-.2.68-.75,1.14-1.6,1.24-2.62.02-.24.16-.35.39-.35.39,0,.79,0,1.18.02.15,0,.24.11.24.26,0,.23.01.46-.04.68-.25,1.16-.85,2.12-1.76,2.89-.27.23-.41.23-.69,0-.24-.21-.54-.38-.67-.68Z"/>
        <path class="cls-2" d="M82.47,114.66c0-1.9.01-3.81,0-5.71,0-.51.13-.86.57-1.15.82-.54,1.62-1.12,2.49-1.58,1.64-.86,3.35-1.08,5.15-.68,1.24.28,2.12.99,2.58,2.19.35.9.5,1.84.56,2.79.12,1.7.12,3.41.01,5.11-.05.85-.19,1.7-.43,2.52-.77,2.65-2.21,3.29-4.21,3.49-1.17.12-2.36.1-3.54-.07-.68-.1-1.36-.18-2.04-.28-.29-.04-.58-.12-.86-.19-.18-.04-.27-.17-.27-.35,0-.26,0-.52,0-.79,0-1.77,0-3.54,0-5.31Z"/>
        <path class="cls-2" d="M113.74,111.68c-1.28,0-2.56,0-3.83,0-.16,0-.33,0-.49-.01-.23-.02-.36-.14-.33-.39.07-.75.13-1.5.26-2.24.08-.48.23-.95.39-1.41.43-1.2,1.32-1.92,2.52-2.27.13-.04.26-.06.39-.08,1.66-.27,3.32-.3,4.98.05,1.38.29,2.14,1.14,2.33,2.55.1.76.08,1.5-.09,2.24-.23.98-.87,1.53-1.88,1.55-1.41.03-2.82,0-4.23,0h0Z"/>
        <path class="cls-2" d="M253.73,111.97c0,2.07,0,4.14,0,6.21,0,.23,0,.46,0,.69,0,.21-.06.38-.23.51-1.63,1.22-3.26,2.45-5.18,3.19-1.8.69-3.65.76-5.52.34-1.36-.31-2.34-1.13-2.99-2.37-.41-.79-.67-1.64-.84-2.51-.24-1.26-.35-2.54-.39-3.82-.05-1.67-.03-3.35.17-5.02.13-1.08.33-2.14.72-3.16.79-2.07,2.35-3.08,4.51-3.25,2.15-.17,4.26.09,6.33.68.98.28,1.95.59,2.91.9.47.15.5.2.5.71,0,2.3,0,4.6,0,6.9h0Z"/>
        <path class="cls-2" d="M273.24,112.79c1.54,0,3.08,0,4.63,0,.26,0,.52,0,.79.02.19.01.29.13.3.32,0,.13.01.26.01.39,0,1.54-.01,3.08.01,4.62,0,.44-.15.74-.48,1.01-2.33,1.9-4.96,3.17-7.93,3.69-.9.16-1.83.16-2.75.03-2.12-.28-3.06-1.5-3.21-3.26-.11-1.24-.09-2.49,0-3.73.12-1.76,1.27-2.87,3.04-3.05.39-.04.79-.04,1.18-.04,1.48,0,2.95,0,4.43,0Z"/>
        <path class="cls-2" d="M220.5,102.64c1.05.11,2.07.1,3.07.34,1.81.43,3.13,1.44,3.89,3.17.44,1,.68,2.06.8,3.13.3,2.75.33,5.5-.15,8.24-.09.51-.22,1.03-.38,1.53-.67,2.17-2.13,3.5-4.35,3.94-2.12.42-4.24.42-6.34-.11-1.86-.47-3.1-1.63-3.78-3.41-.34-.9-.56-1.82-.67-2.77-.32-2.82-.33-5.63.16-8.44.15-.84.4-1.65.78-2.43.64-1.31,1.66-2.18,3.03-2.65.68-.23,1.39-.4,2.11-.43.62-.03,1.24-.08,1.83-.12Z"/>
        <path class="cls-1" d="M121.05,185.49c.02.47-.03.92-.21,1.36-.32.78-.99,1.22-1.87,1.18-.84-.04-1.45-.44-1.7-1.25-.27-.87-.29-1.75.02-2.61.3-.81.87-1.17,1.75-1.17.87,0,1.52.44,1.82,1.24.15.41.21.83.19,1.25Z"/>
        <path class="cls-5" d="M237.81,187.63c0-.95.01-1.9,0-2.86,0-.36.11-.63.38-.85.52-.42,1.09-.73,1.75-.85.66-.12,1.23.05,1.71.53.31.31.52.68.65,1.09.51,1.54.55,3.09.09,4.65-.18.61-.48,1.15-.96,1.58-.6.53-1.29.76-2.09.65-.1-.01-.19-.04-.29-.06-1.54-.28-1.23-.4-1.25-1.51-.01-.79,0-1.58,0-2.36Z"/>
        <path class="cls-5" d="M258.68,187.67c0-.95.03-1.9-.01-2.85-.02-.45.17-.75.5-1,.45-.34.93-.6,1.5-.71.89-.18,1.64.09,2.12.85.19.3.34.64.44.98.44,1.48.49,2.97,0,4.45-.18.53-.43,1.03-.84,1.43-.63.61-1.38.87-2.25.73-.35-.06-.7-.18-1.05-.26-.31-.07-.41-.28-.41-.58,0-1.02,0-2.03,0-3.05h0Z"/>
        <path class="cls-5" d="M187.07,187.22c.04.79-.02,1.41-.16,2.02-.06.25-.12.51-.21.76-.53,1.48-2.02,1.91-3.3,1.41-.48-.19-.81-.53-1.07-.98-.26-.47-.41-.98-.47-1.49-.15-1.24-.19-2.49.1-3.71.07-.32.19-.63.33-.92.41-.86,1.15-1.25,2.07-1.25.9,0,1.66.34,2.12,1.18.39.71.52,1.48.59,2.26.03.29,0,.59,0,.72Z"/>
        <path class="cls-4" d="M127.66,186.29c-.88.04-1.01,0-.84-.83.08-.38.2-.77.38-1.11.7-1.39,2.29-1.57,3.38-1,.4.21.64.56.83.95.22.45.31.93.36,1.42.02.25-.07.36-.33.39-.1.01-.2.01-.29.02-1.21.06-2.43.02-3.49.18Z"/>
        <path class="cls-4" d="M271.39,183.03c1.21.08,1.82.5,2.22,1.54.05.12.08.25.11.38.32,1.24.11,1.12-.83,1.16-1.18.06-2.36.03-3.53.17-.36.04-.49-.1-.47-.44.04-.67.25-1.29.62-1.84.46-.69,1.15-.93,1.89-.96Z"/>
        <path class="cls-4" d="M248.63,186.28c-.1,0-.19,0-.29-.03-.14-.02-.26-.13-.24-.26.1-.78.26-1.54.78-2.18.93-1.14,3.35-1.14,3.94.65.03.09.08.18.1.27.3,1.3.41,1.32-.96,1.37-1.11.04-2.22,0-3.32.17Z"/>
      </g>
    </g>
  </g>
</svg>