<?xml version="1.0" encoding="UTF-8"?>
<svg xmlns="http://www.w3.org/2000/svg" version="1.1" viewBox="0 0 398.42 243.16">
  <defs>
    <style>
      .cls-1 {
        fill: #caa978;
      }

      .cls-2 {
        fill: #4a5055;
      }
    </style>
  </defs>
  <!-- Generator: Adobe Illustrator 28.7.1, SVG Export Plug-In . SVG Version: 1.2.0 Build 142)  -->
  <g>
    <g id="Layer_1">
      <g>
        <path class="cls-2" d="M159.83,154.09c2.45,4.25,3.68,8.88,3.68,13.89s-1.23,9.64-3.68,13.88c-2.46,4.25-5.8,7.61-10.01,10.09-4.22,2.48-8.81,3.72-13.77,3.72s-9.54-1.24-13.76-3.72c-4.23-2.48-7.56-5.84-10.01-10.09-2.45-4.25-3.68-8.88-3.68-13.88s1.23-9.64,3.68-13.89c2.46-4.25,5.79-7.61,10.01-10.09,4.22-2.48,8.81-3.72,13.76-3.72s9.55,1.24,13.77,3.72c4.22,2.48,7.55,5.84,10.01,10.09M118.83,177.2c3.09,5.76,7.42,9.78,12.99,12.07,5.56,2.29,10.71,2.16,15.45-.39,4.75-2.55,7.69-6.76,8.84-12.65,1.15-5.89.18-11.71-2.91-17.48-3.09-5.76-7.41-9.79-12.95-12.09-5.54-2.3-10.68-2.17-15.42.38-4.74,2.54-7.7,6.76-8.87,12.66-1.17,5.9-.22,11.73,2.87,17.49"/>
        <path class="cls-2" d="M204.53,140.28h0l-2.06,3.96-24.68,47.47h18.83c1.74-.05,2.87-.37,3.4-.95.63-.63.97-2.19,1.03-4.67h1.98v9.57h-36.24l2.05-3.96,24.69-47.47h-19.18c-2,0-3.35.37-4.03,1.11-.79.79-1.19,2.3-1.19,4.51h-1.98v-9.57h37.39Z"/>
        <path class="cls-2" d="M254.79,140.28h0v9.57h-1.98c0-2.53-.24-4.09-.71-4.67-.52-.63-1.66-.95-3.4-.95h-11.08c-.05.32-.08.74-.08,1.27v45.57c0,1.11.19,1.82.59,2.14.4.32,1.51.47,3.36.47v1.98h-15.82v-1.98c1.63,0,2.69-.18,3.16-.55.53-.37.8-1.06.8-2.06v-45.65c0-.48-.03-.87-.08-1.19h-11.24c-1.63,0-2.71.28-3.24.83-.53.55-.8,2.15-.8,4.79h-1.98v-9.57h42.49Z"/>
        <path class="cls-2" d="M280.8,145.35l10.84,25.56,1.66,3.96,1.66,3.96,1.66,3.95,2.93,6.96c.63,1.32,1.08,2.14,1.34,2.45.74.9,2.06,1.4,3.96,1.5v1.98h-15.82v-1.98c1.43-.05,2.27-.42,2.53-1.11.05-.16.08-.34.08-.55,0-.52-.21-1.29-.64-2.3l-3-6.96-1.66-3.95-1.66-3.96-1.66-3.96-6.49-15.35-6.48,15.35-1.74,3.96-1.66,3.96-1.66,3.95-2.93,6.96c-.36.95-.55,1.66-.55,2.14,0,.31.04.55.15.71.42.74,1.79,1.11,4.12,1.11h.16v1.98h-15.83v-1.98c2.37,0,4.09-.29,5.15-.87,1-.53,1.85-1.56,2.53-3.09l2.93-6.96,1.66-3.95,1.66-3.96,1.66-3.96,8.71-20.5,4.27-10.12,2.13,5.06Z"/>
        <path class="cls-2" d="M338.18,182.32c-.1,3.08-1.23,5.72-3.37,7.97-.18-5.45-1.54-7.9-7.66-12.72-.12-.09-.24-.17-.38-.27-1.29-.92-2.06-1.57-2.31-1.76l-4.45-3.14-3.67-2.61c-1.8-1.24-3.03-2.15-3.81-2.74-.7-.59-1.54-1.31-2.77-2.42-1.16-1.11-1.99-2.28-2.7-3.33-.77-1.37-1.42-2.74-1.74-4.24-.19-1.05-.39-1.96-.39-2.75,0-.98.2-1.89.39-2.8.97-3.07,2.77-5.62,5.67-7.57,2.9-2.03,6.12-2.94,9.79-2.94h.84c2.97.06,5.74.85,8.19,2.35,1.86.92,2.97,1.37,3.22,1.37.13,0,.26-.06.38-.06.52-.33.77-1.56.77-3.66h2.39l-.02,15.73h-1.98c-.19-2.48-.39-4.25-.71-5.16-.32-1.11-.97-2.03-1.74-2.81-2.2-2.35-5.36-3.72-9.41-3.85h-1.1c-5.8,0-9.35,1.75-10.63,5.47-.26.79-.39,1.37-.39,2.03,0,.72.19,1.44.52,2.22.45.91,1.22,1.96,2.25,3,.78.66,1.94,1.7,3.55,2.94,1.74,1.24,2.51,1.89,2.57,1.96l3.86,2.74,3.74,2.61c4.06,2.87,6.77,5.22,8.12,6.92,1.87,2.22,2.83,4.7,2.96,7.5"/>
        <path class="cls-2" d="M98.5,172.92c-1.78-2.4-4.15-4.2-7.1-5.42,2.34-1.37,4.21-3.15,5.61-5.34,1.4-2.19,2.1-4.55,2.1-7.08,0-4.06-1.69-7.54-5.08-10.44-3.38-2.9-7.47-4.35-12.26-4.35h-21.53v1.98c1.78.06,2.93.24,3.44.55.41.32.61.79.61,1.42v47.47c0,.63-.26,1.1-.77,1.42-.61.37-1.52.55-2.75.55h-.15v1.98h23.21c4.79,0,8.88-1.45,12.26-4.35,3.39-2.9,5.08-6.38,5.08-10.44,0-2.9-.89-5.55-2.67-7.95M71.92,144.24h9.85c2.65,0,4.93,1.07,6.84,3.2,1.91,2.14,2.87,4.74,2.87,7.79s-.94,5.55-2.83,7.64-4.18,3.12-6.88,3.12h-9.85v-21.76ZM90.71,188.59c-1.89,2.08-4.18,3.13-6.88,3.13h-11.91v-21.76h11.91c2.7,0,4.99,1.07,6.88,3.21,1.88,2.13,2.82,4.73,2.82,7.79s-.94,5.55-2.82,7.63"/>
        <polygon class="cls-2" points="322.77 182.3 322.77 182.3 326.63 188.98 330.49 195.67 322.77 195.67 315.05 195.67 318.91 188.98 322.77 182.3"/>
        <path class="cls-2" d="M101.75,207.33c.48.4.73.88.73,1.43.08.4-.24,1.05-.72,1.45-.08.07-.28.19-.44.27-.11.06-.37.16-.59.22-.27.07-.55.11-.84.11h-1.3v2.99c-.01.08.03.17.09.21s.22.06.48.06v.27h-2.19v-.27h.02c.13,0,.31-.03.4-.08.07-.04.11-.11.11-.19v-6.53c.01-.06-.03-.15-.09-.19-.07-.04-.24-.07-.49-.08v-.27h3.08c.49-.07,1.27.2,1.76.6M98.59,210.26h1.41c.28.05.71-.14.98-.43.27-.29.4-.63.4-1.05.05-.3-.14-.78-.41-1.07-.27-.29-.6-.44-.98-.44h-1.41v2.99Z"/>
        <path class="cls-2" d="M114.09,207.33c.48.4.73.88.73,1.43.08.4-.24,1.05-.72,1.45-.08.07-.28.19-.44.27-.11.06-.37.16-.59.22-.04.02-.08.03-.13.03l1.79,2.87c.1.16.25.34.34.39.09.06.24.09.44.09v.27h-2.19v-.27c.1,0,.2-.03.24-.08.01-.02.02-.05.02-.08,0-.07-.03-.15-.09-.24l-1.66-2.66-.13-.21h-.78v2.99c-.01.08.03.17.09.21s.22.06.48.06v.27h-2.19v-.27h.02c.13,0,.31-.03.4-.08.07-.04.11-.11.11-.19v-6.53c.01-.06-.03-.15-.09-.19-.07-.04-.24-.07-.49-.08v-.27h3.08c.49-.07,1.27.2,1.76.6M110.92,210.26h1.41c.28.05.71-.14.98-.43.27-.29.4-.63.4-1.05.05-.3-.14-.78-.41-1.07-.28-.29-.6-.44-.98-.44h-1.41v2.99Z"/>
        <path class="cls-2" d="M127.36,208.04h-.27c.01-.23-.04-.5-.12-.62-.07-.1-.19-.15-.35-.15h-2.7v2.99h2.14c.19.02.42-.05.51-.15.09-.1.14-.32.14-.66h.27v2.17h-.27c.02-.26-.04-.55-.14-.66-.09-.1-.26-.16-.5-.16h-2.15v2.99h2.7c.13.02.29-.06.36-.16.07-.12.11-.32.11-.61h.27v1.32h-5.06v-.27c.15,0,.33-.03.41-.08.08-.04.11-.1.11-.19v-6.53c.02-.08-.04-.18-.13-.22-.09-.04-.23-.05-.42-.05h-.01v-.27h5.1v1.32Z"/>
        <path class="cls-2" d="M134.97,206.73h1.21l2.42,4.98,2.41-4.98h1.64v.27c-.2-.01-.4.03-.45.08-.07.05-.1.17-.1.37v6.26c-.01.12.03.25.08.29.05.04.21.07.46.07v.27h-2.19v-.27c.18,0,.38-.03.44-.08.07-.05.11-.14.11-.28v-5.73l-2.11,4.36-.61,1.25-.3-.63-2.48-5.1v5.63c0,.18.04.38.12.45.09.08.33.12.71.13v.27h-2.19v-.27c.27,0,.56-.05.67-.14.09-.09.14-.23.14-.44v-5.68c.02-.27-.05-.57-.14-.66-.1-.09-.33-.14-.69-.15v-.27h.83Z"/>
        <path class="cls-2" d="M151.07,206.73h.55v.27c-.2-.01-.4.03-.45.08-.06.05-.1.17-.1.37v6.26c-.01.12.03.25.09.29.06.04.21.07.46.07v.27h-2.19v-.27c.18,0,.38-.03.45-.08.07-.05.1-.14.1-.28v-6.28c0-.13-.03-.29-.08-.35-.06-.06-.21-.09-.47-.09v-.27h1.64Z"/>
        <path class="cls-2" d="M163.67,206.73h1.37v.27c-.3,0-.6.04-.67.09-.1.06-.15.17-.15.34v4.71c.04.47-.19,1.15-.54,1.52-.41.46-1.02.69-1.85.69-.29.03-.88-.08-1.32-.24-.32-.08-.78-.37-1.02-.63-.36-.4-.55-.86-.56-1.37v-4.68c.01-.13-.03-.28-.08-.34-.06-.06-.22-.09-.47-.09v-.27h2.18v.27c-.19-.01-.4.03-.45.08-.07.05-.1.17-.1.36v4.67c-.01.28.1.73.26,1,.12.21.33.38.62.51.29.13.59.19.91.19h.05c.5.05,1.13-.16,1.4-.48.18-.13.35-.66.38-1.19,0-.06.01-.11.01-.15v-4.55c.01-.12-.04-.26-.13-.33-.09-.07-.32-.11-.69-.11v-.27h.82Z"/>
        <path class="cls-2" d="M172.64,206.73h1.21l2.42,4.98,2.41-4.98h1.64v.27c-.2-.01-.4.03-.45.08-.07.05-.1.17-.1.37v6.26c-.01.12.03.25.08.29.06.04.21.07.47.07v.27h-2.19v-.27c.19,0,.38-.03.44-.08.08-.05.11-.14.11-.28v-5.73l-2.11,4.36-.61,1.25-.3-.63-2.48-5.1v5.63c0,.18.04.38.12.45.09.08.33.12.71.13v.27h-2.19v-.27c.27,0,.56-.05.67-.14.09-.09.14-.23.14-.44v-5.68c.01-.27-.05-.57-.14-.66-.1-.09-.33-.14-.69-.15v-.27h.83Z"/>
        <path class="cls-2" d="M201.59,208.04h-.27c.01-.23-.04-.5-.12-.62-.08-.1-.19-.15-.35-.15h-2.7v2.99h2.14c.19.02.42-.05.51-.15.09-.1.14-.32.14-.66h.27v2.17h-.27c.02-.26-.04-.55-.14-.66-.09-.1-.26-.16-.5-.16h-2.15v2.99c0,.06.04.15.11.19.08.05.23.08.46.08v.27h-2.18v-.27c.15,0,.33-.03.41-.08.08-.04.11-.1.11-.19v-6.53c.02-.08-.04-.18-.13-.22-.09-.04-.23-.05-.42-.05h0v-.27h5.09v1.32Z"/>
        <path class="cls-2" d="M213.65,206.73h1.37v.27c-.29,0-.6.04-.67.09-.1.06-.15.17-.15.34v4.71c.04.47-.2,1.15-.54,1.52-.41.46-1.02.69-1.85.69-.29.03-.88-.08-1.32-.24-.32-.08-.78-.37-1.02-.63-.36-.4-.55-.86-.56-1.37v-4.68c.01-.13-.03-.28-.08-.34-.06-.06-.22-.09-.47-.09v-.27h2.18v.27c-.19-.01-.4.03-.45.08-.07.05-.1.17-.1.36v4.67c-.01.28.1.73.26,1,.05.15.33.38.62.51.29.13.59.19.91.19h.05c.5.05,1.13-.16,1.4-.48.18-.13.35-.66.38-1.19,0-.06.01-.11.01-.15v-4.55c.01-.12-.04-.26-.13-.33-.09-.07-.32-.11-.69-.11v-.27h.82Z"/>
        <path class="cls-2" d="M226.62,207.33c.48.4.73.88.73,1.43.08.4-.24,1.05-.72,1.45-.08.07-.28.19-.44.27-.11.06-.37.16-.59.22-.04.02-.08.03-.13.03l1.79,2.87c.1.16.25.34.34.39.09.06.24.09.44.09v.27h-2.19v-.27c.1,0,.2-.03.24-.08.01-.02.02-.05.02-.08,0-.07-.03-.15-.09-.24l-1.66-2.66-.13-.21h-.78v2.99c-.01.08.03.17.09.21s.22.06.48.06v.27h-2.19v-.27h.02c.13,0,.31-.03.4-.08.07-.04.11-.11.11-.19v-6.53c.01-.06-.03-.15-.09-.19-.07-.04-.24-.07-.49-.08v-.27h3.08c.49-.07,1.27.2,1.76.6M223.46,210.26h1.41c.28.05.71-.14.98-.43.27-.29.4-.63.4-1.05.05-.3-.14-.78-.41-1.07-.28-.29-.6-.44-.98-.44h-1.41v2.99Z"/>
        <path class="cls-2" d="M236.2,206.73h0l3.94,5.11v-4.41c.01-.12-.04-.26-.12-.33-.09-.07-.33-.11-.7-.11v-.27h2.19v.27c-.29,0-.59.04-.67.09-.1.06-.15.18-.15.35v6.91l-.55-.71-3.96-5.15v5.1c-.02.13.04.29.12.36.09.08.32.12.7.12v.27h-2.19v-.27c.23.01.51-.03.62-.1.13-.08.2-.2.2-.4v-6.15c.01-.12-.04-.26-.12-.33-.09-.07-.33-.11-.7-.11v-.27h1.39Z"/>
        <path class="cls-2" d="M249.92,206.73h.55v.27c-.2-.01-.4.03-.45.08-.06.05-.1.17-.1.37v6.26c-.01.12.03.25.09.29.06.04.21.07.46.07v.27h-2.19v-.27c.18,0,.38-.03.45-.08.07-.05.1-.14.1-.28v-6.28c0-.13-.03-.29-.08-.35-.06-.06-.22-.09-.47-.09v-.27h1.64Z"/>
        <path class="cls-2" d="M263.11,206.73h0v1.32h-.27c.01-.28-.03-.56-.1-.64-.07-.08-.23-.13-.47-.13h-1.53s-.01.1-.01.18v6.26c0,.12.03.25.08.29.05.04.21.07.46.07v.27h-2.18v-.27c.18,0,.37-.03.44-.08.07-.05.11-.14.11-.28v-6.28c0-.06,0-.12-.01-.16h-1.55c-.18-.02-.38.04-.45.11-.07.08-.11.29-.11.66h-.27v-1.32h5.87Z"/>
        <path class="cls-2" d="M275.17,206.73h1.37v.27c-.29,0-.6.04-.67.09-.1.06-.15.17-.15.34v4.71c.04.47-.2,1.15-.54,1.52-.41.46-1.02.69-1.85.69-.29.03-.88-.08-1.32-.24-.32-.08-.78-.37-1.02-.63-.36-.4-.55-.86-.56-1.37v-4.68c.01-.13-.03-.28-.08-.34-.06-.06-.22-.09-.47-.09v-.27h2.18v.27c-.19-.01-.4.03-.45.08-.07.05-.1.17-.1.36v4.67c-.01.28.1.73.26,1,.12.21.33.38.62.51.29.13.59.19.91.19h.06c.5.05,1.13-.16,1.4-.48.18-.13.35-.66.38-1.19,0-.06.01-.11.01-.15v-4.55c.01-.12-.04-.26-.13-.33-.09-.07-.32-.11-.69-.11v-.27h.82Z"/>
        <path class="cls-2" d="M288.15,207.33c.48.4.73.88.73,1.43.08.4-.24,1.05-.72,1.45-.08.07-.28.19-.44.27-.11.06-.37.16-.59.22-.04.02-.08.03-.13.03l1.79,2.87c.1.16.25.34.34.39.09.06.24.09.44.09v.27h-2.19v-.27c.1,0,.21-.03.24-.08.01-.02.02-.05.02-.08,0-.07-.03-.15-.09-.24l-1.66-2.66-.13-.21h-.78v2.99c-.01.08.03.17.09.21s.22.06.48.06v.27h-2.19v-.27h.02c.13,0,.31-.03.4-.08.07-.04.11-.11.11-.19v-6.53c0-.06-.03-.15-.09-.19-.07-.04-.24-.07-.49-.08v-.27h3.08c.49-.07,1.27.2,1.76.6M284.98,210.26h1.41c.28.05.71-.14.98-.43.27-.29.41-.63.41-1.05.05-.3-.14-.78-.41-1.07-.28-.29-.6-.44-.98-.44h-1.41v2.99Z"/>
        <path class="cls-2" d="M301.43,208.04h-.27c.01-.23-.04-.5-.12-.62-.08-.1-.19-.15-.35-.15h-2.7v2.99h2.14c.19.02.42-.05.51-.15.09-.1.14-.32.14-.66h.27v2.17h-.27c.02-.26-.04-.55-.14-.66-.09-.1-.25-.16-.5-.16h-2.15v2.99h2.7c.13.02.29-.06.36-.16.07-.12.11-.32.11-.61h.27v1.32h-5.06v-.27c.15,0,.33-.03.41-.08.08-.04.11-.1.11-.19v-6.53c.02-.08-.04-.18-.13-.22-.09-.04-.23-.05-.42-.05h-.01v-.27h5.1v1.32Z"/>
        <path class="cls-1" d="M192.67,95.07c-.26-.06-.83-.15-1.28-.19-.45-.04-.87-.07-1.07-.07-.11,0-.64.54-1.18,1.2-.77.82-2.84,3.92-4.63,6.93-.51.78-1.36,2.43-1.89,3.68-.53,1.25-.79,2.39-.79,3.42-.12.72.34,1.94,1.04,2.71.28.6,1.89,1.29,3.59,1.55,1.54.4,4.73.54,7.13.33,1.61-.06,4.69-.67,6.88-1.36.48-.09,2.1-.75,3.6-1.49,1.03-.43,2.89-1.62,4.14-2.65.96-.64,2.13-2.18,2.62-3.42.58-.8.2-2.56-.85-3.94-.57-.86-2.15-2.22-3.53-3.04-.87-.6-2.87-1.46-4.45-1.94-1.03-.34-3.19-.84-4.81-1.1-1.62-.26-3.13-.47-4.51-.65M231.31,52.95c-8.31,7.36-24.03,23.16-32.05,31.41,6.74-.79,20.13-3.76,29.92-6.65,6.58-1.53,19.16-6.82,28.09-11.81.76-.36,2.86-1.66,4.69-2.9,1.21-.78,3.64-2.6,5.42-4.07,1.24-.92,3.39-3.03,4.81-4.71,1.1-1.11,2.36-3.34,2.8-4.97.52-1.1.24-3.21-.61-4.71-.24-1.04-2.62-2.86-5.3-4.07-2.17-1.17-7.03-2.65-10.85-3.29-2.49-.51-7.7-1.05-11.64-1.23-2.6-.19-7.86-.13-11.76.13-2.61.17-7.68.51-11.34.77-4.05.19-12.67,1.14-19.25,2.13-4.37.49-13.04,2.43-19.38,4.32-4.25,1.04-12.41,4.39-18.22,7.49-4,1.75-11.07,7.01-15.78,11.74-1.73,1.55-4.49,5.25-6.15,8.26-1.32,1.96-2.68,6.09-3.05,9.23-.5,2.09.04,6.2,1.22,9.16.4,2.08,3.43,5.58,6.76,7.81.56.39,1.54,1.22,2.2,1.87.58.33.85,1.57.61,2.77-.02.91-.9,2.07-1.95,2.58-.71.53-2.07.47-3.04-.13-1.8-.95-4.94-3.61-7.01-5.94-1.52-1.41-3.68-4.99-4.82-8-1-2.21-1.54-6.69-1.22-10,.04-2.22,1.16-6.5,2.5-9.55.76-2.08,3.05-5.92,5.12-8.58,1.31-1.84,4.28-5.08,6.64-7.23,3.38-3.54,11.45-8.86,18.03-11.88,4.28-2.15,13.29-5.51,20.11-7.48,4.05-1.27,12.37-3.03,18.59-3.94,4.06-.68,12.49-1.57,18.83-2,4.62-.44,14.2-.73,21.39-.65,4.77-.27,14.24,1.12,21.14,3.1,1.81.45,5.55,2.06,8.35,3.61,2.08.78,4.89,3.79,6.28,6.71,1.32,1.99,1.56,5.98.55,8.91-.52,2.04-2.46,5.51-4.33,7.75-1.2,1.6-4.12,4.43-6.52,6.33-1.53,1.3-4.94,3.61-7.62,5.16-1.75,1.07-5.4,2.95-8.17,4.2-1.83.85-5.48,2.39-8.17,3.42-4.67,2.09-14.38,5.38-21.69,7.36-7.31,1.98-14.75,3.66-22.3,5.03l2.68.9c1.37.4,3.94,1.87,5.73,3.29,1.3.87,3.19,3.04,4.2,4.84.85,1.14,1.5,3.77,1.46,5.87.26,1.37-.92,4.28-2.62,6.52-.82,1.22-3.01,3.19-4.87,4.39-1.19.87-3.84,2.17-5.91,2.9-1.35.55-4.18,1.27-6.34,1.61-1.44.27-4.25.56-6.28.65-.89.09-2.8.09-4.27,0-.97,0-2.88-.32-4.27-.71-.93-.19-2.68-.97-3.9-1.74-.88-.4-2.2-1.85-2.93-3.23-.82-1.1-1.42-3.53-1.34-5.42-.04-1.25.45-3.76,1.1-5.61.35-1.23,1.52-3.66,2.62-5.42,1.1-1.76,2.21-3.42,2.78-4.2.31-.43.26-.77-.13-.77-.5-.04-2.15.11-3.7.32-1.05.24-2.96.15-4.26-.19-.58-.1-1.51-.39-2.07-.65-.41-.05-1.02-.86-1.34-1.81-.62-1.16-.41-2.69.49-3.42.9-.73,1.91-1.19,2.48-1.27.31-.05.64-.16.73-.26.08-.2.61-.33,1.18-.28.36.02,1.18.11,1.83.19,1.34-.11,4.06-.36,6.09-.58,2.03-.21,4.1-.41,5.16-.49.58-.05,1.56-.66,2.2-1.38.84-1.01,3.49-3.79,5.93-6.2,13.9-15.85,28.36-29.97,32.3-31.54.61-.35,1.7-.35,2.44,0,.53.16,1.3.88,1.7,1.61.35.46.57,1.53.49,2.39.04.58-.51,1.57-1.22,2.2"/>
      </g>
    </g>
  </g>
</svg>