<?xml version="1.0" encoding="UTF-8"?>
<svg xmlns="http://www.w3.org/2000/svg" version="1.1" viewBox="0 0 398.42 243.16">
  <defs>
    <style>
      .cls-1 {
        fill: #375a5a;
        fill-rule: evenodd;
      }
    </style>
  </defs>
  <!-- Generator: Adobe Illustrator 28.7.1, SVG Export Plug-In . SVG Version: 1.2.0 Build 142)  -->
  <g>
    <g id="Layer_1">
      <path class="cls-1" d="M281.4,124.91c0-14.86,10.33-22.7,22.77-21.18v9.75c-7.64.48-13.05,4.38-13.34,12.91v27.69h-9.46s.04-29.16.04-29.17ZM218.03,129.42v25.22h-9.1v-7.59c-3.91,5.24-10.24,7.71-17.36,7.71-3.33,0-6.62-.64-9.7-1.91-3.06-1.27-5.85-3.13-8.18-5.48-2.33-2.34-4.17-5.13-5.4-8.19-1.23-3.06-1.83-6.33-1.77-9.63,0-14.52,11.3-25.71,25.25-25.71,6.9,0,13.53,2.69,18.47,7.51,4.91,4.79,7.71,11.34,7.79,18.19v-.12ZM207.43,129.54c.08-2.09-.26-4.17-1.01-6.12-.75-1.96-1.89-3.74-3.35-5.24-1.47-1.51-3.22-2.7-5.16-3.52-3.93-1.65-8.35-1.65-12.28,0-1.94.82-3.69,2.01-5.16,3.52-1.46,1.5-2.6,3.29-3.35,5.24-.75,1.95-1.09,4.03-1.01,6.12,0,9.33,6.88,16.34,15.51,16.34s15.77-7.2,15.77-16.34M360.08,129.42v25.22h-9.1v-7.59c-3.9,5.24-10.24,7.71-17.36,7.71-3.32,0-6.62-.64-9.69-1.91-3.06-1.27-5.85-3.13-8.18-5.48-2.33-2.34-4.17-5.13-5.4-8.2-1.23-3.06-1.83-6.33-1.77-9.63,0-14.52,11.3-25.71,25.24-25.71,6.91,0,13.55,2.7,18.47,7.51,4.91,4.79,7.71,11.34,7.79,18.19v-.12ZM349.47,129.54c.12-4.19-1.48-8.25-4.43-11.24-1.46-1.49-3.21-2.67-5.13-3.47-3.9-1.63-8.29-1.63-12.19,0-1.92.8-3.67,1.98-5.13,3.47-1.46,1.48-2.6,3.24-3.36,5.18-.76,1.93-1.12,3.99-1.06,6.06,0,9.33,6.87,16.34,15.5,16.34,4.27-.11,8.32-1.88,11.29-4.95,2.95-3.05,4.56-7.15,4.48-11.39M121.38,109.65c1.78-1.93,3.93-3.48,6.33-4.54,2.41-1.07,5.01-1.63,7.64-1.66,10.15,0,18.55,8.2,19.98,18.89v32.05h-9.06v-27.81c0-7.32-5.61-13.21-12.55-13.21s-12.55,5.94-12.55,13.21v27.81h-9.38v-65.93h9.48s.11,21.19.11,21.19ZM230.92,88.35h9.61v37.42l21.42-21.21h13.54l-24.99,24.74,25.23,24.97h-13.9l-18.1-17.9-3.08,3.04v14.62h-9.85l.12-65.68h0ZM93.18,134.36c-4.26,6.79-11.81,11.32-20.42,11.32-13.31,0-24.09-10.79-24.09-24.09s10.79-24.09,24.09-24.09c8.75,0,16.41,4.66,20.63,11.64l8.6-5.7c-6.07-9.76-16.89-16.26-29.23-16.26-19.01,0-34.41,15.41-34.41,34.41s15.41,34.41,34.41,34.41c12.45,0,23.36-6.61,29.4-16.52l-8.98-5.12Z"/>
    </g>
  </g>
</svg>