<svg width="76" height="76" viewBox="0 0 76 76" fill="none" xmlns="http://www.w3.org/2000/svg">
<circle cx="38" cy="38" r="38" fill="white"/>
<path d="M42.7935 37.9721C42.9051 38.0837 42.9609 38.2121 42.9609 38.3571C42.9609 38.5022 42.9051 38.6306 42.7935 38.7422L34.9922 46.5435C34.8806 46.6551 34.7522 46.7109 34.6071 46.7109C34.4621 46.7109 34.3337 46.6551 34.2221 46.5435L33.385 45.7065C33.2734 45.5949 33.2176 45.4665 33.2176 45.3214C33.2176 45.1763 33.2734 45.048 33.385 44.9364L39.9643 38.3571L33.385 31.7779C33.2734 31.6663 33.2176 31.5379 33.2176 31.3929C33.2176 31.2478 33.2734 31.1194 33.385 31.0078L34.2221 30.1708C34.3337 30.0592 34.4621 30.0033 34.6071 30.0033C34.7522 30.0033 34.8806 30.0592 34.9922 30.1708L42.7935 37.9721Z" fill="#ED401A"/>
</svg>
