<svg width="76" height="76" viewBox="0 0 76 76" fill="none" xmlns="http://www.w3.org/2000/svg">
<circle cx="38" cy="38" r="38" fill="white"/>
<path d="M33.2065 37.0279C33.0949 36.9163 33.0391 36.7879 33.0391 36.6429C33.0391 36.4978 33.0949 36.3694 33.2065 36.2578L41.0078 28.4565C41.1194 28.3449 41.2478 28.2891 41.3929 28.2891C41.5379 28.2891 41.6663 28.3449 41.7779 28.4565L42.615 29.2935C42.7266 29.4051 42.7824 29.5335 42.7824 29.6786C42.7824 29.8237 42.7266 29.952 42.615 30.0636L36.0357 36.6429L42.615 43.2221C42.7266 43.3337 42.7824 43.4621 42.7824 43.6071C42.7824 43.7522 42.7266 43.8806 42.615 43.9922L41.7779 44.8292C41.6663 44.9408 41.5379 44.9967 41.3929 44.9967C41.2478 44.9967 41.1194 44.9408 41.0078 44.8292L33.2065 37.0279Z" fill="#ED401A"/>
</svg>
