<svg width="1357" height="721" viewBox="0 0 1357 721" fill="none" xmlns="http://www.w3.org/2000/svg">
<mask id="mask0_148_2576" style="mask-type:alpha" maskUnits="userSpaceOnUse" x="-306" y="0" width="1920" height="721">
<path d="M-306 0H1614V721H-306V0Z" fill="white"/>
</mask>
<g mask="url(#mask0_148_2576)">
<path d="M147.5 -96.1183C147.5 45.6962 67.2507 174.132 -62.5885 267.133C-192.427 360.134 -371.822 417.672 -570 417.672C-768.178 417.672 -947.573 360.134 -1077.41 267.133C-1207.25 174.132 -1287.5 45.6962 -1287.5 -96.1183C-1287.5 -237.933 -1207.25 -366.368 -1077.41 -459.37C-947.573 -552.371 -768.178 -609.908 -570 -609.908C-371.822 -609.908 -192.427 -552.371 -62.5885 -459.37C67.2507 -366.368 147.5 -237.933 147.5 -96.1183Z" stroke="white"/>
<path d="M2769.5 643.348C2769.5 807.118 2676.83 955.43 2526.9 1062.82C2376.97 1170.21 2169.83 1236.65 1941 1236.65C1712.17 1236.65 1505.03 1170.21 1355.1 1062.82C1205.17 955.43 1112.5 807.118 1112.5 643.348C1112.5 479.578 1205.17 331.266 1355.1 223.876C1505.03 116.488 1712.17 50.0508 1941 50.0508C2169.83 50.0508 2376.97 116.488 2526.9 223.876C2676.83 331.266 2769.5 479.578 2769.5 643.348Z" stroke="white"/>
</g>
</svg>
