<?xml version="1.0" standalone="no"?>
<!DOCTYPE svg PUBLIC "-//W3C//DTD SVG 20010904//EN"
 "http://www.w3.org/TR/2001/REC-SVG-20010904/DTD/svg10.dtd">
<svg version="1.0" xmlns="http://www.w3.org/2000/svg"
 width="271.000000pt" height="61.000000pt" viewBox="0 0 271.000000 61.000000"
 preserveAspectRatio="xMidYMid meet">

<g transform="translate(0.000000,61.000000) scale(0.100000,-0.100000)"
fill="#000000" stroke="none">
<path d="M2240 592 c-43 -35 -15 -112 41 -112 27 0 59 35 59 65 0 30 -32 65
-59 65 -10 0 -29 -8 -41 -18z"/>
<path d="M2460 530 l0 -80 -30 0 c-29 0 -30 -1 -30 -50 0 -49 1 -50 30 -50
l30 0 0 -165 0 -165 60 0 60 0 0 165 0 165 30 0 c29 0 30 1 30 50 0 49 -1 50
-30 50 l-30 0 0 80 0 80 -60 0 -60 0 0 -80z"/>
<path d="M140 444 c-122 -53 -174 -213 -107 -327 83 -141 276 -153 377 -25
l21 28 -33 13 c-31 13 -35 13 -58 -8 -38 -34 -65 -45 -112 -45 -156 0 -207
219 -67 290 62 32 126 22 184 -30 18 -17 23 -17 54 -4 34 14 34 14 15 36 -69
81 -184 111 -274 72z"/>
<path d="M590 449 c-14 -6 -36 -20 -48 -32 -47 -44 -52 -66 -52 -237 l0 -160
35 0 35 0 0 143 c0 168 11 197 80 218 36 11 40 15 40 46 0 31 -2 33 -32 32
-18 0 -44 -5 -58 -10z"/>
<path d="M830 444 c-74 -32 -124 -103 -136 -191 -25 -189 201 -322 354 -210
17 13 41 36 52 50 l21 27 -33 13 c-31 13 -35 13 -58 -8 -38 -34 -65 -45 -112
-45 -52 0 -101 28 -128 72 -36 59 -38 58 170 58 185 0 190 1 190 21 0 82 -61
177 -134 210 -50 23 -138 24 -186 3z m164 -77 c22 -12 48 -37 59 -55 l19 -32
-146 0 c-94 0 -146 4 -146 10 0 22 34 62 69 80 48 25 97 25 145 -3z"/>
<path d="M1340 449 c-49 -20 -93 -63 -116 -113 -44 -95 -27 -193 47 -267 79
-80 189 -89 277 -23 l32 25 0 -25 c0 -23 4 -26 36 -26 l35 0 -3 148 c-3 143
-4 150 -31 190 -44 67 -97 96 -181 99 -39 2 -82 -2 -96 -8z m168 -86 c94 -70
95 -198 1 -260 -33 -22 -47 -25 -94 -21 -46 4 -61 10 -91 39 -82 80 -62 209
41 255 39 18 110 12 143 -13z"/>
<path d="M1660 445 c0 -3 47 -100 105 -215 l105 -210 38 0 37 0 108 215 107
215 -69 0 -68 0 -53 -125 c-29 -69 -56 -128 -60 -130 -4 -2 -31 53 -61 123
l-55 127 -67 3 c-37 2 -67 0 -67 -3z"/>
<path d="M2210 235 l0 -215 65 0 65 0 0 215 0 215 -65 0 -65 0 0 -215z"/>
</g>
</svg>
