<svg width="1440" height="720" viewBox="0 0 1357 720" fill="none" xmlns="http://www.w3.org/2000/svg">
<rect x="-41" width="1470" height="719.001" fill="url(#paint0_linear_275_525)"/>
<path opacity="0.3" d="M-41 0H1399V719.001H-41V0Z" fill="#ED401A" fill-opacity="0.7"/>
<mask id="mask0_275_525" style="mask-type:alpha" maskUnits="userSpaceOnUse" x="-30" y="0" width="1419" height="720">
<path d="M-29.6855 0H1388.71V720H-29.6855V0Z" fill="white"/>
</mask>
<g mask="url(#mask0_275_525)">
<path d="M206.386 -101.569C206.386 40.0421 123.848 168.299 -9.70532 261.174C-143.256 354.048 -327.783 411.508 -531.628 411.508C-735.474 411.508 -920 354.048 -1053.55 261.174C-1187.1 168.299 -1269.64 40.0421 -1269.64 -101.569C-1269.64 -243.18 -1187.1 -371.437 -1053.55 -464.312C-920 -557.186 -735.474 -614.646 -531.628 -614.646C-327.783 -614.646 -143.256 -557.186 -9.70532 -464.312C123.848 -371.437 206.386 -243.18 206.386 -101.569Z" stroke="white"/>
<path d="M2773.7 652.89C2773.7 816.426 2678.38 964.532 2524.17 1071.78C2369.96 1179.02 2156.89 1245.36 1921.51 1245.36C1686.14 1245.36 1473.07 1179.02 1318.86 1071.78C1164.65 964.532 1069.33 816.426 1069.33 652.89C1069.33 489.355 1164.65 341.248 1318.86 234.005C1473.07 126.763 1686.14 60.4167 1921.51 60.4167C2156.89 60.4167 2369.96 126.763 2524.17 234.005C2678.38 341.248 2773.7 489.355 2773.7 652.89Z" stroke="white"/>
<path d="M2426.04 725.719C2426.04 839.874 2359.51 943.275 2251.83 1018.16C2144.15 1093.04 1995.37 1139.37 1831 1139.37C1666.63 1139.37 1517.85 1093.04 1410.17 1018.16C1302.49 943.275 1235.96 839.874 1235.96 725.719C1235.96 611.564 1302.49 508.163 1410.17 433.28C1517.85 358.398 1666.63 312.067 1831 312.067C1995.37 312.067 2144.15 358.398 2251.83 433.28C2359.51 508.163 2426.04 611.564 2426.04 725.719Z" stroke="white"/>
</g>
<defs>
<linearGradient id="paint0_linear_275_525" x1="89.5" y1="-61.2186" x2="1334.22" y2="22.4201" gradientUnits="userSpaceOnUse">
<stop offset="0.322917" stop-color="#FF5B51"/>
<stop offset="0.61979" stop-color="#FF7872"/>
<stop offset="0.807292" stop-color="#FFB8C1"/>
<stop offset="1" stop-color="#FF5E56"/>
</linearGradient>
</defs>
</svg>
