<svg width="1400" height="720" viewBox="0 0 1400 720" fill="none" xmlns="http://www.w3.org/2000/svg">
<rect width="1400" height="719.001" fill="url(#paint0_linear_660_1522)"/>
<path opacity="0.3" d="M0 0H1400V719.001H0V0Z" fill="#ED401A" fill-opacity="0.7"/>
<mask id="mask0_660_1522" style="mask-type:alpha" maskUnits="userSpaceOnUse" x="11" y="0" width="1379" height="720">
<path d="M11 0H1390V720H11V0Z" fill="white"/>
</mask>
<g mask="url(#mask0_660_1522)">
<path d="M240.5 -101.569C240.5 40.0484 160.251 168.306 30.4117 261.178C-99.4266 354.05 -278.822 411.508 -477 411.508C-675.178 411.508 -854.573 354.05 -984.412 261.178C-1114.25 168.306 -1194.5 40.0484 -1194.5 -101.569C-1194.5 -243.186 -1114.25 -371.443 -984.412 -464.316C-854.573 -557.188 -675.178 -614.646 -477 -614.646C-278.822 -614.646 -99.4266 -557.188 30.4117 -464.316C160.251 -371.443 240.5 -243.186 240.5 -101.569Z" stroke="white"/>
<path d="M2736.5 652.89C2736.5 816.433 2643.83 964.539 2493.9 1071.78C2343.98 1179.02 2136.83 1245.36 1908 1245.36C1679.17 1245.36 1472.02 1179.02 1322.1 1071.78C1172.17 964.539 1079.5 816.433 1079.5 652.89C1079.5 489.348 1172.17 341.242 1322.1 234.001C1472.02 126.762 1679.17 60.4167 1908 60.4167C2136.83 60.4167 2343.98 126.762 2493.9 234.001C2643.83 341.242 2736.5 489.348 2736.5 652.89Z" stroke="white"/>
<path d="M2398.5 725.719C2398.5 839.881 2333.81 943.282 2229.12 1018.16C2124.44 1093.04 1979.79 1139.37 1820 1139.37C1660.21 1139.37 1515.56 1093.04 1410.88 1018.16C1306.19 943.282 1241.5 839.881 1241.5 725.719C1241.5 611.557 1306.19 508.156 1410.88 433.276C1515.56 358.397 1660.21 312.067 1820 312.067C1979.79 312.067 2124.44 358.397 2229.12 433.276C2333.81 508.156 2398.5 611.557 2398.5 725.719Z" stroke="white"/>
</g>
<defs>
<linearGradient id="paint0_linear_660_1522" x1="-199.5" y1="-159" x2="1645.64" y2="-51.7793" gradientUnits="userSpaceOnUse">
<stop stop-color="#ED401A"/>
<stop offset="0.265625" stop-color="#FF8D86"/>
<stop offset="0.708333" stop-color="#FFB8C1"/>
<stop offset="0.991056" stop-color="#FF5E56"/>
</linearGradient>
</defs>
</svg>
