<svg xmlns="http://www.w3.org/2000/svg" fill="none" viewBox="-21 0 1400 720">
<rect x="-21" width="1410" height="719.001" fill="url(#paint0_linear_275_525)"/>
<path opacity="0.3" d="M-21 0H1379V719.001H-21V0Z" fill="#ED401A" fill-opacity="0.7"/>
<mask id="mask0_275_525" style="mask-type:alpha" maskUnits="userSpaceOnUse" x="-10" y="0" width="1379" height="720">
<path d="M-10 0H1369V720H-10V0Z" fill="white"/>
</mask>
<g mask="url(#mask0_275_525)">
<path d="M219.5 -101.569C219.5 40.0484 139.251 168.306 9.41174 261.178C-120.427 354.05 -299.822 411.508 -498 411.508C-696.178 411.508 -875.573 354.05 -1005.41 261.178C-1135.25 168.306 -1215.5 40.0484 -1215.5 -101.569C-1215.5 -243.186 -1135.25 -371.443 -1005.41 -464.316C-875.573 -557.188 -696.178 -614.646 -498 -614.646C-299.822 -614.646 -120.427 -557.188 9.41174 -464.316C139.251 -371.443 219.5 -243.186 219.5 -101.569Z" stroke="white"/>
<path d="M2715.5 652.89C2715.5 816.433 2622.83 964.539 2472.9 1071.78C2322.98 1179.02 2115.83 1245.36 1887 1245.36C1658.17 1245.36 1451.02 1179.02 1301.1 1071.78C1151.17 964.539 1058.5 816.433 1058.5 652.89C1058.5 489.348 1151.17 341.242 1301.1 234.001C1451.02 126.762 1658.17 60.4168 1887 60.4168C2115.83 60.4168 2322.98 126.762 2472.9 234.001C2622.83 341.242 2715.5 489.348 2715.5 652.89Z" stroke="white"/>
<path d="M2377.5 725.719C2377.5 839.881 2312.81 943.282 2208.12 1018.16C2103.44 1093.04 1958.79 1139.37 1799 1139.37C1639.21 1139.37 1494.56 1093.04 1389.88 1018.16C1285.19 943.282 1220.5 839.881 1220.5 725.719C1220.5 611.557 1285.19 508.156 1389.88 433.276C1494.56 358.397 1639.21 312.067 1799 312.067C1958.79 312.067 2103.44 358.397 2208.12 433.276C2312.81 508.156 2377.5 611.557 2377.5 725.719Z" stroke="white"/>
</g>
<defs>
<linearGradient id="paint0_linear_275_525" x1="105.875" y1="-61.2186" x2="1316.32" y2="17.8576" gradientUnits="userSpaceOnUse">
<stop offset="0.322917" stop-color="#FF5B51"/>
<stop offset="0.61979" stop-color="#FF7872"/>
<stop offset="0.807292" stop-color="#FFB8C1"/>
<stop offset="1" stop-color="#FF5E56"/>
</linearGradient>
</defs>
</svg>