<svg xmlns="http://www.w3.org/2000/svg" width="100%" height="100%" viewBox="0 0 430 534" fill="none">
<rect x="-14" y="0.236572" width="444" height="532.261" fill="url(#paint0_linear_740_3163)"/>
<path opacity="0.3" d="M-14 0.236572H430V532.497H-14V0.236572Z" fill="#ED401A" fill-opacity="0.7"/>
<mask id="mask0_740_3163" style="mask-type:alpha" maskUnits="userSpaceOnUse" x="-11" y="0" width="438" height="534">
<path d="M-10.5098 0.236572H426.83V533.237H-10.5098V0.236572Z" fill="white"/>
</mask>
<g mask="url(#mask0_740_3163)">
<path d="M152.5 16.8927C152.5 128.382 50.925 218.859 -74.5 218.859C-199.925 218.859 -301.5 128.382 -301.5 16.8927C-301.5 -94.5968 -199.925 -185.073 -74.5 -185.073C50.925 -185.073 152.5 -94.5968 152.5 16.8927Z" stroke="white"/>
<path d="M853.5 552.484C853.5 756.712 713.737 922.123 541.5 922.123C369.263 922.123 229.5 756.712 229.5 552.484C229.5 348.255 369.263 182.845 541.5 182.845C713.737 182.845 853.5 348.255 853.5 552.484Z" stroke="white"/>
<path d="M726.5 598.011C726.5 740.708 628.822 856.238 508.5 856.238C388.178 856.238 290.5 740.708 290.5 598.011C290.5 455.313 388.178 339.784 508.5 339.784C628.822 339.784 726.5 455.313 726.5 598.011Z" stroke="white"/>
</g>
<defs>
<linearGradient id="paint0_linear_740_3163" x1="26.2375" y1="-45.0822" x2="411.458" y2="-34.3009" gradientUnits="userSpaceOnUse">
<stop offset="0.322917" stop-color="#FF5B51"/>
<stop offset="0.61979" stop-color="#FF7872"/>
<stop offset="0.807292" stop-color="#FFB8C1"/>
<stop offset="1" stop-color="#FF5E56"/>
</linearGradient>
</defs>
</svg>