<svg width="36" height="36" viewBox="0 0 36 36" fill="none" xmlns="http://www.w3.org/2000/svg">
<path d="M18 36C27.9411 36 36 27.9411 36 18C36 8.05888 27.9411 0 18 0C8.05888 0 0 8.05888 0 18C0 27.9411 8.05888 36 18 36Z" fill="#D90026"/>
<path d="M23.5804 22.2L23.6404 18.96L20.4004 18L23.6404 17.04L23.5804 13.8L25.5604 16.38L28.8004 15.42L26.8204 18L28.8004 20.58L25.5604 19.62L23.5804 22.2Z" fill="white"/>
<path d="M18.7212 25.2C14.7612 25.2 11.5812 21.96 11.5812 18C11.5812 14.04 14.7612 10.8 18.7212 10.8C20.2212 10.8 21.6012 11.28 22.8012 12.06C21.1812 10.2 18.7812 9 16.0812 9C11.1612 9 7.20117 13.02 7.20117 18C7.20117 22.98 11.1612 27 16.0812 27C18.7812 27 21.1812 25.8 22.8012 23.94C21.6612 24.72 20.2812 25.2 18.7212 25.2Z" fill="white"/>
</svg>
