<svg width="294" height="294" viewBox="0 0 294 294" fill="none" xmlns="http://www.w3.org/2000/svg">
<path d="M140.575 288.999H23.76C13.3958 288.999 4.96289 280.554 4.96289 270.175V23.7976C4.96289 13.4186 13.3958 4.97363 23.76 4.97363H236.543C246.907 4.97363 255.34 13.4186 255.34 23.7976V163.569C255.34 169.415 260.089 174.175 265.93 174.175H289.609V177.492H265.93C258.265 177.492 252.031 171.249 252.031 163.572V23.7976C252.031 15.2455 245.082 8.2905 236.546 8.2905H23.76C15.2202 8.2905 8.27504 15.2487 8.27504 23.7976V270.175C8.27504 278.727 15.2233 285.682 23.76 285.682H140.575V288.999Z" fill="#895EE2"/>
<path d="M140.264 281.108C143.702 281.108 146.489 283.899 146.489 287.342C146.489 290.785 143.702 293.576 140.264 293.576C136.826 293.576 134.039 290.785 134.039 287.342C134.039 283.899 136.826 281.108 140.264 281.108Z" fill="#895EE2"/>
<path d="M278.635 189.389L276.376 186.964L288.335 175.835L276.376 164.703L278.635 162.274L293.195 175.835L278.635 189.389Z" fill="#895EE2"/>
<path d="M255.34 202.354H252.028V270.175H255.34V202.354Z" fill="#895EE2"/>
<path d="M13.2423 78.3543H0V23.7977C0 10.6751 10.6599 0 23.7606 0H134.65V13.2612H23.7606C17.9604 13.2612 13.2423 17.9861 13.2423 23.7945V78.3543Z" fill="#895EE2"/>
</svg>
