<svg width="34" height="34" viewBox="0 0 34 34" fill="none" xmlns="http://www.w3.org/2000/svg">
<path d="M21.6998 23.9228C18.5166 23.9228 15.5222 22.6818 13.2732 20.4264C8.62737 15.774 8.62737 8.20159 13.2732 3.54915C15.5253 1.29381 18.5166 0.0527344 21.6998 0.0527344C24.883 0.0527344 27.8775 1.29381 30.1264 3.54915C34.7722 8.20159 34.7722 15.774 30.1264 20.4264C27.8743 22.6818 24.883 23.9228 21.6998 23.9228ZM21.6998 2.05294C19.0513 2.05294 16.5602 3.08611 14.6855 4.96347C12.8108 6.84082 11.7791 9.33556 11.7791 11.9878C11.7791 14.64 12.8108 17.1348 14.6855 19.0121C16.5602 20.8895 19.0513 21.9226 21.6998 21.9226C24.3483 21.9226 26.8395 20.8895 28.7141 19.0121C32.583 15.1377 32.583 8.83787 28.7141 4.96347C26.8395 3.08611 24.3483 2.05294 21.6998 2.05294Z" fill="#666666"/>
<path d="M6.44761 33.6941C6.19283 33.6941 5.93491 33.5964 5.73989 33.4011L0.31401 27.9675C-0.0760242 27.5769 -0.0760242 26.9438 0.31401 26.5532L8.57078 18.2846C8.96082 17.8941 9.59305 17.8941 9.98308 18.2846C10.3731 18.6752 10.3731 19.3084 9.98308 19.699L2.43403 27.2588L6.44761 31.2781L13.9967 23.7183C14.3867 23.3277 15.0189 23.3277 15.409 23.7183C15.799 24.1088 15.799 24.742 15.409 25.1326L7.15219 33.4011C6.95717 33.5964 6.70239 33.6941 6.44447 33.6941H6.44761Z" fill="#666666"/>
<path d="M27.2672 14.4922H18.1328V9.31369C18.1328 8.76245 18.5795 8.31201 19.1331 8.31201C19.6867 8.31201 20.1333 8.7593 20.1333 9.31369V12.492H27.2703C27.8208 12.492 28.2706 12.9392 28.2706 13.4936C28.2706 14.048 27.8239 14.4953 27.2703 14.4953L27.2672 14.4922Z" fill="#666666"/>
</svg>
