<svg width="202" height="202" viewBox="0 0 202 202" fill="none" xmlns="http://www.w3.org/2000/svg">
<path d="M96.6543 198.705H16.3363C9.21028 198.705 3.41211 192.899 3.41211 185.763V16.3623C3.41211 9.22612 9.21028 3.41968 16.3363 3.41968H162.638C169.764 3.41968 175.562 9.22612 175.562 16.3623V112.464C175.562 116.484 178.828 119.756 182.844 119.756H199.125V122.037H182.844C177.574 122.037 173.287 117.744 173.287 112.466V16.3623C173.287 10.4823 168.51 5.70024 162.64 5.70024H16.3363C10.4646 5.70024 5.68942 10.4844 5.68942 16.3623V185.763C5.68942 191.643 10.4668 196.425 16.3363 196.425H96.6543V198.705Z" fill="#895EE2"/>
<path d="M96.4401 193.28C98.8039 193.28 100.72 195.199 100.72 197.566C100.72 199.933 98.8039 201.852 96.4401 201.852C94.0763 201.852 92.1602 199.933 92.1602 197.566C92.1602 195.199 94.0763 193.28 96.4401 193.28Z" fill="#895EE2"/>
<path d="M191.58 130.217L190.027 128.549L198.25 120.898L190.027 113.244L191.58 111.574L201.591 120.898L191.58 130.217Z" fill="#895EE2"/>
<path d="M175.562 139.132H173.285V185.763H175.562V139.132Z" fill="#895EE2"/>
<path d="M9.10493 53.8736H0V16.3624C0 7.33981 7.32935 0 16.337 0H92.5804V9.11791H16.337C12.349 9.11791 9.10493 12.3666 9.10493 16.3603V53.8736Z" fill="#895EE2"/>
</svg>
