<svg width="38" height="35" viewBox="0 0 38 35" fill="none" xmlns="http://www.w3.org/2000/svg">
<path d="M14.9969 30.4667C6.74017 30.4667 0.0214844 23.7385 0.0214844 15.4699C0.0214844 7.20138 6.74017 0.473145 14.9969 0.473145C21.7502 0.473145 27.6951 5.02793 29.4565 11.5451C29.6012 12.0775 29.2867 12.6287 28.7519 12.7736C28.2172 12.9185 27.6699 12.6035 27.5252 12.068C25.9996 6.4202 20.8475 2.47334 14.9969 2.47334C7.84108 2.47334 2.01887 8.30385 2.01887 15.4699C2.01887 22.636 7.84108 28.4665 14.9969 28.4665C20.8475 28.4665 25.9996 24.5197 27.5252 18.8718C27.6699 18.3395 28.2172 18.0214 28.7519 18.1663C29.2835 18.3112 29.6012 18.8592 29.4565 19.3947C27.6951 25.9151 21.7502 30.4667 14.9969 30.4667Z" fill="#666666"/>
<path d="M36.9362 19.7159C36.6719 19.7159 36.4077 19.6119 36.2095 19.404L32.3784 15.3438L36.1938 11.5229C36.5838 11.1323 37.2161 11.1323 37.6061 11.5229C37.9961 11.9135 37.9961 12.5466 37.6061 12.9372L35.1652 15.3816L37.6627 18.0275C38.0433 18.4307 38.0245 19.0638 37.6218 19.4418C37.43 19.6245 37.1815 19.7159 36.9362 19.7159Z" fill="#666666"/>
<path d="M14.9971 25.6001C9.42026 25.6001 4.88135 21.0548 4.88135 15.47C4.88135 9.88518 9.42026 5.33984 14.9971 5.33984C18.9855 5.33984 22.6153 7.69914 24.2384 11.3499C24.4617 11.8539 24.2384 12.4461 23.732 12.6697C23.2256 12.8934 22.6373 12.6697 22.414 12.1626C21.1087 9.23315 18.1992 7.34004 14.9971 7.34004C10.5212 7.34004 6.88188 10.9877 6.88188 15.4668C6.88188 19.946 10.5243 23.5936 14.9971 23.5936C18.2652 23.5936 21.2031 21.6438 22.477 18.6294C22.6909 18.1191 23.279 17.8828 23.7855 18.097C24.295 18.3112 24.5309 18.9003 24.317 19.4074C22.7286 23.1653 19.0705 25.5938 14.9971 25.5938V25.6001Z" fill="#666666"/>
<path d="M14.9969 34.1868C14.4464 34.1868 13.9966 33.7395 13.9966 33.1851V29.4651C13.9966 28.9138 14.4433 28.4634 14.9969 28.4634C15.5505 28.4634 15.9971 28.9107 15.9971 29.4651V33.1851C15.9971 33.7364 15.5505 34.1868 14.9969 34.1868Z" fill="#666666"/>
<path d="M26.956 34.6779C26.7012 34.6779 26.4433 34.5803 26.2483 34.385L20.5582 28.6868C20.1681 28.2962 20.1681 27.663 20.5582 27.2724C20.9482 26.8818 21.5804 26.8818 21.9704 27.2724L27.6606 32.9706C28.0506 33.3612 28.0506 33.9944 27.6606 34.385C27.4656 34.5803 27.2108 34.6779 26.9529 34.6779H26.956Z" fill="#666666"/>
<path d="M3.03785 34.6779C2.78307 34.6779 2.52514 34.5803 2.33012 34.385C1.94009 33.9944 1.94009 33.3612 2.33012 32.9706L8.02017 27.2724C8.41021 26.8818 9.04244 26.8818 9.43247 27.2724C9.8225 27.663 9.8225 28.2962 9.43247 28.6868L3.74242 34.385C3.5474 34.5803 3.29262 34.6779 3.0347 34.6779H3.03785Z" fill="#666666"/>
<path d="M33.898 16.4716H15.6482C15.0977 16.4716 14.6479 16.0243 14.6479 15.4699C14.6479 14.9155 15.0946 14.4683 15.6482 14.4683H33.898C34.4485 14.4683 34.8983 14.9155 34.8983 15.4699C34.8983 16.0243 34.4516 16.4716 33.898 16.4716Z" fill="#666666"/>
</svg>
