<svg width="176" height="225" viewBox="0 0 176 225" fill="none" xmlns="http://www.w3.org/2000/svg">
<path d="M107.693 198.882V196.643H51.2597C45.9819 196.643 41.6895 200.857 41.6895 206.037L41.6895 222.04H43.9699L43.9699 206.037C43.9699 202.092 47.2401 198.88 51.2618 198.88H107.696L107.693 198.882Z" fill="#B983D2"/>
<path d="M52.1502 214.626L50.4826 213.099L42.8311 221.18L35.1776 213.099L33.5078 214.626L42.8311 224.466L52.1502 214.626Z" fill="#B983D2"/>
<path d="M79.3149 198.706H159.634C166.76 198.706 172.559 192.899 172.559 185.763V139.132H170.281V185.763C170.281 191.643 165.504 196.425 159.634 196.425H79.3149V198.706Z" fill="#B983D2"/>
<path d="M0.407867 102.658H2.68523V16.3623C2.68523 10.4823 7.46268 5.70024 13.3323 5.70024H159.634C165.506 5.70024 170.281 10.4844 170.281 16.3623V102.658H172.559V16.3623C172.559 9.22612 166.76 3.41968 159.634 3.41968H13.3323C6.20613 3.41968 0.407867 9.22612 0.407867 16.3623V102.658Z" fill="#B983D2"/>
<path d="M166.866 53.8736H175.971V16.3624C175.971 7.33981 168.641 0 159.631 0H83.3866V9.11791H159.631C163.619 9.11791 166.863 12.3666 166.863 16.3603V53.8736H166.866Z" fill="#B983D2"/>
</svg>
