<svg width="202" height="203" viewBox="0 0 202 203" fill="none" xmlns="http://www.w3.org/2000/svg">
<path d="M105.004 3.85377H185.322C192.448 3.85377 198.246 9.66028 198.246 16.7966V63.4285H195.969V16.7966C195.969 10.9164 191.191 6.13435 185.322 6.13435H105.004V3.85377Z" fill="#C75C89"/>
<path d="M105.22 9.27905C102.856 9.27905 100.94 7.36016 100.94 4.99294C100.94 2.62572 102.856 0.706807 105.22 0.706807C107.584 0.706807 109.5 2.62572 109.5 4.99294C109.5 7.36016 107.584 9.27905 105.22 9.27905Z" fill="#C75C89"/>
<path d="M26.0996 63.4286H28.377V16.7967H26.0996V63.4286Z" fill="#C75C89"/>
<path d="M2.53833 80.5257H18.819C24.0895 80.5257 28.3759 84.8183 28.3759 90.0964V186.2C28.3759 192.08 33.1533 196.862 39.0228 196.862H185.322C191.194 196.862 195.969 192.077 195.969 186.2V99.9032H198.246V186.2C198.246 193.336 192.448 199.142 185.322 199.142H39.0228C31.8967 199.142 26.0986 193.336 26.0986 186.2V90.0964C26.0986 86.0767 22.833 82.8041 18.8168 82.8041H2.53616V80.5236L2.53833 80.5257Z" fill="#C75C89"/>
<path d="M10.0839 72.3432L11.6367 74.0109L3.41419 81.6627L11.6367 89.3166L10.0839 90.9865L0.072854 81.6627L10.0839 72.3432Z" fill="#C75C89"/>
<path d="M201.969 148.533H192.864V186.354C192.864 190.38 189.62 193.656 185.632 193.656H109.391V202.851H185.632C194.642 202.851 201.971 195.451 201.971 186.354V148.533H201.969Z" fill="#C75C89"/>
</svg>
