<svg width="289" height="294" viewBox="0 0 289 294" fill="none" xmlns="http://www.w3.org/2000/svg">
<path d="M136.377 288.999H19.5618C9.19757 288.999 0.764648 280.554 0.764648 270.175V202.354H4.0768V270.175C4.0768 278.728 11.0251 285.683 19.5618 285.683H136.377V288.999Z" fill="#C75C89"/>
<path d="M136.066 281.109C139.504 281.109 142.29 283.9 142.29 287.343C142.29 290.785 139.504 293.576 136.066 293.576C132.628 293.576 129.841 290.785 129.841 287.343C129.841 283.9 132.628 281.109 136.066 281.109Z" fill="#C75C89"/>
<path d="M251.141 202.354H247.829V270.175H251.141V202.354Z" fill="#C75C89"/>
<path d="M285.408 177.489H261.729C254.063 177.489 247.829 171.245 247.829 163.569V23.7976C247.829 15.2455 240.881 8.2905 232.344 8.2905H19.5647C11.0249 8.2905 4.07973 15.2487 4.07973 23.7976V149.306H0.767578V23.7976C0.767578 13.4186 9.2005 4.97363 19.5647 4.97363H232.344C242.708 4.97363 251.141 13.4186 251.141 23.7976V163.569C251.141 169.415 255.891 174.175 261.732 174.175H285.411V177.492L285.408 177.489Z" fill="#C75C89"/>
<path d="M274.436 189.389L272.178 186.964L284.137 175.835L272.178 164.703L274.436 162.274L288.996 175.835L274.436 189.389Z" fill="#C75C89"/>
<path d="M256.592 78.3543H243.35V23.7977C243.35 17.9892 238.632 13.2643 232.832 13.2643H121.942V0H232.832C245.935 0 256.595 10.6751 256.595 23.7977V78.3543H256.592Z" fill="#C75C89"/>
<path d="M115.485 131.646C115.395 130.808 115.018 130.156 114.353 129.69C113.695 129.223 112.839 128.99 111.784 128.99C111.042 128.99 110.406 129.101 109.876 129.325C109.345 129.549 108.939 129.853 108.658 130.236C108.377 130.62 108.233 131.057 108.227 131.55C108.227 131.959 108.319 132.313 108.505 132.614C108.696 132.914 108.955 133.17 109.281 133.381C109.607 133.585 109.969 133.758 110.365 133.899C110.761 134.039 111.161 134.158 111.563 134.253L113.404 134.714C114.146 134.886 114.858 135.12 115.542 135.414C116.233 135.708 116.85 136.078 117.393 136.526C117.943 136.973 118.377 137.513 118.697 138.146C119.016 138.779 119.176 139.521 119.176 140.371C119.176 141.521 118.882 142.534 118.294 143.41C117.706 144.279 116.856 144.96 115.744 145.452C114.638 145.938 113.299 146.181 111.726 146.181C110.199 146.181 108.872 145.945 107.747 145.472C106.629 144.998 105.753 144.308 105.12 143.4C104.494 142.493 104.155 141.387 104.104 140.083H107.603C107.655 140.767 107.866 141.336 108.236 141.79C108.607 142.244 109.09 142.582 109.684 142.806C110.285 143.03 110.956 143.142 111.698 143.142C112.471 143.142 113.149 143.027 113.73 142.796C114.318 142.56 114.779 142.234 115.111 141.818C115.443 141.397 115.613 140.904 115.619 140.342C115.613 139.831 115.462 139.409 115.168 139.076C114.874 138.737 114.462 138.456 113.932 138.233C113.407 138.002 112.794 137.798 112.091 137.619L109.857 137.044C108.239 136.628 106.961 135.998 106.021 135.155C105.088 134.305 104.622 133.176 104.622 131.77C104.622 130.613 104.935 129.6 105.561 128.731C106.194 127.861 107.054 127.187 108.14 126.708C109.227 126.222 110.458 125.979 111.832 125.979C113.225 125.979 114.446 126.222 115.494 126.708C116.549 127.187 117.377 127.855 117.978 128.712C118.579 129.562 118.889 130.54 118.908 131.646H115.485ZM127.618 146.171C126.18 146.171 124.933 145.855 123.879 145.222C122.824 144.589 122.006 143.704 121.424 142.566C120.849 141.429 120.561 140.099 120.561 138.578C120.561 137.056 120.849 135.724 121.424 134.579C122.006 133.435 122.824 132.547 123.879 131.914C124.933 131.281 126.18 130.965 127.618 130.965C129.056 130.965 130.303 131.281 131.357 131.914C132.412 132.547 133.227 133.435 133.802 134.579C134.384 135.724 134.675 137.056 134.675 138.578C134.675 140.099 134.384 141.429 133.802 142.566C133.227 143.704 132.412 144.589 131.357 145.222C130.303 145.855 129.056 146.171 127.618 146.171ZM127.637 143.391C128.417 143.391 129.069 143.177 129.593 142.748C130.117 142.314 130.507 141.732 130.763 141.003C131.025 140.275 131.156 139.463 131.156 138.568C131.156 137.667 131.025 136.852 130.763 136.123C130.507 135.388 130.117 134.803 129.593 134.369C129.069 133.934 128.417 133.717 127.637 133.717C126.838 133.717 126.174 133.934 125.643 134.369C125.119 134.803 124.726 135.388 124.464 136.123C124.208 136.852 124.08 137.667 124.08 138.568C124.08 139.463 124.208 140.275 124.464 141.003C124.726 141.732 125.119 142.314 125.643 142.748C126.174 143.177 126.838 143.391 127.637 143.391ZM143.045 146.171C141.607 146.171 140.36 145.855 139.306 145.222C138.251 144.589 137.433 143.704 136.851 142.566C136.276 141.429 135.988 140.099 135.988 138.578C135.988 137.056 136.276 135.724 136.851 134.579C137.433 133.435 138.251 132.547 139.306 131.914C140.36 131.281 141.607 130.965 143.045 130.965C144.483 130.965 145.73 131.281 146.784 131.914C147.839 132.547 148.654 133.435 149.229 134.579C149.811 135.724 150.102 137.056 150.102 138.578C150.102 140.099 149.811 141.429 149.229 142.566C148.654 143.704 147.839 144.589 146.784 145.222C145.73 145.855 144.483 146.171 143.045 146.171ZM143.064 143.391C143.844 143.391 144.496 143.177 145.02 142.748C145.544 142.314 145.934 141.732 146.19 141.003C146.452 140.275 146.583 139.463 146.583 138.568C146.583 137.667 146.452 136.852 146.19 136.123C145.934 135.388 145.544 134.803 145.02 134.369C144.496 133.934 143.844 133.717 143.064 133.717C142.265 133.717 141.6 133.934 141.07 134.369C140.546 134.803 140.152 135.388 139.89 136.123C139.635 136.852 139.507 137.667 139.507 138.568C139.507 139.463 139.635 140.275 139.89 141.003C140.152 141.732 140.546 142.314 141.07 142.748C141.6 143.177 142.265 143.391 143.064 143.391ZM155.518 137.255V145.884H152.048V131.157H155.365V133.659H155.538C155.876 132.834 156.417 132.179 157.158 131.693C157.906 131.208 158.83 130.965 159.929 130.965C160.945 130.965 161.831 131.182 162.585 131.617C163.346 132.051 163.934 132.681 164.349 133.506C164.771 134.33 164.979 135.331 164.972 136.507V145.884H161.501V137.044C161.501 136.059 161.246 135.289 160.734 134.733C160.229 134.177 159.53 133.899 158.635 133.899C158.027 133.899 157.487 134.033 157.014 134.301C156.548 134.563 156.18 134.944 155.912 135.442C155.65 135.941 155.518 136.545 155.518 137.255Z" fill="#C75C89"/>
</svg>
