<svg width="176" height="202" viewBox="0 0 176 202" fill="none" xmlns="http://www.w3.org/2000/svg">
<path d="M82.3219 3.29187H162.638C169.764 3.29187 175.562 9.09839 175.562 16.2347V62.8666H173.285V16.2347C173.285 10.3546 168.508 5.57246 162.638 5.57246H82.3219V3.29187Z" fill="#ED401A"/>
<path d="M82.5366 8.71716C80.1728 8.71716 78.2567 6.79827 78.2567 4.43105C78.2567 2.06383 80.1728 0.144917 82.5366 0.144917C84.9003 0.144917 86.8164 2.06383 86.8164 4.43105C86.8164 6.79827 84.9003 8.71716 82.5366 8.71716Z" fill="#ED401A"/>
<path d="M3.41757 16.2349H5.69485V185.637C5.69485 191.518 10.4722 196.3 16.3416 196.3H162.638C168.51 196.3 173.285 191.515 173.285 185.637V99.341H175.562V185.637C175.562 192.774 169.764 198.58 162.638 198.58H16.3416C9.21565 198.58 3.41757 192.774 3.41757 185.637V16.2349Z" fill="#ED401A"/>
<path d="M0.00123596 148.126H9.10603V185.637C9.10603 189.631 12.35 192.88 16.3379 192.88H92.5801V202H16.3379C7.32831 202 -0.000930786 194.66 -0.000930786 185.637V148.126H0.00123596Z" fill="#ED401A"/>
</svg>
