<svg width="294" height="295" viewBox="0 0 294 295" fill="none" xmlns="http://www.w3.org/2000/svg">
<path d="M255.739 270.175H252.427V188.094C252.427 180.418 258.661 174.175 266.326 174.175H290.005V177.492H266.326C260.488 177.492 255.736 182.248 255.736 188.097V270.178L255.739 270.175Z" fill="#B983D2"/>
<path d="M279.037 189.389L276.779 186.964L288.735 175.835L276.779 164.703L279.037 162.274L293.597 175.835L279.037 189.389Z" fill="#B983D2"/>
<path d="M140.978 288.999H24.1624C13.7981 288.999 5.36523 280.554 5.36523 270.175V202.354H8.67737V270.175C8.67737 278.728 15.6256 285.683 24.1624 285.683H140.978V288.999Z" fill="#B983D2"/>
<path d="M146.828 288.356C147.379 284.958 145.075 281.756 141.681 281.204C138.288 280.653 135.09 282.96 134.539 286.359C133.989 289.757 136.293 292.959 139.686 293.511C143.08 294.062 146.277 291.754 146.828 288.356Z" fill="#B983D2"/>
<path d="M255.739 149.306H252.427V23.7976C252.427 15.2455 245.479 8.2905 236.942 8.2905H24.1624C15.6225 8.2905 8.67737 15.2487 8.67737 23.7976V149.306H5.36523V23.7976C5.36523 13.4186 13.7981 4.97363 24.1624 4.97363H236.942C247.306 4.97363 255.739 13.4186 255.739 23.7976V149.306Z" fill="#B983D2"/>
<path d="M13.6446 78.3543H0.402344V23.7977C0.402344 10.6751 11.0622 0 24.1661 0H135.055V13.2612H24.1661C18.3659 13.2612 13.6478 17.9861 13.6478 23.7945V78.3543H13.6446Z" fill="#B983D2"/>
<path d="M96.6557 131.646C96.5663 130.808 96.1891 130.156 95.5244 129.69C94.866 129.223 94.0094 128.99 92.9548 128.99C92.2133 128.99 91.5773 129.101 91.0467 129.325C90.5162 129.549 90.1103 129.853 89.829 130.236C89.5478 130.62 89.404 131.057 89.3976 131.55C89.3976 131.959 89.4903 132.313 89.6756 132.614C89.8674 132.914 90.1263 133.17 90.4523 133.381C90.7783 133.585 91.1394 133.758 91.5357 133.899C91.932 134.039 92.3315 134.158 92.7342 134.253L94.5751 134.714C95.3166 134.886 96.0293 135.12 96.7133 135.414C97.4036 135.708 98.0204 136.078 98.5638 136.526C99.1135 136.973 99.5481 137.513 99.8677 138.146C100.187 138.779 100.347 139.521 100.347 140.371C100.347 141.521 100.053 142.534 99.465 143.41C98.877 144.279 98.0268 144.96 96.9146 145.452C95.8088 145.938 94.4697 146.181 92.8972 146.181C91.3695 146.181 90.0432 145.945 88.9182 145.472C87.7996 144.998 86.9239 144.308 86.291 143.4C85.6646 142.493 85.3258 141.387 85.2747 140.083H88.7744C88.8255 140.767 89.0364 141.336 89.4072 141.79C89.7779 142.244 90.2605 142.582 90.855 142.806C91.4558 143.03 92.127 143.142 92.8685 143.142C93.6419 143.142 94.3195 143.027 94.9011 142.796C95.4892 142.56 95.9494 142.234 96.2818 141.818C96.6142 141.397 96.7836 140.904 96.79 140.342C96.7836 139.831 96.6334 139.409 96.3393 139.076C96.0453 138.737 95.633 138.456 95.1025 138.233C94.5783 138.002 93.9647 137.798 93.2616 137.619L91.0275 137.044C89.4104 136.628 88.132 135.998 87.1923 135.155C86.2591 134.305 85.7925 133.176 85.7925 131.77C85.7925 130.613 86.1057 129.6 86.7321 128.731C87.3649 127.861 88.2246 127.187 89.3113 126.708C90.3979 126.222 91.6284 125.979 93.0027 125.979C94.3962 125.979 95.617 126.222 96.6653 126.708C97.72 127.187 98.5478 127.855 99.1486 128.712C99.7495 129.562 100.06 130.54 100.079 131.646H96.6557ZM108.789 146.171C107.351 146.171 106.104 145.855 105.05 145.222C103.995 144.589 103.177 143.704 102.595 142.566C102.02 141.429 101.732 140.099 101.732 138.578C101.732 137.056 102.02 135.724 102.595 134.579C103.177 133.435 103.995 132.547 105.05 131.914C106.104 131.281 107.351 130.965 108.789 130.965C110.227 130.965 111.474 131.281 112.528 131.914C113.583 132.547 114.398 133.435 114.973 134.579C115.555 135.724 115.846 137.056 115.846 138.578C115.846 140.099 115.555 141.429 114.973 142.566C114.398 143.704 113.583 144.589 112.528 145.222C111.474 145.855 110.227 146.171 108.789 146.171ZM108.808 143.391C109.588 143.391 110.24 143.177 110.764 142.748C111.288 142.314 111.678 141.732 111.934 141.003C112.196 140.275 112.327 139.463 112.327 138.568C112.327 137.667 112.196 136.852 111.934 136.123C111.678 135.388 111.288 134.803 110.764 134.369C110.24 133.934 109.588 133.717 108.808 133.717C108.009 133.717 107.344 133.934 106.814 134.369C106.29 134.803 105.897 135.388 105.635 136.123C105.379 136.852 105.251 137.667 105.251 138.568C105.251 139.463 105.379 140.275 105.635 141.003C105.897 141.732 106.29 142.314 106.814 142.748C107.344 143.177 108.009 143.391 108.808 143.391ZM134.314 131.646C134.224 130.808 133.847 130.156 133.183 129.69C132.524 129.223 131.668 128.99 130.613 128.99C129.871 128.99 129.235 129.101 128.705 129.325C128.174 129.549 127.768 129.853 127.487 130.236C127.206 130.62 127.062 131.057 127.056 131.55C127.056 131.959 127.148 132.313 127.334 132.614C127.526 132.914 127.784 133.17 128.11 133.381C128.436 133.585 128.798 133.758 129.194 133.899C129.59 134.039 129.99 134.158 130.392 134.253L132.233 134.714C132.975 134.886 133.688 135.12 134.371 135.414C135.062 135.708 135.679 136.078 136.222 136.526C136.772 136.973 137.206 137.513 137.526 138.146C137.846 138.779 138.005 139.521 138.005 140.371C138.005 141.521 137.711 142.534 137.123 143.41C136.535 144.279 135.685 144.96 134.573 145.452C133.467 145.938 132.128 146.181 130.555 146.181C129.028 146.181 127.701 145.945 126.576 145.472C125.458 144.998 124.582 144.308 123.949 143.4C123.323 142.493 122.984 141.387 122.933 140.083H126.433C126.484 140.767 126.695 141.336 127.065 141.79C127.436 142.244 127.919 142.582 128.513 142.806C129.114 143.03 129.785 143.142 130.527 143.142C131.3 143.142 131.978 143.027 132.559 142.796C133.147 142.56 133.608 142.234 133.94 141.818C134.272 141.397 134.442 140.904 134.448 140.342C134.442 139.831 134.292 139.409 133.998 139.076C133.704 138.737 133.291 138.456 132.761 138.233C132.237 138.002 131.623 137.798 130.92 137.619L128.686 137.044C127.069 136.628 125.79 135.998 124.851 135.155C123.917 134.305 123.451 133.176 123.451 131.77C123.451 130.613 123.764 129.6 124.39 128.731C125.023 127.861 125.883 127.187 126.969 126.708C128.056 126.222 129.287 125.979 130.661 125.979C132.054 125.979 133.275 126.222 134.324 126.708C135.378 127.187 136.206 127.855 136.807 128.712C137.408 129.562 137.718 130.54 137.737 131.646H134.314ZM146.447 146.171C145.009 146.171 143.763 145.855 142.708 145.222C141.653 144.589 140.835 143.704 140.253 142.566C139.678 141.429 139.39 140.099 139.39 138.578C139.39 137.056 139.678 135.724 140.253 134.579C140.835 133.435 141.653 132.547 142.708 131.914C143.763 131.281 145.009 130.965 146.447 130.965C147.885 130.965 149.132 131.281 150.187 131.914C151.241 132.547 152.056 133.435 152.632 134.579C153.213 135.724 153.504 137.056 153.504 138.578C153.504 140.099 153.213 141.429 152.632 142.566C152.056 143.704 151.241 144.589 150.187 145.222C149.132 145.855 147.885 146.171 146.447 146.171ZM146.466 143.391C147.246 143.391 147.898 143.177 148.422 142.748C148.946 142.314 149.336 141.732 149.592 141.003C149.854 140.275 149.985 139.463 149.985 138.568C149.985 137.667 149.854 136.852 149.592 136.123C149.336 135.388 148.946 134.803 148.422 134.369C147.898 133.934 147.246 133.717 146.466 133.717C145.667 133.717 145.003 133.934 144.472 134.369C143.948 134.803 143.555 135.388 143.293 136.123C143.037 136.852 142.909 137.667 142.909 138.568C142.909 139.463 143.037 140.275 143.293 141.003C143.555 141.732 143.948 142.314 144.472 142.748C145.003 143.177 145.667 143.391 146.466 143.391ZM161.874 146.171C160.436 146.171 159.189 145.855 158.135 145.222C157.08 144.589 156.262 143.704 155.68 142.566C155.105 141.429 154.817 140.099 154.817 138.578C154.817 137.056 155.105 135.724 155.68 134.579C156.262 133.435 157.08 132.547 158.135 131.914C159.189 131.281 160.436 130.965 161.874 130.965C163.312 130.965 164.559 131.281 165.613 131.914C166.668 132.547 167.483 133.435 168.058 134.579C168.64 135.724 168.931 137.056 168.931 138.578C168.931 140.099 168.64 141.429 168.058 142.566C167.483 143.704 166.668 144.589 165.613 145.222C164.559 145.855 163.312 146.171 161.874 146.171ZM161.893 143.391C162.673 143.391 163.325 143.177 163.849 142.748C164.373 142.314 164.763 141.732 165.019 141.003C165.281 140.275 165.412 139.463 165.412 138.568C165.412 137.667 165.281 136.852 165.019 136.123C164.763 135.388 164.373 134.803 163.849 134.369C163.325 133.934 162.673 133.717 161.893 133.717C161.094 133.717 160.429 133.934 159.899 134.369C159.375 134.803 158.982 135.388 158.719 136.123C158.464 136.852 158.336 137.667 158.336 138.568C158.336 139.463 158.464 140.275 158.719 141.003C158.982 141.732 159.375 142.314 159.899 142.748C160.429 143.177 161.094 143.391 161.893 143.391ZM174.348 137.255V145.884H170.877V131.157H174.194V133.659H174.367C174.706 132.834 175.246 132.179 175.987 131.693C176.735 131.208 177.659 130.965 178.758 130.965C179.774 130.965 180.66 131.182 181.414 131.617C182.175 132.051 182.763 132.681 183.178 133.506C183.6 134.33 183.808 135.331 183.801 136.507V145.884H180.331V137.044C180.331 136.059 180.075 135.289 179.564 134.733C179.059 134.177 178.359 133.899 177.464 133.899C176.856 133.899 176.316 134.033 175.843 134.301C175.377 134.563 175.009 134.944 174.741 135.442C174.479 135.941 174.348 136.545 174.348 137.255Z" fill="#B983D2"/>
</svg>
