<svg width="290" height="290" viewBox="0 0 290 290" fill="none" xmlns="http://www.w3.org/2000/svg">
<path d="M136.575 284.999H19.76C9.39581 284.999 0.962891 276.554 0.962891 266.175V19.7976C0.962891 9.41858 9.39581 0.973633 19.76 0.973633H232.543C242.907 0.973633 251.34 9.41858 251.34 19.7976V159.569C251.34 165.415 256.089 170.175 261.93 170.175H285.609V173.492H261.93C254.265 173.492 248.031 167.249 248.031 159.572V19.7976C248.031 11.2455 241.082 4.2905 232.546 4.2905H19.76C11.2202 4.2905 4.27504 11.2487 4.27504 19.7976V266.175C4.27504 274.727 11.2233 281.682 19.76 281.682H136.575V284.999Z" fill="#895EE2"/>
<path d="M136.264 277.108C139.702 277.108 142.489 279.899 142.489 283.342C142.489 286.785 139.702 289.576 136.264 289.576C132.826 289.576 130.039 286.785 130.039 283.342C130.039 279.899 132.826 277.108 136.264 277.108Z" fill="#895EE2"/>
<path d="M274.635 185.389L272.376 182.964L284.335 171.835L272.376 160.703L274.635 158.274L289.195 171.835L274.635 185.389Z" fill="#895EE2"/>
</svg>
