<svg width="289" height="294" viewBox="0 0 289 294" fill="none" xmlns="http://www.w3.org/2000/svg">
<path d="M136.377 288.999H19.5618C9.19757 288.999 0.764648 280.554 0.764648 270.175V202.354H4.0768V270.175C4.0768 278.728 11.0251 285.683 19.5618 285.683H136.377V288.999Z" fill="#C75C89"/>
<path d="M136.066 281.109C139.504 281.109 142.29 283.9 142.29 287.343C142.29 290.785 139.504 293.576 136.066 293.576C132.628 293.576 129.841 290.785 129.841 287.343C129.841 283.9 132.628 281.109 136.066 281.109Z" fill="#C75C89"/>
<path d="M251.141 202.354H247.829V270.175H251.141V202.354Z" fill="#C75C89"/>
<path d="M285.408 177.489H261.729C254.063 177.489 247.829 171.245 247.829 163.569V23.7976C247.829 15.2455 240.881 8.2905 232.344 8.2905H19.5647C11.0249 8.2905 4.07973 15.2487 4.07973 23.7976V149.306H0.767578V23.7976C0.767578 13.4186 9.2005 4.97363 19.5647 4.97363H232.344C242.708 4.97363 251.141 13.4186 251.141 23.7976V163.569C251.141 169.415 255.891 174.175 261.732 174.175H285.411V177.492L285.408 177.489Z" fill="#C75C89"/>
<path d="M274.436 189.389L272.178 186.964L284.137 175.835L272.178 164.703L274.436 162.274L288.996 175.835L274.436 189.389Z" fill="#C75C89"/>
<path d="M256.592 78.3543H243.35V23.7977C243.35 17.9892 238.632 13.2643 232.832 13.2643H121.942V0H232.832C245.935 0 256.595 10.6751 256.595 23.7977V78.3543H256.592Z" fill="#C75C89"/>
</svg>
