<svg width="294" height="295" viewBox="0 0 294 295" fill="none" xmlns="http://www.w3.org/2000/svg">
<path d="M255.739 270.175H252.427V188.094C252.427 180.418 258.661 174.175 266.326 174.175H290.005V177.492H266.326C260.488 177.492 255.736 182.248 255.736 188.097V270.178L255.739 270.175Z" fill="#B983D2"/>
<path d="M279.037 189.389L276.779 186.964L288.735 175.835L276.779 164.703L279.037 162.274L293.597 175.835L279.037 189.389Z" fill="#B983D2"/>
<path d="M140.978 288.999H24.1624C13.7981 288.999 5.36523 280.554 5.36523 270.175V202.354H8.67737V270.175C8.67737 278.728 15.6256 285.683 24.1624 285.683H140.978V288.999Z" fill="#B983D2"/>
<path d="M146.828 288.356C147.379 284.958 145.075 281.756 141.681 281.204C138.288 280.653 135.09 282.96 134.539 286.359C133.989 289.757 136.293 292.959 139.686 293.511C143.08 294.062 146.277 291.754 146.828 288.356Z" fill="#B983D2"/>
<path d="M255.739 149.306H252.427V23.7976C252.427 15.2455 245.479 8.2905 236.942 8.2905H24.1624C15.6225 8.2905 8.67737 15.2487 8.67737 23.7976V149.306H5.36523V23.7976C5.36523 13.4186 13.7981 4.97363 24.1624 4.97363H236.942C247.306 4.97363 255.739 13.4186 255.739 23.7976V149.306Z" fill="#B983D2"/>
<path d="M13.6446 78.3543H0.402344V23.7977C0.402344 10.6751 11.0622 0 24.1661 0H135.055V13.2612H24.1661C18.3659 13.2612 13.6478 17.9861 13.6478 23.7945V78.3543H13.6446Z" fill="#B983D2"/>
</svg>
