<svg width="33" height="33" viewBox="0 0 33 33" fill="none" xmlns="http://www.w3.org/2000/svg">
<path d="M15.4033 24.0253C14.9472 24.0253 14.5352 23.7103 14.4282 23.2442C14.3056 22.7055 14.6452 22.17 15.1831 22.0472C18.0518 21.3983 22.1031 19.9934 25.1038 16.9884C29.888 12.1974 30.709 4.86435 30.8443 2.04516C28.0291 2.18061 20.7065 3.00274 15.9223 7.79377C12.9216 10.7988 11.5187 14.8559 10.8707 17.7286C10.7481 18.2673 10.2133 18.6075 9.67545 18.4846C9.13758 18.3618 8.7979 17.8263 8.92057 17.2876C9.94599 12.7329 11.827 9.06319 14.5069 6.37631C20.1309 0.744247 28.7745 0.092216 31.2909 0.0260676C31.7124 0.0134679 32.1182 0.177263 32.4138 0.473356C32.7095 0.769449 32.8699 1.17894 32.8605 1.59473C32.7944 4.11152 32.1433 12.7675 26.5193 18.4027C23.8394 21.0864 20.1717 22.9701 15.6234 23.997C15.548 24.0127 15.4756 24.0222 15.4033 24.0222V24.0253Z" fill="#666666"/>
<path d="M1.55377 30.029C1.29584 30.029 1.03791 29.9314 0.842896 29.7329C0.456007 29.3392 0.459159 28.7061 0.849193 28.3186L8.2882 20.9478C8.68138 20.5604 9.31361 20.5635 9.7005 20.9541C10.0874 21.3478 10.0842 21.981 9.6942 22.3684L2.25519 29.7392C2.06018 29.9314 1.8054 30.029 1.55377 30.029Z" fill="#666666"/>
<path d="M6.69019 29.8903C6.43541 29.8903 6.17748 29.7926 5.98247 29.5973C5.59243 29.2067 5.59243 28.5736 5.98247 28.183L10.7446 23.414C11.1347 23.0234 11.7669 23.0234 12.1569 23.414C12.547 23.8046 12.547 24.4378 12.1569 24.8284L7.39477 29.5973C7.19975 29.7926 6.94497 29.8903 6.68704 29.8903H6.69019Z" fill="#666666"/>
<path d="M21.6184 16.0088C20.4357 16.0088 19.2499 15.5584 18.3503 14.6544C16.548 12.8494 16.548 9.91057 18.3503 8.10566C19.2247 7.22998 20.3854 6.74805 21.6184 6.74805C22.8514 6.74805 24.0152 7.22998 24.8865 8.10566C25.7609 8.98134 26.2421 10.1437 26.2421 11.3784C26.2421 12.6132 25.7609 13.7787 24.8865 14.6512C23.9838 15.5552 22.801 16.0057 21.6184 16.0057V16.0088ZM21.6184 8.7514C20.9169 8.7514 20.2564 9.02544 19.7626 9.51998C18.7403 10.5437 18.7403 12.2132 19.7626 13.2369C20.7849 14.2606 22.452 14.2606 23.4742 13.2369C23.9712 12.7392 24.2417 12.0809 24.2417 11.3784C24.2417 10.676 23.9681 10.0145 23.4742 9.51998C22.9772 9.02229 22.3198 8.7514 21.6184 8.7514Z" fill="#666666"/>
<path d="M19.3225 32.8953C19.1716 32.8953 19.0206 32.8669 18.8791 32.8071C18.445 32.6276 18.165 32.2055 18.165 31.7361V25.7828C18.165 25.2315 18.6117 24.7811 19.1653 24.7811C19.7189 24.7811 20.1656 25.2284 20.1656 25.7828V29.7076L22.8109 27.0585C22.8234 26.3214 22.8361 24.5543 22.8423 22.9573C22.8423 22.4061 23.2921 21.9619 23.8426 21.9619H23.8457C24.3962 21.9619 24.8428 22.4124 24.8396 22.9667C24.8396 22.9667 24.8365 24.0913 24.8271 25.2221C24.8145 26.9986 24.7055 27.9898 24.5 28.1956L20.1435 32.5582C19.9202 32.7819 19.6245 32.8984 19.3257 32.8984L19.3225 32.8953Z" fill="#666666"/>
<path d="M7.1243 14.7267H1.17946C0.710788 14.7267 0.28933 14.4463 0.11004 14.0116C-0.0692501 13.5769 0.028197 13.0793 0.361613 12.7485L4.71493 8.38902C4.92043 8.18323 5.91123 8.07403 7.68735 8.06143C8.81656 8.05198 9.93953 8.04883 9.93953 8.04883H9.94268C10.4931 8.04883 10.9398 8.49297 10.9429 9.0442C10.9429 9.59544 10.4994 10.0459 9.94898 10.049C8.35424 10.0553 6.58964 10.0679 5.85361 10.0805L3.20825 12.7296H7.12745C7.6779 12.7296 8.12776 13.1769 8.12776 13.7313C8.12776 14.2857 7.68105 14.733 7.12745 14.733L7.1243 14.7267Z" fill="#666666"/>
</svg>
