<svg width="38" height="39" viewBox="0 0 38 39" fill="none" xmlns="http://www.w3.org/2000/svg">
<path d="M9.28473 34.3767C9.02995 34.3767 8.77202 34.279 8.577 34.0837L4.23003 29.7306C3.83999 29.34 3.83999 28.7068 4.23003 28.3162L6.89735 25.6451C7.0735 25.4687 7.13009 25.1978 7.03258 24.9742C5.09814 20.4572 6.18334 15.1401 9.73454 11.7413C14.2734 7.3976 21.6306 7.4291 26.1349 11.8106C28.4247 14.0376 29.6986 17.0238 29.7206 20.2178C29.7426 23.4118 28.5128 26.4168 26.2575 28.6753C22.8541 32.0836 17.7869 33.0852 13.3455 31.2331C13.1285 31.1449 12.8674 31.2016 12.6913 31.378L9.98615 34.0869C9.79114 34.2822 9.53636 34.3798 9.27843 34.3798L9.28473 34.3767ZM6.35005 29.0218L9.28473 31.9607L11.2821 29.9605C12.0338 29.2045 13.1473 28.9809 14.1193 29.3841C17.8089 30.9244 22.0206 30.0897 24.8483 27.2579C26.723 25.3805 27.7453 22.8858 27.7264 20.2304C27.7076 17.575 26.6476 15.096 24.7477 13.2439C21.0046 9.60255 14.893 9.57735 11.1217 13.184C8.17123 16.0095 7.26852 20.4288 8.87584 24.1835C9.29733 25.1663 9.07714 26.2971 8.31595 27.0594L6.3532 29.025L6.35005 29.0218Z" fill="#666666"/>
<path d="M6.83437 36.5659C6.57959 36.5659 6.32166 36.4682 6.12665 36.273L1.95268 32.093C1.56265 31.7024 1.56265 31.0693 1.95268 30.6787C2.34272 30.2881 2.97495 30.2881 3.36498 30.6787L7.53898 34.8586C7.92902 35.2492 7.92902 35.8824 7.53898 36.273C7.34397 36.4682 7.08919 36.5659 6.83126 36.5659H6.83437Z" fill="#666666"/>
<path d="M4.50061 38.2037C4.24583 38.2037 3.9879 38.1061 3.79288 37.9108L0.31401 34.427C-0.0760242 34.0364 -0.0760242 33.4033 0.31401 33.0127C0.704044 32.6221 1.33627 32.6221 1.72631 33.0127L5.20518 36.4965C5.59522 36.8871 5.59522 37.5202 5.20518 37.9108C5.01016 38.1061 4.75538 38.2037 4.49746 38.2037H4.50061Z" fill="#666666"/>
<path d="M30.1234 35.7692C29.8686 35.7692 29.6107 35.6715 29.4156 35.4762L25.9368 31.9924C25.5468 31.6018 25.5468 30.9687 25.9368 30.5781C26.3268 30.1875 26.9591 30.1875 27.3491 30.5781L30.8279 34.0619C31.218 34.4525 31.218 35.0856 30.8279 35.4762C30.6329 35.6715 30.3781 35.7692 30.1202 35.7692H30.1234Z" fill="#666666"/>
<path d="M6.74646 12.3619C6.49167 12.3619 6.23375 12.2643 6.03873 12.069L2.55986 8.58519C2.16983 8.1946 2.16983 7.56146 2.55986 7.17087C2.94989 6.78028 3.58212 6.78028 3.97216 7.17087L7.45103 10.6547C7.84106 11.0453 7.84106 11.6784 7.45103 12.069C7.25601 12.2643 7.00123 12.3619 6.74331 12.3619H6.74646Z" fill="#666666"/>
<path d="M27.6196 11.8043C27.3649 11.8043 27.1069 11.7067 26.9119 11.5114C26.5219 11.1208 26.5219 10.4877 26.9119 10.0971L30.3907 6.61326C30.7808 6.22266 31.413 6.22266 31.803 6.61326C32.1931 7.00385 32.1931 7.63698 31.803 8.02757L28.3242 11.5114C28.1292 11.7067 27.8744 11.8043 27.6165 11.8043H27.6196Z" fill="#666666"/>
<path d="M36.5494 22.3251H31.6299C31.0795 22.3251 30.6296 21.8778 30.6296 21.3235C30.6296 20.7691 31.0763 20.3218 31.6299 20.3218H36.5494C37.0998 20.3218 37.5496 20.7691 37.5496 21.3235C37.5496 21.8778 37.103 22.3251 36.5494 22.3251Z" fill="#666666"/>
<path d="M16.6956 7.36928C16.1451 7.36928 15.6953 6.922 15.6953 6.36761V1.44113C15.6953 0.88989 16.142 0.439453 16.6956 0.439453C17.2492 0.439453 17.6958 0.88674 17.6958 1.44113V6.36761C17.6958 6.91885 17.2492 7.36928 16.6956 7.36928Z" fill="#666666"/>
</svg>
