<svg width="256" height="294" viewBox="0 0 256 294" fill="none" xmlns="http://www.w3.org/2000/svg">
<path d="M135.778 288.999H18.9632C8.59894 288.999 0.166016 280.554 0.166016 270.175V202.354H3.47817V270.175C3.47817 278.728 10.4264 285.683 18.9632 285.683H135.778V288.999Z" fill="#ED401A"/>
<path d="M135.467 281.109C138.905 281.109 141.692 283.9 141.692 287.343C141.692 290.785 138.905 293.576 135.467 293.576C132.029 293.576 129.242 290.785 129.242 287.343C129.242 283.9 132.029 281.109 135.467 281.109Z" fill="#ED401A"/>
<path d="M250.54 270.175H247.228V23.7976C247.228 15.2455 240.279 8.2905 231.743 8.2905H18.9632C10.4233 8.2905 3.47817 15.2487 3.47817 23.7976V149.306H0.166016V23.7976C0.166016 13.4186 8.59894 4.97363 18.9632 4.97363H231.743C242.107 4.97363 250.54 13.4186 250.54 23.7976V270.175Z" fill="#ED401A"/>
<path d="M255.507 78.3543H242.265V23.7977C242.265 17.9892 237.547 13.2643 231.747 13.2643H120.857V0H231.747C244.851 0 255.51 10.6751 255.51 23.7977V78.3543H255.507Z" fill="#ED401A"/>
</svg>
