<svg width="44" height="36" viewBox="0 0 44 36" fill="none" xmlns="http://www.w3.org/2000/svg">
<path d="M42.52 1V35.0917H1V1H42.52ZM22.7859 34.0377L22.7669 34.0405L22.644 34.0903L22.6094 34.0959L22.5852 34.0903L22.4624 34.0405C22.4451 34.0349 22.4295 34.0391 22.4209 34.0476L22.4139 34.0618L22.3845 34.6698L22.3932 34.6982L22.4105 34.7167L22.5904 34.8218L22.6164 34.8275L22.6371 34.8218L22.817 34.7167L22.8378 34.694L22.8447 34.6698L22.8153 34.0633C22.8118 34.0491 22.7997 34.0391 22.7859 34.0377ZM23.2443 33.8772L23.2219 33.88L22.9018 34.0121L22.8845 34.0263L22.8793 34.042L22.9105 34.6528L22.9191 34.6698L22.9329 34.6798L23.2807 34.8119C23.3014 34.8175 23.3205 34.8119 23.3308 34.8005L23.3378 34.7806L23.2789 33.9084C23.2738 33.8914 23.2616 33.88 23.2443 33.8772ZM22.0074 33.88C21.9995 33.8771 21.9907 33.8763 21.9823 33.8779C21.9739 33.8794 21.9663 33.8832 21.9607 33.8885L21.9503 33.9084L21.8915 34.7806C21.8915 34.7977 21.9036 34.809 21.9209 34.8147L21.9468 34.8119L22.2946 34.6798L22.3119 34.6684L22.3188 34.6528L22.3482 34.042L22.343 34.0249L22.3257 34.0107L22.0074 33.88Z" stroke="#F4F4F4" stroke-width="1.5"/>
<path d="M35.5982 25.8586C36.2647 25.8589 36.9054 26.0697 37.3877 26.4473C37.87 26.8249 38.1569 27.3404 38.189 27.887C38.221 28.4335 37.9957 28.9693 37.5598 29.3831C37.1238 29.797 36.5107 30.0573 35.8474 30.1101L35.5982 30.1201H7.91824C7.25182 30.1198 6.61106 29.909 6.12875 29.5314C5.64644 29.1538 5.35955 28.6383 5.32753 28.0918C5.2955 27.5452 5.52079 27.0095 5.95673 26.5956C6.39266 26.1817 7.00581 25.9214 7.66912 25.8686L7.91824 25.8586H35.5982ZM35.5982 15.9152C36.2865 15.9152 36.9465 16.1397 37.4332 16.5393C37.9198 16.9389 38.1932 17.4808 38.1932 18.0459C38.1932 18.611 37.9198 19.153 37.4332 19.5526C36.9465 19.9522 36.2865 20.1767 35.5982 20.1767H7.91824C7.23001 20.1767 6.56996 19.9522 6.0833 19.5526C5.59664 19.153 5.32324 18.611 5.32324 18.0459C5.32324 17.4808 5.59664 16.9389 6.0833 16.5393C6.56996 16.1397 7.23001 15.9152 7.91824 15.9152H35.5982ZM35.5982 5.9718C36.2865 5.9718 36.9465 6.19629 37.4332 6.59588C37.9198 6.99547 38.1932 7.53743 38.1932 8.10253C38.1932 8.66764 37.9198 9.2096 37.4332 9.60919C36.9465 10.0088 36.2865 10.2333 35.5982 10.2333H7.91824C7.23001 10.2333 6.56996 10.0088 6.0833 9.60919C5.59664 9.2096 5.32324 8.66764 5.32324 8.10253C5.32324 7.53743 5.59664 6.99547 6.0833 6.59588C6.56996 6.19629 7.23001 5.9718 7.91824 5.9718H35.5982Z" fill="#EC9479" stroke="#F4F4F4" stroke-width="1.5"/>
</svg>
