<svg width="47" height="40" viewBox="0 0 47 40" fill="none" xmlns="http://www.w3.org/2000/svg">
<path d="M45.5169 1V38.4545H1V1H45.5169ZM24.3584 37.2965L24.338 37.2997L24.2063 37.3543L24.1692 37.3605L24.1432 37.3543L24.0115 37.2997C23.993 37.2934 23.9763 37.2981 23.967 37.3075L23.9596 37.3231L23.9281 37.991L23.9373 38.0222L23.9559 38.0425L24.1488 38.158L24.1766 38.1642L24.1989 38.158L24.3918 38.0425L24.414 38.0175L24.4215 37.991L24.3899 37.3246C24.3862 37.309 24.3732 37.2981 24.3584 37.2965ZM24.8499 37.1202L24.8258 37.1233L24.4827 37.2684L24.4641 37.284L24.4586 37.3012L24.4919 37.9723L24.5012 37.991L24.5161 38.0019L24.8889 38.1471C24.9111 38.1533 24.9315 38.1471 24.9427 38.1346L24.9501 38.1127L24.887 37.1545C24.8815 37.1358 24.8685 37.1233 24.8499 37.1202ZM23.5237 37.1233C23.5153 37.1201 23.5058 37.1193 23.4968 37.1209C23.4878 37.1226 23.4796 37.1267 23.4736 37.1327L23.4625 37.1545L23.3994 38.1127C23.3994 38.1315 23.4124 38.1439 23.431 38.1502L23.4588 38.1471L23.8316 38.0019L23.8502 37.9894L23.8576 37.9723L23.8891 37.3012L23.8835 37.2825L23.865 37.2669L23.5237 37.1233Z" stroke="#F4F4F4" stroke-width="1.5"/>
<path d="M38.097 28.3106C38.8115 28.3109 39.4985 28.5425 40.0156 28.9573C40.5327 29.3722 40.8403 29.9386 40.8747 30.539C40.909 31.1395 40.6675 31.7281 40.2001 32.1828C39.7327 32.6375 39.0752 32.9235 38.3641 32.9815L38.097 32.9924H8.41902C7.7045 32.9921 7.01749 32.7606 6.50037 32.3457C5.98325 31.9308 5.67565 31.3645 5.64131 30.764C5.60697 30.1635 5.84853 29.575 6.31593 29.1203C6.78332 28.6655 7.44073 28.3796 8.15192 28.3215L8.41902 28.3106H38.097ZM38.097 17.3864C38.8349 17.3864 39.5426 17.633 40.0643 18.072C40.5861 18.511 40.8793 19.1064 40.8793 19.7273C40.8793 20.3481 40.5861 20.9436 40.0643 21.3826C39.5426 21.8216 38.8349 22.0682 38.097 22.0682H8.41902C7.68111 22.0682 6.97342 21.8216 6.45164 21.3826C5.92985 20.9436 5.63672 20.3481 5.63672 19.7273C5.63672 19.1064 5.92985 18.511 6.45164 18.072C6.97342 17.633 7.68111 17.3864 8.41902 17.3864H38.097ZM38.097 6.46216C38.8349 6.46216 39.5426 6.70879 40.0643 7.14779C40.5861 7.5868 40.8793 8.18222 40.8793 8.80306C40.8793 9.42391 40.5861 10.0193 40.0643 10.4583C39.5426 10.8973 38.8349 11.144 38.097 11.144H8.41902C7.68111 11.144 6.97342 10.8973 6.45164 10.4583C5.92985 10.0193 5.63672 9.42391 5.63672 8.80306C5.63672 8.18222 5.92985 7.5868 6.45164 7.14779C6.97342 6.70879 7.68111 6.46216 8.41902 6.46216H38.097Z" fill="#8F8F8F" stroke="#F4F4F4" stroke-width="1.5"/>
</svg>
