<?xml version="1.0" encoding="UTF-8"?>
<svg xmlns="http://www.w3.org/2000/svg" version="1.1" viewBox="0 0 398.42 243.16">
  <!-- Generator: Adobe Illustrator 28.7.1, SVG Export Plug-In . SVG Version: 1.2.0 Build 142)  -->
  <g>
    <g id="Layer_1">
      <g>
        <path d="M275.65,34.47v96.9s-9.73-17.14-25.93-30.02c-13.6-10.82-34.12-17.74-34.12-17.74,0,0,19.56-7.2,34.12-19.11,15.45-12.64,25.93-30.02,25.93-30.02"/>
        <path d="M122.77,34.47v96.9s9.73-17.14,25.93-30.02c13.6-10.82,34.12-17.74,34.12-17.74,0,0-19.56-7.2-34.12-19.11-15.45-12.64-25.93-30.02-25.93-30.02"/>
        <polygon points="64.04 165.99 64.04 182.83 38.35 182.83 38.35 165.99 30.74 165.99 30.74 207.59 38.35 207.59 38.35 190.31 64.04 190.31 64.04 207.59 71.58 207.59 71.58 165.99 64.04 165.99"/>
        <polygon points="191.26 165.99 172.21 190.72 153.28 165.99 146.45 165.99 146.45 207.59 154.05 207.59 154.05 179.4 170.07 200.61 174.14 200.61 190.11 179.77 190.11 207.59 197.65 207.59 197.65 165.99 191.26 165.99"/>
        <polygon points="338.17 200.1 338.17 190.31 361.04 190.31 361.04 182.83 338.17 182.83 338.17 173.48 367.55 173.48 366.33 165.99 330.56 165.99 330.56 207.59 366.12 207.59 367.68 200.1 338.17 200.1"/>
        <path d="M234.13,173.48l8.78,20.98c-2.84,1.09-5.82,1.62-9.07,1.62-2.6,0-5.37-.53-8.22-1.57l8.28-21.04h.23ZM228.63,165.99l-16.25,41.59h8.21l2.34-5.97c2.56.93,6.39,1.95,10.92,1.95,4.96,0,9.15-1.1,11.93-2.11l2.47,6.13h8.27l-17.31-41.59h-10.58Z"/>
        <path d="M312.06,201.44c-.4-.93-.42-1.56-.42-1.68v-11.94h-7.55v11.65c-1.99.72-5.82,1.79-11.12,1.79-9.3,0-16.58-6.4-16.58-14.57s7.41-14.38,16.52-14.38c5.49,0,8.27.82,11.48,2.34l4.49,2.13-2.16-9.18-1.06-.49c-3.13-1.43-7.86-2.23-13.31-2.23-13.18,0-23.5,9.58-23.5,21.8s10.24,21.99,23.81,21.99c9.59,0,15.65-2.89,18.24-4.13l2.09-1-.93-2.12Z"/>
        <path d="M124.52,186.69c0,7.86-7.42,14.51-16.21,14.51s-16.27-6.54-16.27-14.57,7.45-14.26,16.27-14.26,16.21,6.56,16.21,14.32M108.32,164.96c-13.57,0-23.81,9.32-23.81,21.68s10.24,21.99,23.81,21.99,23.81-9.66,23.81-21.99-10.46-21.68-23.81-21.68"/>
      </g>
    </g>
  </g>
</svg>