<svg width="269" height="48" viewBox="0 0 269 48" fill="none" xmlns="http://www.w3.org/2000/svg">
<g clip-path="url(#clip0_1493_4746)">
<path d="M67.3064 17.0451V28.9706H65.8755V3.69412H67.3064V15.6153H86.2436V3.69412H87.6745V28.9706H86.2436V17.0451H67.3064Z" fill="#1E1E1E"/>
<path d="M128.615 3.69412L140.106 26.6585L151.597 3.69412H152.754V28.9706H151.323V7.43605L140.55 28.9706H139.667L128.889 7.43605V28.9706H127.458V3.69412H128.615Z" fill="#1E1E1E"/>
<path d="M161.957 3.69412H160.526V28.9706H161.957V3.69412Z" fill="#1E1E1E"/>
<path d="M191.581 28.9706H169.778V3.69412H171.209V27.5408H191.581V28.9706Z" fill="#1E1E1E"/>
<path d="M221.183 28.9706H199.379V3.69412H200.81V27.5408H221.183V28.9706Z" fill="#1E1E1E"/>
<path d="M230.412 3.69412H228.981V28.9706H230.412V3.69412Z" fill="#1E1E1E"/>
<path d="M238.232 28.9706L249.028 3.69412H249.971L260.767 28.9706H259.209L256.896 23.5555H242.099L239.785 28.9706H238.232ZM242.712 22.1213H256.287L249.497 6.22786L242.708 22.1213H242.712Z" fill="#A78049"/>
<path d="M245.47 28.9706L256.265 3.69412H257.209L268.004 28.9706H266.447L264.133 23.5555H249.336L247.022 28.9706H245.47ZM249.95 22.1213H263.524L256.735 6.22786L249.945 22.1213H249.95Z" fill="#1E1E1E"/>
<path d="M94.9292 14.707C94.9292 7.73593 100.605 2.06871 107.577 2.06871C114.549 2.06871 120.225 7.74027 120.225 14.707C120.225 21.6736 114.549 27.3452 107.577 27.3452C100.605 27.3452 94.9292 21.6736 94.9292 14.707ZM96.3601 14.707C96.3601 20.887 101.392 25.9154 107.577 25.9154C113.762 25.9154 118.794 20.887 118.794 14.707C118.794 8.52691 113.762 3.49855 107.577 3.49855C101.392 3.49855 96.3601 8.52691 96.3601 14.707Z" fill="#1E1E1E"/>
<path d="M97.3345 31.2523H117.829C118.19 31.2523 118.485 30.9567 118.485 30.596C118.485 30.2353 118.19 29.9398 117.829 29.9398H97.3345C96.9735 29.9398 96.6777 30.2353 96.6777 30.596C96.6777 30.9567 96.9735 31.2523 97.3345 31.2523Z" fill="#A78049"/>
<path d="M79.4021 44.4034C79.3803 44.3816 79.3673 44.3512 79.3673 44.3077V41.9479C79.3673 41.9479 79.3629 41.9174 79.3499 41.8957L77.6058 38.6144C77.5927 38.5797 77.5884 38.5623 77.5884 38.5536C77.5884 38.4928 77.6275 38.458 77.7015 38.458H78.3104C78.3843 38.458 78.4365 38.4884 78.4626 38.5536L79.7544 41.0048C79.7718 41.0265 79.7892 41.0265 79.8066 41.0048L81.0983 38.5536C81.1331 38.4928 81.1853 38.458 81.2549 38.458H81.8682C81.9377 38.458 81.9725 38.4884 81.9725 38.5449L81.9551 38.6144L80.211 41.8957C80.198 41.9174 80.1937 41.9348 80.1937 41.9479V44.3077C80.1937 44.3469 80.1806 44.3773 80.1589 44.4034C80.1371 44.4251 80.1067 44.4381 80.0632 44.4381H79.4978C79.4586 44.4381 79.4282 44.4251 79.4021 44.4034Z" fill="#A78049"/>
<path d="M87.8616 44.2686C87.5441 44.0991 87.2962 43.8557 87.1179 43.5472C86.9395 43.2386 86.8525 42.8779 86.8525 42.4737V40.4398C86.8525 40.0356 86.9395 39.6792 87.1179 39.3706C87.2962 39.0621 87.5441 38.8231 87.8616 38.6536C88.1791 38.4841 88.5488 38.3971 88.9663 38.3971C89.3839 38.3971 89.7579 38.4841 90.0798 38.6536C90.3973 38.8231 90.6452 39.0621 90.8235 39.3706C91.0018 39.6792 91.0888 40.0356 91.0888 40.4398V42.4737C91.0888 42.8779 91.0018 43.2343 90.8235 43.5472C90.6452 43.8601 90.3973 44.0991 90.0798 44.2686C89.7623 44.4381 89.3882 44.525 88.9663 44.525C88.5444 44.525 88.1834 44.4381 87.8616 44.2686ZM89.9058 43.4559C90.145 43.2169 90.2668 42.8996 90.2668 42.5085V40.4311C90.2668 40.0312 90.145 39.714 89.9058 39.4706C89.6666 39.2272 89.3534 39.1055 88.9663 39.1055C88.5792 39.1055 88.2661 39.2272 88.0312 39.4706C87.7963 39.714 87.6746 40.0356 87.6746 40.4311V42.5085C87.6746 42.904 87.792 43.2169 88.0312 43.4559C88.2704 43.6949 88.5792 43.8166 88.9663 43.8166C89.3534 43.8166 89.6666 43.6949 89.9058 43.4559Z" fill="#A78049"/>
<path d="M97.5565 44.273C97.239 44.1122 96.9954 43.8818 96.8171 43.582C96.6387 43.2821 96.5518 42.9388 96.5518 42.552V38.5927C96.5518 38.5536 96.5648 38.5232 96.5866 38.4971C96.6083 38.4754 96.6387 38.4623 96.6822 38.4623H97.2477C97.2868 38.4623 97.3172 38.4754 97.3433 38.4971C97.3651 38.5188 97.3781 38.5493 97.3781 38.5927V42.565C97.3781 42.9344 97.4956 43.2343 97.7348 43.4646C97.974 43.695 98.2828 43.808 98.6612 43.808C99.0396 43.808 99.3528 43.695 99.5876 43.4646C99.8225 43.2386 99.9399 42.9387 99.9399 42.565V38.5927C99.9399 38.5536 99.953 38.5232 99.9747 38.4971C99.9965 38.4754 100.027 38.4623 100.07 38.4623H100.636C100.675 38.4623 100.705 38.4754 100.732 38.4971C100.753 38.5188 100.766 38.5493 100.766 38.5927V42.552C100.766 42.9388 100.679 43.2821 100.505 43.582C100.331 43.8818 100.088 44.1122 99.7703 44.273C99.4528 44.4338 99.0874 44.5164 98.6699 44.5164C98.2524 44.5164 97.887 44.4338 97.5695 44.273H97.5565Z" fill="#A78049"/>
<path d="M109.674 44.3555L108.495 41.8262C108.482 41.8044 108.465 41.7914 108.443 41.7914H107.238C107.208 41.7914 107.195 41.8044 107.195 41.8349V44.3208C107.195 44.3599 107.181 44.3903 107.16 44.4164C107.138 44.4381 107.108 44.4512 107.064 44.4512H106.499C106.46 44.4512 106.429 44.4381 106.403 44.4164C106.381 44.3947 106.368 44.3642 106.368 44.3208V38.584C106.368 38.5449 106.381 38.5145 106.403 38.4884C106.425 38.4667 106.455 38.4536 106.499 38.4536H108.756C109.1 38.4536 109.4 38.5232 109.656 38.6666C109.917 38.81 110.117 39.0099 110.261 39.2663C110.404 39.5228 110.474 39.8183 110.474 40.1573C110.474 40.5484 110.37 40.8831 110.156 41.1612C109.948 41.4394 109.661 41.6262 109.3 41.7219C109.278 41.7349 109.269 41.7523 109.274 41.774L110.487 44.2947L110.504 44.3642C110.504 44.4207 110.47 44.4512 110.391 44.4512H109.809C109.739 44.4512 109.691 44.4207 109.665 44.3555H109.674ZM107.195 39.2099V41.1091C107.195 41.1395 107.208 41.1525 107.238 41.1525H108.656C108.952 41.1525 109.195 41.0613 109.378 40.8787C109.565 40.6962 109.656 40.4615 109.656 40.1703C109.656 39.8791 109.565 39.6271 109.382 39.4445C109.2 39.262 108.956 39.1707 108.656 39.1707H107.238C107.208 39.1707 107.195 39.1838 107.195 39.2142V39.2099Z" fill="#A78049"/>
<path d="M121.913 44.4121C121.891 44.3903 121.878 44.3599 121.878 44.3164V38.5884C121.878 38.5493 121.891 38.5188 121.913 38.4928C121.934 38.471 121.965 38.458 122.008 38.458H124.035C124.627 38.458 125.101 38.6144 125.453 38.923C125.805 39.2316 125.984 39.6488 125.984 40.166V42.7301C125.984 43.2473 125.805 43.6645 125.453 43.9731C125.101 44.2817 124.627 44.4381 124.035 44.4381H122.008C121.969 44.4381 121.939 44.4251 121.913 44.4034V44.4121ZM122.743 43.7384H124.07C124.401 43.7384 124.666 43.6385 124.862 43.4342C125.057 43.2299 125.157 42.9605 125.166 42.6171V40.292C125.166 39.9487 125.066 39.6792 124.87 39.475C124.675 39.275 124.409 39.1707 124.07 39.1707H122.743C122.713 39.1707 122.7 39.1838 122.7 39.2142V43.6906C122.7 43.721 122.713 43.7341 122.743 43.7341V43.7384Z" fill="#A78049"/>
<path d="M134.743 44.3555L133.565 41.8262C133.552 41.8044 133.534 41.7914 133.513 41.7914H132.308C132.277 41.7914 132.264 41.8044 132.264 41.8349V44.3208C132.264 44.3599 132.251 44.3903 132.23 44.4164C132.208 44.4381 132.177 44.4512 132.134 44.4512H131.568C131.529 44.4512 131.499 44.4381 131.473 44.4164C131.451 44.3947 131.438 44.3642 131.438 44.3208V38.584C131.438 38.5449 131.451 38.5145 131.473 38.4884C131.495 38.4667 131.525 38.4536 131.568 38.4536H133.826C134.169 38.4536 134.469 38.5232 134.726 38.6666C134.987 38.81 135.187 39.0099 135.331 39.2663C135.474 39.5228 135.544 39.8183 135.544 40.1573C135.544 40.5484 135.439 40.8831 135.226 41.1612C135.018 41.4394 134.73 41.6262 134.369 41.7219C134.348 41.7349 134.339 41.7523 134.343 41.774L135.557 44.2947L135.574 44.3642C135.574 44.4207 135.539 44.4512 135.461 44.4512H134.878C134.809 44.4512 134.761 44.4207 134.735 44.3555H134.743ZM132.264 39.2099V41.1091C132.264 41.1395 132.277 41.1525 132.308 41.1525H133.726C134.022 41.1525 134.265 41.0613 134.448 40.8787C134.635 40.6962 134.726 40.4615 134.726 40.1703C134.726 39.8791 134.635 39.6271 134.452 39.4445C134.269 39.262 134.026 39.1707 133.726 39.1707H132.308C132.277 39.1707 132.264 39.1838 132.264 39.2142V39.2099Z" fill="#A78049"/>
<path d="M144.904 39.1403C144.882 39.162 144.851 39.1751 144.808 39.1751H141.824C141.794 39.1751 141.781 39.1881 141.781 39.2185V41.0395C141.781 41.0699 141.794 41.083 141.824 41.083H143.86C143.899 41.083 143.929 41.096 143.955 41.1178C143.977 41.1395 143.99 41.1699 143.99 41.2134V41.6654C143.99 41.7045 143.977 41.7349 143.955 41.761C143.934 41.7827 143.903 41.7957 143.86 41.7957H141.824C141.794 41.7957 141.781 41.8088 141.781 41.8392V43.7036C141.781 43.7341 141.794 43.7471 141.824 43.7471H144.808C144.847 43.7471 144.878 43.7601 144.904 43.7819C144.925 43.8036 144.938 43.834 144.938 43.8775V44.3295C144.938 44.3686 144.925 44.399 144.904 44.4251C144.882 44.4468 144.851 44.4599 144.808 44.4599H141.089C141.05 44.4599 141.02 44.4468 140.994 44.4251C140.972 44.4034 140.959 44.3729 140.959 44.3295V38.6014C140.959 38.5623 140.972 38.5319 140.994 38.5058C141.015 38.4841 141.046 38.471 141.089 38.471H144.808C144.847 38.471 144.878 38.4841 144.904 38.5058C144.925 38.5275 144.938 38.5579 144.938 38.6014V39.0534C144.938 39.0925 144.925 39.1229 144.904 39.149V39.1403Z" fill="#A78049"/>
<path d="M153.876 44.3468L153.576 43.3907C153.563 43.369 153.55 43.356 153.533 43.356H151.145C151.145 43.356 151.114 43.369 151.101 43.3907L150.801 44.3468C150.78 44.4164 150.732 44.4512 150.658 44.4512H150.049C149.953 44.4512 149.918 44.4033 149.944 44.3077L151.793 38.571C151.815 38.5014 151.862 38.4667 151.936 38.4667H152.724C152.798 38.4667 152.845 38.5014 152.867 38.571L154.733 44.3077C154.733 44.3077 154.742 44.3382 154.742 44.3599C154.742 44.4207 154.703 44.4555 154.629 44.4555H154.011C153.937 44.4555 153.889 44.4207 153.868 44.3512L153.876 44.3468ZM151.362 42.7041H153.32C153.354 42.7041 153.363 42.6867 153.354 42.6519L152.363 39.4619C152.358 39.4402 152.35 39.4271 152.337 39.4271C152.324 39.4271 152.319 39.4402 152.31 39.4619L151.328 42.6519C151.323 42.6867 151.332 42.7041 151.362 42.7041Z" fill="#A78049"/>
<path d="M160.061 44.4121C160.039 44.3903 160.026 44.3599 160.026 44.3164V38.5884C160.026 38.5493 160.039 38.5188 160.061 38.4928C160.083 38.471 160.113 38.458 160.157 38.458H160.731C160.801 38.458 160.853 38.4884 160.883 38.5449L162.318 40.8353C162.336 40.87 162.353 40.87 162.371 40.8353L163.815 38.5449C163.849 38.4884 163.902 38.458 163.971 38.458H164.545C164.585 38.458 164.615 38.471 164.641 38.4928C164.663 38.5145 164.676 38.5449 164.676 38.5884V44.3164C164.676 44.3556 164.663 44.386 164.641 44.4121C164.619 44.4338 164.589 44.4468 164.545 44.4468H163.98C163.941 44.4468 163.91 44.4338 163.884 44.4121C163.863 44.3903 163.849 44.3599 163.849 44.3164V39.9748C163.849 39.953 163.845 39.94 163.832 39.9356C163.819 39.9356 163.81 39.9356 163.797 39.9574L162.636 41.8566C162.601 41.9131 162.549 41.9435 162.484 41.9435H162.21C162.14 41.9435 162.088 41.9131 162.058 41.8566L160.901 39.9574C160.901 39.9574 160.879 39.9313 160.866 39.9356C160.853 39.9356 160.848 39.953 160.848 39.9748V44.3164C160.848 44.3556 160.835 44.386 160.814 44.4121C160.792 44.4338 160.761 44.4468 160.718 44.4468H160.153C160.113 44.4468 160.083 44.4338 160.057 44.4121H160.061Z" fill="#A78049"/>
<path d="M170.152 45.0466L170.487 43.2343C170.504 43.156 170.547 43.1126 170.626 43.1126H171.104C171.148 43.1126 171.182 43.1256 171.204 43.1517C171.226 43.1778 171.23 43.2125 171.217 43.2603L170.73 45.0726C170.713 45.1465 170.669 45.1856 170.595 45.1856H170.278C170.182 45.1856 170.139 45.1378 170.156 45.0466H170.152Z" fill="#A78049"/>
<path d="M184.291 44.4034C184.27 44.3816 184.257 44.3512 184.257 44.3077V41.9479C184.257 41.9479 184.252 41.9174 184.239 41.8957L182.495 38.6144C182.482 38.5797 182.478 38.5623 182.478 38.5536C182.478 38.4928 182.517 38.458 182.591 38.458H183.2C183.274 38.458 183.326 38.4884 183.352 38.5536L184.644 41.0048C184.661 41.0265 184.679 41.0265 184.696 41.0048L185.988 38.5536C186.023 38.4928 186.075 38.458 186.144 38.458H186.758C186.827 38.458 186.862 38.4884 186.862 38.5449L186.845 38.6144L185.1 41.8957C185.087 41.9174 185.083 41.9348 185.083 41.9479V44.3077C185.083 44.3469 185.07 44.3773 185.048 44.4034C185.027 44.4251 184.996 44.4381 184.953 44.4381H184.387C184.348 44.4381 184.318 44.4251 184.291 44.4034Z" fill="#A78049"/>
<path d="M192.751 44.2686C192.433 44.0991 192.186 43.8557 192.007 43.5472C191.829 43.2386 191.742 42.8779 191.742 42.4737V40.4398C191.742 40.0356 191.829 39.6792 192.007 39.3706C192.186 39.0621 192.433 38.8231 192.751 38.6536C193.069 38.4841 193.438 38.3971 193.856 38.3971C194.273 38.3971 194.647 38.4841 194.969 38.6536C195.287 38.8231 195.535 39.0621 195.713 39.3706C195.891 39.6792 195.978 40.0356 195.978 40.4398V42.4737C195.978 42.8779 195.891 43.2343 195.713 43.5472C195.535 43.8601 195.287 44.0991 194.969 44.2686C194.652 44.4381 194.278 44.525 193.856 44.525C193.434 44.525 193.073 44.4381 192.751 44.2686ZM194.795 43.4559C195.034 43.2169 195.156 42.8996 195.156 42.5085V40.4311C195.156 40.0312 195.034 39.714 194.795 39.4706C194.556 39.2272 194.243 39.1055 193.856 39.1055C193.469 39.1055 193.155 39.2272 192.921 39.4706C192.686 39.714 192.564 40.0356 192.564 40.4311V42.5085C192.564 42.904 192.681 43.2169 192.921 43.4559C193.16 43.6949 193.469 43.8166 193.856 43.8166C194.243 43.8166 194.556 43.6949 194.795 43.4559Z" fill="#A78049"/>
<path d="M202.446 44.273C202.128 44.1122 201.885 43.8818 201.706 43.582C201.528 43.2821 201.441 42.9388 201.441 42.552V38.5927C201.441 38.5536 201.454 38.5232 201.476 38.4971C201.498 38.4754 201.528 38.4623 201.572 38.4623H202.137C202.176 38.4623 202.207 38.4754 202.233 38.4971C202.254 38.5188 202.268 38.5493 202.268 38.5927V42.565C202.268 42.9344 202.385 43.2343 202.624 43.4646C202.863 43.695 203.172 43.808 203.551 43.808C203.929 43.808 204.242 43.695 204.477 43.4646C204.712 43.2386 204.829 42.9387 204.829 42.565V38.5927C204.829 38.5536 204.842 38.5232 204.864 38.4971C204.886 38.4754 204.916 38.4623 204.96 38.4623H205.525C205.564 38.4623 205.595 38.4754 205.621 38.4971C205.643 38.5188 205.656 38.5493 205.656 38.5927V42.552C205.656 42.9388 205.569 43.2821 205.395 43.582C205.221 43.8818 204.977 44.1122 204.66 44.273C204.342 44.4338 203.977 44.5164 203.559 44.5164C203.142 44.5164 202.776 44.4338 202.459 44.273H202.446Z" fill="#A78049"/>
<path d="M214.559 44.3555L213.38 41.8262C213.367 41.8044 213.35 41.7914 213.328 41.7914H212.123C212.093 41.7914 212.08 41.8044 212.08 41.8349V44.3208C212.08 44.3599 212.067 44.3903 212.045 44.4164C212.023 44.4381 211.993 44.4512 211.949 44.4512H211.384C211.345 44.4512 211.314 44.4381 211.288 44.4164C211.266 44.3947 211.253 44.3642 211.253 44.3208V38.584C211.253 38.5449 211.266 38.5145 211.288 38.4884C211.31 38.4667 211.34 38.4536 211.384 38.4536H213.641C213.985 38.4536 214.285 38.5232 214.541 38.6666C214.802 38.81 215.002 39.0099 215.146 39.2663C215.289 39.5228 215.359 39.8183 215.359 40.1573C215.359 40.5484 215.255 40.8831 215.041 41.1612C214.833 41.4394 214.546 41.6262 214.185 41.7219C214.163 41.7349 214.154 41.7523 214.159 41.774L215.372 44.2947L215.389 44.3642C215.389 44.4207 215.355 44.4512 215.276 44.4512H214.694C214.624 44.4512 214.576 44.4207 214.55 44.3555H214.559ZM212.08 39.2099V41.1091C212.08 41.1395 212.093 41.1525 212.123 41.1525H213.541C213.837 41.1525 214.08 41.0613 214.263 40.8787C214.45 40.6962 214.541 40.4615 214.541 40.1703C214.541 39.8791 214.45 39.6271 214.267 39.4445C214.085 39.262 213.841 39.1707 213.541 39.1707H212.123C212.093 39.1707 212.08 39.1838 212.08 39.2142V39.2099Z" fill="#A78049"/>
<path d="M226.802 44.4121C226.78 44.3903 226.767 44.3599 226.767 44.3164V38.5884C226.767 38.5493 226.78 38.5188 226.802 38.4928C226.824 38.471 226.854 38.458 226.898 38.458H227.463C227.502 38.458 227.533 38.471 227.559 38.4928C227.581 38.5145 227.594 38.5449 227.594 38.5884V43.6906C227.594 43.721 227.607 43.7341 227.637 43.7341H230.538C230.577 43.7341 230.608 43.7471 230.634 43.7688C230.656 43.7906 230.669 43.821 230.669 43.8645V44.3164C230.669 44.3556 230.656 44.386 230.634 44.4121C230.612 44.4338 230.582 44.4468 230.538 44.4468H226.902C226.863 44.4468 226.833 44.4338 226.806 44.4121H226.802Z" fill="#A78049"/>
<path d="M235.953 44.4121C235.932 44.3903 235.918 44.3599 235.918 44.3164V38.5884C235.918 38.5493 235.932 38.5188 235.953 38.4928C235.975 38.471 236.005 38.458 236.049 38.458H236.614C236.654 38.458 236.684 38.471 236.71 38.4928C236.732 38.5145 236.745 38.5449 236.745 38.5884V44.3164C236.745 44.3556 236.732 44.386 236.71 44.4121C236.688 44.4338 236.658 44.4468 236.614 44.4468H236.049C236.01 44.4468 235.979 44.4338 235.953 44.4121Z" fill="#A78049"/>
<path d="M242.451 44.412C242.43 44.3903 242.417 44.3599 242.417 44.3164V38.5884C242.417 38.5493 242.43 38.5188 242.451 38.4928C242.473 38.471 242.503 38.458 242.547 38.458H243.095C243.165 38.458 243.217 38.4884 243.252 38.5449L245.87 42.7736C245.87 42.7736 245.892 42.7997 245.905 42.7953C245.918 42.7953 245.922 42.7779 245.922 42.7562V38.584C245.922 38.5449 245.935 38.5145 245.957 38.4884C245.979 38.4667 246.009 38.4536 246.053 38.4536H246.618C246.657 38.4536 246.688 38.4667 246.714 38.4884C246.735 38.5101 246.748 38.5406 246.748 38.584V44.3121C246.748 44.3512 246.735 44.3816 246.714 44.4077C246.692 44.4294 246.662 44.4425 246.618 44.4425H246.061C245.992 44.4425 245.94 44.412 245.909 44.3555L243.291 40.1008C243.291 40.1008 243.269 40.0747 243.256 40.0791C243.243 40.0791 243.239 40.0964 243.239 40.1182L243.247 44.3164C243.247 44.3555 243.234 44.386 243.212 44.412C243.191 44.4338 243.16 44.4468 243.117 44.4468H242.551C242.512 44.4468 242.482 44.4338 242.456 44.412H242.451Z" fill="#A78049"/>
<path d="M256.256 39.1403C256.234 39.162 256.204 39.1751 256.16 39.1751H253.177C253.146 39.1751 253.133 39.1881 253.133 39.2185V41.0395C253.133 41.0699 253.146 41.083 253.177 41.083H255.212C255.251 41.083 255.282 41.096 255.308 41.1178C255.33 41.1395 255.343 41.1699 255.343 41.2134V41.6654C255.343 41.7045 255.33 41.7349 255.308 41.761C255.286 41.7827 255.256 41.7957 255.212 41.7957H253.177C253.146 41.7957 253.133 41.8088 253.133 41.8392V43.7036C253.133 43.7341 253.146 43.7471 253.177 43.7471H256.16C256.2 43.7471 256.23 43.7601 256.256 43.7819C256.278 43.8036 256.291 43.834 256.291 43.8775V44.3295C256.291 44.3686 256.278 44.399 256.256 44.4251C256.234 44.4468 256.204 44.4599 256.16 44.4599H252.442C252.403 44.4599 252.372 44.4468 252.346 44.4251C252.324 44.4034 252.311 44.3729 252.311 44.3295V38.6014C252.311 38.5623 252.324 38.5319 252.346 38.5058C252.368 38.4841 252.398 38.471 252.442 38.471H256.16C256.2 38.471 256.23 38.4841 256.256 38.5058C256.278 38.5275 256.291 38.5579 256.291 38.6014V39.0534C256.291 39.0925 256.278 39.1229 256.256 39.149V39.1403Z" fill="#A78049"/>
<path d="M19.794 0H0V20.6306H19.794V0Z" fill="#A78049"/>
<path d="M19.794 26.6194H0V47.25H19.794V26.6194Z" fill="#A78049"/>
<path d="M47.2819 0H25.7874V0.882243H47.2819V0Z" fill="#1E1E1E"/>
<path d="M47.2819 3.93315H25.7874V4.74151H47.2819V3.93315Z" fill="#1E1E1E"/>
<path d="M47.2819 7.79677H25.7874V8.60513H47.2819V7.79677Z" fill="#1E1E1E"/>
<path d="M47.2819 11.6604H25.7874V12.4687H47.2819V11.6604Z" fill="#1E1E1E"/>
<path d="M47.2819 15.5284H25.7874V16.3367H47.2819V15.5284Z" fill="#1E1E1E"/>
<path d="M47.2819 19.392H25.7874V20.2003H47.2819V19.392Z" fill="#1E1E1E"/>
<path d="M47.2819 23.2556H25.7874V24.0639H47.2819V23.2556Z" fill="#1E1E1E"/>
<path d="M47.2819 27.1192H25.7874V27.9276H47.2819V27.1192Z" fill="#1E1E1E"/>
<path d="M47.2819 30.9828H25.7874V31.7912H47.2819V30.9828Z" fill="#1E1E1E"/>
<path d="M47.2819 34.8464H25.7874V35.6548H47.2819V34.8464Z" fill="#1E1E1E"/>
<path d="M47.2819 38.7101H25.7874V39.5184H47.2819V38.7101Z" fill="#1E1E1E"/>
<path d="M47.2819 42.5737H25.7874V43.382H47.2819V42.5737Z" fill="#1E1E1E"/>
<path d="M47.2819 46.4373H25.7874V47.2456H47.2819V46.4373Z" fill="#1E1E1E"/>
</g>
<defs>
<clipPath id="clip0_1493_4746">
<rect width="268.008" height="47.25" fill="white"/>
</clipPath>
</defs>
</svg>
