<svg width="79" height="79" viewBox="0 0 79 79" fill="none" xmlns="http://www.w3.org/2000/svg">
<g style="mix-blend-mode:multiply" opacity="0.3">
<path d="M30.1146 79.0064C46.7464 79.0064 60.2291 65.5237 60.2291 48.8919C60.2291 32.2601 46.7464 18.7773 30.1146 18.7773C13.4827 18.7773 0 32.2601 0 48.8919C0 65.5237 13.4827 79.0064 30.1146 79.0064Z" fill="white"/>
<path d="M60.7597 50.0678C61.7345 33.4646 49.0651 19.2148 32.4619 18.24C15.8587 17.2652 1.60892 29.9346 0.634138 46.5378C-0.340643 63.141 12.3287 77.3908 28.9319 78.3656C45.5351 79.3404 59.7849 66.671 60.7597 50.0678Z" fill="#FAFDF7"/>
<path d="M31.2806 77.8336C47.9124 77.8336 61.3951 64.3509 61.3951 47.719C61.3951 31.0872 47.9124 17.6045 31.2806 17.6045C14.6488 17.6045 1.16602 31.0872 1.16602 47.719C1.16602 64.3509 14.6488 77.8336 31.2806 77.8336Z" fill="#F5FCEF"/>
<path d="M53.1678 68.427C64.9282 56.6666 64.9282 37.5991 53.1678 25.8386C41.4073 14.0781 22.3398 14.0781 10.5794 25.8386C-1.1811 37.5991 -1.18111 56.6666 10.5794 68.427C22.3398 80.1875 41.4073 80.1875 53.1678 68.427Z" fill="#EFFAE7"/>
<path d="M53.7459 67.845C65.5064 56.0845 65.5064 37.017 53.7459 25.2566C41.9854 13.4961 22.9179 13.4961 11.1575 25.2566C-0.602979 37.017 -0.602981 56.0845 11.1575 67.845C22.9179 79.6054 41.9854 79.6054 53.7459 67.845Z" fill="#EAF8DF"/>
<path d="M58.7274 61.6854C67.4076 47.4983 62.9434 28.9608 48.7564 20.2806C34.5694 11.6004 16.0318 16.0646 7.35165 30.2516C-1.32855 44.4386 3.13561 62.9761 17.3226 71.6563C31.5096 80.3365 50.0472 75.8724 58.7274 61.6854Z" fill="#E5F6D7"/>
<path d="M54.9236 66.6731C66.6841 54.9126 66.6841 35.8452 54.9236 24.0847C43.1632 12.3242 24.0957 12.3242 12.3352 24.0847C0.574755 35.8452 0.574755 54.9126 12.3352 66.6731C24.0957 78.4336 43.1632 78.4336 54.9236 66.6731Z" fill="#E0F5D0"/>
<path d="M55.5017 66.0852C67.2622 54.3247 67.2622 35.2573 55.5017 23.4968C43.7413 11.7363 24.6738 11.7363 12.9133 23.4968C1.15288 35.2573 1.15288 54.3248 12.9133 66.0852C24.6738 77.8457 43.7413 77.8457 55.5017 66.0852Z" fill="#DAF3C8"/>
<path d="M64.1334 50.9839C67.8776 34.779 57.7762 18.6071 41.5713 14.863C25.3664 11.1188 9.19449 21.2202 5.45032 37.4251C1.70615 53.6299 11.8076 69.8019 28.0124 73.546C44.2173 77.2902 60.3892 67.1888 64.1334 50.9839Z" fill="#D5F1C0"/>
<path d="M64.7232 50.3989C68.4674 34.1941 58.366 18.0222 42.1611 14.278C25.9562 10.5338 9.78433 20.6352 6.04016 36.8401C2.29599 53.045 12.3974 69.2169 28.6023 72.9611C44.8072 76.7052 60.9791 66.6038 64.7232 50.3989Z" fill="#D0EFB8"/>
<path d="M65.3959 49.4184C68.9191 33.1641 58.5985 17.1312 42.3441 13.608C26.0898 10.0848 10.0569 20.4054 6.53366 36.6597C3.01043 52.9141 13.3311 68.947 29.5854 72.4702C45.8398 75.9934 61.8726 65.6728 65.3959 49.4184Z" fill="#CBEEB0"/>
<path d="M66.2069 47.683C69.0979 31.3044 58.1639 15.6833 41.7853 12.7924C25.4067 9.90143 9.78561 20.8354 6.89467 37.214C4.00373 53.5926 14.9377 69.2137 31.3163 72.1046C47.6949 74.9956 63.316 64.0616 66.2069 47.683Z" fill="#C6ECA8"/>
<path d="M66.4762 48.6402C70.2203 32.4353 60.1189 16.2634 43.914 12.5192C27.7092 8.77503 11.5373 18.8764 7.79309 35.0813C4.04892 51.2862 14.1503 67.4581 30.3552 71.2023C46.5601 74.9464 62.732 64.845 66.4762 48.6402Z" fill="#C0EAA0"/>
<path d="M67.0592 48.062C70.8033 31.8572 60.7019 15.6852 44.4971 11.9411C28.2922 8.19691 12.1203 18.2983 8.3761 34.5032C4.63193 50.7081 14.7333 66.88 30.9382 70.6241C47.1431 74.3683 63.315 64.2669 67.0592 48.062Z" fill="#BBE898"/>
<path d="M59.6062 61.9895C71.3667 50.229 71.3667 31.1616 59.6062 19.4011C47.8458 7.64065 28.7783 7.64064 17.0178 19.4011C5.25737 31.1616 5.25737 50.2291 17.0178 61.9895C28.7783 73.75 47.8458 73.75 59.6062 61.9895Z" fill="#B6E790"/>
<path d="M52.311 67.0651C67.2006 59.6544 73.2634 41.5765 65.8527 26.6869C58.442 11.7974 40.3641 5.73457 25.4746 13.1452C10.585 20.5559 4.52219 38.6338 11.9329 53.5234C19.3436 68.413 37.4215 74.4758 52.311 67.0651Z" fill="#B1E588"/>
<path d="M60.7684 60.8235C72.5288 49.063 72.5288 29.9956 60.7683 18.2351C49.0079 6.47463 29.9404 6.47463 18.1799 18.2351C6.41948 29.9956 6.41948 49.063 18.1799 60.8235C29.9404 72.584 49.0079 72.584 60.7684 60.8235Z" fill="#ABE381"/>
<path d="M61.3621 60.2356C73.1226 48.4751 73.1226 29.4077 61.3621 17.6472C49.6016 5.88674 30.5342 5.88674 18.7737 17.6472C7.01323 29.4077 7.01323 48.4751 18.7737 60.2356C30.5342 71.9961 49.6016 71.9961 61.3621 60.2356Z" fill="#A6E179"/>
<path d="M61.9402 59.6477C73.7007 47.8873 73.7007 28.8198 61.9402 17.0593C50.1798 5.29885 31.1123 5.29885 19.3518 17.0593C7.59135 28.8198 7.59136 47.8873 19.3518 59.6477C31.1123 71.4082 50.1798 71.4082 61.9402 59.6477Z" fill="#A1E071"/>
<path d="M62.5232 59.0637C74.2837 47.3033 74.2837 28.2358 62.5232 16.4753C50.7628 4.71486 31.6953 4.71487 19.9348 16.4753C8.17436 28.2358 8.17436 47.3033 19.9348 59.0637C31.6953 70.8242 50.7628 70.8242 62.5232 59.0637Z" fill="#9CDE69"/>
<path d="M48.7507 66.4937C64.9357 62.6648 74.9523 46.4402 71.1233 30.2551C67.2944 14.0701 51.0698 4.0535 34.8847 7.88247C18.6997 11.7114 8.68309 27.936 12.5121 44.1211C16.341 60.3061 32.5656 70.3227 48.7507 66.4937Z" fill="#96DC61"/>
<path d="M53.5986 64.5518C69.0377 58.3672 76.54 40.8376 70.3554 25.3985C64.1708 9.95933 46.6413 2.45702 31.2021 8.64163C15.763 14.8262 8.26068 32.3558 14.4453 47.7949C20.6299 63.2341 38.1594 70.7364 53.5986 64.5518Z" fill="#91DA59"/>
<path d="M54.1894 63.9688C69.6286 57.7842 77.1309 40.2546 70.9463 24.8155C64.7617 9.37632 47.2321 1.87402 31.793 8.05862C16.3538 14.2432 8.8515 31.7727 15.0361 47.2119C21.2207 62.6511 38.7502 70.1534 54.1894 63.9688Z" fill="#8CD951"/>
<path d="M54.7734 63.3877C70.2125 57.2031 77.7148 39.6736 71.5302 24.2344C65.3456 8.79527 47.8161 1.29296 32.377 7.47756C16.9378 13.6622 9.43549 31.1917 15.6201 46.6309C21.8047 62.07 39.3342 69.5723 54.7734 63.3877Z" fill="#87D749"/>
<path d="M73.4303 41.905C77.3299 25.7368 67.3842 9.4687 51.216 5.56915C35.0478 1.6696 18.7797 11.6153 14.8801 27.7835C10.9805 43.9517 20.9262 60.2198 37.0944 64.1194C53.2626 68.0189 69.5308 58.0732 73.4303 41.905Z" fill="#82D541"/>
<path d="M73.8098 42.1513C78.1705 26.1013 68.6944 9.55522 52.6444 5.19454C36.5945 0.833858 20.0484 10.3099 15.6877 26.3599C11.327 42.4098 20.8031 58.9559 36.853 63.3166C52.903 67.6773 69.4491 58.2012 73.8098 42.1513Z" fill="#7CD339"/>
<path d="M45.3304 63.7848C61.9622 63.7848 75.4449 50.302 75.4449 33.6702C75.4449 17.0384 61.9622 3.55566 45.3304 3.55566C28.6986 3.55566 15.2158 17.0384 15.2158 33.6702C15.2158 50.302 28.6986 63.7848 45.3304 63.7848Z" fill="#77D232"/>
<path d="M45.9134 63.2018C62.5452 63.2018 76.0279 49.719 76.0279 33.0872C76.0279 16.4554 62.5452 2.97266 45.9134 2.97266C29.2816 2.97266 15.7988 16.4554 15.7988 33.0872C15.7988 49.719 29.2816 63.2018 45.9134 63.2018Z" fill="#72D02A"/>
<path d="M46.5032 62.6188C63.135 62.6188 76.6178 49.136 76.6178 32.5042C76.6178 15.8724 63.135 2.38965 46.5032 2.38965C29.8714 2.38965 16.3887 15.8724 16.3887 32.5042C16.3887 49.136 29.8714 62.6188 46.5032 62.6188Z" fill="#6DCE22"/>
<path d="M47.0862 62.0289C63.718 62.0289 77.2008 48.5462 77.2008 31.9144C77.2008 15.2825 63.718 1.7998 47.0862 1.7998C30.4544 1.7998 16.9717 15.2825 16.9717 31.9144C16.9717 48.5462 30.4544 62.0289 47.0862 62.0289Z" fill="#67CC1A"/>
<path d="M68.9617 52.6262C80.7222 40.8658 80.7222 21.7983 68.9617 10.0378C57.2012 -1.72263 38.1338 -1.72263 26.3733 10.0378C14.6128 21.7983 14.6128 40.8658 26.3733 52.6262C38.1338 64.3867 57.2012 64.3867 68.9617 52.6262Z" fill="#62CB12"/>
<path d="M69.5555 52.0383C81.3159 40.2779 81.3159 21.2104 69.5555 9.44994C57.795 -2.31053 38.7275 -2.31053 26.9671 9.44993C15.2066 21.2104 15.2066 40.2779 26.9671 52.0383C38.7275 63.7988 57.795 63.7988 69.5555 52.0383Z" fill="#5DC90A"/>
</g>
<path d="M69.5555 52.0383C81.3159 40.2779 81.3159 21.2104 69.5555 9.44994C57.795 -2.31053 38.7275 -2.31053 26.9671 9.44993C15.2066 21.2104 15.2066 40.2779 26.9671 52.0383C38.7275 63.7988 57.795 63.7988 69.5555 52.0383Z" fill="#5DC90A"/>
<path d="M48.258 61.4902C31.3059 61.4902 17.5098 47.7004 17.5098 30.7419C17.5098 13.7835 31.3059 0 48.258 0C65.2101 0 79.0063 13.7898 79.0063 30.7483C79.0063 47.7067 65.2165 61.4965 48.258 61.4965V61.4902ZM48.258 1.26745C32.003 1.26745 18.7772 14.4933 18.7772 30.7483C18.7772 47.0033 32.003 60.2291 48.258 60.2291C64.5131 60.2291 77.7389 47.0033 77.7389 30.7483C77.7389 14.4933 64.5131 1.26745 48.258 1.26745Z" fill="white"/>
<path d="M45.1655 64.4248C30.8244 64.4248 18.245 54.2599 15.2538 40.2546C15.1967 39.9948 15.3615 39.7476 15.6213 39.6906C15.8748 39.6335 16.1283 39.7983 16.1854 40.0581C19.0815 53.6262 31.2743 63.4742 45.1719 63.4742C48.3088 63.4742 51.4014 62.9863 54.3545 62.023C54.608 61.9406 54.8742 62.08 54.9566 62.3272C55.039 62.5743 54.8995 62.8468 54.6524 62.9292C51.6042 63.9242 48.4102 64.4248 45.1719 64.4248H45.1655ZM65.3243 56.6807C65.1975 56.6807 65.0645 56.63 64.9694 56.5223C64.792 56.3258 64.811 56.028 65.0011 55.8505C71.2243 50.2357 74.7921 42.2128 74.7921 33.835V33.7146C74.7921 33.4547 75.0013 33.2393 75.2611 33.2329C75.5209 33.2329 75.7364 33.4421 75.7364 33.7019V33.8286C75.7364 42.4726 72.0544 50.7554 65.6285 56.5476C65.5398 56.63 65.4257 56.668 65.3116 56.668L65.3243 56.6807ZM15.0573 34.3419C14.7975 34.3419 14.582 34.1582 14.582 33.8983V33.835C14.582 25.2163 18.2513 16.9462 24.6456 11.1603C24.842 10.9829 25.1399 11.0019 25.3173 11.192C25.4948 11.3885 25.4757 11.6863 25.2856 11.8638C19.0878 17.4722 15.539 25.4825 15.539 33.835C15.539 34.0948 15.3235 34.3419 15.0637 34.3419H15.0573ZM74.602 27.9287C74.3802 27.9287 74.1837 27.7766 74.1394 27.5548C71.2179 14.0184 59.0378 4.1957 45.1719 4.1957C42.0096 4.1957 38.9044 4.69001 35.9322 5.66594C35.685 5.74833 35.4125 5.60891 35.3301 5.36175C35.2478 5.1146 35.3872 4.8421 35.6343 4.75972C38.7016 3.7521 41.9145 3.24512 45.1719 3.24512C59.4814 3.24512 72.0608 13.3847 75.071 27.352C75.128 27.6055 74.9632 27.8589 74.7097 27.916C74.6781 27.9223 74.64 27.9287 74.6083 27.9287H74.602Z" fill="black"/>
<path d="M41.9716 47.0161L29.1387 34.1896L33.7585 29.5761L41.9716 37.7891L62.7134 17.041L67.3332 21.6545L41.9716 47.0161Z" fill="#EBEBEB"/>
<path d="M41.9717 48.1121L28.0488 34.1892L33.7587 28.4794L41.9717 36.6924L62.7135 15.9443L68.4234 21.6542L41.9654 48.1121H41.9717ZM30.2352 34.1892L41.9717 45.9258L66.237 21.6605L62.7135 18.137L41.9654 38.8851L33.7523 30.6721L30.2288 34.1956L30.2352 34.1892Z" fill="#EBEBEB"/>
</svg>
