<svg width="30" height="30" viewBox="0 0 30 30" fill="none" xmlns="http://www.w3.org/2000/svg">
<path d="M22.8748 7.13729C22.7591 7.02141 22.6218 6.92948 22.4706 6.86675C22.3194 6.80402 22.1572 6.77174 21.9935 6.77174C21.8298 6.77174 21.6677 6.80402 21.5165 6.86675C21.3653 6.92948 21.2279 7.02141 21.1123 7.13729L14.9998 13.2373L8.88729 7.12479C8.77156 7.00906 8.63418 6.91726 8.48297 6.85463C8.33177 6.792 8.1697 6.75977 8.00604 6.75977C7.84238 6.75977 7.68032 6.792 7.52911 6.85463C7.37791 6.91726 7.24052 7.00906 7.12479 7.12479C7.00906 7.24052 6.91726 7.37791 6.85463 7.52911C6.792 7.68032 6.75977 7.84238 6.75977 8.00604C6.75977 8.1697 6.792 8.33177 6.85463 8.48297C6.91726 8.63418 7.00906 8.77156 7.12479 8.88729L13.2373 14.9998L7.12479 21.1123C7.00906 21.228 6.91726 21.3654 6.85463 21.5166C6.792 21.6678 6.75977 21.8299 6.75977 21.9935C6.75977 22.1572 6.792 22.3193 6.85463 22.4705C6.91726 22.6217 7.00906 22.7591 7.12479 22.8748C7.24052 22.9905 7.37791 23.0823 7.52911 23.1449C7.68032 23.2076 7.84238 23.2398 8.00604 23.2398C8.1697 23.2398 8.33177 23.2076 8.48297 23.1449C8.63418 23.0823 8.77156 22.9905 8.88729 22.8748L14.9998 16.7623L21.1123 22.8748C21.228 22.9905 21.3654 23.0823 21.5166 23.1449C21.6678 23.2076 21.8299 23.2398 21.9935 23.2398C22.1572 23.2398 22.3193 23.2076 22.4705 23.1449C22.6217 23.0823 22.7591 22.9905 22.8748 22.8748C22.9905 22.7591 23.0823 22.6217 23.1449 22.4705C23.2076 22.3193 23.2398 22.1572 23.2398 21.9935C23.2398 21.8299 23.2076 21.6678 23.1449 21.5166C23.0823 21.3654 22.9905 21.228 22.8748 21.1123L16.7623 14.9998L22.8748 8.88729C23.3498 8.41229 23.3498 7.61229 22.8748 7.13729Z" fill="#808080"/>
</svg>
