<svg width="218" height="185" viewBox="0 0 218 185" fill="none" xmlns="http://www.w3.org/2000/svg">
<g clip-path="url(#clip0_1028_1605)">
<path d="M109 185C144.139 185 172.625 182.097 172.625 178.515C172.625 174.934 144.139 172.031 109 172.031C73.861 172.031 45.375 174.934 45.375 178.515C45.375 182.097 73.861 185 109 185Z" fill="#EBEAF1"/>
<path d="M217.397 99.2224L206.269 101.493L210.053 87.2938L217.598 85.7541C217.869 85.6971 218.043 85.4321 217.99 85.1604C217.933 84.8853 217.668 84.7109 217.397 84.7679L210.341 86.207L198.246 88.6759L190.52 90.2525C190.453 90.2223 190.386 90.1888 190.316 90.1619C189.867 89.9909 189.442 89.86 188.943 89.7694C188.668 89.7225 188.407 89.9036 188.36 90.1753C188.327 90.3632 188.401 90.5443 188.541 90.6584L188.397 90.6852C188.33 90.6651 188.263 90.6383 188.196 90.6181C187.915 90.541 187.667 90.4772 187.326 90.4471C187.048 90.4236 186.807 90.6282 186.783 90.9066C186.78 90.9435 186.79 90.9771 186.793 91.014L186.679 91.0375C186.602 91.0039 186.522 90.967 186.442 90.9402C186.304 90.8932 186.194 90.8563 186.006 90.8228C185.735 90.7758 185.477 90.9569 185.427 91.2287C185.427 91.2488 185.427 91.2723 185.427 91.2924L183.95 91.5943L177.149 92.9831C177.159 79.7731 176.918 67.4688 176.426 55.8791C176.268 52.1992 173.278 49.2204 169.618 49.0996C157.321 48.687 145.015 48.3986 132.732 48.2308V17.8291C132.732 7.9971 124.749 0 114.937 0H110.081C100.266 0 92.2829 7.9971 92.2829 17.8291V48.1235C76.9024 48.251 61.6022 48.573 46.4493 49.0929C42.7457 49.217 39.7553 52.226 39.6415 55.9428C39.2597 68.3443 39.0688 81.1652 39.0688 94.3047L36.8286 93.721L22.7004 90.0445L21.2337 89.6621C21.1968 89.699 21.1533 89.7258 21.1031 89.7493L21.0361 89.7795C20.9926 89.7997 20.8854 89.85 20.8084 89.8969C20.728 89.9472 20.6443 90.0009 20.5639 90.0613C20.3999 90.1787 20.2492 90.3196 20.1085 90.4672C19.8272 90.7624 19.5962 91.1113 19.4019 91.4836C19.2077 91.8559 19.0738 92.2652 18.9633 92.6778C18.9063 92.8824 18.8729 93.1005 18.8293 93.3084L18.7456 93.9592V94.0062C18.6954 94.3718 18.3605 94.6335 17.9921 94.5899C17.6238 94.5429 17.3659 94.2074 17.4095 93.8384C17.4095 93.825 17.4095 93.8116 17.4162 93.7982L17.5535 93.0569C17.6204 92.812 17.6774 92.5671 17.7577 92.3256C17.9185 91.8425 18.1094 91.3628 18.3772 90.9167C18.6384 90.4772 18.9499 90.0646 19.3283 89.7091C19.2178 89.7527 19.1006 89.8064 18.9968 89.8634C18.7958 89.9707 18.5983 90.0881 18.4174 90.229C18.0491 90.5007 17.7176 90.8261 17.4296 91.1884C17.155 91.5608 16.9072 91.9499 16.7196 92.3792C16.6125 92.5872 16.5455 92.8153 16.4584 93.0334C16.3848 93.2548 16.3245 93.4862 16.2575 93.711L16.2408 93.7714C16.1336 94.1269 15.7586 94.3282 15.407 94.2209C15.052 94.1169 14.8511 93.7412 14.9549 93.3856L14.9649 93.3554C15.0587 93.0971 15.1424 92.8321 15.2429 92.5772C15.3601 92.3256 15.4538 92.0639 15.5911 91.8224C15.8456 91.3259 16.1705 90.8664 16.5321 90.437C16.9038 90.0177 17.3291 89.6386 17.8013 89.33C17.9185 89.2495 18.039 89.1791 18.1663 89.1086C18.1361 89.1086 18.0993 89.1086 18.0591 89.1086C18.0491 89.112 18.039 89.1187 18.029 89.122L17.9988 89.1355C17.6539 89.273 17.2722 89.4776 16.934 89.6957C16.5924 89.9171 16.2743 90.1653 15.9896 90.4403C15.7016 90.7121 15.4639 91.0207 15.263 91.3427C15.0587 91.6647 14.9348 92.017 14.8343 92.3692L14.8209 92.4161C14.7171 92.7717 14.3454 92.9763 13.9905 92.8724C13.6355 92.7684 13.4312 92.396 13.5317 92.0404C13.5317 92.0304 13.5417 92.0203 13.5451 92.0103C13.7092 91.5272 13.9201 91.0576 14.2148 90.6517C14.5028 90.2458 14.8343 89.8768 15.206 89.5682C15.5744 89.2562 15.9662 88.9879 16.3781 88.7564C16.5321 88.6725 16.6862 88.592 16.8402 88.5182L10.7556 86.9349L2.337 84.7478C2.30351 84.7377 2.27003 84.731 2.23654 84.731C2.00213 84.7176 1.78447 84.8719 1.72419 85.1067C1.65387 85.3751 1.81795 85.6501 2.08585 85.7206L10.9867 88.0352L14.0139 102.416L1.57015 99.1788C1.54001 99.1721 1.50653 99.1654 1.47304 99.1654C1.23863 99.152 1.01762 99.3063 0.960688 99.5411C0.887017 99.8128 1.0511 100.088 1.319 100.155L14.245 103.516L24.291 106.133C24.3882 107.24 25.1014 113.127 29.3911 116.615C31.4539 118.293 34.0056 119.138 37.0027 119.138C37.736 119.138 38.4995 119.084 39.2898 118.98C39.3032 119.685 39.3133 120.393 39.3267 121.1L25.5803 123.905L13.4882 126.374L0.401456 129.044C0.130212 129.097 -0.0472687 129.362 0.0096591 129.638C0.0565408 129.876 0.267509 130.04 0.501917 130.04C0.535404 130.04 0.568891 130.037 0.602378 130.03L13.1968 127.46L9.41279 141.66L0.401456 143.498C0.130212 143.555 -0.0472687 143.82 0.0096591 144.092C0.0565408 144.33 0.267509 144.495 0.501917 144.495C0.535404 144.495 0.568891 144.491 0.602378 144.485L9.1248 142.747L21.2169 140.278L35.5192 137.36L39.8089 136.484C40.4585 139.617 43.1743 142.009 46.4661 142.13C60.842 142.653 75.7973 142.972 91.2683 143.089V175.54C91.2683 175.762 91.0908 175.94 90.8731 175.94H85.0732C84.6111 175.94 84.236 176.315 84.236 176.778C84.236 177.241 84.6111 177.617 85.0732 177.617H90.8731C92.015 177.617 92.9426 176.684 92.9426 175.54V143.102C96.9041 143.129 100.902 143.143 104.931 143.143C111.551 143.143 118.259 143.109 125.05 143.035V175.54C125.05 176.684 125.981 177.617 127.123 177.617H132.919C133.385 177.617 133.757 177.241 133.757 176.778C133.757 176.315 133.385 175.94 132.919 175.94H127.123C126.905 175.94 126.724 175.762 126.724 175.54V143.019C138.662 142.881 150.852 142.633 163.269 142.277L170.673 144.203L182.624 147.312L196.745 150.986L208.694 154.095L215.662 155.907C215.93 155.977 216.205 155.819 216.275 155.548C216.342 155.279 216.185 155.004 215.917 154.934L208.463 152.995L205.435 138.614L216.429 141.472C216.697 141.539 216.972 141.382 217.042 141.113C217.109 140.842 216.948 140.566 216.68 140.499L205.204 137.514L193.256 134.404L179.135 130.734L176.526 130.057C176.623 126.914 176.71 123.818 176.784 120.768C178.599 121.439 180.243 121.778 181.706 121.775C183.461 121.775 184.955 121.295 186.177 120.332C190.909 116.612 189.757 107.058 189.599 105.918L193.882 105.046L205.978 102.577L217.598 100.205C217.869 100.152 218.043 99.8866 217.99 99.6115C217.933 99.3398 217.668 99.1654 217.397 99.219V99.2224ZM22.9348 91.1481L37.0596 94.8213L39.109 104.559C39.1191 106.022 39.1325 107.488 39.1492 108.957L25.9587 105.529L22.9348 91.1481ZM30.2417 115.582C26.8327 112.815 25.9085 108.165 25.6841 106.498L26.1898 106.629L39.1592 110C39.1894 112.536 39.2262 115.082 39.2664 117.635C35.5795 118.138 32.5422 117.454 30.2417 115.582ZM35.8106 136.276L21.5083 139.194L25.2923 124.995L39.3501 122.127C39.3501 122.395 39.3602 122.664 39.3635 122.935L35.8106 136.276ZM93.2875 18.9361C100.755 19.5365 108.591 19.4829 117.063 18.7784C118.125 18.6912 119.139 19.0401 119.923 19.7613C120.707 20.4859 121.139 21.4721 121.139 22.5388V38.8718C121.139 40.7369 119.809 42.3068 117.974 42.602C110.162 43.8566 101.877 43.9304 93.2875 42.82V18.9361ZM93.2875 43.8364C97.3127 44.3497 101.274 44.608 105.155 44.608C107.379 44.608 109.572 44.5241 111.735 44.353C113.899 44.1853 116.032 43.9304 118.135 43.5949C120.455 43.2226 122.143 41.2367 122.143 38.8718V22.5388C122.143 21.2071 121.581 19.9257 120.603 19.0233C119.625 18.1209 118.306 17.6647 116.98 17.7754C108.531 18.4799 100.725 18.5302 93.2875 17.923V17.8291C93.2875 8.55395 100.822 1.00635 110.081 1.00635H114.937C124.196 1.00635 131.727 8.55395 131.727 17.8291V48.3885C131.727 48.677 131.69 48.9554 131.617 49.2204C131.486 49.7135 131.238 50.163 130.907 50.5387C130.394 51.1157 129.678 51.5115 128.861 51.6122C118.577 52.8734 107.576 52.86 96.1574 51.5685C94.7878 51.4142 93.6994 50.4146 93.3813 49.1198C93.321 48.8682 93.2875 48.6065 93.2875 48.3382V43.8364ZM96.0469 52.5682C101.857 53.2257 107.563 53.5544 113.125 53.5544C115.844 53.5544 118.53 53.4772 121.172 53.3196C122.518 53.2391 123.851 53.1384 125.174 53.0177C103.541 61.0752 90.699 59.9648 87.2431 57.0665C86.4662 56.4158 86.1515 55.6979 86.3122 54.9297C86.6538 53.2626 89.0782 51.5853 92.8154 50.4045C93.4617 51.5753 94.6404 52.4072 96.0469 52.5682ZM46.4828 50.0959C61.6524 49.5793 76.9627 49.2539 92.3599 49.1265C92.3767 49.2405 92.4035 49.3546 92.4336 49.4653C92.4336 49.4653 92.4336 49.4675 92.4336 49.472C88.3281 50.7802 85.7463 52.6789 85.3243 54.7251C85.1603 55.5235 85.2473 56.711 86.5935 57.8414C88.4018 59.3543 91.861 60.2701 96.7735 60.2701C104.332 60.2701 115.332 58.0997 129.048 52.6017C130.1 52.4575 131.021 51.9342 131.677 51.1794C132.156 50.6326 132.494 49.9685 132.645 49.2372C144.948 49.4015 157.271 49.6934 169.581 50.106C171.145 50.1563 172.568 50.8205 173.619 51.8637L146.572 75.8752C144.037 72.8326 140.219 70.8971 135.953 70.8971C128.315 70.8971 122.123 77.0995 122.123 84.7511C122.123 88.4277 123.55 91.7654 125.884 94.2443L112.429 106.186L104.764 107.75L101.666 108.384L89.2691 96.5589C93.2273 94.1236 95.866 89.746 95.866 84.7511C95.866 82.7116 95.4273 80.7761 94.6371 79.0317C94.4931 78.7131 94.3357 78.3977 94.1649 78.0891C91.8141 73.8021 87.2632 70.8971 82.0359 70.8971C76.8086 70.8971 72.2577 73.8021 69.907 78.0891L42.4175 51.8704C43.469 50.8205 44.8989 50.153 46.4795 50.0959H46.4828ZM146.937 80.1957C146.937 83.0035 144.667 85.2778 141.864 85.2778C140.682 85.2778 139.593 84.8719 138.729 84.1876C138.465 83.983 138.217 83.7448 138.003 83.4865C137.246 82.6009 136.79 81.4537 136.79 80.1957C136.79 77.388 139.064 75.1137 141.864 75.1137C143.337 75.1137 144.667 75.7443 145.591 76.7507C145.818 76.9956 146.023 77.2673 146.2 77.5524C146.669 78.3239 146.937 79.2263 146.937 80.1957ZM135.779 87.2637C135.779 88.8034 134.537 90.0479 133.003 90.0479C132.738 90.0479 132.484 90.011 132.243 89.9439C131.888 89.8433 131.563 89.6722 131.282 89.4508C130.636 88.9409 130.224 88.1526 130.224 87.2637C130.224 85.7273 131.466 84.4828 133.003 84.4828C134.008 84.4828 134.888 85.0161 135.374 85.8179C135.561 86.1231 135.689 86.4653 135.746 86.8343C135.769 86.9752 135.779 87.1161 135.779 87.2637ZM116.501 114.445L115.73 117.343L114.99 120.118L103.461 122.469L100.691 123.036L102.306 116.984L103.602 112.13L103.709 111.725L103.859 111.158L104.007 110.611L104.479 108.836L110.932 107.518L112.897 107.119L118.774 105.918L116.501 114.445ZM118.299 129.547L104.177 125.874L103.668 123.455L114.702 121.204L116.467 120.845L118.299 129.547ZM88.0971 85.2744C88.0468 85.2778 87.9966 85.2778 87.9464 85.2778C87.5445 85.2778 87.1527 85.2308 86.7777 85.1403C84.5408 84.6136 82.8731 82.6009 82.8731 80.1957C82.8731 77.388 85.1469 75.1137 87.9464 75.1137C90.4311 75.1137 92.5006 76.905 92.9326 79.2666C92.9895 79.5685 93.0196 79.8771 93.0196 80.1957C93.0196 80.3299 93.0129 80.4641 93.0029 80.5949C92.8053 83.1678 90.6956 85.2006 88.0971 85.2744ZM81.8618 87.2637C81.8618 87.901 81.6508 88.4847 81.2959 88.951C81.0916 89.2193 80.8371 89.4508 80.5491 89.6319C80.1238 89.8936 79.6215 90.0479 79.0857 90.0479C77.5487 90.0479 76.3063 88.8034 76.3063 87.2637C76.3063 86.7739 76.4336 86.3143 76.6546 85.9151C76.8187 85.6199 77.033 85.3583 77.2875 85.1436C77.7697 84.731 78.3992 84.4828 79.0857 84.4828C80.6194 84.4828 81.8618 85.7273 81.8618 87.2637ZM40.6461 55.973C40.6829 54.7352 41.0981 53.5913 41.7746 52.642L69.4381 79.0317C68.6478 80.7761 68.2092 82.7116 68.2092 84.7511C68.2092 89.746 70.8479 94.1236 74.8061 96.5589C75.1041 96.7468 75.4089 96.9179 75.7236 97.0789C77.6156 98.055 79.7622 98.6052 82.0393 98.6052C84.3164 98.6052 86.4629 98.055 88.3549 97.0789L100.464 108.628L96.9175 109.353L88.9677 107.283L74.8463 103.61L62.8981 100.504L48.7767 96.8307L40.0734 94.5664C40.0734 81.343 40.261 68.4483 40.6461 55.973ZM76.611 119.742L77.5219 116.324L78.0811 114.224L89.9221 111.808L92.38 111.305L90.9468 116.679L89.5136 122.06L89.2557 123.033L88.596 125.505L74.2971 128.423L76.611 119.742ZM75.0773 104.71L89.2021 108.384L89.7145 110.822L78.3724 113.137L76.9124 113.435L75.0773 104.71ZM65.403 115.784L52.035 112.312L49.0078 97.9309L63.1292 101.601L66.0894 115.643L66.1598 115.981L65.403 115.784ZM65.9187 116.958L62.2016 130.892L47.906 133.807L51.6901 119.608L65.3762 116.817L65.9187 116.958ZM40.1672 110.262L40.3179 110.302L52.266 113.409L63.1593 116.243L51.978 118.524L40.3279 120.899C40.261 117.333 40.2074 113.788 40.1672 110.262ZM126.513 142.016C126.091 142.022 125.669 142.026 125.247 142.029C114.203 142.146 103.381 142.17 92.7953 142.096L91.4223 142.086C75.9078 141.972 60.9157 141.65 46.5029 141.127C43.68 141.023 41.3493 138.973 40.7934 136.286L47.6147 134.894L61.9136 131.976L74.0091 129.51L88.3047 126.592L96.5056 124.918L104.409 126.974L118.533 130.644L130.481 133.754L144.603 137.427L156.551 140.536L159.769 141.372C148.487 141.68 137.393 141.895 126.513 142.016ZM127.086 117.652L127.2 117.229L130.87 103.452L145.169 100.534L141.385 114.734L128.06 117.454L127.086 117.652ZM141.345 121.946L144.372 136.326L130.247 132.653L127.297 118.635L128.034 118.484L141.345 121.946ZM166.855 142.177L163.379 141.271L156.32 139.436L153.293 125.055L167.414 128.725L170.006 141.046L170.214 142.039L170.441 143.109L166.855 142.177ZM175.531 129.802L167.183 127.628L153.058 123.955L141.114 120.845L130.271 118.028L141.093 115.82L153.189 113.352L167.488 110.433L176.014 108.692C175.913 115.488 175.752 122.516 175.531 129.802ZM153.48 112.265L157.264 98.0651L171.56 95.1467L167.776 109.346L153.48 112.265ZM171.851 94.0632L157.552 96.9782L145.457 99.4472L131.161 102.366L119.066 104.834L114.398 105.787L126.6 94.9521C129.062 97.2231 132.35 98.6052 135.957 98.6052C143.595 98.6052 149.787 92.4027 149.787 84.7511C149.787 81.7355 148.826 78.9479 147.191 76.6735L174.272 52.6319C174.949 53.5678 175.371 54.6983 175.421 55.9227C175.917 67.556 176.158 79.914 176.144 93.1877L171.851 94.0632ZM193.491 135.508L196.514 149.889L182.393 146.215L179.366 131.838L193.491 135.508ZM185.35 119.282C183.418 120.798 180.548 120.815 176.817 119.346C176.901 115.659 176.971 112.04 177.022 108.487L179.587 107.964L188.283 106.19C188.447 107.508 189.355 116.136 185.35 119.282ZM194.174 103.962L179.875 106.877L183.659 92.6812L186.475 92.1075C186.606 92.1847 186.736 92.2719 186.857 92.3692C187.178 92.6241 187.456 92.9361 187.697 93.2783C187.942 93.6204 188.129 94.0062 188.3 94.3987C188.38 94.5966 188.444 94.8045 188.521 95.0058L188.692 95.6365L188.702 95.6834C188.799 96.0423 189.167 96.2537 189.526 96.1564C189.884 96.0591 190.095 95.6901 189.998 95.3346C189.998 95.3211 189.991 95.3077 189.984 95.2943L189.747 94.5798C189.646 94.345 189.556 94.1102 189.445 93.8821C189.218 93.4258 188.963 92.9797 188.635 92.5738C188.417 92.3021 188.173 92.0472 187.908 91.8123L188.21 91.752C188.307 91.7956 188.404 91.8425 188.501 91.8996C188.903 92.1176 189.274 92.3927 189.609 92.7113C189.934 93.0401 190.236 93.3923 190.48 93.7915C190.614 93.9827 190.711 94.2007 190.832 94.402C190.932 94.6133 191.023 94.8347 191.12 95.0461L191.146 95.1031C191.3 95.4419 191.699 95.5895 192.037 95.4352C192.372 95.2809 192.519 94.8817 192.365 94.5429L192.352 94.5161C192.225 94.2712 192.104 94.0229 191.97 93.7814C191.82 93.55 191.689 93.3051 191.518 93.0837C191.2 92.6275 190.812 92.2149 190.396 91.8425C190.219 91.6916 190.035 91.5507 189.84 91.4199L190.226 91.3394C190.473 91.4735 190.711 91.6144 190.932 91.7721C191.257 92.0002 191.535 92.2753 191.779 92.5671C192.027 92.8556 192.195 93.1877 192.345 93.5231L192.365 93.5667C192.516 93.9055 192.915 94.0565 193.249 93.9055C193.588 93.7546 193.738 93.3554 193.588 93.0166C193.588 93.0065 193.578 92.9965 193.574 92.9864C193.343 92.5302 193.069 92.0975 192.72 91.7352C192.462 91.4635 192.185 91.2152 191.89 91.0005L197.958 89.7627L194.174 103.962Z" fill="#525365"/>
<path d="M131.728 17.8286V48.388C131.728 48.6765 131.691 48.9549 131.617 49.2199C131.487 49.713 131.239 50.1625 130.907 50.5382C130.395 51.1152 129.678 51.511 128.861 51.6117C118.577 52.8729 107.577 52.8595 96.1579 51.5681C94.7883 51.4137 93.7 50.4141 93.3818 49.1193C93.3216 48.8677 93.2881 48.606 93.2881 48.3377V43.836C97.3132 44.3492 101.275 44.6075 105.156 44.6075C107.379 44.6075 109.573 44.5236 111.736 44.3526C113.899 44.1848 116.032 43.9299 118.135 43.5944C120.456 43.2221 122.144 41.2362 122.144 38.8713V22.5383C122.144 21.2066 121.581 19.9252 120.603 19.0228C119.626 18.1205 118.306 17.6642 116.98 17.7749C108.531 18.4794 100.726 18.5297 93.2881 17.9225V17.8286C93.2881 8.55346 100.823 1.00586 110.082 1.00586H114.937C124.197 1.00586 131.728 8.55346 131.728 17.8286Z" fill="#9BA7BE"/>
<path d="M125.174 53.0174C103.541 61.0749 90.6991 59.9646 87.2432 57.0663C86.4663 56.4155 86.1516 55.6977 86.3123 54.9295C86.6539 53.2623 89.0783 51.5851 92.8155 50.4043C93.4618 51.575 94.6405 52.4069 96.047 52.5679C101.857 53.2254 107.563 53.5542 113.125 53.5542C115.844 53.5542 118.53 53.477 121.172 53.3193C122.518 53.2388 123.851 53.1382 125.174 53.0174Z" fill="#9BA7BE"/>
<path d="M81.8621 87.2633C81.8621 87.9006 81.6512 88.4843 81.2962 88.9506C81.0919 89.219 80.8374 89.4504 80.5494 89.6316C80.1242 89.8932 79.6218 90.0475 79.0861 90.0475C77.549 90.0475 76.3066 88.803 76.3066 87.2633C76.3066 86.7735 76.4339 86.314 76.6549 85.9148C76.819 85.6196 77.0333 85.3579 77.2878 85.1433C77.77 84.7307 78.3996 84.4824 79.0861 84.4824C80.6198 84.4824 81.8621 85.7269 81.8621 87.2633Z" fill="white"/>
<path d="M93.0196 80.1953C93.0196 80.3295 93.0129 80.4637 93.0029 80.5945C92.8053 83.1674 90.6956 85.2002 88.097 85.274C88.0468 85.2774 87.9966 85.2774 87.9463 85.2774C87.5445 85.2774 87.1527 85.2304 86.7776 85.1398C84.5407 84.6132 82.873 82.6005 82.873 80.1953C82.873 77.3876 85.1468 75.1133 87.9463 75.1133C90.4311 75.1133 92.5005 76.9046 92.9325 79.2661C92.9894 79.568 93.0196 79.8767 93.0196 80.1953Z" fill="white"/>
<path d="M135.779 87.2633C135.779 88.803 134.537 90.0475 133.003 90.0475C132.738 90.0475 132.484 90.0106 132.243 89.9435C131.888 89.8429 131.563 89.6718 131.282 89.4504C130.636 88.9405 130.224 88.1522 130.224 87.2633C130.224 85.7269 131.466 84.4824 133.003 84.4824C134.008 84.4824 134.888 85.0158 135.374 85.8175C135.561 86.1228 135.689 86.4649 135.746 86.8339C135.769 86.9748 135.779 87.1157 135.779 87.2633Z" fill="white"/>
<path d="M146.938 80.1953C146.938 83.003 144.667 85.2774 141.864 85.2774C140.682 85.2774 139.594 84.8715 138.73 84.1872C138.465 83.9825 138.218 83.7444 138.003 83.4861C137.246 82.6005 136.791 81.4533 136.791 80.1953C136.791 77.3876 139.065 75.1133 141.864 75.1133C143.338 75.1133 144.667 75.7439 145.591 76.7503C145.819 76.9952 146.023 77.2669 146.201 77.552C146.67 78.3235 146.938 79.2259 146.938 80.1953Z" fill="white"/>
<path d="M176.014 108.692C175.913 115.489 175.752 122.516 175.531 129.802L167.183 127.628L153.058 123.955L141.114 120.846L130.271 118.028L141.093 115.821L153.189 113.352L167.488 110.433L176.014 108.692Z" fill="#EAEFF0"/>
<path d="M159.769 141.372C148.487 141.68 137.393 141.895 126.513 142.016C126.091 142.022 125.669 142.026 125.247 142.029C114.203 142.147 103.38 142.17 92.7948 142.096L91.4219 142.086C75.9074 141.972 60.9153 141.65 46.5025 141.127C43.6795 141.023 41.3489 138.973 40.793 136.286L47.6143 134.894L61.9132 131.976L74.0087 129.51L88.3042 126.592L96.5052 124.918L104.408 126.974L118.533 130.644L130.481 133.754L144.602 137.427L156.551 140.536L159.769 141.372Z" fill="#EAEFF0"/>
<path d="M63.1591 116.244L51.9778 118.525L40.3277 120.9C40.2608 117.334 40.2072 113.788 40.167 110.263L40.3177 110.303L52.2658 113.409L63.1591 116.244Z" fill="#EAEFF0"/>
<path d="M100.464 108.629L96.9173 109.354L88.9675 107.284L74.8461 103.611L62.8979 100.504L48.7765 96.8312L40.0732 94.567C40.0732 81.3436 40.2608 68.4489 40.6459 55.9736C40.6827 54.7358 41.0979 53.5919 41.7744 52.6426L69.4379 79.0323C68.6477 80.7767 68.209 82.7122 68.209 84.7517C68.209 89.7466 70.8477 94.1242 74.8059 96.5595C75.1039 96.7474 75.4087 96.9185 75.7234 97.0795C77.6155 98.0556 79.762 98.6058 82.0391 98.6058C84.3162 98.6058 86.4627 98.0556 88.3547 97.0795L100.464 108.629Z" fill="#EAEFF0"/>
<path d="M169.584 50.1065C157.275 49.6939 144.951 49.402 132.648 49.2377C132.498 49.9689 132.159 50.6331 131.68 51.1799C131.024 51.9347 130.103 52.458 129.052 52.6022C126.182 53.7528 123.433 54.7558 120.807 55.6246C110.885 58.912 102.758 60.2706 96.7804 60.2706C91.8679 60.2706 88.4087 59.3548 86.6004 57.8419C85.9206 57.2716 85.5623 56.688 85.3948 56.1445C85.2307 55.6112 85.2508 55.1214 85.3312 54.7256C85.7531 52.6794 88.335 50.7807 92.4405 49.4725C92.4405 49.4725 92.4405 49.4702 92.4405 49.4658C92.4103 49.3551 92.3836 49.241 92.3668 49.127C76.9695 49.2544 61.6593 49.5798 46.4897 50.0964C44.9091 50.1534 43.4792 50.821 42.4277 51.8709L69.9172 78.0896C72.268 73.8026 76.8188 70.8976 82.0461 70.8976C87.2734 70.8976 91.8243 73.8026 94.1751 78.0896C94.3459 78.3982 94.5033 78.7135 94.6473 79.0322C95.4376 80.7765 95.8762 82.7121 95.8762 84.7516C95.8762 89.7464 93.2375 94.1241 89.2793 96.5594L101.676 108.384L104.774 107.75L112.439 106.187L125.894 94.2448C123.56 91.7659 122.133 88.4281 122.133 84.7516C122.133 77.1 128.325 70.8976 135.963 70.8976C140.23 70.8976 144.047 72.8331 146.582 75.8756L173.63 51.8642C172.578 50.821 171.155 50.1568 169.591 50.1065H169.584ZM85.5053 65.2922C85.4484 65.6579 85.1068 65.9095 84.7418 65.8558C83.9114 65.7317 83.0641 65.6679 82.2169 65.6679C79.4107 65.6679 76.628 66.369 74.1734 67.6974C74.0695 67.7511 73.9624 67.7779 73.8552 67.7779C73.6175 67.7779 73.3864 67.6504 73.2659 67.4257C73.0884 67.1003 73.2089 66.691 73.5371 66.5166C76.1859 65.0843 79.1864 64.3261 82.2169 64.3261C83.1278 64.3261 84.0453 64.3932 84.9394 64.5274C85.3078 64.5811 85.5589 64.9232 85.5053 65.2922ZM114.251 97.5322C114.17 97.7771 113.966 97.9415 113.731 97.9851C113.624 98.0018 113.514 97.9951 113.403 97.9616C110.754 97.0861 107.895 96.8814 105.129 97.3745C104.298 97.5221 103.471 97.7335 102.674 98.0018C102.326 98.1192 101.944 97.9314 101.827 97.5792C101.71 97.227 101.897 96.8479 102.249 96.7305C103.106 96.4386 103.997 96.2139 104.894 96.0529C107.878 95.5229 110.965 95.7409 113.825 96.6869C114.177 96.8043 114.368 97.1833 114.251 97.5322ZM144.734 67.4257C144.613 67.6504 144.382 67.7779 144.144 67.7779C144.037 67.7779 143.927 67.7511 143.826 67.6974C141.372 66.369 138.589 65.6679 135.779 65.6679C134.935 65.6679 134.085 65.7317 133.254 65.8558C132.893 65.9095 132.548 65.6579 132.494 65.2922C132.437 64.9232 132.692 64.5811 133.057 64.5274C133.951 64.3932 134.868 64.3261 135.779 64.3261C138.81 64.3261 141.814 65.0843 144.462 66.5166C144.787 66.691 144.908 67.1003 144.734 67.4257Z" fill="#EAEFF0"/>
<path d="M176.144 93.1886L171.851 94.0641L157.552 96.9791L145.457 99.448L131.161 102.366L119.066 104.835L114.397 105.788L126.6 94.953C129.061 97.224 132.35 98.6061 135.956 98.6061C143.595 98.6061 149.786 92.4036 149.786 84.752C149.786 81.7363 148.825 78.9488 147.191 76.6744L174.272 52.6328C174.949 53.5687 175.37 54.6992 175.421 55.9236C175.916 67.5569 176.157 79.9149 176.144 93.1886Z" fill="#EAEFF0"/>
<path d="M99.2414 28.4593C99.1242 28.1574 98.9903 28.0198 98.7425 27.832C98.498 27.6441 98.3272 27.5737 97.9857 27.4965C97.6407 27.4194 97.4666 27.4093 96.9777 27.3724C96.4888 27.3355 95.5177 27.2886 94.9384 27.2617C94.925 29.2375 94.9886 31.2167 95.012 33.1958C95.2732 33.2059 95.5344 33.2193 95.799 33.2327C95.7923 32.4276 95.7521 31.6192 95.7755 30.8141C96.1506 30.841 96.8672 30.8745 97.1786 30.9047C97.8651 30.9684 98.4545 30.8611 98.9267 30.5357C99.3988 30.207 99.3653 29.7373 99.4256 29.3348C99.4859 28.9289 99.3553 28.7578 99.2414 28.4593ZM98.3004 30.0023C97.989 30.1969 97.6474 30.2304 97.2222 30.2036C96.7969 30.1768 96.2042 30.1332 95.7487 30.1097C95.7253 29.4019 95.7052 28.6974 95.7152 27.993C96.1238 28.0131 96.7667 28.0467 97.1217 28.0802C97.4767 28.1104 97.6475 28.1037 97.912 28.1876C98.1765 28.2748 98.2837 28.3687 98.4277 28.5834C98.575 28.7947 98.6521 28.9658 98.6286 29.2509C98.6018 29.5327 98.6119 29.8111 98.3004 30.0023Z" fill="#525365"/>
<path d="M105.507 29.2413C105.253 28.7582 104.908 28.3825 104.456 28.1041C104 27.829 103.508 27.6445 102.986 27.668C102.185 27.7049 101.559 27.7955 100.99 28.4261C100.424 29.0534 100.283 29.8115 100.283 30.6871C100.283 31.1533 100.431 31.7236 100.678 32.1697C100.923 32.6192 101.271 33.0419 101.72 33.327C102.169 33.6088 102.694 33.7833 103.22 33.8034C103.742 33.8269 104.194 33.7531 104.65 33.5048C105.105 33.26 105.403 32.9513 105.631 32.4649C105.859 31.9785 105.942 31.4016 105.922 30.8514C105.899 30.2979 105.765 29.7243 105.507 29.2413ZM104.62 32.5589C104.211 32.9815 103.779 33.1593 103.19 33.1157C102.604 33.0755 102.135 32.8708 101.72 32.4113C101.305 31.9517 101.134 31.3311 101.084 30.7038C101.03 30.0799 101.194 29.3419 101.582 28.8891C101.968 28.4362 102.463 28.3725 102.945 28.349C103.428 28.3255 103.682 28.4563 104.054 28.6811C104.426 28.9058 104.626 29.1574 104.817 29.5667C105.008 29.9759 105.102 30.3516 105.109 30.8749C105.119 31.3949 105.032 32.1396 104.62 32.5589Z" fill="#525365"/>
<path d="M197.958 89.7627L194.174 103.962L179.875 106.877L183.659 92.6811L186.475 92.1075C186.606 92.1846 186.736 92.2718 186.857 92.3691C187.178 92.6241 187.456 92.936 187.698 93.2782C187.942 93.6204 188.13 94.0061 188.3 94.3986C188.381 94.5965 188.444 94.8045 188.521 95.0058L188.692 95.6364L188.702 95.6834C188.799 96.0423 189.168 96.2536 189.526 96.1563C189.884 96.0591 190.095 95.6901 189.998 95.3345C189.998 95.3211 189.991 95.3077 189.985 95.2942L189.747 94.5797C189.646 94.3449 189.556 94.1101 189.446 93.882C189.218 93.4258 188.963 92.9797 188.635 92.5738C188.418 92.302 188.173 92.0471 187.909 91.8123L188.21 91.7519C188.307 91.7955 188.404 91.8425 188.501 91.8995C188.903 92.1175 189.275 92.3926 189.61 92.7113C189.934 93.04 190.236 93.3923 190.48 93.7914C190.614 93.9826 190.711 94.2007 190.832 94.402C190.932 94.6133 191.023 94.8347 191.12 95.046L191.147 95.103C191.301 95.4418 191.699 95.5894 192.037 95.4351C192.372 95.2808 192.52 94.8816 192.366 94.5428L192.352 94.516C192.225 94.2711 192.104 94.0229 191.97 93.7814C191.82 93.5499 191.689 93.305 191.518 93.0836C191.2 92.6274 190.812 92.2148 190.397 91.8425C190.219 91.6915 190.035 91.5506 189.841 91.4198L190.226 91.3393C190.474 91.4735 190.711 91.6144 190.932 91.772C191.257 92.0001 191.535 92.2752 191.78 92.5671C192.027 92.8555 192.195 93.1876 192.346 93.5231L192.366 93.5667C192.516 93.9055 192.915 94.0564 193.25 93.9055C193.588 93.7545 193.739 93.3554 193.588 93.0166C193.588 93.0065 193.578 92.9964 193.574 92.9864C193.343 92.5302 193.069 92.0974 192.721 91.7351C192.463 91.4634 192.185 91.2152 191.89 91.0005L197.958 89.7627Z" fill="white"/>
<path d="M171.56 95.1475L167.776 109.347V109.35L153.48 112.265L157.264 98.0659L171.56 95.1475Z" fill="white"/>
<path d="M145.169 100.534L141.385 114.734L128.06 117.454L127.086 117.652L127.2 117.229L130.87 103.453L145.169 100.534Z" fill="white"/>
<path d="M118.775 105.918L116.502 114.445L115.731 117.343L114.991 120.118L103.462 122.469L100.692 123.036L102.306 116.984L103.602 112.13L103.71 111.725L103.86 111.158L104.008 110.611L104.48 108.836L110.933 107.518L112.898 107.119L118.775 105.918Z" fill="white"/>
<path d="M92.3808 111.306L90.9476 116.68L89.5143 122.06L89.2565 123.033L88.5968 125.505L74.2979 128.424L76.6118 119.742L77.5226 116.324L78.0819 114.224L89.9229 111.809L92.3808 111.306Z" fill="white"/>
<path d="M65.9189 116.958L62.2018 130.893L47.9062 133.808L51.6903 119.608L65.3764 116.817L65.9189 116.958Z" fill="white"/>
<path d="M39.364 122.935L35.8111 136.276L21.5088 139.195L25.2928 124.995L39.3506 122.127C39.3506 122.395 39.3607 122.664 39.364 122.935Z" fill="white"/>
<path d="M119.924 19.7616C119.14 19.0404 118.125 18.6916 117.064 18.7788C108.592 19.4832 100.756 19.5369 93.2881 18.9364V42.8204C101.877 43.9307 110.162 43.8569 117.975 42.6023C119.81 42.3071 121.139 40.7372 121.139 38.8722V22.5392C121.139 21.4724 120.707 20.4862 119.924 19.7616ZM99.4262 29.3353C99.366 29.7379 99.3995 30.2075 98.9273 30.5363C98.4551 30.8616 97.8658 30.969 97.1793 30.9052C96.8678 30.8751 96.1512 30.8415 95.7762 30.8147C95.7527 31.6198 95.7929 32.4282 95.7996 33.2333C95.5351 33.2198 95.2739 33.2064 95.0127 33.1964C94.9892 31.2172 94.9256 29.2381 94.939 27.2623C95.5183 27.2891 96.4894 27.3361 96.9784 27.373C97.4673 27.4099 97.6414 27.4199 97.9863 27.4971C98.3279 27.5742 98.4987 27.6447 98.7431 27.8325C98.9909 28.0204 99.1249 28.1579 99.2421 28.4598C99.3559 28.7584 99.4865 28.9295 99.4262 29.3353ZM105.631 32.4651C105.404 32.9515 105.106 33.2601 104.65 33.505C104.195 33.7532 103.743 33.827 103.22 33.8035C102.695 33.7834 102.169 33.609 101.72 33.3272C101.271 33.0421 100.923 32.6194 100.679 32.1699C100.431 31.7237 100.284 31.1535 100.284 30.6872C100.284 29.8117 100.424 29.0536 100.99 28.4263C101.559 27.7956 102.186 27.7051 102.986 27.6682C103.508 27.6447 104.001 27.8292 104.456 28.1042C104.908 28.3827 105.253 28.7584 105.507 29.2414C105.765 29.7245 105.899 30.2981 105.923 30.8516C105.943 31.4017 105.859 31.9787 105.631 32.4651ZM111.23 32.8173C111.046 33.1125 110.819 33.3473 110.48 33.5184C110.142 33.6895 109.764 33.7968 109.352 33.8169C108.937 33.8404 108.417 33.8002 108.029 33.6526C107.637 33.5016 107.373 33.297 107.122 32.9817C106.874 32.6664 106.813 32.3108 106.733 31.925C106.957 31.9753 107.245 31.7338 107.44 31.8881C107.637 32.0424 107.567 32.3846 107.758 32.5657C107.952 32.7435 108.126 32.9012 108.391 32.9951C108.655 33.089 109.007 33.1326 109.285 33.1192C109.559 33.1058 109.837 33.0387 110.065 32.9414C110.293 32.8475 110.44 32.72 110.567 32.5422C110.691 32.3644 110.731 32.2169 110.718 32.0122C110.701 31.8076 110.685 31.6835 110.517 31.5258C110.353 31.3648 110.216 31.2877 109.938 31.2038C109.66 31.1199 109.238 31.0495 108.903 30.9858C108.565 30.9187 108.093 30.8247 107.788 30.6771C107.487 30.5295 107.286 30.3786 107.111 30.127C106.937 29.8754 106.874 29.6641 106.864 29.3588C106.85 29.0569 106.904 28.7751 107.078 28.5034C107.252 28.2284 107.47 28.0304 107.788 27.8896C108.109 27.7487 108.481 27.6648 108.849 27.6514C109.218 27.6346 109.646 27.6749 109.991 27.799C110.336 27.9231 110.584 28.1076 110.808 28.3793C111.033 28.651 111.086 28.9664 111.173 29.2951C110.922 29.332 110.675 29.3689 110.427 29.4024C110.313 29.0838 110.239 28.7919 109.944 28.5839C109.653 28.376 109.271 28.3458 108.923 28.3458C108.578 28.3491 108.186 28.4431 107.939 28.6343C107.687 28.8288 107.607 29.0033 107.631 29.2884C107.654 29.5735 107.654 29.654 107.929 29.8553C108.203 30.0566 108.702 30.1438 109.087 30.2075C109.472 30.2712 110.008 30.3585 110.363 30.496C110.715 30.6335 110.959 30.7912 111.173 31.0596C111.388 31.3279 111.455 31.5694 111.468 31.9015C111.482 32.2336 111.415 32.5188 111.23 32.8173ZM114.864 33.4077C114.606 33.4144 114.348 33.4211 114.09 33.4312C114.027 31.6734 113.966 29.919 113.876 28.1646C113.223 28.1814 112.57 28.225 111.914 28.2653C111.9 28.0304 111.883 27.7956 111.867 27.5642C113.437 27.4702 115.004 27.4099 116.575 27.3965C116.595 27.6279 116.615 27.8627 116.632 28.0942C115.979 28.0975 115.326 28.1177 114.673 28.1411C114.76 29.8955 114.8 31.6533 114.864 33.4077Z" fill="white"/>
<path d="M98.6289 29.2511C98.6021 29.5329 98.6122 29.8113 98.3007 30.0025C97.9893 30.1971 97.6477 30.2306 97.2225 30.2038C96.7972 30.1769 96.2045 30.1333 95.749 30.1098C95.7256 29.4021 95.7055 28.6976 95.7155 27.9932C96.1241 28.0133 96.767 28.0468 97.122 28.0804C97.477 28.1106 97.6477 28.1039 97.9123 28.1877C98.1768 28.2749 98.284 28.3689 98.428 28.5836C98.5753 28.7949 98.6524 28.966 98.6289 29.2511Z" fill="white"/>
<path d="M105.109 30.8753C105.119 31.3953 105.032 32.14 104.62 32.5593C104.212 32.9819 103.78 33.1597 103.19 33.1161C102.604 33.0759 102.136 32.8712 101.72 32.4117C101.305 31.9521 101.134 31.3315 101.084 30.7042C101.031 30.0803 101.195 29.3423 101.583 28.8895C101.968 28.4366 102.464 28.3729 102.946 28.3494C103.428 28.3259 103.683 28.4567 104.054 28.6815C104.426 28.9062 104.627 29.1578 104.818 29.5671C105.009 29.9763 105.103 30.352 105.109 30.8753Z" fill="white"/>
<path d="M111.467 31.9012C111.481 32.2333 111.414 32.5184 111.23 32.817C111.046 33.1122 110.818 33.347 110.48 33.5181C110.141 33.6892 109.763 33.7965 109.351 33.8166C108.936 33.8401 108.417 33.7999 108.028 33.6523C107.637 33.5013 107.372 33.2967 107.121 32.9814C106.873 32.666 106.813 32.3105 106.732 31.9247C106.957 31.975 107.245 31.7335 107.439 31.8878C107.637 32.0421 107.566 32.3843 107.757 32.5654C107.951 32.7432 108.125 32.9009 108.39 32.9948C108.655 33.0887 109.006 33.1323 109.284 33.1189C109.559 33.1055 109.837 33.0384 110.064 32.9411C110.292 32.8472 110.439 32.7197 110.567 32.5419C110.691 32.3641 110.731 32.2165 110.717 32.0119C110.701 31.8073 110.684 31.6832 110.516 31.5255C110.352 31.3645 110.215 31.2873 109.937 31.2035C109.659 31.1196 109.237 31.0492 108.902 30.9854C108.564 30.9184 108.092 30.8244 107.787 30.6768C107.486 30.5292 107.285 30.3783 107.111 30.1267C106.937 29.8751 106.873 29.6638 106.863 29.3585C106.85 29.0566 106.903 28.7748 107.077 28.5031C107.251 28.2281 107.469 28.0301 107.787 27.8892C108.109 27.7484 108.48 27.6645 108.849 27.6511C109.217 27.6343 109.646 27.6746 109.991 27.7987C110.336 27.9228 110.583 28.1073 110.808 28.379C111.032 28.6507 111.086 28.966 111.173 29.2948C110.922 29.3317 110.674 29.3686 110.426 29.4021C110.312 29.0834 110.239 28.7916 109.944 28.5836C109.652 28.3756 109.271 28.3455 108.922 28.3455C108.578 28.3488 108.186 28.4427 107.938 28.6339C107.687 28.8285 107.606 29.0029 107.63 29.2881C107.653 29.5732 107.653 29.6537 107.928 29.855C108.202 30.0562 108.701 30.1435 109.087 30.2072C109.472 30.2709 110.007 30.3582 110.362 30.4957C110.714 30.6332 110.958 30.7909 111.173 31.0592C111.387 31.3276 111.454 31.5691 111.467 31.9012Z" fill="#525365"/>
<path d="M114.672 28.1412C114.759 29.8956 114.8 31.6533 114.863 33.4077C114.605 33.4144 114.348 33.4211 114.09 33.4312C114.026 31.6735 113.966 29.9191 113.875 28.1647C113.222 28.1814 112.569 28.225 111.913 28.2653C111.9 28.0305 111.883 27.7957 111.866 27.5642C113.437 27.4703 115.004 27.4099 116.574 27.3965C116.595 27.6279 116.615 27.8628 116.631 28.0942C115.978 28.0976 115.325 28.1177 114.672 28.1412Z" fill="#525365"/>
<path d="M144.734 67.4247C144.613 67.6495 144.382 67.777 144.144 67.777C144.037 67.777 143.927 67.7501 143.826 67.6965C141.372 66.3681 138.589 65.667 135.779 65.667C134.935 65.667 134.085 65.7307 133.254 65.8548C132.893 65.9085 132.548 65.6569 132.494 65.2913C132.437 64.9223 132.692 64.5801 133.057 64.5265C133.951 64.3923 134.869 64.3252 135.779 64.3252C138.81 64.3252 141.814 65.0833 144.463 66.5157C144.787 66.6901 144.908 67.0994 144.734 67.4247Z" fill="#525365"/>
<path d="M114.251 97.5314C114.17 97.7763 113.966 97.9407 113.731 97.9843C113.624 98.001 113.514 97.9943 113.403 97.9608C110.754 97.0853 107.895 96.8806 105.129 97.3737C104.298 97.5213 103.471 97.7327 102.674 98.001C102.326 98.1184 101.944 97.9306 101.827 97.5784C101.71 97.2261 101.897 96.8471 102.249 96.7297C103.106 96.4378 103.997 96.2131 104.894 96.0521C107.878 95.5221 110.965 95.7401 113.825 96.6861C114.177 96.8035 114.368 97.1825 114.251 97.5314Z" fill="#525365"/>
<path d="M85.5049 65.2913C85.448 65.6569 85.1064 65.9085 84.7414 65.8548C83.9109 65.7307 83.0637 65.667 82.2165 65.667C79.4103 65.667 76.6275 66.3681 74.1729 67.6965C74.0691 67.7501 73.962 67.777 73.8548 67.777C73.617 67.777 73.386 67.6495 73.2654 67.4247C73.0879 67.0994 73.2085 66.6901 73.5367 66.5157C76.1855 65.0833 79.1859 64.3252 82.2165 64.3252C83.1273 64.3252 84.0449 64.3923 84.939 64.5265C85.3073 64.5801 85.5585 64.9223 85.5049 65.2913Z" fill="#525365"/>
<path d="M196.514 149.888L182.392 146.215L179.365 131.838L193.49 135.508L196.514 149.888Z" fill="#C5CCD9"/>
<path d="M170.442 143.11L166.855 142.177L163.379 141.271L156.32 139.436L153.293 125.056L167.414 128.725V128.729L170.006 141.047L170.214 142.039L170.442 143.11Z" fill="#C5CCD9"/>
<path d="M144.372 136.326L130.247 132.653L127.297 118.634L128.034 118.483L141.345 121.945L144.372 136.326Z" fill="#C5CCD9"/>
<path d="M118.298 129.547L104.177 125.874L103.668 123.455L114.702 121.205L116.467 120.846L118.298 129.547Z" fill="#C5CCD9"/>
<path d="M89.7143 110.822L78.3723 113.136L76.9122 113.435L75.0771 104.71L89.2019 108.383L89.7143 110.822Z" fill="#C5CCD9"/>
<path d="M66.1598 115.981L65.403 115.783L52.035 112.311L49.0078 97.9307L63.1293 101.6L66.0895 115.642L66.1598 115.981Z" fill="#C5CCD9"/>
<path d="M39.149 108.957L25.9584 105.529L22.9346 91.1484L37.0594 94.8216L39.1088 104.56C39.1188 106.022 39.1322 107.488 39.149 108.957Z" fill="#C5CCD9"/>
<path d="M120.804 55.624C112.65 60.0251 100.028 64.6073 86.2718 61.387C82.595 60.1794 83.114 58.1969 85.3911 56.144C85.5586 56.6874 85.9169 57.2711 86.5967 57.8413C88.405 59.3542 91.8642 60.27 96.7767 60.27C102.754 60.27 110.881 58.9114 120.804 55.624Z" fill="#C5CCD9"/>
</g>
<defs>
<clipPath id="clip0_1028_1605">
<rect width="218" height="185" fill="white"/>
</clipPath>
</defs>
</svg>
