<?xml version="1.0" standalone="no"?>
<!DOCTYPE svg PUBLIC "-//W3C//DTD SVG 20010904//EN"
 "http://www.w3.org/TR/2001/REC-SVG-20010904/DTD/svg10.dtd">
<svg version="1.0" xmlns="http://www.w3.org/2000/svg"
 width="300.000000pt" height="45.000000pt" viewBox="0 0 300.000000 45.000000"
 preserveAspectRatio="xMidYMid meet">

<g transform="translate(0.000000,45.000000) scale(0.100000,-0.100000)"
fill="#000000" stroke="none">
<path d="M1960 434 c-82 -36 -123 -105 -123 -209 0 -105 42 -175 125 -210 68
-28 151 -13 207 38 82 76 82 268 0 344 -55 51 -142 66 -209 37z m158 -44 c96
-59 96 -271 0 -330 -47 -28 -125 -27 -168 2 -49 34 -72 87 -72 163 0 76 23
129 72 163 43 29 121 30 168 2z"/>
<path d="M0 225 l0 -215 141 0 c128 0 140 2 137 18 -3 15 -18 17 -121 20
l-117 3 0 194 c0 188 -1 195 -20 195 -19 0 -20 -7 -20 -215z"/>
<path d="M482 235 c-45 -113 -82 -210 -82 -215 0 -6 8 -10 18 -10 15 0 32 35
82 167 34 93 68 179 75 192 12 24 17 14 137 -306 14 -39 25 -53 39 -53 10 0
19 3 19 8 0 4 -36 99 -79 212 -108 278 -100 278 -209 5z"/>
<path d="M912 423 c3 -16 19 -18 130 -21 l128 -3 -140 -179 c-77 -98 -140
-186 -140 -195 0 -14 20 -15 168 -13 141 3 167 5 167 18 0 13 -22 15 -138 15
-75 0 -137 3 -137 7 0 3 61 84 135 179 74 95 135 181 135 191 0 17 -12 18
-156 18 -143 0 -155 -1 -152 -17z"/>
<path d="M1374 429 c-13 -22 14 -28 132 -31 l121 -3 -139 -179 c-76 -98 -137
-184 -135 -190 2 -7 58 -12 171 -14 156 -2 167 -1 164 15 -3 16 -17 18 -141
18 -75 0 -137 3 -137 6 0 3 61 84 135 179 74 95 135 182 135 192 0 17 -11 18
-149 18 -97 0 -152 -4 -157 -11z"/>
<path d="M2420 226 c0 -208 1 -216 20 -216 19 0 20 8 22 176 l3 176 120 -176
c96 -140 125 -176 143 -176 l22 0 0 215 c0 207 -1 215 -20 215 -19 0 -20 -8
-22 -177 l-3 -178 -120 175 c-88 128 -126 176 -143 178 l-22 3 0 -215z"/>
<path d="M2960 225 c0 -208 1 -215 20 -215 19 0 20 7 20 215 0 208 -1 215 -20
215 -19 0 -20 -7 -20 -215z"/>
</g>
</svg>
