<svg width="79" height="17" viewBox="0 0 79 17" fill="none" xmlns="http://www.w3.org/2000/svg">
<path d="M6.51156 4.84593C6.96646 3.4459 8.94713 3.4459 9.40203 4.84593C9.60547 5.47205 10.1889 5.89596 10.8473 5.89596C12.3194 5.89596 12.9314 7.7797 11.7405 8.64496C11.2079 9.03193 10.985 9.71783 11.1884 10.3439C11.6433 11.744 10.0409 12.9082 8.85 12.0429C8.3174 11.656 7.59619 11.656 7.06359 12.0429C5.87265 12.9082 4.27025 11.744 4.72515 10.3439C4.92858 9.71783 4.70572 9.03193 4.17311 8.64496C2.98217 7.7797 3.59424 5.89596 5.06632 5.89596C5.72466 5.89596 6.30812 5.47205 6.51156 4.84593Z" fill="#FFB422"/>
<path d="M38.0995 4.86727C38.5292 3.49568 40.4703 3.49568 40.9001 4.86727C41.0919 5.47936 41.6632 5.89596 42.3046 5.89596C43.7416 5.89596 44.3707 7.72394 43.223 8.58868L43.1369 8.65356C42.6273 9.03751 42.4144 9.70053 42.6052 10.3094L42.6503 10.4533C43.0747 11.8079 41.5121 12.9102 40.3784 12.056C39.8582 11.664 39.1413 11.664 38.6212 12.056C37.4874 12.9102 35.9249 11.8079 36.3493 10.4533L36.3944 10.3094C36.5851 9.70053 36.3722 9.03751 35.8626 8.65356L35.7765 8.58868C34.6288 7.72394 35.2579 5.89596 36.6949 5.89596C37.3364 5.89596 37.9077 5.47936 38.0995 4.86727Z" fill="#FFB422"/>
<path d="M70.073 5.00044C70.3782 4.06106 71.7072 4.06106 72.0124 5.00044C72.2828 5.83257 73.0583 6.39596 73.9332 6.39596C74.9209 6.39596 75.3316 7.65989 74.5325 8.24046C73.8247 8.75474 73.5285 9.66633 73.7989 10.4985C74.1041 11.4378 73.0289 12.219 72.2298 11.6384C71.522 11.1241 70.5635 11.1241 69.8556 11.6384C69.0565 12.219 67.9814 11.4378 68.2866 10.4985C68.557 9.66633 68.2608 8.75474 67.5529 8.24046C66.7539 7.65989 67.1645 6.39596 68.1523 6.39596C69.0272 6.39596 69.8026 5.83257 70.073 5.00044Z" stroke="#FFC226"/>
<path d="M22.4246 4.84593C22.8795 3.4459 24.8602 3.4459 25.3151 4.84593C25.5186 5.47205 26.102 5.89596 26.7604 5.89596C28.2324 5.89596 28.8445 7.7797 27.6536 8.64496C27.121 9.03193 26.8981 9.71783 27.1015 10.3439C27.5564 11.744 25.954 12.9082 24.7631 12.0429C24.2305 11.656 23.5093 11.656 22.9767 12.0429C21.7857 12.9082 20.1833 11.744 20.6382 10.3439C20.8417 9.71783 20.6188 9.03193 20.0862 8.64496C18.8953 7.7797 19.5073 5.89596 20.9794 5.89596C21.6377 5.89596 22.2212 5.47205 22.4246 4.84593Z" fill="#FFB422"/>
<path d="M53.6844 4.84593C54.1393 3.4459 56.12 3.4459 56.5749 4.84593C56.7783 5.47205 57.3618 5.89596 58.0201 5.89596C59.4922 5.89596 60.1043 7.7797 58.9133 8.64496C58.3807 9.03193 58.1579 9.71783 58.3613 10.3439C58.8162 11.744 57.2138 12.9082 56.0229 12.0429C55.4902 11.656 54.769 11.656 54.2364 12.0429C53.0455 12.9082 51.4431 11.744 51.898 10.3439C52.1014 9.71783 51.8786 9.03193 51.346 8.64496C50.155 7.7797 50.7671 5.89596 52.2392 5.89596C52.8975 5.89596 53.481 5.47205 53.6844 4.84593Z" fill="#FFB422"/>
<mask id="mask0_152_4784" style="mask-type:alpha" maskUnits="userSpaceOnUse" x="66" y="3" width="10" height="10">
<path d="M69.5913 4.6374C70.0466 3.23638 72.0286 3.23638 72.4839 4.6374C72.6874 5.26396 73.2713 5.68817 73.9301 5.68817C75.4032 5.68817 76.0157 7.57324 74.824 8.43912C74.291 8.82635 74.068 9.51274 74.2715 10.1393C74.7268 11.5403 73.1232 12.7054 71.9314 11.8395C71.3985 11.4522 70.6768 11.4522 70.1438 11.8395C68.952 12.7054 67.3485 11.5403 67.8037 10.1393C68.0073 9.51274 67.7842 8.82635 67.2513 8.43912C66.0595 7.57324 66.672 5.68817 68.1451 5.68817C68.8039 5.68817 69.3878 5.26396 69.5913 4.6374Z" fill="#FFB422"/>
</mask>
<g mask="url(#mask0_152_4784)">
<rect x="64.6367" y="0.498535" width="6.24503" height="14.3636" rx="2" fill="#FFB422"/>
</g>
</svg>
