<?xml version="1.0" encoding="UTF-8"?>
<svg xmlns="http://www.w3.org/2000/svg" version="1.1" viewBox="0 0 398.42 243.16">
  <defs>
    <style>
      .cls-1 {
        fill: #231f20;
      }
    </style>
  </defs>
  <!-- Generator: Adobe Illustrator 28.7.1, SVG Export Plug-In . SVG Version: 1.2.0 Build 142)  -->
  <g>
    <g id="Layer_1">
      <path class="cls-1" d="M198.23,76.45c-2.18-5.45-6.54-9.82-11.78-11.78-2.84-1.09-6.11-1.75-9.16-1.75h-3.71c-.65,0-1.31.22-2.18.22-1.75.22-3.05.22-4.36.22h-7.64l-3.71-.22h-1.31v1.09c1.75.22,3.49,1.09,4.8,2.4.65.65.87,1.53,1.09,2.4.22,1.31.44,2.84.44,4.15v24.87c0,1.31,0,2.62-.22,3.93-.22.87-.44,1.53-.87,2.4-1.31,1.53-3.05,2.4-5.02,2.62v1.09h.65l4.36-.22c.65,0,1.31,0,1.96-.22h5.24c.87,0,1.96.22,3.05.22s1.75.22,2.4.22,1.09,0,1.53.22h2.18c3.27,0,6.54-.44,9.6-1.75,2.84-1.09,5.24-2.62,7.42-4.58s3.71-4.58,4.8-7.2c1.09-3.05,1.75-6.11,1.75-9.38.22-3.05-.22-6.11-1.31-8.94ZM190.59,93.9c-.65,2.4-1.96,4.8-3.49,6.76-1.53,1.75-3.27,3.27-5.24,4.36-2.18,1.09-4.36,1.53-6.76,1.53-1.31,0-2.84-.22-3.93-.87-1.09-.65-1.96-1.53-2.4-2.84-.22-.87-.44-1.53-.65-2.4-.22-1.31-.22-2.4-.22-3.71v-25.31c-.22-1.96.44-3.93,1.75-5.45,1.53-1.31,3.49-1.96,5.45-1.75,2.4,0,4.58.44,6.54,1.53,1.96,1.09,3.93,2.62,5.24,4.36,1.53,1.96,2.84,4.15,3.49,6.54.87,2.62,1.31,5.45,1.31,8.29,0,3.05-.22,6.11-1.09,8.94ZM240.33,101.76l-1.53-3.05c-.22-.22-.22-.65-.44-.87l-15.27-35.34h-.87l-14.18,32.72c-.87,1.75-1.53,3.49-2.18,4.8-.65,1.09-1.31,2.4-2.18,3.49-.65.87-1.53,1.75-2.4,2.18-.87.65-1.75,1.09-2.84,1.31v1.09h16.36v-1.09c-1.96-.22-3.71-1.09-5.24-2.18-.65-1.09-1.31-2.4-1.31-3.93,0-1.75.44-3.49,1.31-5.02l1.75-4.15h16.36l3.49,8.29c.22.65.65,1.31.87,2.18.22.44.22.87.22,1.31,0,1.53-.87,2.84-2.18,3.05-.44.22-.87.22-1.31.44-.44,0-1.31.22-2.4.22v.87h20.29v-1.09c-1.31-.22-2.62-.87-3.71-1.75-1.31-.87-2.18-2.18-2.62-3.49ZM211.97,90.2l7.42-17.89,7.64,17.89h-15.05ZM145.65,101.76l-1.53-3.05c-.22-.44-.44-.65-.44-.87l-15.27-35.34h-.87l-13.96,32.72c-.87,1.75-1.53,3.49-2.18,4.8-.65,1.09-1.31,2.4-2.18,3.49-.65.87-1.53,1.75-2.4,2.18-.87.65-1.75,1.09-2.84,1.31v1.09h16.36v-1.09c-1.96-.22-3.71-1.09-5.24-2.18-1.09-1.09-1.75-2.62-1.75-4.15,0-1.75.44-3.49,1.31-5.02l1.75-4.15h16.36l3.49,8.29c.22.65.65,1.31.87,2.18.22.44.22.87.22,1.31,0,1.53-.87,2.62-2.18,3.05-.44.22-.87.22-1.31.44-.65,0-1.31.22-2.4.22v1.09h20.29v-1.09c-1.31-.22-2.62-.87-3.71-1.75-.87-.87-1.75-2.18-2.4-3.49ZM117.51,90.41l7.42-17.89,7.64,17.89h-15.05ZM97,100.23c-.22-.87-.22-1.53-.22-1.96v-1.09l-2.84-24.22v-2.4c-.22-1.53.44-3.05,1.31-4.36,1.31-1.09,2.84-1.75,4.58-1.96v-.87h-15.05c.44.65.65,1.53.87,2.18s.22,1.09.22,1.75c-.22,1.53-.44,3.05-1.31,4.58l-10.04,24.65-12.22-25.52c-.65-.87-.87-1.96-1.31-2.84-.22-.65-.22-1.31-.44-1.96,0-.44,0-.65.22-1.09s.22-.87.44-1.31q0-.22.22-.44h-15.27v1.09c1.31,0,2.84.44,3.93,1.09,1.09.65,1.96,1.96,2.62,3.27l-1.96,23.56c-.22,1.75-.44,3.27-.65,4.8-.22,1.09-.44,2.18-.87,3.27-.65,1.53-1.53,2.84-2.62,3.93-1.09,1.09-2.62,1.96-4.15,2.62v1.09h17.23v-1.09c-2.4-.44-4.58-1.53-6.11-3.49-1.31-2.18-1.96-4.8-1.75-7.42v-1.53c0-.65,0-1.31.22-1.96l1.75-22.25,17.23,35.78h.87l14.4-35.56,3.05,28.14c0,.65.22,1.31.22,1.53v1.09c0,1.31-.44,2.62-1.53,3.49-1.53,1.09-3.05,1.96-5.02,2.18v1.09h20.07v-1.09c-1.75-.22-3.27-.87-4.36-1.96-.87-1.31-1.53-3.05-1.75-4.8ZM238.86,174.78c-3.05,2.18-6.54,3.27-10.25,3.27-2.62,0-5.45-.65-7.85-1.75-2.4-1.09-4.58-2.84-6.33-4.8-1.75-2.18-3.27-4.58-4.15-7.42-1.09-2.84-1.53-6.11-1.53-9.16,0-2.84.44-5.45,1.31-8.07.87-2.4,2.18-4.58,3.93-6.33,1.53-1.75,3.71-3.27,5.89-4.15,2.4-1.09,4.8-1.53,7.42-1.53,1.75,0,3.27.22,4.8.65,1.53.44,2.84,1.09,4.15,1.96,1.31,1.09,2.62,2.18,3.71,3.71,1.31,1.75,2.4,3.49,3.49,5.45h1.09l-3.27-12h-3.27c-.65,0-1.75-.22-3.05-.44-1.09-.22-1.96-.44-2.62-.44-.65-.22-1.31-.22-1.96-.22s-1.09-.22-1.75-.22h-1.75c-3.49,0-6.98.65-10.25,1.75-3.05,1.09-5.67,2.84-8.07,5.02-4.8,4.36-7.42,10.47-7.42,17.02,0,3.49.65,6.98,2.18,10.25,1.31,3.05,3.49,5.89,6.11,7.85,4.36,3.49,10.04,5.45,15.71,5.24,4.8.22,9.6-1.09,13.74-3.71,3.93-2.84,6.98-6.76,8.51-11.13h-1.31c-1.31,3.49-3.93,6.76-7.2,9.16ZM188.02,140.09c-2.18-2.18-4.8-3.93-7.64-5.02-2.84-1.31-6.11-1.96-9.38-1.96-9.6,0-18.33,5.67-22.25,14.62h0c-1.31,2.84-1.96,6.11-1.96,9.16,0,3.27.65,6.33,1.96,9.38,1.31,2.84,3.05,5.45,5.24,7.42,2.18,2.18,4.8,3.93,7.64,5.02,3.05,1.31,6.11,1.96,9.38,1.96s6.33-.65,9.38-1.96c2.84-1.09,5.45-2.84,7.64-5.02,2.18-2.18,3.93-4.8,5.02-7.64,2.4-5.89,2.4-12.65,0-18.54-1.09-2.62-2.84-5.24-5.02-7.42ZM185.19,166.92c-.65,2.84-2.18,5.24-4.15,7.42-4.15,4.58-10.91,5.89-16.36,2.84-1.96-1.09-3.71-2.62-4.8-4.36-1.53-2.18-2.4-4.58-3.05-6.98h0c-.65-3.05-1.09-6.11-1.09-9.16s.44-6.11,1.09-9.16c.65-2.4,1.75-4.8,3.05-6.98,1.31-1.96,2.84-3.49,4.8-4.58,3.93-2.18,8.73-2.18,12.65,0,1.96,1.09,3.71,2.62,4.8,4.58,1.53,2.18,2.4,4.58,3.05,6.98.87,3.05,1.09,6.11,1.09,9.16.22,3.49-.22,6.98-1.09,10.25ZM297.54,147.73c-1.31-2.84-3.05-5.45-5.24-7.64-2.18-2.18-4.8-3.93-7.64-5.02-2.84-1.31-6.11-1.96-9.38-1.96-9.6,0-18.33,5.67-22.25,14.62-1.31,2.84-1.96,6.11-1.96,9.16,0,3.27.65,6.33,1.96,9.38,1.31,2.84,3.05,5.45,5.24,7.42,2.18,2.18,4.8,3.93,7.64,5.02,3.05,1.31,6.11,1.96,9.38,1.96s6.33-.65,9.38-1.96c2.84-1.09,5.45-2.84,7.64-5.02,2.18-2.18,3.93-4.8,5.02-7.64,1.31-2.84,1.96-6.11,1.96-9.16.22-3.27-.44-6.33-1.75-9.16ZM289.69,166.92c-.65,2.84-2.18,5.24-4.15,7.42-4.15,4.58-10.91,5.89-16.36,2.84-1.96-1.09-3.71-2.62-4.8-4.36-1.53-2.18-2.4-4.58-3.05-6.98h0c-.87-3.05-1.09-6.11-1.09-9.16s.44-6.11,1.09-9.16c.65-2.4,1.75-4.8,3.05-6.98,1.31-1.75,2.84-3.49,4.8-4.58,3.93-2.18,8.73-2.18,12.87,0,1.96,1.09,3.71,2.62,4.8,4.58,1.53,2.18,2.4,4.58,3.05,6.98.87,3.05,1.09,6.11,1.09,9.16,0,3.49-.44,6.98-1.31,10.25ZM302.07,100.23c-.22-.87-.22-1.53-.22-1.96v-1.09l-2.62-24.43v-2.18c-.22-1.53.44-3.05,1.31-4.36,1.31-1.09,2.84-1.75,4.58-1.96v-.87h-15.05c.44.65.65,1.53.87,2.18.22.65.22,1.09.22,1.75-.22,1.53-.44,3.05-1.31,4.58l-10.04,24.65-12.44-25.52c-.44-.87-.87-1.96-1.31-2.84-.22-.65-.22-1.31-.44-1.96v-1.09c.22-.44.22-.87.44-1.31q0-.22.22-.44h-15.27v1.09c1.31,0,2.84.44,3.93,1.09,1.09.87,2.18,1.96,2.84,3.27l-1.96,23.78c-.22,1.75-.44,3.27-.65,4.8-.22,1.09-.44,2.18-.87,3.27-.65,1.53-1.53,2.84-2.62,3.93-1.09,1.09-2.62,1.96-4.15,2.62v.87h17.23v-1.09c-2.4-.44-4.58-1.53-6.11-3.49-1.31-2.18-1.96-4.8-1.75-7.42v-1.53c0-.65,0-1.31.22-1.96l1.96-22.25,17.23,35.78h.87l14.4-35.56,3.05,28.14c0,.65.22,1.31.22,1.53v1.09c0,1.31-.44,2.62-1.53,3.49-1.53,1.09-3.05,1.96-5.02,2.18v1.09h20.07v-1.09c-1.75-.22-3.27-.87-4.36-1.96-1.09-1.31-1.75-3.05-1.96-4.8ZM354.87,94.99c-1.31,1.75-2.62,3.27-4.15,4.8-1.31,1.31-2.84,2.62-4.15,3.71-2.4,1.75-5.24,2.84-8.07,2.84h-2.84c-1.09,0-2.18,0-3.27-.44-.87-.22-1.53-.65-1.96-1.31-.65-.65-.87-1.53-1.09-2.4-.22-1.31-.22-2.62-.22-3.93v-14.18h4.36c1.31,0,2.84,0,4.15.44,1.09.22,1.96.65,2.84,1.31.87.65,1.31,1.53,1.75,2.4.44,1.31.87,2.62,1.09,3.93h.87v-16.36h-.87c-.22,1.09-.65,2.4-1.09,3.49-.44.87-1.09,1.75-1.96,2.18-.87.65-1.75,1.09-2.84,1.31-1.31.22-2.62.44-4.15.44h-4.15v-11.56c-.22-1.96.44-3.93,1.75-5.67,1.75-1.31,3.71-1.75,5.89-1.53h1.75c3.05-.22,6.11.87,8.51,2.62,2.4,2.18,4.15,5.24,4.8,8.29h1.09l-1.09-12.22h-36.65v1.09c1.75.22,3.49,1.09,4.58,2.4.65.65,1.09,1.53,1.09,2.4.22,1.31.44,2.84.22,4.15v24.87c0,1.31,0,2.62-.22,3.93-.22.87-.44,1.53-.87,2.4-1.31,1.53-3.05,2.4-5.02,2.62v1.09h37.31l3.71-13.31h-1.09v.22ZM134.36,174.78c-3.05,2.18-6.54,3.27-10.25,3.27-2.62,0-5.45-.65-7.85-1.75-2.4-1.09-4.58-2.84-6.33-4.8-1.75-2.18-3.27-4.58-4.15-7.42-1.09-2.84-1.53-6.11-1.53-9.16,0-2.84.44-5.45,1.31-8.07.87-2.4,2.18-4.58,3.93-6.33,1.53-1.75,3.71-3.27,5.89-4.15,2.4-1.09,4.8-1.53,7.42-1.53,1.75,0,3.27.22,4.8.65,1.53.44,2.84,1.09,4.15,1.96,1.31,1.09,2.62,2.18,3.71,3.71,1.31,1.75,2.4,3.49,3.49,5.45h1.09l-3.93-11.78h-3.27c-.65,0-1.75-.22-3.05-.44-1.09-.22-1.96-.44-2.62-.44-.65-.22-1.31-.22-1.96-.22s-1.09-.22-1.75-.22h-1.75c-3.49,0-6.98.65-10.25,1.75-3.05,1.09-5.67,2.84-8.07,5.02-4.8,4.36-7.42,10.47-7.42,17.02,0,3.49.65,6.98,2.18,10.25,1.31,3.05,3.49,5.89,6.11,7.85,8.73,6.33,20.29,6.98,29.45,1.31,3.93-2.84,6.98-6.76,8.51-11.13h-1.31c-.65,3.49-3.27,6.76-6.54,9.16Z"/>
    </g>
  </g>
</svg>