<svg width="538" height="440" viewBox="0 0 538 440" fill="none" xmlns="http://www.w3.org/2000/svg">
<path d="M316.542 13.4071C315.482 13.4071 314.617 12.544 314.617 11.4812C314.617 11.4344 314.619 11.3855 314.623 11.3387L310.172 8.16287C309.819 8.47535 309.373 8.64754 308.899 8.64754C307.838 8.64754 306.973 7.78448 306.973 6.72161C306.973 5.65874 307.836 4.79568 308.899 4.79568C309.377 4.79568 309.84 4.9785 310.195 5.29949L314.563 2.18314C314.553 2.09811 314.546 2.01096 314.546 1.92593C314.546 0.865179 315.409 0 316.472 0C317.535 0 318.398 0.863053 318.398 1.92593C318.398 2.9888 317.535 3.85185 316.472 3.85185C316.075 3.85185 315.686 3.72856 315.363 3.49898L310.824 6.65146C310.824 6.67484 310.824 6.69823 310.824 6.72161C310.824 6.75775 310.824 6.79176 310.82 6.82577L315.348 9.97188C315.688 9.70191 316.105 9.55523 316.54 9.55523C317.601 9.55523 318.466 10.4183 318.466 11.4812C318.466 12.544 317.603 13.4071 316.54 13.4071H316.542ZM310.129 7.65481L315.037 11.158L315.023 11.275C315.014 11.343 315.008 11.4131 315.008 11.4833C315.008 12.3293 315.696 13.0202 316.545 13.0202C317.393 13.0202 318.079 12.3315 318.079 11.4833C318.079 10.6351 317.391 9.94637 316.545 9.94637C316.156 9.94637 315.784 10.093 315.497 10.3609L315.382 10.4672L310.412 7.01496L310.425 6.90017C310.431 6.84278 310.435 6.78326 310.435 6.72161C310.435 6.67059 310.433 6.6217 310.427 6.57281L310.416 6.46014L315.378 3.01431L315.492 3.10784C315.767 3.3353 316.115 3.46072 316.472 3.46072C317.318 3.46072 318.009 2.77197 318.009 1.9238C318.009 1.07563 317.32 0.386886 316.472 0.386886C315.624 0.386886 314.935 1.07563 314.935 1.9238C314.935 2.02584 314.946 2.13 314.965 2.22991L314.991 2.3532L310.148 5.80967L310.031 5.68212C309.74 5.36326 309.328 5.18257 308.901 5.18257C308.055 5.18257 307.364 5.87131 307.364 6.71949C307.364 7.56766 308.052 8.2564 308.901 8.2564C309.326 8.2564 309.721 8.08634 310.014 7.77598L310.131 7.65269L310.129 7.65481Z" fill="#D0BEE6"/>
<path d="M61.9202 190.391H59.2078V188.724C59.0037 188.658 58.806 188.578 58.6147 188.484L57.4328 189.666L55.5155 187.749L56.6931 186.571C56.5974 186.382 56.5145 186.184 56.4465 185.98H54.7715V183.267H56.4465C56.5124 183.066 56.5932 182.872 56.6888 182.685L55.4963 181.492L57.4137 179.575L58.6083 180.77C58.7911 180.678 58.9825 180.6 59.1801 180.534V178.831H61.8925V180.534C62.086 180.598 62.2751 180.676 62.458 180.765L63.6696 179.554L65.587 181.471L64.3817 182.677C64.4731 182.857 64.5539 183.046 64.6177 183.24H66.3288V185.952H64.6347C64.5709 186.15 64.4922 186.341 64.403 186.526L65.604 187.727L63.6866 189.645L62.5005 188.459C62.3134 188.554 62.1178 188.637 61.9202 188.705V190.389V190.391ZM59.5968 190.002H61.5312V188.42L61.6693 188.378C61.9372 188.297 62.1965 188.186 62.4409 188.05L62.5685 187.978L63.6866 189.096L65.0534 187.729L63.9247 186.601L63.9927 186.473C64.1224 186.231 64.2265 185.974 64.303 185.706L64.3434 185.565H65.9398V183.631H64.3307L64.2882 183.493C64.2095 183.231 64.1032 182.976 63.9693 182.738L63.8992 182.611L65.0343 181.475L63.6675 180.109L62.5281 181.248L62.4006 181.18C62.1625 181.05 61.9074 180.946 61.6417 180.868L61.5014 180.827V179.224H59.567V180.827L59.4267 180.868C59.1589 180.946 58.9017 181.052 58.6615 181.182L58.5339 181.252L57.4095 180.128L56.0405 181.495L57.1629 182.617L57.0927 182.745C56.9588 182.987 56.8504 183.248 56.7718 183.52L56.7314 183.661H55.1562V185.595H56.7314L56.7718 185.735C56.8525 186.008 56.9609 186.271 57.097 186.518L57.1671 186.645L56.0618 187.751L57.4307 189.118L58.5424 188.006L58.67 188.076C58.9166 188.21 59.1802 188.316 59.4544 188.395L59.5947 188.435V190.002H59.5968ZM60.5363 186.837C59.3183 186.837 58.3256 185.846 58.3256 184.626C58.3256 183.406 59.3162 182.415 60.5363 182.415C61.7565 182.415 62.747 183.406 62.747 184.626C62.747 185.846 61.7565 186.837 60.5363 186.837ZM60.5363 182.806C59.533 182.806 58.7146 183.622 58.7146 184.628C58.7146 185.633 59.5309 186.45 60.5363 186.45C61.5418 186.45 62.358 185.633 62.358 184.628C62.358 183.622 61.5418 182.806 60.5363 182.806Z" fill="#D0BEE6"/>
<path d="M51.8718 192.476H49.9736V191.311C49.8312 191.265 49.6909 191.209 49.5591 191.143L48.7322 191.97L47.3909 190.629L48.2136 189.806C48.1455 189.675 48.0881 189.534 48.0414 189.394H46.8701V187.496H48.0414C48.0881 187.355 48.1434 187.219 48.2114 187.088L47.376 186.254L48.7173 184.913L49.5527 185.748C49.6803 185.685 49.8142 185.629 49.9524 185.583V184.392H51.8506V185.583C51.9866 185.627 52.1184 185.682 52.246 185.744L53.0941 184.896L54.4354 186.237L53.5915 187.079C53.6553 187.207 53.7106 187.338 53.7573 187.472H54.9541V189.371H53.7701C53.7254 189.509 53.6702 189.643 53.6085 189.772L54.4503 190.614L53.109 191.955L52.2779 191.126C52.1461 191.194 52.01 191.252 51.8718 191.299V192.476ZM50.2457 192.204H51.5998V191.099L51.6975 191.069C51.8846 191.012 52.0674 190.935 52.2375 190.839L52.3267 190.788L53.109 191.571L54.0656 190.614L53.2748 189.823L53.3216 189.734C53.413 189.564 53.4852 189.385 53.5384 189.198L53.566 189.101H54.682V187.747H53.5554L53.5256 187.649C53.4704 187.466 53.396 187.287 53.3024 187.119L53.2535 187.03L54.0464 186.237L53.0899 185.281L52.2927 186.078L52.2035 186.029C52.0377 185.94 51.8591 185.865 51.672 185.81L51.5743 185.78V184.66H50.2202V185.78L50.1224 185.81C49.9354 185.865 49.7547 185.94 49.5867 186.031L49.4975 186.08L48.711 185.293L47.7544 186.25L48.5388 187.034L48.4899 187.124C48.3964 187.294 48.3198 187.477 48.2646 187.666L48.2348 187.764H47.1337V189.118H48.2348L48.2646 189.215C48.3198 189.407 48.3964 189.59 48.492 189.762L48.5409 189.851L47.7672 190.625L48.7237 191.581L49.5017 190.803L49.591 190.852C49.7632 190.946 49.9481 191.02 50.1394 191.075L50.2372 191.103V192.2L50.2457 192.204ZM50.9025 189.989C50.0501 189.989 49.355 189.296 49.355 188.442C49.355 187.587 50.048 186.894 50.9025 186.894C51.7571 186.894 52.4479 187.587 52.4479 188.442C52.4479 189.296 51.7549 189.989 50.9025 189.989ZM50.9025 187.168C50.1989 187.168 49.6293 187.74 49.6293 188.442C49.6293 189.143 50.2011 189.715 50.9025 189.715C51.604 189.715 52.1758 189.143 52.1758 188.442C52.1758 187.74 51.604 187.168 50.9025 187.168Z" fill="#D0BEE6"/>
<path d="M409.261 16.3043V9.11073C409.261 8.96831 409.376 8.85352 409.518 8.85352H420.971C421.114 8.85352 421.228 8.96831 421.228 9.11073V16.3043C421.228 16.4467 421.114 16.5615 420.971 16.5615H409.518C409.376 16.5615 409.261 16.4467 409.261 16.3043ZM420.714 9.36795H409.773V16.0492H420.714V9.36795Z" fill="#D0BEE6"/>
<path d="M415.159 12.7713L409.386 9.33181C409.286 9.27229 409.239 9.15537 409.269 9.04271C409.298 8.93217 409.4 8.85352 409.515 8.85352H420.968C421.083 8.85352 421.185 8.93004 421.215 9.04058C421.245 9.15112 421.2 9.27016 421.1 9.32968L415.42 12.7691C415.38 12.7947 415.333 12.8053 415.289 12.8053C415.244 12.8053 415.197 12.7925 415.157 12.7691L415.159 12.7713ZM410.448 9.36795L415.291 12.2526L420.052 9.36795H410.448Z" fill="#D0BEE6"/>
<path d="M439.402 31.5013C438.341 31.5013 437.476 30.6383 437.476 29.5754C437.476 29.5286 437.478 29.4797 437.482 29.433L433.031 26.2571C432.678 26.5696 432.232 26.7418 431.758 26.7418C430.697 26.7418 429.832 25.8787 429.832 24.8158C429.832 23.753 430.695 22.8899 431.758 22.8899C432.236 22.8899 432.7 23.0727 433.055 23.3937L437.423 20.2774C437.412 20.1923 437.406 20.1052 437.406 20.0202C437.406 18.9594 438.269 18.0942 439.332 18.0942C440.395 18.0942 441.258 18.9573 441.258 20.0202C441.258 21.083 440.395 21.9461 439.332 21.9461C438.934 21.9461 438.545 21.8228 438.222 21.5932L433.684 24.7457C433.684 24.7691 433.684 24.7925 433.684 24.8158C433.684 24.852 433.684 24.886 433.679 24.92L438.207 28.0661C438.547 27.7961 438.964 27.6495 439.4 27.6495C440.46 27.6495 441.326 28.5125 441.326 29.5754C441.326 30.6383 440.463 31.5013 439.4 31.5013H439.402ZM432.989 25.7491L437.897 29.2523L437.882 29.3692C437.873 29.4372 437.867 29.5074 437.867 29.5775C437.867 30.4236 438.556 31.1144 439.404 31.1144C440.252 31.1144 440.939 30.4257 440.939 29.5775C440.939 28.7293 440.25 28.0406 439.404 28.0406C439.015 28.0406 438.643 28.1873 438.356 28.4551L438.241 28.5614L433.271 25.1092L433.284 24.9944C433.291 24.937 433.295 24.8775 433.295 24.8158C433.295 24.7648 433.293 24.7159 433.286 24.667L433.276 24.5544L438.237 21.1085L438.352 21.2021C438.626 21.4295 438.975 21.555 439.332 21.555C440.178 21.555 440.869 20.8662 440.869 20.018C440.869 19.1699 440.18 18.4811 439.332 18.4811C438.484 18.4811 437.795 19.1699 437.795 20.018C437.795 20.1201 437.805 20.2242 437.825 20.3241L437.85 20.4474L433.008 23.9039L432.891 23.7764C432.6 23.4575 432.187 23.2768 431.76 23.2768C430.914 23.2768 430.223 23.9655 430.223 24.8137C430.223 25.6619 430.912 26.3506 431.76 26.3506C432.185 26.3506 432.581 26.1806 432.874 25.8702L432.991 25.7469L432.989 25.7491Z" fill="#D0BEE6"/>
<path d="M385.402 52.4441L385.23 52.5993C385.145 52.5037 385.16 52.3655 385.253 52.2805C385.349 52.1954 385.502 52.2103 385.587 52.306C386.191 52.9756 386.841 53.6091 387.519 54.1894C387.617 54.2723 387.628 54.419 387.545 54.5168C387.462 54.6145 387.315 54.6252 387.218 54.5423C386.522 53.9471 385.859 53.3008 385.241 52.6163L385.4 52.4463L385.402 52.4441ZM383.506 50.4183C382.981 49.6552 382.501 48.8516 382.082 48.029C382.025 47.9142 382.069 47.776 382.182 47.7165C382.297 47.6591 382.435 47.7016 382.494 47.8164C382.905 48.6221 383.374 49.4065 383.889 50.1526C383.961 50.2589 383.936 50.4034 383.829 50.4757C383.731 50.5416 383.602 50.5246 383.525 50.4396C383.519 50.4332 383.512 50.4247 383.506 50.4162V50.4183ZM389.379 55.8879C389.45 55.7816 389.592 55.7497 389.7 55.8198C390.459 56.313 391.258 56.7615 392.075 57.1506C392.19 57.2058 392.238 57.344 392.183 57.4588C392.128 57.5736 391.99 57.6225 391.875 57.5693C391.04 57.1718 390.223 56.7126 389.447 56.2088C389.43 56.1982 389.416 56.1833 389.401 56.1706C389.333 56.0941 389.32 55.9793 389.379 55.89V55.8879ZM380.981 45.4738C380.673 44.6023 380.42 43.7031 380.226 42.7975C380.199 42.6721 380.279 42.5488 380.405 42.5233C380.53 42.4978 380.653 42.5764 380.679 42.7018C380.866 43.5862 381.115 44.4683 381.417 45.3186C381.459 45.4398 381.395 45.5716 381.276 45.6141C381.185 45.646 381.087 45.6184 381.028 45.5504C381.008 45.5291 380.991 45.5015 380.981 45.4717V45.4738ZM394.311 58.307C394.351 58.1858 394.481 58.1178 394.602 58.1582C395.463 58.4366 396.349 58.662 397.24 58.8256C397.366 58.849 397.448 58.9702 397.425 59.0956C397.402 59.221 397.281 59.3039 397.155 59.2805C396.245 59.1126 395.338 58.883 394.458 58.5982C394.417 58.5854 394.383 58.562 394.358 58.5323C394.305 58.4728 394.283 58.3877 394.309 58.3048L394.311 58.307ZM379.827 40.0468C379.754 39.1242 379.742 38.1889 379.788 37.2663C379.795 37.1388 379.903 37.041 380.031 37.0474C380.158 37.0537 380.256 37.1622 380.25 37.2918C380.203 38.1953 380.216 39.1115 380.286 40.0128C380.296 40.1403 380.201 40.253 380.073 40.2615C379.999 40.2679 379.929 40.2381 379.882 40.185C379.848 40.1488 379.827 40.1021 379.822 40.0489L379.827 40.0468ZM399.7 59.3635C399.706 59.2359 399.814 59.1381 399.944 59.1445C400.847 59.1913 401.764 59.1806 402.665 59.1105C402.792 59.0999 402.905 59.1955 402.914 59.3231C402.924 59.4506 402.829 59.5611 402.701 59.5718C401.781 59.6441 400.843 59.6547 399.921 59.6058C399.857 59.6015 399.799 59.5739 399.761 59.5293C399.721 59.4846 399.697 59.4251 399.702 59.3613L399.7 59.3635ZM380.111 34.5028C380.279 33.593 380.507 32.6832 380.792 31.8053C380.83 31.6841 380.962 31.6161 381.083 31.6565C381.204 31.6969 381.272 31.8265 381.232 31.9477C380.953 32.8086 380.73 33.6951 380.566 34.5879C380.543 34.7133 380.422 34.7962 380.296 34.7749C380.243 34.7643 380.199 34.7388 380.167 34.7027C380.12 34.6516 380.097 34.5794 380.111 34.505V34.5028ZM405.175 58.9978C405.15 58.8724 405.228 58.7491 405.354 58.7236C406.24 58.5365 407.12 58.29 407.973 57.9881C408.094 57.9456 408.226 58.0094 408.268 58.1305C408.311 58.2517 408.247 58.3835 408.126 58.426C407.254 58.7342 406.355 58.9851 405.45 59.1764C405.365 59.1934 405.284 59.1636 405.228 59.1041C405.203 59.0744 405.182 59.0382 405.173 58.9978H405.175ZM381.816 29.2182C382.214 28.3828 382.671 27.5644 383.175 26.7885C383.245 26.6801 383.387 26.6503 383.496 26.7205C383.602 26.7885 383.634 26.9331 383.564 27.0415C383.07 27.8004 382.624 28.5996 382.235 29.4181C382.18 29.5329 382.042 29.5817 381.927 29.5286C381.899 29.5158 381.874 29.4967 381.854 29.4755C381.793 29.4074 381.776 29.3075 381.816 29.2204V29.2182ZM410.37 57.2292C410.313 57.1144 410.358 56.9762 410.473 56.9167C411.278 56.5064 412.065 56.0388 412.811 55.5244C412.917 55.4521 413.059 55.4776 413.134 55.5839C413.206 55.6902 413.181 55.8347 413.074 55.907C412.311 56.432 411.508 56.9103 410.685 57.3291C410.589 57.378 410.477 57.3546 410.409 57.2781C410.396 57.2632 410.383 57.2462 410.375 57.2271L410.37 57.2292ZM384.839 24.5607C385.438 23.8592 386.091 23.1896 386.78 22.5689L386.846 22.5094C386.941 22.4244 387.092 22.4371 387.173 22.5285C387.258 22.6242 387.249 22.7709 387.154 22.8559L387.09 22.9133C386.416 23.5212 385.778 24.1781 385.192 24.8626C385.109 24.9604 384.962 24.971 384.864 24.8881C384.856 24.8817 384.85 24.8753 384.843 24.8668C384.767 24.7818 384.762 24.65 384.839 24.5607ZM414.979 53.811C415.642 53.2115 416.271 52.5674 416.85 51.8936C416.932 51.7958 417.079 51.7852 417.177 51.8681C417.273 51.951 417.285 52.0977 417.202 52.1954C416.612 52.8842 415.97 53.5432 415.291 54.1533L415.26 54.183C415.164 54.268 415.034 54.2468 414.949 54.1511C414.864 54.0555 414.888 53.8939 414.983 53.8089L414.979 53.811ZM388.971 21.1128C388.899 21.0065 388.927 20.8619 389.031 20.7897C389.796 20.2667 390.6 19.7884 391.424 19.3718C391.539 19.3144 391.679 19.3612 391.737 19.4738C391.794 19.5886 391.75 19.7268 391.635 19.7863C390.829 20.1944 390.043 20.6621 389.294 21.1723C389.197 21.2382 389.069 21.2212 388.99 21.1362C388.984 21.1276 388.978 21.1213 388.971 21.1128ZM418.48 49.7168C418.975 48.9579 419.424 48.1608 419.813 47.3424C419.868 47.2276 420.006 47.1787 420.121 47.2339C420.236 47.2892 420.285 47.4274 420.229 47.5422C419.83 48.3776 419.373 49.1939 418.867 49.9698C418.797 50.0761 418.654 50.108 418.546 50.0378C418.529 50.0272 418.514 50.0144 418.501 49.9995C418.433 49.923 418.42 49.8082 418.48 49.7168ZM393.841 18.5768C393.799 18.4556 393.862 18.3238 393.984 18.2813C394.855 17.9752 395.756 17.7243 396.662 17.5351C396.787 17.5096 396.911 17.5904 396.936 17.7137C396.962 17.8391 396.881 17.9624 396.758 17.9879C395.873 18.1729 394.991 18.4173 394.139 18.7171C394.047 18.7489 393.952 18.7213 393.89 18.6533C393.871 18.632 393.854 18.6044 393.843 18.5746L393.841 18.5768ZM420.822 44.817C421.101 43.9582 421.328 43.0696 421.494 42.1789C421.518 42.0535 421.639 41.9706 421.764 41.994C421.89 42.0174 421.972 42.1385 421.949 42.2639C421.779 43.1738 421.549 44.0815 421.262 44.9594C421.222 45.0806 421.092 45.1486 420.971 45.1082C420.931 45.0954 420.897 45.0721 420.871 45.0423C420.818 44.9828 420.797 44.8977 420.822 44.8148V44.817ZM399.2 17.3948C399.189 17.2673 399.285 17.1568 399.415 17.1461C400.337 17.076 401.273 17.0675 402.195 17.1164C402.323 17.1227 402.42 17.2333 402.414 17.3608C402.408 17.4884 402.297 17.5862 402.17 17.5798C401.266 17.5309 400.35 17.5394 399.449 17.6074C399.374 17.6138 399.306 17.5819 399.26 17.5309C399.226 17.4947 399.204 17.4459 399.2 17.3927V17.3948ZM421.815 39.4771C421.864 38.5737 421.853 37.6596 421.783 36.7561C421.773 36.6286 421.868 36.5181 421.996 36.5074C422.123 36.4968 422.234 36.5925 422.245 36.72C422.315 37.6426 422.325 38.5779 422.276 39.5005C422.27 39.628 422.16 39.7258 422.032 39.7194C421.968 39.7152 421.913 39.6875 421.873 39.6429C421.832 39.5983 421.809 39.5387 421.813 39.475L421.815 39.4771ZM421.401 34.0628C421.214 33.1764 420.969 32.2963 420.669 31.4439C420.627 31.3227 420.691 31.1909 420.812 31.1484C420.933 31.1059 421.065 31.1697 421.107 31.2908C421.413 32.1624 421.666 33.0637 421.856 33.9672C421.881 34.0926 421.802 34.2159 421.677 34.2414C421.594 34.2584 421.511 34.2286 421.458 34.1691C421.433 34.1393 421.411 34.1032 421.403 34.0607L421.401 34.0628ZM419.598 28.9419C419.188 28.1362 418.722 27.3497 418.208 26.6036C418.136 26.4973 418.163 26.3527 418.267 26.2805C418.374 26.2082 418.518 26.2337 418.591 26.34C419.113 27.1031 419.592 27.9088 420.01 28.7314C420.068 28.8462 420.023 28.9844 419.908 29.0439C419.813 29.0928 419.7 29.0694 419.632 28.9929C419.619 28.978 419.607 28.961 419.598 28.9419ZM414.558 22.233C414.641 22.1353 414.788 22.1246 414.885 22.2075C415.568 22.7942 416.22 23.432 416.826 24.1037L416.871 24.1526C416.956 24.2482 416.947 24.3949 416.854 24.48C416.758 24.565 416.612 24.5586 416.526 24.4629L416.482 24.4141C415.889 23.7572 415.249 23.1322 414.581 22.5583C414.573 22.5519 414.567 22.5455 414.56 22.537C414.484 22.452 414.479 22.3202 414.556 22.2309L414.558 22.233Z" fill="#D0BEE6"/>
<path d="M114.354 19.995C114.339 19.995 114.326 19.995 114.311 19.9907C110.759 19.3934 104.657 14.0811 103.881 10.1017C103.864 10.0146 103.893 9.92316 103.959 9.86364L106.61 7.43392C106.714 7.33826 106.874 7.34463 106.971 7.4488L109.212 9.84664C109.301 9.9423 109.303 10.0932 109.216 10.191L108.115 11.4367C108.338 12.051 109.463 14.6785 112.69 15.8497L113.869 14.8124C113.971 14.7231 114.122 14.7274 114.218 14.823L116.679 17.2527C116.777 17.3505 116.781 17.5078 116.686 17.6099L114.541 19.912C114.492 19.9652 114.424 19.9928 114.354 19.9928V19.995ZM104.412 10.1421C105.245 13.8175 110.946 18.796 114.263 19.4614L116.142 17.4441L114.029 15.3566L112.915 16.3344C112.847 16.3961 112.749 16.4131 112.662 16.3833C108.638 14.9994 107.618 11.5919 107.577 11.4473C107.554 11.3623 107.573 11.273 107.633 11.2071L108.676 10.0252L106.769 7.98236L104.414 10.1421H104.412Z" fill="#D0BEE6"/>
<path d="M113.313 10.3825C113.192 10.3825 113.088 10.2996 113.062 10.1806C113.037 10.0594 113.1 9.93823 113.213 9.88934C113.253 9.87234 114.199 9.44506 114.578 7.97404C112.926 7.11737 111.984 5.87593 111.984 4.54096C111.984 2.05172 115.326 0.0258789 119.435 0.0258789C123.544 0.0258789 126.885 2.05172 126.885 4.54096C126.885 7.03021 123.544 9.05605 119.435 9.05605C118.886 9.05605 118.336 9.01991 117.798 8.94764C116.455 9.84895 114.95 10.3315 113.321 10.3825C113.319 10.3825 113.315 10.3825 113.313 10.3825ZM119.433 0.538184C115.609 0.538184 112.497 2.33444 112.497 4.54096C112.497 5.71863 113.404 6.83464 114.986 7.60416C115.092 7.65518 115.15 7.7721 115.124 7.88689C114.928 8.81159 114.531 9.41743 114.17 9.79794C115.4 9.63 116.548 9.18572 117.59 8.46934C117.643 8.43321 117.707 8.41833 117.77 8.42683C118.317 8.50548 118.876 8.54375 119.433 8.54375C123.257 8.54375 126.369 6.74749 126.369 4.54096C126.369 2.33444 123.257 0.538184 119.433 0.538184Z" fill="#D0BEE6"/>
<path d="M115.807 5.73349C115.143 5.73349 114.604 5.19355 114.604 4.53032C114.604 3.86709 115.143 3.32715 115.807 3.32715C116.47 3.32715 117.01 3.86709 117.01 4.53032C117.01 5.19355 116.47 5.73349 115.807 5.73349ZM115.807 3.83945C115.426 3.83945 115.116 4.14981 115.116 4.53032C115.116 4.91083 115.426 5.22119 115.807 5.22119C116.187 5.22119 116.497 4.91083 116.497 4.53032C116.497 4.14981 116.187 3.83945 115.807 3.83945Z" fill="#D0BEE6"/>
<path d="M119.675 5.73349C119.012 5.73349 118.472 5.19355 118.472 4.53032C118.472 3.86709 119.012 3.32715 119.675 3.32715C120.338 3.32715 120.878 3.86709 120.878 4.53032C120.878 5.19355 120.338 5.73349 119.675 5.73349ZM119.675 3.83945C119.294 3.83945 118.984 4.14981 118.984 4.53032C118.984 4.91083 119.294 5.22119 119.675 5.22119C120.055 5.22119 120.366 4.91083 120.366 4.53032C120.366 4.14981 120.055 3.83945 119.675 3.83945Z" fill="#D0BEE6"/>
<path d="M123.546 5.73349C122.883 5.73349 122.343 5.19355 122.343 4.53032C122.343 3.86709 122.883 3.32715 123.546 3.32715C124.209 3.32715 124.749 3.86709 124.749 4.53032C124.749 5.19355 124.209 5.73349 123.546 5.73349ZM123.546 3.83945C123.165 3.83945 122.855 4.14981 122.855 4.53032C122.855 4.91083 123.165 5.22119 123.546 5.22119C123.926 5.22119 124.237 4.91083 124.237 4.53032C124.237 4.14981 123.926 3.83945 123.546 3.83945Z" fill="#D0BEE6"/>
<path d="M140.083 53.6965C139.464 54.381 138.801 55.0293 138.106 55.6224C138.008 55.7053 137.861 55.6947 137.778 55.5969C137.696 55.4991 137.706 55.3524 137.804 55.2695C138.484 54.6871 139.132 54.0536 139.736 53.3861C139.821 53.2905 139.976 53.2756 140.07 53.3606C140.166 53.4456 140.18 53.5838 140.093 53.6795L139.921 53.5243L140.081 53.6944L140.083 53.6965ZM141.802 51.524C141.726 51.609 141.596 51.626 141.498 51.5601C141.392 51.4878 141.367 51.3433 141.439 51.237C141.953 50.4909 142.421 49.7065 142.833 48.9008C142.893 48.786 143.031 48.7414 143.146 48.8009C143.261 48.8583 143.305 48.9986 143.246 49.1134C142.825 49.936 142.347 50.7396 141.821 51.5027C141.815 51.5112 141.809 51.5197 141.802 51.5261V51.524ZM135.925 57.2507C135.912 57.2656 135.897 57.2784 135.878 57.289C135.102 57.7928 134.286 58.252 133.448 58.6495C133.334 58.7047 133.195 58.6558 133.14 58.5389C133.085 58.4241 133.136 58.2838 133.249 58.2307C134.065 57.8417 134.864 57.3932 135.623 56.9C135.731 56.8298 135.874 56.8596 135.944 56.968C136.003 57.0573 135.991 57.1742 135.923 57.2486L135.925 57.2507ZM144.298 46.6326C144.236 46.7006 144.138 46.7283 144.049 46.6964C143.928 46.6539 143.866 46.5221 143.909 46.4009C144.211 45.5485 144.459 44.6684 144.647 43.7841C144.672 43.6587 144.795 43.58 144.921 43.6056C145.046 43.6311 145.127 43.7544 145.099 43.8798C144.908 44.7853 144.653 45.6845 144.345 46.5561C144.334 46.5859 144.319 46.6114 144.298 46.6347V46.6326ZM130.966 59.6146C130.94 59.6443 130.906 59.6656 130.866 59.6805C129.986 59.9653 129.078 60.1949 128.168 60.3628C128.043 60.3862 127.922 60.3033 127.898 60.1779C127.875 60.0525 127.958 59.9313 128.083 59.9079C128.974 59.7442 129.862 59.5189 130.721 59.2404C130.842 59.2 130.974 59.2681 131.012 59.3892C131.038 59.47 131.017 59.5572 130.963 59.6167L130.966 59.6146ZM145.439 41.2651C145.393 41.3161 145.325 41.3459 145.248 41.3416C145.121 41.331 145.025 41.2205 145.036 41.0929C145.106 40.1916 145.118 39.2754 145.072 38.372C145.065 38.2444 145.163 38.136 145.291 38.1275C145.418 38.1211 145.527 38.2189 145.533 38.3465C145.58 39.2712 145.567 40.2065 145.495 41.1269C145.49 41.1801 145.469 41.2269 145.435 41.263L145.439 41.2651ZM125.566 60.6137C125.526 60.6583 125.471 60.6859 125.407 60.6902C124.482 60.7391 123.547 60.7263 122.627 60.6562C122.499 60.6455 122.403 60.535 122.414 60.4075C122.425 60.2799 122.535 60.1843 122.663 60.1949C123.564 60.265 124.48 60.2757 125.384 60.2289C125.511 60.2225 125.62 60.3203 125.628 60.4479C125.632 60.5116 125.609 60.5711 125.569 60.6158L125.566 60.6137ZM145.157 35.7828C145.125 35.819 145.078 35.8466 145.027 35.8551C144.902 35.8785 144.78 35.7956 144.757 35.668C144.593 34.7773 144.37 33.8888 144.092 33.0278C144.051 32.9067 144.119 32.7749 144.241 32.7366C144.362 32.6984 144.493 32.7643 144.532 32.8854C144.817 33.7655 145.044 34.6732 145.212 35.583C145.225 35.6574 145.203 35.7275 145.157 35.7807V35.7828ZM120.093 60.1885C120.04 60.248 119.957 60.2778 119.872 60.2608C118.966 60.0695 118.067 59.8165 117.195 59.5104C117.074 59.4679 117.011 59.3361 117.053 59.2149C117.096 59.0937 117.227 59.03 117.348 59.0725C118.201 59.3722 119.081 59.6209 119.967 59.808C120.093 59.8335 120.174 59.9568 120.146 60.0822C120.137 60.1247 120.118 60.1609 120.091 60.1885H120.093ZM143.469 30.5556C143.45 30.5769 143.424 30.596 143.397 30.6087C143.282 30.664 143.144 30.6151 143.088 30.4982C142.699 29.6798 142.253 28.8805 141.76 28.1216C141.69 28.0132 141.722 27.8687 141.828 27.8006C141.936 27.7305 142.079 27.7624 142.149 27.8687C142.653 28.6446 143.11 29.463 143.507 30.2984C143.55 30.3855 143.531 30.4855 143.469 30.5535V30.5556ZM114.917 58.3604C114.849 58.4369 114.734 58.4603 114.64 58.4114C113.818 57.9905 113.012 57.5122 112.251 56.9893C112.145 56.917 112.119 56.7724 112.192 56.6661C112.264 56.5599 112.408 56.5344 112.515 56.6066C113.261 57.1189 114.047 57.5887 114.853 57.999C114.968 58.0564 115.012 58.1967 114.955 58.3115C114.946 58.3306 114.934 58.3476 114.921 58.3625L114.917 58.3604ZM140.478 25.947C140.478 25.947 140.465 25.9619 140.457 25.9682C140.359 26.0511 140.212 26.0405 140.129 25.9427C139.543 25.2582 138.905 24.6014 138.231 23.9934L138.167 23.936C138.072 23.851 138.063 23.7043 138.148 23.6087C138.229 23.5173 138.38 23.5045 138.476 23.5895L138.542 23.6491C139.23 24.2698 139.883 24.9415 140.482 25.6409C140.559 25.7302 140.555 25.862 140.478 25.947ZM110.376 55.2355C110.291 55.3312 110.159 55.3524 110.066 55.2674L110.034 55.2376C109.356 54.6254 108.714 53.9664 108.123 53.2777C108.04 53.1799 108.053 53.0332 108.149 52.9503C108.246 52.8674 108.393 52.8781 108.476 52.9758C109.054 53.6497 109.681 54.2938 110.346 54.8933C110.442 54.9783 110.466 55.1399 110.381 55.2355H110.376ZM136.331 22.2205C136.254 22.3056 136.125 22.3226 136.027 22.2567C135.279 21.7444 134.492 21.2788 133.686 20.8707C133.572 20.8133 133.527 20.673 133.584 20.5582C133.642 20.4456 133.782 20.3988 133.897 20.4562C134.722 20.8728 135.525 21.3511 136.29 21.8741C136.397 21.9463 136.422 22.0909 136.35 22.1972C136.344 22.2057 136.337 22.2142 136.331 22.2205ZM106.82 51.0839C106.807 51.0988 106.792 51.1116 106.775 51.1222C106.669 51.1923 106.525 51.1626 106.454 51.0542C105.948 50.2783 105.489 49.462 105.092 48.6266C105.037 48.5118 105.088 48.3715 105.2 48.3183C105.315 48.2631 105.453 48.312 105.508 48.4268C105.897 49.243 106.346 50.0423 106.841 50.8012C106.901 50.8905 106.888 51.0074 106.82 51.0839ZM131.435 19.7398C131.374 19.8078 131.278 19.8355 131.187 19.8036C130.334 19.5038 129.452 19.2594 128.568 19.0744C128.442 19.0489 128.362 18.9256 128.389 18.8002C128.415 18.6748 128.538 18.594 128.663 18.6217C129.569 18.8109 130.47 19.0617 131.342 19.3678C131.463 19.4103 131.527 19.5421 131.484 19.6633C131.474 19.693 131.457 19.7207 131.438 19.7419L131.435 19.7398ZM104.452 46.1267C104.426 46.1565 104.392 46.1777 104.352 46.1926C104.231 46.233 104.099 46.165 104.061 46.0438C103.776 45.1659 103.544 44.2582 103.374 43.3483C103.351 43.2229 103.434 43.1018 103.559 43.0784C103.685 43.055 103.806 43.1379 103.829 43.2633C103.995 44.154 104.22 45.0426 104.501 45.9014C104.526 45.9843 104.505 46.0693 104.452 46.1288V46.1267ZM126.064 18.6153C126.017 18.6663 125.949 18.6961 125.875 18.6918C124.973 18.6238 124.057 18.6132 123.154 18.6642C123.026 18.6706 122.918 18.5728 122.909 18.4452C122.903 18.3177 123.001 18.2071 123.128 18.2008C124.051 18.1497 124.986 18.1604 125.909 18.2305C126.036 18.2412 126.132 18.3517 126.121 18.4792C126.117 18.5324 126.096 18.5791 126.062 18.6174L126.064 18.6153ZM103.449 40.7273C103.408 40.7719 103.353 40.7996 103.289 40.8038C103.162 40.8102 103.051 40.7124 103.045 40.5849C102.996 39.6623 103.007 38.727 103.077 37.8044C103.087 37.6769 103.198 37.5812 103.325 37.5918C103.453 37.6025 103.549 37.713 103.538 37.8405C103.47 38.744 103.459 39.658 103.506 40.5615C103.51 40.6253 103.487 40.6848 103.447 40.7294L103.449 40.7273ZM103.87 35.2535C103.816 35.313 103.733 35.3428 103.651 35.3258C103.525 35.3003 103.444 35.177 103.472 35.0516C103.661 34.146 103.914 33.2447 104.22 32.3752C104.263 32.2541 104.395 32.1903 104.516 32.2328C104.637 32.2753 104.701 32.4071 104.658 32.5283C104.358 33.3807 104.112 34.2608 103.927 35.1472C103.918 35.1897 103.899 35.2259 103.872 35.2556L103.87 35.2535ZM105.691 30.0773C105.623 30.1538 105.511 30.1772 105.415 30.1283C105.3 30.0709 105.255 29.9306 105.313 29.8158C105.732 28.9932 106.21 28.1875 106.733 27.4244C106.805 27.3181 106.95 27.2926 107.056 27.3649C107.162 27.4371 107.188 27.5817 107.115 27.688C106.603 28.4341 106.136 29.2228 105.725 30.0263C105.717 30.0454 105.704 30.0624 105.691 30.0773ZM110.763 23.6235C110.763 23.6235 110.75 23.6384 110.742 23.6448C110.074 24.2188 109.435 24.8437 108.842 25.5006L108.797 25.5495C108.712 25.6451 108.565 25.6536 108.47 25.5665C108.374 25.4814 108.365 25.3348 108.453 25.2391L108.497 25.1902C109.103 24.5185 109.758 23.8808 110.438 23.2941C110.536 23.2111 110.682 23.2218 110.765 23.3196C110.842 23.4088 110.84 23.5406 110.761 23.6257L110.763 23.6235Z" fill="#D0BEE6"/>
<path d="M255.755 17.956C252.15 17.956 249.217 15.0225 249.217 11.4172C249.217 7.81195 252.15 4.87842 255.755 4.87842C259.361 4.87842 262.294 7.81195 262.294 11.4172C262.294 15.0225 259.361 17.956 255.755 17.956ZM255.755 5.3971C252.437 5.3971 249.735 8.0968 249.735 11.4172C249.735 14.7376 252.435 17.4373 255.755 17.4373C259.076 17.4373 261.775 14.7376 261.775 11.4172C261.775 8.0968 259.076 5.3971 255.755 5.3971Z" fill="#D0BEE6"/>
<path d="M255.756 8.60526C254.14 8.60526 252.589 8.01217 251.388 6.9323L251.734 6.54541C252.84 7.53813 254.268 8.08445 255.754 8.08445C257.24 8.08445 258.66 7.54026 259.765 6.55391L260.111 6.9408C258.913 8.01217 257.365 8.60313 255.754 8.60313L255.756 8.60526Z" fill="#D0BEE6"/>
<path d="M251.825 16.3829L251.485 15.9896C252.671 14.9671 254.187 14.4038 255.756 14.4038C257.325 14.4038 258.827 14.9629 260.009 15.9769L259.671 16.3723C258.583 15.439 257.193 14.9246 255.756 14.9246C254.319 14.9246 252.916 15.4433 251.825 16.385V16.3829Z" fill="#D0BEE6"/>
<path d="M255.756 17.956C253.862 17.956 252.378 15.0841 252.378 11.4172C252.378 7.7503 253.862 4.87842 255.756 4.87842C257.65 4.87842 259.133 7.7503 259.133 11.4172C259.133 15.0841 257.65 17.956 255.756 17.956ZM255.756 5.3971C254.206 5.3971 252.899 8.15419 252.899 11.4172C252.899 14.6802 254.208 17.4373 255.756 17.4373C257.303 17.4373 258.613 14.6802 258.613 11.4172C258.613 8.15419 257.303 5.3971 255.756 5.3971Z" fill="#D0BEE6"/>
<path d="M256.015 5.13721H255.496V17.6961H256.015V5.13721Z" fill="#D0BEE6"/>
<path d="M262.034 11.1582H249.476V11.6769H262.034V11.1582Z" fill="#D0BEE6"/>
<path d="M95.1355 133.241C93.486 133.241 92.1426 131.898 92.1426 130.248V124.375C92.1426 122.725 93.486 121.382 95.1355 121.382C96.7851 121.382 98.1285 122.725 98.1285 124.375V130.248C98.1285 131.898 96.7851 133.241 95.1355 133.241ZM95.1355 121.903C93.7708 121.903 92.6612 123.012 92.6612 124.377V130.25C92.6612 131.615 93.7708 132.725 95.1355 132.725C96.5002 132.725 97.6098 131.615 97.6098 130.25V124.377C97.6098 123.012 96.5002 121.903 95.1355 121.903Z" fill="#D0BEE6"/>
<path d="M95.1889 137.35C91.4179 137.35 88.3506 134.283 88.3506 130.512V127.3H91.909V127.818H88.8714V130.512C88.8714 133.996 91.707 136.832 95.191 136.832C98.675 136.832 101.5 134.004 101.511 130.531L101.519 127.818H98.4816V127.3H102.04L102.029 130.533C102.017 134.294 98.9492 137.35 95.191 137.35H95.1889Z" fill="#D0BEE6"/>
<path d="M95.4484 137.091H94.9297V139.801H95.4484V137.091Z" fill="#D0BEE6"/>
<path d="M98.8194 139.576H91.4326V140.095H98.8194V139.576Z" fill="#D0BEE6"/>
<path d="M433.855 188.772V178.01C433.855 174.145 439.031 171.001 445.391 171.001C451.751 171.001 456.927 174.145 456.927 178.01C456.927 181.874 452.089 184.844 445.914 185.012C445.74 185.016 445.565 185.018 445.389 185.018C442.87 185.018 440.4 184.514 438.404 183.596L433.851 188.772H433.855ZM445.391 171.66C439.392 171.66 434.514 174.508 434.514 178.01V187.025L438.242 182.786L438.468 182.895C440.413 183.838 442.872 184.357 445.391 184.357C445.561 184.357 445.729 184.355 445.897 184.351C451.713 184.193 456.268 181.409 456.268 178.007C456.268 174.606 451.387 171.658 445.391 171.658V171.66Z" fill="#D0BEE6"/>
<path d="M468.623 194.907L464.07 189.731C462.074 190.649 459.606 191.153 457.085 191.153C451.027 191.153 446.084 188.394 445.587 184.735L446.24 184.646C446.684 187.926 451.447 190.494 457.083 190.494C459.602 190.494 462.061 189.975 464.006 189.031L464.231 188.923L467.96 193.162V184.146C467.96 180.645 463.079 177.797 457.083 177.797C456.908 177.797 456.734 177.799 456.562 177.803L456.543 177.144C456.721 177.14 456.902 177.136 457.083 177.136C463.445 177.136 468.619 180.28 468.619 184.144V194.907H468.623Z" fill="#D0BEE6"/>
<g style="mix-blend-mode:screen">
<path d="M453.354 221.337C453.129 221.201 452.838 221.274 452.7 221.497C444.426 235.155 438.262 248.466 433.662 260.793L428.926 250.271C428.818 250.031 428.537 249.924 428.297 250.033C428.057 250.141 427.95 250.422 428.059 250.662L433.12 261.905C433.141 261.952 433.169 261.994 433.203 262.033C427.115 278.635 423.869 293.394 422.149 304.713C421.782 307.132 421.475 309.452 421.216 311.673L416.888 302.056C416.78 301.816 416.499 301.71 416.259 301.818C416.019 301.927 415.913 302.207 416.021 302.447L421.01 313.531C419.237 330.112 420.268 340.502 420.281 340.621C420.308 340.881 420.54 341.07 420.8 341.047C420.8 341.047 420.802 341.047 420.804 341.047C421.065 341.019 421.254 340.785 421.229 340.524C421.216 340.405 420.198 330.12 421.952 313.68C421.986 313.599 421.992 313.514 421.979 313.425C422.273 310.712 422.638 307.842 423.097 304.818C423.703 300.842 424.5 296.436 425.54 291.68C425.591 291.693 425.642 291.697 425.695 291.691C425.731 291.687 425.767 291.68 425.803 291.668L438.13 287.501C438.379 287.416 438.513 287.146 438.428 286.897C438.343 286.649 438.073 286.515 437.824 286.6L425.759 290.677C428.571 278.099 433.103 263.113 440.383 246.965C440.383 246.965 440.388 246.965 440.39 246.965L449.503 243.105C449.745 243.003 449.858 242.722 449.756 242.48C449.654 242.238 449.373 242.125 449.131 242.227L440.96 245.688C444.484 237.997 448.631 230.051 453.518 221.986C453.654 221.76 453.582 221.469 453.359 221.333L453.354 221.337Z" fill="#5C5C5C"/>
</g>
<g style="mix-blend-mode:screen">
<path d="M468.507 296.243C468.43 296.134 468.281 296.107 468.173 296.183C461.575 300.773 456.029 305.632 451.393 310.36L451.367 304.548C451.367 304.416 451.259 304.308 451.127 304.31C450.995 304.312 450.889 304.418 450.889 304.55L450.917 310.751C450.917 310.776 450.931 310.795 450.938 310.819C444.744 317.207 440.233 323.329 437.127 328.182C431.192 337.457 428.952 344.236 428.931 344.301C428.89 344.427 428.958 344.561 429.082 344.603C429.207 344.644 429.343 344.576 429.383 344.45C429.405 344.384 431.632 337.65 437.54 328.424C438.63 326.719 439.905 324.853 441.355 322.878C441.376 322.893 441.389 322.916 441.415 322.923C441.432 322.929 441.451 322.931 441.47 322.933L447.985 323.537C448.117 323.55 448.234 323.452 448.247 323.32C448.259 323.189 448.162 323.072 448.03 323.059L441.659 322.468C445.522 317.26 450.664 311.303 457.311 305.368L462.285 305.456C462.416 305.458 462.527 305.354 462.529 305.22C462.531 305.088 462.427 304.979 462.293 304.975L457.831 304.896C461.022 302.082 464.551 299.278 468.445 296.57C468.553 296.493 468.581 296.345 468.504 296.236L468.507 296.243Z" fill="#5C5C5C"/>
</g>
<g style="mix-blend-mode:screen">
<path d="M111.547 364.231C111.151 364.095 110.722 364.308 110.588 364.703L105.191 380.557C104.447 377.084 103.616 373.463 102.67 369.695C98.2484 352.055 90.8978 329.212 78.7793 303.879C78.826 303.816 78.8643 303.745 78.8919 303.667L85.201 285.13C85.3349 284.735 85.1244 284.305 84.7291 284.171C84.3337 284.038 83.9043 284.248 83.7704 284.643L77.8652 301.992C68.7397 283.194 56.9931 263.08 41.8604 242.73C41.6117 242.394 41.1377 242.326 40.8018 242.575C40.466 242.824 40.3979 243.298 40.6466 243.631C49.5851 255.65 57.3375 267.586 64.0632 279.216L50.6246 274.973C50.2271 274.848 49.802 275.069 49.6765 275.467C49.5511 275.864 49.7722 276.289 50.1697 276.415L65.1558 281.147C65.1558 281.147 65.1621 281.147 65.1643 281.147C79.1002 305.58 88.517 328.589 94.8537 348.05L75.1677 343.418C74.7617 343.323 74.3536 343.575 74.2579 343.981C74.1623 344.388 74.4152 344.794 74.8213 344.889L94.9345 349.621C94.9919 349.634 95.0514 349.642 95.1088 349.642C95.1938 349.642 95.2746 349.627 95.3532 349.6C97.7106 356.963 99.6343 363.808 101.188 370.001C102.37 374.713 103.38 379.197 104.251 383.44C104.243 383.582 104.268 383.718 104.334 383.839C109.578 409.565 109.515 425.978 109.512 426.167C109.508 426.584 109.844 426.926 110.261 426.928H110.267C110.682 426.928 111.02 426.594 111.024 426.18C111.024 425.989 111.092 409.406 105.799 383.461L112.019 365.188C112.152 364.793 111.942 364.363 111.547 364.229V364.231Z" fill="#5C5C5C"/>
</g>
<g style="mix-blend-mode:screen">
<path d="M74.1549 420.135C74.1081 420.026 69.2531 409.03 57.8042 394.456C51.814 386.829 43.2602 377.303 31.8474 367.606C31.8559 367.565 31.8772 367.531 31.873 367.489L30.9143 357.094C30.893 356.873 30.6974 356.709 30.4764 356.73C30.2553 356.749 30.0916 356.947 30.1129 357.168L31.012 366.91C22.4796 359.742 12.3974 352.5 0.599903 345.883C0.406466 345.774 0.159887 345.842 0.0514769 346.038C-0.056933 346.231 0.0110888 346.478 0.206652 346.586C7.17039 350.491 13.5389 354.617 19.3399 358.813L11.8767 359.67C11.6556 359.696 11.4962 359.895 11.5217 360.117C11.5472 360.338 11.747 360.497 11.9681 360.472L20.288 359.517C32.3895 368.384 41.9699 377.529 49.2865 385.626L38.707 387.649C38.4881 387.692 38.3457 387.902 38.386 388.121C38.4286 388.34 38.639 388.483 38.8579 388.442L49.6777 386.372C49.7096 386.365 49.7393 386.357 49.7669 386.344C49.8073 386.327 49.8286 386.287 49.8584 386.257C52.6111 389.331 55.0471 392.251 57.1516 394.932C68.5431 409.43 73.3684 420.352 73.4152 420.46C73.5044 420.664 73.7425 420.758 73.9466 420.668C73.9466 420.668 73.9487 420.668 73.9508 420.668C74.1528 420.579 74.2442 420.341 74.1549 420.139V420.135Z" fill="#5C5C5C"/>
</g>
<path d="M401.356 27.0811H130.143C124.9 27.0811 120.649 31.3315 120.649 36.5746V415.315C120.649 420.558 124.9 424.808 130.143 424.808H401.356C406.599 424.808 410.85 420.558 410.85 415.315V36.5746C410.85 31.3315 406.599 27.0811 401.356 27.0811Z" fill="#404040"/>
<path d="M397.187 34.3491H134.318C130.785 34.3491 127.92 37.2138 127.92 40.7476V394.04C127.92 397.574 130.785 400.439 134.318 400.439H397.187C400.72 400.439 403.585 397.574 403.585 394.04V40.7476C403.585 37.2138 400.72 34.3491 397.187 34.3491Z" fill="#737373"/>
<path d="M383.174 54.7603H148.328V380.027H383.174V54.7603Z" fill="white"/>
<g style="mix-blend-mode:multiply">
<path d="M190.009 302.071H340.895C352.89 302.071 362.628 311.809 362.628 323.804C362.628 335.8 352.89 345.538 340.895 345.538H190.009C178.014 345.538 168.276 335.8 168.276 323.804C168.276 311.809 178.014 302.071 190.009 302.071Z" fill="#EBE2DF"/>
</g>
<path d="M350.315 295.861H187.835C179.034 295.861 171.9 302.995 171.9 311.796V323.392C171.9 332.192 179.034 339.326 187.835 339.326H350.315C359.116 339.326 366.249 332.192 366.249 323.392V311.796C366.249 302.995 359.116 295.861 350.315 295.861Z" fill="#5C9CFF"/>
<path d="M190.292 305.174H245.405C247.331 305.174 248.895 306.739 248.895 308.665V311.205C248.895 313.131 247.331 314.696 245.405 314.696H190.292C188.366 314.696 186.802 313.131 186.802 311.205V308.665C186.802 306.739 188.366 305.174 190.292 305.174Z" fill="white"/>
<path d="M190.292 321.838H290.939C292.865 321.838 294.429 323.402 294.429 325.328V327.869C294.429 329.795 292.865 331.359 290.939 331.359H190.292C188.366 331.359 186.802 329.795 186.802 327.869V325.328C186.802 323.402 188.366 321.838 190.292 321.838Z" fill="white"/>
<path d="M304.129 321.838H355.205C357.131 321.838 358.695 323.402 358.695 325.328V327.869C358.695 329.795 357.131 331.359 355.205 331.359H304.129C302.203 331.359 300.639 329.795 300.639 327.869V325.328C300.639 323.402 302.203 321.838 304.129 321.838Z" fill="white"/>
<path d="M383.019 54.6807H148.169V73.1959H383.019V54.6807Z" fill="#5C9CFF"/>
<path d="M348.438 65.0908H338.118V67.3845H348.438V65.0908Z" fill="white"/>
<path d="M362.734 66.8705L355.437 59.5728L353.815 61.1946L361.112 68.4923L362.734 66.8705Z" fill="white"/>
<path d="M355.435 68.4915L362.732 61.1938L361.111 59.572L353.813 66.8697L355.435 68.4915Z" fill="white"/>
<path d="M367.013 59.0835V68.4921H376.421V59.0835H367.013ZM374.599 66.6703H368.837V60.9074H374.599V66.6703Z" fill="white"/>
<path d="M184.238 64.5641C184.498 62.9614 183.409 61.4513 181.807 61.1911C180.204 60.931 178.694 62.0193 178.434 63.622C178.174 65.2247 179.262 66.7348 180.865 66.995C182.467 67.2551 183.977 66.1668 184.238 64.5641Z" fill="white"/>
<path d="M172.023 64.5656C172.283 62.9629 171.195 61.4527 169.592 61.1926C167.989 60.9324 166.479 62.0208 166.219 63.6235C165.959 65.2262 167.047 66.7363 168.65 66.9964C170.253 67.2566 171.763 66.1682 172.023 64.5656Z" fill="white"/>
<path d="M159.804 64.5656C160.064 62.9629 158.976 61.4527 157.373 61.1926C155.771 60.9324 154.26 62.0208 154 63.6235C153.74 65.2262 154.828 66.7363 156.431 66.9964C158.034 67.2566 159.544 66.1682 159.804 64.5656Z" fill="white"/>
<path d="M529.746 439.003H1.55664V436.437C1.55664 430.011 6.76669 424.801 13.1926 424.801H518.113C524.538 424.801 529.749 430.011 529.749 436.437V439.003H529.746Z" fill="#E5D5FA"/>
<g style="mix-blend-mode:multiply">
<path d="M44.4737 339.598L87.7399 341.412C91.6341 341.575 94.5782 337.928 93.5982 334.154L81.0652 285.894C58.212 291.914 42.2439 310.92 38.9788 332.904C38.4708 336.331 41.0131 339.454 44.4737 339.598Z" fill="#9CC2ED"/>
</g>
<path d="M164.1 348.538C156.04 317.938 124.701 299.665 94.1016 307.725C94.0357 307.742 93.9741 307.764 93.9082 307.781L108.603 363.571L164.192 348.929C164.158 348.799 164.134 348.669 164.1 348.538Z" fill="#70C0EE"/>
<path d="M164.843 374.553C166.524 366.324 166.414 357.602 164.192 348.927L108.604 363.569L164.843 374.553Z" fill="#75A6F5"/>
<path d="M108.603 363.571L101.197 419.939C108.376 420.89 115.852 420.498 123.287 418.539C145.084 412.797 160.616 395.238 164.84 374.553L108.601 363.569L108.603 363.571Z" fill="#779DF7"/>
<path d="M53.2906 377.726C59.3913 400.891 78.8349 416.978 101.197 419.939L108.603 363.571L51.4306 361.175C51.2457 366.621 51.8302 372.185 53.2906 377.724V377.726Z" fill="#3A85F6"/>
<path d="M33.96 347.546L91.1323 349.942L76.6309 294.097C51.5712 300.697 34.7911 322.913 33.96 347.546Z" fill="#43D2E3"/>
<path d="M264.916 113.634C236.402 113.634 213.287 136.75 213.287 165.264C213.287 193.779 236.402 216.895 264.916 216.895C293.43 216.895 316.544 193.779 316.544 165.264C316.544 136.75 293.43 113.634 264.916 113.634ZM264.916 199.06C246.252 199.06 231.122 183.928 231.122 165.264C231.122 146.6 246.252 131.469 264.916 131.469C283.579 131.469 298.71 146.6 298.71 165.264C298.71 183.928 283.579 199.06 264.916 199.06Z" fill="#3A85F6"/>
<path d="M251.709 215.184L256.25 197.933C244.873 194.921 235.856 186.127 232.523 174.884L215.462 180.094C220.589 197.219 234.357 210.603 251.709 215.184Z" fill="#779DF7"/>
<path d="M316.547 165.264C316.547 152.776 312.113 141.322 304.732 132.394L290.788 143.531C295.73 149.406 298.71 156.987 298.71 165.267C298.71 183.931 283.58 199.062 264.916 199.062C261.84 199.062 258.864 198.643 256.033 197.873L251.584 215.151C255.837 216.287 260.304 216.899 264.916 216.899C293.43 216.899 316.545 193.783 316.545 165.269L316.547 165.264Z" fill="#44D3E4"/>
<path d="M369.325 253.151H289.416C288.672 253.151 287.998 252.715 287.692 252.037L269.934 212.575C269.505 211.622 269.93 210.502 270.882 210.075C271.837 209.645 272.955 210.07 273.382 211.023L290.638 249.371H369.325C370.368 249.371 371.216 250.217 371.216 251.263C371.216 252.309 370.37 253.155 369.325 253.155V253.151Z" fill="#3A85F6"/>
<g style="mix-blend-mode:multiply">
<path d="M402.66 219.937H312.314C311.246 219.937 310.38 220.803 310.38 221.871V241.681C310.38 242.749 311.246 243.615 312.314 243.615H402.66C403.728 243.615 404.594 242.749 404.594 241.681V221.871C404.594 220.803 403.728 219.937 402.66 219.937Z" fill="#9CC2ED"/>
</g>
<path d="M409.279 216.731H315.064V240.41H409.279V216.731Z" fill="#FBF7FF"/>
<g style="mix-blend-mode:multiply">
<path d="M257.829 228.646H217.8V238.706H257.829V228.646Z" fill="#9CC2ED"/>
</g>
<path d="M259.818 227.283H219.789V237.342H259.818V227.283Z" fill="#FBF7FF"/>
<g style="mix-blend-mode:multiply">
<path d="M209.265 226.003H197.047C196.209 226.003 195.529 226.682 195.529 227.521V239.74C195.529 240.578 196.209 241.257 197.047 241.257H209.265C210.104 241.257 210.783 240.578 210.783 239.74V227.521C210.783 226.682 210.104 226.003 209.265 226.003Z" fill="#9CC2ED"/>
</g>
<path d="M210.492 224.471H198.274C197.435 224.471 196.756 225.15 196.756 225.988V238.207C196.756 239.046 197.435 239.725 198.274 239.725H210.492C211.33 239.725 212.01 239.046 212.01 238.207V225.988C212.01 225.15 211.33 224.471 210.492 224.471Z" fill="#44D3E4"/>
<g style="mix-blend-mode:multiply">
<path d="M276.739 257.638H217.8V267.697H276.739V257.638Z" fill="#9CC2ED"/>
</g>
<path d="M278.728 256.275H219.789V266.334H278.728V256.275Z" fill="#FBF7FF"/>
<g style="mix-blend-mode:multiply">
<path d="M209.265 254.998H197.047C196.209 254.998 195.529 255.677 195.529 256.515V268.734C195.529 269.572 196.209 270.252 197.047 270.252H209.265C210.104 270.252 210.783 269.572 210.783 268.734V256.515C210.783 255.677 210.104 254.998 209.265 254.998Z" fill="#9CC2ED"/>
</g>
<path d="M210.492 253.465H198.274C197.435 253.465 196.756 254.145 196.756 254.983V267.202C196.756 268.04 197.435 268.72 198.274 268.72H210.492C211.33 268.72 212.01 268.04 212.01 267.202V254.983C212.01 254.145 211.33 253.465 210.492 253.465Z" fill="#779DF7"/>
<path d="M430.665 424.823L452.19 424.685L445.507 371.484L422.734 361.685L430.665 424.823Z" fill="#74AFF3"/>
<path d="M402.862 425L424.384 424.862L416.09 358.823L393.317 349.021L402.862 425Z" fill="#72B8F1"/>
<path d="M469.974 349.548L450.617 366.935L457.866 424.649L479.39 424.511L469.974 349.548Z" fill="#75A6F5"/>
<path d="M475.079 344.963L485.066 424.475L506.59 424.336L494.436 327.577L475.079 344.963Z" fill="#779DF7"/>
<path d="M340.927 425.394L336.997 394.609L318.038 411.696L319.458 425.531L340.927 425.394Z" fill="#6DD2EA"/>
<path d="M347.251 425.354L368.774 425.216L362.088 371.998L342.738 389.436L347.251 425.354Z" fill="#6EC9EC"/>
<path d="M387.631 348.979L368.278 366.418L375.661 425.174L397.183 425.036L387.631 348.979Z" fill="#70C0EE"/>
<g style="mix-blend-mode:multiply">
<path d="M537.062 278.515L505.959 288.121L516.324 292.111L444.142 356.944L388.039 332.798L316.952 396.866L318.038 405.647L389.436 341.303L445.537 365.449L520.924 297.738L523.371 308.05L537.062 278.517V278.515Z" fill="#9CC2ED"/>
</g>
<path d="M537.062 274.28L505.959 283.887L516.324 287.877L444.142 352.71L388.039 328.563L316.952 392.631L318.038 401.413L389.436 337.068L445.537 361.213L520.924 293.501L523.371 303.815L537.062 274.28Z" fill="#44D3E4"/>
<path d="M117.011 337.622C117.706 336.232 118.448 333.581 118.269 329.769C118.074 328.345 117.827 326.547 117.553 324.487C117.417 323.462 117.272 322.372 117.126 321.232L123.951 323.061C123.834 324.289 123.726 325.441 123.626 326.494C123.413 328.738 123.481 331.002 123.883 333.22C124.004 333.887 124.142 334.459 124.291 334.763C124.833 335.862 128.751 339.661 130.543 342.936C130.711 343.334 134.758 343.974 134.15 344.903C133.782 345.105 126.723 345.659 125.932 344.898C125.142 344.137 123.265 342.243 121.162 341.818C121.033 341.842 121.03 345.247 121.03 345.247L117.974 345.26C117.974 345.26 117.619 342.237 117.483 341.325C117.347 340.413 116.307 339.025 117.011 337.618V337.622Z" fill="#FF8762"/>
<path d="M130.564 342.976C129.286 343.125 127.885 343.406 127.394 343.191C126.733 342.902 122.374 337.492 117.584 336.159C117.404 336.744 117.204 337.235 117.01 337.624C116.307 339.031 117.348 340.419 117.482 341.331C117.618 342.243 117.973 345.266 117.973 345.266L121.03 345.253C121.03 345.253 121.03 341.85 121.162 341.824C123.264 342.249 125.141 344.143 125.932 344.905C126.723 345.666 133.782 345.111 134.15 344.909C134.741 344.007 130.94 343.406 130.566 342.979L130.564 342.976Z" fill="#2B1710"/>
<path d="M95.8564 219.468C97.2084 218.178 96.7173 216.091 94.8127 214.985C92.9081 213.88 91.2501 212.466 92.602 210.132L82.7728 201.901C79.0253 201.349 74.4805 204.911 74.1723 208.412C73.8662 211.913 72.6376 212.713 71.2856 213.51C69.9337 214.309 69.7509 216.273 70.733 218.301C71.715 220.329 69.8721 222.908 69.8721 222.908H96.3475C95.1805 222.417 94.5045 220.759 95.8564 219.468Z" fill="#2B1710"/>
<path d="M125.028 222.993C127.769 227.533 125.732 233.171 125.732 233.171H128.472C130.351 229.882 129.724 224.323 129.724 224.323L125.026 222.993H125.028Z" fill="#3273D6"/>
<path d="M126.23 222.993C128.97 227.533 126.933 233.171 126.933 233.171H129.673C131.552 229.882 130.925 224.323 130.925 224.323L126.228 222.993H126.23Z" fill="#3A85F6"/>
<path d="M121.115 212.109C119.13 212.109 117.52 214.599 117.497 217.681C117.52 220.763 119.13 223.252 121.115 223.252C128.317 223.41 136.694 229.751 136.694 229.751V205.611C136.694 205.611 128.317 211.952 121.115 212.109Z" fill="#A8CBFF"/>
<path d="M140.922 231.525C145.808 231.525 149.769 225.356 149.769 217.746C149.769 210.136 145.808 203.967 140.922 203.967C136.036 203.967 132.075 210.136 132.075 217.746C132.075 225.356 136.036 231.525 140.922 231.525Z" fill="#7AAFFF"/>
<path d="M140.922 229.841C144.911 229.841 148.145 224.426 148.145 217.746C148.145 211.066 144.911 205.65 140.922 205.65C136.933 205.65 133.699 211.066 133.699 217.746C133.699 224.426 136.933 229.841 140.922 229.841Z" fill="#3A85F6"/>
<path d="M133.701 217.746C133.701 219.402 133.901 220.979 134.26 222.416L140.924 220.501V214.993L134.158 213.55C133.869 214.859 133.703 216.269 133.703 217.746H133.701Z" fill="#A8CBFF"/>
<path d="M140.921 220.499C141.829 220.499 142.565 219.267 142.565 217.746C142.565 216.226 141.829 214.994 140.921 214.994C140.014 214.994 139.278 216.226 139.278 217.746C139.278 219.267 140.014 220.499 140.921 220.499Z" fill="#D1E3FF"/>
<g style="mix-blend-mode:screen">
<path d="M129.875 213.859C129.624 213.859 129.39 213.701 129.305 213.45C129.199 213.136 129.369 212.796 129.683 212.689C130.387 212.453 130.81 212.266 130.814 212.266C130.893 212.232 130.976 212.215 131.057 212.215C131.288 212.215 131.507 212.349 131.607 212.572C131.741 212.876 131.603 213.229 131.301 213.363C131.282 213.372 130.827 213.572 130.066 213.827C130.002 213.848 129.939 213.859 129.875 213.859Z" fill="#575757"/>
</g>
<g style="mix-blend-mode:screen">
<path d="M123.759 214.932C123.135 214.932 122.527 214.894 121.938 214.817C121.608 214.775 121.377 214.473 121.419 214.146C121.457 213.844 121.717 213.623 122.014 213.623C122.04 213.623 122.065 213.623 122.093 213.627C122.643 213.697 123.194 213.729 123.734 213.729C125.377 213.729 126.92 213.446 128.036 213.168C128.085 213.155 128.134 213.151 128.181 213.151C128.451 213.151 128.695 213.334 128.763 213.606C128.844 213.927 128.646 214.252 128.325 214.333C126.721 214.732 125.192 214.932 123.759 214.932Z" fill="#575757"/>
</g>
<path d="M113.2 241.549C113.973 241.236 115.432 243.334 116.167 242.886C121.305 239.74 124.4 234.778 124.181 234.249C123.932 233.643 123.169 227.948 123.243 227.417C123.318 226.885 125.322 225.98 125.499 225.699C125.675 225.418 125.69 224.536 125.69 224.536C126.234 224.438 127.225 224.823 127.155 225.771C127.084 226.717 126.232 227.693 126.232 227.693L128.638 233.575C130.065 236.243 121.906 252.479 117.627 254.65C115.795 254.837 106.978 250.944 106.351 248.009C105.634 244.663 113.197 241.551 113.197 241.551L113.2 241.549Z" fill="#FF8762"/>
<path d="M106.455 250.689C105.787 252.375 107.717 253.193 109.371 253.057C111.025 252.921 116.62 242.597 116.199 240.749C115.778 238.902 113.659 238.256 112.32 240.009C110.98 241.763 106.455 250.689 106.455 250.689Z" fill="#E9D5F5"/>
<path d="M85.1896 238.013C81.9649 229.685 92.9568 226.286 98.5453 229.842C102.097 232.102 114.067 240.352 114.067 240.352C113.695 242.603 108.948 250.866 106.395 250.864C100.724 246.674 86.803 243.955 85.1896 238.011V238.013Z" fill="#D6BDE6"/>
<path d="M92.5764 265.629L98.5262 270.484C113.306 272.642 138.128 274.164 139.367 282.425C140.606 290.688 129.315 313.133 129.315 313.133L128.626 331.034H115.268L107.282 294.267C107.282 294.267 74.3126 296.017 68.8028 286.683C64.3771 279.183 70.1016 269.894 70.1016 269.894L87.8659 258.602L92.5743 265.629H92.5764Z" fill="#9E5FCF"/>
<g style="mix-blend-mode:multiply">
<path d="M128.946 312.206C128.946 312.206 128.948 312.206 128.95 312.206C129.048 312.204 129.125 312.124 129.122 312.026C129.097 310.922 128.446 284.937 125.7 280.359C122.932 275.746 95.8703 273.218 94.7203 273.114C94.6225 273.105 94.5375 273.176 94.529 273.273C94.5205 273.371 94.5907 273.456 94.6884 273.465C94.969 273.49 122.722 276.079 125.398 280.541C128.098 285.039 128.763 311.766 128.77 312.036C128.772 312.132 128.85 312.209 128.946 312.209V312.206Z" fill="#E0C9C0"/>
</g>
<g style="mix-blend-mode:multiply">
<path d="M107.529 294.167C107.913 294.167 108.955 293.544 109.397 293.268C109.48 293.217 109.505 293.109 109.452 293.026C109.401 292.943 109.293 292.919 109.21 292.97C108.613 293.342 107.888 293.734 107.616 293.806C107.62 293.574 107.771 292.973 107.888 292.518C108.062 291.833 108.241 291.125 108.241 290.685C108.241 290.587 108.162 290.509 108.064 290.509C107.966 290.509 107.888 290.587 107.888 290.685C107.888 291.081 107.705 291.797 107.546 292.43C107.284 293.464 107.197 293.87 107.325 294.059C107.363 294.116 107.422 294.154 107.488 294.163C107.501 294.163 107.514 294.165 107.529 294.165V294.167Z" fill="#E0C9C0"/>
</g>
<g style="mix-blend-mode:multiply">
<path d="M78.1587 279.225C78.1779 279.225 78.1949 279.223 78.214 279.216C78.9155 278.983 79.7445 278.035 80.2291 276.912C80.65 275.939 81.1942 273.953 80.108 271.608C80.0676 271.521 79.9613 271.481 79.8742 271.523C79.787 271.564 79.7466 271.668 79.7891 271.757C80.818 273.976 80.3035 275.854 79.906 276.774C79.4065 277.932 78.62 278.713 78.1035 278.885C78.0121 278.915 77.961 279.014 77.9929 279.108C78.0184 279.182 78.0865 279.229 78.1609 279.229L78.1587 279.225Z" fill="#E0C9C0"/>
</g>
<g style="mix-blend-mode:multiply">
<path d="M119.124 330.657C119.124 330.657 119.135 330.657 119.141 330.657C119.239 330.649 119.309 330.561 119.3 330.466C118.933 326.629 115.655 292.953 113.691 292.041C113.147 291.788 112.849 291.541 112.785 291.288C112.7 290.961 112.989 290.565 113.355 290.066C113.529 289.828 113.727 289.558 113.905 289.262C113.961 289.171 113.965 289.067 113.918 288.969C113.472 288.049 105.96 287.022 94.549 285.561C89.764 284.949 85.6317 284.42 83.7717 284.042C78.5851 282.991 75.099 278.744 75.099 273.472C75.099 273.375 75.0203 273.296 74.9225 273.296C74.8247 273.296 74.7461 273.375 74.7461 273.472C74.7461 278.829 78.4278 283.319 83.6995 284.386C85.5722 284.764 89.7109 285.296 94.5022 285.908C101.891 286.854 113.03 288.28 113.589 289.101C113.423 289.373 113.244 289.62 113.07 289.855C112.666 290.408 112.318 290.884 112.443 291.373C112.536 291.741 112.887 292.053 113.542 292.357C114.89 292.982 117.513 315.509 118.95 330.498C118.958 330.589 119.035 330.657 119.124 330.657Z" fill="#E0C9C0"/>
</g>
<path d="M97.3417 269.211H71.6273C64.9527 247.124 69.1764 229.306 69.1764 229.306C72.4032 226.866 76.3421 226.419 76.3421 226.419L87.0811 226.126C91.2325 226.315 95.4839 228.143 95.4839 228.143C98.073 235.979 102.097 242.479 101.942 246.659C101.787 250.838 95.8389 260.497 97.3417 269.211Z" fill="#E9D5F5"/>
<path d="M81.6671 219.492C77.1139 220.287 74.4653 216.05 75.7896 212.713C75.4197 205.881 78.3319 199.157 88.5522 202.811C93.6368 203.447 95.5946 210.173 91.4112 211.92C85.8504 216.845 81.6671 219.492 81.6671 219.492Z" fill="#2B1710"/>
<path d="M85.7445 222.113C85.4278 224.02 85.177 225.889 88.1253 226.212C91.2501 231.141 89.9002 235.252 88.4867 235.686C84.822 236.811 75.5094 227.438 75.5391 226.52C75.5391 226.36 77.8434 225.844 78.6766 224.375C79.5099 222.906 79.9074 219.171 79.5907 214.167C81.5378 214.684 82.2117 213.134 82.252 210.473C82.2924 207.811 83.5636 203.562 88.7247 204.238C90.6697 206.621 91.7028 208.13 91.5455 211.227C91.3861 214.325 91.7305 216.523 91.3606 218.006C90.995 219.473 89.4007 222.19 85.7467 222.111L85.7445 222.113Z" fill="#FF8762"/>
<path d="M78.9594 216.762C79.812 216.562 80.3404 215.708 80.1399 214.855C79.9393 214.003 79.0856 213.474 78.2331 213.675C77.3806 213.875 76.8521 214.729 77.0526 215.582C77.2532 216.434 78.1069 216.963 78.9594 216.762Z" fill="#FF8762"/>
<g style="mix-blend-mode:multiply">
<path d="M78.9322 216.046C78.9726 216.046 79.0108 216.023 79.0278 215.984C79.0512 215.931 79.0278 215.872 78.9747 215.848C78.8386 215.789 78.7621 215.704 78.7536 215.602C78.7451 215.498 78.8089 215.379 78.9152 215.308C79.03 215.232 79.166 215.228 79.2914 215.294C79.3233 215.311 79.3637 215.311 79.3956 215.289C79.4275 215.27 79.4445 215.234 79.4445 215.198C79.4275 214.822 79.1724 214.513 78.7791 214.392C78.371 214.267 77.9565 214.39 77.7248 214.703C77.6908 214.749 77.6993 214.813 77.746 214.847C77.7928 214.881 77.8566 214.873 77.8906 214.826C78.1095 214.532 78.473 214.515 78.7196 214.59C78.9216 214.652 79.1384 214.802 79.2128 215.049C79.0725 215.026 78.9279 215.055 78.8046 215.136C78.6346 215.249 78.5368 215.438 78.5517 215.619C78.5602 215.723 78.6176 215.916 78.896 216.038C78.9088 216.044 78.9237 216.046 78.9364 216.046H78.9322Z" fill="#E0B3A8"/>
</g>
<g style="mix-blend-mode:multiply">
<path d="M85.4279 222.109C85.4279 222.109 85.4088 222.109 85.4003 222.104C82.7708 221.356 80.6643 219.145 80.033 216.469C80.0202 216.414 80.0542 216.361 80.1074 216.348C80.1626 216.335 80.2158 216.369 80.2285 216.424C80.8428 219.028 82.8941 221.182 85.4534 221.911C85.5066 221.926 85.5385 221.983 85.5236 222.036C85.5108 222.081 85.4705 222.111 85.4258 222.111L85.4279 222.109Z" fill="#E0B3A8"/>
</g>
<path d="M82.8602 210.695C82.824 210.695 82.79 210.676 82.773 210.644C82.7454 210.596 82.7624 210.534 82.8113 210.506C84.1334 209.749 85.7107 209.69 86.359 209.888C86.4122 209.905 86.4419 209.96 86.427 210.015C86.41 210.068 86.3527 210.098 86.2995 210.083C85.7681 209.922 84.227 209.93 82.9112 210.683C82.8963 210.691 82.8772 210.695 82.8602 210.695Z" fill="#2B1710"/>
<path d="M91.1463 210.801C91.1144 210.801 91.0846 210.787 91.0655 210.761C91.0485 210.738 90.6383 210.215 89.3331 210.376C89.2778 210.383 89.2268 210.344 89.2204 210.289C89.214 210.234 89.2523 210.183 89.3076 210.176C90.7063 210.002 91.1782 210.574 91.2292 210.64C91.2632 210.685 91.2547 210.748 91.2079 210.782C91.1888 210.795 91.1675 210.804 91.1463 210.804V210.801Z" fill="#2B1710"/>
<path d="M88.7907 216.203C88.7609 216.203 88.7312 216.19 88.712 216.165C88.678 216.12 88.6844 216.056 88.729 216.022C89.2541 215.604 89.8386 215.091 89.9662 214.913C89.8769 214.894 89.6813 214.889 89.5325 214.887C89.1669 214.881 88.7503 214.872 88.5037 214.734C87.9617 214.428 88.4846 212.134 88.9629 211.057C88.9862 211.006 89.0458 210.982 89.0968 211.006C89.1478 211.029 89.1712 211.089 89.1478 211.14C88.5909 212.394 88.2741 214.373 88.6015 214.558C88.8034 214.67 89.2073 214.679 89.5347 214.685C89.9428 214.694 90.1894 214.698 90.1894 214.885C90.1894 215.072 89.4624 215.697 88.8544 216.182C88.8353 216.197 88.8141 216.203 88.7907 216.203Z" fill="#2B1710"/>
<path d="M85.0901 213.891C85.4305 213.891 85.7065 213.402 85.7065 212.798C85.7065 212.195 85.4305 211.706 85.0901 211.706C84.7496 211.706 84.4736 212.195 84.4736 212.798C84.4736 213.402 84.7496 213.891 85.0901 213.891Z" fill="#2B1710"/>
<g style="mix-blend-mode:multiply">
<path d="M84.9494 214.262C84.7389 214.262 84.2713 214.17 84.1204 213.399C84.114 213.371 84.1331 213.345 84.1608 213.339C84.1884 213.333 84.2139 213.352 84.2203 213.38C84.367 214.13 84.8155 214.175 85.0004 214.16C85.028 214.158 85.0535 214.179 85.0557 214.206C85.0578 214.234 85.0365 214.26 85.0089 214.262C84.9919 214.262 84.9728 214.264 84.9515 214.264L84.9494 214.262Z" fill="#E0B3A8"/>
</g>
<path d="M89.7483 214.024C90.0887 214.024 90.3647 213.535 90.3647 212.931C90.3647 212.328 90.0887 211.839 89.7483 211.839C89.4078 211.839 89.1318 212.328 89.1318 212.931C89.1318 213.535 89.4078 214.024 89.7483 214.024Z" fill="#2B1710"/>
<g style="mix-blend-mode:multiply">
<path d="M89.6095 214.394C89.3991 214.394 88.9315 214.303 88.7805 213.531C88.7742 213.503 88.7933 213.478 88.8209 213.471C88.8486 213.465 88.8741 213.484 88.8804 213.512C89.0271 214.262 89.4756 214.307 89.6606 214.292C89.6882 214.29 89.7137 214.311 89.7158 214.339C89.718 214.366 89.6967 214.392 89.6691 214.394C89.6521 214.394 89.6329 214.396 89.6117 214.396L89.6095 214.394Z" fill="#E0B3A8"/>
</g>
<path d="M84.2587 215.239C84.0163 215.564 83.8569 215.855 83.8994 215.887C83.9441 215.919 84.1758 215.683 84.4181 215.358C84.6604 215.033 84.8199 214.741 84.7773 214.709C84.7327 214.678 84.501 214.913 84.2587 215.239Z" fill="#FF7E57"/>
<path d="M84.8817 215.317C84.6394 215.642 84.48 215.933 84.5225 215.965C84.5671 215.997 84.7988 215.761 85.0412 215.436C85.2835 215.111 85.4429 214.819 85.4004 214.788C85.3558 214.756 85.1241 214.992 84.8817 215.317Z" fill="#FF7E57"/>
<path d="M85.5702 215.385C85.3279 215.71 85.1684 216.002 85.211 216.034C85.2535 216.065 85.4873 215.83 85.7296 215.504C85.972 215.179 86.1314 214.888 86.0889 214.856C86.0442 214.824 85.8125 215.06 85.5702 215.385Z" fill="#FF7E57"/>
<path d="M79.682 217.401C79.682 217.811 79.3504 218.142 78.9401 218.142C78.5298 218.142 78.1982 217.811 78.1982 217.401C78.1982 216.99 78.5298 216.659 78.9401 216.659C79.3504 216.659 79.682 216.99 79.682 217.401Z" fill="white"/>
<g style="mix-blend-mode:multiply">
<path d="M85.3877 217.521C87.7451 216.52 90.0153 216.554 89.8197 217.389C89.9558 219.417 87.4326 221.558 85.3877 217.521Z" fill="#E0B3A8"/>
</g>
<g style="mix-blend-mode:multiply">
<path d="M87.7851 220.65C88.0317 220.65 88.342 220.619 88.6566 220.5C88.6991 220.485 88.7204 220.438 88.7034 220.395C88.6885 220.353 88.6417 220.332 88.5992 220.349C87.9466 220.591 87.3047 220.442 87.2983 220.44C87.2558 220.429 87.2112 220.457 87.2005 220.5C87.1899 220.542 87.2175 220.587 87.26 220.597C87.2749 220.602 87.4832 220.648 87.7851 220.648V220.65Z" fill="#E0B3A8"/>
</g>
<path d="M85.3877 217.522L89.8197 217.39C89.8197 219.38 86.9224 220.307 85.3877 217.522Z" fill="#2B1710"/>
<path d="M89.0035 218.902C88.4104 218.056 87.558 217.696 87.558 217.696L86.1933 217.497L85.3877 217.52C86.4123 219.38 88.0299 219.563 89.0014 218.9L89.0035 218.902Z" fill="#7D2727"/>
<path d="M89.8217 217.39L85.3896 217.522C86.4227 218.236 89.15 218.436 89.8217 217.39Z" fill="white"/>
<path d="M88.7241 204.24C88.4308 208.555 82.4023 209.182 81.3055 208.948C80.2086 208.714 83.0677 202.352 88.7241 204.24Z" fill="#2B1710"/>
<path d="M98.3725 270.408C97.5902 268.765 97.1205 266.807 97.1205 266.807L70.6578 266.571C69.4845 270.172 69.3271 270.642 69.3271 270.642L98.3725 270.408Z" fill="#2B1710"/>
<path d="M84.5153 266.22H83.0273V270.997H84.5153V266.22Z" fill="#A46FE7"/>
<path d="M73.2028 266.141H71.7148V270.918H73.2028V266.141Z" fill="#A46FE7"/>
<path d="M64.821 261.326C63.2395 268.947 63.0801 283.338 63.7964 286.229C64.5128 289.12 63.1502 291.191 60.7354 291.614C58.3207 292.037 57.1026 294.124 55.738 293.529C54.3733 292.934 56.6137 290.517 57.7829 290.202C54.3988 290.47 52.9618 294.53 51.4441 294.658C50.3153 294.754 50.2856 293.765 50.2856 293.765C49.2079 293.695 49.159 292.802 49.159 292.802C48.1408 291.752 49.8498 288.782 51.9457 287.683C54.0417 286.582 56.8986 284.826 56.9156 283.347C56.9305 281.867 52.7705 263.694 52.9639 261.052C53.1574 258.41 64.8252 261.326 64.8252 261.326H64.821Z" fill="#FF8762"/>
<path d="M65.516 257.702C67.4823 258.659 67.9882 261.675 64.4468 262.912C60.9054 264.149 53.5463 263.78 51.9839 261.388C50.5193 259.143 52.7768 257.332 53.7419 257.092C54.7048 256.854 65.516 257.702 65.516 257.702Z" fill="#E9D5F5"/>
<path d="M69.3344 229.406C75.4054 237.873 72.3061 249.741 68.854 252.418C65.4019 255.094 65.6378 259.292 65.6378 259.292C61.7946 262.815 52.9433 259.864 52.7158 259.246C54.2251 247.373 60.5638 232.876 69.3344 229.404V229.406Z" fill="#D6BDE6"/>
<g style="mix-blend-mode:multiply">
<path d="M50.3486 293.375C50.3954 293.379 50.44 293.349 50.4506 293.3C50.5739 292.741 51.4986 290.158 53.4967 288.687C53.5393 288.658 53.5478 288.598 53.5159 288.556C53.484 288.513 53.4266 288.504 53.3841 288.536C51.3413 290.041 50.3911 292.686 50.2657 293.26C50.2551 293.311 50.287 293.36 50.338 293.372C50.3422 293.372 50.3444 293.372 50.3486 293.372V293.375Z" fill="#E0B3A8"/>
</g>
<g style="mix-blend-mode:multiply">
<path d="M49.32 292.423C49.3689 292.429 49.4136 292.395 49.4221 292.346C49.4242 292.331 49.7282 290.781 50.8356 289.464C50.8697 289.423 50.8633 289.364 50.825 289.332C50.7846 289.298 50.7251 289.304 50.6932 289.342C49.5539 290.701 49.252 292.246 49.2393 292.31C49.2286 292.361 49.2626 292.41 49.3137 292.42C49.3158 292.42 49.3179 292.42 49.32 292.42V292.423Z" fill="#E0B3A8"/>
</g>
<path d="M132.596 227.589C132.721 228.059 131.969 228.669 130.915 228.952C129.86 229.234 128.904 229.081 128.778 228.611C128.653 228.142 129.405 227.532 130.46 227.249C131.514 226.966 132.471 227.119 132.596 227.589Z" fill="#FF8762"/>
<path d="M132.83 228.843C132.956 229.313 132.203 229.923 131.149 230.206C130.095 230.489 129.138 230.336 129.013 229.866C128.887 229.396 129.64 228.786 130.694 228.503C131.748 228.221 132.705 228.374 132.83 228.843Z" fill="#FF8762"/>
<path d="M132.713 230.135C132.839 230.605 132.086 231.215 131.032 231.498C129.977 231.781 129.021 231.628 128.895 231.158C128.77 230.688 129.523 230.078 130.577 229.795C131.631 229.513 132.588 229.666 132.713 230.135Z" fill="#FF8762"/>
<path d="M131.803 232.184C131.79 232.512 131.15 232.752 130.377 232.72C129.603 232.688 128.986 232.395 128.999 232.067C129.012 231.74 129.652 231.5 130.426 231.532C131.199 231.564 131.816 231.857 131.803 232.184Z" fill="#FF8762"/>
<path d="M98.0988 222.946C98.0818 222.946 98.0648 222.946 98.0457 222.94C97.5844 222.834 96.9425 222.217 96.7575 221.503C96.6321 221.023 96.6491 220.3 97.4335 219.588C98.0861 218.997 98.39 218.202 98.271 217.407C98.1052 216.312 97.1572 215.311 95.6033 214.586C91.9386 212.879 92.1809 210.317 92.9908 207.805C93.0312 207.681 93.1651 207.613 93.2863 207.654C93.4096 207.694 93.4776 207.826 93.4372 207.949C92.5551 210.691 92.6422 212.688 95.801 214.159C97.5036 214.951 98.5452 216.08 98.7344 217.337C98.879 218.291 98.5197 219.239 97.7481 219.938C97.2571 220.383 97.0764 220.869 97.2103 221.386C97.3676 221.992 97.9139 222.43 98.1499 222.483C98.2774 222.513 98.356 222.638 98.3263 222.766C98.3008 222.874 98.203 222.948 98.0967 222.948L98.0988 222.946Z" fill="#2B1710"/>
<path d="M99.3888 218.708C99.3336 218.708 99.2783 218.689 99.2336 218.65C99.1359 218.565 99.1252 218.417 99.2103 218.319C99.663 217.798 99.8182 217.213 99.6673 216.576C99.3888 215.4 98.1049 214.186 96.3959 213.485C93.6155 212.343 93.0713 211.019 93.0713 209.121C93.0713 208.991 93.1776 208.885 93.3072 208.885C93.4369 208.885 93.5432 208.991 93.5432 209.121C93.5432 210.9 94.013 211.997 96.5765 213.049C98.4216 213.808 99.8161 215.149 100.126 216.467C100.311 217.247 100.118 217.996 99.5674 218.627C99.5206 218.68 99.4547 218.708 99.3888 218.708Z" fill="#2B1710"/>
<path d="M68.0162 222.714C67.8866 222.714 67.7803 222.608 67.7803 222.479C67.7803 222.349 67.8866 222.243 68.0162 222.243C68.6029 222.243 69.162 221.803 69.5106 221.063C69.9442 220.142 70.008 218.758 69.1705 217.745C68.3606 216.765 68.0354 215.659 68.2522 214.637C68.4456 213.72 69.0621 212.962 69.9846 212.5C70.2971 212.343 70.6329 212.198 70.9773 212.05C72.6651 211.318 74.4082 210.562 74.5527 208.136C74.5591 208.006 74.6611 207.907 74.8014 207.915C74.9311 207.924 75.031 208.034 75.0225 208.164C74.8609 210.876 72.8968 211.729 71.1644 212.481C70.8285 212.628 70.499 212.77 70.1951 212.921C69.4022 213.317 68.8771 213.961 68.7135 214.734C68.5264 215.615 68.8197 216.577 69.534 217.445C70.5033 218.618 70.4353 220.208 69.9378 221.263C69.5106 222.17 68.7921 222.712 68.0184 222.712L68.0162 222.714Z" fill="#2B1710"/>
<path d="M67.9225 217.324C67.88 217.324 67.8375 217.313 67.7992 217.287C66.8342 216.688 66.341 215.553 66.509 214.326C66.6769 213.102 67.5675 211.588 69.5614 211.01C72.7797 210.077 73.9446 209.088 74.9819 206.406C75.0287 206.285 75.1647 206.225 75.2859 206.272C75.4071 206.319 75.4666 206.455 75.4198 206.576C74.3293 209.395 73.0433 210.491 69.6911 211.463C67.914 211.977 67.1211 213.314 66.9724 214.392C66.8257 215.447 67.2274 216.38 68.0437 216.888C68.1542 216.956 68.1882 217.102 68.1202 217.213C68.0756 217.285 67.9991 217.324 67.9204 217.324H67.9225Z" fill="#2B1710"/>
<path d="M81.4803 215.058C81.0488 215.058 80.4153 214.794 79.582 213.785C79.4991 213.685 79.514 213.536 79.6139 213.453C79.7138 213.37 79.8626 213.385 79.9455 213.485C80.6661 214.359 81.3315 214.748 81.7226 214.527C82.3072 214.197 82.4262 212.513 81.5228 209.935C81.4803 209.812 81.5441 209.678 81.6673 209.635C81.7906 209.593 81.9246 209.656 81.9671 209.78C82.8832 212.392 82.8769 214.418 81.9543 214.939C81.8395 215.003 81.6822 215.06 81.4824 215.06L81.4803 215.058Z" fill="#2B1710"/>
<path d="M85.8232 208.483C85.0367 208.483 84.1928 208.274 83.3446 207.856C83.2277 207.798 83.181 207.658 83.2383 207.541C83.2957 207.424 83.4382 207.377 83.553 207.435C85.1323 208.215 86.6756 208.204 87.7873 207.409C88.7099 206.748 89.2115 205.604 89.0648 204.499C89.0478 204.369 89.1392 204.252 89.2668 204.235C89.3901 204.218 89.5134 204.308 89.5304 204.437C89.7004 205.734 89.1371 207.02 88.0594 207.792C87.4153 208.253 86.648 208.485 85.8211 208.485L85.8232 208.483Z" fill="#2B1710"/>
</svg>
