<svg width="347" height="40" viewBox="0 0 347 40" fill="none" xmlns="http://www.w3.org/2000/svg">
<path d="M113.19 23.3136V18.7882H72.1287C68.597 18.7882 66.1948 18.1876 64.9223 16.9866C63.6711 15.764 63.0456 13.4763 63.0456 10.1233V8.99728C63.0456 5.65143 63.6676 3.36725 64.9223 2.16618C66.1877 0.943658 68.5898 0.332397 72.1287 0.332397H111.142C114.567 0.332397 116.937 0.92221 118.252 2.10183C119.324 3.03838 119.961 4.58977 120.161 6.75599L70.4987 6.74527V11.6782H111.56C115.121 11.6782 117.544 12.3002 118.81 13.5227C120.082 14.7238 120.719 17.0009 120.719 20.3538V21.5442C120.719 24.8972 120.082 27.1849 118.81 28.4075C117.537 29.6085 115.121 30.2091 111.56 30.2091H70.7131C67.1528 30.2091 64.7292 29.6085 63.4638 28.4075C62.4272 27.4137 61.8123 25.7193 61.6193 23.3244L113.19 23.3136ZM44.2038 30.3485V17.3083L29.7694 1.26537L9.34048 14.756L33.3834 30.3485H25.0402L5.06166 16.9115V30.3485H0.0536194V0.45036H5.06166V13.2654L23.6997 0.45036H29.0402H31.0027H35.2386L46.9169 13.7694L58.1233 0.45036H64.2038L49.1796 17.1903V30.3485H44.2038Z" fill="#231F20"/>
<path d="M249.909 21.6085C249.909 20.5576 250.109 19.5746 250.509 18.6595C250.903 17.7515 251.442 16.9544 252.129 16.2681C252.815 15.5889 253.612 15.0491 254.52 14.6488C255.428 14.2484 256.411 14.0482 257.469 14.0482C258.52 14.0482 259.5 14.2484 260.407 14.6488C261.323 15.0491 262.12 15.5889 262.799 16.2681C263.485 16.9544 264.029 17.7515 264.429 18.6595C264.822 19.5746 265.019 20.5576 265.019 21.6085C265.019 22.6595 264.822 23.6425 264.429 24.5576C264.029 25.4656 263.485 26.2627 262.799 26.949C262.12 27.6282 261.323 28.168 260.407 28.5683C259.5 28.9687 258.52 29.1689 257.469 29.1689C256.411 29.1689 255.428 28.9687 254.52 28.5683C253.612 28.168 252.815 27.6282 252.129 26.949C251.442 26.2627 250.903 25.4656 250.509 24.5576C250.109 23.6425 249.909 22.6595 249.909 21.6085V21.6085Z" fill="#231F20"/>
<path fill-rule="evenodd" clip-rule="evenodd" d="M144.719 27.1743C143.918 28.3825 142.874 29.2905 141.587 29.8982C140.307 30.513 138.985 30.8204 137.619 30.8204C136.147 30.8204 134.817 30.5666 133.63 30.059C132.436 29.5514 131.421 28.858 130.584 27.9786C129.741 27.0993 129.083 26.0555 128.611 24.8472C128.147 23.6462 127.914 22.3522 127.914 20.9652C127.914 19.5711 128.147 18.2735 128.611 17.0724C129.083 15.8714 129.741 14.8276 130.584 13.9411C131.421 13.0617 132.436 12.3682 133.63 11.8606C134.817 11.353 136.147 11.0993 137.619 11.0993C138.985 11.0993 140.307 11.4138 141.587 12.043C142.874 12.6721 143.918 13.6015 144.719 14.8312H144.794V0.0322266H147.517V30.3486H144.794V27.1743H144.719ZM130.81 20.9652C130.81 22.0018 130.967 22.9813 131.281 23.9035C131.603 24.8329 132.064 25.6372 132.665 26.3164C133.273 26.9956 134.016 27.5282 134.895 27.9143C135.775 28.3075 136.776 28.5041 137.898 28.5041C138.942 28.5041 139.907 28.3075 140.794 27.9143C141.673 27.5282 142.434 27.0027 143.078 26.3379C143.721 25.6658 144.222 24.8687 144.579 23.9464C144.937 23.0242 145.115 22.0304 145.115 20.9652C145.115 19.8928 144.937 18.8955 144.579 17.9732C144.222 17.051 143.721 16.2503 143.078 15.5711C142.434 14.8848 141.673 14.3486 140.794 13.9625C139.907 13.5765 138.942 13.3834 137.898 13.3834C136.776 13.3834 135.775 13.5836 134.895 13.984C134.016 14.3843 133.273 14.9241 132.665 15.6033C132.064 16.2896 131.603 17.0939 131.281 18.0161C130.967 18.9384 130.81 19.9214 130.81 20.9652V20.9652Z" fill="#231F20"/>
<path fill-rule="evenodd" clip-rule="evenodd" d="M171.903 20.3968C171.903 20.5827 171.903 20.7829 171.903 20.9974C171.903 21.2118 171.889 21.4406 171.861 21.6837H156.311C156.332 22.6202 156.518 23.5032 156.869 24.3325C157.212 25.1618 157.691 25.8839 158.306 26.4987C158.928 27.11 159.646 27.6033 160.472 27.9572C161.301 28.3218 162.198 28.5041 163.164 28.5041C164.579 28.5041 165.802 28.1752 166.831 27.5175C167.861 26.8597 168.643 26.1055 169.18 25.2547L171.217 26.8526C170.095 28.2753 168.858 29.2905 167.507 29.8982C166.163 30.513 164.715 30.8204 163.164 30.8204C161.769 30.8204 160.479 30.5738 159.292 30.0805C158.105 29.5872 157.083 28.9009 156.225 28.0215C155.367 27.135 154.692 26.0912 154.198 24.8901C153.705 23.6891 153.458 22.3807 153.458 20.9652C153.458 19.5496 153.698 18.2378 154.177 17.0295C154.66 15.8285 155.324 14.7883 156.182 13.8982C157.04 13.0188 158.045 12.3325 159.196 11.8392C160.34 11.3459 161.58 11.0992 162.917 11.0992C164.39 11.0992 165.687 11.3459 166.81 11.8392C167.932 12.3325 168.869 13.0009 169.619 13.8446C170.37 14.6882 170.938 15.6712 171.324 16.7936C171.71 17.916 171.903 19.1171 171.903 20.3968V20.3968ZM169.137 19.5175C169.058 17.7516 168.49 16.2896 167.432 15.1314C166.374 13.9661 164.869 13.3834 162.917 13.3834C162.009 13.3834 161.169 13.5514 160.397 13.8874C159.618 14.2163 158.935 14.6703 158.349 15.2494C157.762 15.8213 157.294 16.4755 156.944 17.2118C156.601 17.9482 156.4 18.7168 156.343 19.5175H169.137Z" fill="#231F20"/>
<path d="M187.743 16.0322C187.342 15.253 186.735 14.6167 185.92 14.1234C185.105 13.6301 184.175 13.3834 183.131 13.3834C182.645 13.3834 182.163 13.437 181.684 13.5443C181.205 13.6515 180.776 13.8231 180.397 14.059C180.025 14.3021 179.725 14.6095 179.496 14.9813C179.274 15.3602 179.164 15.8034 179.164 16.311C179.164 17.1904 179.525 17.866 180.247 18.3378C180.969 18.8026 182.102 19.1958 183.646 19.5175C185.87 19.975 187.507 20.6363 188.558 21.5014C189.616 22.3736 190.145 23.5425 190.145 25.0081C190.145 26.0805 189.937 26.9849 189.523 27.7212C189.108 28.4576 188.568 29.0581 187.904 29.5228C187.231 29.9875 186.477 30.32 185.641 30.5202C184.797 30.7203 183.946 30.8204 183.089 30.8204C181.673 30.8204 180.297 30.5273 178.96 29.9411C177.623 29.3548 176.526 28.4326 175.668 27.1743L177.834 25.5765C178.313 26.4058 179.021 27.0992 179.957 27.6569C180.894 28.2217 181.923 28.5041 183.046 28.5041C183.639 28.5041 184.2 28.4504 184.729 28.3432C185.265 28.236 185.734 28.0465 186.134 27.7748C186.534 27.5103 186.856 27.1707 187.099 26.7561C187.342 26.3414 187.464 25.8267 187.464 25.2118C187.464 24.2253 186.988 23.4817 186.038 22.9813C185.087 22.488 183.718 22.0269 181.93 21.5979C181.366 21.4692 180.769 21.3048 180.139 21.1046C179.51 20.9044 178.931 20.6077 178.402 20.2145C177.866 19.8285 177.423 19.3423 177.072 18.7561C176.729 18.1698 176.558 17.4335 176.558 16.547C176.558 15.589 176.744 14.7668 177.115 14.0805C177.487 13.4013 177.988 12.8401 178.617 12.3968C179.246 11.9607 179.961 11.6354 180.761 11.421C181.562 11.2065 182.391 11.0992 183.249 11.0992C184.558 11.0992 185.834 11.3888 187.056 11.9786C188.286 12.5648 189.208 13.3941 189.823 14.4665L187.743 16.0322Z" fill="#231F20"/>
<path d="M198.895 4.36462C198.888 4.92226 198.688 5.38339 198.295 5.748C197.887 6.10546 197.444 6.28419 196.965 6.28419C196.486 6.28419 196.046 6.10546 195.646 5.748C195.239 5.38339 195.035 4.92226 195.035 4.36462C195.035 3.79983 195.239 3.33513 195.646 2.97052C196.046 2.61306 196.486 2.43433 196.965 2.43433C197.444 2.43433 197.887 2.61306 198.295 2.97052C198.688 3.33513 198.888 3.79983 198.895 4.36462ZM198.327 30.3485H195.603V11.5818H198.327V30.3485Z" fill="#231F20"/>
<path fill-rule="evenodd" clip-rule="evenodd" d="M206.584 34.1127C207.335 35.0778 208.354 35.8928 209.651 36.5577C210.953 37.2297 212.325 37.5657 213.769 37.5657C215.106 37.5657 216.243 37.3691 217.18 36.9759C218.109 36.5899 218.863 36.0644 219.442 35.3995C220.014 34.7275 220.436 33.9446 220.708 33.051C220.972 32.1573 221.105 31.2029 221.105 30.1877V26.6596H221.03C220.3 27.832 219.274 28.74 217.952 29.3834C216.629 30.0269 215.289 30.3486 213.93 30.3486C212.458 30.3486 211.128 30.1055 209.941 29.6194C208.747 29.1404 207.728 28.479 206.885 27.6354C206.048 26.7918 205.394 25.7838 204.922 24.6113C204.458 23.4317 204.225 22.1627 204.225 20.8043C204.225 19.4674 204.458 18.2092 204.922 17.0295C205.394 15.8571 206.048 14.8276 206.885 13.9411C207.728 13.0617 208.747 12.3682 209.941 11.8606C211.128 11.353 212.458 11.0992 213.93 11.0992C215.289 11.0992 216.626 11.421 217.941 12.0644C219.249 12.7007 220.279 13.6229 221.03 14.8311H221.105V11.5818H223.828V30.1877C223.828 31.2029 223.689 32.286 223.41 33.437C223.131 34.5809 222.609 35.6354 221.845 36.6006C221.087 37.5586 220.05 38.3593 218.735 39.0027C217.426 39.6462 215.728 39.9679 213.641 39.9679C211.903 39.9679 210.248 39.6354 208.676 38.9706C207.096 38.2985 205.744 37.3763 204.622 36.2038L206.584 34.1127ZM207.11 20.7185C207.11 21.7051 207.271 22.6381 207.593 23.5175C207.914 24.404 208.375 25.1797 208.976 25.8446C209.576 26.5166 210.316 27.0456 211.196 27.4317C212.082 27.8177 213.087 28.0108 214.209 28.0108C215.246 28.0108 216.207 27.8392 217.094 27.496C217.973 27.1457 218.735 26.6488 219.378 26.0054C220.021 25.362 220.522 24.5934 220.879 23.6998C221.244 22.8061 221.426 21.8124 221.426 20.7185C221.426 19.7248 221.244 18.7883 220.879 17.9089C220.522 17.0295 220.021 16.2538 219.378 15.5818C218.735 14.9169 217.973 14.3807 217.094 13.9732C216.207 13.5729 215.246 13.3727 214.209 13.3727C213.087 13.3727 212.082 13.5729 211.196 13.9732C210.316 14.3807 209.576 14.9169 208.976 15.5818C208.375 16.2538 207.914 17.0295 207.593 17.9089C207.271 18.7883 207.11 19.7248 207.11 20.7185V20.7185Z" fill="#231F20"/>
<path d="M233.373 11.5818C233.43 12.0894 233.469 12.6506 233.491 13.2655C233.519 13.8803 233.533 14.3879 233.533 14.7883H233.619C234.148 13.6873 235.017 12.7972 236.225 12.118C237.426 11.4388 238.695 11.0992 240.032 11.0992C242.413 11.0992 244.197 11.807 245.383 13.2226C246.57 14.6381 247.164 16.5076 247.164 18.8311V30.3486H244.44V19.9572C244.44 18.9706 244.361 18.0769 244.204 17.2762C244.039 16.4683 243.764 15.7784 243.378 15.2065C242.992 14.6345 242.47 14.1877 241.812 13.866C241.162 13.5443 240.34 13.3834 239.346 13.3834C238.624 13.3834 237.923 13.53 237.244 13.8231C236.565 14.1162 235.957 14.563 235.421 15.1636C234.885 15.7641 234.456 16.5255 234.134 17.4478C233.812 18.37 233.651 19.4603 233.651 20.7185V30.3486H230.928V15.7105C230.928 15.2029 230.913 14.5488 230.885 13.748C230.856 12.9402 230.817 12.2181 230.767 11.5818H233.373Z" fill="#231F20"/>
<path d="M286.606 15.8714C286.148 15.1493 285.487 14.5523 284.622 14.0805C283.75 13.6158 282.806 13.3834 281.791 13.3834C280.697 13.3834 279.707 13.5765 278.82 13.9625C277.941 14.3486 277.187 14.8848 276.558 15.5711C275.929 16.2503 275.446 17.051 275.11 17.9732C274.781 18.8955 274.617 19.8928 274.617 20.9652C274.617 22.0304 274.781 23.017 275.11 23.925C275.446 24.8329 275.921 25.6301 276.536 26.3164C277.151 26.9956 277.902 27.5282 278.788 27.9143C279.668 28.3075 280.654 28.5041 281.748 28.5041C282.96 28.5041 283.968 28.2789 284.804 27.8177C285.626 27.3602 286.306 26.7704 286.842 26.0483L288.89 27.5818C288.089 28.5684 287.106 29.3548 285.941 29.9411C284.776 30.5273 283.378 30.8204 281.748 30.8204C280.225 30.8204 278.849 30.5738 277.619 30.0805C276.39 29.5872 275.342 28.9009 274.477 28.0215C273.605 27.135 272.929 26.0912 272.45 24.8901C271.971 23.6891 271.732 22.3807 271.732 20.9652C271.732 19.5496 271.971 18.2378 272.45 17.0295C272.929 15.8285 273.605 14.7847 274.477 13.8982C275.342 13.0188 276.39 12.3325 277.619 11.8392C278.849 11.3459 280.225 11.0992 281.748 11.0992C283.006 11.0992 284.282 11.3709 285.576 11.9143C286.878 12.4647 287.929 13.2762 288.729 14.3486L286.606 15.8714Z" fill="#231F20"/>
<path fill-rule="evenodd" clip-rule="evenodd" d="M311.786 20.9652C311.786 22.3807 311.539 23.6891 311.046 24.8901C310.552 26.0912 309.862 27.135 308.976 28.0215C308.097 28.9009 307.042 29.5872 305.812 30.0805C304.583 30.5738 303.231 30.8204 301.759 30.8204C300.315 30.8204 298.981 30.5738 297.759 30.0805C296.522 29.5872 295.464 28.9009 294.584 28.0215C293.705 27.135 293.015 26.0912 292.515 24.8901C292.021 23.6891 291.775 22.3807 291.775 20.9652C291.775 19.5496 292.021 18.2378 292.515 17.0295C293.015 15.8285 293.705 14.7847 294.584 13.8982C295.464 13.0188 296.522 12.3325 297.759 11.8392C298.981 11.3459 300.315 11.0992 301.759 11.0992C303.231 11.0992 304.583 11.3459 305.812 11.8392C307.042 12.3325 308.097 13.0188 308.976 13.8982C309.862 14.7847 310.552 15.8285 311.046 17.0295C311.539 18.2378 311.786 19.5496 311.786 20.9652ZM308.901 20.9652C308.901 19.9214 308.733 18.9384 308.397 18.0161C308.068 17.0939 307.593 16.2896 306.971 15.6033C306.356 14.9241 305.609 14.3843 304.729 13.984C303.85 13.5836 302.86 13.3834 301.759 13.3834C300.665 13.3834 299.685 13.5836 298.82 13.984C297.948 14.3843 297.205 14.9241 296.59 15.6033C295.975 16.2896 295.5 17.0939 295.164 18.0161C294.828 18.9384 294.66 19.9214 294.66 20.9652C294.66 22.0018 294.828 22.9813 295.164 23.9035C295.5 24.8329 295.975 25.6372 296.59 26.3164C297.205 26.9956 297.948 27.5282 298.82 27.9143C299.685 28.3075 300.665 28.5041 301.759 28.5041C302.86 28.5041 303.85 28.3075 304.729 27.9143C305.609 27.5282 306.356 26.9956 306.971 26.3164C307.593 25.6372 308.068 24.8329 308.397 23.9035C308.733 22.9813 308.901 22.0018 308.901 20.9652Z" fill="#231F20"/>
<path d="M322.799 12.118C323.907 11.4388 325.144 11.0992 326.509 11.0992C327.01 11.0992 327.535 11.1529 328.086 11.2601C328.636 11.3673 329.172 11.5747 329.694 11.8821C330.209 12.1824 330.692 12.5899 331.131 13.1046C331.575 13.6122 331.957 14.2664 332.279 15.0671C332.922 13.7802 333.798 12.7972 334.906 12.118C336.014 11.4388 337.33 11.0992 338.853 11.0992C341.233 11.0992 343.017 11.807 344.204 13.2226C345.398 14.6381 345.995 16.5076 345.995 18.8311V30.3486H343.271V19.9572C343.271 17.9768 342.903 16.3861 342.166 15.185C341.43 13.984 340.179 13.3834 338.413 13.3834C337.426 13.3834 336.59 13.5836 335.904 13.984C335.228 14.3807 334.681 14.9169 334.263 15.5711C333.848 16.2217 333.548 16.9616 333.362 17.7909C333.176 18.6202 333.083 19.4782 333.083 20.3647V30.3486H330.349V19.3995C330.349 18.4916 330.284 17.6622 330.156 16.9116C330.02 16.1609 329.784 15.5246 329.448 15.0027C329.119 14.4808 328.658 14.0805 328.064 13.8017C327.478 13.5228 326.731 13.3834 325.823 13.3834C325.18 13.3834 324.533 13.53 323.882 13.8231C323.224 14.1162 322.635 14.563 322.113 15.1636C321.591 15.7641 321.169 16.5255 320.847 17.4478C320.525 18.37 320.365 19.4603 320.365 20.7185V30.3486H317.641V15.7105C317.641 15.2029 317.626 14.5488 317.598 13.748C317.576 12.9402 317.537 12.2181 317.48 11.5818H320.086C320.143 12.0894 320.182 12.6506 320.204 13.2655C320.232 13.8803 320.247 14.3879 320.247 14.7883H320.332C320.862 13.6873 321.684 12.7972 322.799 12.118V12.118Z" fill="#231F20"/>
</svg>
