<svg width="22" height="23" viewBox="0 0 22 23" fill="none" xmlns="http://www.w3.org/2000/svg">
<g clip-path="url(#clip0_148_2531)">
<path d="M13.7955 5.54008C14.6908 5.71476 15.5137 6.15265 16.1587 6.79769C16.8038 7.44273 17.2416 8.26557 17.4163 9.16091L13.7955 5.54008ZM13.7955 1.87341C15.6557 2.08006 17.3903 2.91307 18.7145 4.23567C20.0388 5.55827 20.874 7.29184 21.083 9.15175L13.7955 1.87341ZM20.1663 16.4667V19.2167C20.1674 19.472 20.1151 19.7247 20.0128 19.9586C19.9105 20.1926 19.7605 20.4025 19.5724 20.5751C19.3843 20.7477 19.1622 20.8791 18.9203 20.9609C18.6785 21.0427 18.4222 21.0731 18.168 21.0501C15.3473 20.7436 12.6377 19.7797 10.2572 18.2359C8.04233 16.8285 6.16455 14.9507 4.75715 12.7359C3.20797 10.3445 2.24388 7.62182 1.94299 4.78841C1.92008 4.53492 1.95021 4.27944 2.03145 4.03824C2.11269 3.79703 2.24326 3.57538 2.41486 3.3874C2.58645 3.19942 2.79531 3.04923 3.02813 2.94639C3.26095 2.84355 3.51263 2.79032 3.76715 2.79008H6.51715C6.96202 2.7857 7.3933 2.94324 7.7306 3.23332C8.06791 3.5234 8.28822 3.92624 8.35049 4.36675C8.46656 5.24681 8.68182 6.11091 8.99215 6.94258C9.11549 7.27068 9.14218 7.62725 9.06907 7.97005C8.99596 8.31286 8.82611 8.62751 8.57965 8.87675L7.41549 10.0409C8.72041 12.3358 10.6206 14.236 12.9155 15.5409L14.0797 14.3767C14.3289 14.1303 14.6435 13.9604 14.9863 13.8873C15.3291 13.8142 15.6857 13.8409 16.0138 13.9642C16.8455 14.2746 17.7096 14.4898 18.5897 14.6059C19.0349 14.6687 19.4416 14.893 19.7323 15.2361C20.023 15.5792 20.1775 16.0172 20.1663 16.4667Z" stroke="#ED401A" stroke-width="2" stroke-linecap="round" stroke-linejoin="round"/>
</g>
<defs>
<clipPath id="clip0_148_2531">
<rect width="22" height="22" fill="white" transform="translate(0 0.956421)"/>
</clipPath>
</defs>
</svg>
