<svg xmlns="http://www.w3.org/2000/svg" width="18" height="18" viewBox="0 0 18 18" fill="none">
<path d="M16.8748 1.13729C16.7591 1.02141 16.6218 0.929477 16.4706 0.866751C16.3194 0.804024 16.1572 0.771736 15.9935 0.771736C15.8298 0.771736 15.6677 0.804024 15.5165 0.866751C15.3653 0.929477 15.2279 1.02141 15.1123 1.13729L8.99979 7.23729L2.88729 1.12479C2.77156 1.00906 2.63418 0.917264 2.48297 0.854632C2.33177 0.792001 2.1697 0.759766 2.00604 0.759766C1.84238 0.759766 1.68032 0.792001 1.52911 0.854632C1.37791 0.917264 1.24052 1.00906 1.12479 1.12479C1.00906 1.24052 0.917264 1.37791 0.854632 1.52911C0.792001 1.68032 0.759766 1.84238 0.759766 2.00604C0.759766 2.1697 0.792001 2.33177 0.854632 2.48297C0.917264 2.63418 1.00906 2.77156 1.12479 2.88729L7.23729 8.99979L1.12479 15.1123C1.00906 15.228 0.917264 15.3654 0.854632 15.5166C0.792001 15.6678 0.759766 15.8299 0.759766 15.9935C0.759766 16.1572 0.792001 16.3193 0.854632 16.4705C0.917264 16.6217 1.00906 16.7591 1.12479 16.8748C1.24052 16.9905 1.37791 17.0823 1.52911 17.1449C1.68032 17.2076 1.84238 17.2398 2.00604 17.2398C2.1697 17.2398 2.33177 17.2076 2.48297 17.1449C2.63418 17.0823 2.77156 16.9905 2.88729 16.8748L8.99979 10.7623L15.1123 16.8748C15.228 16.9905 15.3654 17.0823 15.5166 17.1449C15.6678 17.2076 15.8299 17.2398 15.9935 17.2398C16.1572 17.2398 16.3193 17.2076 16.4705 17.1449C16.6217 17.0823 16.7591 16.9905 16.8748 16.8748C16.9905 16.7591 17.0823 16.6217 17.1449 16.4705C17.2076 16.3193 17.2398 16.1572 17.2398 15.9935C17.2398 15.8299 17.2076 15.6678 17.1449 15.5166C17.0823 15.3654 16.9905 15.228 16.8748 15.1123L10.7623 8.99979L16.8748 2.88729C17.3498 2.41229 17.3498 1.61229 16.8748 1.13729Z" fill="#808080"/>
</svg>