<svg width="20" height="20" viewBox="0 0 20 20" fill="none" xmlns="http://www.w3.org/2000/svg">
<path fill-rule="evenodd" clip-rule="evenodd" d="M5.13018 13.4575C2.68646 10.319 2.90718 5.77838 5.79237 2.89319C8.91656 -0.231 13.9819 -0.231 17.1061 2.89319C20.2303 6.01739 20.2303 11.0827 17.1061 14.2069C14.2209 17.0921 9.68023 17.3128 6.54175 14.8691C6.5282 14.8844 6.51411 14.8994 6.49947 14.914L2.25683 19.1567C1.86631 19.5472 1.23314 19.5472 0.842617 19.1567C0.452093 18.7661 0.452093 18.133 0.842617 17.7424L5.08526 13.4998C5.0999 13.4852 5.11489 13.4711 5.13018 13.4575ZM7.20658 4.30741C4.86343 6.65055 4.86343 10.4495 7.20658 12.7927C9.54972 15.1358 13.3487 15.1358 15.6919 12.7927C18.035 10.4495 18.035 6.65055 15.6919 4.30741C13.3487 1.96426 9.54972 1.96426 7.20658 4.30741Z" fill="#818181"/>
</svg>
