<svg width="361" height="415" viewBox="0 0 361 415" fill="none" xmlns="http://www.w3.org/2000/svg">
<path d="M96.6543 198.705H16.3363C9.21028 198.705 3.41211 192.899 3.41211 185.763V16.3623C3.41211 9.22612 9.21028 3.41968 16.3363 3.41968H162.638C169.764 3.41968 175.562 9.22612 175.562 16.3623V112.464C175.562 116.484 178.828 119.756 182.844 119.756H199.125V122.037H182.844C177.574 122.037 173.287 117.744 173.287 112.466V16.3623C173.287 10.4823 168.51 5.70024 162.64 5.70024H16.3363C10.4646 5.70024 5.68942 10.4844 5.68942 16.3623V185.763C5.68942 191.643 10.4668 196.425 16.3363 196.425H96.6543V198.705Z" fill="#895EE2"/>
<path d="M96.4406 193.28C98.8044 193.28 100.721 195.199 100.721 197.566C100.721 199.933 98.8044 201.852 96.4406 201.852C94.0768 201.852 92.1606 199.933 92.1606 197.566C92.1606 195.199 94.0768 193.28 96.4406 193.28Z" fill="#895EE2"/>
<path d="M191.58 130.217L190.027 128.549L198.249 120.898L190.027 113.244L191.58 111.574L201.591 120.898L191.58 130.217Z" fill="#895EE2"/>
<path d="M175.562 139.132H173.285V185.763H175.562V139.132Z" fill="#895EE2"/>
<path d="M9.10493 53.8736H0V16.3624C0 7.33981 7.32935 0 16.337 0H92.5804V9.11791H16.337C12.349 9.11791 9.10493 12.3666 9.10493 16.3603V53.8736Z" fill="#895EE2"/>
<path d="M82.3219 216.292H162.638C169.764 216.292 175.562 222.098 175.562 229.235V275.867H173.285V229.235C173.285 223.355 168.508 218.572 162.638 218.572H82.3219V216.292Z" fill="#ED401A"/>
<path d="M82.5371 221.717C80.1733 221.717 78.2572 219.798 78.2572 217.431C78.2572 215.064 80.1733 213.145 82.5371 213.145C84.9008 213.145 86.8169 215.064 86.8169 217.431C86.8169 219.798 84.9008 221.717 82.5371 221.717Z" fill="#ED401A"/>
<path d="M3.41757 229.235H5.69485V398.637C5.69485 404.518 10.4722 409.3 16.3416 409.3H162.638C168.51 409.3 173.285 404.515 173.285 398.637V312.341H175.562V398.637C175.562 405.774 169.764 411.58 162.638 411.58H16.3416C9.21565 411.58 3.41757 405.774 3.41757 398.637V229.235Z" fill="#ED401A"/>
<path d="M0.00172424 361.126H9.10651V398.637C9.10651 402.631 12.3505 405.88 16.3384 405.88H92.5806V415H16.3384C7.3288 415 -0.000442505 407.66 -0.000442505 398.637V361.126H0.00172424Z" fill="#ED401A"/>
<path d="M292.695 198.882V196.643H236.261C230.983 196.643 226.691 200.857 226.691 206.037V222.04H228.971V206.037C228.971 202.092 232.242 198.88 236.263 198.88H292.697L292.695 198.882Z" fill="#B983D2"/>
<path d="M237.151 214.626L235.484 213.099L227.832 221.18L220.179 213.099L218.509 214.626L227.832 224.466L237.151 214.626Z" fill="#B983D2"/>
<path d="M264.315 198.706H344.634C351.76 198.706 357.559 192.899 357.559 185.763V139.132H355.281V185.763C355.281 191.643 350.504 196.425 344.634 196.425H264.315V198.706Z" fill="#B983D2"/>
<path d="M185.408 102.658H187.685V16.3623C187.685 10.4823 192.463 5.70024 198.332 5.70024H344.634C350.506 5.70024 355.281 10.4844 355.281 16.3623V102.658H357.559V16.3623C357.559 9.22612 351.76 3.41968 344.634 3.41968H198.332C191.206 3.41968 185.408 9.22612 185.408 16.3623V102.658Z" fill="#B983D2"/>
<path d="M351.866 53.8736H360.971V16.3624C360.971 7.33981 353.641 0 344.631 0H268.387V9.11791H344.631C348.619 9.11791 351.863 12.3666 351.863 16.3603V53.8736H351.866Z" fill="#B983D2"/>
<path d="M264.005 212.854H344.322C351.448 212.854 357.247 218.66 357.247 225.797V272.429H354.969V225.797C354.969 219.917 350.192 215.134 344.322 215.134H264.005V212.854Z" fill="#C75C89"/>
<path d="M264.221 218.279C261.857 218.279 259.941 216.36 259.941 213.993C259.941 211.626 261.857 209.707 264.221 209.707C266.585 209.707 268.501 211.626 268.501 213.993C268.501 216.36 266.585 218.279 264.221 218.279Z" fill="#C75C89"/>
<path d="M185.1 272.429H187.377V225.797H185.1V272.429Z" fill="#C75C89"/>
<path d="M161.539 289.526H177.82C183.09 289.526 187.376 293.818 187.376 299.096V395.2C187.376 401.08 192.154 405.862 198.023 405.862H344.322C350.194 405.862 354.969 401.078 354.969 395.2V308.903H357.247V395.2C357.247 402.336 351.448 408.142 344.322 408.142H198.023C190.897 408.142 185.099 402.336 185.099 395.2V299.096C185.099 295.077 181.833 291.804 177.817 291.804H161.537V289.524L161.539 289.526Z" fill="#C75C89"/>
<path d="M169.084 281.343L170.637 283.011L162.415 290.663L170.637 298.317L169.084 299.987L159.073 290.663L169.084 281.343Z" fill="#C75C89"/>
<path d="M360.968 357.533H351.864V395.354C351.864 399.38 348.62 402.656 344.632 402.656H268.39V411.851H344.632C353.641 411.851 360.971 404.451 360.971 395.354V357.533H360.968Z" fill="#C75C89"/>
</svg>
