<?xml version="1.0" standalone="no"?>
<!DOCTYPE svg PUBLIC "-//W3C//DTD SVG 20010904//EN"
 "http://www.w3.org/TR/2001/REC-SVG-20010904/DTD/svg10.dtd">
<svg version="1.0" xmlns="http://www.w3.org/2000/svg"
 width="308.000000pt" height="71.000000pt" viewBox="0 0 308.000000 71.000000"
 preserveAspectRatio="xMidYMid meet">

<g transform="translate(0.000000,71.000000) scale(0.100000,-0.100000)"
fill="#000000" stroke="none">
<path d="M30 360 l0 -330 330 0 330 0 0 330 0 330 -330 0 -330 0 0 -330z m650
0 l0 -320 -320 0 -320 0 0 320 0 320 320 0 320 0 0 -320z"/>
<path d="M228 573 l82 -4 0 -104 0 -105 -45 0 -45 0 0 79 c0 75 1 80 23 84 12
2 -5 4 -38 4 -33 1 -52 -1 -42 -4 15 -4 17 -21 17 -173 0 -152 -2 -169 -17
-173 -10 -3 9 -5 42 -5 45 -1 54 1 38 8 -21 9 -23 16 -23 84 0 82 10 94 64 80
26 -6 26 -7 26 -99 0 -81 -2 -94 -17 -98 -10 -3 -1 -5 20 -6 l37 -1 0 220 0
220 -102 -2 -103 -2 83 -3z"/>
<path d="M370 360 l0 -220 38 1 c20 1 29 3 20 6 -16 4 -18 17 -18 99 0 55 4
94 10 95 6 1 19 1 30 1 11 0 25 0 30 -1 6 -1 10 -35 10 -80 0 -67 -3 -80 -17
-84 -10 -3 7 -5 37 -6 42 0 51 2 38 10 -16 9 -18 28 -18 170 0 156 0 160 23
169 16 7 7 9 -38 8 -33 0 -52 -2 -42 -5 14 -4 17 -17 17 -84 l0 -79 -40 0 -40
0 0 105 0 104 83 4 82 3 -102 2 -103 2 0 -220z"/>
<path d="M2974 526 c-8 -21 3 -49 16 -41 5 3 10 15 10 25 0 25 -18 36 -26 16z
m13 -28 c-3 -7 -5 -2 -5 12 0 14 2 19 5 13 2 -7 2 -19 0 -25z"/>
<path d="M3016 533 c-3 -3 -6 -11 -6 -17 0 -6 5 -4 10 4 8 12 10 10 10 -8 0
-15 -4 -21 -12 -16 -7 4 -8 3 -4 -5 10 -16 26 -4 26 19 0 20 -13 33 -24 23z"/>
<path d="M800 473 c0 -63 10 -63 25 0 8 35 14 43 38 45 l27 3 0 -170 c0 -153
-2 -170 -17 -174 -10 -3 11 -5 47 -5 48 -1 59 2 43 8 -23 9 -23 13 -23 175 l0
165 24 0 c29 0 44 -17 52 -59 11 -53 24 -46 24 13 l0 56 -120 0 -120 0 0 -57z"/>
<path d="M1845 523 c20 -4 21 -10 18 -170 -1 -123 -5 -168 -15 -174 -8 -5 12
-8 47 -8 33 1 52 3 43 6 -15 4 -18 17 -18 89 l0 84 70 0 70 0 0 -84 c0 -72 -3
-85 -17 -89 -10 -3 11 -5 47 -5 36 0 57 2 48 5 -16 4 -18 21 -18 173 0 152 2
169 18 173 9 3 -12 5 -48 5 -36 0 -57 -2 -47 -5 14 -4 17 -16 17 -79 l0 -74
-70 0 -70 0 0 74 c0 63 3 75 18 79 9 3 -12 5 -48 4 -36 0 -56 -2 -45 -4z"/>
<path d="M1115 442 c-26 -5 -54 -30 -71 -64 -21 -40 -18 -127 5 -164 25 -41
80 -61 121 -44 27 11 60 62 60 92 -1 7 -11 -7 -23 -32 -21 -42 -25 -45 -62
-45 -48 0 -65 25 -65 98 l0 47 75 0 c86 0 93 10 53 70 -23 34 -57 49 -93 42z
m57 -47 c12 -45 4 -55 -47 -55 -40 0 -45 2 -45 23 0 65 76 92 92 32z"/>
<path d="M1365 442 c-11 -2 -27 -11 -36 -18 -14 -13 -17 -13 -22 1 -7 17 -67
22 -67 5 0 -5 5 -10 10 -10 16 0 13 -327 -2 -333 -7 -3 12 -5 42 -5 30 0 47 2
38 5 -14 4 -18 15 -18 59 l0 55 26 -20 c35 -28 56 -26 93 5 92 77 42 278 -64
256z m41 -38 c20 -30 23 -168 5 -202 -18 -34 -67 -30 -86 8 -17 34 -20 135 -4
177 19 50 59 58 85 17z"/>
<path d="M2244 442 c-32 -5 -74 -55 -84 -98 -20 -90 33 -184 105 -184 52 0 97
50 110 123 8 40 -14 116 -40 137 -18 15 -65 27 -91 22z m56 -22 c16 -10 28
-158 16 -205 -13 -50 -73 -56 -94 -9 -18 38 -15 175 4 202 16 23 48 28 74 12z"/>
<path d="M2631 434 c-17 -7 -31 -19 -31 -26 0 -7 -7 -2 -16 10 -18 27 -84 31
-105 6 -11 -14 -13 -14 -21 0 -10 17 -68 22 -68 6 0 -5 5 -10 10 -10 16 0 13
-237 -2 -243 -7 -3 12 -5 42 -5 30 0 47 2 38 5 -16 4 -18 17 -18 98 0 100 11
141 42 151 39 12 48 -11 48 -131 0 -100 -2 -114 -17 -118 -10 -3 7 -5 37 -5
30 0 49 2 43 5 -9 3 -13 35 -13 109 0 91 3 107 20 124 49 49 70 14 70 -119 0
-85 -3 -102 -17 -110 -14 -8 -5 -10 37 -10 42 0 51 2 38 10 -15 9 -18 26 -18
118 0 113 -7 134 -46 143 -12 3 -35 -1 -53 -8z"/>
<path d="M1554 425 c-48 -33 -68 -124 -40 -188 18 -43 46 -67 88 -73 45 -8 86
26 93 76 l5 35 -11 -30 c-18 -47 -39 -65 -75 -65 -41 0 -53 20 -61 96 l-6 54
77 0 c70 0 76 2 76 20 0 29 -26 76 -45 84 -29 11 -80 6 -101 -9z m86 -14 c5
-11 10 -31 10 -45 0 -24 -3 -26 -50 -26 -55 0 -57 4 -36 55 12 27 21 35 40 35
15 0 30 -8 36 -19z"/>
<path d="M2821 424 c-30 -21 -51 -73 -51 -124 0 -72 41 -127 102 -136 45 -8
86 26 93 76 l5 35 -11 -30 c-22 -58 -55 -79 -96 -64 -24 9 -43 61 -43 117 l0
32 75 0 c69 0 75 2 75 21 0 25 -18 60 -39 76 -23 18 -83 16 -110 -3z m89 -13
c5 -11 10 -31 10 -45 0 -24 -3 -26 -50 -26 -56 0 -61 9 -35 60 18 35 58 41 75
11z"/>
</g>
</svg>
