<?xml version="1.0" encoding="UTF-8"?> <svg xmlns="http://www.w3.org/2000/svg" viewBox="0 0 106.3 106.3"> <title>tilia-logo-black</title> <g id="Layer_2" data-name="Layer 2"> <g id="katman_1" data-name="katman 1"> <path d="M106.3,106.3H0V0H106.3V106.3ZM3.8,102.5h98.7V3.8H3.8Z"></path> <path d="M29.1,35.4H21.3c-.9,0-1.4-.5-1.4-1.5v-.3c0-1,.5-1.5,1.4-1.5H40.2c.9,0,1.4.5,1.4,1.5v.3c0,1-.5,1.5-1.4,1.5H32.4v37c0,1-.4,1.5-1.3,1.5h-.6c-.9,0-1.4-.5-1.4-1.5Z"></path> <path d="M37.9,43.3V41.5a1.06,1.06,0,0,1,1.2-1.2h1.2a1.06,1.06,0,0,1,1.2,1.2v1.8a1.06,1.06,0,0,1-1.2,1.2H39.1A1.06,1.06,0,0,1,37.9,43.3Zm.1,7.1a1.06,1.06,0,0,1,1.2-1.2h.9a1.06,1.06,0,0,1,1.2,1.2V72.7a1.06,1.06,0,0,1-1.2,1.2h-.9A1.06,1.06,0,0,1,38,72.7Z"></path> <path d="M46.6,40.5a1.06,1.06,0,0,1,1.2-1.2h.9a1.06,1.06,0,0,1,1.2,1.2v27c0,3.1,1.5,3.5,2.6,3.6.6,0,1,.3,1,1.1v.7c0,.7-.3,1.2-1.3,1.2-2,0-5.7-.6-5.7-6.1l.1-27.5Z"></path> <path d="M56,43.3V41.5a1.06,1.06,0,0,1,1.2-1.2h1.3a1.06,1.06,0,0,1,1.2,1.2v1.8a1.06,1.06,0,0,1-1.2,1.2H57.3C56.4,44.5,56,44.1,56,43.3Zm.1,7.1a1.06,1.06,0,0,1,1.2-1.2h.9a1.06,1.06,0,0,1,1.2,1.2V72.7a1.06,1.06,0,0,1-1.2,1.2h-.9a1.06,1.06,0,0,1-1.2-1.2Z"></path> <path d="M77.7,58.8h1.4V58c0-4.8-2.6-6.4-6.1-6.4a11.28,11.28,0,0,0-6,1.7,1.28,1.28,0,0,1-1.7-.4l-.3-.5a1.17,1.17,0,0,1,.3-1.7,14.9,14.9,0,0,1,7.9-2.2c5.9,0,9.2,3.3,9.2,9.5V72.6a1.06,1.06,0,0,1-1.2,1.2h-.7a1.06,1.06,0,0,1-1.2-1.2v-2a17,17,0,0,1,.1-1.9h-.1s-2.2,5.7-8.4,5.7c-4.2,0-8.4-2.5-8.4-7.2C62.5,59.2,72.9,58.8,77.7,58.8Zm-6.2,13c4.8,0,7.6-4.9,7.6-9.3V61.3H77.7c-3.9,0-11.7.1-11.7,5.7C66,69.3,67.8,71.8,71.5,71.8Z"></path> </g> </g> </svg> 