<svg width="421" height="33" viewBox="0 0 421 33" fill="none" xmlns="http://www.w3.org/2000/svg">
<line y1="1" x2="421" y2="1" stroke="#D2D2D2" stroke-width="2"/>
<g clip-path="url(#clip0_627_4750)">
<path d="M30 2.98085V32.0197C30 33.3249 32.02 33.3249 32.02 32.0197V2.98085C32.02 1.67566 30 1.67566 30 2.98085Z" fill="#D2D2D2"/>
<path d="M36.9492 2.98036V13.618C36.9492 14.9232 38.9692 14.9232 38.9692 13.618V2.98036C38.9692 1.67517 36.9492 1.67517 36.9492 2.98036Z" fill="#D2D2D2"/>
<path d="M50.8457 2.98036V13.618C50.8457 14.9232 52.8657 14.9232 52.8657 13.618V2.98036C52.8657 1.67517 50.8457 1.67517 50.8457 2.98036Z" fill="#D2D2D2"/>
<path d="M64.7441 2.98036V13.618C64.7441 14.9232 66.7642 14.9232 66.7642 13.618V2.98036C66.7642 1.67517 64.7441 1.67517 64.7441 2.98036Z" fill="#D2D2D2"/>
<path d="M78.6426 2.98036V13.618C78.6426 14.9232 80.6626 14.9232 80.6626 13.618V2.98036C80.6626 1.67517 78.6426 1.67517 78.6426 2.98036Z" fill="#D2D2D2"/>
<path d="M43.8984 2.98036V19.9952C43.8984 21.3004 45.9185 21.3004 45.9185 19.9952V2.98036C45.9185 1.67517 43.8984 1.67517 43.8984 2.98036Z" fill="#D2D2D2"/>
<path d="M57.7949 2.98036V19.9952C57.7949 21.3004 59.8149 21.3004 59.8149 19.9952V2.98036C59.8149 1.67517 57.7949 1.67517 57.7949 2.98036Z" fill="#D2D2D2"/>
<path d="M71.6934 2.98036V19.9952C71.6934 21.3004 73.7134 21.3004 73.7134 19.9952V2.98036C73.7134 1.67517 71.6934 1.67517 71.6934 2.98036Z" fill="#D2D2D2"/>
<path d="M86.3713 2C85.8663 2 85.3613 2.32461 85.3613 2.98058V32.0194C85.3613 32.6754 85.8663 33 86.3713 33C86.8763 33 87.3813 32.6754 87.3813 32.0194V2.98058C87.3813 2.32461 86.8763 2 86.3713 2Z" fill="#D2D2D2"/>
<path d="M92.3105 2.98036V13.618C92.3105 14.9232 94.3306 14.9232 94.3306 13.618V2.98036C94.3306 1.67517 92.3105 1.67517 92.3105 2.98036Z" fill="#D2D2D2"/>
<path d="M106.209 2.98036V13.618C106.209 14.9232 108.229 14.9232 108.229 13.618V2.98036C108.229 1.67517 106.209 1.67517 106.209 2.98036Z" fill="#D2D2D2"/>
<path d="M120.105 2.98036V13.618C120.105 14.9232 122.125 14.9232 122.125 13.618V2.98036C122.125 1.67517 120.105 1.67517 120.105 2.98036Z" fill="#D2D2D2"/>
<path d="M134.004 2.98036V13.618C134.004 14.9232 136.024 14.9232 136.024 13.618V2.98036C136.024 1.67517 134.004 1.67517 134.004 2.98036Z" fill="#D2D2D2"/>
<path d="M99.2598 2.98036V19.9952C99.2598 21.3004 101.28 21.3004 101.28 19.9952V2.98036C101.28 1.67517 99.2598 1.67517 99.2598 2.98036Z" fill="#D2D2D2"/>
<path d="M113.158 2.98036V19.9952C113.158 21.3004 115.178 21.3004 115.178 19.9952V2.98036C115.178 1.67517 113.158 1.67517 113.158 2.98036Z" fill="#D2D2D2"/>
<path d="M127.055 2.98036V19.9952C127.055 21.3004 129.075 21.3004 129.075 19.9952V2.98036C129.075 1.67517 127.055 1.67517 127.055 2.98036Z" fill="#D2D2D2"/>
<path d="M141.74 2C141.235 2 140.73 2.32461 140.73 2.98058V32.0194C140.73 32.6754 141.235 33 141.74 33C142.245 33 142.75 32.6754 142.75 32.0194V2.98058C142.75 2.32461 142.245 2 141.74 2Z" fill="#D2D2D2"/>
<path d="M147.68 2.98036V13.618C147.68 14.9232 149.7 14.9232 149.7 13.618V2.98036C149.7 1.67517 147.68 1.67517 147.68 2.98036Z" fill="#D2D2D2"/>
<path d="M161.576 2.98036V13.618C161.576 14.9232 163.596 14.9232 163.596 13.618V2.98036C163.596 1.67517 161.576 1.67517 161.576 2.98036Z" fill="#D2D2D2"/>
<path d="M175.475 2.98036V13.618C175.475 14.9232 177.495 14.9232 177.495 13.618V2.98036C177.495 1.67517 175.475 1.67517 175.475 2.98036Z" fill="#D2D2D2"/>
<path d="M189.373 2.98036V13.618C189.373 14.9232 191.393 14.9232 191.393 13.618V2.98036C191.393 1.67517 189.373 1.67517 189.373 2.98036Z" fill="#D2D2D2"/>
<path d="M154.629 2.98036V19.9952C154.629 21.3004 156.649 21.3004 156.649 19.9952V2.98036C156.649 1.67517 154.629 1.67517 154.629 2.98036Z" fill="#D2D2D2"/>
<path d="M168.525 2.98036V19.9952C168.525 21.3004 170.545 21.3004 170.545 19.9952V2.98036C170.545 1.67517 168.525 1.67517 168.525 2.98036Z" fill="#D2D2D2"/>
<path d="M182.424 2.98036V19.9952C182.424 21.3004 184.444 21.3004 184.444 19.9952V2.98036C184.444 1.67517 182.424 1.67517 182.424 2.98036Z" fill="#D2D2D2"/>
<path d="M197.102 2C196.597 2 196.092 2.32461 196.092 2.98058V32.0194C196.092 32.6754 196.597 33 197.102 33C197.607 33 198.112 32.6754 198.112 32.0194V2.98058C198.112 2.32461 197.607 2 197.102 2Z" fill="#D2D2D2"/>
<path d="M203.041 2.98036V13.618C203.041 14.9232 205.061 14.9232 205.061 13.618V2.98036C205.061 1.67517 203.041 1.67517 203.041 2.98036Z" fill="#D2D2D2"/>
<path d="M216.939 2.98036V13.618C216.939 14.9232 218.959 14.9232 218.959 13.618V2.98036C218.959 1.67517 216.939 1.67517 216.939 2.98036Z" fill="#D2D2D2"/>
<path d="M230.836 2.98036V13.618C230.836 14.9232 232.856 14.9232 232.856 13.618V2.98036C232.856 1.67517 230.836 1.67517 230.836 2.98036Z" fill="#D2D2D2"/>
<path d="M244.734 2.98036V13.618C244.734 14.9232 246.754 14.9232 246.754 13.618V2.98036C246.754 1.67517 244.734 1.67517 244.734 2.98036Z" fill="#D2D2D2"/>
<path d="M209.99 2.98036V19.9952C209.99 21.3004 212.01 21.3004 212.01 19.9952V2.98036C212.01 1.67517 209.99 1.67517 209.99 2.98036Z" fill="#D2D2D2"/>
<path d="M223.887 2.98036V19.9952C223.887 21.3004 225.907 21.3004 225.907 19.9952V2.98036C225.907 1.67517 223.887 1.67517 223.887 2.98036Z" fill="#D2D2D2"/>
<path d="M237.785 2.98036V19.9952C237.785 21.3004 239.805 21.3004 239.805 19.9952V2.98036C239.805 1.67517 237.785 1.67517 237.785 2.98036Z" fill="#D2D2D2"/>
<path d="M252.471 2C251.966 2 251.461 2.32461 251.461 2.98058V32.0194C251.461 32.6754 251.966 33 252.471 33C252.976 33 253.481 32.6754 253.481 32.0194V2.98058C253.481 2.32461 252.976 2 252.471 2Z" fill="#D2D2D2"/>
<path d="M258.41 2.98036V13.618C258.41 14.9232 260.43 14.9232 260.43 13.618V2.98036C260.43 1.67517 258.41 1.67517 258.41 2.98036Z" fill="#D2D2D2"/>
<path d="M272.307 2.98036V13.618C272.307 14.9232 274.327 14.9232 274.327 13.618V2.98036C274.327 1.67517 272.307 1.67517 272.307 2.98036Z" fill="#D2D2D2"/>
<path d="M286.205 2.98036V13.618C286.205 14.9232 288.225 14.9232 288.225 13.618V2.98036C288.225 1.67517 286.205 1.67517 286.205 2.98036Z" fill="#D2D2D2"/>
<path d="M300.104 2.98036V13.618C300.104 14.9232 302.124 14.9232 302.124 13.618V2.98036C302.124 1.67517 300.104 1.67517 300.104 2.98036Z" fill="#D2D2D2"/>
<path d="M265.359 2.98036V19.9952C265.359 21.3004 267.379 21.3004 267.379 19.9952V2.98036C267.379 1.67517 265.359 1.67517 265.359 2.98036Z" fill="#D2D2D2"/>
<path d="M279.256 2.98036V19.9952C279.256 21.3004 281.276 21.3004 281.276 19.9952V2.98036C281.276 1.67517 279.256 1.67517 279.256 2.98036Z" fill="#D2D2D2"/>
<path d="M293.154 2.98036V19.9952C293.154 21.3004 295.174 21.3004 295.174 19.9952V2.98036C295.174 1.67517 293.154 1.67517 293.154 2.98036Z" fill="#D2D2D2"/>
<path d="M307.832 2C307.327 2 306.822 2.32461 306.822 2.98058V32.0194C306.822 32.6754 307.327 33 307.832 33C308.337 33 308.842 32.6754 308.842 32.0194V2.98058C308.842 2.32461 308.337 2 307.832 2Z" fill="#D2D2D2"/>
<path d="M313.771 2.98036V13.618C313.771 14.9232 315.791 14.9232 315.791 13.618V2.98036C315.791 1.67517 313.771 1.67517 313.771 2.98036Z" fill="#D2D2D2"/>
<path d="M327.67 2.98036V13.618C327.67 14.9232 329.69 14.9232 329.69 13.618V2.98036C329.69 1.67517 327.67 1.67517 327.67 2.98036Z" fill="#D2D2D2"/>
<path d="M341.566 2.98036V13.618C341.566 14.9232 343.586 14.9232 343.586 13.618V2.98036C343.586 1.67517 341.566 1.67517 341.566 2.98036Z" fill="#D2D2D2"/>
<path d="M355.465 2.98036V13.618C355.465 14.9232 357.485 14.9232 357.485 13.618V2.98036C357.485 1.67517 355.465 1.67517 355.465 2.98036Z" fill="#D2D2D2"/>
<path d="M320.721 2.98036V19.9952C320.721 21.3004 322.741 21.3004 322.741 19.9952V2.98036C322.741 1.67517 320.721 1.67517 320.721 2.98036Z" fill="#D2D2D2"/>
<path d="M334.617 2.98036V19.9952C334.617 21.3004 336.637 21.3004 336.637 19.9952V2.98036C336.637 1.67517 334.617 1.67517 334.617 2.98036Z" fill="#D2D2D2"/>
<path d="M348.516 2.98036V19.9952C348.516 21.3004 350.536 21.3004 350.536 19.9952V2.98036C350.536 1.67517 348.516 1.67517 348.516 2.98036Z" fill="#D2D2D2"/>
<path d="M363.196 2C362.691 2 362.186 2.32461 362.186 2.98058V32.0194C362.186 32.6754 362.691 33 363.196 33C363.701 33 364.206 32.6754 364.206 32.0194V2.98058C364.206 2.32461 363.701 2 363.196 2Z" fill="#D2D2D2"/>
<path d="M369.133 2.98036V13.618C369.133 14.9232 371.153 14.9232 371.153 13.618V2.98036C371.153 1.67517 369.133 1.67517 369.133 2.98036Z" fill="#D2D2D2"/>
<path d="M383.031 2.98036V13.618C383.031 14.9232 385.051 14.9232 385.051 13.618V2.98036C385.051 1.67517 383.031 1.67517 383.031 2.98036Z" fill="#D2D2D2"/>
<path d="M376.082 2.98036V19.9952C376.082 21.3004 378.102 21.3004 378.102 19.9952V2.98036C378.102 1.67517 376.082 1.67517 376.082 2.98036Z" fill="#D2D2D2"/>
<path d="M389.98 2.98036V19.9952C389.98 21.3004 392 21.3004 392 19.9952V2.98036C392 1.67517 389.98 1.67517 389.98 2.98036Z" fill="#D2D2D2"/>
</g>
<defs>
<clipPath id="clip0_627_4750">
<rect width="362" height="31" fill="white" transform="translate(30 2)"/>
</clipPath>
</defs>
</svg>
