<svg width="407" height="180" viewBox="0 0 407 180" fill="none" xmlns="http://www.w3.org/2000/svg">
<path d="M300.383 29.4517C300.286 29.3542 300.189 29.2478 300.101 29.1503C299.6 28.5476 299.221 27.6877 298.93 26.7659C298.64 25.844 298.446 24.8778 298.323 24.0623L298.208 23.2202C298.481 22.9631 298.754 22.6794 299.01 22.3958C299.265 22.1033 299.512 21.8019 299.74 21.4828C300.189 20.8534 300.55 20.1797 300.735 19.5149C300.779 19.3554 300.815 19.1603 300.85 18.9565C300.85 20.0556 300.832 21.1459 300.797 22.2008C300.771 23.2556 300.726 24.2661 300.674 25.1969C300.577 27.0584 300.462 28.583 300.374 29.4606L300.383 29.4517ZM287.159 18.9565C287.194 19.1603 287.229 19.3465 287.274 19.5061C287.458 20.162 287.802 20.8091 288.233 21.4296C288.453 21.7398 288.691 22.0324 288.938 22.3249C289.184 22.6085 289.448 22.8833 289.712 23.1404L289.607 24.0889C289.492 24.9044 289.316 25.8706 289.034 26.7836C288.753 27.6966 288.392 28.5564 287.89 29.1503C287.802 29.2478 287.714 29.3454 287.617 29.4429C287.538 28.5653 287.414 27.0407 287.326 25.1792C287.282 24.2484 287.238 23.2468 287.203 22.1919C287.177 21.1459 287.15 20.0468 287.15 18.9565H287.159ZM322.588 85.8549C322.588 85.8549 322.13 84.5341 320.395 78.8965C318.661 73.2499 316.293 64.8555 315.932 63.6145C315.571 62.3735 314.426 43.0495 313.105 38.3692C311.785 33.6888 308.369 33.2279 307.594 32.6783C306.819 32.1287 305.815 32.3592 305.586 32.3592C304.706 31.455 303.799 31.4284 303.799 31.4284C303.799 31.4284 303.826 31.5348 303.861 31.7298C302.796 31.2512 301.466 30.5154 300.498 29.567C300.955 26.1099 301.448 21.8196 301.642 18.2207C301.642 18.1321 301.642 18.0523 301.651 17.9637C301.959 17.2811 302.681 15.8894 303.13 15.0651C303.438 14.5066 303.236 13.8507 302.857 13.505H302.919C302.919 13.505 305.076 7.69002 302.214 3.51496C299.309 -0.731009 294 0.0579083 294 0.0579083C294 0.0579083 288.682 -0.731009 285.786 3.51496C282.924 7.69002 285.081 13.4961 285.081 13.4961H285.143C284.773 13.8507 284.562 14.5066 284.87 15.0651C285.319 15.8894 286.041 17.2811 286.349 17.9637C286.349 18.0523 286.349 18.1321 286.358 18.2207C286.543 21.8196 287.045 26.101 287.502 29.5581C286.543 30.5066 285.204 31.2423 284.139 31.721C284.174 31.526 284.201 31.4284 284.201 31.4284C284.201 31.4284 283.294 31.4462 282.414 32.3592C282.185 32.3592 281.181 32.1287 280.406 32.6783C279.631 33.2279 276.215 33.6888 274.895 38.3692C273.574 43.0495 272.429 62.3735 272.068 63.6145C271.707 64.8555 269.33 73.2499 267.605 78.8965C265.87 84.543 265.412 85.8549 265.412 85.8549C264.523 87.3707 263 94.1961 263 94.1961C263 94.1961 263 94.8698 263.07 94.9851C263.141 95.1003 263.299 95.5789 263.387 95.8094C263.475 96.0399 263.933 96.4033 264.004 96.4742C264.074 96.5452 264.189 96.8643 264.417 97.1657C264.646 97.467 264.946 97.6266 264.946 97.6266C264.946 97.6266 265.65 98.9119 266.037 99.231C266.425 99.5501 267.385 100.649 268.503 101.598C269.621 102.537 269.577 101.394 269.005 100.499C268.89 100.312 268.732 100.126 268.564 99.9313C269.013 99.5679 269.947 98.8853 269.947 98.8853C269.947 98.8853 270.581 98.2648 270.237 97.8039C269.894 97.3429 268.388 98.8853 268.388 98.8853C268.388 98.8853 269.401 97.6621 269.427 97.4759C269.462 97.2898 269.066 96.9618 268.573 97.3873C268.08 97.8216 267.561 98.3712 267.561 98.3712C267.561 98.3712 268.195 97.5645 268.265 97.3429C268.335 97.1213 267.974 96.8288 267.376 97.4139C267.27 97.5202 267.164 97.5734 267.059 97.6C267.164 96.492 267.666 93.3895 267.93 93.0172C268.23 92.6006 268.811 93.1945 268.899 93.6288C268.987 94.0632 268.82 96.5274 269.665 97.3075C270.51 98.0875 270.581 96.9884 270.44 96.2792C270.299 95.5701 270.396 94.3291 270.598 93.0172C270.801 91.7053 270.598 90.5352 269.964 89.3208C269.33 88.0975 269.075 86.4577 269.075 86.4577C269.075 86.4577 271.17 82.5219 273.363 78.8521C275.555 75.1823 276.876 71.9203 277.281 70.174C277.694 68.4278 278.196 66.2738 278.372 65.4937C278.425 65.2633 278.733 64.173 279.13 62.7635L281.436 54.7325C281.771 55.2023 282.061 55.548 282.246 55.7519C282.317 55.8849 282.387 56.0267 282.458 56.1685C282.933 57.1968 283.285 58.491 283.329 58.6771C283.329 58.7126 283.338 58.7569 283.347 58.7924C283.435 60.3081 283.576 63.3131 283.03 65.6267C282.871 66.3092 281.022 68.9153 278.874 75.7231C278.055 77.2743 277.668 79.5613 277.562 80.6693C275.969 88.2128 275.678 97.7418 277.439 104.488C278.901 110.099 280.926 116.445 281.965 119.982C282.211 120.975 282.458 121.959 282.616 122.473C282.625 122.553 282.634 122.624 282.634 122.668C282.634 123.297 282.563 124.397 282.572 125.496C282.484 126.799 282.995 131.213 283.012 131.328C283.012 131.568 283.012 131.789 282.995 131.984C282.951 133.039 281.674 140.973 282.968 148.552C284.271 156.122 286.657 163.94 286.965 165.695C287.273 167.45 286.692 170.792 286.93 171.652C287.168 172.512 287.511 172.964 287.441 173.788C287.37 174.613 286.578 176.128 285.548 177.148C284.984 177.706 284.5 178.025 284.43 178.663C284.386 178.814 284.28 179.284 284.544 179.612C284.764 179.878 285.381 179.949 286.173 179.967C287.018 180.011 288.101 179.975 289.246 179.967C290.461 179.967 291.737 179.967 291.984 179.967H292.028H292.565C292.565 179.967 294 179.967 293.692 178.867C293.384 177.768 293.023 177.529 292.371 175.428C292.01 174.249 291.905 173.301 291.878 172.556C291.878 172.352 291.922 171.182 291.975 170.943C292.028 170.677 292.486 169.489 292.248 168.682C292.213 168.452 292.151 168.204 292.037 167.938C291.385 166.387 291.077 164.153 291.077 162.805C291.077 161.458 291.077 153.028 291.579 149.775C292.081 146.513 291.218 142.843 291.033 140.228C290.883 138.074 291.033 135.282 291.103 133.757L291.191 132.41C291.191 132.41 291.79 130.814 291.905 129.201C291.905 129.201 291.905 129.228 291.887 129.272C291.984 128.563 292.045 127.783 291.993 126.896C291.808 123.865 291.535 121.338 291.447 119.645C291.359 117.943 291.808 110.214 291.332 103.53C291.253 102.431 291.218 101.429 291.218 100.499C291.244 100.109 291.535 96.1374 291.737 93.6288C291.817 93.0349 291.869 92.6006 291.843 92.2992C291.869 92.0067 291.887 91.7939 291.896 91.6787C291.975 90.9696 292.125 90.42 292.204 90.1718C292.759 90.4377 294 90.3845 294 90.3845C294 90.3845 295.25 90.4377 295.796 90.1718C295.875 90.4111 296.025 90.9696 296.104 91.6787C296.113 91.7939 296.139 92.0067 296.157 92.2992C296.139 92.6006 296.183 93.0438 296.263 93.6288C296.456 96.1374 296.747 100.1 296.782 100.499C296.782 101.429 296.747 102.431 296.668 103.53C296.192 110.205 296.641 117.943 296.553 119.645C296.465 121.347 296.192 123.865 296.007 126.896C295.955 127.783 296.007 128.563 296.113 129.272C296.104 129.228 296.095 129.201 296.095 129.201C296.201 130.814 296.809 132.41 296.809 132.41L296.897 133.757C296.958 135.291 297.117 138.074 296.967 140.237C296.782 142.852 295.919 146.522 296.421 149.784C296.923 153.046 296.923 161.476 296.923 162.814C296.923 164.153 296.615 166.395 295.963 167.947C295.849 168.213 295.787 168.461 295.752 168.7C295.514 169.507 295.963 170.695 296.025 170.96C296.078 171.2 296.113 172.37 296.122 172.574C296.095 173.318 295.99 174.267 295.629 175.446C294.977 177.547 294.616 177.786 294.308 178.885C294 179.984 295.435 179.984 295.435 179.984H295.972C295.972 179.984 295.99 179.984 296.016 179.984C296.272 179.984 297.539 179.984 298.754 179.984C299.899 179.984 300.982 180.02 301.827 179.984C302.619 179.967 303.236 179.896 303.456 179.63C303.72 179.302 303.614 178.823 303.57 178.681C303.5 178.043 303.016 177.724 302.452 177.165C301.422 176.146 300.63 174.63 300.559 173.806C300.489 172.981 300.832 172.529 301.07 171.67C301.308 170.81 300.727 167.468 301.035 165.713C301.343 163.958 303.738 156.139 305.032 148.569C306.335 140.999 305.058 133.057 305.005 132.002C305.005 131.816 304.997 131.585 304.988 131.346C305.005 131.231 305.516 126.817 305.428 125.505C305.428 124.414 305.366 123.306 305.366 122.677C305.366 122.633 305.366 122.562 305.384 122.482C305.534 121.977 305.789 120.984 306.035 119.991C307.074 116.445 309.099 110.099 310.561 104.488C312.322 97.7418 312.031 88.2128 310.438 80.6693C310.332 79.5613 309.945 77.2743 309.126 75.7319C306.978 68.9242 305.137 66.3092 304.97 65.6356C304.424 63.322 304.565 60.317 304.653 58.8012C304.653 58.7658 304.662 58.7214 304.671 58.686C304.724 58.4998 305.076 57.2145 305.542 56.1774C305.613 56.0356 305.683 55.8938 305.754 55.7608C305.939 55.5569 306.229 55.2201 306.564 54.7414L308.87 62.7724C309.267 64.173 309.575 65.2633 309.628 65.5026C309.813 66.2826 310.314 68.4367 310.719 70.1829C311.133 71.9292 312.454 75.1823 314.637 78.861C316.83 82.5308 318.925 86.4665 318.925 86.4665C318.925 86.4665 318.678 88.1064 318.036 89.3297C317.402 90.5529 317.191 91.723 317.402 93.0261C317.604 94.338 317.701 95.5701 317.56 96.2881C317.419 96.9972 317.49 98.1053 318.335 97.3163C319.18 96.5363 319.004 94.072 319.101 93.6377C319.189 93.2033 319.77 92.6094 320.07 93.0261C320.334 93.3983 320.836 96.492 320.941 97.6089C320.836 97.5734 320.73 97.5202 320.624 97.4227C320.026 96.8377 319.665 97.1302 319.735 97.3518C319.805 97.5734 320.439 98.3801 320.439 98.3801C320.439 98.3801 319.929 97.8305 319.427 97.3961C318.934 96.9618 318.538 97.2986 318.573 97.4848C318.608 97.6709 319.612 98.8942 319.612 98.8942C319.612 98.8942 318.106 97.3429 317.763 97.8127C317.419 98.2737 318.053 98.8942 318.053 98.8942C318.053 98.8942 318.987 99.5679 319.436 99.9402C319.268 100.135 319.119 100.321 318.995 100.507C318.423 101.403 318.379 102.546 319.497 101.607C320.615 100.667 321.575 99.5679 321.963 99.2399C322.35 98.9208 323.054 97.6355 323.054 97.6355C323.054 97.6355 323.354 97.4759 323.582 97.1745C323.811 96.8731 323.926 96.554 323.996 96.4831C324.067 96.4122 324.525 96.0488 324.613 95.8183C324.701 95.5878 324.859 95.1091 324.93 94.9939C325 94.8787 325 94.205 325 94.205C325 94.205 323.477 87.3707 322.588 85.8638V85.8549Z" fill="#FA8E83"/>
<path d="M404.598 85.5968C404.598 85.5968 404.544 84.5506 402.785 78.9118C401.025 73.2641 398.623 64.868 398.256 63.6268C397.89 62.3855 395.675 44.2634 394.336 39.5822C392.996 34.9009 390.451 34.1119 389.665 33.5622C388.879 33.0125 387.861 33.243 387.628 33.243C386.735 32.3387 386.137 32.5869 386.137 32.5869C386.137 32.5869 385.842 32.4184 385.878 32.6135C384.797 32.1347 383.591 32.4273 382.609 31.4787C383.073 28.0209 383.556 21.8236 383.752 18.224C383.752 18.1353 383.752 18.0555 383.761 17.9669C384.074 17.2842 384.806 15.8922 385.262 15.0677C385.574 14.5091 385.369 13.853 384.985 13.5073H385.047C385.047 13.5073 387.235 7.69116 384.333 3.51527C381.403 -0.704946 376.071 0.0486649 376 0.0575309C375.929 0.0486649 370.597 -0.704946 367.667 3.51527C364.765 7.69116 366.953 13.4984 366.953 13.4984H367.015C366.64 13.853 366.426 14.5091 366.738 15.0677C367.194 15.8922 367.926 17.2842 368.239 17.9669C368.239 18.0555 368.239 18.1353 368.248 18.224C368.435 21.8236 368.927 28.0209 369.391 31.4787C368.417 32.4273 367.203 32.1347 366.122 32.6135C366.158 32.4184 365.863 32.5869 365.863 32.5869C365.863 32.5869 365.265 32.3298 364.372 33.243C364.139 33.243 363.121 33.0125 362.335 33.5622C361.549 34.1119 359.004 34.9009 357.664 39.5822C356.325 44.2634 354.119 62.3855 353.744 63.6268C353.377 64.868 350.966 73.2641 349.216 78.9118C347.456 84.5594 347.402 85.5968 347.402 85.5968C346.5 87.1128 345 94.2234 345 94.2234C345 94.2234 345 94.8972 345.071 95.0125C345.143 95.1277 345.304 95.6065 345.393 95.837C345.482 96.0675 345.947 96.431 346.018 96.5019C346.09 96.5729 346.206 96.892 346.438 97.1935C346.67 97.4949 346.974 97.6545 346.974 97.6545C346.974 97.6545 347.233 98.9312 347.626 99.2504C348.019 99.5696 348.992 100.678 350.126 101.618C351.261 102.557 351.216 101.414 350.636 100.518C350.519 100.332 350.359 100.146 350.189 99.9508C350.644 99.5873 351.591 98.9046 351.591 98.9046C351.591 98.9046 352.234 98.284 351.886 97.823C351.538 97.3619 350.01 98.9046 350.01 98.9046C350.01 98.9046 351.037 97.6811 351.064 97.4949C351.1 97.3087 350.698 96.9807 350.198 97.4063C349.698 97.8407 349.171 98.3904 349.171 98.3904C349.171 98.3904 349.814 97.5836 349.885 97.3531C349.957 97.1314 349.591 96.8388 348.983 97.424C348.876 97.5304 348.769 97.5836 348.662 97.6102C348.769 96.5019 349.278 93.3988 349.546 93.0265C349.85 92.6098 350.439 93.2038 350.528 93.6382C350.618 94.0727 350.305 96.103 351.162 96.8832C352.02 97.6634 351.85 96.9984 351.707 96.2803C351.564 95.571 351.555 94.3564 351.761 93.0442C351.966 91.732 351.913 90.4908 351.27 89.2673C350.627 88.0438 350.26 86.2706 350.26 86.2706C350.26 86.2706 350.912 83.7615 352.949 79.9846C355.253 75.7112 356.343 72.5726 356.762 70.8349C357.182 69.0882 357.923 65.8965 358.111 65.1163C358.165 64.8858 359.585 59.9297 359.995 58.52L362.005 48.129C362.46 47.4552 362.791 48.2354 362.978 48.4393C363.05 48.5723 365.819 54.4859 365.89 54.6278C366.372 55.6562 367.301 58.4934 367.64 60.0361C367.64 60.0715 367.721 60.6567 367.721 60.6921C367.81 62.2082 368.275 65.0631 367.721 67.3771C367.56 68.0598 365.301 71.4555 363.121 78.2734C362.291 79.825 361.898 82.1124 361.791 83.2207C360.174 90.7656 360.763 96.5995 362.121 105.155C363.032 110.883 364.086 116.211 365.14 119.757C365.39 120.75 365.64 121.735 365.801 122.249C365.81 122.329 365.818 122.391 365.818 122.444C365.818 123.073 365.747 124.173 365.756 125.272C365.667 126.575 366.435 131.221 366.453 131.336C366.453 131.576 366.453 131.798 366.435 131.993C366.39 133.048 364.693 141.009 366.006 148.581C367.328 156.152 368.9 164.025 369.212 165.781C369.525 167.536 369.721 170.515 369.963 171.375C370.204 172.235 370.275 173.033 370.213 173.867C370.141 174.691 368.471 176.136 367.426 177.156C366.855 177.715 366.363 178.034 366.292 178.672C366.247 178.823 366.14 179.293 366.408 179.621C366.631 179.887 367.256 179.958 368.06 179.975C368.918 180.02 370.016 179.984 371.177 179.975C372.41 179.975 373.705 179.975 373.955 179.975H373.964H373.999H374.544C374.544 179.975 376 179.975 375.687 178.876C375.375 177.777 375.009 177.537 374.348 175.436C373.982 174.257 373.589 173.352 373.553 172.608C373.553 172.404 373.365 171.358 373.419 171.118C373.472 170.852 373.937 169.664 373.696 168.857C373.66 168.627 373.598 168.379 373.481 168.113C372.821 166.561 373.035 164.158 373.035 162.811C373.035 161.463 372.285 153.75 372.365 150.452C372.481 145.265 372.258 143.004 372.07 140.389C371.918 138.234 372.026 135.459 372.088 133.925L372.177 132.578C372.177 132.578 373.24 130.707 373.356 129.093C373.356 129.093 373.356 129.12 373.339 129.164C373.437 128.455 373.499 127.675 373.446 126.788C373.258 123.756 372.963 121.344 372.874 119.642C372.785 117.94 373.062 110.191 372.579 103.515C372.499 102.416 372.463 101.414 372.463 100.483C372.49 100.093 372.785 96.1207 372.99 93.6116C373.071 93.0176 373.124 92.5832 373.097 92.2817C373.124 91.9891 373.142 91.7764 373.151 91.6611C373.231 90.9518 373.276 90.411 373.356 90.1716C373.91 90.4287 375.964 90.3667 376 90.3667C376.036 90.3667 378.09 90.4376 378.644 90.1716C378.724 90.411 378.769 90.9518 378.849 91.6611C378.858 91.7764 378.885 91.9891 378.903 92.2817C378.876 92.5832 378.929 93.0265 379.01 93.6116C379.206 96.1207 379.501 100.084 379.537 100.483C379.537 101.414 379.501 102.416 379.421 103.515C378.938 110.191 379.215 117.949 379.126 119.642C379.037 121.344 378.742 123.756 378.554 126.788C378.501 127.675 378.554 128.455 378.661 129.164C378.653 129.12 378.644 129.093 378.644 129.093C378.751 130.707 379.823 132.578 379.823 132.578L379.912 133.925C379.974 135.459 380.082 138.234 379.93 140.389C379.742 143.004 379.519 145.265 379.635 150.452C379.706 153.75 378.965 161.472 378.965 162.811C378.965 164.15 379.18 166.561 378.519 168.113C378.403 168.379 378.34 168.627 378.304 168.866C378.063 169.673 378.519 170.861 378.581 171.127C378.635 171.366 378.438 172.404 378.447 172.617C378.42 173.361 378.027 174.266 377.652 175.445C376.991 177.546 376.625 177.785 376.313 178.885C376 179.984 377.456 179.984 377.456 179.984H378.001C378.001 179.984 378.018 179.984 378.036 179.984H378.045C378.304 179.984 379.59 179.984 380.823 179.984C381.984 179.984 383.082 180.02 383.94 179.984C384.744 179.967 385.369 179.896 385.592 179.63C385.86 179.302 385.753 178.823 385.708 178.681C385.637 178.043 385.145 177.723 384.574 177.165C383.538 176.145 381.859 174.7 381.787 173.876C381.716 173.051 381.787 172.244 382.037 171.384C382.288 170.524 382.475 167.545 382.788 165.79C383.1 164.034 384.672 156.161 385.994 148.59C387.316 141.018 385.619 133.056 385.565 132.001C385.565 131.815 385.556 131.585 385.547 131.345C385.565 131.23 386.333 126.584 386.244 125.272C386.244 124.182 386.181 123.073 386.181 122.444C386.181 122.4 386.182 122.329 386.199 122.249C386.351 121.743 386.61 120.75 386.86 119.757C387.914 116.211 388.968 110.883 389.879 105.155C391.237 96.5995 391.826 90.7568 390.209 83.2207C390.102 82.1124 389.709 79.825 388.879 78.2734C386.7 71.4643 384.449 68.0598 384.279 67.3771C383.725 65.0631 384.19 62.2082 384.279 60.6921C384.279 60.6567 384.36 60.0804 384.36 60.0361C384.69 58.4845 385.628 55.6562 386.11 54.6278C386.182 54.4859 388.95 48.5723 389.022 48.4393C389.209 48.2354 389.531 47.4552 389.995 48.129L392.005 58.52C392.407 59.9208 393.835 64.8769 393.889 65.1163C394.077 65.8965 394.818 69.0882 395.238 70.8349C395.657 72.5815 396.747 75.72 399.051 79.9846C401.088 83.7615 401.74 86.2706 401.74 86.2706C401.74 86.2706 401.382 88.0438 400.73 89.2673C400.087 90.4908 400.025 91.732 400.239 93.0442C400.445 94.3564 400.436 95.5621 400.293 96.2803C400.15 96.9896 399.989 97.6634 400.838 96.8832C401.695 96.103 401.373 94.0727 401.472 93.6382C401.561 93.2038 402.15 92.6098 402.454 93.0265C402.722 93.3988 403.231 96.4931 403.338 97.6102C403.231 97.5747 403.124 97.5215 403.017 97.424C402.409 96.8388 402.043 97.1314 402.115 97.3531C402.186 97.5747 402.829 98.3904 402.829 98.3904C402.829 98.3904 402.311 97.8407 401.802 97.4063C401.302 96.9718 400.9 97.3087 400.936 97.4949C400.971 97.6811 401.99 98.9046 401.99 98.9046C401.99 98.9046 400.462 97.3531 400.114 97.823C399.766 98.284 400.409 98.9046 400.409 98.9046C400.409 98.9046 401.356 99.5784 401.811 99.9508C401.641 100.146 401.489 100.332 401.364 100.518C400.784 101.414 400.739 102.557 401.874 101.618C403.008 100.678 403.981 99.5784 404.374 99.2504C404.767 98.9312 405.026 97.6545 405.026 97.6545C405.026 97.6545 405.33 97.4949 405.562 97.1935C405.794 96.892 405.91 96.5729 405.982 96.5019C406.053 96.431 406.518 96.0675 406.607 95.837C406.696 95.6065 406.857 95.1277 406.929 95.0125C407 94.8972 407 94.2234 407 94.2234C407 94.2234 405.5 87.104 404.598 85.5968ZM372.597 25.8931C372.481 26.7087 372.356 27.3471 372.079 28.2603C371.802 29.1735 371.454 29.8916 370.945 30.264C370.838 30.3438 369.632 31.257 369.534 31.3545C369.453 30.4768 369.346 27.0368 369.248 25.1838C369.203 24.2529 369.159 23.251 369.123 22.1959C369.087 21.1409 369.069 20.0504 369.069 18.9599C369.105 19.1638 369.141 19.35 369.186 19.5095C369.373 20.1656 369.721 20.8129 370.159 21.4335C370.382 21.7438 370.623 22.0364 370.874 22.3289C371.124 22.6126 372.526 23.4283 372.794 23.6854L372.588 25.9019L372.597 25.8931ZM381.091 30.264C380.582 29.9005 380.233 29.1735 379.957 28.2603C379.68 27.3471 379.555 26.7087 379.438 25.8931L379.233 23.6766C379.501 23.4195 380.903 22.6126 381.153 22.3201C381.403 22.0364 381.645 21.7349 381.868 21.4246C382.305 20.8129 382.654 20.1568 382.841 19.5007C382.886 19.35 382.922 19.1549 382.957 18.951C382.957 20.0415 382.94 21.132 382.904 22.1871C382.868 23.2421 382.832 24.244 382.779 25.1749C382.68 27.0279 382.582 30.4679 382.493 31.3457C382.395 31.2481 381.189 30.3349 381.082 30.2551L381.091 30.264Z" fill="#FFC5B8"/>
<path d="M41.9011 23.2388C41.9011 23.1413 41.8922 23.0527 41.8922 22.9729C41.8922 22.8931 41.8922 22.8222 41.8922 22.7602C41.8922 22.7513 41.9011 22.7336 41.9101 22.7247C41.9101 22.7159 41.919 22.6981 41.9279 22.6893C41.9368 22.6627 41.9546 22.645 41.9636 22.6184C41.9636 22.6715 41.9636 22.7247 41.9546 22.7779C41.9546 22.8311 41.9546 22.8843 41.9457 22.9375C41.9457 23.0438 41.9279 23.1413 41.919 23.2388H41.9011ZM27.1791 22.9641C27.1791 22.9641 27.1791 23.0172 27.1791 23.0438C27.1791 23.0704 27.1791 23.1059 27.1791 23.1325C27.1791 23.097 27.1791 23.0527 27.1702 23.0172C27.1702 22.9995 27.1702 22.9818 27.1702 22.9552C27.1702 22.9375 27.1702 22.9197 27.1702 22.8931C27.1702 22.902 27.1702 22.9109 27.1791 22.9197C27.1791 22.9197 27.1791 22.9286 27.1791 22.9375C27.1791 22.9375 27.1791 22.9463 27.1791 22.9552V22.9641ZM66.7529 92.5452C66.6013 90.152 66.423 87.1383 66.2892 84.5057C66.0128 79.1342 65.3173 70.5363 63.4714 66.2462C62.9008 64.9166 61.4384 44.6184 59.4053 39.3888C57.3722 34.1591 52.8067 33.0334 52.8067 33.0334C52.0309 32.6168 50.8003 32.1381 49.4271 31.5974V31.5886C48.5354 30.6224 47.5278 30.844 47.5278 30.844C46.752 30.5249 45.9762 30.197 45.2629 29.8601C42.9979 28.7876 42.2489 26.1196 41.9903 24.3114C42.1597 23.3009 42.3292 22.2284 42.4897 21.1381C42.5967 20.7747 42.668 20.234 42.7037 19.5781C42.7304 19.3742 42.7572 19.1703 42.7839 18.9665C42.8909 18.8867 42.9979 18.7626 43.0871 18.5765C43.4259 17.8762 44.2374 16.4225 44.7457 15.5716C45.0845 14.9955 44.8705 14.3129 44.4514 13.9495H44.5049C44.5049 13.9495 46.9214 7.9487 43.7202 3.63201C40.4922 -0.75559 34.5446 0.0598833 34.5446 0.0598833C34.5446 0.0598833 28.5969 -0.75559 25.3422 3.63201C22.141 7.9487 24.5575 13.9495 24.5575 13.9495H24.611C24.2008 14.3218 23.9779 14.9955 24.3167 15.5716C24.825 16.4314 25.6365 17.8762 25.9753 18.5765C26.0645 18.7715 26.1715 18.8867 26.2785 18.9665C26.4925 20.757 26.7779 22.5918 27.0632 24.2759C26.8135 26.0841 26.0645 28.7787 23.7906 29.8601C23.0773 30.197 22.3015 30.5249 21.5257 30.844C21.5257 30.844 20.5092 30.6224 19.6264 31.5886V31.5974C18.2621 32.1293 17.0226 32.6168 16.2468 33.0334C16.2468 33.0334 11.6813 34.1591 9.64823 39.3888C7.61515 44.6184 6.15275 64.9166 5.58206 66.2462C3.73624 70.5274 3.04071 79.1342 2.76428 84.5057C2.63052 87.1383 2.45218 90.152 2.30059 92.5452C1.23055 95.0714 0 99.4147 0 99.4147C0 99.4147 -6.64371e-09 100.088 0.0891703 100.204C0.178341 100.319 0.374515 100.797 0.490437 101.028C0.606358 101.258 1.18597 101.622 1.26622 101.693C1.34647 101.764 1.49806 102.083 1.78341 102.384C2.06875 102.685 2.44327 102.845 2.44327 102.845C2.44327 102.845 3.33497 104.13 3.82541 104.449C4.31584 104.768 5.52856 105.876 6.93745 106.816C8.35526 107.756 8.29284 106.612 7.57056 105.717C7.41897 105.531 7.23171 105.345 7.0177 105.15C7.5884 104.786 8.76544 104.104 8.76544 104.104C8.76544 104.104 9.56798 103.483 9.13104 103.022C8.69411 102.561 6.79478 104.104 6.79478 104.104C6.79478 104.104 8.06991 102.88 8.1145 102.694C8.15909 102.508 7.65973 102.18 7.03554 102.606C6.41135 103.04 5.7604 103.59 5.7604 103.59C5.7604 103.59 6.56294 102.783 6.64319 102.561C6.73236 102.34 6.27759 102.047 5.51964 102.632C5.38589 102.739 5.25213 102.801 5.11838 102.836C5.24322 101.737 5.88524 98.617 6.21517 98.2447C6.21517 98.2447 6.21517 98.2447 6.22409 98.2447L6.26867 98.2092C6.26867 98.2092 6.42026 98.0851 6.75019 98.156C7.06229 98.2713 7.37439 98.5992 7.44572 98.8652C7.56164 99.2995 7.34764 101.764 8.40876 102.544C9.47881 103.324 9.55906 102.225 9.38964 101.515C9.22021 100.806 9.33613 99.5654 9.59473 98.2535C9.85332 96.9417 9.59473 95.7717 8.78328 94.5573C8.43551 94.0344 8.17692 93.4316 7.99858 92.9175C9.09537 88.3172 10.5845 82.0416 11.2622 79.0722C11.9399 76.1028 12.4036 72.5307 12.6711 70.1286L13.117 67.5049C13.117 67.5049 14.7934 61.4509 15.694 58.7651C16.2647 57.0633 16.7908 55.388 17.1029 54.3864C17.4774 54.9359 17.0672 55.2019 17.085 55.2196C17.0761 55.2284 17.0315 55.84 16.3806 57.4799C15.7207 59.1285 15.9437 60.9811 15.9437 60.9811C15.9437 60.9811 15.4621 61.9472 14.5615 64.3316C13.6609 66.716 12.8049 70.944 13.5717 74.6137C13.6252 74.8885 13.6966 75.1632 13.759 75.4469C13.5717 75.7926 13.3042 76.3864 13.1348 77.2108C12.8584 78.5492 13.5182 80.1536 13.5182 80.1536C12.6622 81.6516 12.9386 83.8232 12.9386 83.8232C12.9386 83.8232 12.5819 86.0303 12.6444 86.633C12.6444 86.633 10.7985 93.0416 12.252 104.955C13.6431 116.362 20.5448 125.563 21.1245 128.009C21.178 128.577 20.8659 132.752 20.4557 135.96C20.0366 139.169 20.6162 142.954 20.6162 142.954C20.6608 143.849 20.7232 144.727 20.8213 145.569C21.5436 151.738 25.9753 168.367 26.4747 170.21C26.439 170.857 26.4301 171.389 26.5103 171.664C26.7778 172.524 27.1613 172.976 27.0899 173.8C27.0097 174.624 26.118 176.14 24.9588 177.159C24.3257 177.718 23.7728 178.037 23.7015 178.675C23.6569 178.826 23.532 179.296 23.8352 179.624C24.076 179.89 24.7715 179.96 25.6632 179.978C26.6173 180.023 27.839 179.987 29.123 179.978C30.4963 179.978 31.923 179.978 32.2083 179.978H32.2618H32.8682C32.8682 179.978 34.4822 179.978 34.1344 178.879C33.7866 177.78 33.3765 177.541 32.6453 175.44C32.2351 174.261 32.1192 173.313 32.0924 172.568C32.0924 172.364 32.1459 171.194 32.1994 170.946C32.2618 170.68 33.0733 169.67 32.7968 168.863C32.779 168.615 32.7166 168.349 32.5739 168.056C32.4402 167.782 32.3421 167.454 32.2351 167.143C32.2351 167.143 32.7344 158.093 33.0465 150.657C33.207 146.845 32.9752 143.016 32.7077 140.144C32.7077 140.144 32.6363 137.919 32.6363 136.997C32.6363 136.076 32.5472 136.076 32.6363 135.597C32.7255 135.118 33.2427 132.238 33.2427 132.238C33.314 131.936 33.3854 131.608 33.4478 131.236C34.0363 128.107 33.4478 125.492 33.4478 125.492C33.4478 125.492 33.8312 120.874 33.8936 116.531C34.179 100.744 34.3306 105.442 34.2236 102.65H34.7764C34.6694 105.442 34.821 100.744 35.1064 116.531C35.1599 120.865 35.5522 125.483 35.5522 125.483C35.5522 125.483 34.9637 128.089 35.5522 131.227C35.6235 131.59 35.6949 131.927 35.7573 132.229C35.7573 132.229 36.2745 135.101 36.3637 135.588C36.4528 136.067 36.3637 136.067 36.3637 136.989C36.3637 137.91 36.2923 140.135 36.2923 140.135C36.0337 143.007 35.8019 146.836 35.9535 150.639C36.2656 158.076 36.7649 167.126 36.7649 167.126C36.6579 167.436 36.5598 167.764 36.4261 168.039C36.2923 168.331 36.221 168.597 36.2032 168.845C35.9356 169.652 36.7382 170.671 36.8006 170.928C36.863 171.168 36.8987 172.338 36.9076 172.55C36.8719 173.295 36.7649 174.243 36.3547 175.422C35.6235 177.523 35.2134 177.762 34.8656 178.861C34.5178 179.96 36.1318 179.96 36.1318 179.96H36.7382C36.7382 179.96 36.7649 179.96 36.7917 179.96C37.077 179.96 38.5037 179.96 39.877 179.96C41.161 179.96 42.3827 179.996 43.3368 179.96C44.2285 179.943 44.924 179.872 45.1648 179.606C45.468 179.278 45.3431 178.799 45.2985 178.657C45.2183 178.019 44.6743 177.7 44.0412 177.142C42.8909 176.122 41.9903 174.607 41.9101 173.782C41.8298 172.958 42.2132 172.506 42.4897 171.646C42.5788 171.371 42.5699 170.84 42.5253 170.192C43.0247 168.349 47.4564 151.72 48.1787 145.551C48.2768 144.709 48.3392 143.831 48.3838 142.927C48.3838 142.927 48.9634 139.142 48.5443 135.934C48.1341 132.725 47.822 128.55 47.8755 127.983C48.4552 125.536 55.348 116.345 56.748 104.928C58.2015 93.015 56.3556 86.6065 56.3556 86.6065C56.427 85.9949 56.0614 83.7966 56.0614 83.7966C56.0614 83.7966 56.3378 81.625 55.4818 80.127C55.4818 80.127 56.1416 78.5226 55.8652 77.1842C55.6958 76.3598 55.4283 75.766 55.241 75.4203C55.3124 75.1455 55.3748 74.8619 55.4283 74.5871C56.1862 70.9174 55.3391 66.6894 54.4385 64.305C53.5379 61.9207 53.0563 60.9545 53.0563 60.9545C53.0563 60.9545 53.2793 59.1108 52.6194 57.4533C51.9685 55.8135 51.7634 55.2019 51.7545 55.193C51.7723 55.1753 51.5226 54.9093 51.8971 54.3598C52.2092 55.3525 52.7353 57.0278 53.306 58.7385C54.2066 61.4243 55.883 67.4783 55.883 67.4783L56.3289 70.102C56.5964 72.5041 57.0601 76.0762 57.7378 79.0456C58.4155 82.0061 59.9046 88.2906 61.0014 92.8909C60.8231 93.405 60.5645 94.0078 60.2167 94.5307C59.4053 95.7539 59.1467 96.924 59.4053 98.227C59.6639 99.5388 59.7798 100.771 59.6104 101.489C59.4409 102.198 59.5212 103.306 60.5912 102.517C61.6613 101.737 61.4384 99.2729 61.5543 98.8386C61.6256 98.5726 61.9288 98.2447 62.2498 98.1294C62.446 98.0763 62.6778 98.1649 62.6778 98.1649L62.7759 98.2181C62.7759 98.2181 62.7759 98.2181 62.7848 98.2181C63.1237 98.5904 63.7568 101.702 63.8816 102.81C63.7479 102.774 63.6141 102.712 63.4804 102.606C62.7224 102.021 62.2676 102.313 62.3568 102.535C62.446 102.756 63.2396 103.563 63.2396 103.563C63.2396 103.563 62.5887 103.013 61.9645 102.579C61.3403 102.145 60.8409 102.482 60.8855 102.668C60.9301 102.854 62.2052 104.077 62.2052 104.077C62.2052 104.077 60.297 102.526 59.869 102.996C59.432 103.457 60.2346 104.077 60.2346 104.077C60.2346 104.077 61.4116 104.751 61.9823 105.123C61.7683 105.318 61.5721 105.504 61.4294 105.69C60.7072 106.586 60.6537 107.729 62.0625 106.789C63.4714 105.85 64.6842 104.751 65.1746 104.423C65.665 104.104 66.5567 102.818 66.5567 102.818C66.5567 102.818 66.9313 102.659 67.2166 102.358C67.5019 102.056 67.6535 101.737 67.7338 101.666C67.814 101.595 68.3936 101.232 68.5096 101.001C68.6255 100.771 68.8306 100.292 68.9108 100.177C69 100.062 69 99.3881 69 99.3881C69 99.3881 67.7694 95.0448 66.6994 92.5186L66.7529 92.5452Z" fill="#CD2D09"/>
<path d="M153.87 89.1273H153.861C153.63 87.2037 153.382 85.1738 153.337 84.8813C153.266 83.4364 152.938 81.3001 152.334 77.8608C151.624 73.8719 150.764 69.4663 149.743 66.612C149.459 65.8231 149.219 64.3517 149.006 62.7118C148.376 57.7566 147.258 44.088 145.802 39.4874C145.651 39.0087 145.474 38.5744 145.296 38.1844C143.326 33.9029 139.66 33.0874 139.439 32.9367C138.862 32.591 138.081 32.4403 137.451 32.2187C137.016 31.9616 136.554 31.7666 136.11 31.5982V31.5893C135.906 31.4387 135.729 31.3411 135.613 31.2614C135.542 31.217 135.48 31.2082 135.427 31.2348C134.894 30.9866 134.433 31.022 134.326 30.9688C133.581 30.6409 132.835 30.2774 132.152 29.8963C131.983 29.8076 131.832 29.7013 131.682 29.5949C130.412 28.2209 130.013 25.9339 129.915 24.1611C130.066 23.1417 130.217 22.078 130.35 21.0143C130.439 20.6065 130.501 20.0747 130.537 19.463C130.554 19.2592 130.581 19.0553 130.599 18.8514C130.643 18.7894 130.696 18.7096 130.741 18.6209C130.767 18.5589 130.794 18.488 130.821 18.4082C131.149 17.7168 131.939 16.2808 132.427 15.4298C132.755 14.8536 132.542 14.1799 132.143 13.8254H132.196C132.196 13.8254 134.531 7.87745 131.433 3.59601C128.282 -0.74748 122.522 0.0591682 122.522 0.0591682C122.522 0.0591682 116.762 -0.74748 113.611 3.59601C110.514 7.87745 112.848 13.8165 112.848 13.8165H112.901C112.502 14.1799 112.28 14.8536 112.617 15.4298C113.105 16.2808 113.895 17.7168 114.224 18.4082C114.25 18.488 114.277 18.5589 114.304 18.6209C114.348 18.7096 114.401 18.7894 114.446 18.8514C114.463 19.0553 114.49 19.2592 114.508 19.463C114.543 20.0658 114.596 20.6065 114.694 21.0143C114.827 22.078 114.978 23.1417 115.129 24.1611C115.023 25.9339 114.623 28.2209 113.363 29.5949C113.212 29.7013 113.061 29.8076 112.892 29.8963C112.209 30.2863 111.464 30.6409 110.718 30.9688C110.62 31.022 110.15 30.9866 109.617 31.2348C109.564 31.2082 109.502 31.217 109.431 31.2614C109.316 31.3323 109.138 31.4298 108.934 31.5893C108.934 31.5893 108.934 31.5893 108.934 31.5982C108.49 31.7666 108.029 31.9616 107.594 32.2187C106.964 32.4492 106.183 32.591 105.606 32.9367C105.384 33.0963 101.709 33.9029 99.748 38.1844C99.5705 38.5744 99.393 39.0087 99.2422 39.4874C97.7777 44.088 96.6683 57.7566 96.0382 62.7118C95.8251 64.3428 95.5855 65.8231 95.3015 66.612C94.2808 69.4752 93.4199 73.8807 92.7099 77.8608C92.0975 81.3001 91.778 83.4364 91.707 84.8813C91.6626 85.1738 91.4141 87.2037 91.1833 89.1273H91.1745C90.1627 91.6536 89 95.9971 89 95.9971C89 95.9971 89 96.6708 89.0799 96.786C89.1598 96.9012 89.355 97.3799 89.4615 97.6104C89.568 97.8408 90.1183 98.2043 90.1982 98.2752C90.2781 98.3461 90.4201 98.6652 90.6863 98.9666C90.9526 99.268 91.3165 99.4275 91.3165 99.4275C91.3165 99.4275 92.1596 100.713 92.63 101.032C93.0915 101.351 94.2453 102.459 95.5766 103.399C96.9168 104.338 96.8636 103.195 96.1802 102.3C96.0382 102.113 95.8518 101.927 95.6565 101.732C96.1979 101.369 97.3073 100.686 97.3073 100.686C97.3073 100.686 98.0617 100.066 97.6535 99.6048C97.2452 99.1439 95.4435 100.686 95.4435 100.686C95.4435 100.686 96.6505 99.463 96.6949 99.2768C96.7393 99.0907 96.2689 98.7627 95.6743 99.1882C95.0796 99.6226 94.4672 100.172 94.4672 100.172C94.4672 100.172 95.2216 99.3655 95.3104 99.1439C95.3903 98.9223 94.9642 98.6298 94.2453 99.2148C94.1122 99.3212 93.988 99.3832 93.8637 99.4187C93.988 98.3195 94.5915 95.1993 94.9021 94.827L94.9376 94.7827C94.9376 94.7827 95.124 94.6497 95.3991 94.7383C95.692 94.8536 95.9849 95.1815 96.0559 95.4475C96.1624 95.8818 95.9583 98.3461 96.9701 99.1262C97.9819 99.9062 98.0617 98.807 97.902 98.0979C97.7422 97.3888 97.8487 96.1478 98.0972 94.8359C98.3457 93.5328 97.7067 90.9533 96.9434 89.73C97.4848 88.56 98.0529 87.3544 98.2037 86.9023C99.4019 83.3212 100.467 79.6248 100.999 77.3112C101.088 76.9212 101.177 76.5577 101.248 76.2209C101.55 74.909 101.834 73.5173 102.02 72.3915C102.153 71.5849 102.34 70.5478 102.544 69.4752C102.615 68.9522 102.819 67.924 102.872 67.4896L103.387 64.9367C103.387 64.9367 104.079 62.4813 104.523 60.9389C104.709 60.7528 104.887 60.5312 105.038 60.2652C105.091 60.1855 105.144 60.1145 105.198 60.0436C105.544 59.6004 105.863 59.2902 106.05 58.8204C106.058 58.8026 106.076 58.7849 106.076 58.776C106.555 57.8364 106.893 57.012 107.097 56.7284C107.363 57.1982 107.177 57.473 107.186 57.5616C107.159 57.7832 106.99 58.4392 106.476 59.8132C105.987 61.0896 105.996 62.6409 105.783 63.0929C105.677 63.3234 105.198 64.3073 104.416 66.3727C103.955 67.5782 103.493 69.1915 103.183 70.991C102.792 72.7107 102.668 74.7494 102.908 76.3539C102.925 76.6641 102.943 76.9744 102.97 77.2846C102.81 77.6924 102.588 78.2863 102.437 79.0397C102.198 80.2541 102.633 81.6636 102.606 81.9383C101.958 83.3389 102.127 85.2181 102.109 85.555C102.091 85.8032 101.825 87.6292 101.869 88.3206C101.843 89.5439 100.937 93.9583 101.594 100.952C101.754 102.592 102.011 104.356 102.322 106.218C103.014 110.393 104.283 114.311 105.499 117.449C105.828 118.353 106.174 119.23 106.484 119.948C106.502 120.01 106.529 120.072 106.547 120.117C106.866 120.985 107.088 121.987 107.496 122.865C108.393 125.019 109.342 127.642 109.697 128.511C109.768 128.751 109.822 128.963 109.848 129.149C109.875 129.734 109.546 133.582 109.2 136.994C108.907 139.866 109.316 143.208 109.378 143.864C109.431 144.733 109.511 145.601 109.617 146.435C110.327 151.665 112.671 160.547 113.833 165.28C114.375 167.496 114.676 169.473 114.765 170.271C114.73 170.891 114.721 171.405 114.801 171.671C115.058 172.531 115.431 172.983 115.36 173.808C115.289 174.632 114.419 176.148 113.301 177.167C112.688 177.726 112.156 178.045 112.085 178.683C112.04 178.825 111.925 179.286 112.191 179.605C112.191 179.614 112.209 179.622 112.218 179.64C112.44 179.88 113.017 179.95 113.762 179.977C113.86 179.977 113.966 179.977 114.073 179.986C114.836 180.013 115.768 179.995 116.762 179.986C117.028 179.986 117.295 179.986 117.561 179.986C118.289 179.986 118.99 179.986 119.434 179.986H119.442C119.442 179.986 119.478 179.986 119.487 179.986H120.002C120.232 179.986 120.499 179.986 120.667 179.942C120.667 179.942 120.676 179.942 120.685 179.942C120.712 179.942 120.738 179.942 120.747 179.933C121.111 179.906 121.271 179.862 121.28 179.791C121.28 179.755 121.413 179.738 121.537 179.649C121.839 179.445 122.229 179.144 121.99 178.435C121.786 177.832 121.555 177.424 121.253 176.706C121.04 176.201 120.836 175.634 120.614 174.889C120.525 174.579 120.463 174.286 120.41 174.011C120.312 173.55 120.268 172.859 120.25 172.478C120.25 172.327 120.25 172.15 120.268 171.964C120.312 171.68 120.383 170.643 120.374 170.315C120.374 170.173 120.463 169.952 120.525 169.686C120.632 169.242 120.756 168.675 120.596 168.161C120.561 167.904 120.499 167.62 120.383 167.328C120.268 167.026 120.188 166.698 120.099 166.379C120.081 166.202 120.09 165.644 120.126 164.819C120.223 162.692 120.383 156.708 120.703 152.312C120.765 151.408 120.809 150.495 120.827 149.608C120.871 147.365 120.703 145.123 120.596 143.155C120.516 141.675 120.445 140.194 120.383 138.909C120.383 138.687 120.383 137.792 120.374 136.968C120.374 136.631 120.383 135.922 120.383 135.7C120.383 135.044 120.357 134.929 120.472 134.415C120.552 134.051 120.729 133.129 120.854 132.305C120.854 132.287 120.854 132.27 120.854 132.27C120.951 131.685 121.04 131.179 121.04 131.046C121.093 130.727 121.138 130.39 121.182 130.018C121.537 127.102 121.084 124.655 121.049 124.194C121.04 124.07 121.058 123.636 121.084 122.998C121.155 121.526 121.333 118.353 121.368 115.1C121.413 112.307 121.431 109.746 121.404 107.476C121.404 106.421 121.404 105.455 121.404 104.569C121.448 102.636 121.546 100.305 121.626 98.5057C121.91 98.5057 122.203 98.4968 122.496 98.4879C122.788 98.4879 123.072 98.5057 123.365 98.5057C123.436 100.305 123.543 102.636 123.587 104.569C123.596 105.464 123.605 106.43 123.587 107.476C123.561 109.746 123.587 112.307 123.623 115.1C123.658 118.353 123.836 121.526 123.907 122.998C123.933 123.627 123.96 124.061 123.942 124.194C123.907 124.646 123.454 127.102 123.809 130.018C123.853 130.39 123.898 130.727 123.951 131.046C123.951 131.179 124.04 131.685 124.138 132.27C124.138 132.27 124.138 132.287 124.138 132.305C124.262 133.129 124.439 134.06 124.519 134.415C124.635 134.929 124.608 135.044 124.608 135.7C124.608 135.922 124.626 136.631 124.617 136.968C124.617 137.783 124.599 138.687 124.608 138.909C124.546 140.194 124.475 141.675 124.395 143.155C124.288 145.123 124.129 147.365 124.164 149.608C124.182 150.503 124.226 151.408 124.288 152.312C124.608 156.708 124.777 162.683 124.865 164.819C124.901 165.644 124.919 166.211 124.892 166.379C124.803 166.698 124.723 167.026 124.608 167.328C124.493 167.62 124.43 167.895 124.395 168.161C124.235 168.675 124.359 169.242 124.466 169.686C124.528 169.952 124.608 170.173 124.617 170.315C124.617 170.643 124.688 171.68 124.723 171.964C124.741 172.15 124.75 172.318 124.741 172.478C124.723 172.859 124.688 173.55 124.581 174.011C124.528 174.286 124.466 174.579 124.377 174.889C124.164 175.634 123.951 176.201 123.738 176.706C123.436 177.424 123.206 177.832 123.001 178.435C122.762 179.144 123.152 179.445 123.454 179.649C123.578 179.738 123.711 179.764 123.711 179.791C123.72 179.862 123.88 179.897 124.244 179.933C124.244 179.933 124.271 179.933 124.306 179.942C124.306 179.942 124.315 179.942 124.324 179.942C124.484 179.986 124.759 179.986 124.99 179.986H125.504C125.504 179.986 125.531 179.986 125.549 179.986H125.558C126.001 179.986 126.711 179.986 127.43 179.986C127.697 179.986 127.972 179.986 128.229 179.986C129.223 179.986 130.155 180.004 130.918 179.986C131.025 179.986 131.122 179.986 131.229 179.977C131.974 179.95 132.551 179.88 132.773 179.64C132.782 179.631 132.791 179.623 132.8 179.605C133.066 179.277 132.951 178.825 132.906 178.683C132.835 178.045 132.303 177.726 131.69 177.167C130.572 176.148 129.711 174.632 129.631 173.808C129.56 172.983 129.933 172.531 130.19 171.671C130.27 171.405 130.261 170.891 130.226 170.271C130.315 169.473 130.617 167.496 131.158 165.28C132.321 160.547 134.664 151.665 135.374 146.435C135.489 145.601 135.56 144.742 135.613 143.864C135.684 143.208 136.084 139.866 135.791 136.994C135.445 133.582 135.116 129.734 135.143 129.149C135.17 128.972 135.223 128.759 135.294 128.511C135.64 127.651 136.598 125.019 137.495 122.865C137.903 121.987 138.125 120.985 138.445 120.117C138.462 120.064 138.48 120.001 138.507 119.948C138.817 119.23 139.155 118.353 139.492 117.449C140.708 114.311 141.977 110.393 142.669 106.218C142.98 104.356 143.237 102.592 143.397 100.952C144.063 93.9583 143.149 89.5527 143.122 88.3206C143.166 87.6292 142.9 85.812 142.882 85.555C142.864 85.2181 143.033 83.3389 142.385 81.9383C142.359 81.6724 142.793 80.263 142.554 79.0397C142.403 78.2863 142.181 77.6924 142.021 77.2846C142.048 76.9744 142.075 76.6553 142.083 76.3539C142.323 74.7494 142.199 72.7107 141.808 70.991C141.498 69.1915 141.036 67.5871 140.575 66.3727C139.794 64.3073 139.314 63.3323 139.208 63.0929C138.995 62.6409 139.004 61.0896 138.516 59.8132C138.001 58.4481 137.832 57.7921 137.806 57.5616C137.806 57.473 137.628 57.1982 137.894 56.7284C138.098 57.0209 138.436 57.8453 138.915 58.776C138.915 58.7938 138.933 58.8115 138.942 58.8204C139.128 59.2902 139.447 59.6093 139.794 60.0436C139.847 60.1145 139.9 60.1943 139.953 60.2652C140.104 60.5312 140.282 60.7528 140.468 60.9389C140.912 62.4813 141.604 64.9367 141.604 64.9367L142.119 67.4985C142.163 67.9328 142.376 68.9611 142.447 69.4841C142.651 70.5566 142.838 71.5938 142.971 72.4004C143.157 73.5262 143.441 74.9178 143.743 76.2298C143.823 76.5666 143.903 76.9389 144.001 77.3201C144.533 79.6336 145.598 83.33 146.796 86.9112C146.947 87.3544 147.506 88.5688 148.057 89.7389C147.293 90.9622 146.654 93.5417 146.903 94.8447C147.151 96.1566 147.258 97.3888 147.098 98.1068C146.938 98.8159 147.018 99.9239 148.03 99.135C149.042 98.355 148.838 95.8907 148.944 95.4563C149.015 95.1904 149.299 94.8624 149.601 94.7472C149.876 94.6674 150.062 94.7915 150.062 94.7915L150.098 94.8359C150.417 95.2082 151.021 98.3195 151.136 99.4275C151.012 99.3921 150.888 99.33 150.755 99.2237C150.036 98.6386 149.61 98.9311 149.69 99.1527C149.77 99.3744 150.533 100.181 150.533 100.181C150.533 100.181 149.92 99.6314 149.326 99.1971C148.731 98.7627 148.261 99.0996 148.305 99.2857C148.349 99.4719 149.557 100.695 149.557 100.695C149.557 100.695 147.755 99.1439 147.347 99.6137C146.938 100.075 147.693 100.695 147.693 100.695C147.693 100.695 148.811 101.369 149.343 101.741C149.139 101.936 148.962 102.122 148.82 102.308C148.136 103.204 148.083 104.347 149.423 103.408C150.764 102.468 151.908 101.369 152.37 101.041C152.832 100.722 153.684 99.4364 153.684 99.4364C153.684 99.4364 154.039 99.2768 154.314 98.9755C154.589 98.6741 154.722 98.355 154.802 98.284C154.882 98.2131 155.432 97.8497 155.538 97.6192C155.645 97.3888 155.84 96.9101 155.92 96.7949C156 96.6796 156 96.0059 156 96.0059C156 96.0059 154.837 91.6624 153.826 89.1361L153.87 89.1273ZM116.061 23.2658C116.025 23.5583 115.963 23.8952 115.875 24.232C115.786 24.4625 115.679 24.6841 115.528 24.8259C115.502 24.8525 115.475 24.8791 115.449 24.8968C115.422 24.6398 115.395 24.2409 115.369 23.7622C115.369 23.6913 115.369 23.6204 115.36 23.5406C115.342 23.2658 115.333 22.9733 115.324 22.6719C115.324 22.6453 115.324 22.6187 115.324 22.5921C115.315 22.2553 115.307 21.9096 115.298 21.5639C115.307 21.6259 115.324 21.688 115.333 21.7323C115.395 21.9362 115.502 22.14 115.635 22.3351C115.706 22.4326 115.777 22.5301 115.857 22.6187C115.883 22.6542 115.91 22.6808 115.937 22.7162C115.99 22.796 116.043 22.8758 116.105 22.9556C116.105 22.9821 116.07 23.2481 116.07 23.2747L116.061 23.2658ZM129.747 22.5833C129.747 22.5833 129.747 22.6364 129.747 22.663C129.738 22.9644 129.72 23.2569 129.711 23.5317C129.711 23.6026 129.711 23.6824 129.702 23.7533C129.676 24.232 129.64 24.6309 129.622 24.888C129.596 24.8614 129.569 24.8436 129.543 24.8171C129.401 24.6752 129.285 24.4536 129.196 24.2231C129.108 23.8952 129.054 23.5495 129.01 23.2569C129.01 23.2303 128.975 22.9644 128.975 22.9378C129.028 22.858 129.09 22.7783 129.143 22.6985C129.17 22.663 129.196 22.6364 129.223 22.601C129.303 22.5035 129.374 22.4148 129.445 22.3173C129.578 22.1223 129.693 21.9184 129.747 21.7146C129.764 21.6702 129.773 21.6082 129.782 21.5461C129.782 21.8918 129.773 22.2464 129.756 22.5744L129.747 22.5833Z" fill="#ED401A"/>
<path d="M240.744 89.0341C240.593 88.3514 239.921 86.2766 239.779 85.7801C239.753 85.6737 239.717 85.5762 239.691 85.4875C239.646 84.6097 238.886 82.4817 237.868 78.1637C237.001 74.4575 235.992 70.104 235.028 67.116C234.603 65.786 234.276 64.2166 234.09 62.9842C233.568 59.5351 232.541 44.9496 231.187 39.6563C231.046 39.1154 230.887 38.6366 230.727 38.2288C229.002 33.8132 225.463 33.1483 225.02 32.8291C224.365 32.4035 223.489 32.4035 223.029 32.2705C222.604 31.9513 222.162 31.7385 221.764 31.5877C221.481 31.4281 221.268 31.3661 221.189 31.3217C221.153 31.2951 221.136 31.3395 221.118 31.437C220.676 31.2419 220.268 31.1887 220.074 31.0823C219.357 30.7454 218.632 30.3464 217.986 29.912C217.835 29.8056 217.685 29.6992 217.543 29.5839C216.88 28.0234 216.738 25.8156 216.765 23.9182C216.995 22.1803 217.198 20.3716 217.34 18.6603C217.366 18.6071 217.384 18.545 217.41 18.483C217.437 18.4032 217.464 18.3234 217.481 18.2347C217.809 17.5431 218.561 16.1245 219.039 15.291C219.357 14.7236 219.154 14.0586 218.764 13.7039H218.826C218.826 13.7039 221.091 7.80765 218.092 3.56944C215.039 -0.739699 209.456 0.0582899 209.456 0.0582899C209.456 0.0582899 203.872 -0.739699 200.82 3.56944C197.82 7.80765 200.085 13.695 200.085 13.695H200.147C199.758 14.0586 199.546 14.7236 199.873 15.291C200.351 16.1333 201.103 17.552 201.43 18.2347C201.457 18.3234 201.475 18.412 201.501 18.483C201.519 18.545 201.545 18.6071 201.572 18.6603C201.713 20.3716 201.926 22.1803 202.147 23.9182C202.174 25.8156 202.032 28.0234 201.368 29.5839C201.227 29.6992 201.085 29.8056 200.926 29.912C200.28 30.3464 199.554 30.7454 198.838 31.0823C198.643 31.1887 198.227 31.2331 197.794 31.437C197.785 31.3395 197.758 31.304 197.723 31.3217C197.652 31.3661 197.431 31.437 197.148 31.5877C196.749 31.7385 196.307 31.9513 195.882 32.2705C195.413 32.4035 194.546 32.4035 193.891 32.8291C193.449 33.1483 189.91 33.8132 188.184 38.2288C188.025 38.6366 187.866 39.1154 187.724 39.6563C186.37 44.9496 185.344 59.5351 184.822 62.9842C184.636 64.2166 184.309 65.786 183.884 67.116C182.919 70.104 181.911 74.4575 181.044 78.1637C180.026 82.4906 179.274 84.6186 179.221 85.4875C179.194 85.5762 179.159 85.6737 179.132 85.7801C179 86.2766 178.318 88.3514 178.168 89.0341C177.159 91.5611 176 95.9057 176 95.9057C176 95.9057 176 96.5796 176.08 96.6948C176.159 96.8101 176.354 97.2889 176.46 97.5194C176.566 97.7499 177.115 98.1135 177.195 98.1844C177.274 98.2553 177.416 98.5745 177.681 98.876C177.955 99.1774 178.309 99.3371 178.309 99.3371C178.309 99.3371 179.15 100.623 179.619 100.942C180.079 101.261 181.229 102.369 182.557 103.309C183.893 104.249 183.84 103.105 183.158 102.21C183.017 102.024 182.831 101.837 182.636 101.642C183.176 101.279 184.282 100.596 184.282 100.596C184.282 100.596 185.034 99.9754 184.627 99.5144C184.22 99.0533 182.424 100.596 182.424 100.596C182.424 100.596 183.627 99.3725 183.672 99.1863C183.716 99.0001 183.247 98.6721 182.654 99.0976C182.061 99.5321 181.451 100.082 181.451 100.082C181.451 100.082 182.203 99.275 182.291 99.0533C182.371 98.8317 181.946 98.5391 181.229 99.1242C181.097 99.2306 180.973 99.2927 180.849 99.3282C180.973 98.2287 181.574 95.1077 181.884 94.7353L181.92 94.691C181.92 94.691 182.105 94.558 182.38 94.6466C182.672 94.7619 182.964 95.09 183.034 95.356C183.141 95.7904 182.937 98.2553 183.946 99.0356C184.955 99.8158 185.034 98.7164 184.875 98.0071C184.716 97.2977 184.822 96.0564 185.07 94.7442C185.317 93.4319 184.68 90.8518 183.919 89.6282C183.946 89.3622 184.247 88.7327 184.353 88.3603C185.034 86.5869 186.052 84.1664 187.052 81.8611C188.096 79.4316 188.919 77.1618 189.458 75.5304C189.795 74.5196 190.051 73.5797 190.219 72.7729C190.618 70.84 191.025 68.6499 191.202 67.4973C191.237 67.3643 191.6 65.6176 191.83 64.8107C191.83 64.8107 193.865 57.6199 194.254 56.4673C194.759 54.3925 194.936 53.3551 195.263 52.2202C195.608 50.5976 196.059 49.2144 196.059 52.5926C196.059 53.0359 195.829 57.017 195.944 56.8397C196.104 57.0968 195.935 57.2387 195.944 57.2653C195.962 57.6111 195.953 58.3293 195.697 59.5617C195.413 60.9006 195.484 62.4079 195.387 63.0729C195.36 63.2679 195.263 63.5783 195.104 64.0304C194.962 64.4383 194.582 65.1742 194.051 66.3801C193.281 68.1268 192.361 70.9375 191.777 74.4309C191.635 75.0072 191.538 75.6279 191.494 76.2574C191.476 76.5323 191.458 76.8071 191.449 77.0731C191.246 77.747 191.051 78.5095 190.954 79.1834C190.724 80.2828 190.91 81.5153 190.821 82.0739C190.343 83.395 190.379 85.0264 190.308 85.7358C190.255 86.2589 190.06 87.7307 190.06 88.5199C189.883 91.4724 189.308 96.6948 190.37 103.221C190.547 104.302 190.786 105.411 191.025 106.546C192.024 111.209 193.511 115.74 194.67 118.932C194.971 119.854 195.272 120.759 195.52 121.379C195.537 121.45 195.555 121.521 195.573 121.574C195.767 122.328 195.776 123.365 196.104 124.296C196.634 126.141 197.395 129.457 197.493 129.918C197.493 130.095 197.493 130.326 197.484 130.565C197.44 131.514 197.112 134.528 196.873 137.765C196.679 140.336 196.918 143.315 197.059 144.698C197.13 145.567 197.218 146.436 197.342 147.287C198.245 153.184 200.404 160.773 201.165 164.249C201.59 166.191 201.457 168.957 201.758 170.066C202.023 171.05 202.315 171.661 202.315 172.273C202.28 172.761 202.138 173.266 202.059 173.692C201.917 174.437 201.89 175.066 201.492 175.731C201.183 176.254 200.758 176.689 200.545 177.327C200.36 177.664 200.121 178.196 200.015 178.586C199.9 178.985 199.988 179.154 200.413 179.437C200.572 179.508 200.714 179.739 201.059 179.854C201.51 180.005 202.218 179.987 203.005 179.996C204.111 180.005 205.359 179.996 206.049 179.996H206.058C206.058 179.996 206.102 179.996 206.111 179.996H206.642C207.137 179.996 208.412 179.996 208.341 179.367C208.35 179.358 208.359 179.349 208.359 179.34C208.509 179.216 208.544 179.118 208.5 179.021C208.35 178.639 208.845 178.347 208.403 176.946C208.049 175.802 207.81 175.155 207.483 173.834C207.314 173.213 207.288 172.131 207.306 171.679C207.341 171.44 207.615 170.261 207.509 169.693C207.518 169.445 207.819 168.869 207.642 168.372C207.571 168.115 207.483 167.84 207.376 167.547C207.261 167.246 207.173 166.918 207.084 166.581C206.934 165.907 206.89 164.684 206.925 163.371C206.996 161.19 207.093 154.07 207.491 150.178C207.819 146.959 207.279 143.492 207.093 140.868C207.058 140.345 207.022 139.804 207.005 139.272C206.996 138.252 207.022 136.222 207.049 135.158C207.049 134.768 207.058 133.996 207.102 133.792C207.137 133.589 207.704 131.443 207.766 130.521C207.766 130.521 207.766 130.538 207.757 130.565C207.845 130.033 207.89 129.439 207.907 128.774C207.978 125.697 207.642 123.135 207.598 122.168C207.562 121.521 207.854 117.354 207.845 112.974C207.863 110.677 207.845 108.425 207.766 106.342C207.73 105.26 207.721 104.276 207.721 103.362C207.766 101.917 207.952 98.743 208.075 96.5973C208.128 96.0564 208.155 95.622 208.146 95.2673C208.164 95.0102 208.173 94.7974 208.182 94.6555C208.217 94.0881 208.297 93.627 208.341 93.2901C208.73 93.3078 209.111 93.2901 209.5 93.2989C209.889 93.2989 210.27 93.2989 210.659 93.2901C210.712 93.6181 210.783 94.0881 210.818 94.6555C210.827 94.8062 210.836 95.0102 210.854 95.2673C210.845 95.6131 210.871 96.0564 210.925 96.5973C211.048 98.743 211.234 101.926 211.279 103.362C211.279 104.276 211.279 105.269 211.234 106.342C211.155 108.416 211.146 110.668 211.155 112.974C211.155 117.354 211.438 121.521 211.402 122.168C211.349 123.135 211.022 125.697 211.093 128.774C211.11 129.439 211.155 130.024 211.243 130.565C211.243 130.538 211.234 130.521 211.234 130.521C211.296 131.443 211.863 133.589 211.898 133.792C211.933 133.996 211.951 134.768 211.951 135.158C211.978 136.213 212.004 138.252 211.995 139.272C211.969 139.804 211.942 140.345 211.907 140.868C211.721 143.492 211.181 146.95 211.509 150.178C211.898 154.061 211.995 161.19 212.075 163.371C212.119 164.675 212.075 165.898 211.924 166.581C211.836 166.909 211.748 167.237 211.632 167.547C211.526 167.84 211.438 168.115 211.367 168.372C211.19 168.869 211.491 169.445 211.5 169.693C211.385 170.261 211.668 171.44 211.703 171.679C211.721 172.131 211.694 173.213 211.517 173.834C211.19 175.155 210.96 175.802 210.597 176.946C210.164 178.356 210.659 178.639 210.5 179.021C210.464 179.118 210.5 179.225 210.641 179.34C210.641 179.349 210.641 179.358 210.659 179.367C210.588 179.996 211.863 179.996 212.358 179.996H212.889C212.889 179.996 212.915 179.996 212.942 179.996H212.951C213.641 179.996 214.889 180.005 215.995 179.996C216.782 179.987 217.49 179.996 217.941 179.854C218.295 179.739 218.428 179.508 218.587 179.437C219.012 179.154 219.101 178.985 218.985 178.586C218.879 178.196 218.632 177.664 218.455 177.327C218.242 176.689 217.817 176.254 217.508 175.731C217.11 175.075 217.083 174.437 216.942 173.692C216.853 173.257 216.72 172.761 216.685 172.273C216.685 171.661 216.977 171.05 217.242 170.066C217.543 168.957 217.41 166.191 217.835 164.249C218.596 160.773 220.764 153.184 221.658 147.287C221.79 146.436 221.879 145.567 221.941 144.698C222.082 143.315 222.321 140.336 222.127 137.765C221.879 134.528 221.552 131.514 221.516 130.565C221.507 130.317 221.498 130.095 221.507 129.918C221.605 129.457 222.366 126.141 222.896 124.296C223.224 123.365 223.233 122.328 223.427 121.574C223.445 121.521 223.463 121.45 223.48 121.379C223.728 120.767 224.029 119.854 224.33 118.932C225.489 115.74 226.976 111.209 227.975 106.546C228.214 105.411 228.453 104.293 228.63 103.221C229.692 96.7037 229.117 91.4724 228.94 88.5199C228.94 87.7307 228.745 86.2589 228.692 85.7358C228.621 85.0264 228.648 83.4039 228.179 82.0739C228.09 81.5153 228.267 80.2828 228.046 79.1834C227.94 78.5095 227.754 77.747 227.551 77.0731C227.551 76.7983 227.533 76.5234 227.506 76.2574C227.453 75.6368 227.356 75.0072 227.223 74.4309C226.639 70.9375 225.71 68.1268 224.949 66.3801C224.418 65.1742 224.038 64.4383 223.896 64.0304C223.737 63.5783 223.64 63.2591 223.613 63.0729C223.516 62.4079 223.595 60.9006 223.304 59.5617C223.038 58.3381 223.038 57.6111 223.056 57.2653C223.065 57.2387 222.896 57.0968 223.056 56.8397C223.171 57.017 222.941 53.0359 222.941 52.5926C222.941 49.2144 223.392 50.5976 223.737 52.2202C224.064 53.3551 224.241 54.3836 224.746 56.4673C225.126 57.6199 227.17 64.8107 227.17 64.8107C227.4 65.6176 227.763 67.3643 227.798 67.4973C227.984 68.6499 228.391 70.84 228.781 72.7729C228.949 73.5797 229.197 74.5196 229.542 75.5304C230.081 77.1618 230.904 79.4316 231.948 81.8611C232.948 84.1752 233.966 86.5958 234.647 88.3603C234.753 88.7327 235.054 89.3622 235.081 89.6282C234.32 90.8518 233.683 93.4319 233.93 94.7442C234.178 96.0564 234.284 97.2889 234.125 98.0071C233.966 98.7164 234.045 99.8247 235.054 99.0356C236.063 98.2553 235.859 95.7904 235.966 95.356C236.036 95.09 236.319 94.7619 236.62 94.6466C236.895 94.5668 237.08 94.691 237.08 94.691L237.116 94.7353C237.434 95.1077 238.036 98.2199 238.151 99.3282C238.027 99.2927 237.903 99.2306 237.771 99.1242C237.054 98.5391 236.629 98.8317 236.709 99.0533C236.788 99.275 237.549 100.082 237.549 100.082C237.549 100.082 236.939 99.5321 236.346 99.0976C235.753 98.6632 235.284 99.0001 235.328 99.1863C235.373 99.3725 236.576 100.596 236.576 100.596C236.576 100.596 234.78 99.0444 234.373 99.5144C233.966 99.9754 234.718 100.596 234.718 100.596C234.718 100.596 235.833 101.27 236.364 101.642C236.16 101.837 235.983 102.024 235.842 102.21C235.16 103.105 235.107 104.249 236.443 103.309C237.779 102.369 238.921 101.27 239.381 100.942C239.841 100.623 240.691 99.3371 240.691 99.3371C240.691 99.3371 241.045 99.1774 241.319 98.876C241.593 98.5745 241.726 98.2553 241.805 98.1844C241.885 98.1135 242.434 97.7499 242.54 97.5194C242.646 97.2889 242.841 96.8101 242.92 96.6948C243 96.5796 243 95.9057 243 95.9057C243 95.9057 241.841 91.5611 240.832 89.0341H240.744ZM203.793 23.6256C203.722 24.1044 203.625 24.6718 203.465 25.2038C203.306 25.7181 203.094 26.2057 202.802 26.5338C202.758 26.587 202.704 26.6491 202.643 26.7023C202.598 26.2501 202.545 25.4964 202.492 24.5832C202.492 24.4679 202.483 24.3526 202.474 24.2374C202.448 23.732 202.421 23.1911 202.404 22.6237C202.404 22.5882 202.404 22.5439 202.404 22.5084C202.386 21.8966 202.377 21.2671 202.377 20.6376C202.395 20.7528 202.421 20.8592 202.448 20.9567C202.554 21.3291 202.749 21.7104 203.005 22.0651C203.129 22.2424 203.271 22.4197 203.412 22.5793C203.457 22.6325 203.501 22.6769 203.545 22.7212C203.651 22.8365 203.757 22.9517 203.864 23.067C203.864 23.067 203.802 23.6256 203.802 23.6344L203.793 23.6256ZM216.49 22.5084C216.49 22.5084 216.49 22.5882 216.49 22.6237C216.473 23.1911 216.446 23.732 216.419 24.2374C216.419 24.3526 216.411 24.4679 216.402 24.5832C216.349 25.4964 216.296 26.2501 216.251 26.7023C216.198 26.6491 216.145 26.5959 216.092 26.5338C215.809 26.1969 215.588 25.7181 215.428 25.2038C215.269 24.6718 215.163 24.1044 215.101 23.6256C215.101 23.6256 215.039 23.067 215.039 23.0581C215.145 22.9517 215.251 22.8365 215.358 22.7123C215.402 22.668 215.446 22.6148 215.49 22.5705C215.632 22.402 215.773 22.2335 215.897 22.0562C216.145 21.7015 216.349 21.3291 216.455 20.9479C216.481 20.8592 216.499 20.7528 216.526 20.6287C216.526 21.2582 216.517 21.8966 216.499 22.4995L216.49 22.5084Z" fill="#F4795E"/>
</svg>
