<?xml version="1.0" encoding="UTF-8"?>
<svg xmlns="http://www.w3.org/2000/svg" version="1.1" viewBox="0 0 398.42 243.16">
  <!-- Generator: Adobe Illustrator 28.7.1, SVG Export Plug-In . SVG Version: 1.2.0 Build 142)  -->
  <g>
    <g id="Layer_1">
      <path d="M48.58,82.67h27.61c0,1.8,0,3.4,0,5,0,13.82-.01,27.64,0,41.45,0,6.63,2.38,9.08,9.11,9.11,8.47.03,15.74-3.2,22.06-8.63.81-.69,1.51-2.01,1.52-3.05.1-13.79.07-27.58.07-41.72-3.79-.17-7.54-.32-11.92-.52-.05-.72-.02-1.83-.02-1.83,0,0,15.07-.17,17.79-.13,3.41.04,7.09.2,10.89.48,0,1.52,0,3.11,0,4.7,0,16.55,0,33.1,0,49.65,0,5.85.71,6.78,6.49,8.54,1.41.43,2.82.88,4.22,1.35.06.02.04.27.13,1.16-9.03.33-18,.15-27.35.08v-14.83c-1.96,1.46-3.2,2.39-4.46,3.31-10.24,7.51-21.57,11.82-34.44,11.59-5.52-.1-8.54-2.28-9.92-7.58-.6-2.31-.84-4.78-.85-7.18-.07-16.09-.04-32.18-.04-48.82-3.72-.11-7.3-.22-10.89-.33v-1.82Z"/>
      <path d="M313.5,190.42c3.47-.17,6.94-.35,10.61-.53v-45.18c-1.5.59-2.84,1.13-4.18,1.65-21.49,8.43-44.67-7.42-45.18-30.38-.48-21.63,21.52-40.45,45.54-31.08,7.32,2.86,13.8,3.25,20.61-2.37v107.58h11.02c.06.32.13.65.19.97-.52.34-1.04.98-1.57.98-12.06.04-24.11,0-36.17-.04-.26,0-.51-.3-.76-.47-.04-.38-.08-.76-.11-1.14ZM324.32,115.59c0-4.86.15-9.72-.03-14.56-.36-9.37-7.36-16.33-16.26-16.39-8.79-.06-16.14,6.99-16.39,16.26-.26,9.7-.17,19.42-.01,29.13.08,5.07,2.01,9.52,6.15,12.69,5.12,3.91,10.8,4.86,16.77,2.19,6.32-2.83,9.43-7.99,9.73-14.75.22-4.85.04-9.71.04-14.56Z"/>
      <path d="M265.9,82.26c0,2.49,0,3.96,0,5.43,0,13.66-.04,27.31.03,40.97.02,2.87.35,5.75.75,8.59.71,5.01,3.28,8.39,8.63,9.15.51.07.99.43,1.43,1.16-4.16.76-8.63,2.28-12.32-.23-6.28-4.28-12.3-4.01-19.02-1.33-11.45,4.57-22.46,3.24-32.51-3.96-10.94-7.84-15.65-21.75-12.22-35.22,3.15-12.4,14.18-22.33,27.08-24.02,5.46-.71,11.04-.66,16.2,1.64,7.44,3.31,14.62,4.24,21.94-2.16ZM216.42,115.34c0,4.85-.15,9.7.03,14.55.34,9.41,7.23,16.37,16.08,16.48,9.11.11,16.34-6.84,16.58-16.42.24-9.69.18-19.4,0-29.09-.1-5.24-2.21-9.75-6.55-12.94-5.05-3.71-10.58-4.51-16.36-1.88-6.29,2.86-9.39,8.04-9.74,14.75-.25,4.84-.05,9.7-.05,14.54Z"/>
      <path d="M176.77,84.68c-6.6,0-12.53-.37-18.4.09-8.32.66-15.49,7.7-17.14,16.05-.25,1.26-.53,2.51-1.43,3.72-1.75-7.13-1.05-14.29-1.03-21.71h58.98c-12.75,21.27-25.27,42.15-38.07,63.5,6.51,0,12.31.3,18.07-.07,8.44-.54,15.77-7.42,17.39-15.71.27-1.4.54-2.79.91-4.74,1.95,3.05,2.38,16.15,1.07,22.36h-58.37c12.75-21.28,25.24-42.13,38.03-63.49Z"/>
      <g>
        <path d="M129.04,190.43h12.82v-11.63h4.48v29.72h-4.48v-13.88h-12.82v13.88h-4.48v-29.72h4.48v11.63Z"/>
        <path d="M159.87,193.52c0-4.18,1.53-7.78,4.6-10.78,3.05-3,6.72-4.5,11.01-4.5s7.87,1.51,10.89,4.54c3.04,3.03,4.56,6.67,4.56,10.91s-1.53,7.9-4.58,10.88c-3.07,2.99-6.77,4.48-11.11,4.48-3.84,0-7.28-1.33-10.34-3.98-3.36-2.94-5.04-6.79-5.04-11.55ZM164.4,193.58c0,3.29,1.1,5.99,3.31,8.1,2.19,2.12,4.73,3.18,7.6,3.18,3.12,0,5.75-1.08,7.89-3.23,2.14-2.18,3.21-4.84,3.21-7.97s-1.06-5.83-3.18-7.97c-2.1-2.16-4.71-3.23-7.82-3.23s-5.7,1.08-7.83,3.23c-2.13,2.13-3.2,4.76-3.2,7.89Z"/>
        <path d="M203.43,208.52l6.26-31.95,10.2,23.1,10.57-23.1,5.62,31.95h-4.6l-2.87-17.94-8.8,19.31-8.55-19.33-3.2,17.96h-4.64Z"/>
        <path d="M266.65,183.01h-11.92v7.14h11.57v4.22h-11.57v9.93h11.92v4.22h-16.4v-29.72h16.4v4.22Z"/>
      </g>
    </g>
  </g>
</svg>