<?xml version="1.0" standalone="no"?>
<!DOCTYPE svg PUBLIC "-//W3C//DTD SVG 20010904//EN"
 "http://www.w3.org/TR/2001/REC-SVG-20010904/DTD/svg10.dtd">
<svg version="1.0" xmlns="http://www.w3.org/2000/svg"
 width="1920.000000pt" height="496.000000pt" viewBox="0 0 1920.000000 496.000000"
 preserveAspectRatio="xMidYMid meet">

<g transform="translate(0.000000,496.000000) scale(0.100000,-0.100000)"
fill="#000000" stroke="none">
<path d="M8432 4464 c-787 -122 -1252 -619 -1252 -1339 0 -143 10 -223 41
-330 44 -150 149 -319 266 -425 143 -131 252 -199 596 -376 389 -200 500 -283
572 -426 31 -62 35 -80 35 -147 0 -63 -5 -87 -27 -132 -57 -115 -209 -224
-380 -271 -74 -21 -103 -22 -575 -26 l-498 -3 0 -275 0 -274 739 0 c802 0 859
3 1086 57 559 132 918 429 1025 849 69 269 32 626 -87 843 -116 214 -255 322
-683 532 -146 72 -308 159 -360 194 -206 137 -346 340 -381 554 -34 204 77
378 303 473 51 22 65 23 416 26 l362 3 0 103 c0 57 3 171 7 254 l6 152 -559
-1 c-432 -1 -580 -4 -652 -15z"/>
<path d="M294 4383 c13 -38 317 -900 676 -1918 359 -1017 663 -1883 677 -1923
l25 -72 508 0 507 0 26 73 c76 213 1337 3891 1337 3899 0 4 -152 8 -338 8
l-338 0 -418 -1357 c-230 -747 -423 -1369 -428 -1383 -7 -20 -11 -22 -17 -10
-4 8 -203 630 -442 1382 l-434 1368 -682 0 -682 0 23 -67z"/>
<path d="M4190 2460 l0 -1990 1385 0 1385 0 0 275 0 275 -747 2 -748 3 -3 578
-2 577 625 0 625 0 0 235 0 235 -622 2 -623 3 -3 663 -2 662 705 0 705 0 0
235 0 235 -1340 0 -1340 0 0 -1990z"/>
<path d="M9790 4195 l0 -255 490 0 490 0 0 -1735 0 -1735 635 0 635 0 0 1735
0 1735 470 0 470 0 0 255 0 255 -1595 0 -1595 0 0 -255z"/>
<path d="M13200 2460 l0 -1990 1360 0 1360 0 0 275 0 275 -725 0 -725 0 0 580
0 580 620 0 620 0 0 235 0 235 -620 0 -620 0 0 665 0 665 685 0 685 0 0 235 0
235 -1320 0 -1320 0 0 -1990z"/>
<path d="M16140 2460 l0 -1990 1390 0 1390 0 0 275 0 275 -725 0 -725 0 0
1715 0 1715 -665 0 -665 0 0 -1990z"/>
</g>
</svg>
