<?xml version="1.0" encoding="UTF-8"?>
<svg width="185px" height="48px" viewBox="0 0 185 48" version="1.1" xmlns="http://www.w3.org/2000/svg" xmlns:xlink="http://www.w3.org/1999/xlink">
    <!-- Generator: Sketch 55.2 (78181) - https://sketchapp.com -->
    <title>Group 45</title>
    <desc>Created with Sketch.</desc>
    <g id="Page-1" stroke="none" stroke-width="1" fill="none" fill-rule="evenodd">
        <g id="top-header_1320" transform="translate(-628.000000, -2133.000000)">
            <g id="Group-2-Copy" transform="translate(0.000000, 2069.000000)">
                <g id="Group-14">
                    <g id="Group-45" transform="translate(628.000034, 64.000603)">
                        <path d="M0.0770830518,4.0145 C-0.153161513,3.51882065 0.15249066,3.02213587 0.726593921,3.02213587 L4.6226537,3.02213587 C4.9665124,3.02213587 5.19575153,3.25036957 5.27216457,3.44240761 L12.6450178,19.8692011 L12.835045,19.8692011 L20.2078983,3.44240761 C20.2853167,3.25036957 20.5145559,3.02213587 20.8584146,3.02213587 L24.7544744,3.02213587 C25.3275722,3.02213587 25.6332244,3.51882065 25.4039852,4.0145 L13.5619744,29.7234674 C13.4473548,29.953712 13.2553167,30.1437391 12.9124635,30.1437391 L12.5303983,30.1437391 C12.1865396,30.1437391 11.995507,29.953712 11.8808874,29.7234674 L0.0770830518,4.0145 Z" id="Fill-1" fill="#40484E"></path>
                        <path d="M33.6600124,3.74745652 C33.6600124,3.3653913 34.0038711,3.02153261 34.3859363,3.02153261 L37.9381374,3.02153261 C38.3202026,3.02153261 38.6650667,3.3653913 38.6650667,3.74745652 L38.6650667,29.0361522 C38.6650667,29.4182174 38.3202026,29.7620761 37.9381374,29.7620761 L34.3859363,29.7620761 C34.0038711,29.7620761 33.6600124,29.4182174 33.6600124,29.0361522 L33.6600124,3.74745652 Z" id="Fill-3" fill="#40484E"></path>
                        <path d="M46.9171727,4.0145 C46.6879336,3.51882065 46.9935858,3.02213587 47.5666836,3.02213587 L51.4627434,3.02213587 C51.8066021,3.02213587 52.0368466,3.25036957 52.1122542,3.44240761 L59.4851075,19.8692011 L59.6761401,19.8692011 L67.0489934,3.44240761 C67.1264119,3.25036957 67.3546456,3.02213587 67.6985042,3.02213587 L71.5955695,3.02213587 C72.1676619,3.02213587 72.473314,3.51882065 72.2440749,4.0145 L60.402064,29.7234674 C60.2874445,29.953712 60.0964119,30.1437391 59.7535586,30.1437391 L59.3714934,30.1437391 C59.0266292,30.1437391 58.8355966,29.953712 58.7209771,29.7234674 L46.9171727,4.0145 Z" id="Fill-5" fill="#40484E"></path>
                        <path d="M80.5001021,3.74745652 C80.5001021,3.3653913 80.8067597,3.02153261 81.2270314,3.02153261 L96.7740695,3.02153261 C97.1943412,3.02153261 97.4999934,3.3653913 97.4999934,3.74745652 L97.4999934,6.87938587 C97.4999934,7.26145109 97.1943412,7.60631522 96.7740695,7.60631522 L85.4659445,7.60631522 L85.4659445,13.8701739 L94.9019499,13.8701739 C95.2840151,13.8701739 95.6278738,14.2140326 95.6278738,14.5960978 L95.6278738,17.7672391 C95.6278738,18.1875109 95.2840151,18.493163 94.9019499,18.493163 L85.4659445,18.493163 L85.4659445,25.1782989 L96.7740695,25.1782989 C97.1943412,25.1782989 97.4999934,25.5221576 97.4999934,25.9042228 L97.4999934,29.0361522 C97.4999934,29.4182174 97.1943412,29.7620761 96.7740695,29.7620761 L81.2270314,29.7620761 C80.8067597,29.7620761 80.5001021,29.4182174 80.5001021,29.0361522 L80.5001021,3.74745652 Z" id="Fill-7" fill="#40484E"></path>
                        <path d="M107.474007,3.32718478 C107.474007,2.94511957 107.817866,2.63946739 108.199931,2.63946739 L108.773029,2.63946739 C109.040474,2.63946739 109.230502,2.71688587 109.421534,2.90691304 L125.007784,19.5237337 L125.085203,19.5237337 L125.085203,3.74745652 C125.085203,3.3653913 125.389849,3.02153261 125.810121,3.02153261 L129.324116,3.02153261 C129.706181,3.02153261 130.05004,3.3653913 130.05004,3.74745652 L130.05004,29.4564239 C130.05004,29.8384891 129.706181,30.1441413 129.324116,30.1441413 L128.789224,30.1441413 C128.522784,30.1441413 128.331752,30.0687337 128.140719,29.8766957 L112.479061,12.6093587 L112.401643,12.6093587 L112.401643,29.0361522 C112.401643,29.4182174 112.095991,29.7620761 111.675719,29.7620761 L108.199931,29.7620761 C107.817866,29.7620761 107.474007,29.4182174 107.474007,29.0361522 L107.474007,3.32718478 Z" id="Fill-9" fill="#40484E"></path>
                        <path d="M140.407828,27.165038 C140.024757,26.8583804 139.872936,26.6301467 140.216795,26.017837 L141.59223,23.650038 C141.896877,23.1161522 142.546387,23.1161522 142.890246,23.3825924 C144.456713,24.5669946 146.176007,25.7513967 148.658425,25.7513967 C150.64617,25.7513967 152.135219,24.452375 152.135219,22.8094946 C152.135219,20.860962 150.492338,19.5237337 147.283996,18.2257174 C143.692583,16.7738696 140.10117,14.4824837 140.10117,9.97411413 C140.10117,6.57473913 142.6228,2.63946739 148.696632,2.63946739 C152.593697,2.63946739 155.573806,4.62620652 156.337936,5.19930435 C156.720002,5.42854348 156.833616,6.07704891 156.56617,6.45911413 L155.115328,8.63688587 C154.80867,9.09536413 154.236578,9.4010163 153.778099,9.09536413 C152.135219,8.06479348 150.568752,6.99400543 148.468398,6.99400543 C146.290627,6.99400543 145.106224,8.21661413 145.106224,9.66946739 C145.106224,11.4641685 146.519866,12.6867772 149.613588,13.9475924 C153.319621,15.4366413 157.598752,17.6526196 157.598752,22.5802554 C157.598752,26.5155272 154.198371,30.1441413 148.811252,30.1441413 C143.998235,30.1441413 141.515817,28.1191957 140.407828,27.165038" id="Fill-11" fill="#40484E"></path>
                        <path d="M167.304213,3.74745652 C167.304213,3.3653913 167.609866,3.02153261 168.030137,3.02153261 L183.578181,3.02153261 C183.998453,3.02153261 184.303099,3.3653913 184.303099,3.74745652 L184.303099,6.87938587 C184.303099,7.26145109 183.998453,7.60631522 183.578181,7.60631522 L172.270056,7.60631522 L172.270056,13.8701739 L181.706061,13.8701739 C182.088127,13.8701739 182.431985,14.2140326 182.431985,14.5960978 L182.431985,17.7672391 C182.431985,18.1875109 182.088127,18.493163 181.706061,18.493163 L172.270056,18.493163 L172.270056,25.1782989 L183.578181,25.1782989 C183.998453,25.1782989 184.303099,25.5221576 184.303099,25.9042228 L184.303099,29.0361522 C184.303099,29.4182174 183.998453,29.7620761 183.578181,29.7620761 L168.030137,29.7620761 C167.609866,29.7620761 167.304213,29.4182174 167.304213,29.0361522 L167.304213,3.74745652 Z" id="Fill-13" fill="#40484E"></path>
                        <path d="M56.0416945,38.4545625 C56.0416945,38.3741277 56.1020206,38.3047527 56.202564,38.3047527 L56.3332706,38.3047527 C56.403651,38.3047527 56.4840858,38.3741277 56.4840858,38.4545625 L56.4840858,41.3200516 C56.6248466,41.168231 57.1768303,40.5951332 58.0817216,40.5951332 C59.2972923,40.5951332 59.8201184,41.3492092 59.8201184,42.6452147 L59.8201184,45.1879592 C59.8201184,45.268394 59.7497379,45.3387745 59.6693032,45.3387745 L59.5285423,45.3387745 C59.4481075,45.3387745 59.3777271,45.268394 59.3777271,45.1879592 L59.3777271,42.6452147 C59.3777271,41.5704049 58.9554445,41.0274701 58.0616129,41.0274701 C57.1677814,41.0274701 56.6147923,41.7202147 56.4840858,41.8810842 L56.4840858,45.1879592 C56.4840858,45.2885027 56.433814,45.3387745 56.3332706,45.3387745 L56.172401,45.3387745 C56.0819119,45.3387745 56.0416945,45.268394 56.0416945,45.1879592 L56.0416945,38.4545625 Z" id="Fill-15" fill="#40484E"></path>
                        <path d="M64.6772733,45.0174375 C65.7118657,45.0174375 66.5363222,44.1215951 66.5363222,43.0065679 C66.5363222,41.9227092 65.7118657,41.0268668 64.6772733,41.0268668 C63.6225722,41.0268668 62.7880613,41.9227092 62.7880613,43.0065679 C62.7880613,44.1215951 63.6225722,45.0174375 64.6772733,45.0174375 M64.6772733,40.5955353 C65.9742841,40.5955353 67.0088765,41.6904538 67.0088765,43.0065679 C67.0088765,44.3639049 65.9742841,45.4497745 64.6772733,45.4497745 C63.3511048,45.4497745 62.34567,44.3639049 62.34567,43.0065679 C62.34567,41.6904538 63.3511048,40.5955353 64.6772733,40.5955353" id="Fill-17" fill="#40484E"></path>
                        <path d="M69.5840966,40.8464918 C69.5840966,40.7660571 69.6444227,40.6956766 69.7349119,40.6956766 L69.8153466,40.6956766 C69.8857271,40.6956766 69.9158901,40.7368995 69.9259445,40.8173342 L69.9862706,41.3089918 C70.1169771,41.1380679 70.5895314,40.5951332 71.5235803,40.5951332 C72.237439,40.5951332 72.6486619,40.897769 72.9603466,41.4195897 C73.1011075,41.2396168 73.6339879,40.5951332 74.589151,40.5951332 C75.8549934,40.5951332 76.2662162,41.4497527 76.2662162,42.6452147 L76.2662162,45.1879592 C76.2662162,45.268394 76.2058901,45.3387745 76.1164064,45.3387745 L75.9454825,45.3387745 C75.8751021,45.3387745 75.8248303,45.2885027 75.8248303,45.1879592 L75.8248303,42.6452147 C75.8248303,41.5704049 75.4226564,41.0274701 74.5479282,41.0274701 C73.6842597,41.0274701 73.2619771,41.660894 73.1111619,41.8418723 C73.1815423,42.0821712 73.201651,42.3335299 73.201651,42.6452147 L73.201651,45.1879592 C73.201651,45.268394 73.1212162,45.3387745 73.0508358,45.3387745 L72.9000206,45.3387745 C72.8095314,45.3387745 72.7592597,45.2885027 72.7592597,45.1879592 L72.7592597,42.6452147 C72.7592597,41.5704049 72.3480369,41.0274701 71.4733086,41.0274701 C70.5281999,41.0274701 70.0767597,41.7202147 70.0264879,41.8217636 L70.0264879,45.1879592 C70.0264879,45.2885027 69.9762162,45.3387745 69.8756727,45.3387745 L69.7148032,45.3387745 C69.624314,45.3387745 69.5840966,45.268394 69.5840966,45.1879592 L69.5840966,40.8464918 Z" id="Fill-19" fill="#40484E"></path>
                        <path d="M82.6833032,42.745356 C82.6833032,41.8314158 82.0900966,41.0270679 81.0454499,41.0270679 C80.0400151,41.0270679 79.3171075,41.781144 79.2567814,42.745356 L82.6833032,42.745356 Z M81.0454499,40.594731 C82.2710749,40.594731 83.124689,41.519731 83.124689,42.706144 C83.124689,42.8871223 83.124689,43.1575842 82.9547706,43.1575842 L79.2467271,43.1575842 C79.2668358,44.1921766 80.0500695,45.0176386 81.0454499,45.0176386 C81.6989825,45.0176386 82.1906401,44.7451658 82.4721619,44.5541332 C82.5727053,44.4948125 82.6229771,44.4837527 82.6732488,44.5541332 L82.7838466,44.7250571 C82.824064,44.7662799 82.8140097,44.8467147 82.7335749,44.9060353 C82.4621075,45.127231 81.7794173,45.4489701 81.0454499,45.4489701 C79.679064,45.4489701 78.8043358,44.3631005 78.8043358,43.006769 C78.8043358,41.6906549 79.679064,40.594731 81.0454499,40.594731 L81.0454499,40.594731 Z" id="Fill-21" fill="#40484E"></path>
                        <path d="M92.4656809,39.7310625 C92.4656809,39.168019 92.0645124,38.5959266 91.2501102,38.5959266 C90.3864417,38.5959266 89.9842678,39.2082364 89.9842678,39.7712799 C89.9842678,40.2438342 90.306007,40.6751658 90.6669581,41.0481821 C90.768507,41.1376658 90.8579907,41.2392147 90.9585341,41.3397582 C91.6925015,40.9667418 92.4656809,40.4549755 92.4656809,39.7310625 M91.0088059,45.0367418 C91.8433167,45.0367418 92.5360613,44.6456277 93.0387787,44.0423668 L90.8579907,41.8314158 C90.2044581,42.1833179 89.5318222,42.7262527 89.5318222,43.5999755 C89.5318222,44.4033179 90.1451374,45.0367418 91.0088059,45.0367418 M90.5774744,41.5599484 L90.4266591,41.3990788 C89.9943222,40.9265245 89.5619852,40.4238071 89.5619852,39.7612255 C89.5619852,39.0674755 90.0848113,38.2028016 91.2802733,38.2028016 C92.3560885,38.2028016 92.9080722,38.9377745 92.9080722,39.7210082 C92.9080722,40.555519 92.0444037,41.2181005 91.2501102,41.6303288 L93.3001917,43.6603016 C93.682257,43.0479918 93.9034526,42.313019 93.9034526,41.6102201 C93.9034526,41.5599484 93.8933983,41.4594049 93.8933983,41.4101386 C93.8933983,41.3588614 93.9125015,41.3196495 93.9738331,41.3196495 L94.1849744,41.3196495 C94.2543494,41.3196495 94.2855178,41.3488071 94.3046211,41.4101386 C94.3257352,41.4795136 94.3257352,41.5599484 94.3257352,41.6102201 C94.3257352,42.4035082 94.0532624,43.2581277 93.6018222,43.9508723 L94.6464689,44.9874755 C94.7269037,45.0568505 94.7671211,45.1473397 94.6866863,45.2177201 L94.5258167,45.3685353 C94.4463874,45.4489701 94.3750015,45.3986984 94.3257352,45.3484266 L93.3203004,44.3339429 C92.7472026,45.0075842 91.9539146,45.4399212 90.9987515,45.4399212 C89.7932352,45.4399212 89.0894309,44.5853016 89.0894309,43.5999755 C89.0894309,42.5452745 89.8636157,41.9420136 90.5774744,41.5599484" id="Fill-23" fill="#40484E"></path>
                        <path d="M100.83311,38.4545625 C100.83311,38.3741277 100.894442,38.3047527 100.983925,38.3047527 L101.124686,38.3047527 C101.195067,38.3047527 101.274496,38.3741277 101.274496,38.4545625 L101.274496,45.1879592 C101.274496,45.2885027 101.22523,45.3387745 101.124686,45.3387745 L100.963817,45.3387745 C100.873328,45.3387745 100.83311,45.268394 100.83311,45.1879592 L100.83311,38.4545625 Z" id="Fill-25" fill="#40484E"></path>
                        <path d="M104.231379,40.8464918 C104.231379,40.7660571 104.291705,40.6956766 104.381189,40.6956766 L104.52195,40.6956766 C104.59233,40.6956766 104.672765,40.7660571 104.672765,40.8464918 L104.672765,45.1879592 C104.672765,45.2885027 104.623499,45.3387745 104.52195,45.3387745 L104.362086,45.3387745 C104.271597,45.3387745 104.231379,45.268394 104.231379,45.1879592 L104.231379,40.8464918 Z M104.040347,39.0276603 C104.040347,38.8064647 104.220319,38.6355408 104.442521,38.6355408 C104.663716,38.6355408 104.83464,38.8064647 104.83464,39.0276603 C104.83464,39.2377962 104.663716,39.4087201 104.442521,39.4087201 C104.220319,39.4087201 104.040347,39.2377962 104.040347,39.0276603 L104.040347,39.0276603 Z" id="Fill-27" fill="#40484E"></path>
                        <path d="M106.986472,40.8660978 C106.9362,40.7756087 106.946254,40.6951739 107.046798,40.6951739 L107.278048,40.6951739 C107.338374,40.6951739 107.38764,40.716288 107.427858,40.8067772 L109.127042,44.7249565 L109.146146,44.7249565 L110.875493,40.8067772 C110.904651,40.716288 110.976037,40.6951739 111.026309,40.6951739 L111.257559,40.6951739 C111.358102,40.6951739 111.378211,40.7756087 111.317885,40.8660978 L109.308021,45.3382717 C109.267803,45.4086522 109.227586,45.449875 109.16726,45.449875 L109.116988,45.449875 C109.056662,45.449875 109.016444,45.4187065 108.976227,45.3382717 L106.986472,40.8660978 Z" id="Fill-29" fill="#40484E"></path>
                        <path d="M113.632798,40.8464918 C113.632798,40.7660571 113.693124,40.6956766 113.782608,40.6956766 L113.923368,40.6956766 C113.993749,40.6956766 114.074184,40.7660571 114.074184,40.8464918 L114.074184,45.1879592 C114.074184,45.2885027 114.024917,45.3387745 113.923368,45.3387745 L113.763504,45.3387745 C113.673015,45.3387745 113.632798,45.268394 113.632798,45.1879592 L113.632798,40.8464918 Z M113.441765,39.0276603 C113.441765,38.8064647 113.621738,38.6355408 113.843939,38.6355408 C114.065135,38.6355408 114.236059,38.8064647 114.236059,39.0276603 C114.236059,39.2377962 114.065135,39.4087201 113.843939,39.4087201 C113.621738,39.4087201 113.441765,39.2377962 113.441765,39.0276603 L113.441765,39.0276603 Z" id="Fill-31" fill="#40484E"></path>
                        <path d="M116.971143,40.8464918 C116.971143,40.7660571 117.031469,40.6956766 117.131007,40.6956766 L117.182284,40.6956766 C117.272773,40.6956766 117.312991,40.7368995 117.323045,40.8173342 L117.372311,41.3089918 C117.524132,41.1491277 118.08617,40.5951332 119.010165,40.5951332 C120.327284,40.5951332 120.759621,41.4105408 120.759621,42.6261114 L120.759621,45.1879592 C120.759621,45.268394 120.688235,45.3387745 120.608806,45.3387745 L120.468045,45.3387745 C120.386605,45.3387745 120.31723,45.268394 120.31723,45.1879592 L120.31723,42.6452147 C120.31723,41.5704049 119.884893,41.0274701 118.991061,41.0274701 C118.045953,41.0274701 117.452746,41.7614375 117.412529,41.8217636 L117.412529,45.1879592 C117.412529,45.2885027 117.363262,45.3387745 117.261713,45.3387745 L117.101849,45.3387745 C117.01136,45.3387745 116.971143,45.268394 116.971143,45.1879592 L116.971143,40.8464918 Z" id="Fill-33" fill="#40484E"></path>
                        <path d="M127.013727,41.6397799 C126.953401,41.5603505 126.410466,41.0274701 125.516635,41.0274701 C124.450874,41.0274701 123.738021,41.9223071 123.738021,42.9971168 C123.738021,44.1322527 124.491091,45.0170353 125.617178,45.0170353 C126.401417,45.0170353 126.953401,44.5143179 127.013727,44.4539918 L127.013727,41.6397799 Z M127.013727,44.9667636 C126.883021,45.0773614 126.380303,45.4493723 125.607124,45.4493723 C124.260847,45.4493723 123.295629,44.3735571 123.295629,43.0061658 C123.295629,41.6508397 124.210575,40.5951332 125.496526,40.5951332 C126.351146,40.5951332 126.923238,41.0274701 127.063999,41.1380679 L127.104216,40.8173342 C127.114271,40.7268451 127.154488,40.6956766 127.234923,40.6956766 L127.295249,40.6956766 C127.375684,40.6956766 127.455113,40.7459484 127.455113,40.8464918 L127.455113,45.4594266 C127.455113,46.794644 126.562287,47.5386658 125.395983,47.5386658 C124.621798,47.5386658 124.029597,47.1264375 123.82851,46.9364103 C123.758129,46.8650245 123.767178,46.8258125 123.808401,46.7654864 L123.908944,46.6357853 C123.969271,46.5643995 124.018537,46.5643995 124.109026,46.6357853 C124.29101,46.7845897 124.813836,47.1063288 125.395983,47.1063288 C126.310928,47.1063288 127.013727,46.5553505 127.013727,45.4594266 L127.013727,44.9667636 Z" id="Fill-35" fill="#40484E"></path>
                        <path d="M39.5242108,0.698777174 L39.5211945,0.698777174 C39.0908684,0.247336957 38.5167651,1.12621024e-12 37.9024445,1.12621024e-12 C37.223776,1.12621024e-12 36.5943738,0.301630435 36.1620369,0.831494565 C35.7296999,0.301630435 35.0972814,1.12621024e-12 34.4216292,1.12621024e-12 C33.1628249,1.12621024e-12 32.1402977,1.05470109 32.1402977,2.35372283 C32.1402977,4.4138587 35.0942651,6.39054348 35.9991564,6.94453804 L36.1288575,7.02597826 C36.1409227,7.03201087 36.1499716,7.03502717 36.1620369,7.03502717 C36.1710858,7.03502717 36.183151,7.03201087 36.1932053,7.02597826 L36.3249173,6.95358696 C36.969401,6.58459239 40.183776,4.62600543 40.183776,2.35372283 C40.183776,1.73336957 39.9474988,1.14317935 39.5242108,0.698777174" id="Fill-37" fill="#FDDA57"></path>
                    </g>
                </g>
            </g>
        </g>
    </g>
</svg>