<?xml version="1.0" encoding="UTF-8"?>
<svg xmlns="http://www.w3.org/2000/svg" xmlns:xlink="http://www.w3.org/1999/xlink"  width="319.38" height="69.691" viewBox="0 0 690 173.333" version="1.1">
<g id="surface1">
<path style=" stroke:none;fill-rule:nonzero;fill:rgb(10.151672%,23.249817%,34.590149%);fill-opacity:1;" d="M 249.789063 57.578125 C 248.292969 63.792969 246.800781 69.953125 245.332031 76.121094 C 243.941406 81.972656 242.539063 87.824219 241.21875 93.6875 C 240.816406 95.492188 239.972656 96.207031 238.042969 96.136719 C 233.933594 95.984375 229.808594 96.125 225.691406 96.070313 C 219.148438 95.984375 213.734375 92.128906 211.660156 85.9375 C 205.769531 68.34375 199.933594 50.726563 194.09375 33.113281 C 193.238281 30.535156 193.664063 29.992188 196.429688 29.980469 C 199.882813 29.964844 203.339844 29.933594 206.792969 29.996094 C 214.25 30.132813 219.648438 34.261719 221.539063 41.515625 C 223.960938 50.808594 226.195313 60.148438 228.511719 69.472656 C 228.597656 69.816406 228.535156 70.21875 229.1875 70.507813 C 230.082031 67.054688 230.988281 63.640625 231.84375 60.21875 C 234.140625 51.046875 236.46875 41.878906 238.660156 32.683594 C 239.164063 30.574219 240.121094 29.867188 242.289063 29.929688 C 247.800781 30.082031 253.320313 30.082031 258.828125 29.929688 C 261.035156 29.867188 261.917969 30.683594 262.414063 32.746094 C 265.335938 44.867188 268.367188 56.957031 271.363281 69.054688 C 271.46875 69.476563 271.640625 69.886719 271.976563 70.882813 C 272.566406 68.605469 273.039063 66.851563 273.480469 65.09375 C 275.523438 56.988281 277.464844 48.855469 279.621094 40.78125 C 281.257813 34.652344 286.398438 30.488281 292.71875 30.105469 C 296.527344 29.878906 300.359375 29.964844 304.183594 29.992188 C 306.457031 30.003906 306.851563 30.601563 306.125 32.898438 C 302.519531 44.292969 298.886719 55.683594 295.265625 67.074219 C 293.328125 73.15625 291.398438 79.238281 289.453125 85.316406 C 287.28125 92.082031 281.890625 96.039063 274.761719 96.082031 C 270.71875 96.109375 266.671875 96.019531 262.628906 96.117188 C 260.917969 96.160156 260.15625 95.519531 259.734375 93.878906 C 256.753906 82.304688 253.695313 70.753906 250.648438 59.199219 C 250.507813 58.664063 250.648438 57.980469 249.789063 57.578125 "/>
<path style=" stroke:none;fill-rule:nonzero;fill:rgb(10.151672%,23.249817%,34.590149%);fill-opacity:1;" d="M 608.71875 71.019531 C 610 65.960938 611.171875 61.371094 612.328125 56.78125 C 614.410156 48.53125 616.511719 40.292969 618.527344 32.027344 C 618.886719 30.542969 619.574219 29.953125 621.089844 29.964844 C 627.117188 30.011719 633.148438 30.042969 639.175781 29.945313 C 641.160156 29.914063 641.597656 31.035156 641.980469 32.59375 C 644.933594 44.625 647.933594 56.648438 650.925781 68.671875 C 651.0625 69.234375 651.25 69.785156 651.621094 71.023438 C 652.753906 66.539063 653.730469 62.6875 654.699219 58.828125 C 656.179688 52.921875 657.550781 46.988281 659.15625 41.121094 C 660.996094 34.394531 666.355469 30.230469 673.324219 30 C 676.847656 29.882813 680.378906 29.949219 683.90625 29.996094 C 686.066406 30.023438 686.476563 30.632813 685.800781 32.777344 C 680.171875 50.53125 674.574219 68.296875 668.863281 86.027344 C 666.910156 92.082031 661.34375 95.996094 654.992188 96.074219 C 650.726563 96.128906 646.460938 95.992188 642.199219 96.132813 C 640.242188 96.199219 639.714844 95.199219 639.304688 93.613281 C 636.375 82.253906 633.390625 70.90625 630.417969 59.5625 C 630.253906 58.941406 630.039063 58.335938 629.65625 57.105469 C 629.125 59.050781 628.710938 60.410156 628.382813 61.789063 C 625.84375 72.488281 623.300781 83.1875 620.8125 93.902344 C 620.460938 95.429688 619.804688 96.152344 618.140625 96.117188 C 613.878906 96.03125 609.613281 96.132813 605.351563 96.078125 C 598.769531 95.996094 593.289063 92.007813 591.207031 85.75 C 585.382813 68.214844 579.589844 50.667969 573.789063 33.121094 C 572.96875 30.636719 573.375 30.011719 575.90625 29.996094 C 579.507813 29.96875 583.113281 29.933594 586.710938 30.027344 C 594.164063 30.21875 599.597656 34.679688 601.382813 41.957031 C 603.617188 51.074219 605.847656 60.1875 608.089844 69.296875 C 608.191406 69.714844 608.382813 70.113281 608.71875 71.019531 "/>
<path style=" stroke:none;fill-rule:nonzero;fill:rgb(31.300354%,76.837158%,72.930908%);fill-opacity:1;" d="M 3.515625 37.683594 C 10.160156 29.488281 15.457031 20.761719 25.132813 16.425781 C 31.511719 13.570313 37.597656 14.4375 43.449219 17.9375 C 50.46875 22.132813 56.304688 27.742188 61.742188 33.730469 C 68.808594 41.507813 75.378906 49.710938 81.558594 58.21875 C 84.503906 62.265625 84.507813 63.742188 81.503906 67.621094 C 75.519531 75.34375 69.523438 83.054688 63.5 90.746094 C 60.847656 94.132813 59.65625 94.203125 56.785156 90.929688 C 50.285156 83.523438 44.601563 75.464844 38.359375 67.851563 C 31.371094 59.328125 24.460938 50.746094 16.496094 43.082031 C 14.894531 41.539063 13.109375 40.253906 11.261719 39.0625 C 8.734375 37.4375 7.609375 37.273438 3.515625 37.683594 "/>
<path style=" stroke:none;fill-rule:nonzero;fill:rgb(97.930908%,72.727966%,14.407349%);fill-opacity:1;" d="M 173.507813 37.589844 C 167.84375 36.515625 164.402344 40.101563 160.953125 43.316406 C 153.136719 50.59375 146.488281 58.941406 139.816406 67.246094 C 133.742188 74.800781 127.757813 82.425781 121.726563 90.015625 C 121.3125 90.535156 120.871094 91.03125 120.414063 91.503906 C 118.023438 93.992188 116.84375 93.96875 114.753906 91.308594 C 108.570313 83.460938 102.394531 75.613281 96.257813 67.726563 C 93.125 63.699219 92.988281 62.445313 96.054688 58.351563 C 105.128906 46.234375 114.292969 34.171875 125.78125 24.160156 C 130.046875 20.445313 134.550781 17.03125 140.160156 15.4375 C 146.867188 13.535156 152.640625 15.675781 157.898438 19.59375 C 164.105469 24.21875 168.578125 30.464844 173.160156 36.582031 C 173.320313 36.792969 173.34375 37.097656 173.507813 37.589844 "/>
<path style=" stroke:none;fill-rule:nonzero;fill:rgb(10.151672%,23.249817%,34.590149%);fill-opacity:1;" d="M 461.046875 96.355469 C 459.023438 96.035156 456.960938 95.859375 454.980469 95.367188 C 447.964844 93.621094 444.691406 89.488281 443.777344 81.605469 C 442.734375 72.585938 443.441406 63.535156 443.238281 54.503906 C 443.179688 51.929688 443.179688 49.355469 443.234375 46.78125 C 443.261719 45.546875 442.804688 45.066406 441.566406 45.117188 C 439.800781 45.1875 438.035156 45.117188 436.269531 45.140625 C 434.550781 45.164063 433.691406 44.4375 433.71875 42.632813 C 433.773438 39.25 433.785156 35.863281 433.722656 32.484375 C 433.6875 30.550781 434.5625 29.863281 436.414063 29.957031 C 438.246094 30.050781 440.089844 29.925781 441.925781 29.992188 C 443.261719 30.042969 443.753906 29.527344 443.714844 28.191406 C 443.640625 25.546875 443.664063 22.898438 443.691406 20.25 C 443.765625 11.890625 449.734375 5.597656 458.097656 5.179688 C 461.105469 5.03125 464.125 5.167969 467.140625 5.132813 C 468.800781 5.113281 469.5 5.800781 469.484375 7.523438 C 469.421875 14.214844 469.515625 20.90625 469.421875 27.597656 C 469.394531 29.378906 469.839844 30.105469 471.726563 30.007813 C 474.367188 29.871094 477.023438 30.027344 479.667969 29.957031 C 481.429688 29.90625 482.226563 30.554688 482.1875 32.390625 C 482.109375 35.847656 482.117188 39.304688 482.171875 42.757813 C 482.199219 44.480469 481.390625 45.148438 479.765625 45.136719 C 477.046875 45.113281 474.320313 45.210938 471.605469 45.105469 C 470.046875 45.046875 469.398438 45.394531 469.421875 47.148438 C 469.519531 54.648438 469.429688 62.148438 469.484375 69.648438 C 469.527344 75.058594 471.066406 76.652344 476.46875 77.175781 C 476.617188 77.1875 476.761719 77.214844 476.90625 77.226563 C 482.074219 77.660156 482.074219 77.660156 482.085938 83.003906 C 482.089844 86.386719 481.996094 89.773438 482.132813 93.148438 C 482.214844 95.269531 481.527344 96.371094 479.304688 96.296875 C 478.355469 96.265625 477.398438 96.339844 476.445313 96.367188 C 471.3125 96.097656 466.179688 96.128906 461.046875 96.355469 "/>
<path style=" stroke:none;fill-rule:nonzero;fill:rgb(10.151672%,23.249817%,34.590149%);fill-opacity:1;" d="M 397.964844 17.894531 C 398.675781 10.914063 404.90625 5.390625 412.449219 5.15625 C 415.523438 5.0625 418.597656 5.144531 421.675781 5.152344 C 422.65625 5.152344 423.609375 5.21875 423.898438 6.433594 C 423.640625 6.996094 423.742188 7.59375 423.742188 8.175781 C 423.738281 32.441406 423.738281 56.710938 423.742188 80.976563 C 423.742188 81.5625 423.660156 82.15625 423.867188 82.726563 C 422.511719 91.125 416.765625 96.0625 408.265625 96.082031 C 405.113281 96.085938 401.957031 95.996094 398.800781 95.949219 C 398.167969 95.085938 397.796875 94.179688 398.097656 93.066406 C 398.234375 92.578125 398.144531 92.042969 398.144531 91.527344 C 398.144531 67.636719 398.144531 43.746094 398.136719 19.851563 C 398.136719 19.199219 398.269531 18.523438 397.964844 17.894531 "/>
<path style=" stroke:none;fill-rule:nonzero;fill:rgb(79.203796%,23.390198%,64.863586%);fill-opacity:1;" d="M 112.464844 25.558594 C 112.335938 27.660156 111.117188 29.273438 109.925781 30.84375 C 104.59375 37.871094 99.210938 44.855469 93.847656 51.855469 C 93.085938 52.847656 92.363281 53.875 91.542969 54.8125 C 89.742188 56.871094 87.339844 56.941406 85.695313 54.808594 C 79.183594 46.371094 72.703125 37.910156 66.320313 29.375 C 64.050781 26.339844 64.199219 24.613281 66.46875 21.605469 C 69.828125 17.136719 73.277344 12.738281 77.609375 9.136719 C 78.625 8.292969 79.691406 7.503906 80.785156 6.765625 C 85.902344 3.3125 91.078125 3.25 96.253906 6.632813 C 102.726563 10.867188 107.300781 16.902344 111.75 23.046875 C 112.269531 23.769531 112.507813 24.636719 112.464844 25.558594 "/>
<path style=" stroke:none;fill-rule:nonzero;fill:rgb(10.151672%,23.249817%,34.590149%);fill-opacity:1;" d="M 634.4375 167.03125 C 632.699219 167.851563 630.863281 167.371094 629.082031 167.347656 C 627.820313 167.332031 628.261719 166.152344 628.261719 165.449219 C 628.226563 158.097656 628.238281 150.742188 628.238281 143.390625 C 628.238281 142.875 628.242188 142.359375 628.238281 141.847656 C 628.183594 136.101563 625.742188 133.171875 620.929688 133.082031 C 614.964844 132.976563 610.722656 136.457031 610.617188 141.871094 C 610.464844 149.589844 610.472656 157.3125 610.578125 165.03125 C 610.605469 167.015625 610.019531 167.523438 608.101563 167.464844 C 604.011719 167.339844 604.003906 167.441406 604.003906 163.402344 C 604.003906 156.636719 604.007813 149.875 604.007813 143.109375 C 604.007813 142.59375 604.007813 142.078125 604 141.566406 C 603.9375 138.265625 603.40625 135.0625 599.921875 133.699219 C 596.28125 132.273438 592.78125 133 589.855469 135.609375 C 587.585938 137.636719 586.28125 140.179688 586.308594 143.367188 C 586.375 150.644531 586.277344 157.925781 586.367188 165.203125 C 586.386719 166.917969 585.925781 167.488281 584.15625 167.464844 C 579.730469 167.402344 579.726563 167.488281 579.726563 163.082031 C 579.722656 152.347656 579.761719 141.613281 579.683594 130.878906 C 579.671875 128.980469 580.003906 128.132813 582.175781 128.242188 C 585.828125 128.429688 585.832031 128.285156 585.875 131.84375 C 585.882813 132.402344 585.9375 132.964844 585.972656 133.625 C 595.773438 125.011719 604.226563 125.089844 609.546875 133.804688 C 614.042969 127.425781 620.226563 126.28125 627.308594 128.148438 C 631.417969 129.230469 633.824219 131.90625 634.386719 136.167969 C 634.039063 138.492188 634.25 140.832031 634.238281 143.164063 C 634.207031 150.328125 634.21875 157.496094 634.238281 164.660156 C 634.238281 165.449219 634.042969 166.269531 634.4375 167.03125 "/>
<path style=" stroke:none;fill-rule:nonzero;fill:rgb(10.151672%,23.249817%,34.590149%);fill-opacity:1;" d="M 500.738281 133.636719 C 505.566406 127.636719 511.433594 126.367188 518.082031 128.007813 C 523.484375 129.34375 526.492188 133.453125 526.664063 140.136719 C 526.886719 148.730469 526.71875 157.332031 526.761719 165.933594 C 526.765625 167.121094 526.289063 167.453125 525.191406 167.429688 C 519.148438 167.3125 520.359375 168.210938 520.300781 162.859375 C 520.222656 156.027344 520.304688 149.1875 520.292969 142.351563 C 520.28125 137.015625 518.820313 134.515625 515.164063 133.472656 C 510.390625 132.105469 505.054688 133.902344 502.667969 137.691406 C 501.296875 139.867188 500.746094 142.269531 500.746094 144.820313 C 500.746094 151.652344 500.695313 158.492188 500.777344 165.324219 C 500.796875 166.941406 500.390625 167.480469 498.707031 167.460938 C 494.296875 167.414063 494.292969 167.496094 494.289063 163.050781 C 494.289063 147.46875 494.324219 131.886719 494.25 116.304688 C 494.238281 114.207031 494.601563 113.285156 496.996094 113.429688 C 500.730469 113.65625 500.742188 113.484375 500.738281 117.175781 Z M 500.738281 133.636719 "/>
<path style=" stroke:none;fill-rule:nonzero;fill:rgb(20.93811%,47.845459%,70.181274%);fill-opacity:1;" d="M 100.90625 83.496094 C 100.804688 84.527344 100.289063 85.167969 99.800781 85.804688 C 96.746094 89.75 93.6875 93.695313 90.601563 97.613281 C 89.09375 99.523438 88.621094 99.515625 87.117188 97.609375 C 84.023438 93.691406 81.019531 89.703125 77.855469 85.84375 C 76.527344 84.222656 76.632813 82.902344 77.886719 81.367188 C 80.023438 78.75 82.082031 76.070313 84.925781 74.148438 C 87.523438 72.394531 90.105469 72.375 92.71875 74.140625 C 95.882813 76.273438 98.152344 79.25 100.40625 82.238281 C 100.699219 82.628906 100.785156 83.171875 100.90625 83.496094 "/>
<path style=" stroke:none;fill-rule:nonzero;fill:rgb(10.151672%,23.249817%,34.590149%);fill-opacity:1;" d="M 397.964844 17.894531 C 398.519531 18.925781 398.359375 20.042969 398.359375 21.136719 C 398.367188 44.621094 398.367188 68.105469 398.359375 91.589844 C 398.359375 93.0625 398.34375 94.527344 398.800781 95.949219 C 397.53125 95.597656 397.710938 94.523438 397.710938 93.609375 C 397.714844 69.101563 397.730469 44.59375 397.753906 20.082031 C 397.753906 19.355469 397.890625 18.625 397.964844 17.894531 "/>
<path style=" stroke:none;fill-rule:nonzero;fill:rgb(10.151672%,23.249817%,34.590149%);fill-opacity:1;" d="M 423.867188 82.726563 C 423.429688 81.828125 423.519531 80.863281 423.519531 79.914063 C 423.515625 56.355469 423.515625 32.796875 423.519531 9.238281 C 423.519531 8.289063 423.414063 7.320313 423.898438 6.433594 C 423.917969 22.238281 423.957031 38.039063 423.957031 53.84375 C 423.957031 63.472656 423.898438 73.097656 423.867188 82.726563 "/>
<path style=" stroke:none;fill-rule:nonzero;fill:rgb(10.151672%,23.249817%,34.590149%);fill-opacity:1;" d="M 634.4375 167.03125 C 633.996094 166.304688 634.007813 165.492188 634.007813 164.6875 C 634.007813 155.96875 634.007813 147.246094 634.007813 138.527344 C 634.007813 137.722656 633.980469 136.910156 634.386719 136.167969 C 634.71875 146.457031 634.632813 156.742188 634.4375 167.03125 "/>
<path style=" stroke:none;fill-rule:nonzero;fill:rgb(10.151672%,23.249817%,34.590149%);fill-opacity:1;" d="M 461.046875 96.355469 C 466.179688 95.769531 471.316406 95.734375 476.445313 96.367188 C 471.3125 96.5 466.179688 96.648438 461.046875 96.355469 "/>
<path style=" stroke:none;fill-rule:nonzero;fill:rgb(10.151672%,23.249817%,34.590149%);fill-opacity:1;" d="M 524.710938 45.386719 C 529.292969 43.074219 534.6875 43.734375 538.480469 47.09375 C 540.226563 48.636719 541.496094 50.441406 541.871094 52.835938 C 542.0625 54.0625 541.859375 54.992188 540.878906 55.742188 C 540.550781 56.15625 540.085938 56.050781 539.660156 56.050781 C 533.070313 56.054688 526.476563 56.058594 519.886719 56.054688 C 519.519531 56.054688 519.152344 56.058594 518.832031 55.832031 C 518.464844 51.449219 520.75 47.386719 524.710938 45.386719 M 563.621094 76.140625 C 556.855469 76.113281 550.089844 76.148438 543.328125 76.117188 C 542.191406 76.113281 541.441406 76.492188 540.757813 77.441406 C 537.800781 81.554688 533.238281 83.011719 528.074219 81.605469 C 523.230469 80.285156 519.441406 76.023438 518.832031 71.433594 C 518.582031 69.5625 518.953125 68.816406 521.046875 68.867188 C 526.707031 69.003906 532.371094 68.914063 538.03125 68.914063 L 538.03125 68.90625 C 543.472656 68.90625 548.914063 68.898438 554.355469 68.910156 C 555.609375 68.914063 556.84375 68.804688 558.054688 68.453125 C 564.867188 66.484375 568.582031 58.09375 565.804688 50.777344 C 563.25 44.035156 558.835938 38.730469 552.882813 34.734375 C 543.691406 28.566406 533.484375 27.082031 522.730469 28.652344 C 515.246094 29.742188 508.265625 32.25 502.816406 37.699219 C 492.953125 47.5625 490.414063 59.542969 493.597656 72.832031 C 495.949219 82.636719 501.382813 90.164063 510.867188 94.324219 C 514.652344 95.988281 518.628906 96.949219 522.726563 97.511719 C 533.332031 98.96875 543.539063 97.804688 553.125 92.839844 C 558.984375 89.804688 563.578125 85.511719 565.65625 79 C 566.355469 76.824219 565.90625 76.152344 563.621094 76.140625 "/>
<path style=" stroke:none;fill-rule:nonzero;fill:rgb(10.151672%,23.249817%,34.590149%);fill-opacity:1;" d="M 338.9375 47.707031 C 344.554688 41.648438 355.28125 43.378906 358.539063 50.863281 C 359.226563 52.445313 359.964844 54.203125 358.183594 55.683594 C 357.933594 56.222656 357.4375 56.046875 357.03125 56.046875 C 350.421875 56.058594 343.8125 56.058594 337.203125 56.054688 C 336.835938 56.054688 336.46875 56.058594 336.140625 55.84375 C 335.484375 52.585938 336.835938 49.96875 338.9375 47.707031 M 380.171875 76.136719 C 374.144531 76.125 368.121094 76.183594 362.09375 76.101563 C 360.058594 76.074219 358.390625 76.246094 357.328125 78.355469 C 356.707031 79.582031 355.4375 80.375 354.148438 80.984375 C 346.609375 84.550781 337.421875 79.65625 336.058594 71.429688 C 335.746094 69.542969 336.019531 68.808594 338.15625 68.859375 C 343.8125 69 349.476563 68.90625 355.132813 68.90625 C 360.648438 68.910156 366.160156 68.945313 371.671875 68.898438 C 377.21875 68.851563 381.335938 65.863281 383.152344 60.621094 C 384.414063 56.988281 384.210938 53.398438 382.710938 49.875 C 380.078125 43.695313 375.960938 38.710938 370.417969 34.949219 C 360.265625 28.058594 349.070313 26.804688 337.308594 29.140625 C 329.296875 30.726563 322.265625 34.226563 317.179688 40.820313 C 309.261719 51.082031 307.785156 62.582031 311.386719 74.800781 C 314.335938 84.792969 320.574219 91.964844 330.632813 95.285156 C 342.90625 99.332031 355.175781 99.257813 367.222656 94.304688 C 374.160156 91.449219 379.867188 87.152344 382.625 79.796875 C 383.785156 76.707031 383.414063 76.140625 380.171875 76.136719 "/>
<path style=" stroke:none;fill-rule:nonzero;fill:rgb(10.151672%,23.249817%,34.590149%);fill-opacity:1;" d="M 649.230469 142.308594 C 650.332031 136.734375 654.449219 133.148438 659.945313 133.082031 C 665.699219 133.015625 670.167969 136.589844 671.335938 142.132813 C 671.613281 143.460938 671.5 144.179688 669.828125 144.121094 C 666.597656 144.007813 663.363281 144.085938 660.132813 144.085938 C 656.972656 144.082031 653.8125 144.011719 650.660156 144.113281 C 649.15625 144.164063 648.972656 143.617188 649.230469 142.308594 M 650.910156 149.777344 C 655.101563 149.839844 659.292969 149.800781 663.484375 149.796875 C 667.75 149.796875 672.019531 149.734375 676.28125 149.828125 C 677.84375 149.863281 678.316406 149.339844 678.257813 147.816406 C 678.183594 145.902344 678.089844 143.996094 677.625 142.136719 C 675.871094 135.164063 672.40625 129.523438 664.875 127.882813 C 657.492188 126.273438 650.996094 128.058594 646.214844 134.300781 C 642.609375 139.011719 641.929688 144.507813 642.367188 150.207031 C 643.042969 159.0625 647.210938 167.195313 658.730469 168.234375 C 666.46875 168.929688 673.347656 166.523438 676.421875 159.234375 C 678.207031 155.007813 678.257813 155.089844 673.710938 155 C 672.132813 154.96875 671.097656 155.191406 670.636719 156.953125 C 670.199219 158.621094 669.085938 159.996094 667.597656 160.886719 C 663.472656 163.367188 659.144531 163.242188 654.953125 161.257813 C 650.988281 159.382813 649.390625 155.839844 649.023438 151.601563 C 648.890625 150.0625 649.546875 149.757813 650.910156 149.777344 "/>
<path style=" stroke:none;fill-rule:nonzero;fill:rgb(10.151672%,23.249817%,34.590149%);fill-opacity:1;" d="M 564.308594 154.792969 C 562.421875 160.007813 558.511719 162.667969 553.050781 162.613281 C 547.671875 162.5625 543.703125 159.578125 542.003906 154.1875 C 540.714844 150.089844 540.683594 145.933594 541.933594 141.816406 C 543.671875 136.097656 547.929688 132.980469 553.699219 133.089844 C 558.992188 133.195313 563.15625 136.648438 564.707031 142.234375 C 565.882813 146.460938 565.796875 150.671875 564.308594 154.792969 M 571.855469 143.226563 C 570.765625 136.429688 567.558594 131.070313 560.890625 128.726563 C 553.722656 126.207031 546.636719 126.59375 540.550781 131.742188 C 535.621094 135.910156 534.4375 141.71875 534.308594 146.492188 C 534.261719 158.328125 539.425781 167.058594 550.730469 168.203125 C 559.945313 169.136719 568.1875 165.425781 571.214844 155.445313 C 572.421875 151.464844 572.519531 147.355469 571.855469 143.226563 "/>
</g>
</svg>
