<svg width="77" height="77" viewBox="0 0 77 77" fill="none" xmlns="http://www.w3.org/2000/svg">
<path d="M57.4004 12.7691L57.5448 13.0189H57.5478L68.6326 32.2178C69.4172 33.5768 69.6298 35.1917 69.2237 36.7074C68.8176 38.2231 67.826 39.5154 66.4671 40.3L19.2341 67.5708L19.4841 68.0038L19.2341 67.5708C16.4535 69.1763 12.6791 68.3072 11.1446 65.2058L11.1446 65.2058C9.92491 62.7411 9.07041 60.3314 8.86238 57.7646C8.65489 55.1658 9.12941 52.6043 10.2606 49.839C11.603 46.5713 13.9403 42.874 17.3723 38.2862L17.5709 38.0207L17.4036 37.7344C17.1312 37.2682 17.0043 36.7312 17.0392 36.1924C17.0742 35.6536 17.2694 35.1375 17.5998 34.7105C17.9302 34.2834 18.3807 33.9648 18.8935 33.7957C19.4063 33.6266 19.9579 33.6146 20.4776 33.7613L20.7975 33.8516L21.0046 33.5914C21.8917 32.477 22.8271 31.3205 23.8143 30.1121L23.989 29.8984L23.9011 29.6367C23.7577 29.2094 23.7231 28.7531 23.8007 28.309C23.8782 27.865 24.0653 27.4474 24.345 27.094C24.6247 26.7405 24.9882 26.4625 25.4026 26.2851C25.8169 26.1077 26.269 26.0365 26.7178 26.0779L27.0005 26.104L27.1677 25.8747C28.5092 24.0354 29.6877 22.2142 30.623 20.6888L30.6235 20.688C30.8604 20.2998 31.1065 19.8364 31.358 19.3629C31.4752 19.1422 31.5935 18.9194 31.7126 18.701C32.0974 17.9953 32.5052 17.3056 32.9658 16.7387C33.4277 16.1702 33.9139 15.7615 34.4423 15.5702C34.952 15.3857 35.5556 15.3833 36.3107 15.732L36.3325 15.7421L36.3551 15.75L36.5203 15.2781L36.3551 15.75L36.3552 15.75L36.3556 15.7502L36.3569 15.7506L36.3623 15.7525L36.3832 15.7598L36.4627 15.7876L36.7484 15.8873C36.986 15.97 37.3059 16.0812 37.635 16.1947C38.2734 16.4149 38.9933 16.6606 39.1668 16.7053C40.9498 17.1722 43.0182 17.4455 44.7881 17.0868L44.7895 17.0865C47.15 16.6009 49.3159 15.2179 51.1269 13.8087L51.1274 13.8083C51.7285 13.3393 52.4995 12.7396 53.3063 12.256C54.1285 11.7631 54.9093 11.4404 55.5361 11.4404C55.8291 11.4404 56.1815 11.5692 56.5341 11.8205C56.8826 12.0687 57.1929 12.4101 57.4004 12.7691ZM58.9431 27.2739L59.3762 27.0239L59.1261 26.5909L54.5735 18.708L54.298 18.231L53.8498 18.5513C51.4212 20.2869 48.7519 21.803 45.8751 22.392C42.9232 22.9954 39.9137 22.4991 37.8014 21.9488L37.8013 21.9488C37.4508 21.8576 37.1378 21.8092 36.8564 21.8369C36.5514 21.867 36.3053 21.9841 36.1013 22.1762C35.9178 22.349 35.7815 22.5719 35.663 22.7792C35.6211 22.8525 35.5805 22.9256 35.5389 23.0005C35.452 23.1572 35.3606 23.3217 35.2437 23.5127L35.2433 23.5133C34.4394 24.8309 33.4442 26.381 32.3092 27.9974L31.9745 28.4741L32.4965 28.7327L32.8526 28.9092L32.8559 28.9108C33.177 29.067 33.464 29.2851 33.7005 29.5527C33.937 29.8202 34.1182 30.1319 34.2338 30.4698C34.3493 30.8076 34.3969 31.165 34.3738 31.5214C34.3508 31.8777 34.2574 32.2259 34.0992 32.5461C33.9411 32.8662 33.7211 33.1519 33.4521 33.3867C33.1831 33.6215 32.8703 33.8008 32.5317 33.9142C32.1931 34.0277 31.8354 34.0731 31.4793 34.0478C31.1231 34.0225 30.7754 33.927 30.4563 33.7668L30.4537 33.7655L28.9362 33.0148L28.5788 32.838L28.3269 33.147C27.5632 34.084 26.8369 34.9774 26.1423 35.8456L25.7852 36.292L26.2752 36.5865C26.8714 36.9448 27.3069 37.5188 27.4913 38.1895C27.6758 38.8602 27.5952 39.5761 27.2661 40.189C26.9371 40.8018 26.3848 41.2646 25.7239 41.4813C25.064 41.6977 24.3463 41.6523 23.719 41.3546L22.7212 40.8622L22.3504 40.6791L22.101 41.0091C18.6114 45.6265 16.442 49.0374 15.2679 51.894L15.2676 51.8946C14.3933 54.0292 14.1338 55.7343 14.2597 57.3305L14.2598 57.3308C14.3852 58.9105 14.9092 60.5713 15.9065 62.6179L16.1414 63.1001L16.606 62.8319L63.7556 35.6092L64.1886 35.3592L63.9386 34.9262L62.3345 32.1478L62.0844 31.7147L61.6514 31.9648L47.7622 39.9839C47.7618 39.9842 47.7613 39.9845 47.7608 39.9847C47.1394 40.3376 46.4037 40.4305 45.714 40.2433C45.0238 40.0559 44.4358 39.6031 44.0782 38.9837C43.7206 38.3644 43.6225 37.6287 43.8053 36.9373C43.9879 36.2464 44.4363 35.6557 45.0525 35.2939C45.053 35.2936 45.0534 35.2934 45.0539 35.2931L58.9431 27.2739Z" fill="#836B9D" stroke="#E5C4E8"/>
</svg>
