<svg xmlns="http://www.w3.org/2000/svg" width="1271" height="296" viewBox="0 0 1271 296" fill="none">
<path d="M636.438 0C636.438 0 636.344 0 636.307 0C632.337 0 627.58 28.8837 622 44.7492H650.876C645.932 31.3937 640.726 0 636.438 0ZM630.82 23.564C632.524 16.7833 634.753 7.94209 636.401 4.1209C638.236 8.1856 640.708 18.1319 642.449 25.0813C643.929 30.9816 645.446 37.0506 646.944 41.902H625.858C627.599 36.3388 629.228 29.8578 630.801 23.5453L630.82 23.564Z" fill="url(#paint0_linear_1354_1461)"/>
<path d="M635.184 62.5254C631.588 62.5254 628.667 65.4475 628.667 69.0439C628.667 72.6403 631.588 75.5624 635.184 75.5624C638.779 75.5624 641.7 72.6403 641.7 69.0439C641.7 65.4475 638.779 62.5254 635.184 62.5254ZM635.184 72.7527C633.142 72.7527 631.476 71.0856 631.476 69.0439C631.476 67.0022 633.142 65.3351 635.184 65.3351C637.225 65.3351 638.891 67.0022 638.891 69.0439C638.891 71.0856 637.225 72.7527 635.184 72.7527Z" fill="url(#paint1_linear_1354_1461)"/>
<path d="M635.184 94.7432C631.588 94.7432 628.667 97.6653 628.667 101.262C628.667 104.858 631.588 107.78 635.184 107.78C638.779 107.78 641.7 104.858 641.7 101.262C641.7 97.6653 638.779 94.7432 635.184 94.7432ZM635.184 104.97C633.142 104.97 631.476 103.303 631.476 101.262C631.476 99.22 633.142 97.5529 635.184 97.5529C637.225 97.5529 638.891 99.22 638.891 101.262C638.891 103.303 637.225 104.97 635.184 104.97Z" fill="url(#paint2_linear_1354_1461)"/>
<path d="M635.184 126.961C631.588 126.961 628.667 129.883 628.667 133.479C628.667 137.076 631.588 139.998 635.184 139.998C638.779 139.998 641.7 137.076 641.7 133.479C641.7 129.883 638.779 126.961 635.184 126.961ZM635.184 137.188C633.142 137.188 631.476 135.521 631.476 133.479C631.476 131.438 633.142 129.771 635.184 129.771C637.225 129.771 638.891 131.438 638.891 133.479C638.891 135.521 637.225 137.188 635.184 137.188Z" fill="url(#paint3_linear_1354_1461)"/>
<path d="M1270.5 292.003H790.132C787.885 290.073 784.983 289.099 782.024 289.268C781.256 283.293 775.882 278.722 769.571 279.34C766.2 269.132 756.612 262.108 745.769 262.108C741.294 262.108 736.968 263.288 733.129 265.535C731.163 257.163 723.672 251.094 714.833 251.094C710.62 251.094 706.5 252.536 703.204 255.14C700.451 239.799 687.23 228.56 671.313 228.56C666.463 228.56 661.687 229.684 657.343 231.763L643.747 174.726H655.676C655.845 173.021 655.994 171.373 656.144 169.706C661.519 170.549 680.283 174.314 681.949 186.115L692.904 138.687C692.904 138.687 689.346 149.626 682.268 150.001C676.5 150.3 668.41 143.576 657.998 118.307C657.399 94.8929 654.871 73.0896 651.463 49.0947H620.77C614.103 75.5059 611.313 96.7473 611.575 119.806C602.792 143.744 595.339 150.45 589.74 150.45C582.643 150.45 578.542 139.698 578.542 139.698L591.875 186.508C592.886 175.363 609.347 170.53 615.732 169.069C615.995 170.942 616.257 172.834 616.538 174.763H627.231L616.744 218.726C598.41 219.681 582.643 232.624 578.261 250.475C575.751 249.876 573.205 249.576 570.677 249.576C554.572 249.576 540.92 261.209 538.224 276.905C536.651 276.512 535.059 276.306 533.448 276.306C526.744 276.306 520.471 279.734 516.819 285.353C508.767 283.386 500.209 286.046 494.628 292.04H0.983154C1 293 1 293.5 0.983198 295.037H495.34C495.771 295.037 496.183 294.85 496.463 294.532C501.52 288.762 509.628 286.327 517.119 288.538C517.793 288.744 518.505 288.444 518.842 287.844C521.838 282.581 527.437 279.322 533.467 279.322C535.321 279.322 537.175 279.64 538.973 280.258C539.403 280.408 539.872 280.352 540.265 280.108C540.658 279.865 540.901 279.472 540.958 279.022C542.718 263.943 555.508 252.573 570.677 252.573C573.429 252.573 576.22 252.967 578.954 253.753C579.347 253.866 579.796 253.81 580.152 253.604C580.508 253.379 580.77 253.042 580.845 252.63C584.534 234.685 600.545 221.648 618.897 221.648C631.425 221.648 643.242 227.754 650.545 237.963C650.788 238.3 651.163 238.525 651.556 238.581C651.968 238.637 652.38 238.525 652.699 238.263C657.942 233.973 664.552 231.613 671.313 231.613C686.65 231.613 699.234 243.133 700.601 258.399C700.657 258.998 701.05 259.485 701.612 259.691C702.174 259.879 702.792 259.729 703.204 259.279C706.2 256.02 710.432 254.166 714.833 254.166C722.923 254.166 729.683 260.234 730.545 268.27C730.601 268.795 730.938 269.263 731.425 269.488C731.912 269.713 732.473 269.638 732.904 269.338C736.687 266.622 741.125 265.18 745.769 265.18C755.713 265.18 764.458 271.885 767.061 281.495C767.267 282.263 768.054 282.731 768.822 282.562C774.365 281.345 779.121 285.559 779.121 290.804C779.121 290.804 779.121 291.01 779.121 291.029C779.121 291.478 779.308 291.928 779.664 292.209C780.02 292.49 780.488 292.602 780.938 292.509C783.672 291.928 786.499 292.733 788.522 294.644C788.803 294.906 789.177 295.056 789.552 295.056H1270.5V293.558C1270.5 292.733 1270.5 292 1270.5 292.059V292.003ZM658.298 127.71L659.609 128.853C667.493 145.299 675.002 153.147 682.418 152.773C684.159 152.679 685.732 152.136 687.099 151.33L680.901 178.172C673.972 170.923 663.485 168.17 656.706 167.252C657.249 162.663 657.418 157.193 657.511 151.387C657.905 143.988 658.111 136.851 658.129 129.92C658.185 129.171 658.242 128.441 658.298 127.71ZM592.53 178.491L584.984 152.005C586.407 152.754 587.999 153.222 589.74 153.222C597.156 153.222 604.253 144.999 611.313 128.178L611.781 127.729C612.268 139.68 613.504 152.304 615.395 166.54C608.673 167.908 598.86 171.186 592.512 178.51L592.53 178.491ZM622.961 51.867H649.028C654.946 93.975 657.493 127.635 653.148 171.916H618.972C611.875 121.529 612.83 92.7762 622.961 51.867ZM652.062 234.91C644.347 224.907 632.455 218.894 619.852 218.613L630.246 175.082H640.789L654.646 233.205C653.766 233.73 652.905 234.292 652.081 234.91H652.062Z" fill="url(#paint4_linear_1354_1461)"/>
<defs>
<linearGradient id="paint0_linear_1354_1461" x1="622.456" y1="22.3742" x2="649.711" y2="22.3742" gradientUnits="userSpaceOnUse">
<stop stop-color="#ED401A"/>
<stop offset="1" stop-color="#9970C8"/>
</linearGradient>
<linearGradient id="paint1_linear_1354_1461" x1="628.873" y1="69.0438" x2="641.174" y2="69.0438" gradientUnits="userSpaceOnUse">
<stop stop-color="#ED401A"/>
<stop offset="1" stop-color="#9970C8"/>
</linearGradient>
<linearGradient id="paint2_linear_1354_1461" x1="628.873" y1="101.262" x2="641.174" y2="101.262" gradientUnits="userSpaceOnUse">
<stop stop-color="#ED401A"/>
<stop offset="1" stop-color="#9970C8"/>
</linearGradient>
<linearGradient id="paint3_linear_1354_1461" x1="628.873" y1="133.479" x2="641.174" y2="133.479" gradientUnits="userSpaceOnUse">
<stop stop-color="#ED401A"/>
<stop offset="1" stop-color="#9970C8"/>
</linearGradient>
<linearGradient id="paint4_linear_1354_1461" x1="21.0504" y1="172.073" x2="1219.28" y2="172.073" gradientUnits="userSpaceOnUse">
<stop stop-color="#ED401A"/>
<stop offset="1" stop-color="#9970C8"/>
</linearGradient>
</defs>
</svg>