<svg width="31" height="37" viewBox="0 0 31 37" fill="red" xmlns="http://www.w3.org/2000/svg">
<path d="M29.8025 9.75809L22.0369 5.95452C21.8572 5.86658 21.6592 5.8208 21.4583 5.8208C21.2575 5.8208 21.0594 5.86658 20.8798 5.95452L13.1142 9.75809C12.899 9.8634 12.7181 10.0254 12.5917 10.2258C12.4652 10.4262 12.3983 10.6572 12.3984 10.8928V19.7678C12.3986 20.0032 12.4656 20.2339 12.592 20.4341C12.7184 20.6343 12.8992 20.7961 13.1142 20.9013L20.8798 24.7049C21.0595 24.7927 21.2575 24.8384 21.4583 24.8384C21.6591 24.8384 21.8572 24.7927 22.0369 24.7049L29.8025 20.9013C30.0175 20.7961 30.1983 20.6343 30.3247 20.4341C30.4511 20.2339 30.5181 20.0032 30.5182 19.7678V10.8928C30.5183 10.6572 30.4514 10.4262 30.325 10.2258C30.1986 10.0254 30.0176 9.8634 29.8025 9.75809ZM21.4583 8.50671L26.33 10.8928L21.4583 13.2789L16.5867 10.8928L21.4583 8.50671ZM14.987 12.9442L20.1641 15.4799V21.52L14.987 18.9843V12.9442ZM22.7526 21.52V15.4799L27.9297 12.9442V18.9843L22.7526 21.52Z" fill="#AAAAAA"/>
<path d="M11.751 31.1786C12.8232 31.1786 13.6924 30.3271 13.6924 29.2768C13.6924 28.2265 12.8232 27.375 11.751 27.375C10.6788 27.375 9.80957 28.2265 9.80957 29.2768C9.80957 30.3271 10.6788 31.1786 11.751 31.1786Z" fill="#AAAAAA"/>
<path d="M3.3388 1.25H19.6641V2.78571H3.33854H2.83854V3.28571V33.7143V34.2143H3.33854H20.1641H20.6641V33.7143V29.1429H22.2526V33.7138C22.2521 34.2503 22.0343 34.7668 21.6438 35.1494C21.2529 35.5323 20.7207 35.7495 20.1636 35.75H3.33903C2.78187 35.7495 2.24971 35.5323 1.85881 35.1494C1.46832 34.7669 1.25061 34.2505 1.25 33.714V3.28598C1.25061 2.74955 1.46832 2.23313 1.85881 1.85061C2.24966 1.46775 2.78172 1.2506 3.3388 1.25Z" fill="#AAAAAA" stroke="#AAAAAA"/>
</svg>
