<svg xmlns="http://www.w3.org/2000/svg" width="31" height="36" viewBox="0 0 31 36" fill="ED401A">
<path d="M29.8598 9.57994L22.0598 5.77994C21.8798 5.68994 21.6998 5.68994 21.4998 5.68994C21.2998 5.68994 21.1198 5.68994 20.9498 5.77994L13.1498 9.57994C12.9698 9.66994 12.7898 9.84994 12.6998 10.0299C12.5998 10.2199 12.5098 10.4099 12.5098 10.6899V19.5899C12.5098 19.7699 12.6098 20.0599 12.6998 20.2499C12.7898 20.4299 12.9698 20.6099 13.1598 20.7099L20.9598 24.5099C21.1398 24.5999 21.3198 24.5999 21.5198 24.5999C21.7198 24.5999 21.8998 24.5999 22.0798 24.5099L29.8798 20.7099C30.0598 20.6199 30.2398 20.4399 30.3398 20.2499C30.4398 20.0499 30.5298 19.8699 30.5298 19.5899V10.6899C30.5298 10.5099 30.4298 10.2199 30.3398 10.0299C30.2498 9.84994 30.0698 9.66994 29.8798 9.56994L29.8598 9.57994ZM20.3998 21.3499L20.2598 21.2799L14.9998 18.7499V12.5299L20.3998 15.1299V21.3499ZM21.4998 13.1999L16.3698 10.6899L21.4998 8.17994L26.6298 10.6899L21.4998 13.1999ZM28.0998 18.8499L22.6998 21.4499V15.2299L28.0998 12.6299V18.8499Z" fill="#ED401A"/>
<path d="M11.8004 30.8898C12.9004 30.8898 13.7004 29.9898 13.7004 28.9898C13.7004 27.8898 12.8004 27.0898 11.8004 27.0898C10.7004 27.0898 9.90039 27.9898 9.90039 28.9898C9.90039 30.0898 10.8004 30.8898 11.8004 30.8898Z" fill="#ED401A"/>
<path d="M20.2496 28.34V33.39L3.34961 33.44V2.99004L20.1496 2.94004V0.540039H3.3996C2.6896 0.540039 2.01961 0.850039 1.57961 1.37004C1.03961 1.81004 0.849609 2.57004 0.849609 3.09004V33.39C0.849609 34.03 1.10961 34.64 1.57961 35.11C2.06961 35.6 2.6796 35.84 3.3996 35.84H20.1996C20.9196 35.84 21.5296 35.59 21.9696 35.15C22.5496 34.72 22.7496 33.93 22.7496 33.39V28.34H20.2496Z" fill="#ED401A" stroke="#ED401A"/>
</svg>
