<svg xmlns="http://www.w3.org/2000/svg" width="39" height="26" viewBox="0 0 39 26" fill="none">
<path d="M38.1595 16.3101H32.3595V10.3901H29.5295V16.3101H23.7295V19.1301H29.5295V25.0501H32.3595V19.1301H38.1595V16.3101Z" fill="#AAAAAA"/>
<path d="M28.9897 0.449941H21.7197V3.26994H28.9897C30.7397 3.26994 32.3097 3.89994 33.5097 5.09994C34.6397 6.33994 35.2197 7.63994 35.3297 9.17994H38.1597C38.0397 6.81994 37.1597 4.80994 35.5397 3.17994C33.7197 1.35994 31.5197 0.439941 28.9997 0.439941L28.9897 0.449941Z" fill="#AAAAAA"/>
<path d="M2.90991 3.08008C1.08991 5.00008 0.169922 7.25008 0.169922 9.73008C0.169922 12.2101 1.08991 14.5601 2.90991 16.3801C4.72991 18.2001 6.92992 19.1201 9.44992 19.1201H16.7199V16.1901H9.44992C7.69992 16.1901 6.1299 15.5601 4.9299 14.3601C3.6699 12.9801 3.09991 11.5101 3.09991 9.73008C3.09991 7.95008 3.7299 6.30008 4.9299 5.10008C6.1599 3.87008 7.63992 3.27008 9.44992 3.27008H16.7199V0.330078H9.44992C6.92992 0.330078 4.72991 1.25008 2.90991 3.07008V3.08008Z" fill="#AAAAAA"/>
<path d="M26.4396 8.37988H11.8896V11.1999H26.4396V8.37988Z" fill="#AAAAAA"/>
</svg>