<svg width="37" height="25" viewBox="0 0 37 25" fill="none" xmlns="http://www.w3.org/2000/svg">
<path d="M16.5303 18.6923H9.53027C7.10944 18.6923 5.04619 17.8295 3.34052 16.1039C1.63369 14.3795 0.780273 12.2936 0.780273 9.84615C0.780273 7.39872 1.63369 5.31221 3.34052 3.58662C5.04619 1.8622 7.10944 1 9.53027 1H16.5303V4.53846H9.53027C8.07194 4.53846 6.83236 5.05449 5.81152 6.08654C4.79069 7.11859 4.28027 8.3718 4.28027 9.84615C4.28027 11.3205 4.79069 12.5737 5.81152 13.6058C6.83236 14.6378 8.07194 15.1538 9.53027 15.1538H16.5303V18.6923ZM11.2803 11.6154V8.07692H25.2803V11.6154H11.2803ZM35.7803 9.84615H32.2803C32.2803 8.3718 31.7699 7.11859 30.749 6.08654C29.7282 5.05449 28.4886 4.53846 27.0303 4.53846H20.0303V1H27.0303C29.4511 1 31.5149 1.8622 33.2218 3.58662C34.9274 5.31221 35.7803 7.39872 35.7803 9.84615ZM27.0303 24V18.6923H21.7803V15.1538H27.0303V9.84615H30.5303V15.1538H35.7803V18.6923H30.5303V24H27.0303Z" fill="#AAAAAA" stroke="#EFEFF1"/>
</svg>
