<svg width="40" height="35" viewBox="0 0 40 35" fill="none" xmlns="http://www.w3.org/2000/svg">
<path d="M36.6968 3.12325C35.6904 2.58197 34.2932 2.10577 32.5441 1.70793C29.1198 0.928984 24.5914 0.5 19.793 0.5C14.9946 0.5 10.4661 0.928984 7.04182 1.70793C5.2927 2.10584 3.89554 2.58204 2.88913 3.12325C1.15664 4.05506 0.792969 5.09996 0.792969 5.8125V29.1875C0.792969 30.2903 1.59089 31.2428 3.16455 32.0185C4.31554 32.5858 5.90553 33.0753 7.89021 33.4733L9.69922 33.8361V7.73735L8.53948 7.5048C5.08682 6.81238 4.075 6.06325 3.82087 5.81237C4.0724 5.56361 5.06686 4.8259 8.44173 4.1384C11.5508 3.50502 15.5821 3.15625 19.793 3.15625C24.0038 3.15625 28.0351 3.50502 31.1442 4.1384C34.5379 4.82975 35.5246 5.57184 35.7691 5.81642C35.4587 6.13245 34.2148 6.87022 31.0537 7.50493L29.8946 7.73762L29.8861 33.8351L31.696 33.4718C33.6791 33.0736 35.2682 32.5844 36.4191 32.0177C37.9943 31.2421 38.793 30.2899 38.793 29.1875V5.8125C38.793 5.09996 38.4293 4.05506 36.6968 3.12325ZM6.73047 9.84316V30.4563C4.69168 29.8938 3.91023 29.3398 3.76172 29.1265V8.91314C4.58139 9.25633 5.57429 9.56757 6.73047 9.84316ZM32.856 30.4568L32.8627 9.84296C34.0156 9.56771 35.006 9.25686 35.8241 8.91407V29.1218C35.7283 29.2419 35.161 29.8261 32.856 30.4568ZM24.2461 11.7891C24.2461 9.59208 22.2484 7.80469 19.793 7.80469C17.3375 7.80469 15.3398 9.59208 15.3398 11.7891C15.3398 13.986 17.3375 15.7734 19.793 15.7734C22.2484 15.7734 24.2461 13.986 24.2461 11.7891ZM18.3086 11.7891C18.3086 11.0567 18.9745 10.4609 19.793 10.4609C20.6115 10.4609 21.2773 11.0567 21.2773 11.7891C21.2773 12.5214 20.6115 13.1172 19.793 13.1172C18.9745 13.1172 18.3086 12.5214 18.3086 11.7891ZM27.2148 21.0195V29.4531H24.2461V34.5H21.2773V26.7969H24.2461V21.0195C24.2461 20.2872 23.5802 19.6914 22.7617 19.6914H16.8242C16.0057 19.6914 15.3398 20.2872 15.3398 21.0195V26.7969H18.3086V34.5H15.3398V29.4531H12.3711V21.0195C12.3711 18.8225 14.3688 17.0352 16.8242 17.0352H22.7617C25.2172 17.0352 27.2148 18.8225 27.2148 21.0195Z" fill="#AAAAAA" stroke="#EEEFF1" stroke-width="0.5"/>
</svg>
