<svg xmlns="http://www.w3.org/2000/svg" width="39" height="35" viewBox="0 0 39 35" fill="none">
<path d="M19.7996 7.41992C17.7396 7.41992 16.0596 9.11992 16.0596 11.1999C16.0596 13.2799 17.7396 14.9799 19.7996 14.9799C21.9296 14.8799 23.5396 13.2599 23.5396 11.1999C23.5396 9.13992 21.8596 7.41992 19.7996 7.41992ZM19.7996 12.8799C18.8496 12.8799 18.0496 12.1099 18.0496 11.1999C18.0496 10.2899 18.8496 9.51992 19.7996 9.51992C20.7496 9.51992 21.5496 10.2899 21.5496 11.1999C21.5496 12.1099 20.7496 12.8799 19.7996 12.8799Z" fill="#AAAAAA"/>
<path d="M38.6494 28.89V5.59004C38.5494 4.88004 38.2094 3.93004 36.5894 3.11004C35.5094 2.57004 34.0794 2.09004 32.4494 1.73004C29.1794 0.960039 24.6494 0.540039 19.6994 0.540039C14.7494 0.540039 10.3694 0.950039 6.95938 1.73004C5.03938 2.16004 3.72937 2.69004 2.80937 3.11004C1.04937 4.04004 0.859375 5.15004 0.859375 5.58004V28.99C0.859375 30.01 1.65937 30.93 3.10938 31.56C4.35938 32.18 5.86937 32.67 7.75937 33.04L9.25937 33.37V7.69004L8.55937 7.53004C4.75937 6.77004 3.89938 6.01004 3.70938 5.72004L3.56938 5.51004L3.85938 5.31004C4.24937 5.03004 5.29938 4.28004 8.46938 3.63004C11.8194 2.98004 15.8894 2.62004 19.9194 2.62004C24.4694 2.62004 28.3194 2.96004 31.3694 3.63004C35.0794 4.39004 35.9294 5.15004 36.1194 5.44004L36.2294 5.61004L36.0894 5.76004C35.9794 5.87004 34.9494 6.81004 31.2594 7.53004L30.2594 7.70004V33.28L31.7594 32.95C33.7794 32.55 35.3394 32.05 36.3894 31.47C37.9394 30.69 38.6594 29.88 38.6594 28.89H38.6494ZM3.88937 8.46004C4.67937 8.75004 5.67938 9.05004 6.85938 9.35004L7.04938 9.40004V30.53L6.72937 30.43C4.89937 29.88 3.91938 29.37 3.62938 29.07L3.55937 29V8.33004L3.89937 8.46004H3.88937ZM36.1494 29L36.0794 29.07C35.7994 29.35 35.0194 29.9 32.9694 30.43L32.6594 30.51V9.40004L32.8494 9.35004C34.0394 9.05004 34.9494 8.75004 35.8294 8.45004L36.1594 8.34004V29H36.1494Z" fill="#AAAAAA"/>
<path d="M26.9498 20.7902C26.9498 19.8502 26.5598 18.9602 25.8498 18.2802C25.0398 17.5102 23.9098 17.0902 22.7098 17.1402H16.7998C14.4598 17.1402 12.5498 18.8202 12.5498 20.8902V29.0402H15.5498V34.0402H18.0498V26.7402H15.0498V20.6902C15.0498 19.8502 15.8498 19.1402 16.7998 19.1402H22.6998C23.6498 19.1402 24.4498 19.8502 24.4498 20.6902V26.7402H21.4498V33.9402H23.9498V28.9402H26.9498V20.7902Z" fill="#AAAAAA"/>
</svg>