<svg xmlns="http://www.w3.org/2000/svg" width="41" height="23" viewBox="0 0 41 23" fill="none">
<path fill-rule="evenodd" clip-rule="evenodd" d="M13.3398 5.34001C13.0498 5.48001 12.8498 5.62001 12.7198 5.80001C12.5898 5.99001 12.4998 6.27001 12.4998 6.57001V6.94001L12.1598 7.09001C8.91984 8.51001 6.62983 9.73001 4.95983 10.94C3.37983 12.22 2.47984 13.3 1.94984 14.52C1.24984 15.92 1.01983 17.33 0.869834 19.01C0.809834 19.91 1.10984 20.76 1.71984 21.4C2.32984 22.04 3.16984 22.42 4.07984 22.39L37.0998 22.36C37.8998 22.39 38.7698 22.02 39.4398 21.39C40.0598 20.81 40.4098 19.96 40.4298 19.02L40.3798 5.62001C40.3898 5.16001 40.1698 4.72001 39.9698 4.63001C39.4498 4.35001 38.3398 4.34001 37.1098 4.58001C35.7698 4.74001 34.0898 4.85001 32.6198 4.35001C31.6198 4.02001 30.5598 3.30001 29.6398 2.33001L29.4798 2.16001V2.09001C29.3198 1.87001 28.9098 1.38001 28.5598 0.980007C27.8198 -0.0199931 26.8598 0.340007 25.1098 1.47001C24.8798 1.62001 24.6598 1.76001 24.4598 1.88001L23.7498 2.26001C22.9398 2.69001 22.0098 3.18001 21.0698 3.62001L20.7698 3.76001L20.4998 3.57001C20.2998 3.43001 20.1098 3.36001 19.9198 3.35001C19.6598 3.35001 19.4198 3.34001 19.1998 3.40001C18.9898 3.46001 18.7998 3.59001 18.6898 3.76001C18.5298 3.99001 18.4398 4.23001 18.3398 4.51001L18.2498 4.75001L18.0198 4.85001C17.0898 5.23001 16.2598 5.52001 15.4598 5.80001L15.1098 5.92001L14.8598 5.65001C14.5898 5.37001 14.4298 5.31001 14.2798 5.30001L14.1398 5.28001C14.0598 5.26001 13.9798 5.25001 13.8998 5.25001C13.6998 5.25001 13.4998 5.30001 13.3598 5.35001L13.3398 5.34001ZM14.6098 10.31C14.8198 10.61 15.1098 10.81 15.4298 10.89C15.7698 10.97 16.1098 10.91 16.3798 10.72C16.7098 10.49 16.9098 10.21 16.9798 9.88001C17.0798 9.44001 17.0598 9.14001 16.9098 8.94001L16.5098 8.38001L17.1298 8.09001C17.5298 7.91001 17.9198 7.76001 18.3398 7.61001C18.5798 7.52001 18.8198 7.43001 19.0798 7.33001L19.4998 7.16001L20.3898 8.43001C20.4298 8.52001 20.5398 8.63001 20.6298 8.68001L20.7798 8.79001C20.8898 8.90001 20.9498 8.93001 21.0698 8.93001L21.2498 8.96001C21.4398 9.03001 21.5798 9.02001 21.6098 9.00001L21.7298 8.95001H21.8698C21.9898 8.95001 22.0498 8.93001 22.1698 8.82001C22.3298 8.67001 22.5098 8.49001 22.5698 8.38001L22.6798 8.23001C22.7998 8.12001 22.8198 8.06001 22.8198 7.94001L22.8498 7.76001C22.9198 7.57001 22.9098 7.43001 22.8898 7.40001L22.8398 7.28001V7.14001C22.8398 7.14001 22.7898 7.00001 22.7298 6.91001C22.6798 6.83001 22.6398 6.76001 22.6098 6.69001L22.2598 5.95001L22.8098 5.72001C24.0398 5.20001 24.9798 4.75001 25.6798 4.33001C25.8798 4.23001 26.0098 4.16001 26.1198 4.11001C26.7098 3.79001 27.1798 3.62001 27.8998 4.37001C28.7598 5.18001 30.1698 6.30001 31.9098 6.94001C33.5898 7.55001 35.4298 7.50001 37.1598 7.35001L37.7898 7.30001L37.7398 14L27.2698 14.04C26.9198 14.03 26.6598 14.15 26.3498 14.45C26.1498 14.71 25.9998 15.09 25.9898 15.44C25.9798 15.85 26.0898 16.12 26.3998 16.44C26.6598 16.64 27.0398 16.79 27.3798 16.8L37.6298 16.75L37.7098 19.8L3.61983 19.84L3.63983 19.25C3.67983 17.79 3.91983 16.7 4.38983 15.81C4.81983 15 5.38984 14.13 6.60984 13.18C8.08984 11.98 10.2998 10.8 13.5398 9.48001L13.9898 9.30001L14.6298 10.32L14.6098 10.31Z" fill="#ED401A" stroke="#ED401A"/>
</svg>