<svg width="43" height="26" viewBox="0 0 43 26" fill="none" xmlns="http://www.w3.org/2000/svg">
<path fill-rule="evenodd" clip-rule="evenodd" d="M41.8044 6.33161C41.7884 5.74203 41.4951 5.07721 41.0377 4.82916C40.2184 4.3849 38.721 4.63312 37.8151 4.78459C36.4583 5.00968 34.9632 5.11115 33.6352 4.70906C32.6538 4.40885 31.6721 3.70202 30.8726 2.9526C30.7402 2.83004 29.67 1.65112 29.67 1.65112C28.2984 -0.18594 26.1837 1.77502 24.8203 2.56635C23.8875 3.10528 22.7425 3.73011 21.5076 4.3172C21.2389 4.13769 20.9296 4.02808 20.6079 3.99829C20.2861 3.96851 19.962 4.0195 19.665 4.14664C19.3679 4.27378 19.1073 4.47305 18.9067 4.72638C18.7061 4.97972 18.5719 5.27911 18.5163 5.59742C17.6417 5.95583 16.8091 6.30174 16.0143 6.63934C15.7369 6.36932 15.3851 6.18836 15.0042 6.11972C14.6232 6.05107 14.2304 6.09786 13.8763 6.25409C13.5221 6.41032 13.2227 6.66884 13.0165 6.99647C12.8104 7.3241 12.7068 7.70588 12.7192 8.09278C9.56321 9.54649 7.22531 10.8519 5.53841 12.2276C4.10948 13.3964 3.0849 14.6586 2.42273 16.1527C1.77167 17.6262 1.52746 19.1967 1.46452 20.881C1.37904 23.1648 3.29631 24.8428 5.39633 24.7866L38.3914 23.9043C39.4209 23.8768 40.3973 23.4414 41.1058 22.694C41.8144 21.9465 42.1969 20.9483 42.1694 19.9188L41.8061 6.33254L41.8044 6.33161ZM38.1302 14.199L37.9823 8.69193C36.1729 8.91675 34.2663 8.95849 32.5065 8.42389C30.6977 7.87376 29.1996 6.70581 28.2205 5.79056C27.618 5.22753 27.4781 5.51393 26.7668 5.92555C25.9544 6.39724 24.9721 6.93799 23.8952 7.47386L24.0338 7.67047C24.1828 7.87865 24.2891 8.11422 24.3467 8.36366C24.4043 8.61309 24.412 8.87145 24.3694 9.12387C24.3267 9.37629 24.2346 9.61778 24.0983 9.83446C23.962 10.0511 23.7841 10.2387 23.5751 10.3864C23.366 10.5341 23.1297 10.639 22.8799 10.695C22.6301 10.7511 22.3717 10.7572 22.1196 10.713C21.8674 10.6688 21.6265 10.5751 21.4107 10.4375C21.1949 10.2998 21.0084 10.1208 20.862 9.9108L20.2713 9.07362C19.5948 9.35174 18.9517 9.61706 18.3332 9.87799C18.5864 10.3076 18.6647 10.8181 18.5518 11.3038C18.4388 11.7896 18.1434 12.2132 17.7265 12.487C17.3097 12.7608 16.8036 12.8637 16.313 12.7744C15.8223 12.6851 15.3849 12.4104 15.0912 12.0074L14.7013 11.4558C11.5176 12.9033 9.40906 14.0791 7.99187 15.2344C6.94073 16.0935 6.34347 16.8894 5.97254 17.7242C5.60439 18.5538 5.40803 19.5473 5.34909 20.9024L38.2859 20.0216L38.234 18.0807L28.5296 18.3402C28.017 18.3505 27.5211 18.1577 27.1502 17.8037C26.7792 17.4498 26.5633 16.9634 26.5496 16.4509C26.5359 15.9384 26.7255 15.4412 27.077 15.0679C27.4285 14.6947 27.9134 14.4756 28.4258 14.4585L38.1302 14.199Z" fill="#AAAAAA" stroke="#ECE6EA"/>
</svg>
