<svg width="26" height="35" viewBox="0 0 26 35" fill="none" xmlns="http://www.w3.org/2000/svg">
<path d="M25.7803 17.5C25.7798 15.5937 25.317 13.7142 24.4293 12.0141C23.5416 10.314 22.254 8.84091 20.671 7.71438L19.696 2.49598C19.5917 1.93612 19.2883 1.42962 18.8388 1.06483C18.3894 0.70005 17.8223 0.500147 17.2366 0.5H9.32425C8.73857 0.500147 8.17153 0.70005 7.72206 1.06483C7.2726 1.42962 6.96924 1.93612 6.86491 2.49598L5.88993 7.71438C4.30642 8.84054 3.01852 10.3135 2.13073 12.0137C1.24294 13.7139 0.780273 15.5935 0.780273 17.5C0.780273 19.4065 1.24294 21.2861 2.13073 22.9863C3.01852 24.6865 4.30642 26.1595 5.88993 27.2856L6.86491 32.504C6.96924 33.0639 7.2726 33.5704 7.72206 33.9352C8.17153 34.2999 8.73857 34.4999 9.32425 34.5H17.2366C17.8223 34.4999 18.3894 34.2999 18.8388 33.9352C19.2883 33.5704 19.5917 33.0639 19.696 32.504L20.671 27.2856C22.254 26.1591 23.5416 24.686 24.4293 22.9859C25.317 21.2857 25.7798 19.4063 25.7803 17.5ZM9.32425 2.92857H17.2366L17.8476 6.19955C14.9126 5.07638 11.6483 5.07638 8.71332 6.19955L9.32425 2.92857ZM3.28059 17.5C3.28059 15.5787 3.86707 13.7005 4.96587 12.103C6.06467 10.5055 7.62643 9.26042 9.45367 8.52517C11.2809 7.78992 13.2915 7.59754 15.2313 7.97237C17.1711 8.3472 18.9529 9.2724 20.3514 10.631C21.7499 11.9895 22.7023 13.7205 23.0882 15.6048C23.474 17.4892 23.276 19.4424 22.5191 21.2175C21.7622 22.9926 20.4805 24.5097 18.8361 25.5771C17.1916 26.6446 15.2582 27.2143 13.2804 27.2143C10.6292 27.2115 8.08739 26.1871 6.21268 24.3659C4.33797 22.5448 3.28348 20.0755 3.28059 17.5ZM17.2366 32.0714H9.32425L8.71332 28.8004C11.6483 29.9236 14.9126 29.9236 17.8476 28.8004L17.2366 32.0714ZM12.0305 17.5V11.4286C12.0305 11.1065 12.1622 10.7977 12.3966 10.5699C12.631 10.3422 12.9489 10.2143 13.2804 10.2143C13.612 10.2143 13.9299 10.3422 14.1643 10.5699C14.3987 10.7977 14.5304 11.1065 14.5304 11.4286V16.2857H19.5304C19.8619 16.2857 20.1798 16.4136 20.4142 16.6414C20.6487 16.8691 20.7803 17.178 20.7803 17.5C20.7803 17.822 20.6487 18.1309 20.4142 18.3586C20.1798 18.5864 19.8619 18.7143 19.5304 18.7143H13.2804C12.9489 18.7143 12.631 18.5864 12.3966 18.3586C12.1622 18.1309 12.0305 17.822 12.0305 17.5Z" fill="#AAAAAA"/>
</svg>
