<svg xmlns="http://www.w3.org/2000/svg" width="26" height="35" viewBox="0 0 26 35" fill="none">
<path d="M25.1 17.29C25.1 15.39 24.6 13.49 23.7 11.79C22.8 10.09 21.5 8.59004 19.9 7.49004L18.9 2.29004C18.8 1.69004 18.5 1.19004 18 0.890039C17.6 0.490039 17 0.290039 16.4 0.290039H8.7C8.1 0.290039 7.5 0.490039 7.1 0.890039C6.6 1.19004 6.3 1.69004 6.2 2.29004L5.2 7.49004C3.6 8.59004 2.3 10.09 1.4 11.79C0.5 13.49 0 15.39 0 17.29C0 19.19 0.5 21.09 1.4 22.79C2.3 24.49 3.6 25.99 5.2 27.09L6.2 32.29C6.3 32.89 6.6 33.39 7.1 33.69C7.5 34.09 8.1 34.29 8.7 34.29H16.6C17.2 34.29 17.8 34.09 18.2 33.69C18.6 33.29 19 32.79 19.1 32.29L20.1 27.09C21.7 25.99 23 24.49 23.9 22.79C24.7 21.09 25.1 19.19 25.1 17.29ZM8.7 2.69004H16.6L17.2 5.99004C14.3 4.89004 11 4.89004 8.1 5.99004L8.7 2.69004ZM2.6 17.29C2.6 15.39 3.2 13.49 4.3 11.89C5.4 10.29 7 9.09004 8.8 8.29004C10.6 7.59004 12.6 7.39004 14.6 7.69004C16.5 8.09004 18.3 8.99004 19.7 10.39C21.1 11.79 22.1 13.49 22.4 15.39C22.8 17.29 22.6 19.19 21.8 20.99C21 22.79 19.8 24.29 18.1 25.39C16.5 26.49 14.5 26.99 12.5 26.99C9.8 26.99 7.3 25.99 5.4 24.19C3.7 22.29 2.7 19.79 2.6 17.29ZM16.6 31.79H8.7L8.1 28.49C11 29.59 14.3 29.59 17.2 28.49L16.6 31.79ZM11.4 17.29V11.19C11.4 10.89 11.5 10.59 11.8 10.29C12 10.09 12.4 9.89004 12.7 9.89004C13 9.89004 13.3 9.99004 13.6 10.29C13.8 10.49 14 10.79 14 11.19V16.09H19C19.3 16.09 19.6 16.19 19.9 16.49C20.1 16.69 20.3 16.99 20.3 17.39C20.3 17.69 20.2 17.99 19.9 18.29C19.7 18.49 19.3 18.69 19 18.69H12.8C12.5 18.69 12.2 18.59 11.9 18.29C11.5 17.89 11.4 17.59 11.4 17.29Z" fill="#ED401A"/>
</svg>
