<svg width="38" height="37" viewBox="0 0 38 37" fill="none" xmlns="http://www.w3.org/2000/svg">
<mask id="mask0_854_1304" style="mask-type:alpha" maskUnits="userSpaceOnUse" x="0" y="0" width="38" height="37">
<path d="M19.0853 36.6992C29.1466 36.6992 37.2058 28.6409 37.086 18.7005C36.9661 8.76007 28.7126 0.701782 18.6513 0.701782C8.58993 0.701782 0.530744 8.76007 0.650585 18.7005C0.770426 28.6409 9.02391 36.6992 19.0853 36.6992Z" fill="black"/>
</mask>
<g mask="url(#mask0_854_1304)">
<path d="M18.9816 37.996C9.39286 37.996 -0.195861 37.996 -9.78072 37.9998C-9.9585 37.9998 -10.0049 37.9732 -10.0049 37.787C-9.99715 25.2596 -9.99715 12.7285 -10.0049 0.201136C-10.0049 0.0263532 -9.95464 -0.000244141 -9.79232 -0.000244141C9.40059 0.00355548 28.5896 0.00355548 47.7825 -0.000244141C47.9449 -0.000244141 47.9951 0.0263532 47.9951 0.201136C47.9913 12.7285 47.9913 25.2596 47.9951 37.787C47.9951 37.9732 47.9487 37.9998 47.771 37.9998C38.1745 37.996 28.578 37.996 18.9855 37.996H18.9816ZM30.8622 18.7509C30.9163 18.7927 30.8622 18.8117 30.8429 18.8307C30.7656 18.9143 30.6767 19.0093 30.7385 19.1232C30.8081 19.2524 30.9511 19.2524 31.0786 19.2296C31.3182 19.1916 31.5579 19.1688 31.7897 19.108C32.4777 18.9333 32.9415 18.5305 33.1347 17.839C33.2507 17.4248 33.2623 17.0069 33.2661 16.5813C33.2777 15.0956 33.2545 13.6138 33.0381 12.1395C32.9801 11.7368 32.9106 11.334 32.8449 10.9313C32.8333 10.8477 32.8255 10.7717 32.9415 10.7451C33.2197 10.6729 33.2352 10.6539 33.0806 10.4069C32.8526 10.0498 32.5975 9.70779 32.3733 9.34682C32.2651 9.17584 32.2303 9.23663 32.1608 9.36202C31.9598 9.71158 31.9559 10.0877 32.0139 10.4639C32.3308 12.5765 32.5859 14.6967 32.6555 16.8359C32.6671 17.1436 32.5704 17.4172 32.3965 17.687C32.0487 18.2227 31.4922 18.4431 30.9549 18.7053C30.8931 18.6103 30.9743 18.4203 30.7308 18.4431C30.4757 18.4659 30.4718 18.4355 30.5878 18.2037C30.6921 17.991 30.6496 17.9074 30.41 17.8732C30.3366 17.8618 30.2593 17.8656 30.1858 17.8732C30.0892 17.8846 29.9849 17.8846 29.9578 18.01C29.9307 18.1353 30.0003 18.1961 30.0969 18.2531C30.2631 18.3519 30.2709 18.4507 30.1279 18.5875C30.0544 18.6597 29.9655 18.7205 29.8921 18.7927C29.8457 18.8421 29.8225 18.9067 29.8573 18.9751C29.8882 19.0321 29.9462 19.0473 30.008 19.0549C30.1008 19.0624 30.1897 19.0397 30.2709 19.0055C30.468 18.9219 30.6651 18.8269 30.8583 18.7395L30.8622 18.7509ZM22.5334 14.0242C23.1363 14.9513 23.6465 15.924 24.1798 16.9119C24.3537 16.5889 24.3499 15.829 24.1798 15.4984C23.689 14.5219 23.1286 13.5834 22.5179 12.6715C22.4213 12.5309 22.3711 12.3865 22.3556 12.2193C22.317 11.8736 22.2706 11.5278 22.2358 11.182C22.2242 11.087 22.1585 10.9123 22.3865 11.0301C22.4406 11.0567 22.4522 11.0111 22.4484 10.9769C22.4406 10.9123 22.4252 10.8439 22.4097 10.7793C22.2745 10.2397 21.9189 9.81797 21.6058 9.37342C21.4512 9.15684 21.3817 9.16444 21.2503 9.40002C21.1459 9.5824 21.1536 9.79138 21.1266 10.046C20.9449 9.77618 20.7169 9.63179 20.5159 9.45701C20.3807 9.33922 20.2493 9.21383 20.0753 9.14924C19.8435 9.06185 19.7468 9.12264 19.7005 9.36202C19.6579 9.571 19.7546 9.76858 19.712 9.97376C19.5768 9.76098 19.4647 9.5368 19.283 9.35822C19.0434 9.12264 18.6531 9.18344 18.541 9.49501C18.4289 9.80657 18.3941 10.1219 18.599 10.4335C18.8231 10.7755 19.0164 11.1402 19.0009 11.5696C18.9932 11.7786 18.8695 11.9344 18.6647 11.98C18.4521 12.0256 18.313 11.9306 18.2318 11.7444C18.1932 11.657 18.1622 11.5658 18.139 11.4708C18.0115 10.9845 18.0347 10.4829 18.0076 9.98896C17.9922 9.67739 17.9033 9.39242 17.7642 9.11884C17.7178 9.02765 17.6482 8.92506 17.5516 9.05805C17.3197 9.36962 17.1226 9.70019 17.3004 10.1067C17.455 10.4639 17.4704 10.8363 17.4782 11.2162C17.482 11.4936 17.3661 11.6988 17.1883 11.8888C17.026 12.0635 16.8327 12.0939 16.6163 11.9914C16.3689 11.8698 16.2453 11.6722 16.2491 11.4024C16.2491 11.1668 16.2646 10.9275 16.2607 10.6919C16.2607 10.4829 16.2491 10.2777 16.2298 10.0687C16.2143 9.93956 16.1486 9.82557 16.0134 9.77998C15.882 9.73818 15.7776 9.80278 15.6887 9.88637C15.6076 9.96616 15.5341 10.0498 15.4684 10.1371C15.2056 10.4981 15.051 10.9047 14.9273 11.3264C14.8926 11.448 14.8616 11.5696 14.8191 11.6874C14.7882 11.7672 14.7612 11.8736 14.6568 11.8812C14.5525 11.8888 14.5138 11.7862 14.4636 11.714C14.3553 11.5468 14.336 11.353 14.2974 11.163C14.2317 10.8287 14.2008 10.4867 14.1003 10.1599C14.0809 10.1029 14.0655 10.0156 13.9766 10.0232C13.9032 10.0308 13.9032 10.1067 13.8877 10.1599C13.6751 10.9351 13.7486 11.6722 14.1853 12.3599C14.3322 12.5917 14.5409 12.7323 14.8269 12.6867C15.0626 12.6487 15.1283 12.4435 15.2133 12.2611C15.3448 11.9762 15.3911 11.6646 15.48 11.3682C15.5032 11.296 15.538 11.1896 15.6308 11.1972C15.7506 11.2086 15.7003 11.3264 15.7042 11.3986C15.7042 11.7254 15.7042 12.0522 15.8008 12.3713C16.0095 13.0401 16.7438 13.2148 17.2501 12.7247C17.3429 12.6373 17.4318 12.5461 17.5207 12.4549C17.7912 12.1889 17.9458 12.2041 18.1275 12.5347C18.2666 12.7855 18.4753 12.8957 18.7613 12.8729C19.0628 12.8539 19.3178 12.7665 19.4531 12.4587C19.5072 12.3333 19.569 12.2003 19.685 12.1053C19.7546 12.0484 19.8357 12.037 19.9169 12.0787C19.9749 12.1091 19.9362 12.1585 19.9169 12.1927C19.8744 12.2915 19.828 12.3941 19.9517 12.4663C20.0599 12.5309 20.1565 12.4663 20.2415 12.4017C20.4039 12.2725 20.5043 12.0977 20.5855 11.9116C20.6396 11.79 20.771 11.6456 20.6473 11.524C20.5121 11.3948 20.4077 11.5658 20.2995 11.6266C20.0406 11.771 19.7314 11.733 19.6541 11.5126C19.5304 11.1554 19.4376 10.7907 19.3372 10.4259C19.314 10.3423 19.3256 10.2511 19.457 10.2739C19.7236 10.3195 19.7352 10.1485 19.7275 9.96616C19.8512 10.0498 19.9014 10.1941 19.9865 10.3081C20.543 11.0187 21.0686 11.752 21.5788 12.4967C21.629 12.5689 21.6793 12.6373 21.6909 12.7323C21.915 14.4193 21.9614 16.1139 21.888 17.8162C21.888 17.896 21.8339 18.01 21.9034 18.0442C21.9962 18.0935 22.0889 18.0024 22.1546 17.9378C22.4252 17.6794 22.5798 17.3678 22.5952 16.9917C22.63 16.0721 22.5643 15.1526 22.5334 14.2331C22.5334 14.1571 22.4754 14.0735 22.5643 14.009V14.0166L22.5334 14.0242ZM9.86438 10.8553C9.99192 11.6228 10.1195 12.3903 10.247 13.1578C10.2856 13.3858 10.3204 13.61 10.3513 13.838C10.3707 13.9824 10.3282 14.1039 10.1852 14.1723C10.0422 14.2369 9.98805 14.1115 9.90689 14.0432C9.86824 14.009 9.83732 13.9672 9.80254 13.9254C9.42378 13.4998 8.98319 13.4922 8.58124 13.8988C8.27592 14.2103 8.25659 14.6055 8.26432 15.0007C8.26819 15.3768 8.48462 15.5554 8.87111 15.563C9.12232 15.5668 9.31943 15.4566 9.50881 15.316C9.55132 15.2856 9.59384 15.24 9.64794 15.2704C9.70592 15.3008 9.67886 15.3616 9.675 15.411C9.65954 15.5706 9.5977 15.715 9.50881 15.8442C9.13005 16.3951 8.59284 16.7219 7.93581 16.8359C7.44497 16.9195 7.13578 16.6725 7.07395 16.1899C7.03916 15.905 7.01984 15.6162 6.98119 15.3274C6.9696 15.2438 6.93868 15.1374 6.83432 15.126C6.72224 15.1146 6.69905 15.2134 6.66814 15.3008C6.53673 15.6618 6.47103 16.0304 6.48649 16.4141C6.52127 17.1322 6.97732 17.6452 7.69619 17.7554C8.15997 17.8276 8.57738 17.6946 8.96 17.4476C9.55905 17.06 9.8837 16.4863 10.0654 15.8214C10.1156 15.6428 10.1388 15.4566 10.1852 15.278C10.2045 15.202 10.2586 15.1108 10.3552 15.1298C10.4402 15.1488 10.4325 15.2438 10.4286 15.3198C10.3939 15.8974 10.2818 16.4559 9.96873 16.9537C9.43151 17.8048 8.65081 18.2341 7.62276 18.1847C6.8807 18.1467 6.50968 17.7896 6.44784 17.0676C6.43238 16.8815 6.42465 16.6953 6.39373 16.5129C6.37441 16.4027 6.37054 16.2431 6.22754 16.2279C6.08068 16.2127 6.05362 16.3685 6.00724 16.4711C5.98019 16.5319 5.96473 16.6003 5.957 16.6649C5.90289 16.9879 5.88743 17.3146 5.90676 17.6414C5.94927 18.3861 6.43238 18.9447 7.18989 19.0283C8.54646 19.1764 9.64021 18.6559 10.4828 17.6338C11.0354 16.9651 11.047 16.1557 10.962 15.3426C10.9504 15.221 10.9272 15.0994 10.9543 14.9399C11.3408 15.2514 11.7041 15.1792 12.0287 14.8981C12.1717 14.7765 12.2722 14.7537 12.4422 14.8525C12.8055 15.0576 13.2886 14.8867 13.3698 14.5295C13.4471 14.1837 13.478 13.8266 13.5012 13.4694C13.5089 13.3668 13.4664 13.363 13.3814 13.3782C13.1263 13.4276 12.9911 13.572 12.9872 13.8342C12.9872 13.9064 12.9756 13.9862 12.8712 13.9976C12.7746 14.009 12.7321 13.952 12.7128 13.8722C12.6741 13.7278 12.6162 13.591 12.45 13.572C12.2645 13.553 12.1717 13.6936 12.0867 13.8304C12.0596 13.876 12.0364 13.9216 12.0171 13.971C11.9514 14.1533 11.8045 14.1875 11.6345 14.1761C11.4412 14.1609 11.4799 14.0128 11.4722 13.8912C11.4567 13.6442 11.3485 13.5758 11.1127 13.6556C11.0586 13.6746 11.0045 13.6974 10.9388 13.724C10.8267 12.8957 10.7224 12.0787 10.6064 11.2656C10.5832 11.106 10.5832 11.0339 10.7842 11.0756C10.8924 11.0984 11.0548 11.0908 10.9891 10.8933C10.8499 10.4639 10.7108 10.0308 10.4905 9.63179C10.3436 9.36582 10.2006 9.33542 9.93781 9.49881C9.77162 9.6014 9.71365 9.75718 9.73684 9.93956C9.77549 10.2473 9.82573 10.5551 9.86824 10.8629C9.79094 10.8477 9.79481 10.7755 9.77549 10.7223C9.67886 10.4639 9.54359 10.2435 9.29624 10.0991C9.07208 9.96996 8.86724 10.0346 8.76289 10.2701C8.70878 10.3917 8.71265 10.5171 8.73197 10.6425C8.77835 10.9807 8.91362 11.2846 9.11073 11.562C9.2344 11.7368 9.29624 11.9306 9.31943 12.1395C9.32716 12.2231 9.36195 12.3295 9.25759 12.3789C9.16484 12.4207 9.06435 12.4169 8.97546 12.3599C8.85178 12.2725 8.7397 12.1737 8.61603 12.0901C8.43824 11.9686 8.38027 11.828 8.41892 11.6C8.50781 11.1136 8.38027 10.6615 8.07881 10.2587C8.01697 10.1751 7.94741 10.1143 7.83532 10.1257C7.72711 10.1371 7.68846 10.2207 7.66141 10.3081C7.64595 10.3575 7.63049 10.4069 7.61889 10.4563C7.52227 10.9883 7.64595 11.486 7.8933 11.9572C7.94354 12.0522 7.96673 12.1547 7.85465 12.2041C7.74257 12.2497 7.69232 12.1433 7.66141 12.0673C7.58797 11.8964 7.56092 11.7102 7.53773 11.5278C7.47589 11.0491 7.49908 10.5627 7.40246 10.0877C7.36381 9.89397 7.33289 9.69259 7.20149 9.5292C7.13192 9.44561 7.05849 9.37342 6.93481 9.41141C6.81114 9.44941 6.75316 9.5368 6.75316 9.66219C6.75316 9.85597 6.74157 10.0498 6.75316 10.2397C6.78795 10.7945 6.97733 11.3264 7.0237 11.8812C7.03916 12.0597 7.06622 12.2345 7.0353 12.4131C7.0237 12.4815 6.99278 12.5461 6.91935 12.5613C6.85365 12.5727 6.80727 12.5271 6.76862 12.4777C6.65654 12.3371 6.62176 12.1813 6.65268 11.999C6.72224 11.5962 6.72997 11.1858 6.65268 10.7831C6.62562 10.6387 6.57924 10.4829 6.39759 10.4525C6.22754 10.4259 6.1116 10.5247 6.01497 10.6463C5.81787 10.8895 5.71351 11.1744 5.65554 11.4746C5.60143 11.752 5.55119 12.0294 5.48549 12.3029C5.46616 12.3827 5.43524 12.4891 5.32316 12.4967C5.20722 12.5043 5.1763 12.4017 5.14538 12.3219C5.099 12.2041 5.06808 12.0825 5.04103 11.961C4.95987 11.6076 4.88643 11.2504 4.80141 10.8971C4.78595 10.8401 4.76276 10.7489 4.67773 10.7565C4.58884 10.7679 4.60816 10.8591 4.6043 10.9199C4.57724 11.3644 4.56179 11.809 4.6043 12.2535C4.63135 12.5575 4.68546 12.8577 4.85938 13.1198C4.98306 13.306 5.14925 13.42 5.38887 13.3858C5.63235 13.3516 5.72511 13.1844 5.77535 12.9793C5.85265 12.6753 5.84492 12.3599 5.85651 12.0522C5.86038 11.904 5.86811 11.752 5.94541 11.6228C5.98406 11.5582 6.01111 11.4442 6.1116 11.4746C6.19662 11.4974 6.17343 11.6 6.17343 11.6722C6.17343 12.1167 6.16957 12.5613 6.17343 13.0097C6.18116 13.3896 6.44397 13.6404 6.83046 13.6518C7.08941 13.6594 7.19762 13.762 7.20922 14.0204C7.24014 14.7157 7.27105 15.4148 7.30584 16.1101C7.30584 16.1633 7.27492 16.2393 7.34835 16.2697C7.41792 16.3001 7.48362 16.2583 7.53773 16.2203C7.69232 16.1063 7.75803 15.943 7.80441 15.7682C7.94741 15.2058 7.91262 14.6359 7.87011 14.0659C7.85078 13.8152 7.81986 13.5644 7.81213 13.3136C7.81213 13.1996 7.81986 13.0628 7.95127 13.0097C8.07495 12.9565 8.18703 13.0173 8.28365 13.0894C8.33776 13.1312 8.39186 13.173 8.44211 13.2148C8.60443 13.3516 8.78995 13.3782 8.99092 13.3174C9.14938 13.2718 9.30397 13.2148 9.44697 13.1274C9.76776 12.9337 9.90689 12.6677 9.86438 12.2877C9.81413 11.8356 9.67886 11.41 9.53586 10.9427C9.69819 11.0415 9.78322 10.9693 9.86051 10.8705L9.86438 10.8553ZM28.6669 10.1675C28.3848 9.84837 28.0949 9.5368 27.7471 9.28223C27.6659 9.22143 27.577 9.16824 27.5577 9.32022C27.4882 9.85977 27.4302 10.3879 27.8592 10.8515C28.2611 11.2922 28.609 11.7824 28.9839 12.2459C29.065 12.3447 29.0959 12.4435 29.1037 12.5689C29.1539 13.4808 29.208 14.3927 29.2699 15.3008C29.3046 15.7986 29.3008 16.2925 29.1423 16.7751C29.0921 16.9233 29.0496 17.0752 28.8524 17.1056C28.6631 17.136 28.5549 17.0297 28.4582 16.9005C28.3268 16.7257 28.2109 16.5471 28.0795 16.3723C27.9133 16.1481 27.7123 16.1291 27.5036 16.3191C27.3567 16.4521 27.2408 16.6079 27.1596 16.7827C26.9703 17.1778 26.7963 17.5806 26.6031 17.972C26.4524 18.2797 26.178 18.2949 25.9731 18.0138C25.834 17.8238 25.7567 17.611 25.6987 17.383C25.6176 17.0676 25.6446 16.7447 25.6523 16.3989C24.9876 17.1854 25.3934 18.7015 26.3326 19.0511C26.5297 19.127 26.6997 19.0738 26.8505 18.9333C27.0244 18.7661 27.0939 18.5457 27.1558 18.3253C27.2331 18.0631 27.2447 17.782 27.3761 17.535C27.5152 17.2728 27.7162 17.2348 27.9056 17.459C28.0795 17.6642 28.3036 17.7972 28.5239 17.9378C28.7172 18.0593 28.9336 18.0783 29.1539 17.9948C29.4438 17.8846 29.6718 17.7022 29.8264 17.4286C30.0003 17.1208 29.9887 16.7827 30.0003 16.4521C30.0274 15.5706 29.9964 14.6853 29.9694 13.8038C29.9694 13.7392 29.9385 13.6632 30.0003 13.591C30.2013 13.876 30.3907 14.1495 30.5878 14.4231C30.6303 14.4801 30.6457 14.5409 30.6496 14.6093C30.7346 15.525 30.7772 16.4445 30.7578 17.364C30.7578 17.421 30.7308 17.4818 30.7887 17.5426C31.4187 17.1132 31.5037 16.4787 31.4342 15.7796C31.4574 15.7834 31.4767 15.791 31.4999 15.7948C31.8091 16.3077 32.1221 16.8169 32.4313 17.3298C32.582 16.8549 32.64 16.3837 32.3927 15.9506C32.1299 15.4946 31.8129 15.069 31.5076 14.6359C31.3994 14.4839 31.3414 14.3319 31.3221 14.1457C31.2796 13.7468 31.2255 13.3516 31.1598 12.9565C31.0709 12.3865 30.9665 11.8166 30.8738 11.2466C30.8583 11.1478 30.8313 11.0377 31.0052 11.0263C31.1327 11.0187 31.1559 10.9161 31.1289 10.8097C30.9974 10.2815 30.7965 9.77998 30.5221 9.30882C30.4409 9.16824 30.3366 9.17204 30.2245 9.25943C30.0235 9.41901 29.923 9.61659 29.9501 9.87877C29.9926 10.3157 30.1008 10.7413 30.1704 11.1706C30.2709 11.7976 30.3752 12.4283 30.4834 13.0856C29.8187 12.4245 29.552 11.7368 29.579 10.8059C29.6718 10.7717 29.753 10.9465 29.8419 10.8287C29.9307 10.7109 29.8534 10.6045 29.7955 10.5019C29.6022 10.1523 29.409 9.79898 29.2119 9.44941C29.1578 9.35062 29.1307 9.18344 28.9877 9.20244C28.837 9.22143 28.7713 9.37342 28.7172 9.50261C28.694 9.5634 28.6901 9.63179 28.694 9.70019C28.7017 9.84837 28.7172 9.99656 28.7288 10.1447C28.7094 10.1447 28.694 10.1485 28.6747 10.1523L28.6669 10.1675ZM18.7342 15.354C18.7922 15.2666 18.8772 15.2818 18.9468 15.2704C19.341 15.202 19.7352 15.1298 20.0831 14.9209C20.5353 14.6473 20.7594 14.2559 20.713 13.7278C20.6705 13.2262 20.2493 12.8425 19.7468 12.8425C19.3256 12.8425 18.9236 13.287 18.9043 13.7696C18.9004 13.9102 18.8966 14.0507 18.9043 14.1913C18.912 14.3471 18.8425 14.4155 18.6801 14.4345C18.1622 14.4915 17.683 14.6663 17.2424 14.9323C16.9757 15.0918 16.7284 15.2742 16.624 15.5858C16.4694 15.525 16.4656 15.3996 16.454 15.2704C16.4037 14.5067 16.195 13.7848 15.8317 13.1046C15.7776 13.0021 15.7003 12.9261 15.6192 12.8463C15.5457 12.7741 15.4916 12.7817 15.4105 12.8501C15.1786 13.0515 15.1129 13.3022 15.2172 13.6138C15.4066 14.1837 15.7003 14.7157 15.8008 15.316C15.8936 15.8556 15.9283 16.3685 15.5496 16.8397C15.1824 17.2994 14.7766 17.7098 14.2665 18.0138C14.0539 18.1391 13.8297 18.1619 13.5901 18.1353C13.4007 18.1125 13.308 17.9834 13.2577 17.8162C13.2036 17.6452 13.3582 17.6148 13.4471 17.5578C14.0578 17.1778 14.5756 16.7143 14.8926 16.0645C15.0433 15.7568 15.1129 15.4414 15.0626 15.0956C15.0124 14.7689 14.9351 14.4535 14.7302 14.1457C14.8191 14.1609 14.8655 14.1647 14.9042 14.1799C15.0858 14.2483 15.1013 14.1799 15.051 14.028C14.9505 13.743 14.8191 13.477 14.5834 13.2794C14.3051 13.0439 13.9225 13.1502 13.8413 13.5036C13.7679 13.8304 13.7756 14.1533 14.0732 14.4003C14.1969 14.4991 14.2896 14.6245 14.3669 14.7651C14.5756 15.1336 14.5447 15.4528 14.2471 15.7606C14.0655 15.9468 13.8645 16.1215 13.6635 16.2887C13.5012 16.4255 13.3505 16.5737 13.1534 16.6763C13.0954 16.4293 13.1998 16.2013 13.1688 15.9544C12.964 16.1139 12.8365 16.3077 12.8133 16.5129C12.7476 17.0373 12.3959 17.2956 11.9707 17.516C11.7311 17.6414 11.5031 17.7858 11.2712 17.9264C10.9195 18.1429 10.5639 18.3557 10.2586 18.6331C10.1736 18.7129 9.98419 18.7889 10.0576 18.9105C10.1117 19.0093 10.2934 18.9371 10.4171 18.9067C11.0895 18.7319 11.7272 18.4697 12.3649 18.2037C12.4693 18.1581 12.5427 18.1391 12.5775 18.2835C12.7244 18.8953 13.6288 19.26 14.2742 18.9637C14.8307 18.7091 15.2752 18.3367 15.6655 17.8884C15.7969 17.7364 15.9168 17.573 16.052 17.421C16.1989 17.2538 16.2839 17.2614 16.3883 17.4514C16.5854 17.8086 16.883 18.0669 17.2347 18.2683C17.741 18.5571 18.2936 18.6787 18.8656 18.7509C19.1053 18.7813 19.1826 18.6597 19.2405 18.4925C19.3024 18.3139 19.2405 18.1771 19.055 18.0935C18.8695 18.01 18.684 17.9264 18.5217 17.801C18.2859 17.6186 18.282 17.4134 18.4946 17.2006C18.6917 17.0031 18.9468 17.0183 19.1864 16.9841C19.8203 16.8967 20.4541 16.7979 21.0725 16.6269C21.2039 16.5889 21.2773 16.5471 21.3044 16.3875C21.3585 16.0759 21.4744 15.7758 21.6947 15.5364C21.6097 15.4414 21.5053 15.4414 21.3971 15.4376C20.5894 15.4376 19.7816 15.4338 18.9739 15.4262C18.8888 15.4262 18.7883 15.4604 18.7188 15.3616L18.7342 15.354ZM25.9731 26.9125C20.0985 26.8517 14.2587 26.8897 8.39186 26.7301C8.70105 27.1594 9.07595 27.4292 9.54359 27.585C10.0692 27.7598 10.6103 27.7826 11.1514 27.7826C15.9902 27.775 20.829 27.7674 25.6639 27.756C25.749 27.756 25.834 27.756 25.9306 27.756C25.8263 28.0865 25.861 28.3753 26.0156 28.6451C26.12 28.8275 26.2823 28.8541 26.4137 28.7021C26.491 28.6147 26.5644 28.6033 26.6688 28.6071C27.3026 28.6375 27.9365 28.6603 28.5703 28.6071C28.6476 28.5995 28.6901 28.6299 28.7404 28.6831C29.0186 28.9909 29.5559 28.8731 29.6718 28.4665C29.7993 28.0144 29.7182 27.585 29.4631 27.1898C29.3356 26.9923 29.1346 26.8859 28.9027 26.9277C28.0795 27.0758 27.264 26.8821 26.4292 26.9049C26.4408 26.8593 26.4524 26.8327 26.4562 26.8061C26.5103 26.6047 26.6147 26.3881 26.2784 26.3235C26.2475 26.3159 26.2166 26.2589 26.2089 26.2171C26.1857 26.0879 26.1123 26.1145 26.0272 26.1525C25.7567 26.2817 25.7258 26.5515 25.9731 26.9087V26.9125ZM22.9392 19.1612C22.9624 19.1574 23.0436 19.146 23.1247 19.127C24.0059 18.9105 25.0069 17.668 25.0378 16.6953C25.0881 15.202 25.0069 13.7164 24.7673 12.2383C24.7093 11.8888 24.6011 11.543 24.6011 11.1858C24.6011 11.106 24.5663 10.9883 24.6977 10.9655C24.9567 10.9237 24.9142 10.7565 24.8639 10.5969C24.7441 10.1903 24.5509 9.81417 24.3422 9.44561C24.2455 9.27463 24.1953 9.33162 24.1257 9.45701C23.9132 9.84837 23.8436 10.2625 23.9016 10.7033C23.9595 11.1364 24.0214 11.5696 24.0639 12.0066C24.1721 13.0894 24.2726 14.1761 24.3692 15.2628C24.4117 15.7416 24.4504 16.2241 24.4813 16.7029C24.4929 16.8815 24.4697 17.06 24.3344 17.2006C23.8049 17.744 23.2291 18.2303 22.5373 18.5647C22.2281 18.7167 22.2165 18.8269 22.5063 19.0359C22.6184 19.1156 22.7382 19.1726 22.9431 19.1612H22.9392ZM26.0002 17.6832C26.1509 17.6566 26.2166 17.5616 26.2746 17.4704C26.464 17.1626 26.5915 16.8321 26.6031 16.4673C26.6186 15.9164 26.5529 15.373 26.4872 14.8259C26.3442 13.6252 26.1934 12.4283 25.977 11.239C25.9461 11.0642 25.9615 10.9199 26.2089 10.9579C26.3673 10.9807 26.3712 10.8857 26.321 10.7831C26.2514 10.6425 26.1741 10.5095 26.0929 10.3727C25.9152 10.0725 25.7142 9.78378 25.5635 9.46841C25.5325 9.40002 25.5287 9.27463 25.4398 9.28223C25.3547 9.28983 25.3122 9.39242 25.2852 9.47981C25.1229 10.0042 25.0649 10.5285 25.177 11.0794C25.6137 13.2528 26.0697 15.4262 26.0079 17.6794L26.0002 17.6832ZM11.19 11.9078C11.4103 11.9078 11.5842 11.8964 11.7543 11.9078C12.0248 11.9306 12.2297 11.828 12.4152 11.6456C12.7862 11.2846 13.1341 10.9047 13.4858 10.5323C13.5708 10.4411 13.5592 10.3879 13.4626 10.3271C13.3389 10.2473 13.3312 10.1713 13.451 10.0649C13.6442 9.88637 13.6403 9.5748 13.4626 9.40761C13.3002 9.25943 12.8828 9.28603 12.736 9.45701C12.5389 9.68499 12.5621 9.98516 12.7901 10.1561C12.9833 10.3043 12.9911 10.3537 12.8171 10.5171C12.4152 10.8971 11.9591 11.2162 11.5301 11.5658C11.4219 11.6532 11.3021 11.7292 11.19 11.904V11.9078ZM28.3848 12.3751C28.3616 12.2725 28.3462 12.1699 28.3191 12.0711C28.2457 11.8318 28.0872 11.7216 27.894 11.7672C27.7007 11.8128 27.6157 11.9724 27.6543 12.2231C27.6659 12.2953 27.7007 12.3827 27.6118 12.4169C27.5113 12.4587 27.4418 12.4055 27.3993 12.3067C27.3258 12.1357 27.1983 12.1319 27.0437 12.2003C26.8543 12.2839 26.7847 12.5841 26.9239 12.7969C27.1403 13.116 27.4225 13.3706 27.7626 13.5606C27.9056 13.6404 27.9867 13.6442 27.9906 13.4428C27.9906 13.1844 28.0138 12.9261 28.037 12.6677C28.0486 12.5423 28.0988 12.4473 28.2573 12.5005C28.3964 12.5461 28.3925 12.4663 28.3848 12.3751ZM4.7357 15.5478C5.49708 15.1868 6.243 14.8335 6.98892 14.4877C7.10873 14.4307 7.11646 14.3775 7.07008 14.2749C6.98119 14.0697 6.76862 13.9748 6.45557 14.0546C5.7367 14.2369 5.19176 14.6587 4.80527 15.278C4.75889 15.3502 4.71638 15.43 4.73184 15.5478H4.7357ZM4.91349 16.5547C4.67387 16.8549 4.56565 17.136 4.49222 17.4324C4.3956 17.8314 4.34535 18.2341 4.47676 18.6369C4.54633 18.8535 4.72024 18.9523 4.93668 18.9713C5.13379 18.9903 5.23041 18.8459 5.3077 18.6977C5.38887 18.5457 5.42365 18.3785 5.43138 18.2075C5.43138 18.1011 5.41206 17.991 5.29225 17.953C5.1763 17.9188 5.14538 18.029 5.099 18.0973C5.06422 18.1467 5.03716 18.2151 4.97146 18.2037C4.8903 18.1923 4.87484 18.1087 4.87098 18.048C4.85552 17.8618 4.84006 17.6794 4.84779 17.4932C4.85938 17.2006 4.8903 16.9081 4.91735 16.5509L4.91349 16.5547ZM28.8795 13.8532C28.864 13.8 28.9104 13.6822 28.8099 13.6442C28.7249 13.61 28.6669 13.705 28.6012 13.7506C28.1954 14.0318 27.7973 14.3281 27.3877 14.6017C27.2292 14.7081 27.1751 14.8373 27.1906 15.0159C27.206 15.2248 27.2485 15.2514 27.4418 15.145C27.8824 14.9019 28.2959 14.6207 28.694 14.3053C28.837 14.1913 28.9027 14.0546 28.8834 13.8494L28.8795 13.8532ZM20.2106 18.4089C20.2029 18.6217 20.3072 18.6901 20.5739 18.5875C20.8406 18.4849 21.0995 18.3671 21.3817 18.3101C21.486 18.2873 21.5479 18.2379 21.5247 18.1277C21.5053 18.0252 21.4396 17.9758 21.3353 17.9834C21.1459 17.9948 20.9604 18.0138 20.7942 18.1201C20.7246 18.1657 20.6512 18.2227 20.57 18.1581C20.4928 18.0973 20.4812 18.0062 20.4966 17.915C20.5082 17.8504 20.5314 17.7858 20.543 17.7212C20.57 17.573 20.4657 17.4704 20.3266 17.5236C20.1217 17.6034 19.9633 17.7592 19.8241 17.9264C19.7855 17.972 19.7971 18.0404 19.8357 18.0935C19.8666 18.1353 19.913 18.1429 19.9555 18.1277C20.199 18.0252 20.2299 18.1619 20.2106 18.4127V18.4089ZM28.5471 16.0532C28.5471 16.1101 28.5471 16.1861 28.5471 16.2583C28.5471 16.3077 28.5355 16.3685 28.5935 16.3951C28.6631 16.4255 28.7056 16.3761 28.7442 16.3305C28.779 16.2925 28.8099 16.2469 28.8331 16.2013C29.0496 15.7074 28.9529 15.2324 28.7133 14.7727C28.6669 14.6815 28.578 14.6359 28.4621 14.6815C28.35 14.7271 28.2959 14.8069 28.2959 14.9209C28.2959 15.1108 28.3616 15.2818 28.4312 15.4528C28.5085 15.639 28.5896 15.8252 28.5394 16.0494L28.5471 16.0532ZM17.7642 14.0014C18.2318 14.0014 18.3748 13.8304 18.2975 13.363C18.2821 13.2794 18.2627 13.192 18.1584 13.192C18.0579 13.192 18.0192 13.2642 17.9999 13.3516C17.9883 13.3972 18.0192 13.4732 17.9458 13.477C17.8724 13.477 17.8608 13.4086 17.853 13.3478C17.8453 13.287 17.8221 13.23 17.7487 13.2224C17.6675 13.2186 17.6637 13.2908 17.6443 13.344C17.6289 13.382 17.6366 13.439 17.5786 13.4466C17.5129 13.4542 17.4859 13.4048 17.4743 13.3516C17.4588 13.2756 17.4434 13.1996 17.339 13.2186C17.2385 13.2338 17.2153 13.3136 17.1999 13.3972C17.1303 13.781 17.339 14.0014 17.768 13.9976L17.7642 14.0014ZM23.1518 12.3979C23.573 12.4093 23.7856 12.1851 23.7315 11.7786C23.7199 11.6874 23.7083 11.5886 23.5885 11.5886C23.4919 11.5886 23.4532 11.6646 23.4339 11.752C23.4223 11.7976 23.4571 11.8698 23.3759 11.8736C23.3141 11.8736 23.2948 11.8204 23.2909 11.7634C23.2832 11.695 23.2639 11.6266 23.1788 11.6228C23.0977 11.619 23.0938 11.6912 23.0745 11.7482C23.059 11.79 23.0629 11.8432 23.0049 11.847C22.9392 11.8546 22.9122 11.8014 22.9006 11.752C22.8812 11.676 22.8735 11.6 22.7653 11.619C22.6648 11.638 22.6416 11.7178 22.6262 11.7976C22.5605 12.1623 22.7576 12.3903 23.1479 12.4017L23.1518 12.3979ZM8.43051 10.1219C8.82859 10.1219 9.00638 9.91676 8.97159 9.50641C8.96386 9.41901 8.95227 9.33162 8.85178 9.31642C8.7397 9.29743 8.69719 9.38102 8.674 9.47601C8.66241 9.5216 8.69332 9.5938 8.6083 9.5938C8.54646 9.5938 8.531 9.5292 8.52327 9.47981C8.51554 9.41901 8.49622 9.35822 8.42278 9.35062C8.3223 9.33922 8.33389 9.42661 8.3107 9.48361C8.29524 9.5254 8.28365 9.5748 8.22954 9.571C8.1793 9.571 8.15611 9.5292 8.14451 9.48361C8.12905 9.41141 8.11359 9.32402 8.01311 9.33542C7.90489 9.35062 7.87784 9.43421 7.86624 9.5292C7.81987 9.92056 8.00924 10.1219 8.42665 10.1219H8.43051ZM23.4223 10.2321C23.3914 9.95856 23.3141 9.70778 23.1247 9.50261C23.0049 9.37722 22.8619 9.35442 22.7189 9.45321C22.5759 9.552 22.6339 9.68879 22.6803 9.81037C22.6957 9.85217 22.7228 9.89017 22.7537 9.92056C22.9933 10.2017 23.175 10.4981 23.059 10.8895C23.0474 10.9351 23.032 11.0035 23.1054 11.0149C23.1672 11.0263 23.1943 10.9693 23.2213 10.9237C23.3412 10.7071 23.3953 10.4715 23.4223 10.2283V10.2321ZM31.4922 11.6912C31.4922 11.752 31.4922 11.7748 31.4922 11.7976C31.496 11.8622 31.4728 11.9496 31.5579 11.9648C31.6236 11.9762 31.6506 11.9002 31.6699 11.8432C31.7163 11.7178 31.7627 11.5924 31.7936 11.4632C31.8864 11.068 31.782 10.7033 31.5888 10.3575C31.5231 10.2397 31.4226 10.1637 31.2719 10.2245C31.125 10.2853 31.1095 10.4069 31.1327 10.5399C31.1482 10.6463 31.2062 10.7337 31.2641 10.8173C31.4574 11.0946 31.612 11.3758 31.496 11.6874L31.4922 11.6912ZM13.4239 12.2041C13.2886 12.1813 13.2345 12.2611 13.1611 12.3067C13.0104 12.4017 12.9253 12.3637 12.906 12.1889C12.8906 12.0711 12.9099 11.9572 12.9485 11.8432C12.9795 11.752 12.9563 11.6798 12.8287 11.7026C12.5736 11.7482 12.3804 12.1319 12.4616 12.4473C12.5234 12.6981 12.7823 12.8273 13.0529 12.7285C13.2848 12.6411 13.3505 12.4245 13.4278 12.2117L13.4239 12.2041ZM5.53573 10.2625C5.53573 10.3385 5.53187 10.4069 5.53573 10.4715C5.5396 10.5057 5.55892 10.5475 5.58597 10.5627C5.62076 10.5817 5.65168 10.5475 5.67873 10.5209C5.90676 10.2777 5.91449 9.62799 5.69419 9.37342C5.56665 9.22523 5.36568 9.17964 5.25746 9.28603C5.12606 9.41141 5.19562 9.5406 5.28065 9.66219C5.3193 9.71538 5.35022 9.77618 5.39273 9.82557C5.50481 9.95856 5.55892 10.1029 5.528 10.2663L5.53573 10.2625ZM16.4308 10.008C16.4462 10.1219 16.3458 10.2891 16.5274 10.3309C16.7129 10.3727 16.7554 10.2017 16.8018 10.0687C16.8868 9.82937 16.9487 9.5862 16.9487 9.33162C16.9487 9.21763 16.9371 9.08845 16.8018 9.06185C16.682 9.03905 16.624 9.15684 16.5776 9.24803C16.4617 9.48741 16.4617 9.74958 16.4269 10.0042L16.4308 10.008ZM12.5079 16.1177C12.4848 15.9012 12.4191 15.6998 12.2799 15.525C12.1678 15.3882 12.0171 15.3464 11.8857 15.4566C11.7427 15.5744 11.8471 15.6998 11.9514 15.7948C12.1524 15.9734 12.2451 16.1823 12.191 16.4483C12.1833 16.4901 12.1872 16.5357 12.1833 16.5813C12.1833 16.6269 12.1833 16.6801 12.2335 16.6915C12.2838 16.7029 12.3147 16.6573 12.3379 16.6193C12.4306 16.4635 12.4848 16.2963 12.5041 16.1177H12.5079ZM14.4056 9.81797C14.3901 9.98136 14.4752 10.0953 14.6413 10.1295C14.7843 10.1599 14.9969 9.98516 15.024 9.84077C15.0394 9.76478 15.0085 9.75718 14.9428 9.75338C14.765 9.74198 14.7071 9.62419 14.7998 9.46081C14.8539 9.37342 14.9273 9.29743 14.9969 9.21763C15.0549 9.15304 15.0703 9.07325 15.0201 9.01625C14.9544 8.94406 14.8771 9.00486 14.823 9.05045C14.5718 9.24043 14.4211 9.48741 14.4056 9.81797Z" fill="#006C35"/>
<path d="M18.7341 15.354C18.8036 15.449 18.9041 15.4148 18.9891 15.4186C19.7969 15.4262 20.6047 15.4262 21.4124 15.43C21.5206 15.43 21.625 15.43 21.71 15.5288C21.4897 15.772 21.3699 16.0684 21.3197 16.3799C21.2926 16.5395 21.2192 16.5851 21.0878 16.6193C20.4694 16.7903 19.8394 16.8929 19.2017 16.9765C18.9582 17.0107 18.7031 16.9955 18.5099 17.1931C18.2973 17.4058 18.3012 17.611 18.537 17.7934C18.6993 17.9188 18.8848 18.0024 19.0703 18.086C19.252 18.1696 19.3177 18.3063 19.2558 18.4849C19.1979 18.6483 19.1206 18.7737 18.8809 18.7433C18.3051 18.6711 17.7524 18.5495 17.25 18.2607C16.8983 18.0594 16.6045 17.801 16.4036 17.4438C16.2992 17.2538 16.2142 17.2462 16.0673 17.4134C15.9359 17.5654 15.8122 17.725 15.6808 17.8808C15.2905 18.3291 14.8421 18.7053 14.2895 18.9561C13.644 19.2524 12.7435 18.8877 12.5928 18.2759C12.558 18.1354 12.4846 18.1544 12.3802 18.1962C11.7425 18.4621 11.1048 18.7243 10.4323 18.8991C10.3087 18.9295 10.1309 19.0017 10.0729 18.9029C10.0033 18.7775 10.1889 18.7053 10.2739 18.6255C10.5792 18.3443 10.9348 18.1316 11.2865 17.9188C11.5184 17.7782 11.7464 17.6338 11.986 17.5084C12.4112 17.288 12.7629 17.0297 12.8286 16.5053C12.8556 16.2963 12.9832 16.1064 13.1841 15.9468C13.215 16.1938 13.1068 16.4217 13.1687 16.6687C13.3658 16.5699 13.5165 16.4179 13.6788 16.2811C13.8798 16.114 14.0769 15.9392 14.2624 15.753C14.56 15.449 14.5909 15.1261 14.3822 14.7575C14.3049 14.6207 14.2083 14.4953 14.0885 14.3927C13.787 14.1496 13.7793 13.8228 13.8566 13.496C13.9378 13.1427 14.3204 13.0363 14.5987 13.2718C14.8344 13.4732 14.9658 13.7354 15.0663 14.0204C15.1204 14.1686 15.1011 14.2407 14.9194 14.1724C14.8769 14.1572 14.8344 14.1534 14.7455 14.1382C14.9542 14.4497 15.0277 14.7651 15.0779 15.0881C15.132 15.4338 15.0586 15.7492 14.9079 16.057C14.5909 16.7105 14.0692 17.1703 13.4624 17.5502C13.3696 17.6072 13.2189 17.6376 13.273 17.8086C13.3271 17.9758 13.416 18.105 13.6054 18.1278C13.8411 18.1582 14.0692 18.1354 14.2817 18.0062C14.7919 17.7022 15.1977 17.2918 15.5649 16.8321C15.9436 16.3609 15.905 15.8442 15.8161 15.3084C15.7156 14.7081 15.4219 14.1762 15.2325 13.6062C15.1282 13.2908 15.1939 13.0401 15.4257 12.8425C15.5069 12.7741 15.561 12.7665 15.6344 12.8387C15.7156 12.9147 15.789 12.9945 15.847 13.0971C16.2142 13.7734 16.419 14.4953 16.4693 15.2628C16.477 15.392 16.4809 15.5136 16.6393 15.5782C16.7437 15.2666 16.991 15.0843 17.2577 14.9247C17.7021 14.6587 18.1814 14.4877 18.6954 14.4269C18.8539 14.4079 18.9234 14.3433 18.9196 14.1838C18.9118 14.0432 18.9157 13.9026 18.9196 13.762C18.9389 13.2794 19.3408 12.8349 19.7621 12.8349C20.2646 12.8349 20.6858 13.2186 20.7283 13.7202C20.7747 14.2483 20.5506 14.6397 20.0984 14.9133C19.7505 15.1223 19.3563 15.1945 18.9621 15.2628C18.8925 15.2742 18.8075 15.259 18.7495 15.3464L18.7341 15.354ZM17.0219 16.0722C16.7669 16.0608 16.6432 16.2128 16.6934 16.4635C16.7823 16.9233 17.0799 17.2386 17.4664 17.478C17.5398 17.5236 17.6249 17.592 17.7137 17.5464C17.8104 17.4932 17.7717 17.3868 17.7679 17.3032C17.7447 16.8587 17.8142 16.7561 18.2432 16.5965C18.2857 16.5813 18.3283 16.5699 18.3669 16.5471C18.5215 16.4635 18.5292 16.3571 18.3824 16.2659C18.3205 16.2279 18.2432 16.209 18.1698 16.1976C17.7833 16.152 17.3891 16.1482 17.0219 16.0684V16.0722ZM19.7467 14.1306C19.8162 14.123 19.8935 14.1458 19.909 14.0508C19.9244 13.952 19.7505 13.7924 19.5998 13.7772C19.5186 13.7696 19.4297 13.7772 19.4452 13.8798C19.4723 14.0394 19.6075 14.0926 19.7428 14.1306H19.7467Z" fill="#FBFCFB"/>
<path d="M25.9729 26.9125C25.7255 26.5553 25.7564 26.2855 26.027 26.1564C26.1081 26.1184 26.1816 26.0918 26.2086 26.221C26.2163 26.2589 26.2473 26.3197 26.2782 26.3273C26.6144 26.3919 26.5101 26.6085 26.456 26.8099C26.4482 26.8365 26.4405 26.8631 26.4289 26.9087C27.2637 26.8859 28.0792 27.0797 28.9024 26.9315C29.1343 26.8897 29.3353 26.9961 29.4628 27.1937C29.7218 27.5888 29.7991 28.0182 29.6715 28.4703C29.5556 28.8769 29.0184 28.9947 28.7401 28.6869C28.6899 28.6337 28.6512 28.6033 28.5701 28.6109C27.9362 28.6603 27.3024 28.6375 26.6685 28.6109C26.5681 28.6071 26.4908 28.6185 26.4135 28.7059C26.2782 28.8617 26.1159 28.8313 26.0154 28.6489C25.8608 28.3791 25.826 28.0904 25.9304 27.7598C25.8337 27.7598 25.7487 27.7598 25.6637 27.7598C20.8249 27.7674 15.9861 27.7788 11.1511 27.7864C10.61 27.7864 10.0651 27.7636 9.54333 27.5888C9.07568 27.433 8.70079 27.1671 8.3916 26.7339C14.2585 26.8973 20.0983 26.8555 25.9729 26.9163V26.9125ZM27.5111 27.8624V27.8358C27.2096 27.8358 26.9082 27.8434 26.6067 27.8358C26.4792 27.8358 26.398 27.8662 26.3941 27.9992C26.3941 28.1246 26.4328 28.212 26.5912 28.2044C26.6956 28.1968 26.7999 28.2158 26.9082 28.2196C27.0975 28.2271 27.2869 28.2651 27.4531 28.1056C27.5381 28.022 27.7121 28.0182 27.7932 28.0904C27.9749 28.2499 28.1836 28.1968 28.3845 28.2196C28.5198 28.2347 28.6048 28.2006 28.6164 28.0562C28.628 27.9042 28.543 27.8662 28.4116 27.87C28.1101 27.87 27.8087 27.87 27.5072 27.87L27.5111 27.8624Z" fill="#FBFCFB"/>
<path d="M28.7207 10.1599C28.7091 10.0117 28.6937 9.86355 28.6859 9.71536C28.6859 9.65077 28.6859 9.57858 28.7091 9.51778C28.7632 9.3886 28.8328 9.23661 28.9797 9.21761C29.1227 9.19862 29.1497 9.3658 29.2038 9.46459C29.4009 9.81415 29.5903 10.1675 29.7874 10.5171C29.8454 10.6235 29.9227 10.7299 29.8338 10.8439C29.7449 10.9578 29.6638 10.7831 29.571 10.8211C29.5439 11.752 29.8106 12.4397 30.4754 13.1008C30.3672 12.4397 30.2628 11.8128 30.1623 11.1858C30.0928 10.7527 29.9845 10.3309 29.942 9.89395C29.915 9.63177 30.0155 9.43039 30.2164 9.27461C30.3285 9.18722 30.4329 9.18342 30.514 9.324C30.7884 9.79516 30.9894 10.2967 31.1208 10.8249C31.1479 10.9312 31.1247 11.0338 30.9971 11.0414C30.8232 11.0528 30.8503 11.163 30.8657 11.2618C30.9585 11.8318 31.0628 12.4017 31.1517 12.9716C31.2136 13.3668 31.2715 13.7658 31.3141 14.1609C31.3334 14.3433 31.3914 14.4991 31.4996 14.6511C31.8049 15.0842 32.1218 15.5098 32.3846 15.9657C32.6358 16.3989 32.574 16.87 32.4233 17.345C32.1141 16.8321 31.801 16.3229 31.4918 15.81C31.4687 15.8062 31.4493 15.7986 31.4261 15.7948C31.4957 16.4939 31.4107 17.1284 30.7807 17.5578C30.7227 17.4932 30.7498 17.4324 30.7498 17.3792C30.7691 16.4597 30.7266 15.5402 30.6416 14.6245C30.6338 14.5561 30.6184 14.4953 30.5797 14.4383C30.3865 14.1647 30.1932 13.8911 29.9923 13.6062C29.9304 13.6784 29.9614 13.7506 29.9614 13.819C29.9884 14.7005 30.0232 15.5858 29.9923 16.4673C29.9807 16.7979 29.9923 17.136 29.8184 17.4438C29.6638 17.7174 29.4357 17.8959 29.1459 18.0099C28.9294 18.0935 28.7091 18.0745 28.5159 17.9529C28.2956 17.8124 28.0714 17.6794 27.8975 17.4742C27.7081 17.25 27.5072 17.288 27.368 17.5502C27.2366 17.7972 27.225 18.0783 27.1477 18.3405C27.082 18.5609 27.0163 18.7813 26.8424 18.9484C26.6955 19.089 26.5255 19.1422 26.3245 19.0662C25.3854 18.7129 24.9795 17.2006 25.6443 16.4141C25.6366 16.7599 25.6134 17.0828 25.6907 17.3982C25.7487 17.6224 25.826 17.839 25.9651 18.0289C26.1699 18.3101 26.4482 18.2911 26.5951 17.9871C26.7844 17.592 26.9622 17.193 27.1516 16.7979C27.2366 16.6231 27.3526 16.4673 27.4956 16.3343C27.7004 16.1443 27.9014 16.1633 28.0714 16.3875C28.199 16.5623 28.3188 16.7409 28.4502 16.9156C28.5468 17.0448 28.655 17.1512 28.8444 17.1208C29.0415 17.0904 29.084 16.9384 29.1343 16.7903C29.2966 16.3077 29.2966 15.8138 29.2618 15.316C29.2 14.4041 29.1459 13.496 29.0956 12.5841C29.0879 12.4587 29.057 12.3599 28.9758 12.2611C28.6009 11.7976 28.2531 11.3074 27.8511 10.8666C27.426 10.3993 27.484 9.87495 27.5497 9.3354C27.569 9.17962 27.6579 9.23661 27.7391 9.29741C28.0869 9.54818 28.3768 9.86355 28.6589 10.1827C28.6705 10.2473 28.7439 10.3347 28.6164 10.3499C28.4115 10.3765 28.5004 10.4715 28.5623 10.5551C28.6164 10.6273 28.6821 10.6881 28.7826 10.7983C28.771 10.6425 28.7632 10.5513 28.7555 10.4563C28.7439 10.3613 28.7285 10.2701 28.7169 10.1751L28.7207 10.1599Z" fill="#FAFCFB"/>
<path d="M9.87218 10.8553C9.82966 10.5475 9.77942 10.2397 9.74077 9.93194C9.71758 9.74956 9.77556 9.59378 9.94174 9.49119C10.2007 9.32781 10.3476 9.3582 10.4944 9.62418C10.7147 10.0231 10.85 10.4563 10.993 10.8856C11.0587 11.0832 10.8925 11.0908 10.7881 11.068C10.5872 11.0224 10.5872 11.0946 10.6104 11.258C10.7263 12.0711 10.8307 12.888 10.9427 13.7164C11.0084 13.6898 11.0587 13.667 11.1167 13.648C11.3524 13.5682 11.4568 13.6366 11.4761 13.8835C11.4838 14.0051 11.4452 14.1533 11.6384 14.1685C11.8046 14.1799 11.9553 14.1457 12.021 13.9633C12.0365 13.9139 12.0636 13.8684 12.0906 13.8228C12.1756 13.6898 12.2684 13.5454 12.4539 13.5644C12.6201 13.5796 12.6781 13.7202 12.7167 13.8646C12.736 13.9443 12.7786 13.9975 12.8752 13.9899C12.9795 13.9785 12.9911 13.9025 12.9911 13.8266C12.9911 13.5644 13.1264 13.42 13.3853 13.3706C13.4704 13.3554 13.5129 13.3592 13.5051 13.4618C13.482 13.819 13.451 14.1723 13.3737 14.5219C13.2926 14.8791 12.8095 15.05 12.4462 14.8449C12.2761 14.7499 12.1756 14.7689 12.0326 14.8904C11.7041 15.1716 11.3447 15.2438 10.9582 14.9322C10.9311 15.088 10.9543 15.2096 10.9659 15.335C11.051 16.1481 11.0394 16.9574 10.4867 17.6262C9.64415 18.6483 8.55426 19.1726 7.19383 19.0206C6.43631 18.937 5.95321 18.3823 5.91069 17.6338C5.89137 17.307 5.91069 16.9802 5.96094 16.6573C5.97253 16.5927 5.98412 16.5243 6.01118 16.4635C6.05756 16.3609 6.08461 16.2013 6.23148 16.2203C6.37448 16.2355 6.38221 16.3951 6.39766 16.5053C6.42858 16.6877 6.43631 16.8739 6.45177 17.06C6.51361 17.782 6.88077 18.1429 7.62669 18.1771C8.65474 18.2265 9.43545 17.7972 9.97266 16.946C10.2857 16.4483 10.3978 15.8897 10.4326 15.3122C10.4364 15.2362 10.4442 15.1412 10.3591 15.1222C10.2625 15.0994 10.2123 15.1906 10.1891 15.2704C10.1427 15.449 10.1195 15.6352 10.0693 15.8138C9.88377 16.4749 9.55912 17.0486 8.96393 17.44C8.58131 17.687 8.16391 17.82 7.70012 17.7478C6.98126 17.6338 6.52521 17.1246 6.49042 16.4065C6.4711 16.0227 6.54067 15.6542 6.67207 15.2932C6.70299 15.2058 6.72618 15.107 6.83826 15.1184C6.94648 15.1298 6.97353 15.2362 6.98512 15.3198C7.02377 15.6048 7.03923 15.8935 7.07788 16.1823C7.13972 16.6649 7.44891 16.9118 7.93975 16.8283C8.59677 16.7143 9.13399 16.3913 9.51274 15.8366C9.60164 15.7074 9.66734 15.563 9.67893 15.4034C9.6828 15.354 9.70985 15.2932 9.65188 15.2628C9.59777 15.2324 9.55139 15.278 9.51274 15.3084C9.32337 15.4452 9.12626 15.5592 8.87504 15.5554C8.48855 15.5478 8.27599 15.3692 8.26826 14.993C8.26439 14.5979 8.27985 14.2027 8.58518 13.8911C8.98712 13.4846 9.42772 13.4884 9.80647 13.9177C9.84126 13.9557 9.87218 14.0013 9.91082 14.0355C9.99199 14.1039 10.0461 14.2331 10.1891 14.1647C10.3321 14.1001 10.3746 13.9747 10.3553 13.8304C10.3244 13.6024 10.2896 13.3744 10.2509 13.1502C10.1234 12.3827 9.99585 11.6152 9.86831 10.8477L9.87218 10.8553ZM9.06828 14.7879C9.22288 14.8145 9.30404 14.7499 9.30791 14.6017C9.30791 14.4725 9.24607 14.3851 9.1108 14.3813C8.94847 14.3775 8.85572 14.4877 8.84026 14.6245C8.82093 14.7841 8.9678 14.7727 9.07215 14.7879H9.06828Z" fill="#FAFCFB"/>
<path d="M9.86764 10.8515C9.79035 10.9503 9.70919 11.0225 9.543 10.9237C9.686 11.391 9.82127 11.8166 9.87151 12.2687C9.91402 12.6487 9.77489 12.9147 9.4541 13.1085C9.3111 13.192 9.15651 13.2528 8.99805 13.2984C8.79708 13.3554 8.61156 13.3326 8.44924 13.1958C8.399 13.154 8.34489 13.1123 8.29078 13.0705C8.19029 12.9945 8.08208 12.9375 7.9584 12.9907C7.827 13.0477 7.8154 13.1806 7.81927 13.2946C7.827 13.5454 7.85792 13.7962 7.87724 14.047C7.91975 14.6169 7.95454 15.1868 7.81154 15.7492C7.76516 15.924 7.69946 16.0874 7.54486 16.2013C7.49075 16.2393 7.42505 16.2811 7.35548 16.2507C7.28205 16.2203 7.31684 16.1481 7.31297 16.0912C7.27819 15.3958 7.24727 14.6967 7.21635 14.0014C7.20476 13.743 7.1004 13.6404 6.83759 13.6328C6.45111 13.6214 6.18443 13.3668 6.18057 12.9907C6.17284 12.5461 6.18057 12.1016 6.18057 11.6532C6.18057 11.581 6.20376 11.4822 6.11873 11.4556C6.01438 11.4252 5.98732 11.5392 5.95254 11.6038C5.87524 11.7368 5.86751 11.885 5.86365 12.0332C5.85205 12.3447 5.86365 12.6563 5.78248 12.9603C5.72838 13.1654 5.63562 13.3326 5.396 13.3668C5.15638 13.401 4.99019 13.287 4.86651 13.1009C4.68873 12.8387 4.63849 12.5385 4.61143 12.2345C4.57278 11.79 4.58824 11.3454 4.61143 10.9009C4.61143 10.8401 4.59597 10.7489 4.68486 10.7375C4.76989 10.7299 4.79308 10.8173 4.80854 10.8781C4.89357 11.2314 4.967 11.5886 5.04816 11.942C5.07522 12.0636 5.11 12.1851 5.15251 12.3029C5.18343 12.3827 5.21435 12.4853 5.3303 12.4777C5.43851 12.4701 5.4733 12.3637 5.49262 12.2839C5.55832 12.0104 5.6047 11.733 5.66267 11.4556C5.72451 11.1554 5.825 10.8705 6.02211 10.6273C6.11873 10.5057 6.23467 10.4069 6.40473 10.4335C6.58638 10.4639 6.63275 10.6197 6.65981 10.7641C6.74097 11.1668 6.72938 11.5772 6.65981 11.98C6.62889 12.1623 6.65981 12.3181 6.77575 12.4587C6.8144 12.5043 6.86078 12.5537 6.92648 12.5423C6.99992 12.5271 7.03084 12.4625 7.04243 12.3941C7.07335 12.2155 7.0463 12.0408 7.03084 11.8622C6.98059 11.3074 6.79508 10.7755 6.7603 10.2207C6.7487 10.027 6.7603 9.83698 6.7603 9.6432C6.7603 9.51781 6.8144 9.43042 6.94194 9.39242C7.06562 9.35443 7.14292 9.42662 7.20862 9.51021C7.34003 9.67359 7.37094 9.87497 7.40959 10.0688C7.50621 10.5437 7.48302 11.0301 7.54486 11.5088C7.56805 11.6912 7.59511 11.8774 7.66854 12.0484C7.70332 12.1281 7.75356 12.2345 7.86178 12.1851C7.97773 12.1357 7.95067 12.037 7.90043 11.9382C7.65308 11.467 7.5294 10.9693 7.62602 10.4373C7.63375 10.3879 7.64921 10.3347 7.66854 10.2891C7.69946 10.2017 7.73811 10.1181 7.84246 10.1068C7.95454 10.0954 8.02411 10.1561 8.08594 10.2397C8.3874 10.6425 8.51494 11.0909 8.42605 11.581C8.38354 11.809 8.44538 11.9496 8.62316 12.0712C8.74684 12.1547 8.85892 12.2573 8.98259 12.3409C9.06762 12.4017 9.17197 12.4055 9.26473 12.3599C9.36908 12.3105 9.33429 12.2079 9.32656 12.1205C9.30724 11.9116 9.2454 11.7178 9.11786 11.543C8.92075 11.2656 8.78935 10.9617 8.7391 10.6235C8.71978 10.4981 8.71978 10.3727 8.77002 10.2511C8.87438 10.0156 9.07921 9.95097 9.30337 10.0802C9.55073 10.2245 9.68986 10.4487 9.78262 10.7033C9.80194 10.7565 9.79808 10.8249 9.87924 10.8439L9.86764 10.8515Z" fill="#FAFCFB"/>
<path d="M19.7048 9.96995C19.7126 10.1561 19.7048 10.3233 19.4343 10.2815C19.3029 10.2587 19.2913 10.3499 19.3145 10.4335C19.4111 10.7983 19.5039 11.163 19.6314 11.5202C19.7087 11.7406 20.0179 11.7748 20.2768 11.6342C20.3851 11.5734 20.4894 11.4024 20.6247 11.5316C20.7484 11.6532 20.617 11.7976 20.5628 11.9192C20.4817 12.1015 20.3812 12.2801 20.2189 12.4093C20.1377 12.4739 20.0411 12.5385 19.929 12.4739C19.8053 12.4017 19.8517 12.2991 19.8942 12.2003C19.9097 12.1661 19.9483 12.1167 19.8942 12.0863C19.8131 12.0445 19.7319 12.0559 19.6623 12.1129C19.5503 12.2079 19.4884 12.3371 19.4304 12.4663C19.299 12.7741 19.0401 12.8577 18.7386 12.8805C18.4565 12.8995 18.2478 12.7931 18.1048 12.5423C17.9231 12.2155 17.7686 12.1965 17.498 12.4625C17.4053 12.5499 17.3164 12.6411 17.2275 12.7323C16.7212 13.2224 15.9868 13.0476 15.7781 12.3789C15.6777 12.0635 15.6854 11.733 15.6815 11.4062C15.6815 11.334 15.7318 11.2162 15.6081 11.2048C15.5153 11.1972 15.4805 11.3036 15.4574 11.3758C15.3685 11.676 15.3221 11.9837 15.1907 12.2687C15.1095 12.4511 15.04 12.6601 14.8042 12.6943C14.5182 12.7399 14.3095 12.5993 14.1626 12.3675C13.7259 11.6798 13.6563 10.9389 13.865 10.1675C13.8805 10.1105 13.8805 10.0345 13.9539 10.0307C14.0428 10.0231 14.0621 10.1067 14.0776 10.1675C14.182 10.4943 14.209 10.8363 14.2747 11.1706C14.3134 11.3606 14.3288 11.5544 14.4409 11.7216C14.4873 11.7938 14.5298 11.8964 14.6341 11.8888C14.7385 11.8812 14.7694 11.7786 14.7965 11.695C14.839 11.5772 14.8699 11.4556 14.9047 11.334C15.0284 10.9123 15.1791 10.5019 15.4458 10.1447C15.5115 10.0535 15.5888 9.96995 15.6661 9.89396C15.755 9.80657 15.8593 9.74197 15.9907 9.78757C16.126 9.83316 16.1956 9.94715 16.2071 10.0763C16.2303 10.2815 16.2381 10.4905 16.2381 10.6995C16.2381 10.9351 16.2265 11.1744 16.2265 11.41C16.2265 11.6798 16.3463 11.8774 16.5936 11.9989C16.8101 12.1053 17.0033 12.0711 17.1656 11.8964C17.3434 11.7064 17.4594 11.5012 17.4555 11.2238C17.4478 10.8439 17.4323 10.4715 17.2777 10.1143C17.1038 9.70778 17.297 9.37721 17.5289 9.06564C17.6255 8.93645 17.6951 9.03524 17.7415 9.12643C17.8806 9.40001 17.9695 9.68878 17.985 9.99655C18.012 10.4905 17.9888 10.992 18.1164 11.4784C18.1396 11.5696 18.1705 11.6646 18.2091 11.752C18.2903 11.9344 18.4294 12.0331 18.642 11.9875C18.8468 11.942 18.9705 11.79 18.9783 11.5772C18.9937 11.1478 18.8005 10.7831 18.5763 10.4411C18.3715 10.1295 18.4063 9.81416 18.5183 9.5026C18.6304 9.19103 19.0208 9.13023 19.2604 9.36581C19.442 9.54439 19.5541 9.76857 19.6894 9.98135L19.6817 9.97755L19.7048 9.96995Z" fill="#FAFCFB"/>
<path d="M22.5372 14.0128C22.4483 14.0773 22.5024 14.1647 22.5063 14.2369C22.5411 15.1564 22.6068 16.0721 22.5681 16.9955C22.5527 17.3678 22.4019 17.6832 22.1275 17.9416C22.058 18.0062 21.9691 18.0973 21.8763 18.0479C21.8106 18.0137 21.8609 17.896 21.8609 17.82C21.9343 16.1215 21.8841 14.4269 21.6638 12.7361C21.6522 12.6411 21.6019 12.5727 21.5517 12.5005C21.0415 11.7558 20.5159 11.0262 19.9593 10.3119C19.8705 10.1979 19.8241 10.0573 19.6965 9.96995C19.6965 9.96995 19.7043 9.97375 19.7004 9.97375C19.7429 9.76857 19.6463 9.56719 19.6888 9.36201C19.7352 9.12264 19.8318 9.06184 20.0637 9.14924C20.2376 9.21383 20.369 9.33922 20.5043 9.45701C20.7053 9.63179 20.9333 9.77617 21.1149 10.0459C21.1459 9.79137 21.1381 9.58239 21.2386 9.40001C21.37 9.16443 21.4396 9.16063 21.5942 9.37341C21.9111 9.81417 22.2628 10.2359 22.3981 10.7793C22.4135 10.8439 22.429 10.9085 22.4367 10.9769C22.4406 11.0148 22.429 11.0604 22.3749 11.03C22.1469 10.9123 22.2164 11.087 22.2242 11.182C22.2589 11.5278 22.3053 11.8736 22.344 12.2193C22.3633 12.3827 22.4135 12.5271 22.5063 12.6715C23.1169 13.5796 23.6812 14.5181 24.1682 15.4984C24.3344 15.8328 24.3382 16.5889 24.1682 16.9119C23.6387 15.924 23.1247 14.9475 22.5218 14.0241C22.5102 14.0241 22.4986 14.0165 22.487 14.0128C22.4908 14.0203 22.4986 14.0317 22.5024 14.0393C22.5102 14.0317 22.5179 14.0241 22.5256 14.0165L22.5372 14.0128ZM21.3507 10.9959C21.312 10.8097 21.2811 10.6767 21.2579 10.5399C21.2463 10.4715 21.2077 10.4563 21.1497 10.4601C21.0995 10.4639 21.0376 10.4411 21.0067 10.4905C20.9797 10.5323 21.0222 10.5741 21.0454 10.6083C21.1343 10.7261 21.227 10.8363 21.3507 10.9921V10.9959Z" fill="#FBFCFB"/>
<path d="M30.9588 18.7091C31.4961 18.4507 32.0487 18.2265 32.4004 17.6908C32.5782 17.421 32.671 17.1436 32.6594 16.8397C32.5898 14.7043 32.3347 12.5841 32.0178 10.4677C31.9598 10.0877 31.9637 9.71539 32.1647 9.36582C32.2342 9.24423 32.2729 9.17964 32.3772 9.35062C32.6014 9.71159 32.8565 10.0536 33.0845 10.4107C33.2391 10.6539 33.2237 10.6767 32.9454 10.7489C32.8294 10.7793 32.8333 10.8553 32.8488 10.9351C32.9106 11.3378 32.9802 11.7406 33.042 12.1433C33.2584 13.6176 33.2816 15.0994 33.27 16.5851C33.27 17.0069 33.2546 17.4248 33.1386 17.8428C32.9454 18.5343 32.4816 18.9371 31.7937 19.1118C31.5618 19.1688 31.3183 19.1954 31.0825 19.2334C30.9511 19.2524 30.812 19.2562 30.7424 19.127C30.6806 19.0093 30.7695 18.9181 30.8468 18.8345C30.8661 18.8155 30.9202 18.7927 30.8661 18.7547V18.7623C30.9241 18.8041 30.9395 18.7623 30.9588 18.7167V18.7091Z" fill="#FAFCFB"/>
<path d="M22.9392 19.1613C22.7382 19.1689 22.6145 19.1157 22.5024 19.0359C22.2126 18.8269 22.2242 18.7167 22.5334 18.5647C23.2252 18.2304 23.801 17.744 24.3305 17.2007C24.4658 17.0601 24.489 16.8815 24.4774 16.7029C24.4465 16.2204 24.4117 15.7416 24.3653 15.2629C24.2687 14.1762 24.1682 13.0933 24.06 12.0066C24.0175 11.5734 23.9556 11.1403 23.8977 10.7033C23.8358 10.2626 23.9054 9.84839 24.1218 9.45703C24.1914 9.33165 24.2416 9.27465 24.3382 9.44564C24.5469 9.8142 24.7363 10.1904 24.86 10.5969C24.9064 10.7565 24.9489 10.9275 24.6938 10.9655C24.5663 10.9845 24.5972 11.1023 24.5972 11.1859C24.5972 11.543 24.7054 11.8888 24.7634 12.2384C25.003 13.7164 25.0842 15.2021 25.0339 16.6953C25.003 17.668 24.002 18.9143 23.1208 19.1271C23.0397 19.1461 22.9585 19.1575 22.9353 19.1613H22.9392Z" fill="#FAFCFB"/>
<path d="M26.0042 17.6832C26.0661 15.4262 25.61 13.2566 25.1733 11.0833C25.0612 10.5323 25.1231 10.008 25.2815 9.48362C25.3086 9.39242 25.3511 9.28984 25.4361 9.28604C25.525 9.27844 25.525 9.40382 25.5598 9.47222C25.7105 9.78759 25.9115 10.0764 26.0893 10.3765C26.1704 10.5095 26.2477 10.6463 26.3173 10.7869C26.3675 10.8895 26.3637 10.9883 26.2052 10.9617C25.9579 10.9237 25.9385 11.0681 25.9733 11.2428C26.1936 12.4321 26.3444 13.629 26.4835 14.8297C26.5492 15.373 26.6149 15.9202 26.5994 16.4711C26.5878 16.8359 26.4603 17.1664 26.2709 17.4742C26.2129 17.5654 26.1511 17.6604 25.9965 17.687L26.0042 17.6832Z" fill="#FAFCFB"/>
<path d="M11.1934 11.904C11.3016 11.7292 11.4253 11.6532 11.5335 11.5658C11.9663 11.2201 12.4185 10.9009 12.8205 10.5171C12.9905 10.3537 12.9867 10.3006 12.7934 10.1562C12.5693 9.98518 12.5461 9.68501 12.7393 9.45704C12.8862 9.28605 13.3036 9.25566 13.4659 9.40764C13.6437 9.57482 13.6475 9.88639 13.4543 10.065C13.3384 10.1714 13.3461 10.2474 13.4659 10.3271C13.5625 10.3879 13.578 10.4411 13.4891 10.5323C13.1374 10.9085 12.7895 11.2885 12.4185 11.6456C12.2291 11.828 12.0282 11.9306 11.7576 11.9078C11.5876 11.8926 11.4137 11.9078 11.1934 11.9078V11.904ZM13.0524 9.74201C12.9596 9.74961 12.9287 9.8066 12.9441 9.88259C12.9673 10.0004 13.0292 10.0954 13.1606 10.103C13.2379 10.1068 13.2533 10.0384 13.2495 9.97378C13.2379 9.8522 13.176 9.7686 13.0524 9.74201Z" fill="#F5F9F7"/>
<path d="M28.3884 12.3713C28.3962 12.4663 28.4 12.5461 28.2609 12.4967C28.1063 12.4435 28.0522 12.5385 28.0406 12.6639C28.0174 12.9223 27.9981 13.1806 27.9942 13.439C27.9942 13.6404 27.9092 13.6404 27.7662 13.5568C27.4261 13.363 27.144 13.1123 26.9275 12.7931C26.7845 12.5841 26.858 12.2839 27.0473 12.1965C27.1981 12.1282 27.3295 12.132 27.4029 12.3029C27.4454 12.3979 27.515 12.4511 27.6155 12.4131C27.7044 12.3751 27.6696 12.2915 27.658 12.2193C27.6193 11.9686 27.7044 11.809 27.8976 11.7634C28.0947 11.7178 28.2493 11.828 28.3227 12.0674C28.3537 12.1661 28.3691 12.2687 28.3884 12.3713Z" fill="#FAFCFB"/>
<path d="M4.73956 15.544C4.7241 15.4262 4.76662 15.3464 4.81299 15.2742C5.19948 14.6549 5.74443 14.2331 6.46329 14.0507C6.77634 13.9709 6.98891 14.0659 7.0778 14.2711C7.12418 14.3775 7.11645 14.4307 6.99664 14.4839C6.24686 14.8296 5.5048 15.183 4.74343 15.544H4.73956Z" fill="#FAFCFB"/>
<path d="M4.91756 16.5509C4.89051 16.9081 4.85959 17.2006 4.848 17.4932C4.84027 17.6756 4.85573 17.8618 4.87119 18.048C4.87505 18.1087 4.89437 18.1923 4.97167 18.2037C5.03737 18.2113 5.06829 18.1429 5.09921 18.0973C5.14946 18.029 5.17651 17.915 5.29246 17.953C5.41227 17.991 5.43545 18.1011 5.43159 18.2075C5.42772 18.3785 5.38908 18.5457 5.30791 18.6977C5.23062 18.8459 5.134 18.9903 4.93689 18.9713C4.72045 18.9523 4.54654 18.8535 4.47697 18.6369C4.34556 18.2341 4.39581 17.8314 4.49243 17.4324C4.56586 17.136 4.67408 16.8549 4.9137 16.5547L4.91756 16.5509Z" fill="#F5F9F7"/>
<path d="M28.8838 13.8494C28.9031 14.0545 28.8374 14.1913 28.6944 14.3053C28.3002 14.6169 27.8867 14.898 27.4422 15.145C27.249 15.2514 27.2065 15.2248 27.191 15.0158C27.1755 14.8411 27.2297 14.7081 27.3881 14.6017C27.7978 14.3243 28.1959 14.0317 28.6017 13.7506C28.6674 13.705 28.7254 13.61 28.8104 13.6442C28.9109 13.686 28.8645 13.8 28.88 13.8532L28.8838 13.8494Z" fill="#FAFCFB"/>
<path d="M20.214 18.4051C20.2295 18.1581 20.2024 18.0213 19.9589 18.1201C19.9164 18.1391 19.8701 18.1277 19.8391 18.0859C19.8005 18.0327 19.7889 17.9682 19.8275 17.9188C19.9628 17.7516 20.1213 17.5958 20.33 17.516C20.4691 17.4628 20.5735 17.5654 20.5464 17.7136C20.5348 17.7782 20.5155 17.8428 20.5 17.9074C20.4846 17.9986 20.5 18.0897 20.5735 18.1505C20.6546 18.2151 20.7281 18.1543 20.7976 18.1125C20.9638 18.0061 21.1493 17.9872 21.3387 17.9758C21.4469 17.9682 21.5126 18.0175 21.5281 18.1201C21.5474 18.2303 21.4894 18.2835 21.3851 18.3025C21.1029 18.3595 20.844 18.4773 20.5773 18.5799C20.3106 18.6825 20.2063 18.6103 20.214 18.4013V18.4051Z" fill="#F5F9F7"/>
<path d="M30.8663 18.7471C30.6692 18.8383 30.4759 18.9295 30.2788 19.0131C30.1977 19.0473 30.1088 19.0701 30.016 19.0625C29.9542 19.0587 29.8962 19.0435 29.8653 18.9827C29.8305 18.9143 29.8498 18.8459 29.9001 18.8003C29.9735 18.7243 30.0585 18.6673 30.1358 18.5951C30.275 18.4583 30.2711 18.3595 30.1049 18.2608C30.0044 18.2 29.9387 18.1392 29.9658 18.0176C29.9928 17.8922 30.0972 17.8884 30.1938 17.8808C30.2672 17.8732 30.3445 17.8694 30.418 17.8808C30.6576 17.915 30.7001 17.9986 30.5957 18.2114C30.4798 18.4431 30.4837 18.4735 30.7387 18.4507C30.9861 18.4317 30.9011 18.6217 30.9629 18.7129C30.8895 18.6445 30.8856 18.7129 30.8663 18.7585V18.7509V18.7471Z" fill="#F5F9F7"/>
<path d="M28.5552 16.0493C28.6054 15.8251 28.5243 15.639 28.447 15.4528C28.3735 15.2818 28.3078 15.107 28.3117 14.9208C28.3117 14.8068 28.3658 14.7233 28.4779 14.6815C28.59 14.6359 28.6788 14.6815 28.7291 14.7727C28.9687 15.2324 29.0615 15.7036 28.8489 16.2013C28.8296 16.2469 28.7948 16.2925 28.76 16.3305C28.7214 16.3761 28.675 16.4255 28.6093 16.3951C28.5513 16.3685 28.5629 16.3077 28.5629 16.2583C28.5629 16.1861 28.5629 16.1101 28.5629 16.0531L28.5552 16.0493Z" fill="#F5F9F7"/>
<path d="M17.7717 13.9975C17.3427 13.9975 17.134 13.781 17.2036 13.3972C17.219 13.3136 17.2422 13.2338 17.3427 13.2186C17.4509 13.1996 17.4625 13.2794 17.478 13.3516C17.4896 13.4048 17.5166 13.4542 17.5823 13.4466C17.6403 13.439 17.6365 13.3858 17.648 13.344C17.6674 13.2908 17.6712 13.2186 17.7524 13.2224C17.8258 13.2262 17.849 13.287 17.8567 13.3478C17.8645 13.4086 17.8722 13.477 17.9495 13.477C18.0229 13.477 17.992 13.3972 18.0036 13.3516C18.0229 13.2642 18.0616 13.192 18.1621 13.192C18.2664 13.192 18.2857 13.2794 18.3012 13.363C18.3785 13.8304 18.2394 13.9975 17.7679 14.0013L17.7717 13.9975Z" fill="#F5F9F7"/>
<path d="M23.1592 12.3941C22.7689 12.3827 22.5718 12.1509 22.6375 11.79C22.6529 11.7064 22.6761 11.6266 22.7766 11.6114C22.8848 11.5924 22.8925 11.6722 22.9119 11.7444C22.9235 11.7938 22.9466 11.847 23.0162 11.8394C23.0742 11.8318 23.0703 11.7786 23.0858 11.7406C23.1051 11.6874 23.109 11.6114 23.1901 11.6152C23.2752 11.619 23.2945 11.6874 23.3022 11.7558C23.3061 11.8128 23.3254 11.866 23.3872 11.866C23.4684 11.866 23.4336 11.79 23.4452 11.7444C23.4645 11.657 23.5032 11.581 23.5998 11.581C23.7196 11.581 23.7312 11.6798 23.7428 11.771C23.7969 12.1775 23.5844 12.4017 23.1631 12.3903L23.1592 12.3941Z" fill="#F5F9F7"/>
<path d="M8.44226 10.1182C8.02485 10.1182 7.83547 9.91679 7.88185 9.52543C7.89344 9.43044 7.9205 9.34305 8.02872 9.33165C8.1292 9.32025 8.14466 9.40384 8.16012 9.47984C8.17172 9.52543 8.1949 9.56723 8.24515 9.56723C8.30312 9.57103 8.31085 9.51783 8.32631 9.47984C8.3495 9.42284 8.3379 9.33165 8.43839 9.34685C8.51182 9.35445 8.52728 9.41524 8.53888 9.47604C8.54661 9.52923 8.5582 9.59002 8.6239 9.59002C8.70507 9.59002 8.67801 9.51783 8.68961 9.47224C8.7128 9.37725 8.75145 9.29365 8.86739 9.31265C8.96788 9.32785 8.97947 9.41524 8.9872 9.50263C9.02585 9.91299 8.84807 10.1144 8.44612 10.1182H8.44226Z" fill="#F5F9F7"/>
<path d="M23.434 10.2283C23.4069 10.4677 23.3528 10.7071 23.233 10.9237C23.2098 10.9693 23.1789 11.0263 23.1171 11.0149C23.0436 11.0035 23.0552 10.9313 23.0707 10.8895C23.1866 10.4981 23.0088 10.2017 22.7654 9.92057C22.7383 9.88637 22.7074 9.84838 22.6919 9.81038C22.6417 9.68499 22.5876 9.54821 22.7306 9.45322C22.8736 9.35443 23.0166 9.37343 23.1364 9.50261C23.3258 9.70779 23.4031 9.95857 23.434 10.2321V10.2283Z" fill="#F5F9F7"/>
<path d="M31.5033 11.6912C31.6192 11.3796 31.4685 11.0946 31.2714 10.8211C31.2134 10.7375 31.1554 10.6463 31.14 10.5437C31.1206 10.4107 31.1322 10.2891 31.2791 10.2283C31.4298 10.1675 31.5265 10.2397 31.596 10.3613C31.7893 10.7071 31.8936 11.0718 31.8009 11.467C31.7699 11.5962 31.7236 11.7216 31.6772 11.847C31.6579 11.9002 31.6308 11.98 31.5651 11.9686C31.4839 11.9534 31.5071 11.866 31.4994 11.8014C31.4994 11.7786 31.4994 11.7558 31.4994 11.695L31.5033 11.6912Z" fill="#F5F9F7"/>
<path d="M13.4358 12.2003C13.3585 12.4169 13.2928 12.6335 13.0609 12.7171C12.7904 12.8197 12.5315 12.6867 12.4696 12.4359C12.3923 12.1205 12.5817 11.7368 12.8368 11.6912C12.9643 11.6684 12.9875 11.7444 12.9566 11.8317C12.9179 11.9457 12.8986 12.0597 12.9141 12.1775C12.9373 12.3523 13.0184 12.3903 13.1692 12.2953C13.2426 12.2497 13.2967 12.1737 13.432 12.1927L13.4358 12.2003Z" fill="#F5F9F7"/>
<path d="M5.55164 10.2587C5.58256 10.0954 5.52459 9.95098 5.41637 9.81799C5.37386 9.7686 5.33907 9.7078 5.30429 9.65461C5.21926 9.53302 5.1497 9.40383 5.2811 9.27845C5.38932 9.17206 5.58643 9.22145 5.71783 9.36584C5.93813 9.62041 5.9304 10.2701 5.70237 10.5133C5.67532 10.5437 5.6444 10.5741 5.60961 10.5551C5.58256 10.5399 5.56324 10.4981 5.55937 10.4639C5.55164 10.3993 5.55937 10.3309 5.55937 10.2549L5.55164 10.2587Z" fill="#F5F9F7"/>
<path d="M16.4467 10.0041C16.4815 9.74956 16.4815 9.48739 16.5974 9.24801C16.6438 9.15682 16.6979 9.03903 16.8216 9.06183C16.953 9.08843 16.9684 9.21381 16.9684 9.3316C16.9684 9.58618 16.9027 9.82935 16.8216 10.0687C16.7752 10.2017 16.7288 10.3727 16.5472 10.3309C16.3655 10.2891 16.466 10.1257 16.4505 10.0079L16.4467 10.0041Z" fill="#F5F9F7"/>
<path d="M12.5193 16.1178C12.5 16.2963 12.4497 16.4673 12.3531 16.6193C12.3299 16.6573 12.299 16.7029 12.2487 16.6915C12.1946 16.6801 12.1985 16.6269 12.1985 16.5813C12.1985 16.5357 12.1985 16.4901 12.2062 16.4483C12.2603 16.1824 12.1676 15.9696 11.9666 15.7948C11.8623 15.7036 11.7579 15.5744 11.9009 15.4566C12.0323 15.3464 12.183 15.3882 12.2951 15.525C12.4343 15.6998 12.5 15.9012 12.5232 16.1178H12.5193Z" fill="#F5F9F7"/>
<path d="M14.4168 9.81416C14.4323 9.48359 14.583 9.23662 14.8342 9.04664C14.8922 9.00484 14.9695 8.94025 15.0313 9.01244C15.0816 9.06944 15.0623 9.14923 15.0082 9.21382C14.9386 9.29361 14.8652 9.36961 14.811 9.457C14.7144 9.61658 14.7763 9.73817 14.954 9.74957C15.0198 9.75337 15.0507 9.76097 15.0352 9.83696C15.0082 9.98134 14.7956 10.1561 14.6526 10.1257C14.4864 10.0915 14.4014 9.97755 14.4168 9.81416Z" fill="#F5F9F7"/>
<path d="M28.7211 10.1599C28.7366 10.2549 28.752 10.3461 28.7598 10.4411C28.7714 10.5323 28.7752 10.6273 28.7868 10.783C28.6902 10.6767 28.6206 10.6121 28.5665 10.5399C28.5047 10.4563 28.4158 10.3613 28.6206 10.3347C28.752 10.3195 28.6786 10.2283 28.6631 10.1675C28.6825 10.1675 28.6979 10.1637 28.7173 10.1599H28.7211Z" fill="#056E38"/>
<path d="M17.0219 16.0684C17.393 16.1444 17.7833 16.152 18.1698 16.1975C18.2432 16.2051 18.3205 16.2279 18.3824 16.2659C18.5331 16.3533 18.5254 16.4635 18.3669 16.5471C18.3283 16.5661 18.2819 16.5813 18.2432 16.5965C17.8142 16.7561 17.7447 16.8587 17.7679 17.3032C17.7717 17.3868 17.8104 17.497 17.7137 17.5464C17.6249 17.5958 17.5398 17.5236 17.4664 17.478C17.076 17.2386 16.7823 16.9233 16.6934 16.4635C16.6432 16.2127 16.7707 16.0608 17.0219 16.0722V16.0684Z" fill="#056E38"/>
<path d="M19.7466 14.1268C19.6114 14.0888 19.4722 14.0356 19.449 13.876C19.4336 13.7734 19.5225 13.7658 19.6036 13.7734C19.7505 13.7886 19.9283 13.9482 19.9128 14.047C19.8974 14.142 19.8201 14.123 19.7505 14.1268H19.7466Z" fill="#056E38"/>
<path d="M27.5115 27.8624C27.813 27.8624 28.1144 27.8624 28.4159 27.8624C28.5512 27.8624 28.6362 27.9004 28.6207 28.0485C28.6091 28.1967 28.5202 28.2309 28.3888 28.2119C28.1879 28.1853 27.9792 28.2423 27.7975 28.0827C27.7164 28.0105 27.5424 28.0143 27.4574 28.0979C27.2912 28.2575 27.1018 28.2195 26.9125 28.2119C26.8081 28.2119 26.6999 28.1929 26.5955 28.1967C26.4371 28.2043 26.3984 28.1169 26.3984 27.9915C26.3984 27.8586 26.4796 27.8244 26.611 27.8282C26.9125 27.8358 27.2139 27.8282 27.5154 27.8282V27.8548L27.5115 27.8624Z" fill="#056E38"/>
<path d="M9.0676 14.7841C8.96325 14.7689 8.81639 14.7803 8.83571 14.6207C8.85504 14.4839 8.94393 14.3699 9.10625 14.3775C9.24152 14.3775 9.30723 14.4687 9.30336 14.5979C9.30336 14.7499 9.21833 14.8107 9.06374 14.7841H9.0676Z" fill="#056E38"/>
<path d="M21.3502 10.9997C21.2266 10.8439 21.1338 10.7299 21.0449 10.6159C21.0179 10.5817 20.9792 10.5399 21.0063 10.4981C21.0372 10.4487 21.099 10.4715 21.1493 10.4677C21.2072 10.4601 21.2459 10.4791 21.2575 10.5475C21.2807 10.6843 21.3116 10.8173 21.3502 11.0035V10.9997Z" fill="#056E38"/>
<path d="M22.5366 14.0129C22.5366 14.0129 22.5212 14.0284 22.5135 14.0361C22.5096 14.0284 22.5019 14.0167 22.498 14.009C22.5096 14.0128 22.5212 14.0167 22.5328 14.0206V14.0129H22.5366Z" fill="#006C35"/>
<path d="M30.8623 18.7547C30.8816 18.7091 30.8855 18.6407 30.9589 18.7091C30.9396 18.7547 30.9241 18.7965 30.8623 18.7547Z" fill="#006C35"/>
<path d="M13.0524 9.74579C13.1761 9.76859 13.238 9.85218 13.2495 9.97757C13.2573 10.0422 13.238 10.1106 13.1607 10.1068C13.0293 10.0992 12.9674 10.0042 12.9442 9.88637C12.9288 9.81038 12.9597 9.75719 13.0524 9.74579Z" fill="#056E38"/>
</g>
</svg>
