<svg width="36" height="36" viewBox="0 0 36 36" fill="none" xmlns="http://www.w3.org/2000/svg">
<path d="M18 36C8.05887 36 -4.3454e-07 27.9411 0 18C4.3454e-07 8.05887 8.05887 -4.3454e-07 18 0C27.9411 4.3454e-07 36 8.05887 36 18C36 27.9411 27.9411 36 18 36Z" fill="#D90026"/>
<path d="M34.8667 11.7C32.313 4.866 25.7247 3.3766e-07 18 0C10.2753 -3.37659e-07 3.68702 4.866 1.1333 11.7L34.8667 11.7Z" fill="black"/>
<path d="M1.1333 24.3C3.68702 31.134 10.2753 36 18 36C25.7247 36 32.313 31.134 34.8667 24.3L1.1333 24.3Z" fill="#FFDB44"/>
</svg>
