<svg width="37" height="37" viewBox="0 0 37 37" fill="none" xmlns="http://www.w3.org/2000/svg">
<g clip-path="url(#clip0_150_648)">
<rect x="0.500977" y="0.956299" width="36" height="36" rx="18" fill="white"/>
<path fill-rule="evenodd" clip-rule="evenodd" d="M0.500977 0.956299H22.101V17.7563H0.500977V0.956299Z" fill="#1A47B8"/>
<path fill-rule="evenodd" clip-rule="evenodd" d="M22.101 0.956299V3.3563H50.901V0.956299H22.101ZM22.101 5.7563V8.1563H50.901V5.7563H22.101ZM22.101 10.5563V12.9563H50.901V10.5563H22.101ZM22.101 15.3563V17.7563H50.901V15.3563H22.101ZM0.500977 20.1563V22.5563H50.901V20.1563H0.500977ZM0.500977 24.9563V27.3563H50.901V24.9563H0.500977ZM0.500977 29.7563V32.1563H50.901V29.7563H0.500977ZM0.500977 34.5563V36.9563H50.901V34.5563H0.500977Z" fill="#F93939"/>
<path fill-rule="evenodd" clip-rule="evenodd" d="M2.90137 3.3562V5.7562H5.30137V3.3562H2.90137ZM7.70137 3.3562V5.7562H10.1014V3.3562H7.70137ZM12.5014 3.3562V5.7562H14.9014V3.3562H12.5014ZM17.3014 3.3562V5.7562H19.7014V3.3562H17.3014ZM14.9014 5.7562V8.1562H17.3014V5.7562H14.9014ZM10.1014 5.7562V8.1562H12.5014V5.7562H10.1014ZM5.30137 5.7562V8.1562H7.70137V5.7562H5.30137ZM2.90137 8.1562V10.5562H5.30137V8.1562H2.90137ZM7.70137 8.1562V10.5562H10.1014V8.1562H7.70137ZM12.5014 8.1562V10.5562H14.9014V8.1562H12.5014ZM17.3014 8.1562V10.5562H19.7014V8.1562H17.3014ZM2.90137 12.9562V15.3562H5.30137V12.9562H2.90137ZM7.70137 12.9562V15.3562H10.1014V12.9562H7.70137ZM12.5014 12.9562V15.3562H14.9014V12.9562H12.5014ZM17.3014 12.9562V15.3562H19.7014V12.9562H17.3014ZM14.9014 10.5562V12.9562H17.3014V10.5562H14.9014ZM10.1014 10.5562V12.9562H12.5014V10.5562H10.1014ZM5.30137 10.5562V12.9562H7.70137V10.5562H5.30137Z" fill="white"/>
</g>
<defs>
<clipPath id="clip0_150_648">
<rect x="0.500977" y="0.956299" width="36" height="36" rx="18" fill="white"/>
</clipPath>
</defs>
</svg>
